/* XPM */
static char *out[] = {
/* columns rows colors chars-per-pixel */
"64 64 245 2 ",
"   c #663901",
".  c #773704",
"X  c #387706",
"o  c #5A4702",
"O  c #4D5E05",
"+  c #77520D",
"@  c #476907",
"#  c #4D700C",
"$  c #557E06",
"%  c #4B7815",
"&  c #68720E",
"*  c #7A7A14",
"=  c #6B5D35",
"-  c #52742D",
";  c #646E34",
":  c #707C53",
">  c #8F1D02",
",  c #982909",
"<  c #8D320C",
"1  c #952A11",
"2  c #8A3716",
"3  c #973814",
"4  c #AA2609",
"5  c #B82809",
"6  c #A83411",
"7  c #B73314",
"8  c #B43A24",
"9  c #C9320E",
"0  c #CA3211",
"q  c #CC3914",
"w  c #C43625",
"e  c #884616",
"r  c #884C10",
"t  c #954415",
"y  c #A54616",
"u  c #B44A19",
"i  c #A8561A",
"p  c #B55A1A",
"a  c #866D11",
"s  c #956C15",
"d  c #8A7A14",
"f  c #A6661B",
"g  c #BB651D",
"h  c #A67715",
"j  c #B77719",
"k  c #934424",
"l  c #944B37",
"z  c #AF4627",
"x  c #B34B25",
"c  c #B2452E",
"v  c #B94628",
"b  c #B44B2C",
"n  c #B95729",
"m  c #B84533",
"M  c #B44B32",
"N  c #B6583A",
"B  c #8B7232",
"V  c #A9752F",
"C  c #B97A21",
"Z  c #BD7A38",
"A  c #C84C1D",
"S  c #D8401B",
"D  c #C6781C",
"F  c #CA4628",
"G  c #D34826",
"H  c #C55927",
"J  c #C8483B",
"K  c #D24D34",
"L  c #C56729",
"P  c #CA7323",
"I  c #C97926",
"U  c #D27C2A",
"Y  c #CB6B30",
"T  c #CA7A37",
"R  c #CC7B3A",
"E  c #D27B38",
"W  c #B43D48",
"Q  c #98584B",
"!  c #B9564B",
"~  c #BA514E",
"^  c #95664A",
"/  c #96685A",
"(  c #8B795A",
")  c #B67A47",
"_  c #AF6A50",
"`  c #B75D65",
"'  c #9F6963",
"]  c #AD6A63",
"[  c #C34F4A",
"{  c #288A00",
"}  c #378B04",
"|  c #2E9301",
" . c #2B9D06",
".. c #359500",
"X. c #3B9600",
"o. c #359A00",
"O. c #3D9B00",
"+. c #3F900B",
"@. c #2E9C18",
"#. c #339717",
"$. c #1BA904",
"%. c #2DAB0F",
"&. c #3EA000",
"*. c #32A60A",
"=. c #3CAC1A",
"-. c #3D8B2E",
";. c #3A9329",
":. c #3EAB24",
">. c #478B05",
",. c #598B07",
"<. c #429502",
"1. c #4C9404",
"2. c #439D00",
"3. c #4A9D02",
"4. c #47990B",
"5. c #559407",
"6. c #539C03",
"7. c #5A9D04",
"8. c #5C930C",
"9. c #559B0B",
"0. c #5A9D0B",
"q. c #4B8719",
"w. c #4C9817",
"e. c #599914",
"r. c #69880A",
"t. c #758B0D",
"y. c #679809",
"u. c #72940B",
"i. c #77980C",
"p. c #658B15",
"a. c #7B8A16",
"s. c #699816",
"d. c #779819",
"f. c #45A100",
"g. c #4BA400",
"h. c #4DA900",
"j. c #46A10A",
"k. c #52A601",
"l. c #5AA204",
"z. c #54AA01",
"x. c #5AAD01",
"c. c #5AA20B",
"v. c #5AA717",
"b. c #64A308",
"n. c #67A418",
"m. c #74A016",
"M. c #4D8F2F",
"N. c #519827",
"B. c #789726",
"V. c #75912F",
"C. c #6B8538",
"Z. c #4EA72D",
"A. c #5CB327",
"S. c #5DB32A",
"D. c #73A427",
"F. c #65B526",
"G. c #569143",
"H. c #71864F",
"J. c #8B8A10",
"K. c #888B16",
"L. c #938A19",
"P. c #9A881B",
"I. c #849817",
"U. c #A7841D",
"Y. c #89982A",
"T. c #989628",
"R. c #938C32",
"E. c #899736",
"W. c #96993B",
"Q. c #AC8A26",
"!. c #B98828",
"~. c #A89528",
"^. c #B1942E",
"/. c #BB8A36",
"(. c #A79A35",
"). c #B4983A",
"_. c #92A430",
"`. c #A6A43C",
"'. c #D7B618",
"]. c #C28A2C",
"[. c #CB8829",
"{. c #D3822D",
"}. c #C59725",
"|. c #D89C28",
" X c #C38D32",
".X c #CA8836",
"XX c #D48432",
"oX c #D48A34",
"OX c #D98B36",
"+X c #D5843B",
"@X c #D9853A",
"#X c #D58B3D",
"$X c #DB8D3B",
"%X c #C69B3E",
"&X c #D99438",
"*X c #DE923D",
"=X c #D7A72D",
"-X c #D2B032",
";X c #DAC422",
":X c #9B8A44",
">X c #999645",
",X c #AA8C4A",
"<X c #B68749",
"1X c #A99648",
"2X c #BA9945",
"3X c #B98C56",
"4X c #AE9258",
"5X c #B49454",
"6X c #B7A947",
"7X c #BDAD50",
"8X c #CA8749",
"9X c #D48746",
"0X c #D58A44",
"qX c #DB8D42",
"wX c #D2874B",
"eX c #D28A4B",
"rX c #C89946",
"tX c #D69746",
"yX c #DD9243",
"uX c #DE9549",
"iX c #DD9B4B",
"pX c #C68B55",
"aX c #CC8A53",
"sX c #C39156",
"dX c #D79E53",
"fX c #DE9D53",
"gX c #E09342",
"hX c #E19649",
"jX c #E29B4D",
"kX c #E29E53",
"lX c #C7A74A",
"zX c #CBB34B",
"xX c #DAA558",
"cX c #E3A155",
"vX c #E5A45C",
"bX c #E8A65D",
"nX c #E9A95E",
"mX c #DEAA61",
"MX c #E5A662",
"NX c #E8A761",
"BX c #E6A964",
"VX c #E9AA64",
"CX c #E6AC6B",
"ZX c #E9AC6A",
"AX c #E5AD71",
/* pixels */
"k.z.h.h.g.h.x.x.g.g.3.3.2.f.f.g.2.O.O.O.f.h.h.h.h.&.&.*.f.g.o...X.2.3.f.O.f.h.f.X.X.3.g.2.O.2.O.X...{ ..O.2.X.O.g.h.g.2.....f.g.",
"g.g.g.g.g.z.z.g.g.f.3.3.2.O.f.3.2.O.O.O.f.g.h.h.&.f.o.&.g.f.O.X.<.<.g.g.2.&.f.f.X.X.3.g.f.O.O.O.X.......2.2.O.2.g.g.3.2...O.2.g.",
"f.f.&.&.g.g.f.2.O.2.2.2.3.O.O.X.O.O.o.&.O.f.g.h.f.2.f.f.g.g.f.3.3.2.g.g.O.O.O.O.O.2.3.f.f.f.O.......O.3.3.3.2.f.k.g.2.X...O.f.f.",
"O.o.&.&.g.g.2.O.X.O.2.3.2.O.X.X.X.O.2.f.O.f.g.g.3.3.f.g.g.f.g.g.f.3.g.g.f.O.O.O.O.2.O.2.f.3.O.....O.f.f.f.3.O.f.g.f.O.X.O.O.O.f.",
"2.2.g.g.k.g.f.2.O.2.g.f.2.O.O.X.O.2.f.g.3.3.g.f.f.f.3.f.2.f.f.g.g.g.6.g.f.&.o.o.O.2.O.O.3.f.o.o.| X.2.3.2.O.o.o.&.O.2.O.O.2.2.O.",
"f.g.g.k.g.g.3.2.2.2.2.2.O.2.2.2.2.f.f.f.f.g.f.3.f.O.&.O.O.O.g.g.k.k.3.3.f.O.o.o.X.2.O.2.f.f.o.o...O.3.g.f.O.O.o.O.2.O.2.2.&.O.2.",
"z.z.x.z.3.2.2.2.2.2.O.o.X.O.2.2.&.&.&.&.f.f.2.2.O.&.o.o.O.O.g.h.g.f.f.3.f.f.O.O.O.2.f.f.f.O.&.o.O.2.g.g.3.f.f.g.g.f.2.O.O.O.O.O.",
"z.z.x.k.2.O.O.2.&.f.O.X.X.X.<.3.f.&.o...&.3.2.O.O.o.&.o.O.O.g.g.f.f.2.2.3.2.O.X.X.2.f.f.f.f.&.&.O.f.g.g.f.f.z.z.g.g.2.O.O.O.....",
"f.g.l.k.2.O.O.2.f.f.g.3.O...O.2.f.2...| o.O.2.3.O.f.g.g.2.X.2.2.g.f.3.3.4.2.X.X.2.2.2.O.f.f.g.g.f.f.g.g.h.z.x.x.x.g.3.O.O.X...X.",
"2.3.z.k.3.2.X.<.f.g.z.g.2.O.X.<.f.f...| o.o.f.g.4.g.c.y.9.9.5.5.c.c.9.6.1.4.<.X.2.2.2.O.f.g.h.h.g.f.g.h.h.x.x.x.z.g.3.2.O.X.X...",
"O.f.z.z.3.<.X.2.h.z.x.z.g.3.2.X.2.O.....o.f.j.c.v.s.d.d.B.a.d.d.d.d.m.i.s.5.1.1.2.2.&.f.f.g.h.z.f.g.g.z.g.h.h.k.g.g.g.g.g.2.o...",
"O.2.z.k.g.2.2.3.z.x.z.z.g.g.2.2.2.O.O.4.w.e.d.B.Y.Y.R.T.T.R.~.T.T.T.T.T.K.a.a.s.8.9.3.g.g.z.h.g.f.g.h.g.g.g.g.f.2.3.g.k.g.3.O...",
"O.2.f.g.g.h.k.k.k.k.z.g.g.g.g.f.3.2.4.e.V.E.1X)./././. X.X X X.X X X.X X/./.!.~.R.Y.s.7.l.k.k.g.f.f.g.g.3.O.f.2.<.X.f.3.X.X.<.O.",
"2.f.2.3.g.g.k.k.g.g.g.f.2.f.z.c.e.e.B.V.1X5X8XeX0X0X0X0X$X@X@X#X$X$X$X$XqXtXtX#X.X(.Y.d.m.b.l.g.f.3.f.2.<.2.f.2.....2.3.X.X.2.2.",
"g.f.f.g.3.f.g.3.2.O.O.O.2.3.c.n.Y.>X(.,XrX8X.X0XtX0X0X#XqXqXqXqX*XqXqXgXyXyXjXiXdXsX%X).(._.s.l.g.3.2.O.O.O.g.f.X.} 2.2.2.2.2.O.",
"f.g.g.f.2.O.3.2.O.X.O.O.4.v.m.Y.>X3XpX8X9X+X#X.X&XyX#XyXuXqXqXuXgXuXhXhXjXjXjXjXfXfXiXtXtX).T.m.y.k.O.O...O.g.g.<.<.O.2.3.3.2.2.",
"2.3.f.f.O.O.O.f.O.O.X.2.e.B.W.1X5XaXeXeX0X#X#X#X$X$XqXuXuXiXuXuXhXkXkXkXjXjXjXjXcXcXjXiXtX-X%X(.Y.n.g.O.X.O.f.g.3.2.f.f.f.f.f.g.",
"2.2.f.3...X.f.f.f.2.4.w.B.E.5XsXaXeXeXeX0XqX$X$XqXqXgXhXfXfXuXkXkXvXkXvXcXcXcXcXcXcXkXjXiXiXiX%X(.I.9.<.O.2.3.f.3.3.g.f.f.f.3.g.",
"3.3.2.O.....3.f.f.4.w.V.>X5XsXaXtXeXeXeXqX*X*XqXqXqXuXfXfXxXkXkXvXMXvXMXcXcXcXcXcXcXjXjXjXkXjXtX%X(.d.9.3.f.3.2.2.f.3.2.f.O.2.2.",
"f.g.f.2.X.O.g.g.f.4.s.E.4XsXaXaXeXeXqXqXqXqXqXqXqXuXuXkXMXvXMXvXMXNXMXnXbXbXvXcXnXvXcXcXcXcXcXiXiX%XT.d.9.f.f.3.2.2.2.f.3.f.f.O.",
"g.k.z.h.f.2.g.f.X.w.V.:X3XaXeXwX9X0XqXqXqXyXqXhXqXuXjXkXfXvXvXMXNXNXZXZXVXnXnXcXbXvXvXcXnXvXvXcXcXdX).T.y.f.f.f.2.2.f.g.g.h.f.&.",
"g.k.k.g.f.f.f.f.X.e.R.,XpXaXwX9X0X0XqXqXqXqXqXhXuXhXjXkXkXvXMXMXNXNXZXNXnXnXnXnXbXbXbXnXnXnXnXnXcXfXdX(.s.4.g.f.O.O.f.g.h.h.f.f.",
"g.3.2.O.O.O.f.f.3.s.:X3XaXaXwX9X0X0XqXqXqXqXhXhXhXhXkXkXvXMXvXmXBXNXNXNXnXnXnXnXVXnXnXnXVXVXVXnXnXxXfX2XY.8.4.&.&.o.2.f.h.h.&.o.",
"O.O.O.O.o.O.2.3.5.B.,XpXaXaXwX9XE 0XqXgXqXqXuXhXhXhXkXkXvXMXMXMXBXBXNXNXVXnXVXnXVXVXVXVXVXVXVXnXnXvXkXrXE.s.6.f.f.f.O.f.h.g.f.&.",
"2.2.f.o.....O.4.s.R.<XpXaXaX9X9XqX0XqXyX$XyXgXhXjXjXcXcXMXCXCXCXBXBXVXVXVXVXVXVXVXZXZXVXZXVXVXVXBXvXvXrX(.B.0.g.f.f.g.g.g.g.f.&.",
"2.O.f.2.O.O.O.5.a.R.<XaXaXeX9X#XqX$X0XyX*X$XgXjXjXkXcXbXMXCXCXBXZXMXVXZXVXVXVXVXVXZXZXZXZXVXVXZXBXvXvXdX1XY.c.g.f.f.g.g.g.g.&.&.",
"O.2.o.&.f.f.2.0.V.:X3XaXwX8X#X+X#X#X&X$XqXgXgXhXjXcXcXnXMXCXCXCXNXNXVXVXZXZXVXVXZXZXZXZXZXZXAXAXCXBXvXdXrXY.0.O.O.2.g.k.k.k.f.O.",
"2.2.O.2.g.j.&.w.V.,X3XR 8X8X+X+XOXOX$X$XqXhXhXhXkXcXvXvXMXMXCXCXZXZXVXVXCXZXZXZXZXAXCXCXZXZXAXZXCXBXvXdXlX(.e.o.O.2.3.g.l.z.g.f.",
"2.2.3.3.g.j.#.-.C.^ ) 8XR R .XR +X@X$X$X*XhXkXfXkXkXkXMXCXCXAXCXZXZXZXZXCXCXZXZXZXZXZXZXZXCXCXCXCXMXvXfXdX(.9.O.2.f.2.f.x.x.z.g.",
"3.f.3.g.g.j.#.-.M.E.R.Z ) 8XT +X+X#X#X$XqXgXfXkXkXkXfXMXCXAXAXAXZXZXZXZXZXZXZXZXZXCXCXCXZXCXCXCXMXvXfXxX)._.j.*.&.f.o.2.h.z.z.k.",
"g.g.k.g.f.O.#.#.M.M.d h T R .XXX#X#XOXOX$X*XhXjXkXkXvXBXCXAXAXAXZXZXZXZXZXVXNXZXBXBXCXCXCXCXCXBXvXvXiXlX_.v.%.$. .O...O.O.f.g.g.",
"z.h.g.g.3.4.w.M.-.M.- d d !.!./..XoXXXOX$X$XgXjXfXcXMXBXCXAXAXCXZXZXZXZXVXVXNXNXBXBXMXMXmXxXzXxXxXlX%XW.D.w.@.@.| ....O.f.3.f.g.",
"z.h.2.2.4.e.H.H.; - % >.q.p.K.P.!.].[.oXOX$XtXiXfXkXvXMXBXCXCXZXZXZXBXMXVXnXnXcXMXvXxXdXzXlX6X6X`._.V.D.N.M.- @ X } ..<.g.h.3.4.",
"h.g.O.X.1.p.B ^ ^ = # @ @ $ r.a.K.P.T.~.~.^.^.^.).).6X7X7X7X7X7X7X7X7X7X7X6X6X6X6X6X).`.`._.Y.Y.E.E.H.G.M.; = = - +.X.3.g.g.2.2.",
"g.f.o.O.<.$ a k k e r < + + # >.+.+.4.w.c.s.p.s.n.v.v.A.F.F.F.F.F.F.S.S.A.A.A.A.S.S.S.S.w.N.q.- = Q Q Q Q ^ ^ B p.e.e.4.X...O.O.",
"h.g.O.X.<.$ + < t 3 6 6 < + O X X X { { } ..>.} o.%.%.%.%.=.=.=.=.:.:.:.:.Z.Z.Z.G.Z.M.N.q.# # & l W W W ! ^ ) ^ R.B.s.k.X...O.O.",
"h.h.f.O.<.>.$ & + e < 6 t t . .   o o o O O @ X } #.@.;.Z.;.-.M.M.M.G.G.H.: ( ( ( / ^ B r t y 6 7 w w F n V W.W.`._.i.7.3.2.2.2.",
"g.f.2.O.2.2.<.>.$ + 2 3 2 3 , , > > . .   o o o # % - - ; ; ; G.H.: : ( ( ' ] ` ` ` [ J 7 5 9 0 q q q A f B Y.D._.Y.m.7.3.4.2.3.",
"O.<...X.<.2.<.>.$ & + 2 2 2 1 4 4 5 4 4 , < > < . e e l l Q Q Q / / ' ] ! ` ~ ~ [ K K K G G q S S S S u s t.8.0.l.c.7.3.2.X.2.2.",
"X...X.<.2.2.2.<.1.& + 2 2 1 6 4 5 5 5 5 5 5 7 7 8 3 8 c ! ! ! _ ] ' ] ] ! [ [ W F K G G G G G G G G F u a & >.2.f.f.3.1.<.O.2.2.",
"O.O.g.3.3.2.2.<.6.r.a 3 < 1 1 1 4 5 5 0 0 q A A H g L Y Z ) <X,X4X4X4X3X_ N m m v F m v m m F v u z u i * r.1.2.g.f.2.X.2.3.g.g.",
"O.2.g.g.f.f.2.3.3.y.a t 2 1 1 1 4 4 5 7 0 F Y U {..X.XrX2X2X1X5X4X5X3X) N M m m c c c c M c x x v x z f * 5.4.f.h.h.2.O.3.g.g.k.",
"2.3.g.k.z.k.g.3.2.8.d f i y 3 1 > 1 1 6 u g [.=X-XzXzXzXlXlX5X4X<X<X_ N N M M M c c c c z 8 z v n L Y V a.1.<.2.h.h.g.g.g.k.g.k.",
"g.g.g.g.z.h.g.3.O.5.d f i i y y 1 3 6 3 y j !.=X-X-XzXzXzX6X3X) ) N N M c M M M b b M b n n H L Y E .X!.a.1.<.O.h.h.g.f.g.g.g.g.",
"z.z.z.g.f.f.2.2.X.,.& a f g g p g p p y y i U.}.'.;X;X-X%X/.n z z x c 8 z z x x x H L Y E E +X0X@XOXoXQ.s.3.O.2.f.3.2.O.3.g.g.g.",
"z.z.z.g.3.O.X...X.>.r.a f g D P D D g A u p j }.'.'.;X=X|.C n x n n n n n n n H L Y Y E qXgXgXgXqX#X].T.y.3.O.o.O.O.X.O.O.f.g.g.",
"g.k.h.h.O.O.X.X.2.6.,.r.s f P P D P P P P D [.[.|.=X-X&X#X.XE T T R R E E E +X@XE @X$X$X$X*X$X$X&X X~.i.7.f.&.o.O.2.O.O.3.f.f.g.",
"3.g.h.f.f.O...X.1.6.6.,.d s f D D P P U U U {.{.&X&XyXyXqX9X0XqXqXqXqXuXqXgXgX*XgXgXqX*X$X$XOXXX].U.I.y.k.f.o.o.O.2.2.f.f.f.f.f.",
"f.f.f.&.O.O.o.X.3.g.1.1.,.t.d h j D D D U U {.XXOX$X*XyXqXqXqXgXgXgXgXgXgX*X*X*X*X*X*X#XOXXX].!.P.K.y.k.3.2.O.O.2.f.f.g.g.f.2.O.",
"2.&.f.&.f.O.o.X.2.2.2.<.1.,.r.d J.h j D D D U XXXXOX$X$X$XqXqXqXqX*XgX*XgX*X&X|.oXoXXX X!.Q.P.K.u.y.6.g.2.2.O.2.f.g.g.g.f.f.f.O.",
"f.&.f.h.f.O.O...O.O.2.3.2.3.<.,.y.t.d h D D I U U U XXOXOXOXOXOX$X$X$X$X$XOXoX{.[.].Q.P.I.t.y.8.5.1.3.3.2.X.X.O.f.g.g.g.f.O.f.f.",
"O.&.h.h.f.O.O.O.O.O.2.2.2.3.X.X.1.5.r.J.P.U.U.U.!.!.C ].].].].].].[.].}.].].!.!.Q.P.K.t.5.1.3.2.2.2.2.3.2.<.O.3.k.z.g.f.&.f.g.g.",
"O.O.z.z.f.O.O.2.f.f.2.2.<.<.2.X.2.2.7.y.y.i.u.t.J.L.J.L.L.L.L.K.L.K.L.L.J.t.I.i.i.y.5.1.3.3.<.<.2.2.X.O.2.2.g.k.x.z.g.3.f.f.h.g.",
"O.2.g.g.2.O.2.f.h.h.f.O.<.X.<.X.O.o.f.g.z.l.7.7.y.t.u.u.u.t.u.r.r.u.i.y.y.8.y.7.6.3.<.2.2.2.2.2.2.2.O.O.X.2.g.z.x.z.f.g.h.h.g.f.",
"2.3.g.3.X.O.f.h.x.z.g.f.O.X.X.X.O.O.O.2.k.z.k.k.7.b.b.b.7.6.1.>.1.3.l.l.6.3.l.l.g.g.2.2.f.f.f.2.2.3.f.2.O.O.g.k.g.g.g.g.g.f.f.f.",
"g.3.3.O.X.O.f.h.z.h.g.f.X.X...X...O...2.g.k.z.z.k.l.x.x.k.3...} <.3.g.g.3.3.k.k.g.f.f.f.f.f.&.f.3.f.f.f.O.O.g.g.f.3.g.k.g.f.f.f.",
"z.z.3.2.2.O.o.f.f.g.f.f.O.X.X.X...| ..O.g.z.h.h.g.g.z.h.f.f.O.O.2.2.3.2.2.2.2.3.g.f.2.2.g.f.&.O.3.g.g.f.O.O.g.z.g.k.z.k.g.f.2.2.",
"z.g.2.2.2.2.O.O.&.f.g.f.o.O.X.X.....X.2.g.g.h.g.g.g.g.f.f.O.O.O.2.<.<.X.X.<.2.2.f.f.2.2.g.f.O.o.2.g.g.f.&.f.z.x.z.k.g.z.g.g.2.<.",
"g.3.O.O.2.3.O.2.f.h.z.z.3.X.X...X.X.3.f.3.2.3.f.g.g.3.O.O.O.f.f.2.<.X.X.X.<.X.2.g.g.f.O.O.O.&.o.O.3.g.f.O.f.z.x.g.3.g.g.g.g.<.X.",
"f.3.O.O.2.f.2.2.f.f.x.z.g.2.<.X.X.O.2.f.2.2.2.3.g.f.2.O.O.O.f.h.2.<.X.O.2.2.2.3.g.h.f.f.O.O.O.&.O.O.g.f.o.f.g.z.g.3.f.g.g.3.2.X.",
"g.f.f.f.f.g.2.2.O.3.g.g.g.f.2.O...o.&.f.g.g.2.o.f.f.o.O.O.2.g.h.2.O.O.O.3.g.g.g.h.h.&.O.2.2.2.O.X.O.2.2.O.O.f.g.2.3.f.g.z.g.2...",
"3.f.f.f.f.2.2.O.O.O.2.3.g.g.f.O.&.o.&.f.g.g.f.&.O.f.O.f.3.3.g.f.2.O.2.3.f.g.h.h.h.g.&.&.2.2.O.X.O.X.O.o.O.o.2.2.O.O.&.f.z.g.<...",
"O.O.&.f.O.O.O.O.o.....X.O.3.g.f.&.o.&.f.h.h.h.&.f.&.f.g.h.g.3.O.2.3.g.g.g.g.h.h.g.f.2.O.......X.....{ | | o.o.X.O.O.O.f.g.g.f.3.",
"X.O.&.O.O...O.o.........X.2.g.f.&.&.f.f.g.h.h.h.&.f.f.h.z.z.O.X.2.g.g.h.h.g.h.h.f.2.2.O.........X.| { { | | ....o.O.o.&.f.g.g.g."
};
