/* XPM */
static char *out[] = {
/* columns rows colors chars-per-pixel */
"50 50 245 2 ",
"   c #267B03",
".  c #2A8603",
"X  c #2C8C03",
"o  c #348D03",
"O  c #318907",
"+  c #398E04",
"@  c #2E9203",
"#  c #349303",
"$  c #3B9404",
"%  c #359903",
"&  c #3D9A04",
"*  c #3C950C",
"=  c #3C980A",
"-  c #318D18",
";  c #379716",
":  c #3EA104",
">  c #369B26",
",  c #3B9C31",
"<  c #36A239",
"1  c #429604",
"2  c #439C04",
"3  c #4A9D05",
"4  c #449D09",
"5  c #4B9D0C",
"6  c #529E08",
"7  c #459812",
"8  c #549B13",
"9  c #45A204",
"0  c #4BA304",
"q  c #4DA905",
"w  c #4AA50B",
"e  c #52A505",
"r  c #54AA05",
"t  c #5BAC05",
"y  c #54A40B",
"u  c #57AA0A",
"i  c #5BB306",
"p  c #5CB105",
"a  c #49A116",
"s  c #56A616",
"d  c #58B414",
"f  c #62AD05",
"g  c #64A80D",
"h  c #62B205",
"j  c #69BB06",
"k  c #66A619",
"l  c #70A61A",
"z  c #469A24",
"x  c #47A728",
"c  c #45A536",
"v  c #53AE31",
"b  c #6DA320",
"n  c #79A627",
"m  c #65B72C",
"M  c #77B125",
"N  c #399C4E",
"B  c #36A553",
"V  c #31A472",
"C  c #4DAD4C",
"Z  c #47AC5C",
"A  c #53B16B",
"S  c #66B669",
"D  c #7AC072",
"F  c #90AC1A",
"G  c #BD9C2A",
"H  c #8EB02F",
"J  c #96B434",
"K  c #A6B52E",
"L  c #A6B73A",
"P  c #D79714",
"I  c #F3AD17",
"U  c #DC9C26",
"Y  c #D7B530",
"T  c #E6A829",
"R  c #F1B829",
"E  c #F5B937",
"W  c #FEC23D",
"Q  c #96B24E",
"!  c #B0AF52",
"~  c #9AAA6E",
"^  c #B1B263",
"/  c #CFB54A",
"(  c #EBB54F",
")  c #EAB94A",
"_  c #E8B859",
"`  c #CBAD6F",
"'  c #EAB966",
"]  c #EEB774",
"[  c #B2C75F",
"{  c #97C670",
"}  c #D3C75B",
"|  c #E8C24A",
" . c #F9C247",
".. c #FDC44B",
"X. c #E7C655",
"o. c #F9C757",
"O. c #EAC666",
"+. c #F7CA67",
"@. c #F4CA76",
"#. c #F6D17A",
"$. c #3FAF92",
"%. c #3EB3B0",
"&. c #4BB694",
"*. c #75BE81",
"=. c #4CB9A7",
"-. c #4ABAB8",
";. c #54BDB4",
":. c #79BFA1",
">. c #79C592",
",. c #57C2B8",
"<. c #71C6A9",
"1. c #019ACD",
"2. c #16A1CF",
"3. c #00A0D7",
"4. c #03A5DD",
"5. c #34B6CD",
"6. c #05A9E2",
"7. c #0CADE4",
"8. c #0AB2ED",
"9. c #0DB4EE",
"0. c #14B4EB",
"q. c #19B3E9",
"w. c #1CBEF7",
"e. c #25B6E8",
"r. c #2DBAEC",
"t. c #37BBE8",
"y. c #24BEF3",
"u. c #29BEF3",
"i. c #4ABACC",
"p. c #78BEC7",
"a. c #46BCE5",
"s. c #54BFE3",
"d. c #3AC2EA",
"f. c #2DC1F5",
"g. c #28C4FA",
"h. c #33C6FA",
"j. c #39C7F8",
"k. c #54C2CD",
"l. c #68C6D8",
"z. c #71CBD5",
"x. c #49C2EA",
"c. c #5CC3E5",
"v. c #54C5EB",
"b. c #5BC6E9",
"n. c #43C4F1",
"m. c #4ACAF7",
"M. c #4CC9F4",
"N. c #44CCFD",
"B. c #53CAF3",
"V. c #5DCDF4",
"C. c #59CFF9",
"Z. c #4DD0FF",
"A. c #54D1FE",
"S. c #5CD3FD",
"D. c #63C3E3",
"F. c #67C6E8",
"G. c #63CBEE",
"H. c #6BCBEC",
"J. c #73CDEC",
"K. c #78CCE9",
"L. c #7AD1EC",
"P. c #67CDF1",
"I. c #71CFF0",
"U. c #65D1F5",
"Y. c #6CD2F5",
"T. c #65D5FD",
"R. c #6BD6FC",
"E. c #6ED8FE",
"W. c #74D3F4",
"Q. c #7AD4F4",
"!. c #75D6F8",
"~. c #75DAFE",
"^. c #7BDBFD",
"/. c #AEAF9D",
"(. c #EABD8D",
"). c #F0B88B",
"_. c #ECA9A5",
"`. c #94CF93",
"'. c #84CEB8",
"]. c #BAC0AB",
"[. c #B8D3BB",
"{. c #D8CB8D",
"}. c #F8C589",
"|. c #FAD585",
" X c #E8C794",
".X c #F7C599",
"XX c #F8DA98",
"oX c #D8D8A8",
"OX c #E9CFAE",
"+X c #F5CBA8",
"@X c #E8D8AB",
"#X c #F6D8A8",
"$X c #F5CAB4",
"%X c #EAD8B5",
"&X c #F6E4B2",
"*X c #93D1CD",
"=X c #B4D6DB",
"-X c #82CFEA",
";X c #88D4EC",
":X c #98DAED",
">X c #83D6F2",
",X c #8BD6F0",
"<X c #83D9F6",
"1X c #8BD9F5",
"2X c #84DDFD",
"3X c #8BDEFB",
"4X c #95DBF3",
"5X c #9ADCF4",
"6X c #94DFF9",
"7X c #A6DCEB",
"8X c #A4DEF2",
"9X c #9AE0E5",
"0X c #8CE0FF",
"qX c #9BE1F7",
"wX c #93E2FE",
"eX c #9BE4FD",
"rX c #B9E1EE",
"tX c #A7E4F8",
"yX c #A4E6FE",
"uX c #AAE6FC",
"iX c #ACE9FF",
"pX c #B4E2F2",
"aX c #BCE5F2",
"sX c #B4EBFF",
"dX c #BBEDFF",
"fX c #C7D6D3",
"gX c #E8DAC6",
"hX c #F5D9C8",
"jX c #E9E1C9",
"kX c #FCE5C9",
"lX c #E9E2D8",
"zX c #F2E8DD",
"xX c #CAE6EA",
"cX c #C3EBF8",
"vX c #C3EEFE",
"bX c #C6F0FF",
"nX c #CDF1FE",
"mX c #D3F2FD",
"MX c #DBF5FE",
"NX c #E7EEE4",
"BX c #F6F4EC",
"VX c #E6F5F8",
"CX c #E5F6FD",
"ZX c #EAF9FF",
"AX c #F2F7F5",
/* pixels */
"t e 9 r 0 t p e 3 1 0 r 0 9 9 9 r q r 0 @ % d + + 1 5 0 q & p 3 + e 2 % 1 1 $ o & 3 1 # r q 0 + % r ",
"2 t q 0 r q % e e # $ $ $ $ X $ 9 0 q r % q S 5 1 1 1 9 % : 0 # $ 0 e r q $ $ # $ 1 $ 2 r 2 $ # % t ",
"& q # q 6 $ $ 1 3 $ $ + 1 1 2 $ & 9 0 2 & { zX{ { 8 1 q # 2 o $ 3 2 2 q $ o $ 0 0 0 3 2 e r . $ # q ",
"% 0 6 r e 3 3 q t 2 # + 1 2 q q 0 q 9 u M oX%XjXjXoXH q 9 0 # 9 & # $ 2 # @ % 2 1 2 @ % & t # & o e ",
"0 1 h 1 0 e 6 2 1 2 9 3 3 2 : q 3 0 q Q #.|.XX&X&XkX%XM q $ # e & 9 2 & # # $ 0 3 9 2 % & 2 1 q $ # ",
"t 6 p + $ 2 0 & # # % 2 0 % # 2 0 2 Q @XXXXX#XkX@XXX|.} u 3 $ e $ 0 q & % 1 2 e e 1 0 0 e $ 3 9 2 + ",
"0 0 e 6 $ o 2 1 3 2 % 1 3 2 # # 0 1 [ &X|.(. X$X/.{.+.) M 1 $ e 2 9 0 0 q 0 & 3 e e t h t $ + % 1 $ ",
"% r t 1 1 $ 0 e e e 1 1 9 r % . # 3 [ #.O.` /.hXfX#X+.) L 6 1 0 9 & 2 2 e e 2 q q r f h 3 t $ 1 $ $ ",
"# r f 1 + + 0 h t e 0 2 1 0 1 # & r k / ) ) OX$X+X).o.+.X.H g e % 0 0 2 6 e 2 q r e 0 t 3 f 0 e # # ",
"$ 0 f e 1 3 2 t t r e e % % # 9 1 q 9 n Y T ' _._.). .+...| K e # 1 3 0 3 e 0 0 0 2 & $ 1 e 0 1 2 # ",
"1 0 2 r t e e 0 0 1 e t : & 1 9 $ 2 3 F Y T ( (.$X X_ _ E E Y l & 3 0 t r 2 1 1 & $ q $ + 1 3 1 1 e ",
"q 2 0 1 e 0 3 $ 1 $ r p 9 2 2 1 # * F R E ]  XhXkXhX%X.X) X.E K s q t t q 1 9 2 $ $ r & o $ 1 3 + 0 ",
"q $ q $ # 3 9 $ $ o q p 0 3 1 0 8 J X.#.%XlXlXlXzXzXlXlXgX#XW | L i q 9 & q r 1 % + 0 q 1 0 0 q $ 9 ",
"2 $ 0 % # 0 q 2 2 1 0 q 3 3 1 e J O.XXzXVXcXrXxX=X=XrX8X=X@XR o.@.J 5 $ $ 9 0 $ # 2 3 e e q 2 2 2 e ",
"0 2 2 # @ r e 1 0 2 2 q e 1 + n O.|.#.%XgX,X3X6X:X:X6X>X].) I ..|.X.n 1 & & r 0 & 0 9 2 3 0 o 2 9 3 ",
"t 1 e 1 1 0 9 # $ $ $ 0 2 1 k / +.+.E }.$Xp.P.>X4X:X;X*X XP I W o.o.L y 0 q t 0 1 9 1 2 & r # 2 0 r ",
"e 0 f & r 0 9 $ 2 $ + & & 1 H | ..W W }.(.! l.I.>X>XL.` +X_ I R ) W | n # $ 3 e 1 + 0 9 & r % r 2 9 ",
"2 2 3 % 2 q % 2 2 $ & 0 0 $ K | ....@..X( P ~ G.R.R.D.P ] .X' ) o...| H + X $ 3 3 o 2 2 $ 0 $ r 2 % ",
"2 0 2 & % o 2 e 1 9 0 r 0 2 ! o.o.}.+X' U P ! B.Z.A.a.G T ] .X}.|.o.X.J % # # 1 r 2 9 2 0 & 3 t q 9 ",
"3 $ & + $ $ 3 1 1 0 q 2 2 2 L +.@..X)._ O.@.[.Y.j.h.M.[.OX#X+X+X}.+.O.^ n 8 $ 1 e 2 9 9 0 2 e e q & ",
"9 & & + r e 2 1 + 2 0 0 1 * H ' }.+XgXzXBXBXVXvX1Xr.tXnXAXAXBXzXOX.X(.` Q 8 $ & 3 + # + + e 3 e X 0 ",
"2 0 $ 2 r $ $ 0 3 3 3 0 b ! (.(.gXNXMXCXZXZXZXCXcX5XcXCXZXZXZXVXNXoX^ l b 3 $ 2 e $ $ $ $ y f f $ 0 ",
"$ 1 3 e e @ & 3 1 4 e h n ! [ [.aXvXnXMXMXMXMXmXpX7XaXCXMXMXCXMXmXxX`.s 1 + # r p 9 $ $ 0 $ 3 t 0 r ",
"h 0 1 1 # % & r 2 9 r 0 3 m `.tXiXdXvXnXmXnXcXpX;X2.,XaXbXnXnXnXvXdX=XD 2 o 9 r r % # # e $ + q 2 r ",
"t & t e 3 # 3 t 3 0 i q 7 *.;X5X5XpXpXpXpXaX8Xb.6.1.q.F.7XaXaXaXpXpXtX*XC $ 1 1 $ o $ + $ o 3 % $ r ",
"0 r 2 2 & & 9 0 e 0 e u S *X1X<X!.U.C.M.n.f.9.7.3.1.6.y.u.n.M.B.Y.Q.>X4X:.z 2 0 & & $ 1 $ O 2 j + 0 ",
"e h # % &   $ r 1 f f v '.eXeX3X~.T.Z.N.j.y.0.4.6.1.6.w.h.N.A.T.^.wXiXiX7XS 9 0 q : 9 1 2 $ q $ $ 9 ",
"q 0 @ # 2 + o 9 4 w s >.tXsXiXwX~.T.A.N.h.w.7.6.3.4.4.q.h.N.A.T.~.0XyXsXsX*XC 3 & 1 & 3 2 f 1 X # 2 ",
"i & 9 % 1 # $ # 4 u A 9XdXsXiXuX0X~.T.M.t.q.8.6.3.6.6.7.e.n.A.R.~.0XyXdXdXiX<.7 $ 3 e & 3 f o $ 9 6 ",
"0 t # 3 e # $ 2 u m <.iXiXiXiXyXwX!.v.t.y.w.0.4.6.6.8.8.0.e.n.T.~.0XyXuXuXtX;XS & 3 r r 3 + o 6 1 0 ",
"+ $ + e 3 2 9 e u S >XeXyXuXyX1XH.b.x.h.h.y.7.6.6.6.9.9.0.y.r.a.U.<XwXyXeXqX,X,.c 2 & 9 2 2 $ $ + 3 ",
"$ $ $ 0 $ $ q 0 v ,.<X3X0X1XJ.H.b.B.m.N.j.r.0.7.8.6.9.w.0.f.h.j.n.v.P.Q.1X2X^.F.Z = 1 & 1 1 1 3 2 3 ",
"$ 1 t 0 2 3 e w Z F.!.W.J.J.H.Y.R.T.S.N.t.e.g.7.y.0.0.g.g.r.j.N.A.S.C.G.H.W.Y.T.=.> 3 2 t $ 2 0 e t ",
"2 6 0 t r r 3 a &.B.G.J.>X1X0X2X^.R.C.x.t.f.f.q.g.u.q.g.j.f.d.n.S.T.E.^.^.!.H.V.i.B % + f 1 t e 2 r ",
"h e 3 t 3 $ # , -.v.W.5XiXyXeX3X^.Y.v.a.j.j.r.f.j.h.e.d.j.Z.n.x.B.R.~.2X0XwX6XQ.v.V ; # e $ 0 0 2 0 ",
"e j e 0 $ 2 # B 5.W.uXdXsXyXeX3XW.F.v.M.S.m.t.N.Z.N.t.r.N.A.A.B.b.G.!.2XwXeXuXsX1X%.> % 9 + 9 2 e 0 ",
"1 e t 2 o % ; V G.yXdXdXsXiX6X>XH.c.U.T.S.B.t.A.A.A.x.t.B.S.T.E.R.G.H.>XwXyXiXvXdXz.N % 3 1 2 9 r q ",
"0 & r r X X > =.6XuXdXdXiXqX;XK.F.Y.~.E.R.v.B.T.T.R.S.a.x.T.E.~.2X<XW.K.;XtXsXvXdXqXZ = 2 2 e 0 2 $ ",
"q @ 9 1 & # , l.3XwXiXyX6X-XK.K.Q.0X2X^.R.s.U.R.~.~.E.b.a.T.^.2X3XwXwX1X-X,XsXdXsXyX<.a 0 0 q q 0 $ ",
"1 0 q & 9 = Z T.^.0XeX1X>XK.K.1XeXwX0X2XI.c.~.2X2X2X^.W.s.G.^.3XwXeXyXyX6X;X:XuXyXwXz.C 0 e q & 2 q ",
"$ 0 j 2 9 ; $.T.R.^.^.I.F.J.4XiXiXuXyX3XJ.F.2X0XeXwX0X2XF.c.0X0XeXiXdXsXiXqX;X,XwX0X^.A s & q 9 & 0 ",
"$ 2 e $ 2 x 5.C.V.T.U.F.F.1XsXvXvXdXyX1XD.Q.yXyXuXeXeXwXI.c.2XeXeXiXvXvXdXsX1XW.Q.^.W.,.m : 0 q & r ",
"0 $ 3 O & v d.M.B.A.v.s.J.yXsXvXvXdXqX;Xl.1XiXdXsXsXsXyX<Xc.Q.yXyXsXdXdXdXsXeXJ.P.E.U.v.v 2 e 0 & r ",
"e 1 & q @ C h.n.M.m.a.v.<XeXyXsXdXiX5X-XD.3XyXdXbXnXdXdX3XF.H.wXyXiXsXsXyXeXeX^.b.U.V.k.c 3 t e 1 2 ",
"f 0 2 e * B g.f.j.d.t.V.2X3XeXyXyXeX1XK.c.0XeXiXvXdXuXyXwXJ.b.2X0XwXeXyX6X<X2X~.M.x.=.C w r e 3 1 $ ",
"0 e 1 e + > V 2.r.e.a.T.^.<X3XwXwX0X>XJ.c.0X0XyXiXyXeXwX3XP.s.Y.^.0X0X0X<XW.~.R.i.Z s u y e e 2 $ e ",
"3 # o e t 0 ; s m Z -.T.!.Q.^.2X0X^.J.l.c.!.Q.wXwXwX0X0X^.H.a.V.E.~.~.~.!.P.G.-.N w t e 3 2 3 f $ $ ",
"r 2 2 3 r w : q w w v A -.c.R.~.!.H.c.i.c.~.I.^.0X^.0X!.R.G.%.&.;.k.,.,.&.B , a = % 0 3 $ 2 0 p # o ",
"@ 2 + & % 2 # X % 1 3 9 * - , < c v > : B ,.c.U.R.Y.G.k.&.B d w 9 a = * 4 4 # O # & & # 2 $ 2 9 2 r ",
"& + t 3 # $ + % + $ 2 0 q % & q q r : 9 @ d h ; > 7 O u h 1 r 0 0 3 + X X $ $ . X X # X & & $ q i 2 "
};
