/* XPM */
static char *out[] = {
/* columns rows colors chars-per-pixel */
"50 50 239 2 ",
"   c #060101",
".  c #0B0202",
"X  c #140303",
"o  c #1C0404",
"O  c #19090A",
"+  c #240303",
"@  c #2B0201",
"#  c #250B0B",
"$  c #340201",
"%  c #390705",
"&  c #3C110E",
"*  c #280F11",
"=  c #340F12",
"-  c #2B1316",
";  c #2B1A1E",
":  c #371315",
">  c #3C171C",
",  c #34191D",
"<  c #3D1A1E",
"1  c #3C201F",
"2  c #2D1D23",
"3  c #331E23",
"4  c #361B26",
"5  c #3B1E23",
"6  c #2F2026",
"7  c #342225",
"8  c #3C2125",
"9  c #34242B",
"0  c #3B252A",
"q  c #37282D",
"w  c #3B292D",
"e  c #3D2730",
"r  c #3D2C31",
"t  c #3F3034",
"y  c #470202",
"u  c #550000",
"i  c #53120A",
"p  c #4A1316",
"a  c #44151A",
"s  c #4C161B",
"d  c #441A1E",
"f  c #4B1C1D",
"g  c #541417",
"h  c #5C1516",
"j  c #571917",
"k  c #5E1A15",
"l  c #54161A",
"z  c #5A1619",
"x  c #521B1D",
"c  c #5C1C1C",
"v  c #640000",
"b  c #6C0000",
"n  c #730000",
"m  c #780504",
"M  c #79120D",
"N  c #690F12",
"B  c #651414",
"V  c #6B1513",
"C  c #671917",
"Z  c #631B1B",
"A  c #6B1C1C",
"S  c #761614",
"D  c #741B15",
"F  c #7B1C14",
"G  c #721C1B",
"H  c #49211E",
"J  c #56221E",
"K  c #5B241D",
"L  c #5C2C1E",
"P  c #65241B",
"I  c #64221C",
"U  c #6B231C",
"Y  c #7A2315",
"T  c #74231C",
"R  c #7B231C",
"E  c #752C1C",
"W  c #7C2B1D",
"Q  c #6B311D",
"!  c #76341D",
"~  c #431D22",
"^  c #4B1C21",
"/  c #521E22",
"(  c #681D21",
")  c #432225",
"_  c #4C2325",
"`  c #44252A",
"'  c #4C2629",
"]  c #432A2D",
"[  c #4B2B2D",
"{  c #542224",
"}  c #5B2324",
"|  c #582B25",
" . c #542629",
".. c #5C2729",
"X. c #542A2C",
"o. c #5C2A2C",
"O. c #4E312E",
"+. c #54312E",
"@. c #5D322E",
"#. c #432D32",
"$. c #4A2D31",
"%. c #532E31",
"&. c #5C2D32",
"*. c #433135",
"=. c #4B3335",
"-. c #453439",
";. c #4B3639",
":. c #47383D",
">. c #4C3A3D",
",. c #543334",
"<. c #5C3334",
"1. c #593B36",
"2. c #523539",
"3. c #5D3538",
"4. c #533A3D",
"5. c #5B3C3D",
"6. c #632424",
"7. c #6C2622",
"8. c #632923",
"9. c #6C2C24",
"0. c #622B2B",
"q. c #662A29",
"w. c #742522",
"e. c #742C24",
"r. c #782B27",
"t. c #7B2C24",
"y. c #6A3327",
"u. c #62312C",
"i. c #733224",
"p. c #7A3826",
"a. c #73342B",
"s. c #7C3A2B",
"d. c #632E31",
"f. c #6B2E31",
"g. c #633335",
"h. c #6A3334",
"j. c #683A35",
"k. c #63353A",
"l. c #6B3639",
"z. c #643A3D",
"x. c #6C3A3C",
"c. c #723534",
"v. c #733B33",
"b. c #793935",
"n. c #75432F",
"m. c #784436",
"M. c #4E3D42",
"N. c #523E41",
"B. c #5E3F42",
"V. c #683D41",
"C. c #733E40",
"Z. c #4E4045",
"A. c #534244",
"S. c #5A4245",
"D. c #544549",
"F. c #59464A",
"G. c #5A4A4D",
"H. c #5F4E51",
"J. c #5F5254",
"K. c #634345",
"L. c #684849",
"P. c #784545",
"I. c #634E51",
"U. c #615356",
"Y. c #67575B",
"T. c #716064",
"R. c #840000",
"E. c #8D0100",
"W. c #950000",
"Q. c #9A0000",
"!. c #8C190B",
"~. c #991D0C",
"^. c #871812",
"/. c #831D13",
"(. c #911E13",
"). c #A30100",
"_. c #AD0000",
"`. c #B40000",
"'. c #BC0000",
"]. c #81210F",
"[. c #9B240D",
"{. c #862414",
"}. c #8C2414",
"|. c #852916",
" X c #83231A",
".X c #822C1C",
"XX c #8C2C1A",
"oX c #942413",
"OX c #932B14",
"+X c #982814",
"@X c #843518",
"#X c #82321C",
"$X c #8B331C",
"%X c #9A3718",
"&X c #A8250D",
"*X c #BB2B0B",
"=X c #B5350E",
"-X c #A32913",
";X c #AD2D10",
":X c #A33213",
">X c #AA3412",
",X c #A73A17",
"<X c #B83A12",
"1X c #832A25",
"2X c #883726",
"3X c #943B26",
"4X c #853D33",
"5X c #C40000",
"6X c #CC0000",
"7X c #C40D03",
"8X c #D30000",
"9X c #DA0000",
"0X c #D71B07",
"qX c #E30000",
"wX c #E70200",
"eX c #F40000",
"rX c #FC0000",
"tX c #FD0C03",
"yX c #FB1204",
"uX c #CE290A",
"iX c #F4380E",
"pX c #8C461E",
"aX c #99471B",
"sX c #BE470F",
"dX c #A7441A",
"fX c #B74313",
"gX c #AB5619",
"hX c #854329",
"jX c #984627",
"kX c #86493A",
"lX c #914236",
"zX c #A44A30",
"xX c #C74A14",
"cX c #C65611",
"vX c #D65A19",
"bX c #FD4C13",
"nX c #FC5415",
"mX c #FD671B",
"MX c #FE8523",
/* pixels */
"J ,.D.G.J.Y.Y.D.>.>.8 Q p.1.-.q q q w q q 8 9 e q q c s 2 r r 9 9 _ 8.;.>.A.D.M.>.M.A.4.4.-.w w P A.",
"7.A.G.J.J.J.Z.M.G.G.L.hXn.*.t w 9 9 w w 0 0 9 9 3 2 {.l 7 q t q ) 9.s.L.Y.U.F.>.t t -.>.D.D.;._ u.S.",
"h.>.*.>.Z.:.r :.A.N.5.@.] r r #.r q w w #.q $.*.9 a ~.s 7 9 q $...,.A.G.G.D.Z.:.r q 9 w q 9 9 7.A.;.",
"5.>.r w t :.:.:.N.;.hX@X8 t r #.*.w 9 w e ] r 4 4 ,X!.d 7 6 4 ~ K *.r w r r r w r t t r 9 6 < 7.4.>.",
"4.*.*.-.:.Z.N.N.4.p.fX%X_ w 0 w #.#.e e #.] 8 2 l 4X[.j ` e ` Z W ,.w :.:.#.r -.>.N.A.A.2.#.I @.;.] ",
"w *.>.;.>.-.*.1.p.gXxX%X/ 8 9 9 e #.e e e e 4 5 A ;.uXw.,.M.V.b.$XI f [ ,.,.=.1.X.,.=.,.X.U OX .r ;.",
">.;.A.>.-.*.;.j.p.,.@.$XF s 5 8 5 e 4 e 4 4 4 C R &.%X} ] ] ;.S.l.a.E P P T y.z.n.n.Z.A.S.j.%Xo.-.>.",
"1.>.>.*.9 ] +.P } 8 1 W &XS j ^ ~ 4 4 4 5 5 x R z.K.X.G _ ) 0 [ =.2.h.1Xe.I ,.>.n.p.[ -.M.G.1Xf.>.4.",
"i.u.X.H {  .,...C Z c #X=X&X(.S z s ~ 5 ^ / ( f.K.<.X.F XX{ ) ) ) =.,.3.f.q.[ ' t.q.=.*.M.G.V.r.i.@.",
"W $X9.W 7.#.9 d C T 9.s.lX,X=X-X(.S Z Z  X(.f.V. . .X.w.xXXXU P } ..o.&.l.o.` 8.8.[ e r t M.B.d.$X! ",
"[ ! s.jX{ q 4 l A o.#.$.,.h.3XjX4X3X1Xw.>X[.0... .o. .r.jXjX3X-X,XaX2Xr.e...^ { X.] e t M.M.M.M.} a.",
"[ 1XhXkX%.` c ^././ _ { } h.l.z.V.V.V.C.r.-X( ..o.X.6.c.g.<.P.lXuXvXzX4X2Xq./ _ [ *.e M.M.M.M.M.8.2X",
"@.u.M.M.M.B.c.3X:XOXW r.l.C.V.k.h.k.C.P.d.+X1Xf.6./ ( &.0.0.&.c.3XzXP.V.3.q.} | ,.=.=.4.M.M.M.;.9.,.",
"@X8 q e e M.;.g.3X<Xt.d.3.k.C.P.C.f.l.C.f.(.(.( ( Z ( ( / ../ 0.l.b.g.%.' _ _ [ [ [ =.;.-.M.-. .! q ",
"dX^ 5 4 4 4 4 5 8.$X<.<.%.o.k.l.f...q.f.c. X^.^.G ^.S A ( / ( 6.q.o.{ ^ _ _ ) ) ) ) ] ] -.-.r ! #X5 ",
"kXK.3./ 4 ^ 4 ^ A t.V.k.g.&...../ / / / / h ^.V V !.N N Z j j V j s x / / d d _ [ ] =.=.$.#.` i.P.5.",
"N.G.S.0.c |.U XX%Xr.k.k.d...} f = O O O O o @ # + $ @ + o o o # + & B A G V S ( ' [ #.=.2.2.u.8.I.S.",
" .F.N.k.1XY f P 1X( &.&.&.{ x = . @ u u u u u u u u y $ $ $ $ @ X O s q.c.b.1Xw.} ' $.=.;.;.X...4.A.",
"x >.;.[ 9.{.a > l ( X.&.o./ & O + Q.0X0X9X9X9X9X9X8X_.Q.R.R.E.m u   * ..l.C.C.c.w.I  .$.8 d 8 { ] 4.",
"hXI ,.[ T [.B p s } o.o.0.f O X E.iXmXmXyXrXrXrXeXqX6X'.Q.Q.Q.Q.R.%   - 0.h.C.k.r.1Xw...X.@.<.n.#XK ",
",.m.dXT 3XlXb.F S G 6.&.o.- . b 0XmXMXiXtXeXwX8X8X8X6X6X5XQ.Q.Q.Q.n @ . > &.k.V.C.3Xw._ 0 ] ] ] 5.jX",
"0 [ i.dXo.B.K.b.-XXX../ : . y 7XnXMXbXtXwX8X6X6X6X6X6X6X5X`.Q.Q.Q.W.b + O ~ d.k.3.r.Z < 3 8 7 0 w O.",
"6 , _ {.5 5 $.%.r.F ^ a #   n 9XnXMXnXtXqX6X6X6X6X6X6X6X6X5X).Q.Q.Q.n +   4 d.k.3. .g > , , 7 , ; 6 ",
"; 2 < {.j 4 ` [ } C ^ ^ : O X ).yXmXmXyXwX6X6X6X6X6X6X6X6X5XQ.Q.Q.R.$ . - k.V.V.3._ z a 8 8 7 2 ; 6 ",
"2 ; : C a 4 8 ) f Z h x / = X + `.yXbXyXrX8X6X6X6X6X6X6X5X`.Q.Q.E.y   # o.x.k.X.' ) Y 6.) ; 7 6 ; ; ",
"6 ; a k , - - 3 J {.^.N V !.i . $ 5XrXrXrX9X6X6X6X6X6X6X6X).W.W.u   X : ^  . .'  ._ B z < , ; 7 6 ; ",
"6 , B Y #.0 5 h |.Z ^ H / / C % . u 8XrXrXeX6X6X6X6X6X6X5XQ.W.v X . = x / ^ ^ ^ ` / F w.| 8 #.7 ; a ",
"7 k %XK 0 8 < C T ~ _ _ 0.0.( S %   n qXrXrX8X6X6X6X6X6X_.W.n X . = / { / ^ ^ ` _ q.6.Y K ] #.0 d Y ",
"< j J J 2.1.I |.} ) _  .X...0..Xk o . E.wXrX9X6X6X6X6X5XQ.m +   = } ....0.<.%._ .Xt.f.g.} ^ 8 9 j a ",
"a V ^ 6.|.E aXE 8 ) _ '  .....}.!.p X X ).eXrX6X6X6X6X_.R.$   # / q.0.0.o.&.o..X:Xm.I.4.[ f < , Z g ",
"j [.j | OXH I U ` [ X.X.X.....Y *X[.& . @ '.eX9X6X6X'.E.y . @ C } 0.0.0.o.X.T }.v.K.S.;.8 < j f S ].",
"S >XY J U 3 ~ } ' [ $.' ' ' ..R <XsXF & X % 6XwX6X5XQ.u   @ !.>XT q.&.o.X.q.1Xi.z.5.=.0 < p B V !.,X",
"=XK f I J 5 3 < ) ] [ +.X. .| 1X;X&X(.t.& . u 8X8X`.u . X Z -XfX:X^.( } } T 7.5.K.4.w 5 a h !.[.[._ ",
"dX8 6 2 2 8 < d ~ ] ] [ =.X.q./.*X-Xr.c.&.*   b 5Xn X . > f.r.w.r.3X1XF }.{.7.5.4.] 8 5 5 B +X,X! 7 ",
"5.9 6 6 2 2 7 8 f _ ] =.$...G oX,Xe...o.d. .O   b X   = } d.f.f.x.x.c.3X<X=XE O.#.8 2 3 < Y L =.+.9 ",
"*.8 6 9 6 2 3 7 f P X.' { G ~.:Xe..._  .o.o.) O     = { o.&.k.V.z.z.z.j.%XxX@X] w 3 2 2 a D 0 q ] , ",
") P 7 7 9 6 7 7 H |.#Xe.$X<X:X9. ._ _  . .&.<.> y % A f.g.l.l.V.z.V.5.B.v.gXpX) 0 7 2 3 g /.a 7 K H ",
"<.s.{ 8 9 6 4 3 f R p.3XdXaXQ ' ' _  . . .X.g.o.[.M G h.l.z.%.%.$.5.S.L.L.hXaX| 7 2 2 ~ D oXI X.v.@.",
"K.S.x.../ a d j T OXhXaXhX| 0 ] ` ` [  .' X.&. .>X~.C _ &.,._ ` ) [ =.5.M.9.,X@X< 2 6 [ c.v.j.K.F.m.",
"A.>.4.3.&.k S /..Xn.m.hXaXQ ) ] ` ` [ %.%.$.[ Z 2XoXN f ` [ ` ` ` ) ] ] #.9.=X<X@XK ) :.D.F.D.A.M.A.",
"-.*.;.-.=...P 8.@.=.>.5.m.p._ ] ` ] ] ` [ ` f c 3.G N l ~ ` ] =.O.` w ] #.p.,XOX|.dXQ w w *.:.-.*.*.",
"8 3 9 *.*.' f 9 w *.-.:.A.j. .] ` ] ] ] ` J aX_ %.W ~.j 5 ` ` [ =.=.*.] 0 ! ,X{.T hXv.O.*.| ) 8 1 3 ",
"! 1 7 #.-.) j 6 9 *.*.*.-.,.y.| 0 8 5 H Z OXcX_ [  X*XD x ~ 0 8 ` ] ` K @X@X! @.<.L.L.N.N.B.@.! L , ",
"aXgX) w w x C 3 7 w q 9 w w i.aXQ 5 8 H  .f.2Xi.I <XuXoX..%.o.E ! W %X=X>Xi.4.N.4.F.H.G.G.H.S.n.gX! ",
"j.fXH 6 < F V ) q q q q 9 w | aXQ 7 9 w ] ;.2.<.X..X[.c [ ;.[ q..XOXuX=X@XS.N.>.>.A.F.I.U.T.Y.I.! ,X",
"O.:XH 7 f OXY H q w 9 w w w ! n.O.q 9 0 w ] ] =.-.O./.~ #.>.r ] ,.a.+XXX1.M.>.N.A.A.4.>.N.F.U.L.P :X",
") cXE #.,.z.1.+.w q q t r y.Q +.r w w w 0 ` ] #.*.[ C 8 q #.q r w *.0.y.Z.:.>.N.A.>.>.>.;.4.D.:.P cX",
") ! 5.A.G.J.G.A.;.w 9 8 H +.=.r t w w w 0 0 w w w 0 x 4 6 q 9 9 q 0 [ 5.>.:.N.A.N.N.A.A.>.*.:.*.P v.",
"K 4.F.U.U.Y.U.Z.D.A.,.pXhX=.-.q 9 q q w w 9 7 9 9 4 U l 3 r t 9 9 K E %.S.G.D.>.-.:.>.4.S.N.w 8 8.N.",
"i.A.F.G.J.F.t >.G.G.S.j.@.t r w q 9 9 r w 0 #.q 9 2 +Xs 6 q e r | a.L.Y.Y.U.D.M.t r t *.;.>.;.8.z.A."
};
