/* XPM */
static char *out[] = {
/* columns rows colors chars-per-pixel */
"50 50 250 2 ",
"   c #06090A",
".  c #04090C",
"X  c #050E13",
"o  c #0B1216",
"O  c #041318",
"+  c #0C1619",
"@  c #0E191B",
"#  c #131A1B",
"$  c #1B2F1A",
"%  c #1A351A",
"&  c #223D1D",
"*  c #051A25",
"=  c #141D22",
"-  c #04242C",
";  c #172827",
":  c #1D3C25",
">  c #193729",
",  c #062936",
"<  c #152D36",
"1  c #193A35",
"2  c #263C25",
"3  c #233C2B",
"4  c #2E382D",
"5  c #253C35",
"6  c #26451A",
"7  c #354F1B",
"8  c #37571B",
"9  c #3C6417",
"0  c #1D432B",
"q  c #1A453A",
"w  c #274428",
"e  c #354A29",
"r  c #2B5325",
"t  c #385628",
"y  c #244334",
"u  c #294739",
"i  c #344C34",
"p  c #394935",
"a  c #334B3D",
"s  c #295538",
"d  c #395735",
"f  c #3E523D",
"g  c #3B6427",
"h  c #396239",
"j  c #415C1B",
"k  c #496A1B",
"l  c #506F1B",
"z  c #4B7419",
"x  c #53771B",
"c  c #445A2A",
"v  c #49533C",
"b  c #455839",
"n  c #476726",
"m  c #556E2B",
"M  c #4B7528",
"N  c #557728",
"B  c #4A6637",
"V  c #566939",
"C  c #4A7634",
"Z  c #577835",
"A  c #637C35",
"S  c #02394C",
"D  c #194B43",
"F  c #164E4E",
"G  c #244B44",
"H  c #284845",
"J  c #2C4B45",
"K  c #314D43",
"L  c #364E47",
"P  c #295547",
"I  c #345345",
"U  c #3A5344",
"Y  c #35534B",
"T  c #3A554C",
"R  c #375A48",
"E  c #3D5A4D",
"W  c #284E51",
"Q  c #365E50",
"!  c #3C5C52",
"~  c #366348",
"^  c #396552",
"/  c #09526A",
"(  c #2B586A",
")  c #02607E",
"_  c #404F44",
"`  c #475A45",
"'  c #435C4C",
"]  c #545C48",
"[  c #475852",
"{  c #435C51",
"}  c #496847",
"|  c #4B624A",
" . c #54654C",
".. c #596849",
"X. c #467B4E",
"o. c #587646",
"O. c #4B6353",
"+. c #4B6758",
"@. c #526553",
"#. c #576955",
"$. c #556B54",
"%. c #546B5A",
"&. c #5B6D5C",
"*. c #5D725D",
"=. c #597959",
"-. c #686B4B",
";. c #657849",
":. c #646D58",
">. c #6C7B54",
",. c #63725C",
"<. c #68775B",
"1. c #737A5D",
"2. c #4C6F64",
"3. c #586B62",
"4. c #5C7364",
"5. c #5A7767",
"6. c #637563",
"7. c #6B7664",
"8. c #637A65",
"9. c #6B7A64",
"0. c #65756B",
"q. c #6C756B",
"w. c #647C6C",
"e. c #6B7C69",
"r. c #737C65",
"t. c #787965",
"y. c #717E6A",
"u. c #667C71",
"i. c #6A7D72",
"p. c #887C68",
"a. c #5C891A",
"s. c #628A1A",
"d. c #699616",
"f. c #5C8426",
"g. c #4F8134",
"h. c #58863A",
"j. c #668A26",
"k. c #6D9426",
"l. c #688636",
"z. c #6D9932",
"x. c #79A724",
"c. c #588851",
"v. c #57835A",
"b. c #648548",
"n. c #6D954B",
"m. c #698659",
"M. c #768659",
"N. c #779557",
"B. c #598D6F",
"V. c #6C8269",
"C. c #7A8867",
"Z. c #73826B",
"A. c #7A846C",
"S. c #699368",
"D. c #678276",
"F. c #6C8372",
"G. c #738573",
"H. c #788674",
"J. c #748976",
"K. c #7B8A75",
"L. c #748A7A",
"P. c #7D8C7A",
"I. c #7D927B",
"U. c #7CA579",
"Y. c #84AB27",
"T. c #98C22F",
"R. c #839849",
"E. c #899A54",
"W. c #94A25C",
"Q. c #84876B",
"!. c #90916D",
"~. c #838C74",
"^. c #8A8A75",
"/. c #838F7A",
"(. c #958D76",
"). c #889475",
"_. c #84927C",
"`. c #8B937C",
"'. c #93957C",
"]. c #96977C",
"[. c #A3957C",
"{. c #8DA462",
"}. c #027491",
"|. c #35738B",
" X c #427B8D",
".X c #0287A6",
"XX c #028FB2",
"oX c #0296B8",
"OX c #729184",
"+X c #6AA599",
"@X c #4492AE",
"#X c #069EC5",
"$X c #0AA4CA",
"%X c #09A9D5",
"&X c #18B6DB",
"*X c #3BB1DB",
"=X c #04AFE3",
"-X c #09B9E9",
";X c #07BDF4",
":X c #56A9CA",
">X c #61BBDA",
",X c #0BC4F5",
"<X c #0CC5FB",
"1X c #0ECAFB",
"2X c #15CAF7",
"3X c #11CDFD",
"4X c #17D3FD",
"5X c #2ED2FB",
"6X c #6DC2DB",
"7X c #50CCF2",
"8X c #5ADBFD",
"9X c #69C5E6",
"0X c #6DD1F3",
"qX c #78D9F9",
"wX c #869685",
"eX c #8B9681",
"rX c #8D9A84",
"tX c #87998F",
"yX c #939B83",
"uX c #989D87",
"iX c #A49A83",
"pX c #B29E86",
"aX c #97A289",
"sX c #9CA28B",
"dX c #9AA797",
"fX c #A6A78A",
"gX c #A2A58C",
"hX c #ABA48B",
"jX c #B2A88D",
"kX c #A5AB96",
"lX c #A5AC94",
"zX c #AAAD94",
"xX c #B4AC94",
"cX c #A7B396",
"vX c #ACB29B",
"bX c #B5B59B",
"nX c #B4B59D",
"mX c #9BACA1",
"MX c #AEB8A0",
"NX c #B4BAA2",
"BX c #B9BAA2",
"VX c #C1B69E",
"CX c #BFC1A8",
"ZX c #C4C4AD",
"AX c #88DDF6",
"SX c #8BE5FD",
"DX c #B8EBFD",
"FX c #BDF4FD",
"GX c #CDF1FB",
"HX c #EAFAFE",
/* pixels */
"k v ..] v c p 2 s 6 e f p 2 e i w 6 6 e c d.a.8 x x.d.9 6 6 6 c b b p 2 b v v i t 7 6 6 8 r 2 : % 9 ",
">.hXiX[.[.yXyXv h B hXpX(.^.^.p.t.4 b uX].M Z A.b.j.B aX*.t M.uX(.).C.b uXK.A.H.e.2 r C.=.Z.8.%.I 6 ",
"C.jXjXhXfXzXsX_ n -.iXiX].].(.^.t.p v fX].;.).K.A.<.9.`.H.w r.(.~.M.~.A./.A.A.y.e.y v.o.=.8.%.O.R > ",
"1.jXhXbXvXzXzX` m ..iXpX(.(.^.^.1.4  .gX].~.9.y.Z.$.$.J.9.w ` 6.C.).Q.A.,.r.e.e.3.: =.I.I.*.O.E G : ",
"..Q.bXMXvXkXgX` x c 1.t.:.:.@.v 4 4  .yX'.).v  .<.9.<.=.a 6 w y./.A.A.y.7.@.&.&.O.2 c.F.*.%.O.H D s ",
"-.`.vXvXvXkXdX@.x j.c c v c c B n Z  .).).A.<.).~.A.H.J.e.e $.eXA.y.Z.9.&.eX/.H.a 6 l.+.I a J y s S.",
"] vXvXkXlXdXkX` V ZXZXVXnXBXCXZXr.o.n.Q.A.C.Z.K.A.J.P.G.6.y @.9.9.9.8.,.G.7.&.&.+.w a.N.S.=.=.c.l.n.",
"p ,.0.7.,.@.p 2 V ZXBXBXnXBXNXvX..n V A.Z.&.).A.A.J.J.F.5.y I 3.6.6.$.V.6.&.&.@.+.3 m !.M.M.;.Z a.k.",
"k j e e 2 e c l A CXbXCXNXCXMXvX#.B #.y.7._ 6.,.*.5.5.2.2.q > q I K 3 _ a U p J q : >.nXuXeX/.,.V.Z ",
"N !.pX[.pXpXjXV ;.xXnXnXMXMXMXcX..o.| u u & 2 w w w w y P 6 w : y % % % $ $ ; > q 6 t.vXiXrXeX/.L.a ",
"-.VX[.[.[.(.p.v V vXvXkXkXvXvXvX| n l.Z Z n.k.j.k.l.N ;.;.>.V M...c k l m V V V c x >.uXuXrXwXG.5.a ",
"..xX[.[.[.(.^.v c rX_._./.dX/.q.u n R.W.W.W.W.W.E.f.!.bXbXxXgXnXgX:.j p.xXiX(.p.] j <.yXyXrXP.J.J.u ",
"v iX(.].].^.t.p t p a f U 4 w y y c nXxXjXfXhXxXvXv Q.xXjXzXvXzXuX<.e -.[.(.^.t.] 7 ..yXH.P.P.J.V.K ",
"v hX(.^.^.^.^.p j n V V b ] b 7 z m bXbXhXiXuXuX`.p ` 7...cXvXdXyXwXw t.(.p.^.p.:.7 b u 5 K K 5 a 0 ",
"e t.(.^.^./.] 4 V BXBXhXhXzXiX,.t Z vXzXdXdXdXdXrXL P.vXvXsXdXaXeX/.p :.(.!.^.t.1.7 l V V v c e t g ",
"7 4 p v _ p e & V pXiXgXzXgXgXwXm.6.mXmXdXmXdXdXtX3.OXmXmXtXOXOXOXD.p :.[.(.^.^.7.t M.zX].^.q.y.8.y ",
"l N A V V ..m x V t.yXvXzXdXmXeXp + + # @ = @ @ + + + @ @ + + o = 3.+.7.eX`./.~.&.t >.^.t.t.#.3.%.u ",
"A hXxXiXiX].t.j V ..uXkXkXkXdX3.X + < < < 1 < < < < , - - - * * . O T 3.f _ f v U d <.t.t.:.@.] [ 5 ",
"-.CXiX].].`.6.t A.gX`.gXdXdXwXo * +X9XqX9X9X9X9X9X9X&X$XoXXXXX.XF . ; b.;.b t c b Z ..t.,.,.4.+.U 1 ",
":.hXyXyXeX`.e.e /.sXtXH.mXtX; X  XAXGXDXSXqXqX8X8X5X<X-X%X$XoXXX.XS   4 yXvXuX'.C.n ` ,.#.4.O.E J D ",
"..gXuXrXwXP.&.} %.w.L O.D.5   ( AXGXHXDXqX8X8X4X4X3X2X,X,X$X$XoXXX}., . i.sXsXeXH.e r f 3 1 > > 1 q ",
"v <.yXeX_.P.%.b v.i ` =.B   < 6XGXHXFXSX8X5X4X4X4X3X1X1X,X&X$X$XoXXX}.O X OXdX/.#.c a.8 6 % % % 6 8 ",
"t f |  .o.+.U M z.x.{.N.p   ( 0XGXHXFXSX8X4X4X3X2X3X1X1X,X-X$X$X#XXX}.X   i.tXK. .t N b.B B >.M.b.Z ",
"k k N k j.B b.z.Y.x.N.).Z.+ X @XqXDXFXSX8X4X3X3X1X1X1X1X,X,X$X#X#X}.S   [ tX/.8.m N N.m.).9.`.`.~.V.",
"V fXN.l.N.l.l.z.T.x.).gXdX3.o ; :XqXSXSXqX5X3X3X1X1X<X<X,X=X#X#XXXS . ; #._ b M j.k.K.`.`.e.H././.&.",
"<.yX'.).} vXcXC.M aXfXsXsXtXL o < >XqXqXAX5X3X1X1X1X<X,X;X%X#XoX/ X ; o.Z m N f.s.j.>._.K._.P.H.F.*.",
"| K.Z.} @.cXyX| V.lXsX].C.Z.yX[ o W >XqXqX8X4X1X1X1X<X,X=X#XoX) O = wXgXhX].'.`.K.:.b *.e.OXJ.G.F.| ",
"f K.K.K.U U ,.].V.rXC.<.>.aXsXtX4 X ( 9X0XqX4X1X1X,X,X;X%X#X}.O + i.dXsXuXuX_.K.y.4.} O.8.J.F.F.w.R ",
"u ' L y w #.].'.Z.V.bXcXfX).`.rXtX< o |.0X0X5X<X<X;X;X=X#X.X* X 0.dXsXsXrXwXI.J.G.%.8 N.V.} +.^ I B ",
"c 7 t } z m.^.~.C.nXcXgXsXaX~.Q.P.i.= =  X0X0X<X<X;X;X%XoX, . u OXkXuXtX_.I.J.Z.+.a k s.j.N N M M f.",
"V !.Q.C.M.V C.t.$.} aXsXaX`.K.r.q.i.3.* < @X9X2X;X;X=X#XS . 5 .._ a [ %.%.%.| E d t A '.].rX`._.dX} ",
" .).Q.'.A.c r.9.)._.V._.wXK.G.6.3.3.0.H X < :X7X;X;X#X/ . ; 0.c l 8 t t n j.x.M N x `.`.`./.H.Z.y.L ",
"..Q.#.7.,.w ` e.Z.e.9.,.F.F.V.%.E 3 G E 5 . S *X;X%X}.. + 0.6.t Z Q.C.C.>.b.M.V o.k r.)._.J.Z.V.w.T ",
"1.^.^.Q.:.w 7 6.e.9.%.' | E a 1 > 6 8 M b.3 . ( &X}.O X 4.7.&.n K.~.A.Z.9.O.e.*.| w 6._.P.J.D.D.w.Y ",
":.~.K.H.7.e l ~ 5.3.E u ; > % w B m Z l.l.eX4 O / * X [ 0.&.O.a *.e.9.7.4.E E $.{ 3 &.L.L.D.V.D.L.T ",
" .K.H.G.6.d Z w 1 > > % 6 7 M.lXsXsXuX_.i Z.L.= . . [ q.O.U L 5 ' 7.*.%.| 3.| Q R > L 3.5.5.3.+.I F ",
"@.H.G.F.o.f.a.z 6 & d k a.;.NX`._.~.H.9.w  .wX0.= [ i.@.[ @.u : i 5.O.w.5.+.O.+.P ; 6 & w & & 2 % 0 ",
"t e f V Z f.E.!.K.Q.M.;.N V './.K.K.G.8.4 p q.H. Xq.[ @.+.[ I 2 w T 5.%.O.' ~ P D 0 M C e.%.O.E I 7 ",
"V /.A.V.>.m sXyX].aXuXyXe B wXK.J.G.F.5.2 t 3.3.t.3._ K 2.Y J q C ~ %.2.! Q W F D s c.b %.O.E Y P 1 ",
"8.wXH.e.%.t yXeX`.).wXK.i b I.G.F.F.D.%.a t +.+.[ [ L H H H G G c.OX+.Q Y Y G P s C Z ` { ! T J G 1 ",
"} J.w.6.%.p _._._.P.K.6.u e u.w.F.F.5.5.e g u ^ T I G D ; w D q S.OXS.P P ~ ^ v.B.g.v.8.5 Y W H q 0 ",
": a K R R B P.P.K.L.F.5.y l w 3 3 5 3 3 8 N > q G F D q 0 r h C h.U.S.n.c.h.x.g.+Xv.a 0 : r 1 q t h.",
"n b.b.Z f.Z J.G.G.J.D.5.y m C.M.>.=.#.$.} k t 0 q 0 w g g.M N.N.N.c.C.m.m.h.Z } } g N k x x 9 9 x a.",
"B <.m.<.m N OXV.5.D.D.2.u r.).9.,.%.@.[ ^ 2 v.C B B B M a.M.yXA.V.} Z.8.*.$.{ ' P : o.).).=.V.w.%.d ",
"<.kXH.9.` t y I U I I D F  .Z.6.%.O.{ ! T > #.eXI.H.K.%.7 V.7.,.#.$.#.*.[ [ E Y W > #.Z.Z.*.%.O.{ u ",
" .wX7.,.' B t n d ^ Q s g ` e.@.[ { T I J ; $.P.J.J.F.%.6 d #.#.$.O.E ' T T I J D : $.9.4.$.{ ! Y 5 ",
"f @.&.+.$.w.+.B B.v.+XB.g.i +.[ ! T J H u ; | G.J.D.V.2.& d } O.[ T a I Y K P G y s ` %.{ { T T P 1 ",
"' ' | %.5.O.^ E R v.+XOXX.` e.E Y K H H D > | J.D.u.u.+.6 ~ +.R K H H q J H G G s X.' { ! T Y L G 1 ",
"i E 2 5.+.! T Y ~ B.+XB.X.~ q I P H G u I : %.B.D.D.w.H r } +.Y H H 1 q D q F P B.B.G R T R Y J W D ",
"z x g s ^ 2.^ ^ ^ h.z.n.B.g & 0 > > > 0 r t } ! Q E R ~ N s > > ; > > q : a.a.g.c.c.r 0 : 0 : 0 s g "
};
