/* XPM */
static char *out[] = {
/* columns rows colors chars-per-pixel */
"64 64 246 2 ",
"   c #0F1410",
".  c #0F1114",
"X  c #121414",
"o  c #141A15",
"O  c #1B1916",
"+  c #12151D",
"@  c #161B1B",
"#  c #191E1D",
"$  c #231C19",
"%  c #1D350A",
"&  c #1B2416",
"*  c #1A231B",
"=  c #1E2C1A",
"-  c #24261B",
";  c #382619",
":  c #25351A",
">  c #161A23",
",  c #1A1E22",
"<  c #161828",
"1  c #191837",
"2  c #251D2B",
"3  c #1C2224",
"4  c #1D2920",
"5  c #1E2429",
"6  c #1A2233",
"7  c #252725",
"8  c #21262B",
"9  c #23292C",
"0  c #382C25",
"q  c #293524",
"w  c #363928",
"e  c #2A2936",
"r  c #342B35",
"t  c #303936",
"y  c #572E16",
"u  c #5C381A",
"i  c #673817",
"p  c #753E15",
"a  c #49352C",
"s  c #58392A",
"d  c #663823",
"f  c #6C3B2E",
"g  c #2B4A17",
"h  c #314F16",
"j  c #345816",
"k  c #36700C",
"l  c #3D7E09",
"z  c #3A6A16",
"x  c #334324",
"c  c #38492A",
"v  c #3A5725",
"b  c #3C5138",
"n  c #3D642C",
"m  c #504616",
"M  c #7B4615",
"N  c #6A5117",
"B  c #516F0F",
"V  c #466A19",
"C  c #576714",
"Z  c #487619",
"A  c #567914",
"S  c #686417",
"D  c #727217",
"F  c #4C462F",
"G  c #45562A",
"H  c #594838",
"J  c #485A34",
"K  c #704D32",
"L  c #754B38",
"P  c #4C6E2A",
"I  c #587A27",
"U  c #4C6335",
"Y  c #496635",
"T  c #556935",
"R  c #536B3A",
"E  c #597739",
"W  c #5B753D",
"Q  c #66692D",
"!  c #6F7232",
"~  c #1C1C45",
"^  c #1D1E51",
"/  c #221D4B",
"(  c #231E51",
")  c #1D2551",
"_  c #27294A",
"`  c #2F2F4C",
"'  c #38364B",
"]  c #282759",
"[  c #363657",
"{  c #272964",
"}  c #2B2C6C",
"|  c #29346B",
" . c #313269",
".. c #2B2D72",
"X. c #2C3474",
"o. c #2E327B",
"O. c #333A75",
"+. c #443D53",
"@. c #3A4A50",
"#. c #3B674F",
"$. c #34496C",
"%. c #26686D",
"&. c #534E4B",
"*. c #5B5658",
"=. c #6C564A",
"-. c #665957",
";. c #516B44",
":. c #5D7A42",
">. c #706C4B",
",. c #617D41",
"<. c #585462",
"1. c #4B6B74",
"2. c #6E7075",
"3. c #844B16",
"4. c #88561A",
"5. c #965A18",
"6. c #8A6418",
"7. c #99661B",
"8. c #87751C",
"9. c #A6681B",
"0. c #AB731F",
"q. c #B4771E",
"w. c #85562A",
"e. c #85583B",
"r. c #916E30",
"t. c #A66F23",
"y. c #AA7425",
"u. c #B67A23",
"i. c #AE743E",
"p. c #875744",
"a. c #8F6F4F",
"s. c #896553",
"d. c #AE7D57",
"f. c #807F7F",
"g. c #A47B61",
"h. c #B17F63",
"j. c #2E8D02",
"k. c #3C8A06",
"l. c #359500",
"z. c #3A9600",
"x. c #3D9A00",
"c. c #399804",
"v. c #3EA100",
"b. c #478C0A",
"n. c #588B0A",
"m. c #449604",
"M. c #439D00",
"N. c #499E02",
"B. c #4B940A",
"V. c #48980A",
"C. c #54990B",
"Z. c #488716",
"A. c #558816",
"S. c #4C9715",
"D. c #559818",
"F. c #6B8719",
"G. c #64961A",
"H. c #45A101",
"J. c #4BA301",
"K. c #4DA901",
"L. c #4CA00A",
"P. c #51A602",
"I. c #53A901",
"U. c #57A806",
"Y. c #57A113",
"T. c #62A20E",
"R. c #4E8E25",
"E. c #548826",
"W. c #589627",
"Q. c #5C8738",
"!. c #5A9131",
"~. c #758C25",
"^. c #6A912C",
"/. c #60853D",
"(. c #628D3B",
"). c #659437",
"_. c #68A532",
"`. c #5E8042",
"'. c #648344",
"]. c #678843",
"[. c #6A8945",
"{. c #718848",
"}. c #708877",
"|. c #9B801E",
" X c #918834",
".X c #BC8225",
"XX c #B19233",
"oX c #C68926",
"OX c #CC932C",
"+X c #D69829",
"@X c #C48634",
"#X c #C99636",
"$X c #D39C39",
"%X c #D9A232",
"&X c #DCA436",
"*X c #E3AB39",
"=X c #E9B23D",
"-X c #978B4C",
";X c #AC8F50",
":X c #978770",
">X c #A9846A",
",X c #B48A73",
"<X c #B08D71",
"1X c #BBA576",
"2X c #CA9749",
"3X c #D5A746",
"4X c #D9AB4F",
"5X c #D6B45B",
"6X c #E7B647",
"7X c #E3B350",
"8X c #C59A74",
"9X c #CEAA71",
"0X c #E5B670",
"qX c #EEC353",
"wX c #F3C958",
"eX c #E6C060",
"rX c #2E3984",
"tX c #313788",
"yX c #343D96",
"uX c #384899",
"iX c #25708F",
"pX c #6A7390",
"aX c #4C63A4",
"sX c #2394A4",
"dX c #57A1A3",
"fX c #918F8D",
"gX c #A59787",
"hX c #AC9E91",
"jX c #97A395",
"kX c #A7A08D",
"lX c #B1A794",
"zX c #82B2A6",
"xX c #B2B6AF",
"cX c #CAA589",
"vX c #D8B988",
"bX c #D5AF92",
"nX c #D2B393",
"mX c #E3B692",
"MX c #CABCA3",
"NX c #C0BFB9",
"BX c #E8C58C",
"VX c #CCC2A8",
"CX c #D1C5B1",
"ZX c #EACDB0",
"AX c #D7D2C6",
"SX c #E5D8C9",
/* pixels */
"P.P.K.K.J.K.I.I.P.J.N.N.N.N.H.J.H.M.z.v.J.K.U.U.C.S.A.E.). X-X X X X X_.~.G.T.I.c.z.J.J.M.z.M.M.z.l.j.j.x.M.z.x.K.P.J.M.l.l.H.J.",
"K.K.J.J.J.K.I.P.J.H.M.N.M.N.H.M.M.x.x.x.M.J.I.C.G.F.F.~. XXX-X;X;X-XXX X XF.G.n.b.b.V.J.M.x.x.x.z.l.j.l.x.M.M.M.J.K.N.M.z.z.H.J.",
"J.H.x.v.J.J.H.x.x.M.M.M.M.M.x.x.x.z.x.M.x.H.P.C.F.D t.XX#X3X5X5X5X$X3XXXXX|.8.D I A B.N.N.N.x.z.z.z.x.x.M.N.v.H.J.J.M.z.z.z.M.H.",
"v.H.x.x.J.J.M.z.z.x.M.M.M.M.x.z.z.M.H.H.V.V.D.F.6.6.q.oX&X6XeX7XqX6X%XXX.Xy.7.6.Q I Z.B.N.N.x.z.z.z.M.N.N.H.x.v.J.N.x.z.z.x.v.v.",
"H.H.I.I.K.J.M.M.x.M.H.H.N.M.z.M.M.N.J.J.C.D.F.D 6.0..X+X*X=X7X7X=X&XOX.X0.7.7.4.N m V Z B.N.x.z.l.z.M.N.M.x.x.l.x.H.x.M.H.M.x.v.",
"H.J.I.I.J.N.N.N.N.H.H.H.x.x.m.M.N.N.J.Y.G.~.8.r.y..X+X%X*X&X$X$X%X+XoX.X0.y.y.7.M N F C n.B.m.z.l.z.N.N.H.x.x.x.x.x.M.v.v.v.x.x.",
"J.K.I.I.N.M.N.N.H.x.x.z.x.z.x.M.N.N.Y.T. X XXX#X$X&X&X*X%X+XoX@X+X+XoX.X#X#XOX.X9.4.N S A A.m.m.x.M.J.J.N.H.H.H.J.v.H.x.H.M.l.z.",
"K.I.I.I.x.x.M.M.H.H.z.z.z.z.x.M.J.C.A.G. X#X3XqX6X6X6X*X%X+XoXoX+X+XOXOX&X6X3X&X@Xu.5.M Q A b.m.N.H.J.K.H.J.I.I.K.J.x.x.x.x.x.l.",
"N.J.I.P.N.M.z.M.H.J.J.M.z.z.z.M.N.n.D 8.XX=XqXwXwXwX6X6X=X+X+X+X+X+X+X*X6X7XwX6X6X%XoX9.S B n.N.N.H.J.J.I.I.U.U.I.J.m.z.M.z.z.z.",
"x.N.I.I.N.M.z.M.H.K.P.P.M.M.M.m.C.n.S 7.#X6XqXwXwX6X6X*X*X+XoX+X+X+X+X%X6X6XwX6X6X=X+Xu.6.C n.B.N.H.K.K.I.U.U.I.P.J.N.M.M.m.z.l.",
"m.N.I.I.N.z.z.m.K.I.I.I.P.N.m.m.n.F.6.0.+X*X=X=X6X6X+X+XoXoXq.oX.XoXoX+X&X6X3X*X*X+X+XoX7.6.D n.V.J.K.I.I.I.I.K.J.J.J.J.K.H.z.l.",
"x.M.P.I.N.M.m.M.P.I.I.I.P.J.M.B.n.D 7.q.OX+X+X%X&X%XoXq.q.q.i.9.0.9.0..XOX$X+XOX+XoX+XoX0.7.D n.B.J.K.K.K.I.J.H.N.N.J.P.J.H.z.l.",
"M.M.H.J.J.J.P.P.P.K.P.K.J.H.J.C.A S 6.9.q.oXq.q.oXoXq.9.w.w.p.p.4.N w.5.u.oXt.q.oXoXoXoXq.5.S B b.N.H.H.N.M.M.x.z.m.J.J.m.z.x.M.",
"N.M.M.H.J.K.I.I.J.H.J.H.M.M.J.C.B S 4.5.9.9.9.9.q.q.9.3.3.f s.d.e.L f w.t.u.9.9.q.q.q.q.9.5.N B b.H.H.x.x.x.H.M.z.z.N.H.z.z.z.M.",
"J.J.J.H.N.H.K.H.M.x.H.M.x.H.P.C.A S 3.3.5.3.3.5.5.5.5.M f p.h.,X;Xa.L p 9.t.9.t.9.5.9.5.5.6.N B m.J.v.x.l.z.J.H.z.z.M.M.M.M.M.M.",
"N.H.J.J.M.M.H.N.M.z.x.M.x.H.I.C.n.N p p p p p p 3.3.M p f p.,XcX8Xh.w.f 4.5.5.5.3.3.3.3.M N B A B.J.x.l.l.z.J.J.M.m.M.M.N.H.M.N.",
"x.N.J.H.z.z.H.H.x.x.x.x.M.J.K.P.n.B u y y i i i i i i p f p.,XcXcXh.=.f p p p 3.M i i u y u V b.N.N.x.z.z.z.J.J.J.J.H.J.H.H.H.J.",
"M.M.H.H.z.l.v.J.H.M.x.x.x.H.J.P.B.Z m y y i i i y y i d f p.,XcXcX,Xs.L f i p d u d m s y m Z V.J.J.x.z.x.x.H.H.J.K.J.J.H.H.H.H.",
"N.H.N.x.l.z.H.J.H.x.M.x.x.M.K.P.C.A G H K L K K s a d L s.h.cXbXbXcXh.s.L f s H L L L L F m Z M.J.K.M.x.H.H.v.M.N.N.x.x.M.M.N.M.",
"J.J.H.M.z.x.J.J.H.x.M.M.x.M.H.J.B.A T =.>.s.s.s.-.=.H -.fXcXbXCXbXbXhX:X=.H =.-.s.a.a.s.K T Z.V.P.J.M.M.M.H.M.x.M.M.M.x.M.H.M.H.",
"P.P.I.P.N.H.J.J.x.x.x.x.l.z.x.x.m.Z.E >.:X,X>X>X:XpX*.-.jXNXZXZXmXbXNXjX2.<.2.fXg.h.,X>X>.P Z.V.N.J.N.M.m.M.H.H.v.v.H.J.J.K.J.J.",
"J.K.I.K.J.H.H.M.x.z.x.z.l.z.x.M.M.S.E.{.:X<Xh.,XhXfX2.2.xXAXZXZXmXmXNXxX2.2.fXhX,Xh.>X:X'.R.c.V.M.N.M.N.z.x.H.H.x.v.H.K.I.K.H.N.",
"N.N.H.N.x.v.v.H.M.M.M.z.z.m.N.J.N.B.A.E ;.=.s.g.lXlXpXfXNXSXSXSXZXZXSXNXfX2.hXhXg.s.=.W E R.k.c.z.z.M.M.M.M.M.M.x.x.x.J.K.J.H.x.",
"M.x.x.x.l.x.x.v.N.N.z.z.M.M.P.P.B.Z.Z z F a K s.,XlXgXkXVXSXZXZXmXmXZXMXhXgXlX,Xs.K F c n R.Z.k.l.z.M.M.m.x.H.v.M.x.N.H.K.K.v.x.",
"M.M.x.x.l.x.x.x.M.M.z.M.J.J.P.V.b.z g = - - a L g.8XbXbXmXmX0XBXmX0X0XmXbXcX8Xh.=.a ; - : g z k.k.c.M.M.M.M.H.H.H.H.J.J.J.J.v.x.",
"M.M.H.x.z.z.z.x.x.M.m.M.K.J.P.b.z g = & X $ ; s p.;X9X0X0X7X0X7X4X4X7X0X0X8Xd.p.s ; O X @ = g z Z.m.m.H.x.x.v.H.H.J.J.J.K.J.v.v.",
"H.v.x.v.H.M.M.M.M.M.m.x.N.N.V.Z g = * 3 , # $ ; m e.;X2X3X$X#X;X@X@X$X$X@Xd.w.d 0 # * @ @ * = g z b.M.x.x.z.x.z.x.M.J.I.I.I.H.v.",
"H.H.x.M.J.H.M.v.M.N.m.M.M.m.b.z % @ * 3 5 3 $ $ y d 7.i.oXOX@X.X@X@X@X@Xt.3.y ; * @ 3 4 3 * * = j k m.J.x.x.z.z.z.M.H.K.I.I.J.H.",
"x.M.M.N.J.J.x.z.N.H.M.M.M.b.z j = @ 3 5 5 5 4 3 # ; u 4.y.oX#X$X$X#X.X0.3.i ; $ 3 3 5 9 5 3 * = h V m.K.J.M.z.x.M.H.x.N.I.I.K.N.",
"M.M.N.J.J.N.x.z.N.J.M.M.V.b.j : = > 3 6 5 5 6 4 > $ ; u 6.u.2X4X2X2Xy.4.d ; 7 < 4 5 9 9 5 3 3 * : j b.J.H.M.x.x.N.M.x.M.K.I.K.J.",
"K.K.K.J.J.x.z.z.H.K.N.M.S.Z.g = * 3 3 3 5 5 9 5 3 3 $ ; s w.;X2X2X;Xw.s ; $ 2 7 9 9 9 5 5 3 3 * & g l V.c.z.z.x.x.x.z.x.H.J.J.J.",
"P.P.J.N.N.x.l.z.J.J.N.m.S.V : * 3 3 3 3 5 5 9 9 5 3 , 7 a K ;X8X8Xg.K a 3 > 3 8 9 9 9 5 3 @ @ @ * : z l c.l.z.x.x.z.z.x.H.H.J.J.",
"I.J.v.v.M.x.l.z.N.J.m.m.Z j : @ > 3 3 3 4 5 4 6 4 5 6 6 q &.<XbXMXgX=.t 6 6 3 7 9 9 5 3 3 @ , 3 # : g z k.z.z.z.z.z.z.x.K.P.J.M.",
"K.J.x.l.x.x.l.l.M.N.m.l h : * + > 3 3 3 3 5 5 4 3 6 ) _ e &.gXMXMXgX*._ _ ) < * 5 8 3 3 3 3 3 3 @ & % j l l.z.x.z.x.z.M.K.J.H.x.",
"K.H.v.l.z.x.z.x.x.M.k.k % o   X @ 4 3 3 3 3 6 > > 1 { | ' *.gXMXMXkX&.t | ) 6 @ 3 3 3 3 3 , 3 @ X   o % k j.l.x.x.M.J.N.x.x.x.x.",
"K.H.v.l.x.x.l.l.M.z.l.k % o X . . @ @ > > > > < + ~ X.O.+.-.gXMXCXhX*.` | | 1 + + , , 3 7 7 9 7 - & % % k k.x.M.H.H.J.N.z.z.z.x.",
"P.K.H.v.x.x.z.l.z.x.m.k.h : + + . . . . + + + + < ~ | X.+.-.hXMXVXkX>.' $.X.~ + + @ @ $ 7 q a F m m w j k.m.N.H.M.N.N.M.M.M.M.M.",
"J.J.H.x.H.x.z.x.x.M.N.b.z x 9 2 4 O X   o * + < ~ ) rX$.+.=.gXMXVXkX*.' O.X.) 1 < + @ 7 F =.>.>.! K P V b.N.H.H.N.N.z.m.M.N.N.m.",
"x.x.l.z.M.H.M.x.N.J.P.C.Z G w a f s $ X : 9 + 1 ) | rXo. .<.hXMXVXkX<.[ X.o...) 1 < 3 t >.<X1X1X<Xr.Q Z b.N.x.M.x.M.x.z.z.z.m.M.",
"z.z.z.z.M.N.M.N.H.K.P.C.Z J Q =.a.=.0 - q 9 6 ~ X.rXuXX.} <.gXMXCXkX<.{ X.rXo.} / 1 3 F a.1XvXvX9X;X! Z b.x.x.x.M.M.x.z.z.x.m.M.",
"z.x.M.N.M.M.m.M.J.K.N.B.Z Q  X;X1X>X&.w 0 e / ] o.tXrXO.[ *.gXMXCXlX*.[ o.tXo.} { / 2 0 ! >X9XvX5X-XQ V k.x.z.H.J.H.z.z.M.N.J.J.",
"x.M.J.P.N.M.M.M.J.J.N.B.Z ! -X1XnX1Xa.H a r _ } tXyXrXO.' *.gXlXxXgX*.' O.tXtXo.} ( 2 0 K a.1X9X;Xa.I z k.z.x.H.P.K.N.x.N.J.J.K.",
"H.N.J.N.P.K.J.N.H.H.H.B.Z ! :X1XlXzX1Xa.H r ] o.tXyXtX.._ &.2.f.jX2.&._ ..tXyXtXo.] r a Q i.;X<Xr.! I Z.c.c.z.H.P.I.J.J.J.P.J.K.",
"K.J.J.J.P.I.J.N.M.M.J.B.Z W -XjXzXzXzX}.F r  .tXyXyXtX..] ' pXpXpXpX[ ] ..tXyXyXo.} / a K r.;X;X X~.A.S.m.m.l.x.J.P.J.N.J.P.J.J.",
"I.I.P.J.K.H.M.x.x.H.J.C.Z R '.dXsXsXdX1.` 1  .tXyXyXyXo. .O.aXaXaXaXO.} o.tXyXyXtX} ( ' &.K ! ~.^.G.C.V.H.v.x.x.M.N.x.M.M.N.H.J.",
"I.I.I.K.J.N.z.z.x.H.H.V.Z.P ;.1.sXsXiX$.e e } yXyXyXtX..} $.uXuXaXuXO.} } o.yXyXtX..] _ J T I W.D.C.V.M.K.H.v.x.x.z.x.x.M.N.J.J.",
"J.P.I.I.H.v.l.z.x.H.H.V.R.R.n #.iXiX%.@.r r  .o.yXtX..{ ..o.X.$.$.$.] ] ( { tXyXtX} ( r G I D.C.C.P.J.J.K.H.v.x.x.M.x.x.x.N.H.J.",
"M.N.K.K.v.x.l.l.H.J.v.V.S.Z.z n %.%.@.' r r ] } o...{ ] } { ` @.&.@.e 1 / / } o...] / r P A.C.C.J.J.J.J.K.v.l.l.x.N.N.H.H.H.H.H.",
"H.H.H.v.x.x.l.l.J.J.H.x.M.S.Z.P #.#.;.F 9 2 / / / / / / ^ ) t b ;.J 0 < 1 ~ ( ( / / 1 9 v Z.S.V.V.H.H.H.N.M.M.H.H.H.J.H.J.H.M.x.",
"M.v.H.v.v.x.l.x.M.v.x.x.H.V.R.E.E ;.U J w 9 1 1 2 1 1 1 1 5 x J W U 0 + < 1 1 1 1 1 1 9 n P A.S.V.L.L.J.M.M.x.M.J.K.J.J.H.N.v.x.",
"x.M.J.K.H.v.z.l.z.M.M.N.K.L.S.W.Q.`.,.W U w 3 . + + + + . o x Y W T - O + > < 5 , 2 6 t F T Q.!.D.Y.L.J.M.z.z.M.J.P.J.J.H.x.H.J.",
"x.v.K.K.J.v.x.x.x.x.M.J.J.Y.W.!.(.'.[.,.R c O . . + . .   o x Y W W : o o + 3 3 3 3 9 w J R /.(.!.W.L.H.M.M.x.H.K.P.J.H.v.v.J.J.",
"x.H.I.P.H.x.x.x.H.H.H.v.Y.W.!.!.].].[.:.Y x & . + + + @ X & x J W T q X X + 3 3 5 3 * q U ,.'.].Q.!.D.L.N.H.J.P.I.I.J.H.J.J.J.J.",
"x.M.K.J.M.x.x.H.K.K.H.L.S.!.!.].'.'.'.:.v q * o < + @ + X & x J ,.W q O X X , 5 3 3 * : Y :.'.'.].).W.C.m.M.J.P.I.I.J.H.J.J.K.H.",
"M.N.N.N.z.x.H.K.I.I.H.L.R.!.'.'.'.'.`.R x = 3 3 < , , + X & w G W T 0 O   X @ 5 5 @ o - J R :.].[.).!.W.c.M.J.P.I.J.J.J.J.H.v.H.",
"K.J.M.x.M.x.H.K.K.I.H.L.S.!.`.'.'.:.:.J q @ 5 4 7 $ , O o & x Y W T q O X X 3 5 3 3 @ * x J :.'.].[._.W.c.c.J.P.J.J.K.J.H.H.v.H.",
"I.P.N.N.H.x.x.v.H.K.K.L.W.!.`.`.:.:.U b 7 @ 5 e 9 5 3 @ o = c J '.T : O X + , 8 5 5 3 4 7 x R `.].).).Y.c.v.I.I.K.K.P.J.N.M.M.M.",
"I.K.M.M.N.v.l.v.v.H.I.U.S.!.!.].:.:.U c 4 > 5 t t 5 3 * * q G R '.T :   o O , 8 9 9 9 3 > q Y `.Q.^._.Y.c.x.K.I.P.P.P.K.J.N.m.m.",
"J.N.M.x.M.N.x.x.v.L.I.I.L.S.!.`.'.:.:.Y q * 9 9 9 9 > * q c R ,.'.R : o o @ 3 8 9 e 9 5 o = Y `.).).Y.Y.H.H.I.I.J.J.J.J.J.J.M.x.",
"N.N.x.x.M.H.M.M.v.K.I.I.I.L.W.!.Q.`.:.R x q w t t q 4 q c Y :.'.'.W c - # @ , 3 8 9 9 4 & : Y Q.!.D.Y.L.c.v.K.I.N.N.N.J.J.J.M.x.",
"J.H.H.M.J.J.M.M.x.N.J.K.K.U.Y.W.!.(.[.,.U J J J J J b ;.R :.,.].[.W J c - & o @ > > @ 3 q c E !.W.S.L.v.v.x.J.J.M.M.M.J.P.J.z.z.",
"H.H.H.H.H.H.M.x.x.M.M.H.K.K.K.Y.W.W.!.).Q.E R :.R R ;.;.,.[.{.[.[.,.W J w = * * 3 = = g j n R.R.V.V.v.v.x.l.H.v.M.x.x.H.I.K.z.z.",
"z.x.H.H.x.x.x.z.l.l.l.z.v.J.H.L.V.S.Y.W.).)._.!.Q.`.`.'.[.[.[.'.[.[./.W J c x x x v v n z k.Z.V.c.l.j.j.l.l.l.x.M.z.x.H.J.J.N.N.",
"l.l.H.H.z.z.z.l.l.l.l.l.x.x.H.v.x.L.U.U._._._._.[.].[.[.{.{.'.'.[.[.[./.T J c v n P z R.S.S.c.c.l.l.j.j.j.l.l.l.x.M.x.x.H.J.J.J."
};
