/* XPM */
static char *out[] = {
/* columns rows colors chars-per-pixel */
"50 50 248 2 ",
"   c #060D10",
".  c #152B1E",
"X  c #1B3A1D",
"o  c #243D1E",
"O  c #021D29",
"+  c #0D262F",
"@  c #193423",
"#  c #183727",
"$  c #1B3B2A",
"%  c #142D36",
"&  c #1B3C33",
"*  c #183939",
"=  c #253D28",
"-  c #233938",
";  c #1F401D",
":  c #27481A",
">  c #2F501A",
",  c #39581B",
"<  c #3B6419",
"1  c #1D4429",
"2  c #1A443A",
"3  c #2B4324",
"4  c #2C4A23",
"5  c #274528",
"6  c #354929",
"7  c #2B5326",
"8  c #385526",
"9  c #2A4434",
"0  c #27463A",
"q  c #364935",
"w  c #3C4D33",
"e  c #324C3C",
"r  c #275736",
"t  c #3A5538",
"y  c #3C632A",
"u  c #3D6537",
"i  c #425D1D",
"p  c #47691C",
"a  c #4F741C",
"s  c #52761C",
"d  c #455C2A",
"f  c #40483A",
"g  c #455939",
"h  c #476627",
"j  c #526D27",
"k  c #497329",
"l  c #567826",
"z  c #486438",
"x  c #556A38",
"c  c #497738",
"v  c #587736",
"b  c #63793A",
"n  c #073446",
"m  c #1A3A47",
"M  c #083D54",
"N  c #263C45",
"B  c #194A43",
"V  c #0C4955",
"C  c #164455",
"Z  c #294747",
"A  c #254942",
"S  c #2B4B44",
"D  c #344C47",
"F  c #28534A",
"G  c #3B5444",
"H  c #365846",
"J  c #34534B",
"K  c #3B554C",
"L  c #3B5B4B",
"P  c #2C4E56",
"I  c #3A5554",
"U  c #3D5B50",
"Y  c #3A6B4B",
"T  c #3B6756",
"R  c #044965",
"E  c #11556E",
"W  c #075676",
"Q  c #295668",
"!  c #2E596C",
"~  c #236D76",
"^  c #475745",
"/  c #455B45",
"(  c #435B4D",
")  c #4B5D4B",
"_  c #425C51",
"`  c #4A5A58",
"'  c #545B50",
"]  c #486546",
"[  c #4D644C",
"{  c #56664A",
"}  c #477646",
"|  c #5B7848",
" . c #456254",
".. c #4B6354",
"X. c #4B6A54",
"o. c #4B655A",
"O. c #4C6A5C",
"+. c #556555",
"@. c #536B55",
"#. c #5A6B54",
"$. c #546B5B",
"%. c #5B6D5B",
"&. c #4B7358",
"*. c #587357",
"=. c #5C715D",
"-. c #646A4B",
";. c #647949",
":. c #646B57",
">. c #63725B",
",. c #697859",
"<. c #757D59",
"1. c #496866",
"2. c #566C64",
"3. c #5C7363",
"4. c #567C69",
"5. c #577172",
"6. c #647463",
"7. c #657A64",
"8. c #677866",
"9. c #6B7B64",
"0. c #6B7D6B",
"q. c #737C64",
"w. c #767C68",
"e. c #697B73",
"r. c #837D69",
"t. c #5B851B",
"y. c #638D1D",
"u. c #5C8529",
"i. c #5B8734",
"p. c #638726",
"a. c #689528",
"s. c #72972F",
"d. c #678738",
"f. c #78A526",
"g. c #57874B",
"h. c #588859",
"j. c #68844B",
"k. c #73904A",
"l. c #648457",
"z. c #768558",
"x. c #5A8C6F",
"c. c #6B836B",
"v. c #74836C",
"b. c #798668",
"n. c #7B846C",
"m. c #6E966F",
"M. c #678576",
"N. c #6C8373",
"B. c #738573",
"V. c #758A76",
"C. c #7C8B74",
"Z. c #768978",
"A. c #7B8C7A",
"S. c #7C9477",
"D. c #75A474",
"F. c #8DB52D",
"G. c #82875A",
"H. c #84866A",
"J. c #8B8C6C",
"K. c #838B74",
"L. c #888874",
"P. c #8C8B74",
"I. c #828E7A",
"U. c #968D76",
"Y. c #889375",
"T. c #84927C",
"R. c #8B947C",
"E. c #94947B",
"W. c #97967C",
"Q. c #A49279",
"!. c #95A17D",
"~. c #045B80",
"^. c #04628A",
"/. c #186784",
"(. c #0B6B91",
"). c #33778D",
"_. c #0376A5",
"`. c #4E7788",
"'. c #667E83",
"]. c #34898C",
"[. c #0282B8",
"{. c #398FA9",
"}. c #6B8790",
"|. c #7B9398",
" X c #69A59E",
".X c #4F93B1",
"XX c #0D93CC",
"oX c #0298D8",
"OX c #34A3D2",
"+X c #009EE2",
"@X c #03A5E9",
"#X c #11ACEF",
"$X c #02ACF5",
"%X c #04AEF7",
"&X c #01B2FD",
"*X c #0CB6FF",
"=X c #16B8FD",
"-X c #2CB7F3",
";X c #439CC2",
":X c #59ACD0",
">X c #6CB0CD",
",X c #52BDEB",
"<X c #2DC0FF",
"1X c #39C3FD",
"2X c #51CFD0",
"3X c #48C7FE",
"4X c #55C8FA",
"5X c #5BCDFF",
"6X c #70C9EF",
"7X c #67CCF8",
"8X c #6AD1FF",
"9X c #77D5FE",
"0X c #5AE1E1",
"qX c #859482",
"wX c #8A9582",
"eX c #8D9A84",
"rX c #949B84",
"tX c #979A85",
"yX c #9B9C84",
"uX c #949E89",
"iX c #A79D85",
"pX c #98A288",
"aX c #9BA38B",
"sX c #9CA792",
"dX c #A3A48B",
"fX c #A7A88B",
"gX c #A5AC95",
"hX c #ABAD95",
"jX c #B4AA90",
"kX c #A8B196",
"lX c #ABB39B",
"zX c #B2B49C",
"xX c #B9B89D",
"cX c #93AFAF",
"vX c #8AACB6",
"bX c #ACB5A1",
"nX c #B4B9A2",
"mX c #BABCA3",
"MX c #A1B8B6",
"NX c #C1B69C",
"BX c #ACC4BB",
"VX c #C3C1AA",
"CX c #98BCC4",
"ZX c #9AC4D2",
"AX c #B2CECD",
"SX c #84DAFE",
"DX c #B3DBE6",
"FX c #B8E5F5",
/* pixels */
"p 8 d f = 6 o = 1 : 4 6 3 = 6 3 = > : 3 8 y.t.=   k.y.p : : : 3 6 8 = : 6 9 5 = 8 > : : < > 1 X X < ",
"{ U.U.U.U.J.n.f  .d H.H.q.-.:.8.:.= g <.z.p.u.$.R - x :.g , z L.H.b.9.f K.w.w.6.#.4 4 z g @.[ L 5 > ",
"H.fXiXfXdXgXyX^ h -.iXiXU.U.P.r.w.q g E.E.;.T.N oXR ` wXv.6 b.W.Y.J.q.,.R.K.n.n.0.5 z c.*.7.%.X.L - ",
"H.fXjXxXhXhXyX{ v -.iXiXiXU.U.L.r.w ^ E.E.b.e.R $X+Xn I.c.9 >.K.b.J.K.C.9.w.v.0.6.9 h.c.eX@.o.( S 1 ",
":.yXzXbXzXhXaX{ s x iXiXP.L.L.-.f - { pXrXqX% oX&X*X_.N K 3 = ) R.K.n.n.>.0.6.6.o.= } m.0.=.X.J 2 r ",
"-.P.zXzXlXkXaX%.s t.6 = = 6 4 6 d d g b.I.` ^.*X1X=X%XM 2.3 [ wXn.n.v.0.#.+.,.b.e 3 j.*.o...( - 2 } ",
"{ zXlXbXkXgXsX[ x mXNXxXNXVXxXhX<.v | H.e.m ,X5X8X5X=XXX- - #.v.9.0.0.>.0.0.6.2...4 u.b.[ G H &.g.k.",
"^ R.wXwXA.8.) e x VXmXmXnXxXxXBX+.h x w.` `.9X9XSX8X4X4XC _ G 0.9.8.3.9.9.6.%.$.o.= j k.j.j.| u.y.s.",
"p 6 = f 3 6 i i b mXxXmXmXmXnXlX#.h { ,.N ,XSX9X9XSX9X7X).- = N ] L e ' ^ ( K K S 1 ,.jXyXE.K.+.| i.",
"l k.r.r.r.r.r.b b jXxXmXbXnXbXlX..x ] |.P 7X9X8X8XSX9X7X).= = $ $ $ @ = @ . @ $ 2 5 q.kXdXuXwXC.A.t ",
"d.NXQ.Q.Q.U.P.-.x lXkXlXlXbXbXkX/ h j.C.Z ,X4X3X5X5X3X-XC ,.b ;.z d p p h d d d , p b.aXaXuXwXV.3.e ",
"-.NXQ.Q.Q.U.r.f g gXpXsXuXkXsXqXe h s.G.N XX*X%X*X=X@X~.1.hXfXzXhX-.i G.jXiXQ.Q.' p ,.eXpXwXqXZ.V.9 ",
"-.Q.U.U.W.U.r.w 6 ^ g ) ) ^ q e 0 h nXhX'.E -X-X=X%X^.Q cXhXzXhXaX:.6 -.iXr.r.r.' > -.tXwXA.A.V.N.S ",
"^ fXU.U.wXL.<.f i h g g f f w > < j VXmXBXN :X7X5X).C  XB.hXlXsXuXeX6 :.Q.U.U.r.{ i g ( G ) ..K L 9 ",
"g r.L.L.L.L.+.f x zXxXjXW.kXpX#., b mXnXDX}.! 6X:X- >XBXaXuXsXuXR.C.- -.Q.U.L.w.>.i a d w 6 6 6 8 y ",
"> f ' ' ' ^ q = x hXiXfXhXfXdX<.i d zXAXFXZX- `.N |.DXAXsXwXB.B.0.>.= :.yXU.P.L.:.6 <.hXyXL.w.9.8.5 ",
"a l d g d x h a b R.E.lXkXgXaXb.p g bXDXFXDX}.  % ZXvX}.5.'.e.wXqXN.5 :.rXI.P.I.%.8 q.P.r.w.+.6.%.0 ",
"l Q.NXfXiXdXL.h { g lXkXsXpXpXB.3 ^ cX5.D N I m % m C `..X).m ` 2.0 9 t ^ %.#.^ G t <.r.w.:.f #...0 ",
"<.VXiXyXW.E.>.w H.dXB.sXaXeXwXZ.- B.- `.>X:XQ   O oX-X8X9X4X@X^.m f , s p i , z ] ;.>.9.>.%.6.$.G . ",
":.fXyXtXeXR.7.w rXsXpXeXpXqX0.e e 2.Q 4X9X7XQ R O %X4X9X8X7X=X%X_.- #.h J.hXW.E.b.h { >.%.8.o...J B ",
"-.yXuXrXqXA.=.] X.3.G = 2.H H 0  .% XX8X9X.Xm OXO ;X5X9X8X3X=X=X,XQ ` = aXyXrXwXB.8 4 e 9 0 & * * B ",
"{ q.eXqXA.S.$.g *.u q , 8 9 r g ` W %X,X.XN .X7X/.Q 6X9X7X-X*X3X7X>X- q tXeXR.T.%.h t., : X X o : > ",
"d / %.>.,.3.L h a.s.k.p.a j v b.+ _.[.E m .X7X8X#X% >X7X5X=X=X8X9X6XP D wXwXT.A.{ 8 k | z z ;.;.j.v ",
"a p j p a.v j.d.F.F.k.k.j.Y.mXaX2.+ R /.:X9X9X8X%XXXm {.OXoX-X7X8X,X/.2.qXI.Z.0.x l k.,.C.#.Y.Y.C.c.",
"x dXJ.u.k.s.d.d.F.f.!.aXaX,.fXdX|.V @X%X1X7X5X<X&X$X_.M n n M Q ).OX_.` ^ ^ ^ j p.p.Y.eXY.>.C.T.K.=.",
"9.rXR.Y.x kXkXm.h fXfXaXpXb.:.aX|.E $X&X%X#XoX$X&X&X$X@XoXXX;X{.^.M O - ;.j l p.p.p.z.T.A.wXA.B.B.*.",
"{ I.v.] =.sXuX] c.hXpXpXc.z.E.Y.|.R $X$X[.~ {.~ +X&X&X$X_.V ! ,X%XoXN ` dXtXrXP.K.>.z O.7.qXV.B.N.[ ",
"t A.C.v.t ^ 9.R.9.V.z.S.,.dXrXE.^ V $X$X~ 0X2X2X^.&X&XoX].2X:X/.%X_.1.MXaXuXI.I.v.%.@.X.3.A.N.N.N.H ",
"e _ H e = ,.R.R.b.b.kXfXfXY.E.Y.9.% @X@X).2X].2XW &X&X_.].~ 2X~ +XR }.cXuXqXA.V.N.o.h k.*.*.=.} U z ",
"y > 6 z j z.J.K.v.kXkXgXaXrXY.n.0.% oX@XE E R V ^.&X&X[.V R R W XXn vXsX|.A.N.c.@.e p p.s.k.d.j.d.u.",
"x Q.U.Y.J.{ b.b.{ [ pXpXpXqXC.v.8.I ^.$X%X&X%X$X$X&X&X&X@X$X%X@XW ` vX3.*.*.] ] t 8 b aXaXR.I.I.sX] ",
"#.W.R.W.n.g 9.8.T.T.*.qXqXS.B.7.$.2.% XX&X&X<X=X&X&X@X(.V @X&X[.% CXl., a f.F.l t.t.R.E.Y.K.V.B.N.D ",
"q.aXn.:.' 8 w B.v.0.7.[ B.c.c.%.D - 5.n XX&X&XoXR n O M XX$X_.% vXAXpXS.b.| b.l.*.h v.T.K.V.B.c.N.K ",
",.L.K.K.9.6 8 3.0.9.#.) ( J - $ X : h V.B ^.+XoX_./..X,X#X~.C vXAXqXn.0.9.%.T.=...3 9.A.A.V.N.N.M.H ",
">.K.C.n.9.8 k H O.o.J 0 . # X t ;.j.j.;.,.2.P W ~.~.`.! P 5.ZXvXB.0.9.8.=.( G @.( = 2.V.V.N.N.N.Z.P ",
">.C.Z.B.*.t v 8 & $ @ X > d Y.fXrXuXE.wXt { qX'.5.'.'.|.ZXvX5.0 ..6.3.@. .7.(  .H @ e ` O.o.O.J 0 F ",
") 6.e.c.| u.y.s > 4 t a t.z.hXE.T.I.C.0.q x I.6.8.6.3.2.3.2.D @ G o.@.0.2.X.T T S # > , t w e 5 5 1 ",
"8 q t z v p.G.!.pX!.E.<.l ;.wXY.A.C.B.7.5 [ 0.%.2.+.^ o.o._ I $ 3 L 4.$.` T Y F A $ c | 7.$._  .H 4 ",
"#.sXR.Y.C.z yXyXrXrXeXtX6 x T.V.V.N.M.7.= g 3.+.' ) _ - I J A 2 c u &.1.H I F B 2 r g.] o. .U J F & ",
"v.R.B.0.%.t rXR.R.I.qXZ.= ] V.V.N.N.M.3.t 8 U  ._ I D Z & F F F m.}.O.T J J F F Y i.| @._ L J D A $ ",
"Y 7.3.2.( w qXA.I.I.V.N.= 6 X...$.2.O.L 8 u 2 T U F S 2 1 7 2 r g.m.m.x.T Y } h.D.g.&.&.0 S F A r 7 ",
"5 L L L ] } A.A.A.A.N.c.= k > = = 5 5 $ , l # * B B 2 2 r 7 y i.a.m.l.i.i.a.f.k x.&.t 5 > 8 1 r y u.",
"p l d.l u.v A.V.N.c.e.M.$ ;.aXY.K.v.0.7.[ 8 c 7 1 1 7 k t.c E.Y.S.*.T.S.S.,.{ @.Y 8 l d.d.l k k l u.",
">.R.sXK.z h 7.4.O.M.4.P & n.n.9.=.+..._ U 5 h.,.c.b.b.] s l.Y.0.,.] 7.7.@. ._ K F $ *.B.v.,.B.N.3.e ",
">.aX0.6./ , = 0 0 L T 2 2 ,.0.%.+.` ( U J $ { T.K.V.B.X.7 g 6.>.%.%.X.@.( ( K D F $ #.0.c.%.X.` L 0 ",
") C.6.>.H 7.z k x.H Y u k / 8..._ _ K F Z # [ A.C.B.N.O.4 q %.%.+...0 ( K K D F B $ #.7.%..._ K I - ",
"^ ( %...7.%. .] } h.BXx.c { %.( K J S S A & / Z.V.c.N.T 4 ] t X.( J D S J Z F B 1 t /  ._ _ K J F * ",
"/ @.e 0.2. .L K H &. X X} X.$.L J S S A - # ..Z.M.e.e.L 7 G &.H Z Z - 2 F A F B Y h...( I K K F F 2 ",
"7 t u O.U J F J T h.D.x.x.u 2 r 2 2 2 0 u 7 N.O.1.$.O.F ] e e A - 0 B B * r r u x.h.r r 2 S A S B 2 ",
"t.y.y 5 T 4.1.T i.i.a.g.m.k : ; # # # # 1 y g.2.T U U } u.y + # @ @ # # 1 y.a.a.c g.u 7 1 7 X ; 7 k "
};
