/* XPM */
static char *out[] = {
/* columns rows colors chars-per-pixel */
"64 64 250 2 ",
"   c #0E1210",
".  c #0F1215",
"X  c #111616",
"o  c #151B14",
"O  c #1B1B16",
"+  c #12151C",
"@  c #151B1B",
"#  c #191E1D",
"$  c #241D19",
"%  c #1E390D",
"&  c #1B231B",
"*  c #1C2918",
"=  c #213E0A",
"-  c #23231B",
";  c #252A1B",
":  c #392719",
">  c #23321C",
",  c #273919",
"<  c #111123",
"1  c #151726",
"2  c #191E21",
"3  c #191837",
"4  c #221D32",
"5  c #1C2224",
"6  c #1E2429",
"7  c #1E2431",
"8  c #252826",
"9  c #21262B",
"0  c #23292C",
"q  c #392C26",
"w  c #2B3422",
"e  c #2B3825",
"r  c #363928",
"t  c #292835",
"y  c #382C3B",
"u  c #3A3637",
"i  c #582E17",
"p  c #5A3519",
"a  c #663718",
"s  c #753E16",
"d  c #473429",
"f  c #4E352E",
"g  c #673925",
"h  c #623930",
"j  c #294A17",
"k  c #354D1C",
"l  c #345616",
"z  c #37750B",
"x  c #386817",
"c  c #374627",
"v  c #3A5624",
"b  c #3B4539",
"n  c #3E6920",
"m  c #544717",
"M  c #7B4314",
"N  c #784619",
"B  c #705317",
"V  c #526F0F",
"C  c #456D1B",
"Z  c #576714",
"A  c #457718",
"S  c #557917",
"D  c #686519",
"F  c #756B16",
"G  c #6C7919",
"H  c #4F4B2B",
"J  c #46592D",
"K  c #5C4334",
"L  c #475833",
"P  c #585335",
"I  c #704E2A",
"U  c #674A38",
"Y  c #734A37",
"T  c #76533A",
"R  c #476525",
"E  c #497725",
"W  c #54712B",
"Q  c #4B6437",
"!  c #546938",
"~  c #5A743D",
"^  c #597839",
"/  c #6C7133",
"(  c #1A1C44",
")  c #221C4A",
"_  c #231E51",
"`  c #1C224A",
"'  c #1D2355",
"]  c #282747",
"[  c #37324C",
"{  c #272657",
"}  c #383755",
"|  c #292A68",
" . c #2B316B",
".. c #323268",
"X. c #2B2D73",
"o. c #2E2F7A",
"O. c #2D3378",
"+. c #323B75",
"@. c #41374F",
"#. c #3B4651",
"$. c #374571",
"%. c #565050",
"&. c #6B5447",
"*. c #755B47",
"=. c #635857",
"-. c #5C7C43",
";. c #50714E",
":. c #716B4E",
">. c #637E42",
",. c #5A5B6D",
"<. c #6E6F74",
"1. c #874C16",
"2. c #87561A",
"3. c #955918",
"4. c #98681B",
"5. c #8A701B",
"6. c #A6681B",
"7. c #AB741E",
"8. c #B5771E",
"9. c #89592D",
"0. c #907033",
"q. c #A66E24",
"w. c #A97225",
"e. c #B67B23",
"r. c #845744",
"t. c #896749",
"y. c #8B6654",
"u. c #946A53",
"i. c #8F7651",
"p. c #B07947",
"a. c #807D7D",
"s. c #A77D63",
"d. c #318D06",
"f. c #3B8807",
"g. c #359500",
"h. c #3A9600",
"j. c #369A00",
"k. c #3D9A00",
"l. c #3F950C",
"z. c #3EA000",
"x. c #468B0A",
"c. c #588A0B",
"v. c #439506",
"b. c #439D00",
"n. c #4A9E02",
"m. c #43950B",
"M. c #4C930A",
"N. c #47980A",
"B. c #4C9C0B",
"V. c #559A09",
"C. c #488916",
"Z. c #568815",
"A. c #4C9B13",
"S. c #4B971A",
"D. c #579713",
"F. c #529A1C",
"G. c #67881A",
"H. c #6B931D",
"J. c #45A101",
"K. c #4BA401",
"L. c #4EA801",
"P. c #4EA10B",
"I. c #51A601",
"U. c #53A901",
"Y. c #5AAC02",
"T. c #54A30B",
"R. c #58A019",
"E. c #558928",
"W. c #4A9828",
"Q. c #569628",
"!. c #4C8732",
"~. c #5B8937",
"^. c #5C9234",
"/. c #6A8C28",
"(. c #628A3B",
"). c #649537",
"_. c #3D8D56",
"`. c #2F8C79",
"'. c #4F8D49",
"]. c #648444",
"[. c #668844",
"{. c #6A8A45",
"}. c #6E8B46",
"|. c #748A71",
" X c #8C8733",
".X c #BD8325",
"XX c #B18E32",
"oX c #C68926",
"OX c #D08F23",
"+X c #CD942C",
"@X c #D79829",
"#X c #C48B37",
"$X c #C99636",
"%X c #D39C35",
"&X c #D9A232",
"*X c #DCA537",
"=X c #E2AA38",
"-X c #E6AD38",
";X c #8E8946",
":X c #A39549",
">X c #AE8950",
",X c #98896C",
"<X c #A8866B",
"1X c #AE876C",
"2X c #B38972",
"3X c #A89675",
"4X c #B79479",
"5X c #B9A277",
"6X c #CB9849",
"7X c #D3A950",
"8X c #E8B747",
"9X c #E3B454",
"0X c #C39974",
"qX c #D4B06D",
"wX c #E5B671",
"eX c #EEC354",
"rX c #F3C958",
"tX c #E6C060",
"yX c #2E3783",
"uX c #31378A",
"iX c #343C98",
"pX c #38489A",
"aX c #5A6A9B",
"sX c #415BA3",
"dX c #2A9189",
"fX c #239AA0",
"gX c #58968E",
"hX c #928F8B",
"jX c #A59988",
"kX c #B49D8D",
"lX c #A99E93",
"zX c #95A593",
"xX c #AAA28F",
"cX c #B5A78A",
"vX c #B1A794",
"bX c #AEB5AE",
"nX c #C09F86",
"mX c #CAA689",
"MX c #D0B18F",
"NX c #E4BA86",
"BX c #E8BE99",
"VX c #C7BDA2",
"CX c #C0BFB9",
"ZX c #D5C198",
"AX c #E8C885",
"SX c #E7C398",
"DX c #CBC2A7",
"FX c #CEC5AF",
"GX c #E8D2B4",
"HX c #DDD7C9",
/* pixels */
"I.I.L.L.L.L.U.U.I.K.n.n.n.n.K.K.J.k.k.z.K.L.Y.Y.T.V.Z./. X X;X;X;X X X/.H.H.R.T.v.k.n.K.b.k.v.k.k.g.g.g.b.b.k.k.K.L.K.b.g.g.J.K.",
"L.L.K.K.K.K.I.I.K.b.n.b.b.b.K.b.b.k.k.k.b.K.T.Y.c.G.G.0. X X:X:X:X:X:X X XH.G.D.x.m.B.K.b.k.h.h.h.g.g.j.b.b.b.b.K.I.J.b.h.k.J.J.",
"J.J.j.k.K.K.b.b.k.k.b.b.b.b.k.k.k.h.b.j.j.z.P.D.G 5.7.XX$X7X7XqXtX7X$XXX.X X5.G Z.Z.V.B.n.b.b.h.h.h.k.b.b.n.b.J.K.L.b.k.k.k.b.J.",
"J.J.k.J.K.K.b.b.k.b.b.b.b.b.k.h.k.k.J.J.k.m.D.G.F 5.7.oX*X8XtX9XeX=X*X$X.X7.4.B D Z C.m.n.b.k.h.g.k.b.b.b.b.b.k.K.n.k.k.k.k.k.z.",
"z.J.K.L.L.K.b.b.b.b.K.J.b.b.k.h.b.b.J.P.V.D.G G 4.6.oX@X=X8X8X8X-X&X+X.X8.6.3.B m m R C M.v.v.g.g.h.b.n.b.b.k.g.j.J.J.z.b.z.k.k.",
"J.K.U.Y.K.J.n.b.n.J.b.b.b.k.b.b.b.J.P.T.H.H.0.w.w..X@X&X*X*X7X%X*X&XoX.X.X7.6.4.N N m Z S M.v.g.g.k.b.b.b.b.k.k.k.z.k.J.J.k.k.g.",
"L.I.Y.I.b.b.b.n.J.b.k.g.h.k.b.b.b.B.T.Q. XXXXX%X%X&X&X*X&X@XoX#X&X@XoXoX+X%XoX.X4.2.B B G x.v.h.g.k.K.K.b.b.K.K.K.J.z.k.b.b.k.g.",
"L.I.Y.L.b.b.b.b.J.J.k.h.h.h.k.v.n.M.D.H.XX$X7X8XeX8X-X-X&X@XoXoX@X@XOX+X=X8X=X%XoXw.3.B D S M.v.k.J.K.L.K.K.I.I.I.J.b.k.k.k.h.h.",
"b.K.I.I.b.k.v.b.k.J.K.b.k.k.k.v.n.c.V 5.XX8XeXrXrXrX8X8X-X@X@X@X@X@X@X-X8XrXrX8X8X$X.X6.D V c.n.b.J.L.L.I.U.Y.Y.U.L.b.k.b.k.h.h.",
"b.n.I.I.n.b.h.k.b.K.I.I.b.b.k.b.B.c.F 4.%X-XrXrXrX8X8X=X=X@XOXOXOX@X@X&X9X9XrX8X-X=X@X8.2.D c.M.b.J.L.L.I.U.Y.Y.U.K.n.v.v.b.h.g.",
"b.b.U.Y.b.b.h.v.L.U.Y.U.K.n.b.v.c.G 5.7.&X-X-X-X8X8X%X@XOXoXoX8..X.XOXOX*X8X=X*X-X&X@XoX4.F G c.B.n.L.I.L.L.L.I.n.K.K.K.L.n.h.g.",
"b.n.I.I.n.b.b.b.I.Y.U.U.I.K.b.m.S G 4.8.+X@X&X%X*X*XoX8.8.q.q.6.7.4.7..X+X%X+XOX@X@XOXoX7.4.F S M.K.K.L.K.n.K.n.b.n.I.I.K.b.h.g.",
"b.b.b.K.K.L.I.I.I.I.L.K.b.b.K.V.c.D 2.6.8.oX8.e.oXoX8.6.3.9.r.u.2.N N 3..X.X6.8.OXOXOXOX8.4.F V x.J.J.J.b.b.b.b.b.b.n.n.b.h.k.k.",
"b.b.b.n.L.I.I.U.L.K.K.J.b.b.L.V.V D 2.3.6.6.6.6.6.q.6.1.s Y u.u.t.T I I q.e.6.6.8.8.8.8.8.4.F V x.n.J.b.k.b.b.b.h.k.n.n.h.h.b.b.",
"K.K.K.J.b.K.K.n.b.b.J.b.j.J.I.V.S D 1.1.3.1.1.1.3.3.3.1.g r.2XnX4Xi.T N 4.6.6.6.3.3.3.3.3.2.Z V M.J.J.k.h.k.K.K.h.g.b.b.v.b.b.b.",
"b.J.K.K.b.b.b.b.k.k.b.k.k.K.I.V.S D M M M M M M M M M s h r.2XmXqX,XT N 1.3.3.3.1.s 1.1.s M Z V B.K.b.k.h.k.K.n.b.h.b.b.b.b.b.b.",
"b.b.K.b.k.k.k.J.b.k.k.k.b.J.L.I.c.V m i i a a a i a a a g r.2XmXnX2X&.g s N M N a a a p i p V x.n.K.k.k.k.k.J.K.K.b.K.b.J.J.K.J.",
"b.b.J.b.h.j.b.J.J.b.k.k.b.J.K.K.B.V m i i a a a h i a g Y r.kXmXmX4Xr.&.g a N a a g m p i m A M.I.K.k.h.k.k.J.K.K.L.K.b.J.J.J.K.",
"n.n.b.b.g.h.J.K.b.b.b.b.b.b.K.L.M.S H K Y Y N H f f h h u.2XmXMXMXmX2Xy.Y h U K Y Y Y U H H A b.K.K.k.k.b.J.k.b.n.n.b.k.b.b.b.b.",
"L.K.K.b.k.k.K.K.b.k.b.b.k.k.J.P.M.Z.! &.y.t.t.T =.=.h *.1XkXBXBXBXMXvXs.=.h =.=.y.u.u.:.&.W C.N.K.K.b.b.b.J.J.b.b.b.k.b.J.K.b.J.",
"I.I.U.I.n.b.K.K.z.j.b.b.f.g.k.v.m.Z.^ :.<X1X>Xs.hX<.%.=.zXFXGXSXwXNXVXzX,.=.aX,Xs.s.0Xs.:.~.C.k.K.K.b.b.b.b.J.J.k.b.J.K.K.L.K.K.",
"L.I.I.I.K.J.J.J.j.j.k.k.h.g.b.b.x.C.~.}.,X<X1X2XlXhX,.<.bXHXGXGXNXNXCXbX<.<.jXxX2Xs.<X,X}.!.C.k.b.b.n.b.k.k.b.n.z.j.J.K.L.L.K.J.",
"b.n.b.b.k.z.z.z.k.k.k.v.h.b.K.K.N.C.Q.^ &.:.y.<XnXlX<.hXCXHXHXGXBXBXHXCXhXa.lXlXs.y.*.:.~.E.C.d.h.k.v.b.k.h.b.b.k.k.b.J.L.L.J.j.",
"b.b.b.k.k.j.z.k.b.k.b.b.b.b.K.P.m.x.A n c f &.u.kXkXjXkXCXHXGXGXBXBXGXCXlXhXkX4X*.U d c n E f.d.g.h.b.b.k.k.b.n.k.J.J.J.K.L.J.k.",
"k.b.b.k.g.g.k.k.k.h.v.b.n.L.K.n.f.x j w - ; f Y s.nXmXMXNXNXAXAXwXwXwXNXMXnXs.u.h f : & > j x d.f.k.k.b.k.b.J.J.K.K.K.K.K.J.J.j.",
"b.k.b.k.j.k.k.b.b.b.h.b.L.I.B.x.x j * @ X O : h r.>X0XwX9X9XwX9XqX9X9XwXwX0Xu.Y f : $ X o * j x f.x.b.b.b.b.k.b.J.K.K.L.L.K.J.z.",
"k.J.k.k.b.J.J.b.b.b.b.v.n.n.M.z j * * & # # & : f 9.6X6X6X7X6X#X#X#X6X6X#Xp.r.h d $ # @ O & * j x f.v.J.k.b.k.k.k.b.L.I.U.I.J.z.",
"b.k.k.b.K.K.z.k.b.v.b.b.b.v.x.x % @ @ 5 5 5 2 & : g 0.e.oX+XXX#X#X#X%X#Xq.9.g f 8 - & 5 & & & * l x v.J.b.k.h.h.j.k.b.I.Y.U.K.J.",
"k.b.b.n.L.K.k.j.b.b.b.b.b.x.A l > 5 5 5 7 6 5 * ; : m 2.w.oX$X%X$X#XoXq.1.g : $ 8 5 6 5 5 5 5 * j x l.K.P.b.k.k.b.J.b.b.I.Y.I.L.",
"b.b.n.n.K.b.j.g.b.b.b.b.n.x.l , * 5 5 5 6 6 0 6 & ; : p 2.w.$X6X6X6Xq.9.g : $ $ 6 6 0 9 6 5 2 & > l x.K.J.b.k.k.J.b.k.k.L.I.I.L.",
"L.I.L.K.n.b.h.k.L.I.b.N.A.C.j * & 5 5 5 6 0 0 0 8 5 - : a 9.>X6X6Xp.9.g : $ 4 4 6 0 0 0 9 5 # & - j f.N.k.g.h.k.b.b.k.h.b.J.K.K.",
"I.I.K.K.b.b.k.k.I.I.K.N.C.C , # 5 5 5 5 6 6 0 0 6 6 2 8 f T >X0X0Xs.Y f $ 4 $ 4 0 0 6 0 5 5 2 & # , x l.h.g.h.k.k.k.k.k.k.J.b.n.",
"I.K.J.J.b.b.h.k.K.K.n.v.A l ; O 2 5 5 2 5 6 7 7 5 5 4 y f &.3XMXMXjX&.d t 3 5 5 9 9 6 5 5 5 5 @ & > v x f.j.h.g.k.k.k.k.K.L.b.b.",
"I.K.k.j.h.h.h.h.b.b.b.f.l , & @ 2 5 5 5 5 5 6 6 5 3 ) { [ =.jXVXDXkX=.u { ` 1 & 6 9 6 5 2 5 5 5 + & , l f.g.h.k.k.k.k.b.K.K.v.b.",
"L.K.j.j.h.h.g.h.k.k.g.z = o o O 2 5 5 5 5 5 5 2 1 3 { ..} =.jXVXDXxX=.[  .' 1 @ 2 2 2 2 5 5 2 @     o = z z h.k.j.b.K.J.k.k.b.b.",
"L.J.j.j.j.h.h.g.h.h.j.z = o - - 8 0 9 5 5 & 2 2 < 3 | X.} =.jXVXDXlX=.[ $. .3 + 2 2 2 @ 1 # @ X .   o % z f.k.z.b.J.K.b.j.g.k.b.",
"L.J.z.j.k.k.h.h.h.k.v.x.l k H H H d y 9 @ + o + 1 (  .+.@.=.xXVXDXxX=.[ $.O.( < < < +           + 1 w j f.b.J.K.n.b.b.b.b.b.b.b.",
"K.K.J.j.b.b.k.k.k.b.n.x.V P / *.:.=.%.d - + + < 3 ' O.+.} =.lXVXDXlX=.} $.O.' 3 1 + O o     - ; 6 0 r x x.b.K.J.K.v.h.h.b.b.b.n.",
"k.k.j.k.J.J.b.b.b.n.U.V.Z.~ ;X3XcXcX3X:.r 2 < 3 '  .yX$.} =.jXVXDXzX,...O.yX| ` 3 2 w , o $ d K d u J C x.b.b.b.b.b.b.h.h.k.b.v.",
"h.g.k.k.b.J.b.b.K.K.L.V.E.'.,XvXDXZX5Xi.c 1 3 ' O.pXuX+.@.=.jXVXFXlX;. .O.yXO.' 3 9 c c ; : T t.&.P J C f.h.k.k.b.b.v.h.k.h.b.b.",
"k.b.n.n.b.b.b.b.K.L.K.A.!.'.|.zXcXZX,X&.r 8 ) | uXuXuX+.} =.jXZXFXxX%.[ ..yXyXX._ ] L H r K >X5Xp.0.! x f.k.b.b.K.K.k.k.b.b.K.I.",
"b.b.K.K.n.b.v.b.K.L.K.S.'.;.gXgX3X3Xi.T q 8 { X.uXuXuX+.} %.hXvXDXjX%.t | yXuXyX| { [ H P i.qXAX0X;X! n f.h.b.K.K.L.b.b.n.n.K.I.",
"v.n.K.L.I.L.K.K.K.K.T.W._.dXfXfXgX|.t.I d 4 { o.iXiXuXX.{ @.<.3XhX<.%.7 X.uXiXuXo.} u P i.4XZXZXqX:X/ x f.h.h.k.I.I.n.b.I.K.K.I.",
"K.K.K.I.U.I.K.b.z.z.T.W._.dXfXfX`.>./ T d t ..uXiXiXuXX._ { aXaXgXaX#.{ X.uXiXiXyX .y K ;X0XZXAXqX:X/ E f.h.j.k.K.I.n.n.K.I.K.K.",
"U.U.I.I.I.K.b.k.j.z.J.F.'._.`.`.;.~ / K [ { X.uXiXiXiXo.X.$.sXaXaXaX+.| X.uXiXiXuX| ) d &.s.qXZX>XXX/ S N.J.k.k.b.b.b.k.n.n.K.K.",
"U.U.U.I.K.b.k.g.z.z.J.T.Q.'._._.!.W Q L y _ X.uXiXiXyX| | $.pXsXsXpXo.| X.yXiXiXuXX.3 q U u.5X0XXX X/ Z.P.J.k.j.k.k.h.k.b.n.K.K.",
"L.L.U.I.b.h.g.j.z.K.J.J.B.F.W.W.W.C.E J y ) | uXiXyX| _ { { ..$.+.$.O.X.| X.uXiXuX| t d T 0.>X>X0.G Z.V.P.J.j.g.k.b.b.b.b.K.K.K.",
"J.K.L.L.k.g.g.k.J.K.K.J.J.P.A.A.m.C.C.J 0 ) { | o.X.) ( t ] #.#.@.}  .| ' { X.o.X.{ t d I 0.;X;X XG.D.T.L.K.j.j.b.b.J.b.b.b.J.b.",
"J.J.k.J.k.h.g.j.J.K.b.b.b.b.B.N.A.F.E.R q 3 ) _ _ _ ( 3 1 t %.;.b b ` ` ` ` _ _ ) ) 9 : K / / / /.Q.V.L.n.b.k.b.J.K.K.K.J.J.b.k.",
"z.J.z.k.b.k.j.j.k.J.b.b.b.b.b.A.F.Q.G R w 4 4 3 4 3 3 < X 8 W ~ Q c 7 3 3 3 3 3 3 4 8 c P ! ~ ^ E.F.B.K.b.b.b.b.J.K.K.K.J.J.J.z.",
"J.J.K.K.K.b.k.j.k.k.b.b.J.P.A.W.W.!.W J r 9 2 4 6 1 < < + w ! ~ R c & . + < < < . $ d P ~ / ].(.Q.F.P.K.b.h.k.b.K.I.L.J.z.z.J.J.",
"z.J.J.L.K.b.k.k.k.b.b.n.P.P.F.Q.^.~.^ L u 9 6 5 $ $ + < . w ! ~ R r     . . < +   O c ! ].{.{.(.).Q.A.b.b.b.k.b.I.I.K.b.z.z.L.L.",
"j.J.L.L.J.b.k.k.J.J.J.b.A.Q.Q.^.~.].].! e & 5 5 5 # X + X w ! ;.L r O   X @ 2 +   O w J ^ {.{.{.).).Q.P.k.b.n.I.Y.Y.L.J.z.L.J.L.",
"j.J.K.K.J.k.z.J.L.L.J.v.S.Q.).).[.].].! e & & 5 5 2 X X X w ! ~ L r O   @ @ @ @ . X > v ;.].{.{.}.).Q.F.m.k.K.U.Y.U.K.b.J.L.L.J.",
"b.b.n.n.k.k.b.K.U.U.n.B.Q.^.~.[.].-.~ L ; o 5 5 5 2 o X O r Q ! J e & o @ & 5 5 # & - e Q ].].[.{.}.).F.l.k.L.L.n.n.b.K.K.J.K.J.",
"K.K.n.b.b.k.b.K.I.I.n.B.W.~.(.].-.-.L c & 2 5 6 4 # X X O e ! ~ J c * @ @ 5 5 6 5 5 & > v -.].].{.(.).Q.l.j.L.L.n.b.K.K.K.J.J.z.",
"I.K.b.b.b.b.j.z.K.K.K.P.Q.^.].].-.Q c > 6 6 7 6 9 2 @ X + w ! -.Q c 5 o 5 6 7 0 0 0 * > v -.-.[.[.).).Q.N.k.L.I.I.K.I.K.n.b.b.b.",
"I.L.b.b.n.J.j.j.z.J.L.P.W.Q.~.~.-.Q 0 2 5 7 0 0 5 2 @ X o w ! -.;.v > & & 5 0 0 0 7 5 > b ! ].[.).).).Q.N.z.L.I.I.I.K.L.K.n.k.v.",
"K.b.k.b.n.n.k.k.z.L.Y.Y.A.S.^.~.-.L * + 6 0 0 0 5 2 o o o e ! ].~ Q c > & @ 0 t 0 0 5 > J ! ].'.).).R.T.J.b.I.Y.I.L.K.K.K.n.b.h.",
"K.b.b.b.n.n.J.b.J.J.U.Y.P.P.Q.E.!.Q , & 5 0 0 > 5 # o & > c -.].>.^ J c w w e b u r e c Q ^ ~.~.).F.T.K.k.b.I.I.L.n.K.K.L.n.v.h.",
"K.K.b.J.J.K.b.b.b.b.K.I.L.P.P.F.Q.E v > & & & & & & o ; c Q >.{.].].~ ! v L L L L L L P ~ ].~.Q.F.A.P.J.j.k.J.L.b.b.J.K.I.L.k.d.",
"b.J.J.J.K.J.b.k.k.k.b.b.K.L.L.P.F.E.E v , * * > * * * c L -.>.{.].].[.].-.-.! ! ^ W ~ ^ ~.~.Q.W.N.b.k.j.j.j.k.J.b.k.z.K.I.I.b.h.",
"j.k.J.J.J.k.k.h.h.g.g.k.b.J.K.P.B.F.E.A x n v k j c c J -.>.].].].{.{.{.[.[.].[.).(.).^.Q.W.S.l.j.j.g.d.g.g.j.k.k.b.k.b.K.K.b.b.",
"g.k.J.J.j.k.h.g.g.g.g.j.k.b.J.K.K.K.F.W.E E R J c c J Q ].{.{.].].{.{.{.{.}.}.}.).).).Q.Q.S.l.g.j.j.d.d.g.g.g.g.k.k.k.k.K.K.K.K."
};
