/* XPM */
static char *out[] = {
/* columns rows colors chars-per-pixel */
"64 64 249 2 ",
"   c #0F1217",
".  c #111510",
"X  c #131616",
"o  c #141B15",
"O  c #1C1C17",
"+  c #12161C",
"@  c #161C1C",
"#  c #1A1D1C",
"$  c #231D19",
"%  c #1E360F",
"&  c #1A2618",
"*  c #1B231C",
"=  c #213B0A",
"-  c #23241A",
";  c #222C1D",
":  c #37271A",
">  c #243519",
",  c #131424",
"<  c #191E21",
"1  c #181A27",
"2  c #191936",
"3  c #221B30",
"4  c #1C2224",
"5  c #1E2529",
"6  c #1A2136",
"7  c #262823",
"8  c #21262A",
"9  c #22292C",
"0  c #36292F",
"q  c #293426",
"w  c #353829",
"e  c #272835",
"r  c #393538",
"t  c #582D13",
"y  c #593419",
"u  c #663719",
"i  c #753E15",
"p  c #49332A",
"a  c #5A3925",
"s  c #493730",
"d  c #683925",
"f  c #294916",
"g  c #324F17",
"h  c #345517",
"j  c #38720B",
"k  c #386916",
"l  c #364526",
"z  c #3B4C2A",
"x  c #3E5530",
"c  c #544916",
"v  c #6E4F17",
"b  c #7A4516",
"n  c #456C1A",
"m  c #556913",
"M  c #457717",
"N  c #537A15",
"B  c #686719",
"V  c #6E7618",
"C  c #41522D",
"Z  c #47592C",
"A  c #5A4435",
"S  c #514D31",
"D  c #445532",
"F  c #475C33",
"G  c #72502C",
"H  c #684A39",
"J  c #754A37",
"K  c #78533C",
"L  c #486628",
"P  c #516F27",
"I  c #577B28",
"U  c #4D6335",
"Y  c #4C6835",
"T  c #556939",
"R  c #59773B",
"E  c #6D6C31",
"W  c #1C1C47",
"Q  c #221D4B",
"!  c #1D234E",
"~  c #29284D",
"^  c #3A3748",
"/  c #272757",
"(  c #2E3155",
")  c #3A3755",
"_  c #272964",
"`  c #2B2C6D",
"'  c #2A3269",
"]  c #333065",
"[  c #2C2F75",
"{  c #2C3374",
"}  c #2C337C",
"|  c #323975",
" . c #413A4F",
".. c #3B4452",
"X. c #364575",
"o. c #524D50",
"O. c #6E5447",
"+. c #645856",
"@. c #5D7B44",
"#. c #4B7E5C",
"$. c #786948",
"%. c #667C44",
"&. c #6F6850",
"*. c #595565",
"=. c #5F5E6F",
"-. c #6C6F76",
";. c #864C16",
":. c #87561A",
">. c #955A19",
",. c #896919",
"<. c #99661B",
"1. c #87751D",
"2. c #A5681B",
"3. c #AB721E",
"4. c #B6771E",
"5. c #835426",
"6. c #875B31",
"7. c #916F32",
"8. c #A66E25",
"9. c #A97225",
"0. c #B67B23",
"q. c #AE743E",
"w. c #875A43",
"e. c #8B6848",
"r. c #8A6653",
"t. c #917351",
"y. c #AE7D54",
"u. c #897A73",
"i. c #A47B61",
"p. c #B27F64",
"a. c #2E8F02",
"s. c #3C8807",
"d. c #359500",
"f. c #3B9600",
"g. c #369A00",
"h. c #3D9A00",
"j. c #3F960C",
"k. c #3EA000",
"l. c #44890B",
"z. c #598A0B",
"x. c #439604",
"c. c #439D00",
"v. c #499E02",
"b. c #459509",
"n. c #4C940A",
"m. c #4C9C0B",
"M. c #56990B",
"N. c #488716",
"B. c #568817",
"V. c #4B9B13",
"C. c #4B9618",
"Z. c #559917",
"A. c #688919",
"S. c #6B901A",
"D. c #45A101",
"F. c #4BA401",
"G. c #4DA801",
"H. c #4EA10A",
"J. c #51A601",
"K. c #53A901",
"L. c #56A806",
"P. c #57A115",
"I. c #55862A",
"U. c #499627",
"Y. c #569725",
"T. c #5B942D",
"R. c #4E8B35",
"E. c #5E8A38",
"W. c #5C9132",
"Q. c #6D8B28",
"!. c #62883A",
"~. c #628C3C",
"^. c #649538",
"/. c #62A12E",
"(. c #3D8D57",
"). c #2E8D7A",
"_. c #4A8F48",
"`. c #658545",
"'. c #658A42",
"]. c #6A8B46",
"[. c #698648",
"{. c #708B43",
"}. c #48866A",
"|. c #748971",
" X c #9B801F",
".X c #8F8931",
"XX c #BD8325",
"oX c #B58F32",
"OX c #C28523",
"+X c #C68A28",
"@X c #CC932C",
"#X c #D69728",
"$X c #C68C34",
"%X c #CA9635",
"&X c #D49C35",
"*X c #D9A232",
"=X c #DBA437",
"-X c #E2AB39",
";X c #E9B43E",
":X c #8F8745",
">X c #A39548",
",X c #AE8551",
"<X c #97886F",
"1X c #AC8B6E",
"2X c #B38A73",
"3X c #B69479",
"4X c #B8A17A",
"5X c #C4954F",
"6X c #D49E44",
"7X c #D7AC4D",
"8X c #E8B747",
"9X c #E3B351",
"0X c #C49D6B",
"qX c #C59875",
"wX c #D5AE6D",
"eX c #E5B670",
"rX c #EEC352",
"tX c #F3C958",
"yX c #E6C060",
"uX c #2E3886",
"iX c #31378A",
"pX c #333D97",
"aX c #38499B",
"sX c #3F5AA6",
"dX c #6F758C",
"fX c #4C63A5",
"gX c #299189",
"hX c #239AA0",
"jX c #58958E",
"kX c #91918F",
"lX c #A69989",
"zX c #AC9E91",
"xX c #96A593",
"cX c #A9A28E",
"vX c #B3A692",
"bX c #B2B6AE",
"nX c #C39F84",
"mX c #C8A687",
"MX c #D3B392",
"NX c #E3B78F",
"BX c #C8BDA2",
"VX c #C9BDAF",
"CX c #E4BFA2",
"ZX c #D8C39A",
"AX c #E6C48D",
"SX c #CBC2A8",
"DX c #CFC6B1",
"FX c #E8CFB0",
"GX c #DDD7C9",
/* pixels */
"J.J.G.G.G.G.K.K.J.F.v.v.v.v.D.F.v.h.h.k.D.G.L.L.L.M.B.Q.Q.:X:X:X:X.X.X/.Q.S.L.H.x.h.F.F.c.x.c.h.f.d.a.a.h.v.f.h.G.G.F.c.d.h.c.F.",
"G.G.F.F.F.F.J.G.F.D.v.c.c.v.D.v.c.h.h.h.v.F.L.M.S.A.V Q..X>X>X>X>X>X>X.X.XS.S.M.b.j.v.F.c.c.c.h.f.d.d.d.h.v.h.c.G.J.F.h.d.f.c.F.",
"F.D.h.k.F.F.v.h.h.c.c.c.c.c.h.h.h.h.c.h.h.v.H.M.A.1.8. X%X7X7XwX7X7X%XoXoX X1.V I I.m.v.v.v.h.f.f.h.h.c.v.c.h.D.F.F.c.h.f.h.h.D.",
"k.D.h.h.F.F.c.h.f.c.c.c.c.h.h.f.f.h.c.v.x.m.M.A.,.<.9.@X-X9XyXyXyX7X=X%XXX9.<.5.B P N l.n.F.h.d.d.h.c.v.D.v.h.D.F.v.k.h.h.h.h.c.",
"D.D.K.K.G.F.c.c.c.c.F.D.v.c.h.f.x.D.F.J.z.z.A.1.,.8.OX#X-X8X9X7X7X=X@XXX4.<.<.v v c Z n n.m.f.d.d.d.c.v.c.h.g.g.h.k.h.D.h.h.c.h.",
"D.F.K.K.F.v.v.v.D.v.c.c.h.h.x.c.c.D.H.P.S..X1.7.9.XX#X*X-X=X=X&X*X#X+XXXXX3.2.<.b c c m B.n.f.d.d.h.v.v.D.h.h.g.k.h.D.c.D.k.c.h.",
"F.G.K.K.v.h.v.v.D.c.h.g.f.h.c.c.c.D.H./..X XoX%X&X=X=X-X#X#X+X+X#X#XOX+X#X@X@X0.2.:.b B N C.f.f.f.c.v.F.D.c.D.F.F.D.c.h.h.h.h.h.",
"G.K.K.K.c.h.c.c.D.D.h.h.f.f.h.c.F.v.B.S..X%X7XrX8X8X8X-X*X#XOXOX#X*X@X&X=X8X-X&X+X9.5.v B N b.c.h.c.F.J.F.F.K.K.G.D.h.h.h.h.g.h.",
"v.v.J.J.v.c.c.c.h.D.F.v.h.f.h.c.v.z.V 1.oX-XrXtXtXtX8X8X-X#X#X#X#X#X#X*X8XtX8X8X8X@XOX2.v B M.F.c.c.v.G.K.K.L.L.K.F.c.x.f.h.g.f.",
"c.v.K.K.v.x.f.f.c.F.K.K.v.h.f.x.M.z.B <.%X;XrXtXtX8X8X-X#X#X#X#X#X#X#X*X8X8XtX8X8X=X#X0.:.v z.M.v.v.F.G.K.L.L.K.K.F.c.c.c.h.h.d.",
"f.v.K.K.c.f.f.x.G.K.K.L.F.F.c.x.z.A.,.3.#X-X;X8X9X8X=X#X#XOXOX4.XXOXOX#X=X8X8X-X*X#X#XOX2.b V z.m.D.G.K.K.K.G.J.F.v.G.G.F.D.f.d.",
"h.v.K.J.F.c.x.c.J.K.L.K.J.F.D.b.z.V <.4.@X*X*X*X=X=X+X0.2.2.2.q.2.3.3.XX@X&X$X@X#X#X#XOX3.,.V z.n.F.G.K.G.K.F.F.v.v.J.J.F.c.h.d.",
"c.c.D.F.G.G.J.J.K.J.G.F.v.v.F.n.N B ,.2.4.OX4.4.+XOX4.2.;.w.w.w.G :.;.>.0.$X3.3.OX+X#XOX4.<.V m b.D.D.D.v.c.c.c.h.v.F.F.h.f.f.c.",
"c.c.c.F.F.J.J.K.G.F.F.D.h.c.G.M.N B :.>.2.2.2.2.3.3.2.>.d J q.r.6.G J 5.8.0.2.2.4.4.4.4.3.>.B N l.v.D.c.f.c.v.h.f.f.v.v.f.f.f.c.",
"D.F.F.D.D.F.F.v.c.c.D.c.h.c.K.M.N v ;.;.>.;.;.>.>.>.;.;.d w.2XqX2Xe.5.5.2.9.2.2.2.>.2.>.>.;.B N x.D.k.h.f.h.F.F.f.d.x.c.c.x.c.x.",
"F.D.F.F.c.h.v.c.h.f.c.h.h.D.J.L.N B i i i i i b b b ;.i d w.2XMXqXy.6.d :.>.>.>.;.;.;.i i v m N b.D.c.h.f.h.F.F.f.f.x.c.c.c.c.c.",
"c.c.D.D.h.h.h.D.k.h.h.h.D.D.G.H.z.m y t t u u u d y d u d w.2XmXnXp.O.d i i ;.i u u u u t c m N.v.F.h.h.f.h.F.F.v.c.v.D.D.D.D.F.",
"x.c.D.v.f.g.D.D.D.c.h.h.h.D.G.F.m.M c t t y v u a a u d d r.2XnXmXlXr.J d u u d u d y y t c M n.L.F.h.f.h.h.D.D.v.v.D.v.D.c.F.F.",
"F.v.c.h.d.f.D.F.v.h.c.c.c.c.G.F.M.N Z A H K G G a A d J r.2XnXMXNXnXp.r.J d a H J J O.H A c M c.F.F.c.h.c.D.D.c.c.v.c.h.h.c.D.F.",
"F.F.F.c.f.f.F.F.c.c.h.h.h.h.D.F.n.N U K e.t.e.E &.*.A O.kXnXMXCXNXMXvX<X+.H +.&.r.r.r.$.O.L N.c.F.F.v.c.D.D.h.h.c.c.c.c.c.v.D.F.",
"J.J.K.G.F.v.F.D.h.d.h.c.f.f.h.x.C.N.R %.<X1X,X1X<XdX*.=.xXDXFXAXNXMXVXkX=.+.-.kX1Xp.2X<X$.I.N.j.F.F.v.c.c.c.c.D.h.k.F.F.F.F.F.D.",
"F.J.J.G.F.v.D.D.h.f.c.f.d.d.h.c.b.N.I `.<X1Xp.2XzXkX=.-.bXGXGXFXCXNXVXbX-.=.xXzX1Xp.1X<X[.I.N.h.h.v.v.c.f.f.D.D.k.k.D.G.K.G.D.k.",
"v.v.v.c.D.h.k.k.c.c.c.f.f.f.F.G.m.n.I.R O.$.w.i.vXzXu.u.bXGXGXGXCXCXGXVXkXdXzXzXi.w.K E R N.N.a.d.h.c.c.c.h.c.k.h.h.D.D.G.G.D.h.",
"c.h.c.h.g.g.k.h.c.c.x.h.h.v.J.L.b.N.n Z D s O.r.3XnX2X3XZXGXFXFXCXCXGXVXzXlXnXlXr.H S l L n s.j.d.j.c.c.x.c.D.D.h.D.h.D.G.F.k.k.",
"f.c.h.h.d.d.h.h.x.x.x.c.F.G.J.v.l.k f > * : p O.i.qXmXNXNXeXAXAXeXeXNXNXNXnXqXp.J p 7 $ > f k j.l.h.c.c.c.c.D.D.F.D.v.D.G.F.k.h.",
"c.x.h.D.g.h.h.c.c.f.f.c.F.F.n.l.k f & o X O : a w.p.qXwXeX9XeX9XwX9X6XeXeXqXy.w.a : $ X o > h k s.s.c.c.c.c.h.c.D.D.v.F.F.F.k.k.",
"c.c.h.k.D.D.c.D.c.c.x.c.v.v.n.j f & & * @ # $ : a 6.5X6X6X6X%X5X$X$X6X6X5Xq.5.d : & @ * # * > f k s.x.D.h.h.h.h.h.c.F.J.K.K.F.k.",
"h.h.h.D.D.F.k.h.v.c.x.c.v.x.l.k % @ @ 4 4 # # * : u 6.0.+X$XoX$Xq.OX#XOX8.;.t : - & * 4 4 * o & h k x.D.c.h.f.d.h.h.D.J.K.K.F.c.",
"c.c.c.v.F.F.h.g.h.v.c.c.v.l.M g > @ 4 4 5 4 4 * - : u :.8.XX%X&X&X%XXX8.5.d : $ * 8 7 5 5 4 4 & f k j.D.D.c.h.h.c.D.D.D.K.K.K.G.",
"c.c.v.v.F.v.g.d.h.v.c.c.v.l.k > & 4 4 4 9 5 5 4 & - : y 5.9.%X6X6X$X8.:.d : $ , 4 5 5 9 5 4 4 * > h s.H.D.h.f.h.D.D.h.h.G.K.J.J.",
"F.G.G.F.F.c.f.h.F.G.D.v.V.N.f & 4 @ 4 4 9 9 9 9 7 7 * : c 6.y.5X5Xy.6.a : $ 3 $ 5 9 9 5 9 4 5 * & f j m.x.f.f.h.h.c.h.h.h.D.F.F.",
"K.J.F.F.c.h.f.c.G.K.F.x.N.n > & 4 4 4 5 5 9 9 9 9 5 < 7 s O.y.0X3Xi.J p $ 1 1 3 9 9 9 9 8 5 5 4 * > k s.f.f.f.h.h.h.f.h.c.c.F.F.",
"K.F.D.k.c.f.f.h.F.G.F.x.k h > o @ < 4 5 5 8 9 9 5 4 6 e r +.1XMXMXlXO.r e 6 4 4 8 8 5 5 5 4 8 < # ; h j f.h.h.f.f.f.f.h.G.G.v.v.",
"G.F.h.h.h.f.f.h.D.F.c.j h > & o * 4 4 5 5 5 5 5 1 4 ! / ^ +.lXBXSXcX+.r ~ ! 1 * 4 8 < 5 5 4 < < @ * > h j s.f.f.h.h.h.c.F.F.D.h.",
"G.D.g.g.h.f.d.f.h.h.s.j f . . o @ 4 4 4 4 4 4 < @ 2 / ] ) +.lXBXSXcX+.^ ' _ 1 + < 5 4 < < 4 < # . . . = j a.d.h.h.c.F.c.f.d.h.c.",
"G.D.g.g.g.h.f.d.g.g.a.j = & $ < 7 9 7 4 @ o @ @   2 _ [ ) +.lXBXSXcX+.^ X._ 6 + @ < < # < # < @ . . . = j s.h.k.c.c.F.c.d.d.h.c.",
"K.F.k.h.h.h.h.d.g.g.c.l.h c s S S r 0 7 @ X X + , W { | ) +.lXBXSXcX+...X.' W , + X X X   . . X , , 7 h j v.D.D.v.c.c.c.c.c.v.v.",
"F.D.h.h.h.c.h.h.g.k.v.z.m P E $.&.&.o.S 7 X   , 2 ! } X.) +.lXBXSXcX+...' { ! 2 1 , # o . . $ - 5 9 w n l.D.F.F.D.c.f.h.c.D.v.c.",
"h.h.g.g.c.D.D.h.k.D.G.M.M R :X4XvX4X1X$.s $ , 2 _ } uXX.^ +.lXBXSXxX*./ { } _ ! 2 1 q ; . $ s H s w C n l.c.h.D.c.c.x.f.h.x.h.h.",
"f.h.h.h.v.D.c.h.D.F.K.M.I.'.<XcXZXZX4X<Xo.q 6 W { uXuX{ ) *.lXBXSXcX*.! { uX[ _ W 3 q q - : 6.t.O.A Z M s.h.h.h.c.v.c.f.f.f.c.c.",
"f.c.v.v.c.c.x.c.D.G.F.V.I.@.|.xXBXwXu.O.T D ~ ! } uXuX{ / *.lXBXDXcX+.) ] iX} ` / Q 3 q l U ,X,X,XE U n s.h.h.c.F.D.c.f.c.c.v.F.",
"x.c.F.F.v.c.c.c.F.G.G.C._.}.jXjXxX<X$.H T F ( _ uXpXuX{ / o.kXbXBXxX*.) | iXuX[ _ Q 0 0 o.$.0XeX0Xq.E n s.h.h.v.J.G.c.h.v.F.J.J.",
"c.v.F.G.J.G.F.v.D.H.L.U.(.).hXhXjX|.r.E U o.( ' iXpXuX{ ~ ..-.kXkX-.o.~ [ iXiXuX` ] 0 H t.4XNXAXwX>XR n s.f.g.c.K.K.F.v.v.J.F.G.",
"F.F.F.J.K.K.D.v.k.k.L.U.(.gXhXhX}.%.$.E A  .' } iXpXuX[ ( ..=.dXdXdX) ~ ` iXiXpXiX] r a t.4XZXZXwX>XE M l.f.h.D.J.J.v.v.F.J.F.F.",
"K.K.J.J.J.F.c.h.g.k.G.P.R.}.).gX#.@.T U ^ ( [ iXpXpXiX[ ( X.sXfXfXfXX._ { uXpXpXiX_ 3 p O.p.qXeX,X.XE B.n.D.h.h.c.v.c.h.v.D.F.F.",
"K.K.K.G.F.c.h.d.g.k.G.P.Y._.(.(._.R P x ^ / [ iXpXpXuX` ' X.aXsXsXsXX.' ` { pXpXiX` 3 : O.t.4X0XoX7.V B.m.D.h.g.h.f.h.h.h.v.D.F.",
"F.F.K.K.c.h.d.g.k.D.D.H.H.P.U.U.N.N.I x r ~ ] iXpXiX_ / _ { X.aXX.X.{ ' / _ iXpXiX` Q 0 H t.,X,X7.1.Q.V.G.D.g.g.h.c.h.h.h.v.F.F.",
"c.v.K.G.h.f.d.f.D.G.k.k.D.H.V.V.C.C.B.L w Q / ` } ` W W / / ( ..o...( ! 2 ! ` } [ ] 3 0 G 7.t..XE Q.Z.L.G.D.h.g.h.v.v.D.D.D.D.D.",
"D.D.F.D.k.h.d.g.D.D.k.h.D.c.c.V.V.Y./.!.C 3 3 Q Q Q 2 , 2 6 r ..o.x q 1 , 1 Q ! Q 3 1 7 S K E R ^.S.H.H.D.c.h.h.v.D.D.F.F.G.k.h.",
"c.D.D.D.D.h.g.f.c.v.h.h.c.v.c.V.Z.^.^.Q.C $ 1 3 3 2 , ,   4 w D U D q o X , 2 2 3 3 $ : S E T R Y.Z.H.F.v.c.h.c.F.F.F.F.G.D.k.k.",
"c.h.G.D.D.h.h.g.h.h.c.v.F.v.V.U.T.^.].R C - # , < 1 , , @ * l F U z ; X # + , , + X O w T %.%.E.Y.P.H.D.c.x.h.x.F.G.F.F.k.D.D.D.",
"h.k.G.G.F.h.h.h.h.h.v.v.m.Z.C.T.~.'.'.R s q O X # < < < & & l F U x ; X @ # ,       O w @.[.`.E.T.Z.V.F.c.h.c.c.G.J.F.v.c.k.F.F.",
"h.D.G.J.v.h.h.D.D.D.k.k.V.Y.W.~.'.`.'.@.C q * X + # < @ @ ; x U Y C ; X @ @ < +     + w @.`.`.`.^.W.U.H.D.c.F.G.K.K.v.v.F.D.G.F.",
"h.D.G.G.c.f.h.F.G.G.D.j.Z.T.~.'.`.`.`.R z > o o # < @ @ X ; F T Y C - X @ < < @ ,   O > Y `.`.`.].~.T.C.b.h.G.J.K.K.v.v.F.G.F.D.",
"D.D.F.c.f.f.c.F.G.K.D.H.Y.W.~.`.`.`.`.Y w & @ @ 4 4 < @ X ; U T F z - o @ < 4 4 < # o > Y @.`.`.].'.W.Y.j.g.G.J.G.F.F.v.D.D.D.D.",
"G.F.v.h.h.h.c.F.K.G.D.H.Y.W.'.`.`.@.R x > o @ < 4 4 4 @ o 7 D Y Z l * + # < 5 4 4 * # > x @.`.].].'.^.Y.j.k.G.G.F.F.G.G.D.D.k.k.",
"K.G.D.c.c.h.h.k.D.G.F.H.Z.T.'.'.'.@.Y l & . @ # 4 4 4 * o ; z F Z l 4 + < 5 5 9 5 4 & > z Y R ].].].W.Z.j.D.K.K.G.G.J.J.v.c.c.x.",
"K.G.v.v.D.D.g.g.k.D.G.L.V.Y.E.'.'.R L f X . @ 4 4 5 5 4 o ; z Z F x 7 # 4 4 5 8 5 4 @ ; z Y @.'.].^.Y.V.c.D.K.K.J.J.J.F.F.v.c.f.",
"F.v.h.h.c.v.h.h.k.G.K.L.V.C.T.E.'.@.U l O X < 8 9 9 9 9 # & z F T F l q * * 4 4 4 * * ; x T E.~.^./.P.F.c.D.K.K.J.F.F.F.F.v.v.h.",
"v.v.h.h.c.v.D.c.D.F.K.K.L.V.Y.T.W.R U l & @ 4 9 9 e e 9 @ - l U R @.F C > ; q q q q 9 l U @.`.E.^.Z.P.G.h.k.G.K.F.F.F.F.G.F.c.h.",
"D.D.D.D.F.D.v.c.c.v.F.G.G.H.P.Z.T.E.Y x - o 5 9 q e e 5 , 4 z Y @.%.@.T F D D Z C C F U @.!.E.T.Z.V.H.F.h.h.F.F.c.v.v.D.J.F.x.d.",
"h.k.k.D.D.D.c.h.h.h.c.c.F.G.H.P.Y.U.I L l q q q q r q q 4 q Z R `.[.`.`.%.T T R R R R R E.W.T.U.V.x.c.h.g.g.k.c.c.h.h.D.J.G.f.f.",
"d.h.D.D.D.h.h.h.f.d.d.h.c.c.G.m.b.C.C.B.M Y L C l l l l w C Y %.`.`.].].`.'.`.~.^.^.W.W.I.U.C.j.j.g.d.a.g.g.g.h.h.h.h.D.F.F.v.v.",
"d.g.D.D.h.h.f.f.d.d.d.d.f.h.D.h.j.b.H.P.Y.W.P L z l l l z F R `.`.[.].{.].].{.{.^.^.^.T.Y.C.j.d.g.d.a.a.a.a.d.d.h.c.h.h.D.F.F.F."
};
