/* XPM */
static char *out[] = {
/* columns rows colors chars-per-pixel */
"50 50 246 2 ",
"   c #081418",
".  c #152B1E",
"X  c #1B3A1D",
"o  c #243D1E",
"O  c #061C26",
"+  c #08212C",
"@  c #18272A",
"#  c #193423",
"$  c #183727",
"%  c #1B3B2A",
"&  c #092B39",
"*  c #172C34",
"=  c #1B3D34",
"-  c #18373A",
";  c #253D27",
":  c #233B37",
">  c #313E36",
",  c #1F401D",
"<  c #27481A",
"1  c #2F501A",
"2  c #39581C",
"3  c #3B6419",
"4  c #1D4429",
"5  c #1A443A",
"6  c #234324",
"7  c #2C4A23",
"8  c #294528",
"9  c #354929",
"0  c #2B5326",
"q  c #385626",
"w  c #294737",
"e  c #23433B",
"r  c #3C4D33",
"t  c #354A38",
"y  c #275736",
"u  c #3A5538",
"i  c #3C632A",
"p  c #3C6735",
"a  c #435D1D",
"s  c #47691B",
"d  c #4F741C",
"f  c #52761C",
"g  c #445C29",
"h  c #40483A",
"j  c #455938",
"k  c #476626",
"l  c #526D27",
"z  c #4A7328",
"x  c #567827",
"c  c #486437",
"v  c #556939",
"b  c #497738",
"n  c #587835",
"m  c #63793A",
"M  c #073548",
"N  c #0D3C4F",
"B  c #1A3A48",
"V  c #273A41",
"C  c #194A44",
"Z  c #124B55",
"A  c #254942",
"S  c #2B4B44",
"D  c #2A4748",
"F  c #344A46",
"G  c #28534A",
"H  c #385645",
"J  c #34534B",
"K  c #3B554C",
"L  c #3B5B4B",
"P  c #294E54",
"I  c #375951",
"U  c #3D5B50",
"Y  c #3A6B4B",
"T  c #3B6756",
"R  c #094D68",
"E  c #145668",
"W  c #065677",
"Q  c #265569",
"!  c #156174",
"~  c #236C7A",
"^  c #455B45",
"/  c #485946",
"(  c #425B4D",
")  c #555B4D",
"_  c #425C51",
"`  c #465958",
"'  c #486446",
"]  c #4D644C",
"[  c #56664A",
"{  c #477646",
"}  c #5B7847",
"|  c #456254",
" . c #4B6354",
".. c #4B6A54",
"X. c #4C6659",
"o. c #4C6A5C",
"O. c #536553",
"+. c #526B54",
"@. c #586856",
"#. c #546B5B",
"$. c #5B6D5C",
"%. c #4B7358",
"&. c #587357",
"*. c #5B715D",
"=. c #646A4B",
"-. c #637948",
";. c #646B57",
":. c #63725B",
">. c #697859",
",. c #757D59",
"<. c #495D63",
"1. c #496867",
"2. c #566C64",
"3. c #5C7462",
"4. c #58796A",
"5. c #566F70",
"6. c #647563",
"7. c #667767",
"8. c #657A64",
"9. c #6C7B64",
"0. c #6B7D6B",
"q. c #737D64",
"w. c #767C68",
"e. c #637875",
"r. c #737E71",
"t. c #837D69",
"y. c #5A841C",
"u. c #628C1C",
"i. c #5C8529",
"p. c #5B8734",
"a. c #648727",
"s. c #689528",
"d. c #72982F",
"f. c #678738",
"g. c #78A526",
"h. c #57874B",
"j. c #588859",
"k. c #67834A",
"l. c #6E8E4D",
"z. c #768559",
"x. c #5A8C6F",
"c. c #6B826B",
"v. c #75836C",
"b. c #798668",
"n. c #7B846C",
"m. c #6E966F",
"M. c #678477",
"N. c #6C8372",
"B. c #728573",
"V. c #758976",
"C. c #7B8B75",
"Z. c #778879",
"A. c #7C8C7A",
"S. c #7C9477",
"D. c #75A474",
"F. c #8BB42B",
"G. c #828B58",
"H. c #84866A",
"J. c #8B8C6C",
"K. c #838B74",
"L. c #888874",
"P. c #8C8B74",
"I. c #828E7A",
"U. c #968D76",
"Y. c #899475",
"T. c #84927C",
"R. c #8B947C",
"E. c #97957B",
"W. c #94947C",
"Q. c #A49279",
"!. c #95A17D",
"~. c #055E84",
"^. c #076488",
"/. c #046D99",
"(. c #08739C",
"). c #31778D",
"_. c #0377A8",
"`. c #687F84",
"'. c #388C98",
"]. c #0282B9",
"[. c #759B8A",
"{. c #468DAC",
"}. c #7B9CA7",
"|. c #44B0B3",
" X c #088FC7",
".X c #0191CE",
"XX c #0197D7",
"oX c #1BA1D9",
"OX c #03A5EA",
"+X c #14A7E5",
"@X c #02ABF3",
"#X c #01AEF8",
"$X c #02B2FE",
"%X c #0CB6FE",
"&X c #18B8FC",
"*X c #38AEE1",
"=X c #29BDFC",
"-X c #50ACCE",
";X c #64B7DB",
":X c #4FB8E6",
">X c #6CBEE2",
",X c #2FC0FF",
"<X c #52CED0",
"1X c #46C6FD",
"2X c #54CBFE",
"3X c #5BCDFF",
"4X c #72C9EE",
"5X c #66CCF9",
"6X c #69D1FF",
"7X c #72D4FE",
"8X c #7DD5FB",
"9X c #5BE4E4",
"0X c #859482",
"qX c #8A9582",
"wX c #8D9A84",
"eX c #8B9B89",
"rX c #949B84",
"tX c #969C86",
"yX c #9B9C84",
"uX c #8A9993",
"iX c #A79D85",
"pX c #98A288",
"aX c #9BA38B",
"sX c #9BA894",
"dX c #A6A68B",
"fX c #B4A98F",
"gX c #A5AC95",
"hX c #ABAD95",
"jX c #A9B299",
"kX c #B2B49C",
"lX c #B9B89D",
"zX c #819DA5",
"xX c #88A6AB",
"cX c #8EB1B8",
"vX c #AEB7A1",
"bX c #B4BAA2",
"nX c #BABCA3",
"mX c #A2BEBB",
"MX c #AAC3B4",
"NX c #C3C4AF",
"BX c #9EC8D6",
"VX c #A5C9D3",
"CX c #82D9FF",
"ZX c #B0DAE4",
"AX c #BCE9F8",
"SX c #C2DEDE",
/* pixels */
"s q g h 9 9 ; < 4 < < 9 8 o 9 ; ; 1 < > W $X$X].> F.u.s < < < 8 9 q ; 6 9 9 8 ; q 1 < < 3 1 4 X X 3 ",
"[ U.U.U.U.L.w.r T g L.H.q.;.;.w.;.; u * ].$X$XXX@ s.d >.j 2 c L.H.b.9.h K.w.w.6.&.< 1 ' j +.' K 8 1 ",
"H.dXiXiXdXhXtX/ s =.dXQ.U.U.P.t.t.> O.R @X%X%X$XW e.>.wXN.9 n.W.Y.J.q.>.qXn.n.B.9.w c v.&.9.$. .L w ",
"H.dXfXlXhXhXpX) n =.iXiXQ.E.P.P.w.h ` /.&X3X1X&X+X+ uXC.c.9 :.K.b.J.K.C.9.w.n.0.7.; j.c.wX+.o.( G % ",
">.E.kXvXjXhXsX[ d v iXQ.P.L.t.;.h h 2.~.=X5X6X6X6X).V $.K 8 ; / R.K.n.n.:.0.6.6.X.; b V.c.*.X.J 5 y ",
"=.P.kXvXjXjXaX@.f u.> h > 9 9 q 9 g / - :X5X8X8XCX7XB 2.0.9 ' qXn.v.v.c.@.O.:.v.w 8 k.*.X.| ( 5 = { ",
"[ kXjXvXjXsXsXO.v lXlXlXnXnXbXjX,.p.} V ).7X7X6X7X6X-X* e.w @.v.0.q.9.6.v.0.6.$.X.7 i.Y. .H u %.h.l.",
"/ I.qXqXA.8.) t v NXnXnXkXlXbXnX@.k v e.P >X6X5X3X2X=XR ` w J 0.7.8.6.8.9.:.$.#.X.; l f.l.-.} i.u.d.",
"a 1 9 ; o g a a m lXlXnXnXnXvXjX+.c O.Z.V {.:X&X%X%X$X X: D : e | L t O./ / K K S % >.hXyXW.K.O.} f.",
"x G.G.t.t.t.t.v m lXbXnXvXvXvXvX] c j ) <.R #X#X%X%X$X@XM 3.; % % $ X ; . @ # $ 5 8 ,.hXdXtXwXA.A.u ",
"-.lXQ.Q.Q.U.t.=.v vXhXvXjXvXvXgX^ k k.' [.B oX=X2X3X=X@XZ 9.-.} v g s s k g g g 2 d b.pXpXeXqXV.3.t ",
"=.fXiXfXU.Q.J.h h gXaXtXpXgXsX0Xu k d.G.ZX<.).>X7X6X2XOXB sXdXlXdX=.a t.fXdXQ.Q./ s z.tXeXwXT.A.V.w ",
"=.Q.U.U.E.U.t.r q / h [ / / t t w k bXSXAX}.B CXCX7X:X).F dXkXhXaX;.9 =.iXt.t.t.) 1 =.tXR.A.A.B.M.w ",
") iXU.U.R.L.w.h a k j j r h r 1 3 l NXSXAXBX* >X5X:X-XV e.gXjXsXeXrXq ;.Q.U.U.w.) g j ( H (  .K L w ",
"h t.P.L.L.L.) r v kXkXfXyXjXpX;.2 n MXAXAXZX` ).:X).O ` uXsXsXeXR.V.> =.Q.U.L.H.>.q d g r r 9 9 0 k ",
"1 h ) ) O./ t ; v fXdXdXhXdXdX>.a j mXxX}.cX<.~.E + @ * B V ` [.7.$.; ;.yXU.L.L.;.9 z.fXrXL.w.9.9.w ",
"f l g v j v l f n P.W.jXgXgXsXG.l O.> V B B @   O _.:X;X>X-XQ O r.r.: ;.rXT.I.I.$.q ,.L.t.w.;.:.$.w ",
"x Q.lXdXdXdXL.g [ ^ kXjXgXpXwXV.O.: {.4X>X).    XX=X6XCX6X3X+X~.@ t w r / @.@./ H j q.t.w.:.h O. .e ",
",.nXiXE.E.P.:.q H.dXn.sXpXeX0X0X`.P 4XCX7X:XM + @X:X3X7X6X,X%XOXM 1.a f s 2 a c ' } =.q.6.@.6.@.H @ ",
";.fXyXrXrXR.8.r wXgXsX0XpX0X9.X.* oX5XCXCX).B B oX>X7X7X3X&X$X=X-X5.;.a J.hXE.W.b.k [ 6.$.3.#.` J C ",
"=.dXrXqXqXI.$.(  .3.F ; *.H L 5.M +X:X>X).V -X).B 4XCX7X2X%X&X3X>XV ;.; iXyXrXwXC.q 7 u w e = - = C ",
"[ 9.wX0XS.V.#.j &.p 9 k q w L F & W ).Q P ;X6X:XO ;X7X6X,X$X,X6XCXQ <.> tXqXR.I.@.g y.1 < X X < < 1 ",
"g / *.*.c.*.( k s.d.l.a.d l =.uXO W ^.).;X6X6X:X/.B :X=X%X%X1X7X8X).F ; qX0XT.A.] q z k.j c -.-.m p.",
"s l f s s.v k.s.F.F.l.l.k.K.nXqXM OX#X=X3X5X1X&X@X~.N ~./._.).'.).~   ; A.I.A.0.n x l.>.b.:.T.Y.C.c.",
"v dXb.i.l.d.f.f.F.g.!.dXaX>.dXA.C @X$X$X+X+XOX@X#X@X.X^.M M V N M M   3.j ^ j z a.s.Y.R.R.:.C.T.I.6.",
"9.rX!.Y.v jXgXC.k dXdXaXpXb.;.Z.Z @X$XXXE ~ ! ].#X$X#XOX^.E {.:XOX~.5.v n x x a.a.a.z.T.A.0XA.V.B.&.",
"] T.v.' :.sXpX' 9.gXaX!.c.q.R.B.& @X#X(.|.9X<XE #X$X#X/.'.-X).*X@XW `.gXdXrXW.R.K.:.j #.8.0XV.B.0.' ",
"h C.C.b.u u c.Y.9.S.z.S.z.pXE.wX& OX@X! 9X'.<X'.@X$X#XW |.<X|.(.OXN }.gXyXtXT.A.v.$.%...3.V.c.c.M.K ",
"t _ H u 6 >.rXP.v.b.jXhXdXY.W.K.: .X@XW ).~ ).Z @X$X@XR Z Z ~ ^..XM VXsXeX0XA.V.N.X.k l.>.&.&.%.| c ",
"i 1 9 u z z.L.K.b.jXjXaXaXpXK.K.e.W OXOXOXXX].].#X$X$X.XXX@XXX.XN `.mXqX[.S.B.c.+.t s a.s.l.k.f.p.i.",
"v dXW.Y.J.[ n.b.[ ] pXpXpX0XC.v.7.& .X$X$X%X,X$X$X$X@X X].#X$X].* mXM.$.6.#...' u q m aXdXR.K.I.sX( ",
"[ W.U.rXn.j 9.>.I.T.&.0X0XS.B.8.$.e.M XX$X$X%XOX.X].M & .X#X].$ xXmXg 2 d g.F.f y.f !.E.T.K.C.B.B.F ",
"q.yXn.;.] q r B.v.0.8.] B.N.c.$.F e 1.M  X#X#XM O O ).*X@X_.M }.ZXvXW.K.b.-.b.c.} k b.T.A.V.B.0.N.J ",
":.L.L.I.9.9 q 3.0.9.@.^ ^ J : % X < n M.D R _..X.X-X>X).Z P cXVXsXI.b.c.9.#.0X*.] ; 8.A.A.V.B.M.M.J ",
":.K.C.n.9.r z H o.X.J w . # o u -.k.k.k.-.4.1.V B V V 1.}.VXcX( 6.w.9.6.$.^ H ..L ; 2.Z.V.N.N.N.V.I ",
":.C.V.B.*.q n q = = # X 1 g R.dXtXtXW.qXu [ qX[.}.zXcXcXxXe.J : _ 6.3.+. .6. .| H $ t | o.X.X.J A G ",
"/ 7.0.N.[ i.u.f 1 7 u d y.l.hXW.T.I.V.0.t c I.:.6.6.3.#.O.` S # H #.+.c.#...T | S $ 1 2 u r t 8 6 6 ",
"q r u c n a.G.!.pX!.W.,.x -.wXT.A.A.B.9.8 ' r.:.2.) ( #.X.X.I % 8 H 3.o._ T Y G A % b } 8.#._ T J 7 ",
"&.sXwXT.S.c iXpXrXrXtXtX9 v T.V.B.N.M.8.> j 3.#.) _ _ : I K S 5 b H %.1.U I P 5 5 y h.' X.| _ J G % ",
"q.R.v.0.$.u R.R.R.I.I.Z.; ' Z.B.N.c.M.&.u q _ | ` K F S - A G G m.[.o.T I G G G Y p.} +._ U J F A = ",
"Y 7.3.&.( r T.T.T.A.V.N.; 9  .| #.2.o.U 0 p 5 I L G G 5 $ 0 5 y l.m.m.4.T Y b j.[.p.%.%.w G S A y 0 ",
"8 L L L ' ' S.A.A.A.M.c.; z 1 6 ; 8 8 ; 3 x $ 5 C Z 5 5 y 0 p i.p.D.j.p.p.s.g.z x.%.u 6 < q 4 y i a.",
"s x h.x i.x V.V.N.N.e.M.% -.aXR.K.v.7.6.] q z < 4 < 0 z y.i.R.Y.S.} T.S.S.:.&.+.Y 0 x f.f.i.z z z i.",
":.R.dXK.' k M.3...M.4.I = n.n.9.*.o. .| L : j.c.b.v.z.' z >.R.0.>.' 8.8.&.| _ K G 4 *.C.v.8.B.B.3.u ",
":.pXv.6.' q ; 5 w Y T 5 5 :.v.$.@.` ( K F ; +.T.S.V.B. .q j 6.:.$.$.+..._ ( K S G % @.c.9.$. .| ( : ",
"/ C.6.$.u 8.c z x.G Y b z j 6.X._ ( K J D % ' A.V.B.N.o.7 t $.#.X. .t ( K J J D C 4 @.8.$.| _ K J : ",
"^ ( $. .8.*.| Y ' j.VXx.b [ $.( K J S S C = ^ V.B.N.N.| 7 c u  ._ J S S J D S C % i ^  .` U K J G 5 ",
"/ #.t c.2.| L J L %.[.[.Y +.#.U J S D A : % ..Z.N.c.e.I 0 L ..L D V A = S G G C T j.| _ K K J J G 5 ",
"0 u p o.U J P I T j.D.x.x.p 5 5 5 5 5 e p 0 M.o.1.#.o.G c H S A : : C C = i y Y x.j.y y 5 w A w G 5 ",
"y.u.q 0 T 4.1.Y p.p.s.h.m.z < , $ 4 # 4 6 i } 2.T T U { i.i $ + # $ $ $ 4 u.s.i.b h.p 0 4 0 X 4 0 p "
};
