/* XPM */
static char *out[] = {
/* columns rows colors chars-per-pixel */
"64 64 254 2 ",
"   c #0E130E",
".  c #0E1216",
"X  c #121615",
"o  c #151C14",
"O  c #1A1B16",
"+  c #12141C",
"@  c #161C1C",
"#  c #1A1D1C",
"$  c #221D19",
"%  c #1E370E",
"&  c #1A2517",
"*  c #1A231C",
"=  c #25241B",
"-  c #222C1C",
";  c #372519",
":  c #293917",
">  c #24341B",
",  c #27381A",
"<  c #0F122A",
"1  c #131523",
"2  c #161B22",
"3  c #191E23",
"4  c #17172B",
"5  c #171836",
"6  c #211B39",
"7  c #1C2224",
"8  c #1E2429",
"9  c #1B2235",
"0  c #212423",
"q  c #272C26",
"w  c #21272A",
"e  c #23292C",
"r  c #2F2D28",
"t  c #2B3625",
"y  c #353A26",
"u  c #272A35",
"i  c #373736",
"p  c #592E13",
"a  c #5B371A",
"s  c #663719",
"d  c #743E15",
"f  c #463829",
"g  c #5A3724",
"h  c #4E3832",
"j  c #683925",
"k  c #2A4917",
"l  c #2F5016",
"z  c #335517",
"x  c #37730B",
"c  c #3A6A17",
"v  c #374728",
"b  c #35442C",
"n  c #3D532B",
"m  c #504915",
"M  c #7A4516",
"N  c #6F5217",
"B  c #466B19",
"V  c #556C11",
"C  c #477617",
"Z  c #547915",
"A  c #686417",
"S  c #746B15",
"D  c #6A7518",
"F  c #47462C",
"G  c #44582C",
"H  c #555729",
"J  c #584833",
"K  c #485B33",
"L  c #6D4E2F",
"P  c #764A38",
"I  c #745539",
"U  c #466525",
"Y  c #55692D",
"T  c #4B7729",
"R  c #587A2A",
"E  c #4D6336",
"W  c #566838",
"Q  c #546B3A",
"!  c #587737",
"~  c #676837",
"^  c #727132",
"/  c #1A1B47",
"(  c #1D1F52",
")  c #211C4A",
"_  c #231F53",
"`  c #1C2451",
"'  c #262949",
"]  c #3A364B",
"[  c #272859",
"{  c #2F3152",
"}  c #393855",
"|  c #282A69",
" . c #2D3469",
".. c #33376B",
"X. c #2A2D73",
"o. c #2A3374",
"O. c #2D327C",
"+. c #333A74",
"@. c #543F47",
"#. c #396A4B",
"$. c #374173",
"%. c #1D7A79",
"&. c #2E736E",
"*. c #50504C",
"=. c #5B5558",
"-. c #6C5348",
";. c #635858",
":. c #556D4A",
">. c #746848",
",. c #6A7444",
"<. c #627D42",
"1. c #6D704C",
"2. c #58596E",
"3. c #4B7E6F",
"4. c #6A6B6D",
"5. c #76767A",
"6. c #844B16",
"7. c #88561A",
"8. c #955A18",
"9. c #8A6E1A",
"0. c #99661B",
"q. c #A76A1B",
"w. c #AB741E",
"e. c #B6771E",
"r. c #845528",
"t. c #885C31",
"y. c #8E7232",
"u. c #A56E24",
"i. c #A87225",
"p. c #B67B23",
"a. c #AE743E",
"s. c #865A44",
"d. c #876747",
"f. c #90714F",
"g. c #8A6554",
"h. c #887A56",
"j. c #947C6B",
"k. c #A57A62",
"l. c #B17F63",
"z. c #2F8D03",
"x. c #3C8A08",
"c. c #359400",
"v. c #3B9600",
"b. c #359A00",
"n. c #3D9A00",
"m. c #3F9609",
"M. c #3EA000",
"N. c #468B0A",
"B. c #56880C",
"V. c #439504",
"C. c #439D00",
"Z. c #499E02",
"A. c #46970A",
"S. c #4B940A",
"D. c #4C9C0C",
"F. c #549909",
"G. c #488716",
"H. c #558315",
"J. c #4B9714",
"K. c #559717",
"L. c #539A1C",
"P. c #698D18",
"I. c #45A101",
"U. c #4BA401",
"Y. c #4EA901",
"T. c #4EA209",
"R. c #51A602",
"E. c #53A901",
"W. c #5AAC02",
"Q. c #54A20A",
"!. c #54A117",
"~. c #5EA21A",
"^. c #4E8A27",
"/. c #568826",
"(. c #599827",
"). c #5A942C",
"_. c #5D8936",
"`. c #5E9431",
"'. c #688827",
"]. c #7C8A2C",
"[. c #64972B",
"{. c #628C3B",
"}. c #639636",
"|. c #29807F",
" X c #648443",
".X c #668A42",
"XX c #728249",
"oX c #6D8472",
"OX c #9B801F",
"+X c #8F8A31",
"@X c #BD8226",
"#X c #B59134",
"$X c #C28423",
"%X c #C88C27",
"&X c #CC922C",
"*X c #D59426",
"=X c #D89A2B",
"-X c #C28E35",
";X c #C99534",
":X c #D39C36",
">X c #CAA23E",
",X c #DCA437",
"<X c #E2A937",
"1X c #E6AE39",
"2X c #918745",
"3X c #AB8E4C",
"4X c #988968",
"5X c #978A74",
"6X c #AA856C",
"7X c #AB8D6D",
"8X c #B28972",
"9X c #B6927B",
"0X c #B6A274",
"qX c #CB9846",
"wX c #D3AB50",
"eX c #E8B747",
"rX c #E3B351",
"tX c #C59B74",
"yX c #CBAC68",
"uX c #D7B36E",
"iX c #E4B56E",
"pX c #EEC352",
"aX c #F3C958",
"sX c #E6C060",
"dX c #2E3785",
"fX c #30378B",
"gX c #343D99",
"hX c #3C549D",
"jX c #6B7390",
"kX c #4F64A4",
"lX c #24909E",
"zX c #4B8F91",
"xX c #6CA29D",
"cX c #918F8B",
"vX c #A59988",
"bX c #AD9E90",
"nX c #93A094",
"mX c #A9A294",
"MX c #B3A490",
"NX c #B2B6AE",
"BX c #C89C81",
"VX c #CBA589",
"CX c #D4B38F",
"ZX c #E3B988",
"AX c #E5B695",
"SX c #C8BDA2",
"DX c #C8BEAF",
"FX c #D9C289",
"GX c #E7C888",
"HX c #CBC2A8",
"JX c #CFC7B5",
"KX c #E9CDB0",
"LX c #CED3CA",
"PX c #E5D8C9",
/* pixels */
"R.R.Y.Y.U.Y.E.E.R.U.Z.Z.Z.Z.I.U.I.n.n.M.U.Y.R.Q.F.F.L.'.+X+X2X.X2X2X+X].[.~.W.W.C.V.U.R.C.V.n.C.v.c.z.z.v.Z.v.n.Y.Y.U.C.c.x.Z.U.",
"Y.Y.U.U.U.Y.R.R.I.Z.C.Z.C.Z.I.I.I.n.n.n.C.U.W.F.P.P.'.].+X+X3X3X3X3X+X+X+XP.P.P.S.V.Z.U.C.C.C.C.v.c.z.c.C.C.n.C.Y.Y.I.C.c.c.C.U.",
"I.I.b.n.U.U.I.n.n.C.C.C.C.C.n.v.v.m.n.I.n.I.T.K.D S 9.OX>XwXwXwXwX>X>X>X#XOX9.D R C F.Z.Z.Z.n.v.v.v.n.Z.Z.Z.n.I.U.Y.C.n.n.n.I.I.",
"I.I.n.I.U.U.C.v.n.n.C.C.C.C.n.v.v.m.C.I.A.D.F.P.9.0.p.&X,XeXsXsXpXeX>X>X$Xw.9.7.A Y H.N.Z.Z.v.c.c.n.Z.I.I.C.I.I.U.Z.n.n.n.n.n.M.",
"M.I.Y.E.Y.U.Z.C.n.C.I.I.Z.C.v.C.n.C.U.T.F.~.P.D 9.q.$X=X,XeXrXwXrX,X&X%Xe.0.8.N L m m C S.Z.c.c.c.c.C.Z.C.n.c.n.n.I.M.n.n.n.n.M.",
"I.U.E.E.U.Z.Z.Z.I.C.Z.C.n.n.n.V.C.Z.U.Q.~.].y.i.i.@X*X=X,X,X,X,X,X=X%X@Xe.p.i.8.6.m m B B.S.x.c.c.n.Z.Z.C.C.n.n.n.n.C.C.I.M.b.b.",
"Y.E.E.E.C.C.C.Z.I.n.n.b.n.v.C.C.Z.Z.W.~.+X+X#X>X:X,X,X,X,X=X%X%X*X=X$X$X:X:X&Xp.0.7.N N Z J.V.v.b.n.U.U.I.C.I.U.U.I.I.C.b.n.n.n.",
"Y.E.E.E.C.n.C.C.I.I.n.v.v.v.n.C.U.Q.B.P.OX;X>XpXrXeXeX1X=X*X%X%X*X*X%X&X,XeX1X:X-Xi.8.N D Z N.C.n.C.U.Y.U.U.E.E.Y.U.C.C.n.n.v.v.",
"Z.U.E.R.Z.n.V.C.I.U.Z.C.v.v.n.C.R.F.D 9.#X1XpXaXaXaXeXeX1X=X*X*X=X=X*X,XeXaXaXeXeX:X$Xu.S V V.Z.C.C.U.U.Y.E.W.W.E.U.C.V.v.v.v.n.",
"C.Z.E.R.Z.C.v.C.U.Y.Y.Y.C.n.V.V.F.B.S 0.=XpXpXaXaXeXeX1X<X=X%X*X*X*X=X=XeXeXeXeXeX1X=Xp.7.V B.F.Z.Z.U.Y.E.W.W.W.R.U.C.C.C.v.V.v.",
"V.Z.E.E.Z.n.v.C.Y.W.E.E.U.Z.C.N.Z V 9.w.=X1XeXeXeXeX<X*X%X$X$Xe.@X$X%X*X:XeXwX<X1X=X*X$X0.7.D B.Z.Z.Y.R.E.E.E.Y.U.U.U.Y.U.C.n.c.",
"n.C.Y.E.Z.C.n.Z.R.E.W.E.R.U.C.S.Z A 8.e.&X=X=X,X,X=X%X$Xe.q.u.i.u.q.q.@X&X=X%X%X*X=X*X$Xe.0.D B.S.Z.U.Y.Y.U.U.I.C.Z.Y.R.U.Z.n.c.",
"n.C.I.U.U.U.Y.R.R.R.Y.Y.U.I.U.S.Z A 8.q.e.$Xp.@X$X$Xe.q.r.r.s.s.I N r.t.$X%Xe.e.%X*X*X$Xe.q.A V S.C.I.I.I.I.Z.n.c.V.U.U.n.v.n.C.",
"C.C.I.I.U.U.Y.U.U.U.U.I.C.Z.R.F.V A 7.8.q.q.q.8.q.e.q.8.j P g.k.d.r.j r.q.p.q.q.e.e.e.e.e.0.A V N.Z.I.I.n.C.C.C.c.v.C.Z.v.v.n.C.",
"U.U.U.I.U.Z.U.Z.C.C.C.I.n.I.R.F.Z A 6.6.8.6.6.6.8.8.6.6.j s.8XBX8Xf.P M q.q.q.q.8.8.8.8.8.6.A V S.I.C.n.n.C.I.Z.v.c.n.C.C.n.C.C.",
"Z.I.U.U.n.C.C.Z.n.v.n.I.n.I.E.F.Z A 6.d 6.d d d M M 6.M j s.9XVXtXl.s.j 6.8.8.8.6.M 6.6.M N V Z S.U.I.n.n.n.U.U.C.x.v.C.Z.Z.C.Z.",
"n.Z.U.I.n.n.C.I.I.n.n.M.I.I.Y.Z.B.V a p p s s s s s s s j P 9XVXVXl.-.j d d 6.d s s s s p a V J.U.U.C.n.v.n.I.U.Z.C.I.I.I.I.I.I.",
"C.C.I.Z.c.v.I.U.I.n.n.n.n.I.T.Z.S.Z m p p a s s h g j j P g.9XVXVX9Xs.-.j j d j s s a g p m C V.U.U.n.c.n.n.I.I.Z.Z.Z.Z.I.I.I.U.",
"Z.Z.C.n.c.v.U.U.Z.n.n.C.n.C.Y.R.F.Z H J P I I L h h j -.g.8XVXAXAXBX8Xg.P j L J P P -.P F H C Z.Y.U.C.n.I.I.n.C.C.Z.C.C.n.I.I.I.",
"U.U.I.I.v.v.U.U.Z.n.C.n.n.C.I.Z.S.Z Y -.g.f.f.^ ;.-.@.-.6XbXAXAXAXCXMXj.s.@.-.;.s.g.g.>.-.Y G.C.U.U.C.n.n.I.I.n.C.C.C.C.I.I.I.I.",
"R.R.E.Y.Z.n.U.I.n.b.n.C.c.v.n.V.N.^.! 1.4X8X6X6X5X5.=.2.nXJXKXKXAXCXDXnX;.=.jX5X6Xl.8X6X1.! J.m.I.U.Z.n.n.n.Z.I.n.C.C.U.Y.U.U.U.",
"U.R.R.Y.I.I.I.I.n.n.n.n.c.c.n.n.N.L.'.,.4X6Xl.6XbXcX4.4.NXJXPXKXAXCXLXNX5.4.nXbX8Xl.6X4X,.^.G.v.C.Z.Z.C.c.n.I.I.M.n.I.U.Y.Y.U.Z.",
"Z.Z.Z.C.M.n.n.M.C.n.n.V.v.v.Z.U.A.A.^._.,.-.d.k.MXbXj.5XJXPXPXKXAXAXJXNXcXjXbXbXk.d.>.:._.^.x.m.c.m.C.C.n.v.Z.I.n.n.I.I.Y.Y.C.n.",
"C.n.n.n.n.n.n.b.n.C.C.v.C.Z.U.T.A.N.c U v f P g.9XMX5X9XHXPXPXKXAXAXKXJXbXvXMX9Xg.P f v G T x.x.c.v.C.Z.C.C.U.I.I.I.C.I.U.Y.I.b.",
"C.n.I.n.b.c.v.v.C.C.v.C.U.R.R.Z.x.c k > & = h P k.tXtXZXZXiXGXiXiXiXiXAXVXVXtXl.-.g $ $ > l c x.x.m.n.C.C.I.I.I.I.U.U.U.U.I.M.b.",
"C.I.I.M.n.b.n.C.V.v.V.Z.R.E.Z.N.c k & o X O ; g d.6XuXiXiXrXiXiXwXiXrXiXiXtXl.s.g ; O X o > z c G.V.C.I.n.n.n.C.I.I.U.Y.Y.U.I.M.",
"C.I.n.M.I.C.C.C.Z.C.V.C.Z.Z.D.x k % * * @ @ * ; j t.3XqXqXqXqXqX-XqX:XqXqXa.r.s ; $ @ @ O * > k c N.V.M.M.n.n.n.n.C.U.R.E.E.I.I.",
"n.C.n.n.U.U.C.I.C.C.C.v.C.S.N.c % @ @ 7 7 7 @ & ; s y.a.%X%X#X#Xa.-X;X-Xq.r.p ; $ # * 7 7 # @ % z x V.I.I.n.n.v.n.n.I.Y.E.E.I.I.",
"C.n.C.Z.U.U.b.b.C.V.V.n.C.N.c l - 2 7 8 8 8 7 7 = ; m r.w.$X%X;X:X;X@Xu.P p ; $ * 7 e e 7 @ 2 > k x V.I.U.C.n.v.C.C.C.I.E.E.Y.U.",
"C.Z.Z.U.U.Z.b.b.Z.Z.C.C.Z.N.c , 7 7 7 8 e 8 8 8 # & ; a r.i.-X:XqX;Xi.r.s ; $ 4 8 8 e e 8 7 7 & > z x.T.I.C.n.n.I.Z.n.n.Y.R.Y.U.",
"Y.Y.Y.U.U.n.b.n.Y.R.Z.A.J.G.l > * 7 7 8 8 e e 8 0 7 $ ; j t.3XqXqX3Xr.s ; $ 0 w e e 8 8 7 7 7 7 & k C A.m.c.v.n.n.C.n.v.n.I.U.R.",
"R.R.U.Z.Z.n.c.n.Y.R.U.V.G.B , * * 7 7 8 e 8 e e w 8 3 0 f P l.tXtX6XP f 0 4 0 w e e 8 8 7 7 7 7 * , c x.v.c.b.n.n.n.v.n.C.Z.U.R.",
"R.Y.Z.Z.C.n.v.n.U.R.Z.V.x z > & 7 7 7 7 8 8 e 8 8 8 5 u i -.7XCXCX5X~ y u 5 3 0 8 e 8 7 7 7 7 7 @ > l c x.v.n.n.n.b.n.n.Y.R.U.Z.",
"E.U.n.n.n.n.v.v.C.Z.V.x z : o O 2 7 7 7 8 8 8 8 7 4 ) [ ] ;.vXSXHXmX=.u ' / 4 # 8 8 7 7 7 7 7 7 @ & : z x z.v.n.b.n.b.C.U.U.C.n.",
"Y.U.b.b.v.v.c.c.n.n.x.x % o   X * 7 7 7 7 7 7 7 1 5 [ | ] ;.vXSXHXmX=.{ | [ 5 + 3 7 7 7 7 7 7 3       % x z.v.n.C.C.U.Z.n.v.n.n.",
"Y.I.b.b.b.v.c.c.b.n.x.x % o X # * 7 @ @ @ @ @ 2 < 5 | +.} ;.vXSXHXmX2. .O.| 5 1 @ 7 @ 2 @ 7 7 * o o o % x x.v.C.C.I.U.Z.v.v.n.n.",
"Y.Y.M.b.n.n.c.c.n.n.C.C z : = = r = O X . . + < < / o.o.} ;.bXSXHXmX=.} +.o./ < + + X X X & ; y - - > z x n.C.I.Z.Z.C.C.C.C.Z.C.",
"Y.U.b.b.C.n.n.b.n.n.U.S.B G y f J F = X & 7 1 < 5 ` o.$.} ;.vXSXHXmX=.} +.o.` 5 1 1 @ O X = F J f f n c x.I.I.I.Z.C.V.v.C.C.Z.V.",
"n.n.n.v.Z.I.I.n.Z.U.R.F.B H H >.2Xd.f $ t q 2 5 ` o.dX$.} ;.vXSXHXmX;.] o.o.| ( 5 4 r t = y >.2X^ H H T x.n.I.C.C.C.C.v.v.v.V.C.",
"v.v.v.v.C.I.C.C.I.Y.Y.F.Z Y ,.2X7X4XW f b t 9 ` o.dXfX+.} ;.bXSXHXmX=.} +.dXX.| / 9 i F F I 7XyX3Xy.A B m.m.n.I.C.C.n.v.v.n.V.C.",
"v.C.Z.Z.C.C.v.C.U.Y.U.S.Z Q :.oXnXnX5X>.*.i ' [ O.fXfX..} ;.vXSXHXMX;.] +.O.O.X._ ' i J 1.7XCXFXyX2XY c x.b.n.Z.U.U.n.v.C.Z.Z.U.",
"C.Z.U.R.Z.C.C.n.U.U.I.V.C :.3.zXxXxX5Xh.J ] {  .fXgXfX..] =.cXVXHXnX=.]  .O.dXO.X.[ i L 2X0XFXGXyX3X~ B x.n.n.I.U.Y.C.n.Z.U.U.Y.",
"Z.U.U.U.R.Y.Z.Z.C.Z.Z.S.T :.%.lXlXzXoXh.~ *...o.fXgXfXX.' @.j.cXcX5.@.' X.dXfXfXo. .*.<.1.4XFXGXyX3XW B x.v.n.n.R.E.Z.Z.U.R.Y.U.",
"Y.U.U.Y.E.E.U.C.n.n.T.A.T #.%.lXlXzXXXh.,.:.$.O.gXgXfXX._ } hXjXjXjX} [ o.dXgXgXo.$.*.,.! 4XuXFXtX+X~ T N.n.n.I.U.R.Z.Z.Z.R.U.U.",
"E.E.E.R.R.U.Z.n.v.n.U.Q.(.#.&.%.|.oXh.f.,.:.$.fXgXgXfXX.| ..kXkXkXkX$. .o.dXgXgXfX$.:.>.^ f.uXuX3X+X^ H.A.C.n.n.C.Z.C.n.Z.I.U.U.",
"E.E.E.R.U.C.n.v.n.C.U.F.K.T #.#.3.XX>.^ W *...fXgXgXdXX.| O.hXhXkXhX$. .o.O.gXgXfX$.=.-.t.+X3X3Xy.D P.K.T.U.n.b.n.n.n.n.C.Z.I.U.",
"Y.Y.E.R.Z.b.c.c.C.I.Z.Z.T.J.T T ,.,.~ J h ]  .fXgXfX| _ | O.+.$.+.$. .[ ` | fXgXfX..] J I y.+Xy.]./.K.W.U.I.b.b.b.n.n.C.C.Z.U.U.",
"I.U.R.Y.n.b.c.b.I.U.C.C.Z.A.G.^.! ~ ~ H i 6 [ X.O.X.) ) |  .....{ { ' 9 5 ' | O.X.[ u F ~ ^ ^ '.H.K.T.R.U.I.M.b.b.I.C.C.U.I.I.Z.",
"I.I.I.I.C.n.b.b.U.U.n.n.C.V.V.J.(.`.[.! y 4 6 ) ) ) 5 5 / [ ] b b i 7 + 1 4 ( ( / 5 e v R [./.L.K.D.R.Y.Z.n.n.n.I.I.I.U.U.I.I.b.",
"M.I.I.I.I.n.b.b.I.I.C.n.C.C.m.A.!.(.}.'.y # 4 4 6 4 1 < < 9 b n G v &   . 1 4 5 5 4 - v /.[.(.L.T.T.Y.U.Z.C.C.I.U.U.U.U.I.I.M.I.",
"n.n.I.U.I.n.b.b.n.n.C.Z.Z.C.V.D.(.`.}.! y O X 1 4 3 4 O . 2 y G G v = X # 2 3 2 + + & k ! }.`.(.D.D.T.U.C.V.v.n.U.Y.U.I.n.M.I.I.",
"n.I.Y.I.I.C.n.n.n.C.C.Z.T.D.D.J.`.}..XQ : & X X O 3 3 +   o y G U G - + 2 3 7 2 + X o y ! .X{.`.L.D.Z.C.C.v.n.Z.Y.E.U.Z.M.M.I.Y.",
"n.I.R.E.Z.n.C.I.U.I.I.n.Z.D.L.)._..X.XQ t & @ + 3 0 3 +     k K W H - @ + 1 2 7 7 @ & t Q .X.X`.`.L.A.V.m.C.U.R.W.W.U.I.U.I.Y.Y.",
"n.I.Y.Y.C.v.C.I.Y.Y.I.C.A.K.).{.{. X XE > o @ * 3 3 2 +     y K W E q + + 1 7 7 7 7 & > E  X X.X}.`.L.D.v.C.U.E.W.E.I.I.I.Y.I.U.",
"U.I.I.C.v.v.C.U.E.E.U.I.J.(.`..X X XQ n > & * 7 0 3 4 .   o y n K v 7 + 2 7 7 7 7 7 & - n Q <. X.X}.(.!.V.n.Y.R.U.Z.I.U.I.Y.I.I.",
"Y.U.Z.n.n.n.M.U.E.E.U.T.L.)._. X X! K v 7 * 7 8 8 3 1 +   & k n G v 7 + 7 7 7 7 7 8 * * v G :. X.X{.[.L.m.b.Y.R.Z.Z.U.Y.Y.I.I.I.",
"E.R.I.C.C.n.b.M.I.I.Y.T.L.(._. X<.:.b t q 8 8 q 8 7 3 2 . & b n G b - + 3 8 w e u e 8 8 > b Q <..X{.(.L.A.n.E.E.Y.U.R.U.Z.Z.C.C.",
"E.Y.Z.C.I.I.b.b.I.I.Y.Q.J.(.`. X XE k 8 t u u e 8 7 7 @ X & b G K b & @ 3 8 q u u t e - 7 k E <..X}.(.!.M.I.E.W.R.R.Y.U.Z.Z.V.v.",
"U.U.n.v.Z.Z.C.n.M.Y.W.W.D.J.`._. XE b e u u u u 8 7 7 7 X * v G G b - o * 0 e u u u u 8 * k Q  X{.[.!.R.I.M.E.E.R.U.Y.U.U.Z.C.v.",
"Z.C.n.n.C.Z.C.I.I.I.E.E.T.D.(.)._.T n b t u t e 8 7 7 @ & * v K K n q & * 7 0 e e e 8 e b n ! _.).(.!.Y.n.I.Y.E.U.U.U.U.Y.U.V.v.",
"U.I.n.n.I.I.Z.C.n.Z.U.U.R.T.D.(.)._.<.K b q 8 7 & & @ * * t K <.:.K r 0 o o O o 2 * * k n ! _.`.L.D.T.U.M.n.Y.U.Z.C.I.U.R.U.v.c.",
"Z.Z.C.M.I.Z.n.n.n.C.C.Z.Y.T.C.D.L.).).! G v k t > > , t y F Q  X<.Q F y t - , , > t k n ! _.).L.D.A.V.C.b.b.C.C.n.n.M.I.E.Y.V.c.",
"n.n.I.I.n.n.b.n.b.v.n.n.I.I.C.A.J.J.(.`.^.^./.Q K K E E W :.<. X X<.Q W H E T T T T T ^.^.^.G.m.v.c.c.z.b.c.c.n.n.n.M.I.U.U.Z.Z.",
"v.n.I.I.n.n.n.b.c.c.c.n.n.I.I.I.M.I.!.~.(.}.[.[.R ! ! {. X X X.X X<.<.,.<.{.{.}.`.`._.).L.m.m.c.v.c.z.z.z.c.c.c.b.b.b.n.I.U.U.U."
};
