/* XPM */
static char *out[] = {
/* columns rows colors chars-per-pixel */
"64 64 250 2 ",
"   c #0B0E0D",
".  c #141B0D",
"X  c #0F1313",
"o  c #111514",
"O  c #151C15",
"+  c #1A1D15",
"@  c #13151C",
"#  c #161C1B",
"$  c #191E1D",
"%  c #231E18",
"&  c #1E370C",
"*  c #1B231B",
"=  c #1B2818",
"-  c #20390A",
";  c #24261B",
":  c #382619",
">  c #26371A",
",  c #25321C",
"<  c #2B3B1D",
"1  c #0F1029",
"2  c #121323",
"3  c #161B22",
"4  c #191E22",
"5  c #16172B",
"6  c #181737",
"7  c #201D38",
"8  c #1C2224",
"9  c #1E2529",
"0  c #1B2133",
"q  c #232824",
"w  c #20272A",
"e  c #222A2C",
"r  c #2A3526",
"t  c #363827",
"y  c #262B34",
"u  c #323033",
"i  c #383832",
"p  c #5A2E12",
"a  c #5A361D",
"s  c #673818",
"d  c #763E14",
"f  c #47382A",
"g  c #54392D",
"h  c #683B24",
"j  c #2A4917",
"k  c #2F5612",
"l  c #335516",
"z  c #367309",
"x  c #386916",
"c  c #354325",
"v  c #374629",
"b  c #3C4F2D",
"n  c #3B6622",
"m  c #504816",
"M  c #7A4516",
"N  c #6B5316",
"B  c #516E0F",
"V  c #476B19",
"C  c #586914",
"Z  c #457918",
"A  c #577915",
"S  c #686419",
"D  c #727017",
"F  c #4F4C2F",
"G  c #43562B",
"H  c #574836",
"J  c #485A34",
"K  c #794B24",
"L  c #6B4B32",
"P  c #744937",
"I  c #655B37",
"U  c #775338",
"Y  c #57692D",
"T  c #4D762C",
"R  c #58792C",
"E  c #4D6435",
"W  c #4E6838",
"Q  c #526538",
"!  c #546C3A",
"~  c #577638",
"^  c #6A722E",
"/  c #7D693A",
"(  c #657735",
")  c #1B1B46",
"_  c #1D1E50",
"`  c #221E4D",
"'  c #1D2552",
"]  c #2C2C4E",
"[  c #373548",
"{  c #262755",
"}  c #383856",
"|  c #282A67",
" . c #2B316B",
".. c #34386B",
"X. c #2A2D73",
"o. c #2C3374",
"O. c #2C327B",
"+. c #333B75",
"@. c #483E4C",
"#. c #3C4857",
"$. c #394574",
"%. c #397D67",
"&. c #50504D",
"*. c #5B5558",
"=. c #6C4C4A",
"-. c #66574C",
";. c #615958",
":. c #506E4B",
">. c #5E7941",
",. c #716B4F",
"<. c #627E42",
"1. c #797647",
"2. c #555565",
"3. c #5E5E70",
"4. c #6F6E74",
"5. c #844A16",
"6. c #88551A",
"7. c #965A19",
"8. c #8D6719",
"9. c #97661B",
"0. c #82741C",
"q. c #A5671B",
"w. c #AB731E",
"e. c #B4761E",
"r. c #855529",
"t. c #895B30",
"y. c #976722",
"u. c #8C7436",
"i. c #A76E25",
"p. c #A87324",
"a. c #B77B23",
"s. c #AE743E",
"d. c #865B46",
"f. c #867245",
"g. c #90724F",
"h. c #8A6754",
"j. c #B17E59",
"k. c #897A73",
"l. c #A87B62",
"z. c #318A06",
"x. c #3B8806",
"c. c #359500",
"v. c #3A9600",
"b. c #359900",
"n. c #3D9A00",
"m. c #3F950A",
"M. c #3EA000",
"N. c #478B0A",
"B. c #578C0B",
"V. c #439505",
"C. c #439D00",
"Z. c #499E02",
"A. c #469609",
"S. c #4B950A",
"D. c #4C9C0A",
"F. c #569A0A",
"G. c #478A14",
"H. c #548518",
"J. c #4B9715",
"K. c #539B1B",
"L. c #559818",
"P. c #698719",
"I. c #6C8F18",
"U. c #45A101",
"Y. c #4BA401",
"T. c #4DA801",
"R. c #4EA10B",
"E. c #51A602",
"W. c #53A901",
"Q. c #56A806",
"!. c #55A213",
"~. c #62A20F",
"^. c #498A2F",
"/. c #578728",
"(. c #569625",
"). c #5A942C",
"_. c #5D8837",
"`. c #5D9332",
"'. c #6D8F2B",
"]. c #688538",
"[. c #628D3B",
"{. c #649435",
"}. c #3D8346",
"|. c #31836A",
" X c #57865E",
".X c #658443",
"XX c #678844",
"oX c #689040",
"OX c #9B801F",
"+X c #8E8832",
"@X c #BD8426",
"#X c #B49033",
"$X c #C38522",
"%X c #C78B27",
"&X c #CD932C",
"*X c #D69728",
"=X c #C48B38",
"-X c #C99636",
";X c #D59C35",
":X c #D9A232",
">X c #DDA435",
",X c #E3AB39",
"<X c #E7B03C",
"1X c #93884C",
"2X c #A98E50",
"3X c #93866F",
"4X c #A8866A",
"5X c #AF8F70",
"6X c #B58B72",
"7X c #B6A172",
"8X c #CC9847",
"9X c #D5A643",
"0X c #D7AE51",
"qX c #E8B747",
"wX c #E3B456",
"eX c #C49975",
"rX c #CFAE6F",
"tX c #E5B670",
"yX c #EEC352",
"uX c #F3C958",
"iX c #2E3685",
"pX c #30378A",
"aX c #333C97",
"sX c #394B98",
"dX c #6C748C",
"fX c #415DA5",
"gX c #4E64A4",
"hX c #27959A",
"jX c #619B96",
"kX c #93928E",
"lX c #A69889",
"zX c #AD9E90",
"xX c #9AB098",
"cX c #A9A292",
"vX c #B1A491",
"bX c #B2B5AE",
"nX c #CEA98E",
"mX c #D6AA8C",
"MX c #D3B789",
"NX c #D1AD90",
"BX c #E3B78E",
"VX c #CABCA3",
"CX c #C9BDAF",
"ZX c #D5C394",
"AX c #E7C68E",
"SX c #CCC2A8",
"DX c #D0C5B2",
"FX c #EACDB0",
"GX c #D7D2C6",
"HX c #E5D8C9",
/* pixels */
"E.E.T.T.U.E.W.W.E.U.U.Z.Z.Y.Y.U.C.m.n.n.U.T.E.Q.F.L.H.'.+X1X+XoX1X+X{.+X'.~.~.Q.V.v.Z.E.C.n.n.n.n.c.z.z.n.C.v.n.T.T.U.C.v.b.C.T.",
"T.T.U.Y.T.E.W.E.Y.U.C.C.Z.C.U.C.C.v.n.M.U.Y.E.F.L.P.P.'.+X+X2X2X2X2X#X+X+X~.I.~.N.V.Z.E.C.n.n.n.n.c.c.c.n.C.n.C.T.E.Z.V.v.v.U.U.",
"U.U.M.n.Y.Y.C.C.C.V.C.C.C.C.C.n.n.n.C.C.n.U.R.~.P.OXp.OX-X9X0XrXyX9X#X#X#XOX0.D R H.F.Z.Y.C.n.v.v.v.b.n.Z.C.C.C.T.E.C.n.n.n.C.U.",
"U.M.n.U.Y.U.C.n.n.n.C.C.C.V.n.n.v.n.C.C.A.D.F.I.D y.e.&X>X0XuXyXyX0X<X-X$Xw.9.K S C B.S.D.Z.v.v.c.n.Z.U.U.C.n.C.U.U.C.C.n.n.n.U.",
"U.U.W.T.T.Y.Z.C.C.C.U.U.C.C.n.n.C.C.Y.Y.L.P.I.0.9.q.$X*X,X<X0X0X,X:X*X$Xe.9.8.5.N a V Z S.D.n.v.c.b.C.Z.C.C.n.v.n.M.C.n.n.n.M.n.",
"U.Y.W.W.Y.Z.U.Z.C.C.U.C.C.n.V.V.C.C.Y.!.I.'.p.+Xp.a.*X:X,X>X:X;X*X*X&X$X@Xw.q.7.M s m G H.G.V.v.v.n.C.Z.C.C.n.n.n.C.n.U.U.M.n.n.",
"Y.W.W.W.C.C.C.C.U.n.n.b.v.n.n.C.Z.Z.F.~.I.#X#X-X;X:X>X>X>X*X%X$X*X*X$X%X-X-X&X@X9.6.N N C H.V.V.n.C.U.Y.C.C.Y.U.Y.U.U.n.n.n.b.n.",
"T.W.W.W.C.n.C.Z.U.U.n.v.v.v.C.C.Z.S.L.I.OX#X0XqXwXqXqX,X:X*X$X$X*X*X&X-X>XqX9X-X%Xw.8.D ^ A N.C.C.C.T.E.U.Y.W.W.T.Y.U.n.n.n.b.v.",
"Z.Y.W.E.C.n.C.V.U.U.U.C.n.v.n.V.Z.B.B 0.@X<XyXuXuXuXqXqX,X>X*X*X*X*X*X,XqXuXqXqXqX;X$X9.S B B.Z.C.U.U.T.W.Q.Q.Q.W.T.C.V.n.n.v.v.",
"Z.Z.E.W.Z.V.n.C.Y.W.W.E.C.C.C.V.S.P.D q.&XyXuXuXuXwXqX,X>X*X%X*X*X*X*X:XqXqXuXqXqX<X*X@X6.C B.D.U.U.T.T.W.W.Q.W.E.Y.Z.C.C.n.b.c.",
"n.C.W.W.C.C.n.C.T.W.W.W.E.Z.C.V.B.I.8.w.&X,X<X<XqXqX*X*X%X$X$Xa.$X$X*X*X,XqX,X>X>X*X*X$X9.8.D B.D.Y.T.T.W.T.W.E.Y.Y.Y.Z.Y.C.n.c.",
"n.C.E.W.Z.C.C.C.W.W.W.W.E.Z.C.S.B.D 8.e.&X:X:X:X>X:X%Xe.e.i.i.i.w.q.w.e.&X*X&X%X*X*X*X$Xp.y.D B.S.Z.Y.T.T.Y.Y.U.C.Z.E.E.U.C.n.v.",
"C.C.U.Y.Y.Y.Y.T.W.W.T.T.U.U.Y.F.A D 8.q.a.$Xa.a.%X$Xe.q.r.r.t.t.6.K K 8.a.%Xw.e.$X%X$X$Xe.q.S B N.U.U.T.U.C.U.C.C.C.Y.Y.C.v.V.C.",
"C.C.C.Z.Y.T.E.E.Y.Y.U.U.C.U.Y.F.B S 6.7.q.q.q.q.e.e.q.6.d P h.l.t.U L M w.e.q.q.e.e.$Xe.w.q.N B N.U.C.C.n.C.C.C.v.n.Z.Z.n.v.C.C.",
"U.Y.U.U.C.Z.Z.Z.C.C.U.C.n.U.E.F.B S 5.5.7.5.5.7.7.7.5.5.h d.l.eX5Xg.U K q.i.q.q.7.7.7.7.7.6.S B S.U.C.n.n.n.Y.U.v.c.n.V.C.C.V.C.",
"Y.Y.U.T.C.C.C.C.n.n.C.n.n.U.W.F.A C M d d d d d M 5.5.d h d.6XmXeX4XU K 6.7.7.7.5.5.5.5.d M C A S.U.n.n.v.C.Y.Z.n.v.C.V.Z.C.C.V.",
"C.U.U.U.n.n.n.C.C.n.n.n.n.U.T.R.B.B m p p p d s s s s s h d.6XmXmX6Xt.s d d M M s s s s p a B J.Y.Y.n.v.v.n.U.T.Z.C.Z.U.U.U.U.U.",
"C.Z.U.C.v.v.C.U.U.n.n.n.U.U.T.T.D.B a p p a s s a a s s h d.zXmXmX6Xh.P h s h h s s s h p m Z A.Y.T.n.v.n.C.U.U.Y.Y.Y.U.U.U.U.U.",
"C.Z.C.C.c.v.U.Y.U.U.C.C.n.C.T.E.S.A F H L U K I g @.g P h.l.nXmXmXnX6Xh.P h g =.U U U P H b x R.T.Y.n.n.C.U.U.C.Z.Z.C.C.C.C.Z.C.",
"Y.Z.U.Z.v.n.Y.T.U.n.C.n.n.n.U.U.S.H.Y -.h.g.f.u.;.*.=.=.kXnXVXBXmXmXvXk.=.=.*.;.f.g.g.h.*.W G.C.Y.T.C.n.Z.U.C.C.C.C.C.C.U.U.U.C.",
"E.E.W.E.U.U.Y.U.C.n.C.C.c.v.C.C.A.G.~ 1.3X6X4X4XkX4.2.3.xXDXFXAXBXNXCXkX3.;.k.kX4Xj.6X4X,.~ G.A.Y.Y.C.C.C.C.U.U.n.M.U.Y.T.Y.U.U.",
"T.E.E.W.Y.U.U.U.n.n.n.n.c.c.C.Z.C.G./.1.3X4Xj.6XzXkX3.4.bXGXHXFXBXBXGXbX4.4.kXcX6Xj.4X3X<./.G.n.C.Z.C.C.n.n.U.C.n.M.U.T.W.T.U.U.",
"C.Z.C.C.n.M.U.U.n.C.V.n.v.v.U.T.D.J./.~ -.=.d.l.zXzXk.k.bXHXHXHXFXBXGXbXkX4.zXvXl.d.-.&.^.(.m.m.v.n.C.C.V.n.C.C.n.n.U.U.T.T.M.n.",
"C.C.n.n.n.b.M.n.n.V.n.V.n.Z.Y.T.A.G.Z n i @.h h.6XnX6X6XVXHXHXFXBXFXFXCXzXlXvX6Xh.H u c n T x.z.m.v.n.C.n.V.C.C.U.n.C.U.T.T.M.n.",
"C.C.n.n.v.v.n.n.n.n.V.C.Y.Y.Y.D.x.x j r = ; g P l.eXmXmXtXAXAXtXBXtXtXBXmXmXeXl.P f % $ , j x z.x.V.C.C.C.C.n.U.U.U.U.T.Y.Y.U.n.",
"C.C.U.n.n.n.n.n.V.C.v.C.T.E.D.N.x j = O O + : g d.2XrXtXtXwXwXrX0XwXwXtXtXeXj.d.g : % X O = j x x.m.m.C.C.n.U.C.U.U.Y.E.T.U.M.M.",
"U.M.n.n.U.C.C.C.C.C.V.C.Y.Z.J.z j = = * * # * : h t.2X8X9X8X8X8X=X=X8X8X8Xs.K h p $ $ # # * = j x x.C.C.n.n.n.n.n.C.U.W.W.W.U.M.",
"U.U.n.U.U.U.n.C.Z.C.C.V.U.Z.G.x & # # 8 8 8 # * : h t.a.%X=X@X#X=X@X%X%Xi.5.p : ; % 4 8 $ $ = = l x V.U.C.n.v.v.n.C.U.E.W.W.Y.U.",
"n.n.C.Z.Y.U.b.b.C.Z.V.C.C.N.z l , # # 8 9 9 9 8 ; : s 6.p.@X-X;X;X-Xa.i.K a : % * q 9 9 8 8 = = j x m.Y.U.n.n.n.C.U.U.U.W.W.W.E.",
"C.C.Z.Y.E.U.b.v.Z.U.C.C.Z.N.l < 8 8 8 8 9 9 9 9 # ; : a r.p.-X8X9X=Xp.r.h : % 5 9 9 e 9 9 8 * = , k N.Y.U.C.n.n.U.U.n.n.T.W.E.E.",
"T.T.T.Y.Z.C.v.n.U.Y.Z.Z.J.G.j = 8 8 8 9 e e e e 8 q % : a t.2X8X8Xj.t.a : % 4 7 e e 9 9 9 9 8 8 , j z J.v.v.v.n.C.C.n.n.C.U.U.T.",
"W.W.Y.Z.C.C.n.n.Y.E.Y.S.G.V , * = 9 9 9 9 e e e e 8 3 q f U j.eX7Xl.P f % 3 9 q 9 e 9 9 9 8 9 8 * < x x.v.v.v.n.n.n.v.n.C.U.U.U.",
"W.T.U.n.C.V.n.n.U.Y.C.V.Z l , $ 3 8 8 8 9 9 9 9 9 9 0 0 i -.5XnXNX5X-.u y 0 9 8 9 e 9 9 8 8 8 4 * , l x c.n.v.v.n.n.v.n.T.E.U.C.",
"T.Y.n.n.n.n.v.v.C.Z.V.z k > * # # 8 8 8 9 9 9 9 8 9 ' { [ ;.kXVXSXcX;.[ { ) 5 3 8 9 9 9 8 4 8 8 # * > k z z.v.b.b.n.C.C.U.Y.C.C.",
"T.U.b.b.v.v.c.v.n.n.x.z & .   o # 8 8 8 9 9 9 8 3 5 { ..[ ,.7XVXSXcX*.[  .{ 5 # 8 8 8 8 3 8 8 4 X . . - z z.v.n.n.C.U.U.v.v.C.C.",
"T.U.b.b.v.v.v.c.v.v.x.z - . o + $ * 3 * # 8 8 3 2 6  ...#.-.lXVXSXcX*.} ..| 6 2 3 3 3 # # $ 8 * O   . & z x.n.M.U.C.Y.C.c.v.n.C.",
"T.T.n.n.n.n.n.v.n.n.V.N.l < ; ; q : O X X @ 2 2 1 _ o.$.@.3.zXVXSXcX*.} +. .) 1 1 @ X X   * r r q % > l Z C.U.Y.Z.C.C.n.n.C.C.C.",
"T.U.M.n.C.C.n.n.n.C.Z.N.V G f f H F % o # 3 2 1 0 ' O.O.} 2.lXVXSXcX;.[ +.O.' 6 1 @ # O . ; H I g t v x N.Z.Y.U.Z.C.n.n.n.C.C.Z.",
"n.n.b.b.C.U.C.Z.C.Z.W.F.T Y I ,.g.f.t % e r 3 1 ' X.iXo.| 2.lXVXSXcX*.#.o.iX| _ 6 3 q , ; t / 1X1.I G V N.n.U.U.C.C.V.v.n.n.C.C.",
"v.v.n.n.U.C.C.C.Y.T.E.S.H.R f.2XrX7XI f v c 0 ) X.O.sXO.| @.lXCXSXxX&.[ o.iXX.| 6 0 t F f I 7XrX2Xu.Y V x.n.C.U.C.C.V.v.n.C.C.Z.",
"n.C.Z.U.Z.C.n.C.Y.T.U.A.H.( 3X7XZXMX5X1.H u ] { iXpXpXo.} *.lXNXSXvX;.} ..O.O.X.` ] u H ,.5XMXZXrX1XY x x.n.C.Y.E.Y.C.n.V.Z.Y.Y.",
"V.C.Y.Y.Y.C.C.C.Y.Y.U.J.^..X XxXVXZXlX1XI v { X.pXpXiX+.[ *.kXCXVXkX*.[ X.iXiXO.X.{ f L 3X7XZXAXrX2XY x x.n.Z.U.E.E.C.C.C.Y.E.E.",
"C.Z.U.T.W.E.U.U.U.Y.m.J.T |.jXjXxXvX3X1.^ J } X.pXaXpXo.] @.4.kXkX4.&.` X.pXpXpXX.} &.,.g.4XMXAXrX2X^ x x.v.n.C.E.W.Z.C.Y.E.Y.Y.",
"Y.Y.E.E.W.E.T.Z.A.M.U.J.}.|.hXhXjXxX1X/ ( Q ..iXpXaXpXO.{ } 3.dXdXdX} ] O.pXaXaXO...&.>.,.1XrXZX7X1X].T N.v.v.n.T.E.Z.Z.Y.E.Y.Y.",
"W.W.W.E.Y.Z.C.C.n.U.R.K.}.%.hXhXjX3Xg.f.( *.$.iXaXaXaXO. .+.fXgXgXgXo.{ O.pXaXaXiX..*.1./ 2XrXrX2X+X].).D.C.n.n.C.C.C.n.C.Z.U.T.",
"W.W.W.T.Z.C.n.v.M.M.R.J.}.}.hXhX%.,.1.u.I &.$.pXaXaXiXX.o.$.sXfXfXsXo.| | O.aXaXpX+.&.I u.f.2X2X+X].'.L.R.U.n.n.C.n.v.n.C.C.U.Y.",
"U.E.W.W.C.b.c.v.M.T.M.J.^.}.|.|.3.<.^ I g [ O.pXaXpX| |  ...$.$.2.$.| { { | iXaXiX..[ f I ^ u.+X'./.L.Q.T.U.b.b.n.n.C.C.Z.Z.Y.Y.",
"C.U.T.T.C.c.c.b.U.T.M.J.!.).}.}.~ ( ^ F i y | O.iXX.{ ' ' } #.&.$.] ' ) ) ) X.X. .{ 7 f F ^ ^ D H.L.E.W.Y.M.M.b.n.n.C.C.Z.Y.U.U.",
"U.U.U.U.C.n.b.b.U.T.C.m.C.J.G.^.).`.{.( c 8 ` ` { ` ) 6 0 u &.:.&.v 9 2 1 6 ) { ` 7 3 < Y /.).H.L.D.E.E.U.C.C.n.U.U.Z.U.Y.U.C.C.",
"U.U.U.U.U.n.b.b.U.U.C.C.C.V.n.R.!.).{.'.j + 6 6 7 6 5 2 3 r W ~ J t +   @ 2 6 6 5 3 @ < T ).(.J.S.Z.E.E.C.C.n.C.Z.Y.Y.Y.U.U.U.n.",
"U.M.T.U.U.n.n.b.n.n.C.C.Z.C.U.J.(.`.{.~ < O $ 4 5 3 2 @ @ r Q >.J c *   @ 3 3 3 2 2 # < ! [.`.(.J.Z.Z.U.C.C.n.C.U.T.Y.U.C.n.U.U.",
"M.U.T.T.U.n.n.n.n.C.C.Z.Z.R.D.J.`.{.oX~ r * # $ $ # o X X , ! >.J c + o @ $ 8 3 2 @ O < ! [.{.).L.F.Y.U.C.C.C.C.E.W.Y.Z.C.C.U.Y.",
"n.n.E.W.U.C.n.U.U.U.U.n.D.D.K.)._.XXXX! > * * # 4 # o o . , W ~ E c .   o # $ 3 % $ $ < ! XX[.[.).L.D.C.C.C.U.E.W.W.Y.U.U.U.T.U.",
"n.C.T.E.C.C.U.U.T.T.U.C.D.J.).[.[..X.XW r O # * 4 $ # o o ; J ! E c     o # 8 8 9 4 # , E .X.XXX{.).K.A.m.U.T.W.W.W.Y.U.T.T.Y.Y.",
"C.Z.U.C.n.n.C.Y.T.W.Y.D.J.(.`.XX.X.X:.b > O * 8 8 8 $ # O = b J G c .   # # 8 8 8 $ O ; b :..X.XoX[.).K.m.n.T.T.W.T.Y.Y.Y.U.U.U.",
"U.U.C.C.v.n.n.Y.T.W.Y.R.K.).[..X.X~ J v , * 8 9 8 8 4 3 o * v J G c * o 8 8 9 9 8 8 $ q v b >..XXX[.{.K.m.M.Y.T.Y.U.T.T.U.U.U.M.",
"E.Y.C.C.C.C.n.n.Y.Y.T.R.K.(._.XX<.! v e y e e e 8 9 9 # @ = t G G t * o $ 9 w e 9 9 9 9 r b ! .XXXoX).K.A.C.W.W.W.T.E.E.U.C.C.V.",
"T.T.C.C.C.C.b.n.M.U.T.Q.K.(.`..X~ :.u e y u y 9 9 9 9 8 o * v G G v ; O * 9 e e r e 9 e , c W >.XX{.(.!.M.U.W.W.E.T.E.E.Y.Z.V.C.",
"T.Z.C.n.C.C.C.C.M.T.W.Q.R.K.`._._.W c e r y y r 9 8 8 # # * c G G c = O $ 8 e y u y e 9 = c W _.[.).!.R.U.M.W.W.Y.Y.Y.Y.Y.U.C.n.",
"Y.U.C.n.C.Z.C.C.U.U.W.Q.R.R.(.`._.~ b c r y e 9 8 8 # # # ; G E J v ; O # 8 q e e e e e r b ~ _.{.K.!.T.n.C.T.E.Z.Z.U.Y.T.Y.C.n.",
"Y.U.M.n.U.Y.U.U.C.C.U.Y.T.R.!.L.)._.~ E c q * * * * O O $ r E ~ R G r $ O O * * # * q t J ~ _.).K.J.T.U.b.n.U.T.C.C.U.Y.W.T.n.c.",
"Z.U.M.U.U.U.C.C.C.C.C.C.Z.R.Q.!.(.(.`.R n c j < > > , , e F :.].( Y v r , , < > , > c n ~ `.^.(.J.U.C.C.v.v.C.C.C.n.M.U.E.E.V.c.",
"n.C.U.U.n.n.n.b.v.v.c.v.n.C.U.R.J.K.L.(./.R T T W W E Q :.>.<.XX[.( ! Q E E W W T T T ^.^.J.G.m.c.c.c.z.c.c.b.b.v.n.n.M.Y.Y.Z.C.",
"n.n.U.U.n.n.v.c.c.c.c.c.v.n.M.U.D.R.Q.!.).`.{.{._.~ <.<.XXXXXXXXXXXX<..X( <..X[.{.`.`.).K.G.m.c.c.c.z.c.c.c.c.c.b.n.n.C.U.Y.Y.Y."
};
