/* XPM */
static char *out[] = {
/* columns rows colors chars-per-pixel */
"64 64 248 2 ",
"   c #0E1116",
".  c #101213",
"X  c #121514",
"o  c #141B15",
"O  c #1A1A16",
"+  c #12151B",
"@  c #151B1C",
"#  c #191E1D",
"$  c #221D1A",
"%  c #1B231B",
"&  c #1A2719",
"*  c #1E3310",
"=  c #27231B",
"-  c #212C1B",
";  c #372619",
":  c #26371B",
">  c #120F25",
",  c #161B23",
"<  c #191D23",
"1  c #161729",
"2  c #191837",
"3  c #241D31",
"4  c #1C2224",
"5  c #1F2920",
"6  c #1F2529",
"7  c #1F2336",
"8  c #282724",
"9  c #242C23",
"0  c #20262A",
"q  c #23292D",
"w  c #2B3323",
"e  c #293528",
"r  c #353A29",
"t  c #282B35",
"y  c #362E33",
"u  c #572E16",
"i  c #5D3A1C",
"p  c #673616",
"a  c #743E16",
"s  c #48332C",
"d  c #563929",
"f  c #673A24",
"g  c #613E3C",
"h  c #2A4917",
"j  c #324D1A",
"k  c #335517",
"l  c #377309",
"z  c #3A6A16",
"x  c #374427",
"c  c #3C4C2B",
"v  c #394D2E",
"b  c #386222",
"n  c #504917",
"m  c #684618",
"M  c #7B4515",
"N  c #6D5A18",
"B  c #4A6E13",
"V  c #566814",
"C  c #477519",
"Z  c #557A15",
"A  c #696416",
"S  c #6E7217",
"D  c #46442B",
"F  c #47582C",
"G  c #564238",
"H  c #475833",
"J  c #525136",
"K  c #714E2E",
"L  c #754A38",
"P  c #775637",
"I  c #45632A",
"U  c #596B2B",
"Y  c #487527",
"T  c #53792E",
"R  c #4C6235",
"E  c #4B6539",
"W  c #546B39",
"Q  c #587439",
"!  c #5D7A3D",
"~  c #646733",
"^  c #707130",
"/  c #1B1C45",
"(  c #1E1F56",
")  c #211D47",
"_  c #241F53",
"`  c #1D2553",
"'  c #252649",
"]  c #393548",
"[  c #272756",
"{  c #2E3152",
"}  c #393655",
"|  c #292B68",
" . c #2A336A",
".. c #343566",
"X. c #2C2E74",
"o. c #2C3278",
"O. c #323576",
"+. c #333C74",
"@. c #483E4C",
"#. c #3A4B4F",
"$. c #386951",
"%. c #354F70",
"&. c #256D6D",
"*. c #53514C",
"=. c #714D47",
"-. c #68584B",
";. c #625759",
":. c #635858",
">. c #4D6A49",
",. c #5C7941",
"<. c #6E724C",
"1. c #4C6C76",
"2. c #6F6D71",
"3. c #834916",
"4. c #895519",
"5. c #955918",
"6. c #886519",
"7. c #97651B",
"8. c #8C751B",
"9. c #A6691B",
"0. c #AB741E",
"q. c #B5781E",
"w. c #865729",
"e. c #865D32",
"r. c #90702E",
"t. c #A46C23",
"y. c #AA7427",
"u. c #B67B23",
"i. c #855A44",
"p. c #8A654B",
"a. c #91724E",
"s. c #886753",
"d. c #AB7743",
"f. c #8D7C6A",
"g. c #A67D63",
"h. c #B17E64",
"j. c #3C8806",
"k. c #348908",
"l. c #2E9400",
"z. c #359500",
"x. c #3A9601",
"c. c #369A00",
"v. c #3C9A00",
"b. c #3D9208",
"n. c #3EA100",
"m. c #468C0A",
"M. c #588B0B",
"N. c #439605",
"B. c #439D00",
"V. c #499E02",
"C. c #479709",
"Z. c #4C940B",
"A. c #4C9C0A",
"S. c #549A0A",
"D. c #468716",
"F. c #558514",
"G. c #4B9714",
"H. c #559A17",
"J. c #668A18",
"K. c #728A1B",
"L. c #649519",
"P. c #45A101",
"I. c #4BA301",
"U. c #4DA901",
"Y. c #4BA00B",
"T. c #51A602",
"R. c #54A901",
"E. c #58A904",
"W. c #56A213",
"Q. c #568927",
"!. c #548A2D",
"~. c #589726",
"^. c #5B9332",
"/. c #708E29",
"(. c #64883C",
"). c #628D3C",
"_. c #649536",
"`. c #5AA520",
"'. c #67A532",
"]. c #648444",
"[. c #658A43",
"{. c #6A8946",
"}. c #6F8846",
"|. c #608761",
" X c #938A2E",
".X c #898738",
"XX c #BD8225",
"oX c #BD862D",
"OX c #B29234",
"+X c #C68A25",
"@X c #CD942C",
"#X c #D69728",
"$X c #C38736",
"%X c #CA9737",
"&X c #D49C37",
"*X c #D9A131",
"=X c #DBA437",
"-X c #E2AA38",
";X c #E6AD38",
":X c #978A4D",
">X c #AD8F51",
",X c #928671",
"<X c #A88669",
"1X c #AF8D71",
"2X c #B68C72",
"3X c #B9A575",
"4X c #C7954E",
"5X c #D5A549",
"6X c #D9AB50",
"7X c #D6B45C",
"8X c #E8B747",
"9X c #E3B34F",
"0X c #C49A72",
"qX c #CFAA72",
"wX c #E4B671",
"eX c #EEC353",
"rX c #F3C958",
"tX c #E6C060",
"yX c #2E3683",
"uX c #313688",
"iX c #31368A",
"pX c #343C98",
"aX c #6F758E",
"sX c #4B63A4",
"dX c #827D82",
"fX c #2494A4",
"gX c #58A0A3",
"hX c #92928F",
"jX c #A69787",
"kX c #AE9E8F",
"lX c #8EA995",
"zX c #A7A08D",
"xX c #B0A993",
"cX c #B3B7AC",
"vX c #C89A80",
"bX c #CAA588",
"nX c #D3AA8C",
"mX c #D9BB8A",
"MX c #D1B492",
"NX c #E3BA8F",
"BX c #CABCA3",
"VX c #C1BFBA",
"CX c #E9C78C",
"ZX c #CBC2A8",
"AX c #D2C7B2",
"SX c #E9D1B3",
"DX c #CED3CA",
"FX c #E5D8C9",
/* pixels */
"T.T.U.U.I.U.R.R.T.I.V.V.B.I.I.I.B.v.v.P.I.I.U.T.V.S.~./.}. X:X.X:X.X.X.XL.L.W.Y.b.x.V.I.B.N.B.v.x.z.l.z.v.B.x.v.I.U.I.B.z.x.B.I.",
"U.U.I.I.I.U.T.T.I.P.V.B.V.B.B.B.B.v.v.v.n.I.R.W.M.J././. X XOX:XOX:XOX X XL.J.S.m.m.V.T.B.B.B.v.x.z.z.z.B.B.v.B.U.T.B.B.x.x.P.I.",
"I.P.v.n.I.I.B.B.v.B.B.B.B.B.B.v.v.v.B.B.c.v.W.L.S S t.OX%X6X7X7X7X5XOXOXXX X8.S Z Q.H.V.V.B.v.z.z.x.v.B.B.B.B.B.U.I.B.N.v.v.P.P.",
"n.P.v.v.I.I.B.v.x.v.B.B.B.B.v.x.v.v.B.B.v.G.L./.8.7.q.+X=X9XtXtXrX8X8XOXXXy.7.N U U Z Z.V.V.x.z.z.z.B.B.V.B.v.B.B.I.B.B.v.v.v.n.",
"P.P.R.U.U.I.V.B.B.B.P.P.B.B.x.N.B.B.P.Y.Z.J./.8.7.9.XX#X-X;X6X9X;X*X@XXXq.9.5.N m D B C Z.V.x.z.z.z.B.V.B.B.x.c.v.v.P.B.v.v.n.v.",
"P.I.R.R.I.V.B.V.B.B.P.B.B.v.x.B.B.I.I.S.J..Xr. Xy.XX#X*X;X=X=X&X=X*X+XXXXX0.t.5.M m n V F.V.N.x.z.v.B.V.B.B.v.x.n.P.v.B.P.n.v.v.",
"U.U.R.R.P.B.B.V.P.v.v.c.x.v.B.B.V.V.R.L. X XOX%X&X=X=X-X*X#X+XXX#X#X+X+X@X@X@XoXt.4.m N Z D.N.B.v.B.I.V.V.V.I.I.I.P.v.v.v.v.c.v.",
"I.R.R.R.B.v.B.B.P.P.v.x.x.x.v.B.V.V.M.K. XOX6X8X9X8X;X;X*X#X+X+X#X#X+X@X-X8X8X=X$Xy.5.N S F.m.B.B.B.U.U.I.I.R.R.U.P.B.v.v.v.v.z.",
"B.I.R.T.B.B.x.B.P.I.P.B.x.x.x.B.S.M.S 8.OX;XeXrXrXrX8X8X;X*X#X+X#X#X#X*X8XrXrX8X8X&XXX9.A V M.V.B.P.U.U.R.E.E.E.R.I.B.N.x.x.x.x.",
"B.V.R.R.V.v.N.B.I.U.T.U.B.B.N.N.S.M.A 7.*X;XeXeXrX8X8X-X-X#X#X#X+X#X#X;X8X8XrX8X8X;X#Xq.N A M.S.B.P.U.R.R.E.E.E.R.I.V.B.B.N.x.x.",
"N.B.R.E.B.B.x.N.U.R.E.R.T.V.B.N.M.K.6.0.@X;X;XeX8X8X&X#X+X+XXXu.q.XX+X#X=X5X8X5X-X#X#X+X7.6.K.M.Z.I.U.U.U.U.T.T.V.V.T.I.U.V.x.z.",
"B.B.T.T.V.B.N.B.T.R.R.R.T.I.B.Z.M.S 8.0.@X*X*X*X=X=X+Xu.q.t.t.t.9.9.q.XX@X&X#X#X#X#X#X+X9.7.S M.Z.I.U.U.I.I.I.V.B.V.I.T.I.B.v.z.",
"B.B.I.I.I.I.T.T.T.T.U.U.V.I.I.Z.Z S 5.9.q.+Xu.u.$XXXq.9.w.w.i.i.w.M w.7.XX+Xu.u.+X+X#X+X9.9.A V m.B.U.I.P.P.V.B.x.x.I.I.N.x.v.v.",
"B.B.B.B.I.T.R.R.I.B.I.P.B.P.T.S.B A 3.5.9.9.9.5.9.0.9.5.f L p.d.e.P f w.t.u.9.9.q.q.q.q.9.5.N V m.I.I.B.v.B.P.B.x.x.V.V.x.x.v.B.",
"P.I.I.I.P.P.I.I.B.v.B.P.v.P.T.S.Z A a 3.5.5.5.5.5.5.3.3.a i.h.vX2Xa.L K 9.9.9.9.9.5.9.5.5.M A B m.P.B.v.z.v.I.B.x.z.B.B.B.B.B.B.",
"I.I.I.P.B.B.P.I.v.v.v.B.v.P.R.S.Z A p a a a a 3.3.3.3.a f i.dXnXvXh.=.a 3.5.5.5.3.3.3.M M M V M.Z.I.v.z.z.v.I.I.N.x.B.B.B.I.B.B.",
"B.B.I.B.v.v.n.P.B.v.v.v.B.P.U.Y.M.B u u u p p p p p p a f i.2XnXbX2X=.f a a 3.3.p p p p u n B D.I.I.v.x.x.v.P.I.P.P.V.I.P.P.P.I.",
"N.B.I.B.x.z.B.P.P.v.v.v.B.P.U.I.Z.Z n u i p a p u u p f g s.vXnXnX2Xs.=.f a f m p i p d u n C C.I.I.v.x.v.v.P.I.I.I.I.B.P.P.P.P.",
"P.B.B.B.z.x.P.I.B.v.B.N.v.B.I.I.S.Z n G =.=.L K d d f L s.jXvXNXnXbXh.s.g f g G K N P P G F C N.I.I.B.N.B.P.n.B.B.B.B.B.B.B.B.P.",
"U.I.I.B.x.v.I.I.v.v.B.B.v.B.P.I.N.F.W -.s.a.s.i.:.*.g =.g.kXMXNXNXnXxXg.=.=.;.:.p.d.a.s.-.H D.N.I.U.B.B.B.P.B.v.B.B.B.B.P.P.P.B.",
"T.T.R.T.V.P.I.I.v.z.B.B.x.z.v.B.N.D.T <.<X1X<Xg.hX2.;.:.hXVXSXCXNXnXBXhX;.;.aXhX<X>X0Xg.<.T D.N.V.I.B.B.x.v.P.P.v.n.v.P.I.I.I.I.",
"U.T.T.R.I.P.P.B.v.x.v.v.z.x.v.v.B.D./.}.,X<Xh.<XkXhX2.2.cXDXFXSXNXmXAXcXaX2.hXkX<Xh.g.,X<.Q.G.x.B.B.V.B.x.v.B.I.n.v.P.I.U.R.I.P.",
"B.V.B.B.v.n.n.n.B.B.v.x.x.B.I.V.B.Z.Q.! <.-.p.g.xXkXaXhXVXFXFXSXNXBXDXAXdXdXkXkXf.s.:.-.Q Q.b.x.x.v.B.B.N.v.B.P.v.v.v.P.U.U.P.v.",
"B.B.v.v.v.v.n.v.B.B.x.v.B.I.T.V.N.D.Y I x x L i.2XkXjXkXBXFXSXSXNXNXSXBXkXjXbX2Xi.L s r b C j.j.b.x.B.B.B.B.I.P.P.n.P.P.U.U.n.v.",
"B.B.v.v.z.z.v.x.B.B.x.B.I.U.U.V.j.z h e = = s L h.0XnXMXNXNXCXCXNXwXwXNXnXvX4Xd.L s $ = * h l D.m.x.B.B.B.v.P.P.I.P.I.I.I.P.n.v.",
"B.B.P.v.v.v.v.B.N.x.N.B.I.T.V.m.z h * o o O ; d i.>XqXwXwX9X9X7X6X7X9XwXwX0Xd.w.d ; $ X o * h z l N.N.B.B.P.v.B.P.P.I.U.U.I.n.n.",
"P.n.v.v.B.B.B.B.B.B.N.B.V.V.V.B h * & , # # $ ; d e.>X4X5X&X$X4X$X4X5X6X4Xd.w.s = % % & & % * h z j.N.B.v.v.v.v.v.B.I.T.R.R.I.v.",
"P.P.v.P.P.I.B.v.B.B.B.N.V.N.m.z * @ @ 4 4 < # % ; f r.u.+X@X$Xu.$X$X$X$Xt.w.d y & @ 4 6 % % # - k z N.P.P.v.z.x.v.v.I.U.R.R.I.P.",
"v.v.B.V.I.I.v.v.V.V.B.B.B.m.C k 5 4 4 6 6 6 4 4 $ ; p w.0.+X%X&X&X%X$Xy.w.f 3 > 6 6 6 6 4 4 & 5 j z b.U.P.P.v.v.B.B.B.B.R.R.R.U.",
"B.B.V.I.I.V.v.z.P.I.P.B.A.m.k : & 4 4 6 q 6 6 6 # $ ; i 6.y.4X5X5X4Xy.4.f s $ 1 6 6 6 6 6 4 4 & h k m.P.P.B.v.v.B.B.v.B.U.R.T.T.",
"U.U.T.I.I.B.x.v.I.I.B.V.G.D.h & 4 4 4 4 6 q q q 0 = O ; f e.>X4X4Xd.e.d ; $ 3 3 0 7 q 0 6 4 4 5 & h l G.x.v.v.v.B.B.x.v.B.P.I.U.",
"R.R.I.V.B.v.c.v.I.I.V.C.D.C : & & 4 4 4 6 6 q q 0 0 , $ s P >X0X3Xg.L s 8 < < 8 0 q q 0 4 4 4 4 & : z j.b.z.x.v.x.x.x.v.B.I.I.V.",
"T.U.B.B.B.B.x.v.V.I.V.N.C k * o & 4 6 6 6 6 q 0 4 6 2 ' ] -.1XbXBXjX-.y ) 7 @ % 0 q 0 6 4 4 4 4 # - k z j.v.v.v.z.x.x.B.U.T.I.B.",
"T.I.B.v.v.v.z.v.B.V.N.l k : % o @ , 6 5 6 6 6 6 , 2 ' [ ] ;.jXBXBXjX;.] ' ` , @ 4 0 6 4 4 4 4 < @ % : k l z.v.x.x.v.v.B.I.I.B.B.",
"U.P.c.c.v.v.z.v.B.B.j.l * o o X @ @ , 4 4 4 , , + 1 [ } ] ;.jXBXBXzX;.]  .` 1 + < 4 4 4 < < 4 < o . o * l k.z.v.v.B.I.V.B.x.v.v.",
"U.P.c.c.v.c.z.z.v.x.z.l * o X X @ @ @   @ @ + , > 2 { ..@.;.kXBXZXkX;.} %. .2 + # < # < 4 8 9 9 * * o h l j.v.n.B.P.I.B.x.z.v.v.",
"T.I.v.v.v.x.z.z.v.v.N.l j 9 < 1           + +   > /  .%.} :.kXBXZXzX;.} o.X./ > + o + # 8 r D D i D r k l V.I.P.I.B.B.B.B.N.B.B.",
"U.P.v.v.v.B.x.z.v.B.I.Z.z r q 1 6 & . .   , > > 2 ` o.o.@.:.jXBXZXzX;.] %.o.` 2 , + X 8 G P <.<.P ~ F z m.I.I.I.B.B.N.N.B.B.B.V.",
"v.v.c.v.B.P.B.B.P.I.T.S.B F r e G d & o 5 e 1 2 ` o.yX%.} :.kXBXZXzX;.} o.yX| / 2 + % s s.1XxX3X>X:XU C N.B.P.P.B.B.v.x.x.B.N.B.",
"x.v.c.v.B.B.B.B.I.T.T.S.Z U J -.s.-.r - e x 7 ` o.yXuXO.} ;.jXBXZXzX;.] o.yXo.( 2 2 r J :X3XmXmXqX:X^ B m.v.B.B.B.B.x.x.x.x.N.B.",
"x.B.V.I.B.B.N.B.I.U.V.Z.Z ~ (.>X3X<X-.x v v [ ( o.pXuXO.} :.jXBXAXxX>.] X.O.o.X.( ' H ~ ^ g.qXNX4X:XU C j.x.B.I.U.V.x.x.B.B.I.I.",
"N.B.I.I.V.B.B.B.I.I.V.C.C ^ :X3XMX3X<.,.H v [ X.uXpXuXO.] ;.hXxXcXzX*.' | yXuXX.| { J W ~ p.3XqX>Xa.U C j.x.B.P.T.T.B.B.V.I.T.T.",
"B.V.I.T.T.U.I.B.P.P.P.Z.C ! >X3XcXcX3X:XJ y { X.uXiXiXX.' @.2.dXhX2.*.[ X.iXiXiXX.{ *.U ^ r.3X4X:Xr.T D.b.x.z.v.T.R.I.I.I.T.I.T.",
"I.I.I.T.R.R.I.V.B.B.I.Z.C ! ,X3XgXlXgX,X*.y ..O.pXpXiXX.[ @.aXaXaXaX..| X.iXpXpXo.| *.G P r.:X:Xr.J.F.G.b.v.c.v.I.T.I.P.I.I.I.I.",
"R.R.T.T.T.I.B.v.v.P.I.Z.C >.|.|.fXfXgX1.] y ..iXpXpXpXo.| +.sXsXsXsX%.| X.uXpXpXiXX.{ ] J ~ ^ .X/.L.G.C.n.P.v.v.B.B.v.B.B.I.I.I.",
"R.R.R.T.I.B.v.x.c.P.I.A.D.T >.1.fXfX&.%.y ' X.iXpXpXyX|  .+.pXsXsXsXo. .| X.pXpXiXX.[ ] J U T ~.W.W.A.V.U.P.c.v.x.B.x.v.B.B.I.I.",
"U.U.R.T.B.v.z.z.B.P.P.A.G.!.$.$.fX&.%.*.y y | uXpXiX| [ [ ..%.%.yXo.o. ._ | yXpXiXX._ y I Q.H.S.S.I.I.U.U.P.c.c.v.B.v.B.B.B.I.I.",
"P.I.U.U.v.x.z.c.P.P.B.v.G.Q.b $.&.&.%.s y y [ X.o.| / 7 ` { #.#.#.| [ [ / _ X.X.X.[ ) e Y Q.S.Y.P.P.U.U.U.P.n.v.v.B.B.P.P.B.P.P.",
"P.P.n.B.v.x.z.c.P.P.B.N.N.C.D.T $.$.$.H t 3 3 _ _ ) > > 1 t #.$.#.r 2 1 1 2 _ [ ' ) 7 e T ~.~.G.A.P.I.I.P.B.B.v.P.P.I.P.I.P.n.v.",
"n.B.P.v.B.v.c.c.B.P.B.B.B.A.G.!.T >.>.H 8 $ 3 > 2 2 > . X 9 v E H v 4 + > 1 2 ' 2 1 4 r T _.~.H.G.P.I.P.B.B.B.v.P.I.I.I.P.P.P.v.",
"P.P.I.P.P.P.v.v.v.v.B.B.Y.Y.G.!.).].,.E w O . . > > $ . X & v H R v 9 + @ , , < < < 8 x Q [.).^.~.G.Y.P.N.x.v.B.I.I.I.I.n.v.P.I.",
"v.n.U.U.I.B.v.v.v.B.B.A.Y.Y.~.^.[.{.}.W w O . . . > O O @ & v R R c 9 @ @ @ , @ O O w v ,.[.{.).^.H.H.I.B.B.v.P.U.R.I.P.P.n.I.I.",
"v.n.U.U.P.B.v.B.I.I.Y.n.G.`.^.).{.[.{.,.: o X   $ > @ @ X & c W W H & X @ , @ @ + % w F ! {.].{.^.^.H.S.B.B.I.I.E.E.I.P.I.P.U.I.",
"v.P.I.I.P.B.P.P.U.U.n.b.G.^.).[.].{.[.W : & o @ $ $ % O X & c W ,.H & . o , % @ X o - c Q ].].].{._.~.H.V.P.I.E.E.R.I.P.U.U.I.P.",
"B.B.I.B.v.x.B.I.R.R.U.Y.G.^.).].].].].W w & % 4 4 4 < # o % x I Q E - X o % @ @ X X o : W ].[.[.{._._.~.b.v.I.T.U.U.I.P.P.P.P.P.",
"I.I.V.B.v.c.P.I.R.U.Y.n.~.!.).].].,.Q H : & & 6 3 4 0 # o = x I W H & o @ 4 , @ + . X - F Q ].[.{.[._.`.C.c.I.T.I.V.I.I.I.P.P.n.",
"R.T.V.B.B.v.v.n.P.I.I.Y.~.^.^.].].,.E v : % 6 6 4 0 4 4 # & c F R c - o 4 4 4 , +     & x E ,.].}.).'.`.C.v.R.R.U.T.T.I.V.B.B.B.",
"R.R.B.B.P.P.c.c.n.P.U.T.G.^.^.[.[.,.E c & % 6 6 0 0 4 4 % w c H F x - @ 4 6 6 4 1 >   o x R ! [.[._.L.W.P.P.R.E.T.T.T.I.I.V.B.N.",
"I.V.v.x.B.B.B.v.n.U.E.E.Y.H.^.).[.,.W H 9 , 4 4 % 4 < 5 : c W Q R x % @ 0 q q q 6 4   % r R ! [._.'.W.W.n.P.R.R.I.I.I.I.I.B.B.B.",
"I.B.B.v.B.I.B.B.P.P.R.E.T.Y.~.^.^.(.! H x e 5 9 9 w w e c R ,.! I x % , 0 t t t q 4 + % x H ! _.^.~.W.Y.v.v.U.R.V.V.I.I.U.I.B.x.",
"P.P.B.B.I.I.B.V.B.V.I.U.I.W.W.H.^.^.[.,.H H v H H H H H Q ,.].,.R x 5 4 0 q t t 6 6 @ 4 c E !.^.H.G.I.P.v.B.I.I.B.B.B.P.R.I.N.z.",
"B.v.P.P.P.P.B.B.B.N.B.B.I.T.I.W.`.^._.[.! Q Q Q W Q W ,.].{.{.].W H e 6 e e e e e e : h b Y !.~.G.C.v.c.c.c.v.B.x.B.v.P.T.T.x.x.",
"c.v.P.P.B.v.v.x.z.z.z.x.B.B.I.Y.G.G.W.'.^._._.).].,.,.{.}.{.{.].,.W D x x x x x v b I Y D.D.G.b.b.z.z.l.l.c.c.x.v.v.v.P.I.I.V.B.",
"z.z.P.P.v.v.x.z.l.l.z.z.x.v.P.n.c.Y.W.W.'.'.'.'.[.].{.}.}.}.{.].].,.H c x x x v z C !.!.G.G.b.b.z.l.k.l.l.l.z.z.c.v.v.v.P.I.I.U."
};
