/* XPM */
static char *out[] = {
/* columns rows colors chars-per-pixel */
"50 50 252 2 ",
"   c #051015",
".  c #152B1E",
"X  c #1B3B1D",
"o  c #243B1F",
"O  c #001D29",
"+  c #193423",
"@  c #193827",
"#  c #1B3B2A",
"$  c #112931",
"%  c #1B3C34",
"&  c #17383A",
"*  c #253C27",
"=  c #233A37",
"-  c #313E3C",
";  c #1F401D",
":  c #27471B",
">  c #2F501A",
",  c #38581B",
"<  c #3B6419",
"1  c #1D4429",
"2  c #1A443A",
"3  c #234324",
"4  c #2C4A23",
"5  c #294528",
"6  c #354929",
"7  c #2B5326",
"8  c #385626",
"9  c #284638",
"0  c #364835",
"q  c #3C4D33",
"w  c #324B3C",
"e  c #275736",
"r  c #3A5538",
"t  c #3C632A",
"y  c #3C6735",
"u  c #435D1D",
"i  c #47691B",
"p  c #4F741C",
"a  c #52761C",
"s  c #455C2A",
"d  c #40483A",
"f  c #455839",
"g  c #476626",
"h  c #526D27",
"j  c #4A7329",
"k  c #567827",
"l  c #486438",
"z  c #556A38",
"x  c #497738",
"c  c #587836",
"v  c #63793A",
"b  c #043448",
"n  c #173B4A",
"m  c #053D54",
"M  c #273D45",
"N  c #1A4A44",
"B  c #1D5548",
"V  c #07425B",
"C  c #1B4658",
"Z  c #294747",
"A  c #254942",
"S  c #2B4B44",
"D  c #334A48",
"F  c #28534A",
"G  c #385645",
"H  c #34534B",
"J  c #3B554C",
"K  c #3B5B4B",
"L  c #2D4F55",
"P  c #375956",
"I  c #3D5B50",
"U  c #3A6B4B",
"Y  c #3B6756",
"T  c #094B68",
"R  c #14526B",
"E  c #055779",
"W  c #385966",
"Q  c #295E74",
"!  c #1A6677",
"~  c #366578",
"^  c #465744",
"/  c #455B45",
"(  c #435B4D",
")  c #4B5D4B",
"_  c #555B4D",
"`  c #425C51",
"'  c #485A57",
"]  c #486446",
"[  c #4D644C",
"{  c #55664A",
"}  c #477646",
"|  c #5C7848",
" . c #456254",
".. c #4B6354",
"X. c #4B6A54",
"o. c #4C6659",
"O. c #4C6A5C",
"+. c #576755",
"@. c #536A54",
"#. c #546B5B",
"$. c #5B6D5C",
"%. c #4B7358",
"&. c #587357",
"*. c #5C725D",
"=. c #646A4B",
"-. c #647949",
";. c #646B57",
":. c #63735B",
">. c #697859",
",. c #757D59",
"<. c #475B61",
"1. c #566B64",
"2. c #516D6E",
"3. c #5C7462",
"4. c #587A69",
"5. c #647563",
"6. c #657A64",
"7. c #667866",
"8. c #6B7B64",
"9. c #6B7D6B",
"0. c #737D64",
"q. c #767C68",
"w. c #657872",
"e. c #837D69",
"r. c #5A841C",
"t. c #628C1C",
"y. c #739F1E",
"u. c #5C8529",
"i. c #5B8734",
"p. c #648727",
"a. c #689528",
"s. c #678738",
"d. c #729830",
"f. c #78A526",
"g. c #57874B",
"h. c #588859",
"j. c #67844B",
"k. c #6E8D4E",
"l. c #758458",
"z. c #5A8C6F",
"x. c #6B836B",
"c. c #75836B",
"v. c #7A8768",
"b. c #7B846C",
"n. c #6E966F",
"m. c #668476",
"M. c #6C8373",
"N. c #728573",
"B. c #768975",
"V. c #7C8B75",
"C. c #778978",
"Z. c #7B8C7A",
"A. c #7C9477",
"S. c #75A474",
"D. c #84B11A",
"F. c #8DB52D",
"G. c #82875A",
"H. c #84866A",
"J. c #8B8C6C",
"K. c #838B74",
"L. c #888874",
"P. c #8C8B74",
"I. c #828E7A",
"U. c #968D76",
"Y. c #889375",
"T. c #84927C",
"R. c #8B937C",
"E. c #9A9970",
"W. c #97957B",
"Q. c #95937C",
"!. c #95A17D",
"~. c #015E86",
"^. c #056287",
"/. c #026994",
"(. c #03719E",
"). c #357A92",
"_. c #0376A6",
"`. c #117AA7",
"'. c #027DB1",
"]. c #637E86",
"[. c #328A91",
"{. c #0283B9",
"}. c #1782B0",
"|. c #2F8DB5",
" X c #3DA3A8",
".X c #5B9F9C",
"XX c #6F898C",
"oX c #468BA9",
"OX c #5199B8",
"+X c #769AA6",
"@X c #038BC5",
"#X c #0592CB",
"$X c #0298D7",
"%X c #259DD0",
"&X c #3EAAD8",
"*X c #039EE0",
"=X c #01A5EA",
"-X c #18A7E4",
";X c #01ABF4",
":X c #00AEF8",
">X c #01B2FE",
",X c #0CB6FF",
"<X c #16B6FA",
"1X c #2FB9F4",
"2X c #4FB0D4",
"3X c #61A5C3",
"4X c #2FC1FF",
"5X c #3BC3FD",
"6X c #51CFD0",
"7X c #4AC7FD",
"8X c #59C9F9",
"9X c #6BC6ED",
"0X c #66CCF8",
"qX c #6AD2FE",
"wX c #78D5FC",
"eX c #859581",
"rX c #8A9682",
"tX c #8D9A84",
"yX c #879A88",
"uX c #949B84",
"iX c #979A85",
"pX c #9B9C84",
"aX c #949E89",
"sX c #869692",
"dX c #A79D85",
"fX c #98A289",
"gX c #9BA38B",
"hX c #8BA192",
"jX c #9CA892",
"kX c #A3A48A",
"lX c #A7A88B",
"zX c #B4A98F",
"xX c #A5AC95",
"cX c #ABAC94",
"vX c #A8B196",
"bX c #ABB39C",
"nX c #B2B49C",
"mX c #B9B89D",
"MX c #87A5A7",
"NX c #92B4BC",
"BX c #AAB7A6",
"VX c #B4BAA2",
"CX c #BABCA3",
"ZX c #C1B69C",
"AX c #B5C5B3",
"SX c #C4C7B4",
"DX c #99BAC2",
"FX c #A3CEDB",
"GX c #ACD0D7",
"HX c #83DAFF",
"JX c #B6E3F1",
"KX c #C2EAF4",
/* pixels */
"i 8 s d * 6 * * 3 : 4 6 5 o 6 5 * > o - ~.M | > a D.t.i : : ; 4 6 8 * 3 6 6 5 * t > : : < , 1 X ; < ",
"{ U.U.U.U.J.q.f Y s H.H.0.;.;.5.;.o s - ^.E 0 { s.y.p >.f , l P.H.v.8.d K.q.q.5.+.: 4 l f @.( K 5 > ",
"H.lXdXlXlXlXiX^ i =.dXdXU.U.U.L.q.0 d Z.n %XM <.c.-.:.rXx.q v.W.Y.J.c.>.rXH.b.b.9.9 l x.&.6.$...K % ",
"H.lXzXmXnXcXfX_ z =.dXdXW.W.U.e.e.d ^ P.M oX2Xn ].8.B.V.x.9 ;.K.v.J.K.b.7.q.N.9.5.5 h.x.tX@.o.( S 1 ",
";.pXnXnXcXvXgX{ p z dXW.P.L.e.;.d - { uX1.~ wX2X$ w.^ 5./ 5 * ) R.V.b.c.:.8.5.5...* } V.x.*.o.H A e ",
"=.P.nXBXbXvXgX;.a p.6 d - 0 6 8 8 s f v.eXM 9X7X#X= Z.V.x.6 ] eXH.b.b.9.+.+.>.v.w 5 j.&.X. .K 9 % } ",
"{ nXbXbXxXxXjX..h CXmXmXmXmXVXvX,.c c H.q.M &X,X>XE <.q.7.9 +.c.8.9.9.:.9.q.5.1...4 u.v.[ G r %.g.k.",
"^ R.rXtXZ.7.) w z SXCXmXmXmXVXVX+.g { v.C.2./.,X>X=Xb 4.5.S G 9.7.6.5.6.9.5.1.#.o.* h k.k.-.| u.t.a.",
"i > 6 * o u u u v ZXZXCXCXVXVXbX@.l { 9.XXXXT >X>X>X'.M w.F # A  .K 9 _ ( ( ^ D S # >.nXpXW.K.+.-.i.",
"a G.G.e.e.J.e.z v ZXVXCXVXBXVXbX{ l f @.MXMXn 1X<X,X,XV Y 9 @ # # @ * * + . * * 2 5 ,.cXkXuXrXC.Z.r ",
"=.ZXzXE.U.U.J.=.{ bXcXbXbXbXbXxX/ g s.] GX+Xn 0XqX8X4X|.D c v | z s i i s g s s , p v.fXgXaXrXB.3.w ",
"=.zXzXW.W.U.e.d d xXgXgXfXxXjXeXw g d.E.JX].W HXHXwXqX2X' cXlXmXlX=.u G.zXdXU.W.^ i >.aXaXeXeXC.C.9 ",
"=.W.W.U.dXP.e.d , ^ f _ ) ^ q w e g AXKXJX2.).HXHXHX9X~ 1.lXnXcXfX;.6 ;.dXe.e.e._ , =.uXrXV.Z.B.M.S ",
"_ dXU.U.U.L.0.d u g f f q d q 4 , h SXKXJX).).0XqXwX).= q.bXbXjXaXaX6 =.U.U.U.e._ s f ( G ....J K 5 ",
"d e.P.e.L.Z.+.d z nXmXzXiXvXpX$., v GXKXJX].T <X1X).- sXaXaXjXtXI.V.0 ;.U.U.L.e.;., p s q 6 6 4 8 g ",
"> d _ _ _ ^ 0 * z cXdXlXcXlXgXl.g z GXJXJXXXm *X~.  2.XXhXsXC.N.9.$.* ;.dXU.P.L.;.8 ,.cXiXP.q.8.7.9 ",
"a h s z f z h a v Y.Y.bXxXxXgXv.k m.2.L L W $ ).  b E T n oXXXhXXXc.5 ;.uXY.P.I.$.6 l.L.e.q.;.5.$.9 ",
"k W.ZXlXkXdXL.s { ^ nXcXxXgXtXC.' . Q '.'.m   b #X;X>X<X&XQ C 3X1.9 9 r ) +.$.( G f 0.e.q.;.d +.' 9 ",
",.ZXdXW.W.R.:.8 H.kXV.jXfXtXeXyXM 3X0X<X;X_.  @X:X>X>X5X0XwXOX= +X5 , a u u , g ] | :.,.5.+.5.@.G $ ",
";.cXpXiXtXR.6.q tXxXfXeXfXyXN.2.2.wXqX8X;X~.  (.>X,X7X0XwXHX0XOX& H.;.g J.cXW.W.v.g { 5.$.5.o. .G N ",
"=.kXuXtXyXZ.$.] ..6.G * 3.K ' & &X0XHX8X-Xb ~.b ;X,XqXwXHXqX7X<XE w.7.o kXpXuXR.N.8 6 G 9 9 = % & N ",
"_ 0.uXeXZ.A.#.f &.r 0 < 8 9 o.$ %X8X9X3XT E *Xm E <X0XHXqX7X,X:X-XM 1.+ aXtXR.T.+.g a , : X X ; : , ",
"s ^ &.*.>.3.K g d.d.k.p.p h >.<.$ C R b E 1X;X$Xb ! 2XHXqX7X,X<X8XM ` * T.R.T.Z.+.8 j c l l -.-.v i.",
"i h p i a.z j.d.F.D.k.k.j.P.CX<.~.'.{.*X;X<X:X:X*XR n ).oX`.'.|.oXW M 5 Z.I.Z.7.c k k.>.v.*.P.R.V.6.",
"z lXJ.u.k.d.s.s.F.f.!.lXfX>.pXD {.:X,X:X;X;X>X>X1X0XOXT V m m m m $   ;.^ ^ / k p.a.Y.R.R.:.V.T.I.5.",
"8.uXR.Y.z vXvXn.g lXlXgXfXc.;.D {.:X;X$X^.^.#X:X5XqX0X-X@X#X=X;X*XC . q.c h k p.p.p.l.T.Z.eXZ.B.N.&.",
"{ I.c.] :.jXfX] x.xXgX!.l.c.R.L {.>X;XR 6X2X[.#X,X4X-X! [.! @X:X*XM MXgXkXW.Q.T.K.:.f #.6.eXB.N.M. .",
"r Z.V.c.w G 0.Y.8.Z.l.A.>.gXW.1.}.:X*X X6X X6X(.>X>X{. X6X6XE =X_.<.BXgXpXfXT.Z.c.$.%.X.3.C.M.M.M.J ",
"0 ` K w 5 >.Q.Y.c.v.vXvXlXY.W.1.T ;X#X[. X[. X/.>X>X^.).F  X! $XT XXBXgXtXeXZ.C.M.o.g k.-.&.4.X.K l ",
"t : 8 f h l.K.K.c.vXvXlXgXfXT.9.2 =X2XoXoX).L {.>X>X@X/._.(./.@X$ DXhXsXXXZ.B.x.@.w i t.d.k.s.s.s.u.",
"z kXU.Y.J.{ v.b.{ [ fXfXfXrXV.B.S `.qXwXqXwXqX,X>X>X;X#X;X>X=Xm 2.MX..$.>.&.X.] r 8 v kXgXY.I.I.jX] ",
"{ Q.Y.pXb.f 8.>.I.T.&.T.yXZ.N.6.#.$ &XqXwXwX8X;X;X@Xb T ;X;X^.M GXh., u j f.F.a r.a R.uXR.K.B.c.M.D ",
"0.dXq.;._ 8 r N.c.9.8.[ N.x.x.#.J ].& %X7X5X`.$ O O /.=X=X~.M FXXXxXY.Y.v.| l.>.&.g c.T.T.V.M.x.M.J ",
">.L.K.I.8.7 8 3.9.7.+.( ( H = # @ 4 >.Z R #X$X{.{.$X=X'.T <.DXMXfXV.v.x.8.$.yX*.[ 5 8.Z.V.B.M.M.M.G ",
":.K.V.B.8.q j G #.o.H 9 . @ o r -.j.l.Z.o.W m V V V m W +XGXXXG 5.9.8.>.3.( G @.( * 3.C.C.M.M.m.XXG ",
";.V.V.N.*.8 c 8 % # + X > s Y.lXuXuXrXeXf +.XXw.XXMXNXNXMXw.J =  .5.3.@. .5.) Y H @ 9 ' O.o.o.H 9 B ",
") 7.9.9.{ u.t.a 4 4 y p t.l.cXQ.R.I.V.9.6 { K.5.w.7.5.1.1...S + r o.O.x.#.X.( X.Z @ > , r 0 w 5 1 3 ",
"8 0 f l i.p.G.!.fXW.Q.,.k -.R.I.Z.V.N.6.5 ] 9.3.;.../ o.o.` H # 5 K 3.@. .I Y F A 1 x | 8.#. . .H 4 ",
"| xXrXT.V.l dXpXiXQ.rXiX6 z T.A.B.x.M.w.* f 3.+.o.' ( = P P A 9 x U X.2.I H F N 2 e | ] o.' K J F % ",
"9.rX9.9.1.r tXR.R.T.eXC.* ] C.M.x.m.m.3.r 8 `  .` J D S % A F B n.XXX.Y H P B B U i.g.@.( I H S 9 % ",
"K 6.4.#.( q eXZ.T.Z.C.M.* 6 O.o.#.1.O.I 7 l 2 P I F F 2 @ 7 2 e h.n.S.4.Y U x h.S.g.%.%.9 F S A e 7 ",
"4 K K K ] } Z.A.Z.Z.M.M.* i > 3 * 5 3 * < j @ 2 N B 2 2 e t t x a.n.g.i.i.a.f.j z.U r 3 4 8 1 e y p.",
"i k j.k u.k Z.N.M.M.m.m.# -.fXR.I.c.6.6.[ 8 x 4 1 ; 7 j r.j !.Y.A.| T.T.A.:.&.X.Y 7 u.s.s.u.j j k r.",
":.rXkXI.l g w.4.O.m.4.F % v.b.8.$.@... .Y * h.>.v.c.x.l j l.I.c.5.] 6.6.&. .` J H 1 *.c.c.>.N.M.3.G ",
":.aXq.7./ , * 9 9 H Y 2 2 >.0.$.+.' ( P D * { I.A.B.N.o.8 f 5.;.$.$.@.@. .K J D F @ $.9.9.$.o.' ( % ",
"] V.5.$.G 6.l j z.U U } j / 5...` ( J D Z @ [ Z.C.N.x.O.4 w $.#.....w ( J H F D N 1 +.6.#...( K J % ",
"G ) $...7.3...U } h.AXz.x { $.` J H S Z N % ] V.M.9.M.` 4 l r ..` D Z S D D S B # t /  .` K J H S n ",
") @.w x.#. .K H H %.XX.X} X.#.I H S Z A 9 # [ XXM.m.x.P 7 K O.G Z A 9 = Z A F N Y h...( I P J D F 2 ",
"7 f t O.P H F P Y h.S.z.h.y 1 N 2 2 2 9 r 7 m.O.O.O.O.F } w S A = & N N & y e U z.h.e e 9 F 9 A B 2 ",
"r.t.t 5 Y 4.Y U g.i.d.g.S.j 1 X @ # X 1 4 t | 2. .Y P } i.8 + + + @ @ 1 ; t.a.u.x g.y : 1 3 ; 1 7 j "
};
