/* XPM */
static char *out[] = {
/* columns rows colors chars-per-pixel */
"50 50 251 2 ",
"   c #010D12",
".  c #152B1E",
"X  c #1B381C",
"o  c #243B1F",
"O  c #081C24",
"+  c #14262B",
"@  c #193423",
"#  c #193827",
"$  c #1B3B2A",
"%  c #082A38",
"&  c #1B3C34",
"*  c #1A3839",
"=  c #242C2D",
"-  c #253D27",
";  c #233A37",
":  c #1F401D",
">  c #27471A",
",  c #2F501A",
"<  c #39591C",
"1  c #3B6419",
"2  c #1D4429",
"3  c #1A443A",
"4  c #234324",
"5  c #2B4324",
"6  c #2C4A23",
"7  c #28462A",
"8  c #354929",
"9  c #2B5326",
"0  c #385626",
"q  c #294737",
"w  c #23423B",
"e  c #364835",
"r  c #3C4D33",
"t  c #324C3C",
"y  c #275736",
"u  c #3A5538",
"i  c #3C632A",
"p  c #3C6536",
"a  c #435D1D",
"s  c #47691C",
"d  c #4F741C",
"f  c #52761C",
"g  c #617E1F",
"h  c #455C2A",
"j  c #40483A",
"k  c #455938",
"l  c #476627",
"z  c #516D29",
"x  c #4A7329",
"c  c #567827",
"v  c #486437",
"b  c #556939",
"n  c #497738",
"m  c #587736",
"M  c #63793A",
"N  c #0B3546",
"B  c #08384C",
"V  c #153A48",
"C  c #273D45",
"Z  c #194A43",
"A  c #174C55",
"S  c #254942",
"D  c #2B4B44",
"F  c #2A4847",
"G  c #334D46",
"H  c #28534A",
"J  c #3B5344",
"K  c #365846",
"L  c #34534B",
"P  c #3B554C",
"I  c #3B5B4B",
"U  c #2B4D55",
"Y  c #375951",
"T  c #3D5B51",
"R  c #3A6B4B",
"E  c #3B6756",
"W  c #094B67",
"Q  c #155468",
"!  c #055678",
"~  c #305A6C",
"^  c #186377",
"/  c #2A6C7A",
"(  c #465743",
")  c #455B45",
"_  c #4E574D",
"`  c #435B4D",
"'  c #4B5D4C",
"]  c #425C51",
"[  c #485A57",
"{  c #486446",
"}  c #4D644C",
"|  c #56664A",
" . c #477646",
".. c #5B7748",
"X. c #456254",
"o. c #4B6354",
"O. c #4B6A54",
"+. c #4C6659",
"@. c #4C6A5C",
"#. c #576755",
"$. c #526B54",
"%. c #546B5B",
"&. c #5B6D5C",
"*. c #4B7358",
"=. c #587357",
"-. c #5C715C",
";. c #646A4B",
":. c #647949",
">. c #646B57",
",. c #63735B",
"<. c #697859",
"1. c #757D59",
"2. c #4A5C60",
"3. c #556C65",
"4. c #516E6D",
"5. c #5D7363",
"6. c #567A69",
"7. c #647463",
"8. c #657A64",
"9. c #677866",
"0. c #6B7B64",
"q. c #6B7D6B",
"w. c #737C64",
"e. c #767C68",
"r. c #6A7E76",
"t. c #837D69",
"y. c #5A841C",
"u. c #628C1C",
"i. c #739F1F",
"p. c #5C8529",
"a. c #5B8734",
"s. c #648727",
"d. c #689528",
"f. c #678738",
"g. c #749732",
"h. c #78A526",
"j. c #57874B",
"k. c #588859",
"l. c #67844B",
"z. c #6E8E4D",
"x. c #768559",
"c. c #5A8C6F",
"v. c #6B836B",
"b. c #798767",
"n. c #75836C",
"m. c #7B846C",
"M. c #6E956E",
"N. c #668476",
"B. c #6C8373",
"V. c #738573",
"C. c #758976",
"Z. c #768A77",
"A. c #7C8B74",
"S. c #7C8C7A",
"D. c #7C9477",
"F. c #75A474",
"G. c #84B11A",
"H. c #8DB52D",
"J. c #82875A",
"K. c #84866A",
"L. c #8B8C6C",
"P. c #838B74",
"I. c #888974",
"U. c #8C8B74",
"Y. c #838E7A",
"T. c #968D76",
"R. c #899475",
"E. c #84927C",
"W. c #8B947C",
"Q. c #94947C",
"!. c #97967C",
"~. c #A49279",
"^. c #95A17D",
"/. c #035D83",
"(. c #03638A",
"). c #056C95",
"_. c #0C6B90",
"`. c #2D7087",
"'. c #0379AA",
"]. c #1577A2",
"[. c #5E7B85",
"{. c #278391",
"}. c #0384BA",
"|. c #1784B1",
" X c #388BAA",
".X c #3DA2A7",
"XX c #6C878D",
"oX c #5C9BA0",
"OX c #028CC7",
"+X c #0091CE",
"@X c #0399D8",
"#X c #2FA6D8",
"$X c #009EE2",
"%X c #02A5EA",
"&X c #1FB0EE",
"*X c #02ABF3",
"=X c #0BAEF4",
"-X c #00AFF9",
";X c #02B2FE",
":X c #09B5FE",
">X c #16B7FC",
",X c #2EAFE6",
"<X c #27BBFB",
"1X c #439DC3",
"2X c #55AED4",
"3X c #6CB7D7",
"4X c #47B9EA",
"5X c #64BDE3",
"6X c #38C3FE",
"7X c #53D3D3",
"8X c #48C6FC",
"9X c #59CAFB",
"0X c #63CCF9",
"qX c #73CAF1",
"wX c #6AD1FF",
"eX c #79D6FE",
"rX c #859482",
"tX c #8A9682",
"yX c #8D9A84",
"uX c #86968E",
"iX c #949B84",
"pX c #969C87",
"aX c #9B9C84",
"sX c #8C9B95",
"dX c #A79D85",
"fX c #87A182",
"gX c #98A289",
"hX c #9BA38B",
"jX c #9CA893",
"kX c #A4A48B",
"lX c #A7A78B",
"zX c #B4A98F",
"xX c #A5AC95",
"cX c #ABAD95",
"vX c #A8B196",
"bX c #ABB39C",
"nX c #B2B49C",
"mX c #B9B89C",
"MX c #809EA6",
"NX c #88ACB6",
"BX c #ACB4A0",
"VX c #B5BAA3",
"CX c #BABCA2",
"ZX c #A4BBB3",
"AX c #C1B69C",
"SX c #AEC9BD",
"DX c #C3C1AA",
"FX c #9ABDC5",
"GX c #ACCCD0",
"HX c #83DAFF",
"JX c #B3DAE4",
/* pixels */
"s 0 h j - 8 - 5 7 > 6 8 - o 8 - o , > 8 5 J (.N f G.u.s > > > 6 8 r 5 o 5 8 7 - 0 , , > 1 9 : # : 1 ",
"..T.T.T.T.L.e.r E h P.t.w.>.>.9.>.- h 1.7.V $X).:.i.d <.u < b P.K.b.<.( P.n.e.7.&.> 6 v k | } I 7 , ",
"t.lXdXlXlXcXpX' l M dXdX~.T.U.t.e.e j Q.2./.-X@X; >.<.yXV.8 n.Q.R.K.w.<.tXA.m.m.9.q { v.$.v.&.O.I & ",
"e.zXzXmXcXcXaX' b ;.dXdX!.!.T.I.t.j ( Y.C $X-X*X% 9.V.A.v.8 -.P.b.L.P.A.0.e.e.q.7.7 6.z.yX$.@.` t 2 ",
"<.!.nXVXnXvXpX| c b dXdXI.I.K.>.j e | P.B -X-X:XOX[ ( 7.P 4 - ' W.P.m.m.,.0.7.7.o.- n C.0.-.O.G Z y ",
";.I.nXBXbXvXhX,.f g 8 - ; 8 8 0 8 0 k 0.B =X<X8X&X% q.A.v.8 { tXA.m.n.0.#.#.<.b.t 7 l.=.+.X.` w &  .",
"| nXbXBXxXxXjXo.m mXmXmXAXCXVXvX1.m ..b.F 4X0XwX9X1XC e.9.q #.n.q.0.0.7.n.q.7.3.o.6 p.D.} J K *.j.z.",
"_ Y.tXyXS.9.' e b DXCXCXmXmXVXVX#.z b n.[ 2XHXHXeXwXQ 3.5.D J q.0.8.5.8.0.7.&.#.o.- z z.z.:...p.s.i.",
"a , 8 8 o 8 a a M CXmXCXVXVXVXbX&.l | q._  XeXwX0XeX&X* 4.H & D X.I t #.( ( P L D $ <.cXaXQ.P.#...f.",
"f J.t.t.t.K.t.M M mXnXCXBXVXVXbX} v ( ' [ 4.0X8X8X8X9X XF 7 # $ $ # X - @ . @ # 3 6 w.bXkXaXtXS.S.u ",
"M AX~.~.~.T.t.;.b bXbXbXBXbXBXxX( l :.k 3.~ 4X>X;X:X:X&XV ..M ..v h s s h h h h < s b.gXgXpXtXC.3.t ",
";.AXzX~.~.~.t.j k xXgXhXpXxXxXrXt l g.g.yXB =X:X;X;X;X;XW jXlXmXzX>.a J.zXdX~.dX_ s <.pXgXrXE.Z.C.q ",
"b dX~.T.aXt.t.r 8 ( j | ' ( r t y l CXzXzXU =X<X6X>X:X-X! pXnXcXhX&.8 ;.dXt.t.t.| 8 ;.yXtXC.S.Z.B.t ",
"( dXT.aXtXI.w.j a l k k r j e , < z DXDXGX[.4X0XwX9X<X=XW sXvXjXpXiX8 ;.~.T.T.t.| a k ( J o.o.P T 7 ",
"j t.U.t.I.t.#.j b nXnXzXaXvXaX&.< b VXVXJXXX XHXHXeX5X'.C sXjXpXE.A.; ;.~.T.I.t.>.a d h r 8 8 8 9 i ",
", e _ #.#._ e - b zXlXlXcXlXhXx.a z nXGXJXoXC 0XqX3X/ F uXyXV.V.q.,.- >.aXT.Y.P.>.8 x.cXaXI.w.0.0.q ",
"f z h v h b l d M R.Q.cXvXjXkXM.s h BXGXGXNXO #X`.+ = [.uXsX#.tXrXB.7 >.pXrXY.Y.&.0 w.I.t.e.&.7.&.q ",
"c ~.AXlXlXkXI.l | ( BXvXxXgX!.V.8 ( MXU C =   O   O N * = ; _ r.+.q 7 r _ #.&.) J k w.t.e.>.j #.' w ",
"1.DXdX!.!.T.,.r K.kXA.jXhXfXtXS.; XXU 2X4X,XW   O $X<X9XqX5X~ = - > < f a < a l v :.>.w.>.&.7.%.P + ",
">.lXaXaXyXW.8.r yXkXhXrXgXrX8.t t ; 2XwX4X<X'.O $X-X4XwXHXeX0X~ 5.L.>.a L.cX!.Q.b.l | ,.&.9.+.X.K Z ",
";.hXpXyX!.D.-.{ O.,.J - 5.K K q [ C 0XeXwX4XW A %X6XwXeXwXeX6X@XV P.9.- dXaXyXW.Z.0 0 t q q & * * Z ",
"| w.iXrXXXZ.%.k =.I e 1 0 7 y k 3.^ 5XeXqX`.~ ].).<XwXHX0X<X:X=XQ 7.' o pXyXtXY.%.h f < > X X > > < ",
"h ( &.-.<.5.I l g.g.z.s.x z M b.G /. X1X`.W %X+X% 8XeXHX9X>X:X<X].2.J . rXW.E.S.$.u x l.h v :.:.:.a.",
"d l f s d.m l.d.H.G.z.z.l.L.mXjX+ O B W OX=X=X$XO 1XqXwX6X:X<X0X3X= t X S.Y.S.v.z c z.:.A.-.E.U.A.8.",
"b kXL.p.z.f.f.f.H.h.^.lXgX<.lXhX6.! $X*X-X;X;X;X+XN Q 1X@X#X,X5X3XC F o k ( k z s.d.L.yXW.,.A.E.Y.,.",
"0.iXW.R.m xXvXD.l lXlXhXgXn.#.gX3.}.;X;X-X*X-X;X-X$X}.(.W % % N V % ( b c z c s.s.u.v.E.S.tXD.V.B.-.",
"| E.n.{ -.jX^.{ v.vXgXgXx.n.Q.R.3.'.;X*X|.^ ^ }.;X;X-X%X_./.OXOX'.+ = sXkXiXQ.W.P.<.k %.7.rXC.B.v.} ",
"r S.A.n.u k v.R.0.Z.x.D.<.gX!.!.r.).-X$X/ 7X7X^ *X;X-X! .X.X_.*X+XU uXjXaXgXE.S.n.&.*.O.5.Z.v.v.N.I ",
"q ] I t - ,.iXU.b.b.vXlXlXR.Q.R.[./.*XOX.X7X.X.X*X;X*X/ .X7X{.%X].4.ZXgXyXrXS.V.V.o.h z.:.=.-.*.X.v ",
"h , 0 k c x.P.P.n.vXvXxXjXiXR.m.9.B %X'.^ `.^ Q *X6X4XA V Q ^ @XB MXjXuXrXD.V.v.$.t s u.g.z.l.f.a.p.",
"b kXT.R.R.b b.e.| } gXhXgXE.A.n.e.; OX*X*X%X@X+X;XwXeX,X%X%X%X'.; FX+.%.5.%.} X.u 0 M lXhXW.P.Y.jX) ",
"| Q.U.aXm.k 0.0.Y.E.=.rXrXD.V.8.&.[.W %X;X;X;X;X;X8X2X/.OX-X@X% NXM.< a x h.H.y.y.f W.yXW.P.A.r.V.G ",
"w.aXm.>.o.0 r C.n.q.0.} V.v.v.%.G q F ! *X:X=X'.! B % ).-X$XB [.JXBXW.R.b.:.b.x.*.l n.E.Y.C.V.q.B.L ",
"<.I.P.P.<.8 0 5.q.8.%.` ` K ; $ X > z [ A 1X4X)././.+X%X'.B XXGXsXE.n.v.0.&.E.-.X.5 9.E.A.C.B.B.B.H ",
">.P.A.A.0.r s K %.O.G q . @ o u :.l.x.:.7.4.~ `./././.W 2.FXGX] 9.w.0.7.-.` J @.` - 3.Z.Z.B.N.B.D.Y ",
",.A.Z.V.-.h m 9 & & @ X , h W.kXiXiXW.rXk | uX3.[.[.[.FXFXXXL ; X.9.-.$.X.5.} X.K @ t ] @.+.+.K w H ",
"' 7.B.v...p.u.f 6 6 h d u.z.cXQ.W.Y.A.q.8 | P.7.7.3.5.3.3.%.D @ J +.$.q.%.+.R X.S @ , < u e e 7 - 2 ",
"0 e u v m g L.^.gXiXQ.<.c :.tXY.S.C.V.8.- { q.5.>.#.( +.+.[ P $ 6 K 6.+.X.T E H S 2 n ..0.%.X.X.L 6 ",
">.jXW.E.D.v aXaX!.iXiXpX8 b E.S.C.B.N.8.e k 5.#.[ [ ` ; Y L H 3 n R O.3.T Y H Z 3 y ..{ +.o.T L H & ",
"v.W.n.q.&.u iXW.W.E.rXZ.- { Z.V.B.B.N.%.u 0 T X.[ P G F & S H H M.XX*.E L Y H Z R a.j.$.] T L F S & ",
"R 8.5.%.` u tXE.E.S.V.B.- 8 @.O.%.%.@.T 9 v Z Y I H H 3 # 9 3 y j.M.M.6.E R p k.XXa.*.@.q S H S y 9 ",
"4 I I I { { D.Z.S.S.N.r.- s , - - 7 - - 1 x # 3 3 A 3 3 y i i n d.F.k.a.a.d.h.x c.k.p 4 , 0 2 y i d.",
"s c l.c p.c Z.C.B.B.v.N.$ :.gXW.Y.n.8.8.O.0 n 9 2 2 9 x y.c ^.R.R.=.E.E.D.k.=.$.R 9 x f.f.p.x z c y.",
",.yXhXY.v l q.6.@.N.6.Y & m.m.0.&.%.o.[ ` 7 =.l.b.b.v.v d v.Y.w.<.{ 0.8.&.o.] I H 2 ,.C.n.<.V.B.6.t ",
",.pXn.7.{ < - w w R E 3 3 <.w.&.#.' ] Y L $ | Y.D.A.V.O.0 ) 7.,.&.&.| %.] ` L G H # &.q.q.&.+.[ ] ; ",
"' A.7.&.J 8.v x c.H R n x ) 9.o.] ] L L F # } S.V.V.B.@.6 8 -.$.+.X.t P P P L F Z 7 #.8.%.X.] I L ; ",
"( ' &.o.8.%.X.{  .k.SXM.n | %.] P L D F S & ) S.B.v.B.T 6 { u O.] G D D G F S Z $ p ) o.] ] P L H 3 ",
") $.t v.3.X.T L K *.XXoX .O.%.T L D F F & # O.Z.B.r.N.T 9 K @.I F S w w H S H Z E k.] ` T Y L G H 3 ",
"0 u p @.Y L H Y E k.F.c.k.p 2 3 Z 3 3 q p 9 N.@.@.%.@.H { t S q ; ; Z Z * y y p c.k.y y 3 D q S H 3 ",
"y.y.i 7 E 6.@.R j.a.d.j.F.x : 2 # # X $ 4 l =.4.E E T  .p.i # + @ # # $ 2 u.d.d.n j.p 9 2 9 X 2 9 i "
};
