/* XPM */
static char *out[] = {
/* columns rows colors chars-per-pixel */
"64 64 254 2 ",
"   c #10140E",
".  c #0F1312",
"X  c #121614",
"o  c #141A15",
"O  c #1D1B16",
"+  c #11151C",
"@  c #161C1D",
"#  c #1A1E1D",
"$  c #221E19",
"%  c #1B231C",
"&  c #1C2A1A",
"*  c #1E3412",
"=  c #28251B",
"-  c #222B1B",
";  c #362619",
":  c #2D3515",
">  c #26381B",
",  c #0F122B",
"<  c #121523",
"1  c #161B22",
"2  c #191E22",
"3  c #16172B",
"4  c #191938",
"5  c #211E2A",
"6  c #1C2224",
"7  c #1E2921",
"8  c #1E2529",
"9  c #1C2338",
"0  c #232623",
"q  c #20272A",
"w  c #22292C",
"e  c #2A3626",
"r  c #2D312E",
"t  c #363825",
"y  c #252833",
"u  c #373736",
"i  c #582D15",
"p  c #5B371B",
"a  c #673618",
"s  c #753E14",
"d  c #473628",
"f  c #5B3828",
"g  c #513D32",
"h  c #683925",
"j  c #2A4A18",
"k  c #2F5416",
"l  c #335517",
"z  c #347007",
"x  c #396A16",
"c  c #3E7613",
"v  c #32412A",
"b  c #39482A",
"n  c #3B5726",
"m  c #3E6E21",
"M  c #524C17",
"N  c #7C4314",
"B  c #774719",
"V  c #6E5318",
"C  c #44671B",
"Z  c #566911",
"A  c #47751A",
"S  c #547A17",
"D  c #676519",
"F  c #717218",
"G  c #47462B",
"H  c #43572A",
"J  c #544D30",
"K  c #465933",
"L  c #6D4C2E",
"P  c #744937",
"I  c #68583A",
"U  c #765238",
"Y  c #486528",
"T  c #4A7729",
"R  c #567929",
"E  c #4D6435",
"W  c #4E6B36",
"Q  c #516C31",
"!  c #546938",
"~  c #587838",
"^  c #666839",
"/  c #7B6936",
"(  c #667430",
")  c #191C45",
"_  c #211C49",
"`  c #231F55",
"'  c #1B2352",
"]  c #2B2C4B",
"[  c #38354A",
"{  c #272859",
"}  c #3A3855",
"|  c #282B69",
" . c #2E346B",
".. c #363969",
"X. c #2A2D73",
"o. c #2B3374",
"O. c #2C317B",
"+. c #333A75",
"@. c #563E47",
"#. c #366C4C",
"$. c #3A4672",
"%. c #2F6C6E",
"&. c #4D504D",
"*. c #5A5858",
"=. c #715348",
"-. c #635858",
";. c #556749",
":. c #5D7742",
">. c #547056",
",. c #666744",
"<. c #766948",
"1. c #667343",
"2. c #627E42",
"3. c #76764A",
"4. c #717A58",
"5. c #6B6E74",
"6. c #874B15",
"7. c #865419",
"8. c #965A18",
"9. c #896D1B",
"0. c #97671C",
"q. c #A6681B",
"w. c #AB731D",
"e. c #B4761E",
"r. c #855627",
"t. c #885D31",
"y. c #8D7131",
"u. c #A97326",
"i. c #AA722A",
"p. c #B77B22",
"a. c #C17F1F",
"s. c #845A46",
"d. c #886646",
"f. c #8A6754",
"g. c #8F7150",
"h. c #AB7B5E",
"j. c #827F7E",
"k. c #A97C63",
"l. c #318E06",
"z. c #3B8908",
"x. c #359500",
"c. c #3B9601",
"v. c #369A00",
"b. c #3D9A00",
"n. c #3D9509",
"m. c #3EA000",
"M. c #45890B",
"N. c #588C0B",
"B. c #439405",
"V. c #439D00",
"C. c #499E02",
"Z. c #46970A",
"A. c #4B940A",
"S. c #4C9B0B",
"D. c #55990A",
"F. c #488916",
"G. c #548617",
"H. c #4D9715",
"J. c #569816",
"K. c #539B1B",
"L. c #688718",
"P. c #68901B",
"I. c #45A100",
"U. c #4BA401",
"Y. c #4DA801",
"T. c #4DA109",
"R. c #51A602",
"E. c #53A901",
"W. c #5AAC02",
"Q. c #56A20B",
"!. c #56A116",
"~. c #4C8626",
"^. c #568628",
"/. c #599824",
"(. c #5A932B",
"). c #5C8836",
"_. c #5E9531",
"`. c #658927",
"'. c #708E2B",
"]. c #61883B",
"[. c #649238",
"{. c #28817A",
"}. c #658344",
"|. c #698646",
" X c #668A41",
".X c #6B8946",
"XX c #708947",
"oX c #66816D",
"OX c #9A801F",
"+X c #8F8931",
"@X c #BD8225",
"#X c #B49033",
"$X c #C68926",
"%X c #CE942C",
"&X c #D69828",
"*X c #C78C33",
"=X c #C99535",
"-X c #D49B35",
";X c #DEA12D",
":X c #CAA23E",
">X c #DBA437",
",X c #E3AA38",
"<X c #E6AE38",
"1X c #918548",
"2X c #AA8C4D",
"3X c #988768",
"4X c #958A76",
"5X c #A98669",
"6X c #AF8E71",
"7X c #B68B73",
"8X c #B6A274",
"9X c #CA9949",
"0X c #D6A643",
"qX c #D4AD53",
"wX c #E8B746",
"eX c #E3B350",
"rX c #C59A75",
"tX c #C9A968",
"yX c #D5B070",
"uX c #E5B670",
"iX c #EEC352",
"pX c #F3C957",
"aX c #E6C060",
"sX c #2E3685",
"dX c #30378A",
"fX c #333D98",
"gX c #3E5498",
"hX c #6D7489",
"jX c #485FA1",
"kX c #506CAF",
"lX c #2D8D95",
"zX c #238E9F",
"xX c #658D9C",
"cX c #8E908D",
"vX c #A59886",
"bX c #AF9E8F",
"nX c #99A09E",
"mX c #AFA18F",
"MX c #AAA393",
"NX c #B4B7AC",
"BX c #D6AA8C",
"VX c #D0AD8F",
"CX c #D5B986",
"ZX c #D6AF93",
"AX c #E3B78F",
"SX c #C8BDA1",
"DX c #C0BFB9",
"FX c #D8C38E",
"GX c #E7C68C",
"HX c #CBC2A8",
"JX c #D0C5B1",
"KX c #EACDB0",
"LX c #D7D2C6",
"PX c #E5D8C9",
/* pixels */
"R.R.Y.Y.U.R.E.E.R.I.C.C.C.C.U.U.V.b.b.m.I.I.R.Q.D.J.G.`.+X+X1XXX+X1X+X+X/.!.W.Q.c.c.U.R.V.c.b.b.x.x.l.x.b.V.c.b.Y.Y.I.V.x.x.I.U.",
"Y.Y.I.U.Y.U.R.R.U.I.V.V.V.I.I.V.V.b.b.b.m.I.R.Q.N.P.'.'.+X+X2X2X2X2X+X+X+XP.P.J.F.M.C.C.V.V.b.b.x.x.x.c.V.V.b.V.U.Y.V.b.c.b.I.I.",
"I.I.m.b.U.Y.V.V.V.V.V.V.V.V.V.b.b.b.b.V.m.V.R.N.F 9.9.#X#XqXqXtXaX:X:X#XOXu.9.F R G.D.C.C.C.c.x.x.c.B.V.V.V.I.I.Y.R.V.V.v.b.I.I.",
"I.m.b.I.U.I.V.b.c.b.V.V.V.V.c.c.b.b.I.V.C.A.J.L.F 0.e.%X>XwXpXiXiXwX:X:X$Xu.0.F D R G.A.C.R.b.x.x.c.V.C.I.I.b.b.I.U.V.V.b.b.b.I.",
"I.I.Y.Y.U.U.C.V.V.V.I.I.V.V.c.c.b.I.U.Q.J.L.F F 9.q.@X&X<XwXeXqXeX>X&X$Xp.q.0.B B M H C A.C.x.x.x.b.V.C.V.V.b.b.b.m.b.V.V.m.b.V.",
"I.U.E.W.U.C.I.C.V.V.I.V.V.V.V.V.I.U.R.!.P.'.OX9.w.@X&X;X>X>X>X>X>X&X$X@X@Xu.q.0.6.M M C G.Z.b.x.x.b.V.C.V.V.b.b.b.b.I.V.I.b.b.c.",
"Y.Y.W.E.V.V.V.C.I.V.b.v.c.b.V.V.I.T.!./.+XOX#X:X-X>X>X>X;X&X%X$X&X&X$X$X%X-X$X@X0.7.V V S H.B.c.c.V.I.U.I.V.I.U.U.I.V.V.b.b.b.c.",
"Y.E.E.R.V.b.V.V.I.I.b.c.c.c.c.V.V.D.J.P.#X#XqXwXiXwX<X<X;X&X$X$X&X&X$X%X,X<X,X:X*Xi.8.V D S A.V.b.V.Y.R.U.I.E.E.Y.U.I.b.b.b.x.c.",
"U.U.E.R.V.V.B.V.I.I.I.V.b.c.c.V.D.N.Z 9.#X<XiXpXpXpXwX<X<X&X&X&X&X&X&X;XwXwXpXwXwX-Xa.q.V Z N.E.C.V.I.Y.Y.E.W.W.E.Y.V.B.b.x.x.x.",
"V.C.R.R.C.b.c.V.U.Y.R.I.V.V.V.B.D.N.F q.=XwXiXpXpXpXwX,X;X&X&X%X&X&X&X;XwXwXpXwXwX<X-Xp.V V L.Q.C.V.U.Y.E.W.W.W.R.U.C.V.V.c.x.x.",
"c.C.E.E.V.V.c.V.Y.E.W.E.Y.C.V.B.D.L.9.w.&X,X<XwXwXwX-X&X$X$Xp.p.@X@X$X&X>XeX,X,X<X;X&Xa.0.7.F N.D.I.Y.E.Y.Y.R.R.U.U.R.E.U.I.v.x.",
"c.V.E.E.C.V.V.C.R.W.W.E.R.C.C.A.N.F 0.w.%X;X&X;X>X&X$Xa.u.w.i.i.w.q.w.e.%X;X*X$X&X&X&X$Xw.0.F N.D.I.R.R.I.I.U.I.V.C.E.E.Y.I.b.x.",
"V.V.I.Y.U.U.Y.U.E.E.R.Y.I.C.U.D.S F 8.q.e.@Xa.e.$X$Xe.q.8.r.s.t./ B 7.0.$X*Xe.e.a.&X$X$Xe.0.D Z B.C.U.U.V.V.C.V.b.b.U.Y.b.c.V.V.",
"V.V.V.V.U.R.R.Y.U.U.I.I.V.I.Y.D.S D 6.8.q.q.q.q.w.w.q.7.P h f.h.t.U h r.p.a.q.q.q.a.a.e.q.8.D Z M.C.I.I.b.b.C.V.c.c.C.C.c.c.V.V.",
"U.I.U.I.V.I.I.C.V.V.V.I.b.I.R.D.Z D N 6.8.8.6.6.8.8.8.6.s s.k.vX5Xg.U B 8.e.q.8.8.8.q.8.8.6.D Z A.I.V.b.c.b.I.U.c.x.c.V.V.V.B.V.",
"C.U.Y.I.V.V.C.V.V.c.b.m.b.I.E.D.S Z V s s s s N N N N s h s.7XBXrX5XU L 7.8.8.8.6.N N N N V Z S D.I.b.v.x.b.Y.I.V.B.B.V.C.V.V.B.",
"V.V.I.I.b.b.V.I.V.b.b.b.V.I.Y.T.N.Z M i i i s a i a a h h s.7XBXBX7Xs.h s N 6.N a i f i i M Z M.I.U.b.b.x.b.I.U.U.I.U.C.I.I.I.I.",
"V.V.I.V.c.c.V.Y.I.b.b.b.b.I.Y.U.C.S p i i a a a i i a h h s.BXZXBX7Xf.P h a a h a h f f i M A A.Y.U.b.c.b.b.I.U.U.Y.I.I.I.I.I.I.",
"C.C.I.V.x.c.I.R.I.I.V.V.V.V.U.U.A.S H J P U L L f d f h f.k.BXZXZXBXk.f.P h f g h =.=.P J Z M.A.U.Y.V.b.V.I.b.V.C.C.V.b.V.V.I.C.",
"U.U.I.C.c.b.C.Y.I.V.b.V.b.b.I.U.A.S Q =.<.g.d.3.-.-.@.=.vXbXZXZXBXBXbX4Xs.@.&.-.f.f.f.f.^ D F.V.U.Y.V.V.V.I.I.V.V.V.b.V.I.I.V.I.",
"R.R.E.Y.V.V.U.U.I.b.b.c.x.x.b.V.B.G.R 3.5X6X5Xk.cX5.*.5.nXJXKXGXBXZXDXnX-.*.hXcXk.7X7Xk.4.~ F.n.C.I.V.V.c.b.I.I.b.I.I.I.Y.Y.I.U.",
"Y.R.R.Y.I.I.I.I.b.c.b.c.x.c.b.V.V.F.).3.3X6Xk.6XbXvX5.5.NXLXPXKXAXZXDXNX5.5.cXMXk.7X5X3X|.^.M.b.V.C.C.V.c.c.V.I.b.b.I.U.E.Y.U.I.",
"V.C.I.V.b.m.b.b.b.V.B.c.c.B.I.R.C.H.^.~ ,.-.f.h.bXbX5.cXDXLXPXPXAXKXPXDXcXj.nXbXk.f.=.,.).~.z.l.c.b.V.V.B.b.V.C.m.b.I.I.Y.U.I.b.",
"V.V.b.b.b.b.b.b.V.V.b.V.b.V.R.R.A.M.A H b g h f.7XVXvXMXJXPXKXKXAXAXKXDXbXvXbX6Xf.P G G n T z.l.x.c.V.V.V.V.V.V.b.I.I.I.Y.U.I.b.",
"V.V.I.b.x.x.b.c.B.b.c.V.I.Y.U.A.z.x j 0 % = d =.h.rXBXCXCXAXGXGXAXuXAXAXBXBX7Xh.P d = = - j m z.z.n.V.V.V.I.I.I.I.I.I.U.Y.U.I.b.",
"V.V.m.b.b.b.b.b.V.B.B.V.Y.R.C.M.x j & o X O ; h s.h.yXuXuXeXeXuXuXeXeXuXuXrXh.s.f ; $ X % - k x M.B.V.I.b.b.b.V.I.U.I.Y.R.I.m.m.",
"V.I.m.b.I.I.V.I.V.V.V.V.I.T.A.c j & & % @ # O ; f t.2X9X0X-X-X2Xa.9X9X0X*Xh.8.h t = # @ o % & j x M.B.b.b.b.b.b.b.I.U.E.E.Y.I.m.",
"b.b.b.I.I.I.m.b.V.V.B.V.V.B.M.x * o @ 6 6 2 @ % ; L t.p.*X*X*X*Xa.*Xa.a.i.6.h ; = % 6 2 % % o * k c n.I.I.b.b.c.b.b.I.R.W.E.U.I.",
"V.V.V.C.U.I.b.v.V.C.b.V.V.B.c k * 6 6 6 8 8 8 7 $ ; a 7.i.*X=X-X-X*X@Xu.6.p ; 2 6 8 8 8 6 6 % & j x B.I.I.I.b.c.V.I.V.V.E.E.Y.I.",
"V.V.C.U.R.I.v.v.V.C.V.B.A.M.l j 7 6 6 8 8 8 8 8 O $ ; p r.i.=X:X0X=Xi.7.a ; $ 3 8 8 q q 8 6 6 7 - k B.U.I.V.b.b.V.V.b.b.U.E.R.Y.",
"Y.Y.Y.R.C.V.v.b.Y.R.V.C.H.F.j - 6 6 8 8 8 8 w 8 6 0 $ ; p t.2X9X9X2Xr.p ; O 5 5 w w 8 8 8 8 6 6 % j c Z.c.x.c.b.V.V.b.b.V.I.U.R.",
"R.R.U.C.V.V.x.b.U.E.U.A.F.Y > % 6 6 6 8 8 8 8 w q 6 1 0 d U h.rXtX5XI d $ 1 6 q w w 8 6 8 8 8 6 % > x z.n.x.x.c.b.V.c.c.V.I.U.U.",
"E.R.V.V.V.b.x.c.I.R.C.A.A k - 1 1 6 6 6 6 6 8 9 6 3 9 9 u -.6XVXVX4X*.r 9 4 6 6 8 w 8 6 8 6 6 6 % - k c z.b.c.c.b.c.c.V.U.R.I.C.",
"R.I.V.b.V.b.x.c.V.C.C.z k > @ + < 6 6 6 6 6 6 6 < , ' { [ *.vXSXHXMX*.u ] ) 3 6 8 8 6 6 8 6 2 2 @ % : k z x.c.c.c.b.V.V.I.U.V.V.",
"Y.I.v.v.b.b.x.c.V.B.z.z *     X @ 6 6 6 @ @ 6 @ < 4 { | @.*.vXSXHXMX*.[ | { 4 1 2 8 6 6 6 6 2 @ o o o * z z.c.b.b.V.I.I.c.x.V.V.",
"R.I.v.v.b.v.x.x.V.c.z.z j o o o % % 6 6 @ @ @ < < 4 | O.} -.vXSXHXMX*.[ o.| 4 < 1 1 @ 2 1 # 6 % o   o * z z.c.V.V.V.U.V.x.x.b.V.",
"W.Y.V.b.b.b.x.x.b.b.B.z.l : = = 0 ; # X + + + < , ) X.o.} -.vXSXHXmX-.} +.X.) , < + + X X # ; e = - > l A V.I.I.C.V.V.V.V.V.V.I.",
"E.I.b.b.V.V.b.v.b.V.C.M.Z G t d J G = o % 6 < , ) ' o.+.} -.vXSXHXMX-.} $.o.' , , < # O o = G J G t H x M.I.I.I.V.V.c.b.V.I.C.V.",
"V.b.x.x.I.I.V.V.I.U.E.D.R Y ! ,.1Xd.d = e e , ) ' o.sXo.} -.vXSXHXMX-.} $.O.| ' 3 1 e t $ d g.1Xt.D H C M.V.m.b.V.V.B.c.b.b.V.B.",
"c.c.c.b.V.V.V.C.I.R.E.D.S Q ,.|.4X3XI d b v 9 ' O.sXsX+.@.-.vXSXHXMX*.} o.sXO.' ) 5 u G g I 2XtX2X/ J C M.b.b.I.I.V.V.c.c.c.V.V.",
"x.b.C.I.V.V.V.V.U.R.U.A.S ! >.oXcXcX3X3.K u { | sXfXsX+.[ *.vXSXHXMX*.[  .O.O.X.` ] d J <.6XCXFXtX+X^ x z.b.I.I.Y.C.b.c.V.V.U.U.",
"b.V.U.Y.C.V.B.V.U.U.C.A.T W oX{.xXxX4X3X,.&.} o.dXdXsX+.[ *.cXNXSXnX*.]  .sXsXO.X.{ u =.1X8XFXFXtX1X^ Y z.b.V.U.R.R.V.V.C.U.R.R.",
"V.I.Y.Y.E.R.U.I.I.I.I.A.A ;.{.zXzXxXoX3.:.;.} o.dXfXdXo.` @.xXnXnXhX&.] X.dXdXdXX.} &.:.4.3XFXGXtX2X^ x z.c.b.V.E.E.I.C.Y.R.U.Y.",
"R.Y.U.R.E.R.U.C.V.V.U.S.S #.{.zXzXlXXX3.1.;...sXdXfXdXX.` ..hXnXxXhX} ] X.dXfXfXX...;.1.2.1XCXuXtX+X( A B.n.b.n.R.E.U.C.U.Y.U.C.",
"W.E.R.U.I.C.V.V.b.V.U.S.Z.#.%.%.{.oXXXg.^ >.$.dXfXfXfXO.X.$.kXxXkXjX+. .o.sXfXfXsX+.*.<./ 1XtXyXh.y.L.H.T.b.v.c.V.V.V.b.V.C.I.C.",
"E.E.E.Y.V.V.c.c.b.V.U.T.H.~.#.#.>.4.d./ ! &.+.dXfXfXsX| X.sXgXjXjXgX+.| | O.fXfXdX..&.U / y.2X2Xy.'.P.J.Y.I.v.v.c.c.c.b.V.V.C.I.",
"U.Y.E.E.b.b.c.c.V.I.I.C.C.F.T ;.>.1.^ L g [ ..dXfXdX| ' |  .$.$.$.$. .| { | sXfXsX .[ g L / / +X'.P.J.E.U.I.v.v.V.V.V.V.V.C.U.U.",
"I.I.Y.U.V.c.x.v.I.T.V.V.V.Z.F.).~ ( ( J t 9 { X.O. .) ) ] } $.&.*.&.} { _ _ | O.X.{ y r J ( ( ( `.J.T.Y.Y.I.b.v.V.V.V.C.I.U.I.I.",
"I.I.m.m.V.b.v.v.I.U.V.B.V.C.Z.F.(.(.^.Y ; 3 4 _ ` _ 3 5 u &.;.;.;.;.&.u 5 3 _ ` ` 4 3 - H R ^.^.N.D.T.U.V.V.b.V.I.U.I.Y.Y.U.I.b.",
"I.I.V.m.I.b.v.v.I.I.V.V.V.V.b.S.K.(.`.C - + 3 4 4 4 X $ b E ! 2.2.:.K b $ < 3 4 4 3 + & n T ^.H.S.C.U.I.B.V.V.V.U.U.U.U.I.I.m.b.",
"V.I.U.U.V.b.b.v.b.b.V.V.V.I.Z.S.K.(.T n - < < 3 2 3 X = K :.2.}.|.2.~ K = + 1 3 < < X & n T ^./.H.C.U.C.V.c.V.V.U.Y.Y.I.b.m.I.I.",
"b.I.Y.Y.I.b.b.b.b.V.b.V.C.S.S.H.(.).W n 7 < < + @ o   - K 2.2.|..X|.}.E % . o + + + X & b Y ).(.J.S.U.C.B.c.V.I.R.E.U.V.b.b.I.U.",
"b.I.E.E.V.V.b.I.I.I.m.b.C.S.K.(.).~ K j 7 @ 1 @ X X   % K 2.}.|..X|.}.E &   . X O + X = b Y ~ ).(.K.S.V.b.b.I.E.W.W.U.I.I.Y.I.Y.",
"b.I.Y.R.V.c.I.I.Y.Y.I.I.S.K.(.).).:.n e & 1 1 @ X X   - K 2.2.].|..X}.W -     X 2 2 o O > n W }.[._.K.S.n.b.U.E.W.E.U.I.Y.Y.Y.I.",
"I.C.I.V.c.b.I.Y.E.E.U.I.H./.].].:.E j & % 2 6 2 @ o . - K 2.}.}.|.}.}.W - X o @ 2 6 2 # 7 v W ). X[.(.!.n.b.U.E.I.I.I.U.U.U.I.I.",
"I.I.V.V.c.b.m.U.Y.Y.U.T.K.(.].2.:.n e @ 6 6 6 6 2 o X - E 2.}.}.|.}.}.E - X @ 1 6 6 6 % 1 e n :.}.[._.!.n.b.U.Y.I.C.U.U.U.I.I.m.",
"E.E.I.V.V.b.v.m.I.Y.I.T.K.(.).}.E b r w w 8 6 % 1 @ o > E }.}.}.}.}.2.! - o @ 6 1 6 8 w 7 e b ;. X[._.!.Z.b.E.E.E.R.R.Y.I.C.V.B.",
"E.R.V.V.I.I.v.v.m.I.I.T.H./.).~ K e y w w w 6 1 % % o e E :.}.|.}.}.2.E > O % 1 @ 6 8 w 9 e v n ).[./.!.I.I.E.E.R.R.R.Y.U.C.V.c.",
"U.C.V.c.V.V.V.b.m.Y.E.W.S.H._.).n e r r w 8 6 @ 1 % 6 t W :..X|.}.}.2.! t % # 1 @ 6 8 w r r v n ~ _.!.T.m.I.E.W.R.R.Y.Y.U.I.V.c.",
"C.C.b.V.C.I.I.V.I.Y.E.W.R.S./.~.m v r w w 7 6 @ 1 7 e b :.}..X.X}.}.2.;.b e % 6 % 6 8 8 y v v n ^.!.!.U.b.b.Y.R.U.I.I.U.R.I.B.c.",
"I.U.I.V.I.I.I.V.V.V.U.R.R.T.!.J.T n e & % @ @ @ @ w n ! 2.|..XXX|.|.2.:.! H e # @ @ % % 6 w n T H.S.S.I.v.b.I.Y.V.V.I.U.E.U.B.x.",
"I.I.I.I.I.I.V.b.V.V.V.V.T.T.R.H.F.c k > > j > j e b ;.2.|..XXX.X|.|.}.2.].Q b e j > > > > j m ~.H.Z.C.V.v.v.m.V.V.b.m.I.E.Y.B.x.",
"b.b.I.I.m.b.b.c.x.b.b.b.n.V.I.V.Z.F.F.T T T T T W W ].|.XXXX|.|.|.|.|.}.}.].^.T T T T T c c z.n.x.x.x.l.v.v.x.b.c.B.b.V.I.U.V.V.",
"c.b.m.m.b.b.x.x.x.x.x.x.c.b.I.I.m.Z.H././._.[.[.].}..X.XXXXXXX|.|.|.|.}.}.|.[._._._._.(.~.n.z.x.x.l.l.l.l.v.x.x.c.b.b.V.I.Y.U.Y."
};
