/* XPM */
static char *out[] = {
/* columns rows colors chars-per-pixel */
"50 50 252 2 ",
"   c #060A0C",
".  c #081317",
"X  c #152B1E",
"o  c #1B391D",
"O  c #243B1F",
"+  c #0B1D25",
"@  c #152428",
"#  c #193423",
"$  c #193727",
"%  c #1B3B2A",
"&  c #0A2732",
"*  c #172D36",
"=  c #1B3C33",
"-  c #193839",
";  c #253D27",
":  c #233D37",
">  c #1F401D",
",  c #27471A",
"<  c #2F501A",
"1  c #39581B",
"2  c #3C641A",
"3  c #1D4429",
"4  c #1A443A",
"5  c #234324",
"6  c #2C4A23",
"7  c #294528",
"8  c #344929",
"9  c #2B5326",
"0  c #385527",
"q  c #23433B",
"w  c #2A4738",
"e  c #364835",
"r  c #3C4D33",
"t  c #324B3C",
"y  c #275736",
"u  c #3A5538",
"i  c #3C632A",
"p  c #3C6735",
"a  c #435D1D",
"s  c #47691C",
"d  c #4F741C",
"f  c #52761C",
"g  c #617E1F",
"h  c #455C2A",
"j  c #40483A",
"k  c #455839",
"l  c #476627",
"z  c #526D27",
"x  c #4A7329",
"c  c #577827",
"v  c #486438",
"b  c #556939",
"n  c #497738",
"m  c #587736",
"M  c #63793A",
"N  c #08364A",
"B  c #173946",
"V  c #0A3E54",
"C  c #243D46",
"Z  c #313F43",
"A  c #194A43",
"S  c #124A57",
"D  c #254942",
"F  c #2B4B44",
"G  c #2A4947",
"H  c #334B46",
"J  c #27534A",
"K  c #365746",
"L  c #3B5444",
"P  c #34534B",
"I  c #3B554C",
"U  c #3B5B4B",
"Y  c #2F4F54",
"T  c #3D5B50",
"R  c #395558",
"E  c #3A6B4B",
"W  c #3B6756",
"Q  c #024A68",
"!  c #075777",
"~  c #0D5671",
"^  c #2B596D",
"/  c #156378",
"(  c #2D6C7D",
")  c #455B45",
"_  c #475947",
"`  c #435B4D",
"'  c #555B4D",
"]  c #425C51",
"[  c #495A58",
"{  c #486446",
"}  c #4C644C",
"|  c #556749",
" . c #477646",
".. c #5B7848",
"X. c #456254",
"o. c #4B6354",
"O. c #4B6A54",
"+. c #4C6659",
"@. c #4C6A5C",
"#. c #576755",
"$. c #526B54",
"%. c #546B5B",
"&. c #5B6C5B",
"*. c #4B7358",
"=. c #587357",
"-. c #5C715C",
";. c #646A4B",
":. c #637948",
">. c #646B57",
",. c #63735B",
"<. c #697859",
"1. c #757D59",
"2. c #4A5D62",
"3. c #4A6868",
"4. c #556D64",
"5. c #5C7462",
"6. c #577B69",
"7. c #557171",
"8. c #626C62",
"9. c #647463",
"0. c #657A64",
"q. c #667867",
"w. c #6C7B64",
"e. c #6B7D6B",
"r. c #737C64",
"t. c #767C68",
"y. c #697B73",
"u. c #837D69",
"i. c #5A841C",
"p. c #628C1C",
"a. c #739F1E",
"s. c #5C8529",
"d. c #5B8734",
"f. c #648727",
"g. c #689528",
"h. c #668738",
"j. c #739631",
"k. c #78A526",
"l. c #57874B",
"z. c #588859",
"x. c #67834A",
"c. c #72904B",
"v. c #678556",
"b. c #768559",
"n. c #5A8C6F",
"m. c #6B826C",
"M. c #75836C",
"N. c #798668",
"B. c #7B846C",
"V. c #6E966F",
"C. c #668476",
"Z. c #6C8373",
"A. c #738573",
"S. c #758976",
"D. c #778977",
"F. c #7C8B75",
"G. c #7C8C7A",
"H. c #7C9477",
"J. c #75A474",
"K. c #84B11A",
"L. c #8DB52D",
"P. c #82875A",
"I. c #84876A",
"U. c #8B8C6C",
"Y. c #838B74",
"T. c #888874",
"R. c #8C8B74",
"E. c #828E7A",
"W. c #968D76",
"Q. c #899475",
"!. c #84927C",
"~. c #8B937C",
"^. c #94947C",
"/. c #97967C",
"(. c #A49279",
"). c #95A17D",
"_. c #045B80",
"`. c #096789",
"'. c #026A97",
"]. c #2E7990",
"[. c #0178AA",
"{. c #027DB2",
"}. c #227DA3",
"|. c #627B82",
" X c #358A93",
".X c #0384BA",
"XX c #2F86AC",
"oX c #768986",
"OX c #6C9F88",
"+X c #6F8B90",
"@X c #4D96B4",
"#X c #4CAEB7",
"$X c #028BC6",
"%X c #0491CE",
"&X c #0196D5",
"*X c #269CCF",
"=X c #30A6D9",
"-X c #029EE0",
";X c #01A1E5",
":X c #09A4E6",
">X c #00A5EC",
",X c #16ACEB",
"<X c #01ADF5",
"1X c #01B2FE",
"2X c #09B5FF",
"3X c #14B6FA",
"4X c #38B9EF",
"5X c #26B9F7",
"6X c #51ABD2",
"7X c #64A9C6",
"8X c #54B9E5",
"9X c #3AC2FC",
"0X c #54D3D4",
"qX c #5DC2ED",
"wX c #45C5FC",
"eX c #56CAFC",
"rX c #6ACCF6",
"tX c #6BD1FE",
"yX c #77D5FD",
"uX c #859481",
"iX c #8A9682",
"pX c #8D9A84",
"aX c #949B84",
"sX c #969C86",
"dX c #9A9C83",
"fX c #829796",
"gX c #A79D85",
"hX c #97A289",
"jX c #9BA38B",
"kX c #9DA993",
"lX c #A3A48B",
"zX c #A7A78B",
"xX c #B4A98F",
"cX c #A5AC95",
"vX c #ACAD94",
"bX c #A8B196",
"nX c #ABB39C",
"mX c #B3B49C",
"MX c #B8B79B",
"NX c #8A9FA2",
"BX c #8EAEB6",
"VX c #ACB6A6",
"CX c #B4BAA3",
"ZX c #BABCA2",
"AX c #C1B69C",
"SX c #B3C4BA",
"DX c #C3C2AC",
"FX c #99BDC4",
"GX c #A9CCCF",
"HX c #84D9FE",
"JX c #A9D4E0",
"KX c #C1E4EC",
/* pixels */
"s 0 h j 8 8 ; 5 5 , 6 8 5 O 8 7 O < , 6 0 :.  _ f K.p.s , , , 6 8 0 ; 5 8 8 8 ; i < , , 2 9 > > o 2 ",
"| W.W.W.W.I.t.r W h T.I.r.>.>.8.>.O h t.N.<.@ @ m a.d <.k 1 v R.I.N.w.j Y.t.t.8.#., 6 v k $.} U 7 < ",
"I.gXxXzXlXcXdX_ l ;.gXgX(.W.R.T.u.: j /.dXiXB ].H ..,.iXM.8 t./.Q.U.r.<.iXB.B.A.w.7 { m.=.0.-.+.U 7 ",
"I.zXxXvXmXvXjX' z ;.gXgX(.^.W.T.u.r k dX(.|.G 8X* y.D.F.m.w ,.Y.N.U.Y.F.w.t.B.e.9.7 n.v.pX$.o.` J % ",
">.dXmXmXvXnXjX| d b gXgXW.R.I.;.j e } dXdX8.^ tXXX[ ) 9.I 5 ; ' ~.Y.B.B.>.e.9.9.+.;  .V.M.&.o.P A y ",
"| R.mXVXnXbXjX&.f p.; j ; ; 8 0 0 h k N.E.[ }.wX5X& e.A.M.8 { uXF.B.M.w.%.#.<.t.t 7 x.=.o.X.` : =  .",
"| MXnXnXnXkXkX} b MXZXMXAXDXMXbXr.m ..I.uXB &X1X<XQ oXA.q.w $.M.w.w.w.9.M.e.9.5.[ 6 s.N.O.L K *.l.c.",
"_ iXiXiXG.q.' e b DXZXZXMXCXMXSX#.l b B.oXB 3X2X1X$X[ e.6.F L e.e.q.5.0.w.,.&.+.+.; z c.c.:...s.p.g.",
"s < ; 8 O 8 a a M AXZXZXSXMXmXnX#.l } t.#.].eXeXwX5X* y.6.w = D X.` w #._ _ ` L J % <.mXdX^.Y.#...h.",
"f P.u.u.u.I.u.M M MXMXCXVXCXmXnX} v _ _ : ].tXyXyXqX* : J y $ % % $ o ; X @ $ $ 4 5 1.bXlXsXiXF.G.L ",
"M AX(.(.(.W.u.;.| nXbXnXnXnXnXnX_ l M h * }.HXHXHXrX[ | b m M ..v h s s l h h h a s N.jXjXsXiXD.5.w ",
";.AXxX(.(.(.u.j h cXhXjXhXcXkXiXt l a.P.k ].tXtXyX6Xy.MXbXmXzXMXvX;.a P.xXxXW.(._ s <.sXpXpXuXS.S.w ",
";.(.dXW.W.R.u.r 8 _ k ' _ _ t t w l ZXmX+X^ 8X5X8X~ NXvXvXvXmXvXjX>.8 ;.gXu.u.u.' 8 ;.sXiXD.G.S.Z.F ",
"_ gXW.W.iXT.t.j a l k k r j 8 6 2 z DXZXJXC >X1X>X& D.E.N.bXnXkXsXpX8 >.(.W.W.u.' a v ) L ` o.U U 7 ",
"k u.R.T.T.T.#.j b mXMXxXsXbXdX>.1 m ZXKXJX^ [.<X_.3.SXnXjXsXkXaXuXF.: ;.(.W.T.t.,.a d h r r 8 8 0 l ",
"< e ' ' ' _ e ; b vXgXzXvXzXjXb.0 | VXKXKX+XN {.+ FXGXkXkXiXS.A.w.,.; >.dXW.R.T.>.8 1.vXdXT.r.r.q.w ",
"f z z k h b z f m Q.^.bXcXlXjXV.d k SXJXGXBX+ . + R ` Z 2.y.4.iXuXe.7 >.dX!.E.uX&.8 b.R.u.t.#.8.&.w ",
"c /.AXzXgXlXT.h #._ nXbXcXjXaXA.8 { +X* @ @   . ^ 6X=X%X.X_.Z |.+.t q j _ #.#._ H k r.u.t.<.j #.X.q ",
"1.AXgXdXdXR.,.0 I.zXB.kXjXpXuXG.H 2.B *X8X7X. ].HXrX3X1X1X8X6X* ; , 1 f s 1 a l n :.>.r.,.#.9.%.L @ ",
">.vXdXaXaX~.w.r aXlXkXuXhXuXq.L 2.G 8X5X4X^ @ C yX8X2X1X9XtXHX@XH Y.;.l U.vXdX^.B.l | ,.&.q.+.[ P A ",
";.jXsXpXuXG.&.` o.-.u 7 &.K L U Z @XrX8XQ Q %X& 6X3X1X5XeXyXyXqXC y.t.; jXdXaXiXA.8 6 u : q 4 % = A ",
"' r.aXuXuXG.%.k =.U 8 i 0 w u I B 7X7XS '.>X<X'.V >X1XwXtXHXtXeX{.4.#.; sXaX~.E.%.l i.1 , o o O , 1 ",
"h _ =.-.<.5.` l g.c.c.f.f z :.y.@ B Q .X>X1X1X;XQ Q :XeXyXyXeX3X-XB o.# iX~.!.G.} 0 z :.v v :.:.:.d.",
"s s f l g.n x.j.K.K.c.c.x.P.SXaXH [.;X<X1X1X1X1X;X! V ].XX@XXX.X{.@ H o D.G.G.m.m c v.v.B.,.Q.~.F.0.",
"b zXN.c c.j.h.h.L.k.).zX).<.lX/.= ;X1X3X9X9X9X1X1X<X%X'.! Q Q V & . R , k _ _ z f.f.Q.iX~.,.B.!.E.9.",
"r.aXpXQ.b bXbXH.v zXzXjXhXM.>.^.C ;X2XwX X( XX,X1X1X<X-X.X$X>X>X$X& [ b c z c g p.p.m.!.G.iXE.S.A.=.",
"} !.M.n ,.kXhX{ w.bXjXhXm.b.^.F.G ;X3X@X X0X#X/ 1X1X<X`. X X.X<X$X3.cXlXzXdXiXE.R.,.v $.9.uXS.Z.m.` ",
"j G.F.M.u L r.Q.r.F.v.H.1.jX/.aXR $X,X].0X#X0X~ <X1X%X X#X0X~ ;X_.+XnXjXdXhX~.Y.A.&.$.O.6.D.Z.Z.C.K ",
"t ] K t ; <.^.~.N.N.bXzXlXQ.^.Q.7.'.:X/  X(  XS <X1X$XS A ]./ &XN BXcXjXpXuXG.S.A.%.l c...=.5. .{ v ",
"l < 8 v x b.Y.Y.M.bXbXcXjXhXY.F.y.V >X;X;X&X[.[.1X1X<X$X;X=X*X'.G FXhXfXuXG.A.m.o.t s p.j.c.h.x.d.f.",
"b dXW.Q.Q.| N.t.| } hXhXhX~.F.M.t.Z {.1X1X1X1X1X1X1X-X'.=XtX6X- BXy.] -.5.-.$.{ u 0 M jXlX~.E.E.kX[ ",
"| ^.R.dXN.k r.<.!.!.=.uXuXH.A.w.-.|.& $X1X1X<X$X[.! + '.3X6XC +XJXz 1 1 x a.L.f i.f ~.aX!.F.F.Z.A.H ",
"r.dXt.>.o.0 r S.M.e.w.} S.m.m.%.H : 3.B '.;X;XQ N Q &X>X$XB +XGXm.jXQ.Q.N.:.b.v.=.l M.!.E.D.M.Z.S.P ",
"<.R.T.E.<.8 0 5.e.0.#.` ` K : % o , s d.4.S _.[.[.[.'.V R BXFX..!.F.M.b.q.&.uX5.o.; q.E.F.S.Z.Z.C.K ",
",.Y.E.A.q.r d K %.+.P q X # O r :.x.x.x.c B.oX3.3.3.|.FXFX+X5.t ,.e.m.,.-.` K $.` ; 5.S.S.Z.Z.Z.S.Y ",
">.F.D.A.-.h m 9 = % # o < h Q.cXaXaX~.~.k | ~.E.D.oX|.+X4.[ w : X.q.5.$.X.q.} T K $ w [ @.o.@.P D J ",
"' 9.Z.m...s.p.c < 6 u f i.c.vXaX~.E.D.e.e b E.8.8.&.&.+.[ ' w # u +.$.e.4.O.E @.G # < 1 u r t 7 5 5 ",
"0 e u v m g P.).hX/./.<.c :.iXY.G.S.A.q.7 { e.>.&.o._ +.+.X.R % 7 U 5.@.X.T W J D 3 n ..0.%.X.X.K 6 ",
"..lXpXY.H.v gXdXaXdXaXsX8 b !.G.S.Z.S.q.7 k 5.%.o.` ` : T P J 4 n K @.4.T T J A 4 y l.{ +.o.T P J = ",
"m.iXA.y.&.u pX~.~.!.uXD.; { D.A.m.C.C.4.u 0 T X.] ] H G - D J J V.OXO.W P Y J A E d...$.` T P G q 4 ",
"U q.5.%.` u uX!.E.G.S.A.; 8 @.X.%.4.@.U 9 v 4 T U K J 4 $ 9 4 y v.V.V.n.W E p z.OXd.*.*.w J F D y 9 ",
"6 U K E { { H.D.G.D.Z.C.; s < 5 ; 7 ; ; 2 d $ 4 A S 4 3 y 9 p s.g.V.l.d.d.g.k.x n.z.u 5 < 0 3 y i f.",
"s c x.c i.m S.S.Z.Z.m.C.% :.jX~.E.A.q.q.O.0 n , 3 3 9 x i.s./.Q.H...uX!.H.v.=.$.W 9 x h.h.c x x c s.",
"=.pXlXE.v l m.5.@.C.6.Y 4 B.B.w.&.$.o.X.T 7 6.v.m.N.m.{ d 0.!.e.q.{ 0.9.%.o.` I D % <.A.N.0.A.Z.5.t ",
",.sXt.q.` 1 ; : w P W A 4 <.e.&.#.o.] T P % | !.H.S.A.O.1 ) ,.,.&.&.$.$.[ ` P H J $ &.e.e.&.+.X.T : ",
"} F.9.&.L v.v n n.E U p l v q.o.] T P H G $ } G.B.A.Z.@.6 e &.%.o.X.t ` I P P J A ; $.q.%.o.` I U - ",
") ` &.o.9.4.X.{  .z.GXn.n $.&.] I P H G D = ) D.S.m.Z.] 6 ) p X.] H G F H F J A 3 u ) o.] ] I P J - ",
"_ $.t m.4.X.T P K *.OXOX .} %.] P F G D = $ o.D.C.y.C.T 9 U +.K H D q : G J J A E z.X.] I I P P J 4 ",
"0 u p *.T R J P E z.J.n.z.p 3 A 4 A 4 w u 9 C.3.+.4.+.J  .t t D : - A A - i y E n.z.y y 4 w D q J 4 ",
"i.p.9 7 W 6.3.E l.d.g.l.J.x > 3 $ $ o $ 6 l l.4.W W T { s.i # & # $ $ % 3 p.g.s.n l.p 9 3 9 o 3 9 x "
};
