/* XPM */
static char *out[] = {
/* columns rows colors chars-per-pixel */
"64 64 250 2 ",
"   c #0D0C19",
".  c #0E1011",
"X  c #171716",
"o  c #141B15",
"O  c #13151C",
"+  c #151B1B",
"@  c #1A1C1C",
"#  c #271D19",
"$  c #311F19",
"%  c #1E350F",
"&  c #1B261A",
"*  c #1C231C",
"=  c #24281C",
"-  c #352519",
";  c #26371A",
":  c #120E27",
">  c #141423",
",  c #161B22",
"<  c #1A1D22",
"1  c #17162B",
"2  c #181636",
"3  c #23182A",
"4  c #211D3B",
"5  c #1B2224",
"6  c #1E2528",
"7  c #1F233C",
"8  c #242824",
"9  c #20262A",
"0  c #21292C",
"q  c #2B3526",
"w  c #343B28",
"e  c #272A35",
"r  c #392B32",
"t  c #2D323A",
"y  c #4B2813",
"u  c #5A2E17",
"i  c #583517",
"p  c #602F0F",
"a  c #693714",
"s  c #47352E",
"d  c #583626",
"f  c #683B28",
"g  c #653B37",
"h  c #2B4516",
"j  c #324C1A",
"k  c #335519",
"l  c #356B0A",
"z  c #3C6814",
"x  c #3B7810",
"c  c #384628",
"v  c #3A512B",
"b  c #3D4634",
"n  c #3A6422",
"m  c #544F17",
"M  c #684616",
"N  c #784519",
"B  c #655C19",
"V  c #775718",
"C  c #576916",
"Z  c #437612",
"A  c #487818",
"S  c #567919",
"D  c #756619",
"F  c #6F7319",
"G  c #42542E",
"H  c #455A2B",
"J  c #464736",
"K  c #574939",
"L  c #485B33",
"P  c #505130",
"I  c #754427",
"U  c #684536",
"Y  c #774636",
"T  c #705234",
"R  c #48672A",
"E  c #4C752D",
"W  c #4D6435",
"Q  c #536B3A",
"!  c #5A683A",
"~  c #5A783C",
"^  c #646926",
"/  c #6E7135",
"(  c #1C1A48",
")  c #1F1D51",
"_  c #201E4A",
"`  c #1D244C",
"'  c #292947",
"]  c #2F2D4E",
"[  c #37364A",
"{  c #232658",
"}  c #363556",
"|  c #282A67",
" . c #30346A",
".. c #2A2E78",
"X. c #2C3278",
"o. c #333974",
"O. c #443D4F",
"+. c #384053",
"@. c #3A4473",
"#. c #2E6C6C",
"$. c #50494D",
"%. c #5D5758",
"&. c #6B4D46",
"*. c #6B5747",
"=. c #795646",
"-. c #695B5A",
";. c #5C7841",
":. c #627944",
">. c #746950",
",. c #595D74",
"<. c #706D70",
"1. c #844A15",
"2. c #89531A",
"3. c #955A19",
"4. c #876619",
"5. c #9A651C",
"6. c #9A771E",
"7. c #A5691C",
"8. c #AD701D",
"9. c #B8791E",
"0. c #825627",
"q. c #905929",
"w. c #927032",
"e. c #AC7424",
"r. c #AB732F",
"t. c #B77A23",
"y. c #C37D24",
"u. c #855947",
"i. c #88654B",
"p. c #8E6D4F",
"a. c #887758",
"s. c #977559",
"d. c #A47855",
"f. c #927B69",
"g. c #A57C64",
"h. c #B27D62",
"j. c #3B8807",
"k. c #2E9002",
"l. c #359500",
"z. c #3A9601",
"x. c #369A00",
"c. c #3C9A00",
"v. c #3C9308",
"b. c #3EA000",
"n. c #468B0B",
"m. c #518D0B",
"M. c #439D00",
"N. c #4A9E03",
"B. c #45960A",
"V. c #4B930A",
"C. c #4B9B0B",
"Z. c #55970A",
"A. c #488616",
"S. c #598A17",
"D. c #4B9915",
"F. c #569A16",
"G. c #648619",
"H. c #6C8E1C",
"J. c #45A101",
"K. c #4BA401",
"L. c #4EA901",
"P. c #4BA10A",
"I. c #51A601",
"U. c #53A901",
"Y. c #57A806",
"T. c #55A113",
"R. c #4E8C2D",
"E. c #599727",
"W. c #5E9332",
"Q. c #6C8D26",
"!. c #678637",
"~. c #638E3D",
"^. c #629435",
"/. c #65933B",
"(. c #5DA020",
"). c #388A66",
"_. c #4F8748",
"`. c #658545",
"'. c #688747",
"]. c #658A42",
"[. c #698B45",
"{. c #728D47",
"}. c #658272",
"|. c #8B8830",
" X c #BB8426",
".X c #B38C34",
"XX c #C68826",
"oX c #CB8C24",
"OX c #CD912C",
"+X c #D49629",
"@X c #DA9B2A",
"#X c #C28D34",
"$X c #C79637",
"%X c #D59D33",
"&X c #CBA23D",
"*X c #DAA336",
"=X c #E3AA38",
"-X c #E9B23D",
";X c #8F8649",
":X c #A49648",
">X c #B28E56",
",X c #958B6F",
"<X c #A9866B",
"1X c #B38F72",
"2X c #B68D74",
"3X c #BCA37E",
"4X c #C89647",
"5X c #C6985A",
"6X c #DCAA46",
"7X c #D1AE54",
"8X c #E3AF46",
"9X c #E8B747",
"0X c #C3997B",
"qX c #C7A867",
"wX c #D2B075",
"eX c #E3B873",
"rX c #ECC355",
"tX c #F2C958",
"yX c #2E3382",
"uX c #2E3785",
"iX c #31388B",
"pX c #333C98",
"aX c #455380",
"sX c #6E758B",
"dX c #807D82",
"fX c #1B8A90",
"gX c #2A8C92",
"hX c #1694A6",
"jX c #569293",
"kX c #75918E",
"lX c #93928C",
"zX c #A79A89",
"xX c #B09B8A",
"cX c #A8A291",
"vX c #B5AA97",
"bX c #9FABA9",
"nX c #B5B7AF",
"mX c #CAA487",
"MX c #D5A98C",
"NX c #C8B599",
"BX c #D4B592",
"VX c #E5B78E",
"CX c #C7BBA3",
"ZX c #C9BFB1",
"AX c #EABFA2",
"SX c #DBC29A",
"DX c #EACA93",
"FX c #CBC2A9",
"GX c #EBCDB0",
"HX c #D7D2C6",
/* pixels */
"I.I.L.L.K.I.U.U.I.K.N.M.K.K.K.K.J.c.x.M.J.L.L.I.P.Z.G.Q.|.|.;X;X;X;X|.|.(.H.Y.Y.v.c.P.L.M.c.c.B.z.x.k.k.c.M.c.c.L.L.K.B.z.l.M.N.",
"L.L.J.K.L.I.I.I.K.J.N.M.M.N.M.M.M.c.c.b.M.L.Y.T.F.G.H.w.|.|.:X:X:X:X|.|.|.H.H.F.n.B.P.I.J.M.M.c.z.x.k.l.M.N.M.J.L.I.K.M.z.z.M.K.",
"J.J.b.c.K.K.M.M.c.M.M.M.M.M.M.z.c.v.x.b.c.P.T.S.F 4.6. X&X7X7XqX7X7X&X$X.X|.F F S A V.N.K.K.z.x.z.c.c.M.M.M.M.J.L.K.M.c.z.c.M.J.",
"b.J.c.J.K.K.M.z.z.c.M.M.M.M.c.z.c.c.b.J.B.C.S.Q.4.5.t.XX*XrXtXrXrX9X&X$X Xe.5.D ^ C m.B.N.K.z.l.x.z.M.K.K.M.c.M.J.K.M.x.c.c.c.J.",
"J.J.I.I.I.K.M.M.c.M.J.J.M.M.z.M.c.J.J.P.Z.H.F D 4.e.XX@X*X9X9X8X-X*X#X.X6.6.3.V M m m z V.C.z.k.l.z.M.M.M.M.z.x.c.b.J.M.J.J.x.b.",
"J.K.U.U.L.J.K.M.M.M.J.J.z.M.M.M.M.J.L.T.H.Q.|.e.e. X+X@X*X*X*X*X=X*X Xt.t.e.7.3.1.a m C A.B.v.l.l.z.M.K.M.M.c.z.c.J.c.M.b.c.x.z.",
"L.I.U.U.J.M.M.N.J.J.c.z.z.z.z.M.J.P.Y.T.|..X.X&X&X*X*X*X@XOXXXoX@X@XXX XOX+XoX9.7.2.M m C A.l.z.x.c.K.K.J.M.K.K.J.J.M.c.b.c.c.z.",
"L.I.U.U.M.z.M.M.J.M.c.z.z.z.M.M.K.C.G.H..X&X8X9XrX-X=X*X@XOXXXoX@X@XoXOX*X=X=X%XXXe.3.V ^ A n.B.c.M.K.L.K.K.I.U.L.K.M.c.c.x.z.z.",
"N.I.Y.U.N.z.z.M.M.J.K.N.M.z.z.M.Z.Z.D 6.$X9XrXtXtXtX9X8X=X@X+X+X@X@X@X@X9XtXrX9X-X%XXX6.D C m.N.M.J.L.L.U.U.Y.U.U.K.M.z.z.z.z.z.",
"M.N.U.U.M.z.z.z.N.L.U.U.M.M.M.B.Z.H.4.8.*X9XtXtXtXtX9X8X=X@X+X+X+X+X@X=X9XrXrXrX9X-X+X9.3.B G.Z.N.J.L.L.U.U.Y.U.U.K.N.M.M.z.z.z.",
"M.M.U.U.N.z.z.M.L.U.U.U.L.N.M.n.Z.F 6.XX*X-X9X9X9X9X*X@XoXoXy.oXoXoXoX@X*X9X8X-X=X@X@XXX7.4.F m.V.K.L.L.U.U.I.I.K.K.I.L.L.J.z.l.",
"M.N.U.U.N.M.M.N.I.U.U.U.K.K.M.m.S F 7.y.+X%X@X=X=X=XoXy.t.8.r.r.8.8.9. X%X*X$X+X@X@X+XoX9.5.D S V.J.L.L.K.L.N.N.N.M.K.I.K.J.z.x.",
"M.M.N.N.K.K.I.U.I.I.L.L.N.K.J.m.F V 3.8.y.y.y.oXXXy.t.7.q.q.q.q.D 0.2.5.XXoXt.t.oXoXoXoXy.7.D Z n.M.K.K.M.M.M.M.z.M.K.N.M.z.M.M.",
"M.M.M.M.K.I.U.U.L.K.K.K.M.M.K.Z.C V 2.3.8.9.8.8.8.8.7.q.I g u.p.0.I I 2.9.t.8.7.9.y.9.9.9.7.D C n.M.N.M.M.c.M.M.z.z.N.M.z.z.M.M.",
"K.N.N.J.M.N.K.K.M.M.c.c.M.K.I.Z.C M a 1.3.3.3.3.3.3.2.2.f u.h.2Xg.i.I N 7.8.8.5.7.7.7.7.7.3.B C m.J.M.c.z.M.J.K.z.l.B.M.M.B.M.M.",
"J.K.K.M.M.M.M.M.c.z.z.c.M.N.U.Z.S M a a N 1.1.1.1.1.1.a f u.2XmX2Xg.Y I q.3.5.3.1.1.1.1.1.1.B C V.K.c.z.z.c.K.N.M.B.B.M.M.M.M.M.",
"M.M.J.J.c.z.J.J.M.c.x.c.J.J.I.Z.S.C y y p a a a a a a a f u.2XMXmXh.Y f f I 1.N a a a a a a C n.N.J.c.z.z.c.J.K.K.K.M.K.M.J.J.K.",
"M.M.N.M.z.x.b.J.M.M.c.M.b.J.L.Z.S.S m i u u a a u u a f Y i.0XMXMX0Xu.g f f f f a u u u u m Z V.N.J.M.c.c.c.J.K.K.K.K.K.J.J.J.K.",
"N.N.M.M.l.z.J.K.M.M.M.M.M.M.K.N.V.E ^ U d f I f d d f f u.g.mXMXMXmXg.u.0.f d d f f f d U P S V.K.K.M.z.M.J.c.M.N.J.M.c.M.M.M.M.",
"K.K.K.M.z.c.K.L.M.M.c.c.c.z.M.N.n.S *.=.Y =.u.u.&.g g =.g.xXmXMXMXmXxXf.Y g &.&.u.u.u.=.*.^ A B.K.K.N.M.J.M.J.M.M.M.c.M.M.J.J.M.",
"I.I.U.I.K.M.L.K.M.c.M.M.l.l.M.M.m.S :.s.g.h.h.g.f.,.%.-.lXZXAXAXVXMXZXlX%.&.<.f.h.h.h.g.a.:.A v.N.K.K.N.c.c.J.J.c.M.J.J.L.K.K.N.",
"L.I.I.I.K.J.J.M.c.c.c.c.l.z.M.N.V.S.!.a.,X2X2X2XzXsX,.<.bXHXGXGXVXMXZXbX<.-.f.xX2X2X2X,X{.!.A.l.M.J.L.J.x.z.M.K.c.c.J.K.I.L.K.K.",
"N.M.M.M.c.M.c.M.c.c.c.z.z.M.K.N.P.D.E.!.>.f.g.<XcXlX<.sXnXHXGXGXAXMXHXnXsX<.zXxX<Xs.a.>._.R.v.k.z.c.J.M.c.z.M.M.J.x.M.K.L.L.M.c.",
"M.M.M.M.x.x.z.c.M.M.c.z.M.M.K.K.C.B.A.E K &.i.g.xXxXlXcXHXHXGXGXMXVXHXZXlXlXvXxXf.=.K P R A.A.k.z.z.M.c.c.M.M.J.c.J.M.J.L.K.J.x.",
"M.M.J.c.x.x.c.z.M.z.z.M.K.K.K.C.A.A k q = w Y s.2XmXvXvXAXDXDXDXVXVXVXVXNXmXmX2Xi.g r = h k A D.v.c.M.c.c.M.M.J.J.K.K.K.K.J.J.x.",
"M.M.M.b.x.z.c.M.M.B.B.M.K.K.N.V.x k ; & X # d T d.0XBXBXeXVXeXeXeXeXeXVXMXMX2Xs.U y @ o & h n A.v.z.M.M.M.M.M.M.J.K.K.L.L.K.J.b.",
"M.M.c.b.M.J.M.M.M.B.z.M.N.N.V.Z k % 5 & O @ - d T d.5XeX8X6X4X4X4X4X6X8X5X5Xp.f s $ @ + 5 & h k x n.M.M.M.c.c.c.z.M.K.I.U.I.J.b.",
"c.M.c.b.K.K.J.M.M.M.M.M.N.V.n.l % + 5 5 > , = q U 0.r.$X%X%X$X4X#X#X+XOX#Xw.f u $ # * < , * & ; z x B.M.M.M.z.z.z.J.J.L.U.I.K.J.",
"M.M.M.M.L.K.c.x.M.M.M.M.N.m.Z k & 5 5 5 5 5 5 & - i q.8.t.XX$X$X$X$XXXe.q.a y $ 5 5 9 9 5 5 * & j x B.J.J.M.c.c.M.M.M.M.U.U.L.K.",
"M.M.M.K.L.K.x.z.M.N.M.M.N.n.k ; & 5 5 5 6 0 5 5 o - i 2.5.t.#X$X$X.Xt.3.f y $ # 5 6 9 9 5 * + * q k n.N.J.M.c.c.K.M.z.M.L.U.L.K.",
"K.L.L.K.K.M.z.x.K.I.M.M.C.Z h & 5 5 5 5 0 0 0 6 = = - u T w..X#X4Xr.5.N y # 3 8 6 0 0 6 5 5 * * & h Z P.c.x.z.c.M.M.z.M.M.K.K.K.",
"I.I.K.K.M.M.z.z.L.I.K.V.n.z ; @ 5 5 5 5 6 0 0 0 & = # - U q.>X5X5X>XI u $ # 5 9 0 0 0 6 5 5 5 5 & ; z n.v.x.x.z.c.c.z.c.M.J.K.N.",
"L.L.J.M.M.M.z.z.K.I.K.n.z h & * 5 5 5 6 6 6 6 6 5 5 < e O.>.<XmXmX1X*.r 3 1 < 9 6 6 6 6 5 5 5 , 5 ; k x n.z.z.c.z.c.z.c.L.I.K.M.",
"L.K.b.x.z.z.z.z.M.N.N.j.h = 5 < 5 5 6 5 6 6 6 5 + , 7 ' O.-.1XmXNXzX-.r 4 2 1 < 6 6 6 6 5 5 5 5 , & ; k j.z.c.x.z.c.M.M.N.K.M.M.",
"L.J.b.x.z.z.z.l.z.c.j.l ; o O > 5 5 6 6 6 5 5 5 . , ` } O.*.xXNXCXcX*.r { ` 2 , 5 5 5 5 5 5 5 5 + o & h l j.z.x.c.M.K.M.z.l.c.M.",
"L.K.x.x.x.z.l.l.z.z.j.l % o @ 5 5 5 5 5 5 5 5 +   1 {  .O.-.zXCXFXxX*.[  .{ 2 O , 5 5 5 5 5 5 , + O o % l j.c.b.J.M.K.M.l.x.c.M.",
"U.L.M.x.c.c.x.x.z.z.n.z ; = = 8 5 5 * * * , 5 ,   2 | @.O.u.cXCXFXcX%.[  .| 2 O + < @ @ o O O O O O o % l v.P.J.N.M.M.M.M.M.N.M.",
"I.L.c.z.M.M.z.x.x.M.N.Z j w P J J b J w q 5 , , 1 ( ..@.O.<.xXZXFXcX%.} @.X.( : 1 > O O O O , 1 1 1 5 h x B.K.J.N.M.z.z.M.M.J.N.",
"M.c.z.z.M.K.M.c.b.J.Y.m.H K >.;X{.,Xs.>.b 0 : : ( | X.@.O.-.zXCXFXcX%.+.X.X.{ ` 2 :     > 2 ( { { ` c j x M.M.J.M.M.B.z.M.z.M.M.",
"z.z.z.c.M.J.M.M.J.K.L.m.L ;.}.lXlX,X>Xs.L c 2 ( { ..uX@. .-.zXCXFXcX%.] @.uX..| ) 2   O 3 ' ] } | { q k j.M.c.c.M.M.M.z.z.z.M.M.",
"x.z.N.K.M.M.M.M.P.L.L.A.R $.}.jXkXkX,Xp.! b ] | ..yXyXo.O.-.zXCXFXcX%.[ o.uXyX....{ : 1 r $.$.$.] ' q h j.c.M.M.K.K.M.z.M.M.K.K.",
"z.M.K.K.M.M.M.M.L.L.J.v.R #.gXgXjXjX-.*.K $. .yXiXyXyX .O.-.zXNXCXcX%.] ..yXyXyX..| 4 3 &.>.i.>.O.[ q k x z.c.J.I.K.M.c.N.K.I.I.",
"M.N.K.L.U.I.N.N.P.b.b.D.R #.fXhXhX#.+.r 9 ' | iXpXpXiX .} %.dXvXvXzX$.] | yXyX....| 3 s >.>X>X;XT s w j j.l.z.M.U.U.N.N.K.I.K.I.",
"K.I.K.I.U.U.K.M.b.b.L.P.R.~ fXfXfX#.b 8 < 2 | iXpXpXyX..O.$.dXlXlXsX$.] | yXyXyX..| ] g ,XwXeXqX/ P m H j.z.z.M.I.U.N.K.L.L.K.K.",
"U.U.I.I.K.N.M.z.b.b.b.T.D.R.).).)._.~ L 8 7 X.iXpXpXyX| ' } ,.sXsXaX[ ' X.iXpXpX..} %.s.mXSXDXqXp./ ^ S V.M.c.M.M.M.c.c.M.K.K.K.",
"U.U.U.I.N.M.z.x.b.b.b.Y.b.D.R._._._.W.E w ' o.iXpXiX| ) 7 ' @.aXaX,.' 7  .iXpXpXo. .*.<XNXGXDXqX;XF Q.S.I.J.c.x.M.M.z.c.M.M.M.K.",
"L.L.I.I.M.z.x.z.b.b.L.L.b.T.D.R.W.W./.~ s ' X.uXyX..{ 2 1 ( [ +.} [ 7 ( | yXpXpX..O.O.p.3XBXwXqXw.^ S.N.P.J.x.x.z.M.M.M.M.M.K.K.",
"J.J.L.K.M.z.x.x.L.L.b.b.b.b.P.D.E.^./.~ J '  .X...{ ( : : 1 t +.[ t 1 2 ( | yXiX..} d T qXwXqX:Xw.^ Z.I.K.J.x.z.c.M.M.M.J.M.J.K.",
"J.b.J.b.M.c.x.x.J.L.M.M.M.C.D.E.^.~.{./ b e _ ) _ 2 : :   @ w b v w . . 2 ( | | ] ' J T >XqX:Xw./ G.F.P.P.c.c.c.J.M.M.K.K.J.M.c.",
"J.J.J.c.M.c.x.x.M.K.M.M.B.C.E.W.~.[.{.~ w 5 4 4 2 1 : > . @ c G G ; . . : 2 ) ) _ e s T ;X>Xw.w./ S.T.T.N.M.M.M.J.J.K.K.K.M.J.c.",
"J.J.K.J.M.c.x.z.c.c.M.N.T.F.E.~.~.'.[.Q q O < 3 < 3 < < O < c G G c o . . , 1 1 : 3 - s =.>./ ! / ^.(.(.N.c.c.c.J.L.K.K.J.b.J.J.",
"c.J.U.L.J.M.M.x.c.M.M.C.(.^.^.~.].'.`.Q ; . X 3 < < 5 < + 5 b L G w . . o O O > O O = - ! *.*.:.!./.^.T.C.c.J.J.I.I.L.M.b.J.J.K.",
"x.J.I.I.M.M.c.J.J.J.M.C.W./.~.'.'.`.'.Q ; . . O @ < 5 + + & G W H w & . + @ , , < @ @ ; W :.:.:.'.].W.W.C.M.K.L.Y.U.L.J.J.J.L.K.",
"c.J.L.L.M.M.b.J.L.L.K.C.^.[.'.`.'.'.'.Q ; . X o @ 5 5 + * ; W Q H c & X @ < 5 5 < 5 * = L ;.:.:.'.[.].E.B.b.K.Y.U.I.K.M.L.L.L.J.",
"M.M.N.M.z.z.J.L.U.U.K.D.^.[.`.`.].].`.W = . . + 5 5 * + & ; n W H c & X @ 5 5 6 5 < o = b Q ;.`.'.[.].E.B.b.P.L.I.K.K.J.K.J.J.J.",
"L.K.M.M.z.z.J.L.L.U.L.C.W.[.[.`.].`.~ R ; . X + , 5 , * o ; G R H c = o @ 5 < 5 5 5 + * c L ;.`.'.[./.W.v.c.L.U.K.K.K.K.K.M.J.b.",
"U.I.M.M.M.M.x.b.J.L.L.T.W.[.[.].`.;.W v = X @ < 6 5 6 & o & c W Q L q & * @ , > * 5 * & c R ;._.[.].].E.B.J.U.U.I.K.I.N.K.N.M.z.",
"U.I.M.M.N.J.x.b.b.J.U.Y.E.^./.].`.~ v c = # 8 9 0 0 9 5 + = c W Q Q c q q * @ < 6 6 5 q v W ;.`.]./.^.(.P.J.U.U.U.I.I.I.N.M.c.z.",
"K.M.c.M.M.N.c.c.J.J.U.Y.T.E.W.~.!.Q v q o X 8 e t t e 6 + & c W ;.;.;.b c q q q q w w v Q ;.;.]./.^.(.T.c.J.I.U.I.I.I.I.K.N.M.z.",
"J.M.c.M.M.M.J.c.b.L.U.Y.Y.F.E.W.~.~ v ; @ @ 8 e ' t e 6 + = c W ;.;.;.;.L G G G H L v W ;.`.].W.W.(.T.P.c.b.I.I.K.K.K.I.L.N.M.z.",
"K.K.M.J.J.K.M.J.J.J.I.I.L.P.T.E.~.~ G w # X 5 e e e e 5 + = v ~ ~ `.'.'.;.~ ~ ~ ~.~ ~ `.`.].].W.(.D.P.b.z.c.K.K.M.M.J.K.I.L.z.l.",
"M.J.J.J.J.J.M.M.c.M.M.M.K.L.U.T.W.R.R k ; ; q q q q 0 8 = w R ~ `.'.'.[.'.'.[.{.[.{.]./.~.W.W.R.D.b.b.b.x.x.b.J.M.c.J.J.I.I.M.z.",
"x.x.J.J.J.c.c.z.z.x.z.z.c.M.K.P.C.D.E.A A H R v c w c w w G Q `.`.'.[.[.[.[.[.[././.^.W.E.D.D.v.v.x.k.k.x.x.x.z.c.M.c.M.K.I.M.M.",
"x.z.J.J.b.z.c.z.l.k.k.v.z.M.c.J.M.C.F.E.E A E R v c c c G W ~ :.'.[.[.[.[.[.[.[./.^.^.W.D.B.v.z.x.k.k.k.k.k.l.x.c.M.c.c.K.K.K.N."
};
