/* XPM */
static char *out[] = {
/* columns rows colors chars-per-pixel */
"64 64 251 2 ",
"   c #0F0C12",
".  c #0D0D18",
"X  c #0F1312",
"o  c #121614",
"O  c #151A15",
"+  c #1A1915",
"@  c #12141C",
"#  c #151B1C",
"$  c #1A1C1C",
"%  c #241D19",
"&  c #311F19",
"*  c #1D300F",
"=  c #1C2619",
"-  c #1B231C",
";  c #223A0E",
":  c #27261B",
">  c #222B1D",
",  c #322618",
"<  c #26371A",
"1  c #100E23",
"2  c #171C23",
"3  c #191D22",
"4  c #16162A",
"5  c #191738",
"6  c #251D35",
"7  c #1B2224",
"8  c #1E2823",
"9  c #1E2529",
"0  c #18213C",
"q  c #242A23",
"w  c #20272B",
"e  c #22292C",
"r  c #2A3625",
"t  c #373A27",
"y  c #272835",
"u  c #2D313C",
"i  c #373132",
"p  c #512E15",
"a  c #593419",
"s  c #693715",
"d  c #723C15",
"f  c #47302A",
"g  c #4A3828",
"h  c #593626",
"j  c #683A27",
"k  c #653D39",
"l  c #2C4618",
"z  c #324A1B",
"x  c #2D5415",
"c  c #355818",
"v  c #37700C",
"b  c #3B6716",
"n  c #344126",
"m  c #364329",
"M  c #3B4B29",
"N  c #3C5428",
"B  c #3B4234",
"V  c #534F18",
"C  c #674D16",
"Z  c #764519",
"A  c #785718",
"S  c #566815",
"D  c #427413",
"F  c #467816",
"G  c #57781A",
"H  c #716919",
"J  c #6B7518",
"K  c #52492C",
"L  c #44562D",
"P  c #474837",
"I  c #465631",
"U  c #4A5D32",
"Y  c #565536",
"T  c #764726",
"R  c #674636",
"E  c #754736",
"W  c #6F5030",
"Q  c #526B2C",
"!  c #4C7426",
"~  c #556939",
"^  c #58773B",
"/  c #59753E",
"(  c #68673B",
")  c #6F7334",
"_  c #1C1D47",
"`  c #211E4B",
"'  c #1D234F",
"]  c #292846",
"[  c #37374A",
"{  c #30324F",
"}  c #232557",
"|  c #1A3D63",
" . c #272B66",
".. c #2B3268",
"X. c #32346B",
"o. c #2A2E73",
"O. c #2B3479",
"+. c #343874",
"@. c #453C4D",
"#. c #344458",
"$. c #195571",
"%. c #394273",
"&. c #53494C",
"*. c #464259",
"=. c #5D5857",
"-. c #6E5045",
";. c #775644",
":. c #645857",
">. c #5C7940",
",. c #776D4C",
"<. c #627C42",
"1. c #6C625B",
"2. c #605C6F",
"3. c #4C676C",
"4. c #6E6C6D",
"5. c #844B16",
"6. c #885419",
"7. c #955B19",
"8. c #8F6B1B",
"9. c #9A651C",
"0. c #A5691C",
"q. c #B16F1D",
"w. c #AB701E",
"e. c #B8781E",
"r. c #88582A",
"t. c #90702F",
"y. c #AA7424",
"u. c #AC762F",
"i. c #B67A23",
"p. c #C37E24",
"a. c #865946",
"s. c #8E6F4F",
"d. c #A47952",
"f. c #907A6A",
"g. c #A57C63",
"h. c #B27C62",
"j. c #3C8808",
"k. c #2C9100",
"l. c #359600",
"z. c #3B9601",
"x. c #369A00",
"c. c #3C9A00",
"v. c #3E910A",
"b. c #3EA100",
"n. c #468B0A",
"m. c #538D08",
"M. c #439505",
"N. c #439D00",
"B. c #499E03",
"V. c #45960B",
"C. c #4B940B",
"Z. c #4B9B0B",
"A. c #549909",
"S. c #498816",
"D. c #578917",
"F. c #4B9511",
"G. c #559A15",
"H. c #648A18",
"J. c #73841E",
"K. c #64981A",
"L. c #45A100",
"P. c #4BA301",
"I. c #4DA801",
"U. c #4CA108",
"Y. c #50A601",
"T. c #53A901",
"R. c #59AD02",
"E. c #55A30B",
"W. c #58A217",
"Q. c #568828",
"!. c #5B9727",
"~. c #5F9233",
"^. c #73882C",
"/. c #659B2D",
"(. c #658A3B",
"). c #669639",
"_. c #5DA224",
"`. c #63A225",
"'. c #68A334",
"]. c #648545",
"[. c #688747",
"{. c #668A43",
"}. c #6A8A46",
"|. c #708E46",
" X c #689141",
".X c #688477",
"XX c #8D8832",
"oX c #BA8426",
"OX c #BB873A",
"+X c #AB9130",
"@X c #C0801F",
"#X c #C78A26",
"$X c #CC912B",
"%X c #D49528",
"&X c #DA9B2A",
"*X c #C28D35",
"=X c #C79736",
"-X c #D49B33",
";X c #CFA137",
":X c #DBA436",
">X c #E2AA38",
",X c #E6AD39",
"<X c #92864A",
"1X c #AA8F50",
"2X c #978D70",
"3X c #AA866B",
"4X c #AF906D",
"5X c #B58C74",
"6X c #B89778",
"7X c #A2A87F",
"8X c #C89544",
"9X c #C99958",
"0X c #D6AD4D",
"qX c #E8B747",
"wX c #E4AF51",
"eX c #C3997A",
"rX c #CDAA6F",
"tX c #E3B36C",
"yX c #E4B977",
"uX c #ECC456",
"iX c #F2C857",
"pX c #2E3584",
"aX c #30368A",
"sX c #31378A",
"dX c #343C99",
"fX c #1E798A",
"gX c #455280",
"hX c #71778A",
"jX c #1F94A1",
"kX c #5A9491",
"lX c #919088",
"zX c #989693",
"xX c #A89B88",
"cX c #B59B86",
"vX c #A9A292",
"bX c #B4A898",
"nX c #B1B5AF",
"mX c #C89D82",
"MX c #CCA687",
"NX c #D7AC8D",
"BX c #C6B49A",
"VX c #D4B092",
"CX c #E8B892",
"ZX c #C7BDA1",
"AX c #C9BFB1",
"SX c #DEC099",
"DX c #EDC894",
"FX c #CBC3A9",
"GX c #D3C6B6",
"HX c #EDCCB0",
"JX c #D7D5C9",
/* pixels */
"T.Y.I.P.P.I.T.R.I.P.B.B.L.L.P.L.b.x.c.c.U.I.T.T.W.E.H.^.'.<X<X'.<XXX<X'.^.K.W.Y.z.c.L.L.c.c.N.c.x.k.k.k.c.B.l.c.P.I.P.N.l.l.c.L.",
"Y.I.P.L.P.I.Y.Y.L.B.B.N.B.N.L.L.c.x.c.N.L.P.Y.G.K.H.J.t.XX+X1X1X1X1X+XXXXXJ.K.m.n.v.B.L.L.N.N.z.z.l.k.l.c.N.c.c.P.I.P.c.c.x.b.L.",
"L.L.c.b.P.P.L.c.c.c.N.B.N.N.N.z.z.c.c.N.c.U.G.G.J.8.XXoX;X0X0XtX0X;X;X+X+XXX8.J J D.C.B.P.L.c.x.x.z.z.B.B.B.N.L.I.I.N.c.c.c.L.L.",
"L.b.c.b.P.I.L.c.c.N.N.N.N.N.c.z.z.c.N.L.N.F.D.^.) 8.e.#X;XuXuXuXuXqX;X=XoXy.8.A H S S.n.Z.P.z.l.l.z.N.P.P.L.c.L.P.L.N.c.c.c.N.B.",
"b.L.P.I.Y.I.L.B.N.B.L.L.N.N.N.z.c.b.P.I.E.K.H.8.8.w.@X%X,XqXqXwXqX>XOXoXw.9.8.A C V V D C.Z.x.l.l.z.B.B.B.N.b.x.c.L.b.N.L.N.c.c.",
"L.P.Y.T.I.P.B.B.B.B.L.N.z.z.N.N.c.c.U.W.K.J.t.8.w.@X%X&X,X:X;X:X:X:XoXoXi.y.0.7.Z s V S S.F.z.l.x.z.B.B.L.c.x.b.b.c.N.B.N.N.c.c.",
"I.T.R.Y.B.N.N.N.L.c.c.l.z.z.c.N.N.B.E.K.XX+X=X;X=X;X:X&X;X%X#X$X&X&X#Xi.$X$X#Xi.0.6.Z V S S.v.z.z.N.P.P.B.N.L.L.L.L.N.c.c.c.c.x.",
"Y.Y.R.Y.N.z.c.N.L.b.c.c.z.z.N.N.L.A.D.J.+X;X,XuXqX,X,X>X&X$X#X#X&X&X$X$X:X,X,X&XoXu.6.A H ! n.c.z.B.I.I.B.L.I.T.I.L.N.z.c.c.x.z.",
"L.P.R.Y.B.M.z.N.N.L.P.B.c.z.z.N.M.m.J 8.=XqXiXiXiXiXqX,X,X&X%X%X&X&X&X&XqXiXuXqX,X-X#X0.H S D.V.B.L.P.P.I.Y.R.R.T.P.N.z.z.z.z.z.",
"N.L.R.Y.N.z.M.z.N.P.Y.I.N.c.M.M.m.H.8.w.;XuXiXiXiXiXqX,X>X&X%X%X%X%X&X>XqXqXuXqXqX,X&XoX6.H J A.B.B.I.I.I.R.R.R.T.P.B.N.N.z.z.l.",
"z.B.R.R.B.z.z.N.I.T.R.T.P.P.N.M.m.J 8.@X&X,X,XuXqXqX-X&X%X#Xp.p.@X#X#X&XwXqXqX,X,X&X&X#X0.8.J m.C.L.I.I.I.I.Y.Y.P.P.P.Y.P.B.c.l.",
"z.B.Y.Y.B.N.N.B.Y.R.R.Y.Y.B.N.m.m.J oX@X%X:X:X:X>X>X#Xi.i.q.u.i.w.w.e.@X-X-X=X%X&X&X%X#Xq.9.H m.C.P.P.I.P.P.L.P.B.B.Y.Y.P.N.c.l.",
"z.N.B.P.I.Y.P.Y.Y.Y.Y.I.B.B.L.m.H A 7.q.p.#X#Xp.#Xp.y.0.r.r.r.r.r.6.6.9.#X#Xi.i.#X%X%X@X@X0.H S n.N.P.P.B.N.N.N.c.N.P.P.N.z.z.c.",
"N.N.B.B.I.Y.Y.Y.I.P.P.L.N.L.I.m.S A 5.9.q.q.q.0.y.w.0.6.T k a.s.r.A Z 6.e.i.w.0.e.@X@X@Xe.0.A S n.N.N.B.z.N.B.c.z.c.B.B.z.z.N.N.",
"L.B.L.L.L.L.L.B.N.N.c.c.N.B.Y.A.H Z d 5.7.7.7.7.7.7.6.5.j a.h.eX3Xs.T T 0.y.0.9.0.0.0.0.0.7.C S n.b.c.c.z.c.P.P.z.z.M.N.N.c.N.N.",
"L.P.P.P.N.c.B.B.c.z.c.c.N.P.T.A.S C s s 5.5.5.5.5.5.5.Z k a.h.mX6Xg.R j 6.9.7.7.5.5.5.5.5.5.C G B.L.c.c.z.c.P.P.z.z.c.N.B.B.B.N.",
"N.N.P.L.c.c.L.L.N.c.c.c.L.L.I.A.D.S p p s d d s s s s d j a.5XNXMX5XE j T T Z Z s s s s s C S S.A.P.c.c.z.c.L.P.B.B.B.L.P.P.P.P.",
"N.N.L.N.z.l.b.L.L.c.c.c.b.L.P.Z.S.D V p s s s s a a s s E a.mXNXNX5Xa.k j j j j s s a a a V ! F.U.P.c.z.c.N.B.L.P.L.B.P.L.L.L.P.",
"B.B.B.c.z.z.L.I.B.c.c.N.N.B.P.Y.m.! Y R h j j j h f j E a.h.mXNXNXmXg.a.j j h j j j j h k Y F V.P.P.N.N.N.L.N.N.B.L.B.c.c.c.L.L.",
"P.P.P.N.z.z.P.P.B.c.N.c.c.c.L.B.C.G ( ;.-.;.r.a.k k k ;.g.cXNXNXNXmXcXg.a.k R E a.a.;.-.W ) S.N.L.P.N.N.N.B.N.N.N.N.N.N.L.L.b.L.",
"Y.Y.Y.I.B.c.P.L.c.c.c.N.l.z.z.N.C.G ( f.g.g.h.g.f.2.&.4.zXnXHXDXCXVXAXzX1.:.1.f.g.h.h.g.s./ D.C.P.P.B.N.c.c.N.L.N.b.L.P.I.P.L.L.",
"I.Y.Y.I.L.L.P.L.c.z.c.c.l.z.z.N.C.Q.^.<X3X5Xh.cXxXkX2.4.nXJXHXHXCXVXnXnX4.2.lXlXh.3X5X2X,.(.S.n.N.B.B.N.c.c.B.N.c.b.L.I.I.I.L.b.",
"B.B.N.c.c.b.L.L.N.c.c.c.z.c.L.I.B.F.Q.^.,.f.g.5XvXlX4.hXnXJXHXHXCXSXJXnXhX4.zXvX3Xd.s.,.(.Q.v.l.z.c.N.N.M.z.N.N.c.c.N.P.I.I.L.b.",
"N.c.c.c.c.x.c.L.B.N.z.z.N.L.I.U.Z.n.S.! P -.a.g.cXbXlXvXGXJXHXHXCXCXHXAXzXlXbXcXs.,.&.I ! ! j.v.l.v.N.N.c.N.N.B.c.c.N.L.I.I.b.x.",
"c.N.N.c.x.x.c.N.M.M.z.N.B.P.L.Z.S.b c l > t E d.cXVXbXBXCXDXHXDXCXCXCXCXBXbXMX5Xa.R i > l c v v.z.c.c.N.z.N.B.L.P.L.B.P.P.L.b.b.",
"N.c.N.c.x.c.c.M.c.N.M.N.P.P.B.n.! N < = X % f E g.eXNXCXyXyXyXyXtXtXtXyXNXNX5Xd.R f + O = < x v j.v.N.N.c.c.N.B.L.P.P.I.I.P.b.b.",
"N.L.c.b.L.N.N.N.N.N.z.M.B.B.F.F x ; 8 - # $ , g r.d.9XwXwXwX9X9X8X9X0X:X9X3Xa.E f & $ # - > < x v v.N.c.c.c.c.c.c.N.P.Y.R.Y.L.N.",
"L.b.c.N.P.L.N.N.N.B.M.N.B.n.S.b < # 7 7 7 7 = < a W u.8X-X-X=X*X*X*X#X$X*Xu.j p , % $ 7 7 - = l b S.B.L.c.c.c.z.c.N.B.I.T.T.P.L.",
"c.c.c.B.I.P.c.x.N.N.M.N.N.n.b c 8 - 7 7 7 8 7 8 , a r.y.oX#X=X=X=X*X#Xi.9.j p & q 3 9 9 7 7 # * l v V.L.L.c.c.c.N.B.N.B.Y.R.Y.I.",
"N.B.B.P.P.P.c.l.c.B.N.M.B.n.b < = 2 2 7 w w 7 7 $ , a A 9.i.*X-X=X*Xu.7.d a & % 7 7 w w 7 7 # - r c n.P.L.b.c.c.L.N.c.c.I.Y.Y.Y.",
"I.I.I.P.P.N.l.c.P.I.B.B.Z.F l > 8 2 7 7 8 w w w q : , p T t.1X8X8Xu.9.T p & % 3 9 e e 9 7 7 7 - = l F Z.N.c.c.c.c.N.z.c.c.L.P.I.",
"Y.Y.I.B.B.N.z.c.P.I.I.B.n.b ; = 2 7 7 7 9 w w e 7 3 $ , R r.d.8X9X1XW p & % 3 w e e e 9 9 7 7 7 # < b n.v.c.z.c.c.c.c.c.c.L.B.B.",
"T.I.L.c.N.z.z.c.P.P.B.M.b z = - 7 2 7 2 7 9 9 9 9 7 2 e g 1.3XmXMX3X-.f 4 4 3 w w e w w 7 9 9 3 3 > z D z.N.c.c.x.c.c.c.I.P.B.N.",
"Y.P.c.x.z.z.z.z.B.L.M.v l = 7 3 7 7 7 7 7 7 9 7 2 7 0 ] @.:.5XVXBXxX-.i 6 5 4 3 9 w 9 7 w 7 3 q - > < c v z.c.c.c.c.c.c.P.P.N.z.",
"I.L.c.x.c.z.z.z.c.N.j.v ; O # # 7 9 9 9 7 7 7 7 @ 4 } ..@.1.xXBXFXxX:.i } ' 2 $ 7 7 7 7 7 w 7 3 = + > ; v j.z.c.c.N.P.B.z.z.z.N.",
"I.P.x.x.x.c.l.l.c.c.j.v * o @ # 2 2 9 7 7 2 2 2 X 0  .+.*.1.xXZXFXvX:.[ ..} 4 o # 7 7 7 q 7 q 7 = = + ; v j.z.c.N.L.P.N.l.l.c.N.",
"Y.P.c.b.b.c.l.l.x.l.j.b * # @ 1 4 @ @ # # 7 2 # @ 5 | +.*.4.cXZXFXvX:.[ X.| 4   @ 3 7 - - : q q : : : ; D M.B.B.B.N.N.N.N.c.B.B.",
"I.P.b.c.c.N.c.x.x.c.Z.v < 2 4 5 5 4 1 X . 1 2 2 4 ' O.%.*.1.xXZXFXvX=.[ +...5 . @ # $ q r t P B K K t z D B.P.L.B.N.z.c.N.B.B.N.",
"c.c.l.l.N.L.N.c.N.B.Y.n.z e } } } _ 0 1 . . 1 5 _  .pX%.*.2.xXZXFXvX=.{ O.o.} 5 . @ > t Y 1.f.2Xs.t.Y Q m.B.c.b.N.N.M.z.z.c.c.c.",
"z.z.z.c.B.L.N.N.P.I.Y.m.z u { ....{ ] 4 . 1 _ '  .O.aX%.@.1.xXZXFXvX=.{ O.O. ._ 5 2 q g ( s.2X7X1X<X( Q n.N.L.c.B.N.N.z.c.M.N.N.",
"z.c.B.B.B.c.z.N.P.U.P.n.z y { #.&.&.g u 2 5 } o.pXpXaX+.@.1.xXBXFXvX=.[ X.O.o. .} ] i Y Y s.4XrX9X<X~ L j.c.L.P.P.P.c.z.N.B.P.Y.",
"z.N.I.Y.B.N.N.N.P.P.L.j.z r i &.,.1.=.[ y 5 o.aXaXaXaX+.*.1.zXBXFXzX=.[ X.O.pXpXo. .u K W s.9XrX1Xt.Q ! j.c.N.P.Y.I.B.c.B.P.Y.Y.",
"B.P.P.Y.T.Y.P.P.L.P.L.j.z r g -.<X2X.X3.{ ' O.aXaXaXpXX.@.:.lXbXBXxX&.{ o.sXdXsXpX .u g W t.1X1Xt.) H.S.V.z.x.c.Y.T.P.B.I.Y.Y.I.",
"I.I.P.P.Y.T.P.P.L.L.L.n.z K W r.4X7XkXkX$.| O.aXsXaXpXo.{ @.f.zXzXhX@.] o.pXdXdXsXX.y f W XXXX<XXX^.D.V.N.z.x.c.I.P.B.B.P.Y.P.P.",
"R.R.I.P.P.B.N.c.x.b.L.Z.Q.Q ) t.4XkXjXjXfX$.pXpXdXdXdXo.{ [ gXhXhXgX] 6  .O.dXdXsXX.u g Q ^.).XX/.K.Z.N.L.L.c.c.N.B.N.c.B.L.P.P.",
"Y.Y.Y.P.B.c.c.z.x.b.P.E.G.J.) s.1X7XkXjXfX$.pXpXdXdXpX .] [ %.%.gX+.` 5 ' o.sXdXdXo.u B ^ './.'.W.W.B.B.L.L.c.c.z.z.z.c.c.B.P.P.",
"L.P.Y.Y.L.c.z.c.N.L.B.Z.F.D.) ) 1X7XjXfX$.$.$.aXdXdXo.` 5 y { #.[ { 6 5 5 ` o.aXaXX.] P (./.`.W.W.B.P.B.P.L.x.x.c.N.c.N.N.N.L.P.",
"L.L.I.I.N.x.l.l.N.L.B.N.N.D.! ) <X2X.X3.#.' | pXaXpX} _ 4 4 i #.[ [ 5 4 4 _  .o.o. .] g ^ )./._.A.B.P.I.L.L.b.x.c.B.N.L.L.B.L.L.",
"L.L.L.L.L.c.x.x.L.L.M.N.M.m.Q ) <X1X2X1.P i }  .o. ._ 1   o r P B t 3 . 2 4 5 ` } } y B ^  X).~.G.G.Y.P.L.N.c.c.L.P.L.P.L.L.L.c.",
"L.L.L.L.L.c.x.x.b.B.N.N.Z.G.^.) t.d.,.( g i y _ ` _ 1 .   o t I L t - o @ 3 4 5 6 y 3 r >.}.{.{.!.G.E.E.B.c.N.N.P.P.P.P.P.L.b.c.",
"c.L.L.L.N.c.x.x.c.N.c.B.E.!.(.<.,.( -.Y f : 3 4 4 4 @     o t L L n = # $ 3 2 2 4 3 @ r ~ {.[.{.(.)._.E.Z.c.z.z.L.P.I.I.L.c.L.L.",
"c.L.I.I.B.N.c.c.N.N.N.Z.!./.(.<.~ ( ~ Y < + + o 1 1 + +   $ n I L M = # 3 3 7 # $ @ X 8 >.].[.[.}. X/.G.Z.N.N.L.I.I.I.L.b.L.P.I.",
"c.c.I.Y.B.N.c.L.P.L.P.Z./.(.{.[.>.>.<.U < X # 7 % 3 $ @ o + z I ~ I > o # 7 7 # o X X > ~ {.{.[.}.{.~.!.F.b.P.I.R.R.P.L.L.L.I.P.",
"c.L.P.I.N.c.L.I.I.I.P.F.~.{.].].].].>.I 8 # 7 7 7 3 3 $ X = t U ~ U > o # # 7 # o   o > ~ [.].].}.{.(.~.F.L.I.T.R.T.L.B.I.I.I.L.",
"L.B.P.L.c.c.L.I.I.T.P.Z.~.{.{.[.].>.U m = # 7 7 7 7 3 $ o = t I Q K > o # 7 7 $ o o o < ~ [.[.[.[.{. X~.v.b.U.I.P.B.B.P.P.L.L.L.",
"P.P.B.c.c.c.b.L.T.T.I.A.~.{.[.].].>.N r - # 7 7 7 7 7 3 O > M U ~ L > # # 7 7 - + o + > U ].].].[.{.).!.v.b.I.I.B.B.P.I.L.N.L.L.",
"T.Y.P.N.c.c.x.b.I.I.I.E.~.(.{.].].~ N r 8 2 7 7 7 7 7 7 > r L ~ U L > - 7 7 9 7 7 # O < L ^ ].].{. X)._.V.c.I.R.P.I.Y.P.B.B.N.c.",
"T.I.B.N.L.b.x.c.b.L.I.W.!.~.{.].].>.I m e 8 8 e - 7 8 q n N / / L t 8 7 9 9 e e 9 7 + > M U ^ ].{.~.'._.U.L.Y.R.Y.I.Y.P.P.B.N.M.",
"P.B.c.c.B.N.N.b.b.L.T.R.W.!.~.{.].].>.U m r r r r < r m U ~ <.^ L t q 9 e y u u y 9 # = < U ^ {.{.~.!.W.b.b.Y.R.Y.I.P.P.P.B.M.z.",
"L.B.c.c.B.L.B.B.b.I.T.R.T.F.!.~.{.].].>.U N N N M M N U >.<.[.].U z = 7 9 y u u e 9 # = < L ^ {.~.!.W.U.c.L.I.Y.P.B.P.P.P.P.N.z.",
"L.L.c.N.L.L.B.L.B.L.U.Y.I.E.W.!.~. X{.{.>.>.^ ^ / >.>.>.].].}.^ U m - - 9 e y y 0 8 O = n N ].~.G.F.U.L.c.c.P.P.N.N.N.P.Y.I.c.l.",
"c.L.L.L.L.c.c.L.N.N.N.L.P.U.I.W.!.~.). X X X X}.{.{.[.].[.[.}.<.>.N r 8 q r u r r e ; l c U Q.!.v.b.x.b.x.x.N.L.M.N.c.L.Y.I.c.c.",
"c.b.b.c.c.c.c.c.c.l.x.z.c.L.L.P.F.W._.'.'.'.'. X}.[.[.[.|.|.{.>.>.~ N m n n m M N N N b ! S.S.v.v.x.k.k.x.x.x.c.c.N.c.L.L.P.P.B.",
"c.c.b.L.c.x.c.x.l.l.l.x.x.x.b.L.c.U.W._.'.'.'.'.}.[.[.|.|.}.].].].>.L N M M M N U U ! Q.Q.S.v.x.c.x.k.k.k.k.l.l.c.N.c.b.L.P.P.P."
};
