/* XPM */
static char *out[] = {
/* columns rows colors chars-per-pixel */
"50 50 247 2 ",
"   c None",
".  c #0A0706",
"X  c #160804",
"o  c #1B1412",
"O  c #280B04",
"+  c #360B05",
"@  c #2A130C",
"#  c #241A17",
"$  c #31120E",
"%  c #162C1A",
"&  c #19361B",
"*  c #2A211E",
"=  c #223C1D",
"-  c #132E24",
";  c #183827",
":  c #1C3C33",
">  c #173B36",
",  c #2D2624",
"<  c #342A28",
"1  c #253C28",
"2  c #343630",
"3  c #580902",
"4  c #491102",
"5  c #581502",
"6  c #490D0B",
"7  c #751A02",
"8  c #6C0F03",
"9  c #733000",
"0  c #423834",
"q  c #402F2B",
"w  c #274718",
"e  c #37591A",
"r  c #2F5018",
"t  c #3A6315",
"y  c #1C442A",
"u  c #1C423C",
"i  c #1A4435",
"p  c #174938",
"a  c #294627",
"s  c #334728",
"d  c #385626",
"f  c #244234",
"g  c #2C4434",
"h  c #23443D",
"j  c #29483A",
"k  c #3B4D34",
"l  c #364937",
"z  c #265437",
"x  c #3B533A",
"c  c #395638",
"v  c #2A5229",
"b  c #3B6326",
"n  c #3A6637",
"m  c #356935",
"M  c #1E4015",
"N  c #435C1E",
"B  c #47691A",
"V  c #597B1C",
"C  c #4F7118",
"Z  c #435C2C",
"A  c #435828",
"S  c #44493C",
"D  c #48583A",
"F  c #494736",
"G  c #466826",
"H  c #536E29",
"J  c #4D7725",
"K  c #587627",
"L  c #496538",
"P  c #566A39",
"I  c #4C7535",
"U  c #597936",
"Y  c #637B38",
"T  c #785000",
"R  c #1A4A43",
"E  c #1B5447",
"W  c #254B44",
"Q  c #2B4C44",
"!  c #2E4E49",
"~  c #264642",
"^  c #324D43",
"/  c #364D45",
"(  c #295349",
")  c #345345",
"_  c #3B5344",
"`  c #34534A",
"'  c #3A554C",
"]  c #3C5B4E",
"[  c #365A48",
"{  c #395C50",
"}  c #3A6455",
"|  c #3D6B4A",
" . c #474A42",
".. c #554B47",
"X. c #445545",
"o. c #435C4D",
"O. c #475A47",
"+. c #445D52",
"@. c #4C5B52",
"#. c #5A5954",
"$. c #535E4B",
"%. c #665A56",
"&. c #486547",
"*. c #576748",
"=. c #57764A",
"-. c #446254",
";. c #4C6354",
":. c #4A6758",
">. c #546554",
",. c #546A56",
"<. c #546B5B",
"1. c #5B6D5B",
"2. c #586757",
"3. c #5C725D",
"4. c #597558",
"5. c #487553",
"6. c #66784A",
"7. c #656A5B",
"8. c #64735C",
"9. c #687758",
"0. c #73765C",
"q. c #77605C",
"w. c #5C7363",
"e. c #5A7868",
"r. c #4D7061",
"t. c #676761",
"y. c #647562",
"u. c #6A7562",
"i. c #657A65",
"p. c #6B7B65",
"a. c #647C6A",
"s. c #6C7D6A",
"d. c #737E6A",
"f. c #767965",
"g. c #657E70",
"h. c #76736B",
"j. c #8D1102",
"k. c #AE0B01",
"l. c #982302",
"z. c #8D2101",
"x. c #A82502",
"c. c #B92A03",
"v. c #C80700",
"b. c #D90900",
"n. c #CE1B01",
"m. c #EB0800",
"M. c #E30A00",
"N. c #F60900",
"B. c #FE0900",
"V. c #FD1400",
"C. c #F91D01",
"Z. c #EA1601",
"A. c #C92C02",
"S. c #D93203",
"D. c #D22E03",
"F. c #F82702",
"G. c #EA3603",
"H. c #F63503",
"J. c #F63904",
"K. c #F83203",
"L. c #E12E03",
"P. c #855300",
"I. c #936E00",
"U. c #8A7A6F",
"Y. c #5B841C",
"T. c #638F16",
"R. c #5B8423",
"E. c #598534",
"W. c #658926",
"Q. c #689525",
"!. c #688E34",
"~. c #70A31C",
"^. c #55884E",
"/. c #6B8349",
"(. c #758559",
"). c #708C50",
"_. c #59896A",
"`. c #4A8673",
"'. c #6C826A",
"]. c #748365",
"[. c #75836B",
"{. c #7B856D",
"}. c #7D8A6C",
"|. c #7A8367",
" X c #6C8372",
".X c #658273",
"XX c #738573",
"oX c #7A8572",
"OX c #758975",
"+X c #7B8973",
"@X c #758A79",
"#X c #7C8D79",
"$X c #758778",
"%X c #699A7B",
"&X c #7B9677",
"*X c #7F956D",
"=X c #949B0D",
"-X c #D5A600",
";X c #EDBD00",
":X c #CC9D00",
">X c #FCC900",
",X c #86886D",
"<X c #869469",
"1X c #838C74",
"2X c #8B8B74",
"3X c #848E7A",
"4X c #888976",
"5X c #988E77",
"6X c #85927C",
"7X c #8C937C",
"8X c #899375",
"9X c #93947C",
"0X c #97957A",
"qX c #94856D",
"wX c #A5957C",
"eX c #97A073",
"rX c #75A48A",
"tX c #7E9080",
"yX c #8C9A84",
"uX c #8A9783",
"iX c #939B84",
"pX c #9B9C84",
"aX c #969B87",
"sX c #9D8D80",
"dX c #A49B84",
"fX c #AD8D86",
"gX c #9BA28B",
"hX c #94A18A",
"jX c #9AA592",
"kX c #82A996",
"lX c #A3A48C",
"zX c #AAA58B",
"xX c #B1A88E",
"cX c #A4AB94",
"vX c #A7AA95",
"bX c #BAAC98",
"nX c #ACB39C",
"mX c #AFB89F",
"MX c #B3B59C",
"NX c #B7B59B",
"BX c #B5BAA2",
"VX c #BABBA2",
"CX c #CEB5A5",
"ZX c #E0B5AC",
"AX c #BEC0A5",
"SX c #DAC5B3",
"DX c #FACBC1",
/* pixels */
"  e D D D k s s z y w a s 1 = s 1 w M w d T.T.r C =XT.t M M w k k k a = k k l a r w M r r & & & t   ",
"  0XzXdXwXdXnXh.c &.,XzX0XU.4X,XU.S D yXiXU U [.^.Q.L yX*.e <X0X0X7X*.0.aX+XoXoXS r &.'.XXa.4.+.=   ",
"  lXzXxXzXzXvXf.k H wXdXwX0X5X4X,XS k gX0X(.7X1X}.'.}.6Xp.s 6X9X,X(.7X[.2X[.[.s.X.&.5.L '.3.:.' :   ",
"  pXxXxXMXnXvX{.A K 5XbXwXpX9X4X4XF k gX0X8X9.{.'.,.,.XX1.a 1.p.}.1X}.[.u.d.d.p./ | 9.&XXX>.+.` >   ",
"  0.2XBXMXnXcX7Xd V *.0.7.%.>. .l s A 3X9X1XO.9.}.[.[.8.g a l 4X3X{.{.d.@.y.y.<.l n 9..X3.<.) R j   ",
"  |.gXBXnXnXvXyXA W.P D D D D D A L ,.}.8X}.9.8X*X+X+XXXi.a 8.+X[.[.].y.7.p.s.w.s G ].-.) j W z ^.  ",
"  9.BXvXnXjXjX@Xd <XAXAXNXAXBXVX8XD P }.1X|.].+X{.OX@XXXe.1 8.s.p.p.a.3.[.i.w.2.j B )./.=.&.5.E.).  ",
"  2.XXoX+X1.>.l d 0XAXAXNXNXBXBXoXd L ].d.u.&XoX{.@X$X Xg.f ' i.y.y.,.[.8.1.2.2.Q d /.).9.6.U Y.Q.  ",
"  B s s s s s N C 8XNXVXBXBXBXnX1XS *.d.d.<.s.s.a..Xa.e.e.i ; ~ _ j g  ._ _ j : i c lXgX0X6X8.1.U   ",
"  K wXwXwXxXxXwXK 2XmXBXmXmXnXjX#.2 2 0 0  .%./ X.f 1 i E a ; - ; % % % % % ; : y D lXlXgXuXuX$X]   ",
"  ,XAXwXwX5XqX2XF ,XnXvXcXh.2 o + 7 l.x.l.l.z.8 $ < 9.P P Y P 6.L N C C G A A N C K gXgXiXuX#Xy.'   ",
"  0.xXwX0XsX5Xf.s u.vX7.# X 4 x.G.J.F.F.C.F.F.F.L.z.@ t.xXMXlXMXpX$.N zXbXwXwXh.D H iXaXyX6X$X@X<.  ",
"  0.dX5XU.t.t.%. .2 o X 7 A.G.J.C.V.B.B.B.B.B.B.B.C.A.5  .dXnXvX7X*.s 5X5XqXU.0.l A iXuXtXuXtX$X#.  ",
"  7.pX5Xh.# . . . + z.D.J.J.F.V.B.B.B.B.B.B.B.B.B.B.N.Z.8 q aXjXuXs.s 5XqXqXU.f.s G ) 2 l / Q j <.  ",
"   .4X4X4XaXU.#.< X 5 S.J.F.B.B.B.B.B.B.B.B.B.V.M.b.N.B.M.8 #.uX7X X1 5X5X2X2Xd.S C K Z D Z d G L   ",
"  w S S  . .X.2 $...X 8 H.B.B.B.B.B.B.B.B.B.N.k.9 P.7 b.N.b.$ 2.O.g = 7X0X9X1X8XS P NXvX2X3Xu.8.~   ",
"  C 6., # * * * # + 5 D.J.B.B.B.B.B.B.B.B.B.b.P.;X;X-Xz.M.m.3 d.@X-.1 uX4X7X6X3Xk L 2X,Xf.>.u.1.`   ",
"  /.xX..X 5 l.l.c.D.G.J.K.B.B.B.B.B.B.B.B.N.k.I.>X;X=XT n.N.8 #.) z w S X.O.X.X.g P 4Xf.0.,.>.;.j   ",
"  2XxXsX* O 7 D.J.J.J.J.K.B.B.B.B.B.B.B.B.B.M.7 :X-XI.7 m.B.j.0 s a t C A A d A I L f.u.1.t.2.o.:   ",
"  |.cXbXfX# . 7 G.J.J.J.F.V.B.B.B.B.B.B.B.B.N.b.j.z.j.v.N.B.k.0 9X,XO.H zXlX0X7XP Z p.7.w.<.+.( R   ",
"  0.dXZXqX# O l.J.J.J.J.K.K.C.B.B.B.B.B.B.B.B.B.B.N.N.B.B.N.j...2X3X$.D pXsXuX7XX.d [ g f i ; > R   ",
"  0.U.q o 4 c.H.J.J.J.J.J.J.J.V.B.B.B.B.B.B.B.N.m.B.B.B.B.N.3 %.8.&.g D yXuXaX$Xk Q.t e & & & w r   ",
"  # O 5 x.S.G.G.G.G.J.J.J.K.K.V.B.B.B.B.B.B.B.v.3 m.B.B.N.b.6 h.XX,.g x 6X6X3Xs.x G /.G Z *.6.6.U   ",
"  5 7 6 + O @ 4 5 j.n.C.C.V.B.B.B.B.B.B.B.B.B.m.3 8 m.B.N.k., g.y.:.; k #X#X#X=.K /./.}.8.iXiX6X+X  ",
"  # * %.q.q.q.%.0 # X 3 x.H.V.B.B.B.B.B.B.B.B.B.b.+ 3 k.m.3 #.e.:.E ; d l X.L R.W.).iX7X'.[.6X6Xd.  ",
"  uXiXgXxXDXDXZXU.* O 4 l.H.V.B.B.B.B.B.B.B.B.B.B.b.j.k.j.* <.~ ; y r H H H V V Y.U 6X7X#X6X+X'.g.  ",
"  8.+X'.c jXdXq O l.S.G.G.K.K.F.V.B.B.B.B.B.B.B.B.B.N.k.$ / > i s '.nXBXNXvXcXgXaXD <.[ tX#X[. X<.  ",
"  >.aX6Xp. .< . 4 5 4 5 4 5 x.A.S.H.F.C.V.V.B.C.C.F.x.$  .~ z G pXjXlXgXhXiX6X+XXXO.e.,. X X.X.X:.  ",
"  g ' j f l o . , 0 ......< # X O 4 z.c.A.A.A.A.x.5 @ 7..XI R.K aXgXjXhXyX6X#XXXs.k R.&Xw.:.-.) [   ",
"  A d L L E.h.h.f.+XvXlXaXaX,Xu.#.< # o @ @ @ $ 0 ..K W.W.!.Q./.yXaXyXyXuX@XXXi.] s Y.Q.!.E.U U R.  ",
"  6.<Xf.2X6.|.|.].&.[.hXjXiX6X].p.u.@.#.t.t.@.l ` : P <X<X,XP H k _ :.w.<.,.| _ k H <XeX9X6X3XyX1.  ",
"  f.9X2X9X*.*.d.].6X].#XuXtXXXi.3.,.+.; g c a - ; = ,X2X2Xf.2.e N e d d H ~.R.G Y./.iXyX3X+X[.XXo.  ",
"  0.0.8.oXO.Z &.+Xd.p.8. XXX'.3.+.j > & & r r d 9.9X0.(.f.u.,.e /.(.(./.6.).!.*.G U 6X6X+XXXs. X:.  ",
"  6X2X1X}.O.A c s.p.y.@.l r.Q : ; & r t C J 0.2X9X|.0.9.u.8.,.G 1X1XoXd.i.X.g.w.g O.#XuX#X X X X-.  ",
"  1X1X+XoX2.A d r.a.w.` > - % w e H H V T.<XwX6.d.f.9.7.>.2.;.1 p.s.p.y.3.1 <.,.g _ $X@X X Xg. X-.  ",
"  XX+XoXXX&.G J ; : ; % w r 6.gXcXlXaXjXD *.9X8X*.9.7.>.@._ ^ ; ,.y.7.:._ <.c ] h 1 -.<.e.w.} ` (   ",
"  i.[.@X'.I Y.Y.e a v G Y.V BXpX7X3X+Xs.k L +X3.9.2.2.@.;.@.1 y o.w.:.'.r.;.:.[ i y w a ; & & 1 y   ",
"  a g k L !.W.<X<X,X<X6.U K 6X4X3X+X$Xi.l c u.t.8.>.o.>.:.-.` a g ' '.;.-.] ( W u d K {.XXy.:.[ v   ",
"  9.7X6X+X*.9.pX0XiXiXcX1.B #X#XOX$X$Xa.l d w.2.;.@./ Q +.` ! ; I -.r.-.] ( ! R p I I w.:.+.' ` h   ",
"  1X#X'.i.O.8.9X7X7X3XuX_ d OX@XXXg..Xr._ d -.<.o.' / j W ! R W rX.X} { ` ! E E | E.&.o.+.{ ! W >   ",
"  5.XXi.w._ 1.6X6X3X#XXX/ r <.a.i.g.@Xe.l b u } ] ! ! R - y R z rX%X_.{ ( } ^.^.^.=.'.) ` ^ W h y   ",
"  f l ) [ &.3.3X#X@X$X X) e d 1 1 1 ; 1 e J ; i R E R p y v m E.E.%X).E.E.Q.Q..X`.n a ; v i i z R.  ",
"  G E.=.E.K 4.XXOX X X.X( d <X+X{.s.8.y.5.G b y ; y z b R.E.8X<X).(.*X*X'.^.=.5.[ J J J R.B G J R.  ",
"  9.6.*X9.C &. Xw.a.e.e.( s gX[.u.1.:.:.-.g 4.U =.9.=.G Y.'.yX[.OX4.p.a.4.,.+.] j d }.}.'.9.'.3.D   ",
"  3XgXoXu.s v j ) ) } R E f {.i.2.;.+.{ ] : &.aX6X#X6X-.e p.u.8.1.&.3.<.@.' ` ! : x d.s.i.4.:.-.Q   ",
"  i.oXy.1.c L d c [ r.( m k oX,.@.+.' ` ! ; O.#X+X$X X-.a x 2.2.>.:._ ] ' ` ` ~ u x i.y.<.-.o.' ~   ",
"  x ,.2.:.OX1.5.=._._.rXm b X.-.+.' ! Q ~ : D $X$X X'.-.w &.o.+.+.` Q _ ` Q W z u c >.+.+.' ` ! :   ",
"  ,._ o.e.<.+.[ [ [ rXrX`.L OX+.' ! Q Q : > _ $X Xg.g.} a &.:.` ~ ~ h ~ Q W ( p 5.&.+.+.' ' ` ! R   ",
"  x [ j .X-.{ { ( } rXrX5.m E z ! ~ R ~ ) a r..X.X Xg.h c | { ( ~ : u i R E p r.%X| z [ [ ` ( ( R   ",
"  Y.R.d z { } } | ^.Q.!.rXE.M y ; ; ; ; v e =.] ( ` ( &.E.v - - ; ; > > b ~.R.^.^.m a ; ; ; M y m   "
};
