/* XPM */
static char *out[] = {
/* columns rows colors chars-per-pixel */
"50 50 239 2 ",
"   c None",
".  c #090605",
"X  c #170905",
"o  c #1B1614",
"O  c #270A03",
"+  c #380B04",
"@  c #27120C",
"#  c #3B1106",
"$  c #261C19",
"%  c #341A16",
"&  c #162C1A",
"*  c #19361B",
"=  c #28221D",
"-  c #233D1D",
";  c #132E24",
":  c #1C3B23",
">  c #183728",
",  c #1C3C33",
"<  c #173B36",
"1  c #2D2925",
"2  c #362C2A",
"3  c #253B29",
"4  c #353832",
"5  c #460A04",
"6  c #561402",
"7  c #490C01",
"8  c #661802",
"9  c #791A01",
"0  c #6D0802",
"q  c #443C38",
"w  c #6D2600",
"e  c #274718",
"r  c #37591A",
"t  c #2F4F18",
"y  c #3A6315",
"u  c #1C442A",
"i  c #1C423C",
"p  c #1A4436",
"a  c #0F4031",
"s  c #294627",
"d  c #334728",
"f  c #385626",
"g  c #244334",
"h  c #23443D",
"j  c #2A443A",
"k  c #2B4737",
"l  c #3B4D34",
"z  c #334C3B",
"x  c #364836",
"c  c #245236",
"v  c #3B523A",
"b  c #395638",
"n  c #2A5229",
"m  c #3B6326",
"M  c #3A6637",
"N  c #356935",
"B  c #1E4015",
"V  c #435C1E",
"C  c #47691A",
"Z  c #597B1C",
"A  c #4F7118",
"S  c #435C2C",
"D  c #435828",
"F  c #45483D",
"G  c #48583A",
"H  c #466826",
"J  c #536D29",
"K  c #4D7725",
"L  c #587627",
"P  c #496538",
"I  c #566A39",
"U  c #4B7436",
"Y  c #597A36",
"T  c #637B3A",
"R  c #654000",
"E  c #1A4A43",
"W  c #1B5447",
"Q  c #254B44",
"!  c #2B4C44",
"~  c #2E4E49",
"^  c #264642",
"/  c #344E44",
"(  c #295349",
")  c #345345",
"_  c #3B5344",
"`  c #34534A",
"'  c #3A554C",
"]  c #3C5B4E",
"[  c #365A48",
"{  c #3A5C50",
"}  c #3A6455",
"|  c #3D6B4A",
" . c #4A4943",
".. c #534D49",
"X. c #445545",
"o. c #425B4D",
"O. c #465A47",
"+. c #535D49",
"@. c #445D52",
"#. c #4B5A52",
"$. c #5B5954",
"%. c #665B52",
"&. c #476547",
"*. c #586748",
"=. c #57764A",
"-. c #446254",
";. c #4C6354",
":. c #4B6758",
">. c #536554",
",. c #546A55",
"<. c #546B5B",
"1. c #5B6D5B",
"2. c #5A6856",
"3. c #5C725D",
"4. c #597558",
"5. c #487553",
"6. c #65774A",
"7. c #65685B",
"8. c #64735C",
"9. c #687758",
"0. c #72775B",
"q. c #697446",
"w. c #536D63",
"e. c #5C7363",
"r. c #597868",
"t. c #427862",
"y. c #696962",
"u. c #647562",
"i. c #6A7562",
"p. c #657A64",
"a. c #6B7B65",
"s. c #647C6A",
"d. c #6C7D6A",
"f. c #737E69",
"g. c #757965",
"h. c #657E70",
"j. c #7D7A72",
"k. c #970800",
"l. c #861B01",
"z. c #8A0B01",
"x. c #B10A01",
"c. c #942202",
"v. c #A72602",
"b. c #B92902",
"n. c #D70900",
"m. c #D30C00",
"M. c #E70800",
"N. c #F40900",
"B. c #FE0900",
"V. c #FD1401",
"C. c #FB1B01",
"Z. c #F71C01",
"A. c #D93203",
"S. c #D02C02",
"D. c #E92902",
"F. c #F72802",
"G. c #EA3403",
"H. c #F63503",
"J. c #F63904",
"K. c #F83303",
"L. c #916500",
"P. c #996D00",
"I. c #847D6C",
"U. c #5B841C",
"Y. c #638F16",
"T. c #5B8424",
"R. c #598534",
"E. c #668925",
"W. c #689525",
"Q. c #678D35",
"!. c #70A31C",
"~. c #55884E",
"^. c #6B8349",
"/. c #6E8254",
"(. c #768658",
"). c #73924E",
"_. c #59896A",
"`. c #4A8673",
"'. c #6C816A",
"]. c #75836B",
"[. c #7B856D",
"{. c #7D8A6C",
"}. c #778366",
"|. c #6C8372",
" X c #658273",
".X c #738573",
"XX c #7A8572",
"oX c #758975",
"OX c #7B8974",
"+X c #7C8D79",
"@X c #758979",
"#X c #699A7B",
"$X c #7B9677",
"%X c #7F956D",
"&X c #B38900",
"*X c #83B21A",
"=X c #CA9D00",
"-X c #DFAE00",
";X c #F6C500",
":X c #879558",
">X c #86896D",
",X c #869469",
"<X c #838C74",
"1X c #8B8B73",
"2X c #848D7A",
"3X c #898878",
"4X c #988E78",
"5X c #85927C",
"6X c #8C947C",
"7X c #8A9375",
"8X c #93947C",
"9X c #96957A",
"0X c #94856D",
"qX c #A3977D",
"wX c #9DA27E",
"eX c #75A48A",
"rX c #7E9080",
"tX c #8D9A84",
"yX c #8A9683",
"uX c #939B84",
"iX c #9C9C84",
"pX c #959986",
"aX c #8D8E83",
"sX c #A49B83",
"dX c #9BA28B",
"fX c #94A28B",
"gX c #9BA391",
"hX c #82A996",
"jX c #A2A58C",
"kX c #AAA58A",
"lX c #A5AA95",
"zX c #ACB29B",
"xX c #B4B59C",
"cX c #B4AB92",
"vX c #BBBCA2",
"bX c #B5B9A2",
"nX c #C5B7A0",
"mX c #BAC2A5",
"MX c #C8C7AD",
/* pixels */
"  r G G G l d 4 c u e d d 3 - 3 d e e - f Y.Y.t A *XY.y B e * l l l s - x l x s t e B e e * * * y   ",
"  9XkXqXsXsXxXg.b &.>XsX9XI.3X>XI.F G tX8XY Y }.^.W.P tX*.r ,XqX8X6X*.0.pXOXXXXXG s &.(.oXs.<.-.-   ",
"  jXkXcXkXkXjX].l J 4XqXsX9X4X1X>XF l dX9X(.6X{.].9.oX5Xa.d 5X7X>X(.6X}.<X[.[.g.X.&.5.P /.e.:.] ,   ",
"  iXkXcXzXzXlX[.D L 4XnXqXiX9X3X>XF l dXfX7X9.[.'.2.4..X3.3 8.a.{.7X[.].i.f.f.s._ | 9.$XoX;.-.~ p   ",
"  0.1XxXxXzXlX6Xf Z *.0.7.%.*. .x d l 7X7X7XO.8.{.}.].8.x e x 2X<X{.[.f.;.i.y.w.! S /.s.e.<.) h c   ",
"  >XdXbXxXzXzXtXD E.I G G G G G D P ,.>X7X{.0.7XOXOXoXoXu.s 8.OX].].d.p.7.a.a.1.k H '.-.) ! k k ~.  ",
"  9.bXlXzXlXfX@Xf 1XMXvXxXvXvXvX1XP I {.[.}.}.OX{.OXOX|.s.3 e.d.d.a.a.4.'.i.e.w.k C ).6.&.&.5.~.).  ",
"  2..XXX.X1.>.z f 9XmXxXvXvXbXbXOXl P }.f.a.+X[.OX@X@X Xh.g _ s.u.u.,..X8.1.2.>.z f ^.)./.6.R.U.W.  ",
"  C d - 2 d d V Z 1XxXmXbXbXzXgXI.$. .......y.d.XXd.j. Xr.i , h [ j g F _ / z , i b jXiX8X6X8.1.I   ",
"  L qXkXsXcXkXqXI ,XzXzXlXaX .o . X + 8 8 8 0 8 # @ 4 r.W u > ; : & * & & ; ; > u G jXjXuXyXyX@X]   ",
"  I.nXqXaX4X3X3X7.%...2 & X X 5 l.S.D.F.F.C.C.F.D.S.9 @  .T I q.I D A A H D D V A L dXdXpXtX+Xu.'   ",
"  0.kX4Xq o X . X O # 6 l.v.S.D.F.V.B.B.B.B.B.B.V.V.F.b.6 q pXzXiX+.V sXnXqX4XI.D I uXfXtX5X@X@X)   ",
"  0.9X..o . . O 9 b.G.H.J.J.K.V.B.B.B.B.B.B.B.B.B.B.B.V.D.9 1 I.aX2.d qXqX0XI.g.x S pX6XyXyXrX@X@.  ",
"  7.sX4X3Xj.y...$ X 6 b.J.J.J.V.B.B.B.B.B.B.B.B.B.B.B.B.B.M.0 1 2Xi.- 4X0XI.I.g.d H z j x / ^ j j   ",
"   .3X1X2Xg.o q y. .. X l.J.J.Z.B.B.B.B.B.B.B.V.M.z.9 k.M.B.N.5 7.d.3 4X4X0X>Xg.G A L G S S f S m   ",
"  e x 4 4 3 . X X X . X 7 H.J.F.B.B.B.B.B.B.B.N.l.=X-X&X9 n.B.x.q x 3 8X9X9X6X3Xl I xXkX6X3Xa.9.k   ",
"  A J *.q.*.$ 6 b.v.v.b.G.J.K.B.B.B.B.B.B.B.B.m.R ;X;X=X&Xz.N.m.% @.3 6X2X6X6X<Xl P 8X>Xg.7.8.1.`   ",
"  q.kXkXsXiX%.O v.G.J.J.J.H.V.B.B.B.B.B.B.B.B.n.R ;X;X=XP.l.N.M.+ [ - F X.X.X._ x P >Xg.i.>.>.#.j   ",
"  7XcXsX8Xy.2 . O c.H.J.J.H.C.B.B.B.B.B.B.B.B.N.c.L.P.R 8 n.B.M.5 4 C C D D D D U P g.i.2.u.,.o.,   ",
"  >XjX4Xq @ 7 8 8 v.H.J.J.H.C.B.B.B.B.B.B.B.B.B.B.m.m.x.m.B.B.M.5 2.O.J kXjX8X6X*.S i.7.e.<.@.~ E   ",
"  9.8X2 O b.G.J.J.H.J.K.J.J.K.C.B.B.B.B.B.B.B.B.B.B.B.B.B.B.B.M.+ y.#.G iXpXtX5XX.f _ k g p , < E   ",
"  +.q O b.J.H.D.G.J.J.H.H.J.K.C.B.B.B.B.B.B.B.B.N.n.N.B.B.B.B.m.% <.x G 8XyXpXoXl W.y r & * : e t   ",
"   .X l.A.v.9 6 l.A.K.H.H.F.V.B.B.B.B.B.B.B.B.B.n.+ n.B.B.B.N.z.2 ,.g v 2X6X5Xd.v H Q.H P 9.F 2 1   ",
"  . 6 c.@ X $ 1 $ O 9 D.Z.V.B.B.B.B.B.B.B.B.B.B.N.0 5 n.N.B.n.+ y.,.> l +X+X@X*.L ^.^.OX8.aX1 . .   ",
"  . X 2 %.^.(.).:X%.X 6 c.D.Z.B.B.B.B.B.B.B.B.B.B.M.7 5 k.M.k.% :.( > d v X.P E.E.^.tXyX].].3X7.4   ",
"  XX5XuX9./.mXxX0.I.F . O A.K.B.B.B.B.B.B.B.B.B.B.B.M.k.z.x.+ #.> u t K L C L Z U.T 5XyX+X5XXX|.+X  ",
"  u.XXp.b fXiX..1 o X 7 b.G.F.C.C.V.B.B.B.B.B.B.B.B.B.B.n.8 1 , s }.zXbXxXlXlXdXpXG ,.X.+X+X|.|.<.  ",
"  >.fX5Xa.z j.$ . X 8 9 l.v.v.v.S.G.K.F.C.V.B.B.B.B.C.S.8 = ,.G fXlXdXgXiXfX2X+X.XX._.:.|.|.'. X-.  ",
"  k ' k g s 6X6X7.q $ $ o @ X X X 5 9 b.G.G.D.D.D.A.l.+ 1 6.T.L uXjXgXfXyXyX+X.X'.l R.%Xe.:.-.) [   ",
"  f r X.P L <X1X>X[.iXpXyXaXaXg.%.4 $ @ O + + # # % q *.T E.E.Q.tXpXtXtX$X+X.Xe.] d U.E.Q.R.Y Y T.  ",
"  6.1X(.7X6.g.}.}.&.].dXdXtX5X].g.d.u.X.%.$.$...> / q.>X,X1X*.L x v >.e.w.,.X.&.n K ,XwXuX7X2XtX4.  ",
"  g.8X1X8X*.*.f.'.5X].oXtXrXoXp.1.,.' 3 j b s > : - >X1X1Xg.2.r V f f f J !.T.K T.^.uX6X2XXX]..Xo.  ",
"  9.0.7.[.O.S &.OX].a.8.|..X'.3.-.g , * B e t d 9.1X(.}.g.i.1.r 6.(.(./.6.).Q.*.H Y 6X5XOX.X|.|.:.  ",
"  6X8X<X[.O.D b d.a.u.;.z <.! , > * t y Z K 0.1X9X>Xg.6.9.1.2.H <X<X].'.s.X.d.e.x X.+X+X@X|.|.|.-.  ",
"  OX<XOX.X1.m b w.s.e.~ > > & e r J L L U.:XsXq.}.g.7.7.,.1.;.3 a.d.a.i.3.3 <.;.h v @X@X@X|. X|.-.  ",
"  ].OXXX].O.H L > , > & e t 6.dXlXjXpXpXG =.8X5X*.9.7.,.#.X.~ > ,.i.3.:._ <.b ] h 3 ;.w.e.e.} ) (   ",
"  p..X@Xd.U T.U.r s s H L U.xXdX6X5XOXf.x P XX7.8.2.2.#.#.;.3 : o.e.>.'.w.;.:.{ i B e e : 3 * 3 u   ",
"  d s v I Q.E.:X,X,X,X/.Y L 2X5X+XOX@Xs.x b a.u.3.>.o.>.:.@.` s k '  X;.-.] [ Q i b L oXd.r.;.[ n   ",
"  6.yX2XOX*.9.iX8XuXpXjX1.C +X+XoX.X.Xs.x f e.<.>.#._ / -.` ~ : U -.<.{ ] ` W E c | U 3.:.@.' ~ h   ",
"  OX2X|.u.O.8.6X6X6X5XyX/ f OXoX@X X Xw._ f #.,.o.' ~ h Q ~ E Q #X#X-.{ ` ( W E N R.&.o.@.' ` Q <   ",
"  ,..Xu.e._ 1.5X5X+X+X.X/ t w.s.r.h.@Xr.z m i } { ~ ~ W > u p c $X#X_.{ [ | 5._.~.=.'.) ` ~ Q i u   ",
"  g z z [ &.3.5X+X+X@X X_ r f 3 3 3 3 3 r K , a E W E a u n N R.Q.#X/.R.R.W.W._.`.| g 3 t p i c T.  ",
"  H Y ~.Y T.1.oX.XoX Xh.~ f ,X{.{.d.8.3.=.H H s > u n m T.U 7X,X).'.%X%X'.~.=.4.M K K K U.K H K U.  ",
"  6.9.,X^.H &.|.e.r.s.r.( d dX].u.1.,.;.} g 4.U =.9.=.U U.}.tX[.oX4.d.'.4.&.@.{ h f {.{.'.9.'.4.G   ",
"  2XgX[.p.d n j [ z } E W k OXi.1.;.@.{ ' , &.pX5X+X5X-.r a.i.1.4.&.1.<.@.o./ ~ < v d.d.8.<.,.-.!   ",
"  p.XXi.1.v S m b ( r.( N n .X,.#.@.' ` ~ 3 O.+XOXoX|.-.s b 1.>.:.:._ ] ' / ~ Q i v i.s.<.-.{ ' ^   ",
"  v ,.<.;.oX3.5.=._._.eXN m X.#.o.' ~ ! ^ , v +X@X|.h.-.s &.o.;.@.` ! _ ) ~ ( c p b >.#.@.' ' ~ E   ",
"  <._ o.s.:.@.[ [ [ eXeX`.P @X@.' ~ ! ^ i < _ @X|.h.h.-.s &.&.) ! ^ ^ h ! Q ( p 5.&.@.o.' ' ` ~ i   ",
"  v [ k  X-.{ { ( } eXeXt.N ( c ~ ! Q i ) s w. X X|.h.h N ] } ~ ^ , p < W c W t.#XM [ ` ` ` ~ ( i   ",
"  U.T.f c { } } | ~.W.R.#XR.e u > > > : n y =.{ ( ` ( &.Y n ; ; > > < < m !.K ~.~.N s * : : u u N   "
};
