/* XPM */
static char *out[] = {
/* columns rows colors chars-per-pixel */
"50 50 247 2 ",
"   c None",
".  c #080404",
"X  c #1C0600",
"o  c #160B09",
"O  c #191514",
"+  c #290901",
"@  c #360B06",
"#  c #281917",
"$  c #2F1510",
"%  c #162C1A",
"&  c #19361B",
"*  c #233C1E",
"=  c #2E211E",
"-  c #132E24",
";  c #183827",
":  c #1C3C33",
">  c #173B36",
",  c #2A2422",
"<  c #342A27",
"1  c #253B28",
"2  c #39312E",
"3  c #3D3A37",
"4  c #263D31",
"5  c #470A02",
"6  c #441103",
"7  c #4D1001",
"8  c #581402",
"9  c #550503",
"0  c #681802",
"q  c #761A02",
"w  c #670A07",
"e  c #6C2A00",
"r  c #453C3A",
"t  c #274718",
"y  c #37591A",
"u  c #2F5018",
"i  c #3A6315",
"p  c #1C442A",
"a  c #1C423C",
"s  c #1A4436",
"d  c #0F4031",
"f  c #294627",
"g  c #334728",
"h  c #385626",
"j  c #244234",
"k  c #23443D",
"l  c #2A4738",
"z  c #3B4D34",
"x  c #334C3C",
"c  c #364837",
"v  c #245236",
"b  c #3B523A",
"n  c #395638",
"m  c #2A5229",
"M  c #3B6326",
"N  c #3A6637",
"B  c #356935",
"V  c #1E4015",
"C  c #435C1E",
"Z  c #764E00",
"A  c #47691A",
"S  c #57791B",
"D  c #4F7219",
"F  c #435C2C",
"G  c #435828",
"H  c #42483C",
"J  c #475839",
"K  c #495436",
"L  c #466826",
"P  c #536E29",
"I  c #4D7725",
"U  c #587627",
"Y  c #496538",
"T  c #556939",
"R  c #4B7436",
"E  c #597936",
"W  c #62793A",
"Q  c #1A4A43",
"!  c #1C5243",
"~  c #1C5951",
"^  c #254B44",
"/  c #2B4C44",
"(  c #2A4945",
")  c #344E44",
"_  c #2A5349",
"`  c #345345",
"'  c #3B5344",
"]  c #34534A",
"[  c #3A554C",
"{  c #3C5B4E",
"}  c #365A48",
"|  c #3A5C50",
" . c #3A6455",
".. c #3D6B4A",
"X. c #494942",
"o. c #445545",
"O. c #435B4D",
"+. c #465B47",
"@. c #53594C",
"#. c #445D52",
"$. c #4A5F53",
"%. c #575551",
"&. c #655652",
"*. c #476547",
"=. c #566747",
"-. c #587649",
";. c #446254",
":. c #4C6354",
">. c #4A6658",
",. c #536554",
"<. c #546A56",
"1. c #546B5B",
"2. c #5B6D5B",
"3. c #596855",
"4. c #5C725D",
"5. c #597558",
"6. c #487553",
"7. c #657749",
"8. c #65695B",
"9. c #64735C",
"0. c #687859",
"q. c #6F7159",
"w. c #556B61",
"e. c #5C7363",
"r. c #597868",
"t. c #427862",
"y. c #6C6862",
"u. c #736B64",
"i. c #647562",
"p. c #6A7462",
"a. c #657A65",
"s. c #6B7B65",
"d. c #647C6B",
"f. c #6C7D6A",
"g. c #6F7668",
"h. c #727E69",
"j. c #757A65",
"k. c #657E70",
"l. c #7E7D73",
"z. c #891C02",
"x. c #900B00",
"c. c #BB0901",
"v. c #AA1601",
"b. c #AB0D01",
"n. c #952302",
"m. c #8A2C01",
"M. c #A82702",
"N. c #B92902",
"B. c #C80900",
"V. c #D70800",
"C. c #D61C01",
"Z. c #EC0800",
"A. c #E40900",
"S. c #F50800",
"D. c #FE0900",
"F. c #FD1300",
"G. c #F81B01",
"H. c #ED1B01",
"J. c #D93103",
"K. c #C52C02",
"L. c #F92902",
"P. c #EC3603",
"I. c #E23303",
"U. c #F53503",
"Y. c #F63904",
"T. c #F83003",
"R. c #E82B02",
"E. c #956C00",
"W. c #897B6E",
"Q. c #AB7671",
"!. c #5B841C",
"~. c #638F16",
"^. c #5B8324",
"/. c #598534",
"(. c #668925",
"). c #689525",
"_. c #688D36",
"`. c #70A31C",
"'. c #55884E",
"]. c #6B8349",
"[. c #758559",
"{. c #708C50",
"}. c #59896A",
"|. c #4A8673",
" X c #6C826A",
".X c #748365",
"XX c #75836B",
"oX c #7B856D",
"OX c #7D8A6C",
"+X c #7A8367",
"@X c #6C8372",
"#X c #658273",
"$X c #738573",
"%X c #7A8573",
"&X c #758975",
"*X c #7B8973",
"=X c #7C8D79",
"-X c #758979",
";X c #699A7B",
":X c #7B9677",
">X c #7F956D",
",X c #9EA20D",
"<X c #D9AA00",
"1X c #EABA00",
"2X c #F8C600",
"3X c #85886E",
"4X c #869469",
"5X c #848C74",
"6X c #8B8C73",
"7X c #848E79",
"8X c #898977",
"9X c #978D78",
"0X c #85927C",
"qX c #8C947C",
"wX c #899375",
"eX c #93947C",
"rX c #97957B",
"tX c #94856D",
"yX c #A6957B",
"uX c #97A073",
"iX c #75A48A",
"pX c #7E9080",
"aX c #8C9682",
"sX c #8D9A84",
"dX c #889784",
"fX c #939B84",
"gX c #9B9C84",
"hX c #969A87",
"jX c #938D83",
"kX c #A59B84",
"lX c #9BA28B",
"zX c #94A18A",
"xX c #94A592",
"cX c #A2A58C",
"vX c #AAA58A",
"bX c #A5AB95",
"nX c #ACB29B",
"mX c #B2B59D",
"MX c #B7B59B",
"NX c #B4AB92",
"BX c #B5BAA2",
"VX c #BABBA2",
"CX c #AFB8A1",
"ZX c #C39D96",
"AX c #C5B7A0",
"SX c #BEC0A5",
"DX c #C8C7AD",
/* pixels */
"  y K J K z z f v f V f g 1 * g f t t * h ~.~.u D ,X~.i V V t z K g f 1 z z c f u u V t u & & & i   ",
"  rXvXyXkXkXmXg.x *.3XvXrXW.8XW.l.H Y eXuXE E XX'.).Y sX=.y 4XrXeXwX3.q.hXoXoX%Xo.t Y  X&Xa.1.;.*   ",
"  cXvXNXvXcXvXh.h P yXkXyXrXeX6X3XH z lXrX.XqX5X$X XOX0Xs.g 0XeX3X[.qXXX5XoXXXh.[ *.6.Y  X4.:.{ :   ",
"  gXvXNXmXNXbX%XG U rXAXkXrXeX6X6XH z gXrX5X0.oX X<.<.$X2.f 2.s.OXwXoX+Xp..Xh.d.' ..0.0X&X:.#.] >   ",
"  q.6XBXCXnXbXqXh S =.u.&.8.%.o.c c z wXwXwX+.0.OX.XXX9.l t c 7X5X*XoXh.@.a.i.w.x n  Xa.4.1.` a v   ",
"  3XlXnXmXnXnXsXG (.T K J J J J K L 5.OXwX3X0.wX*X*X*X&Xa.f 9.%XXXXXf.i.4.s.s.2.h L  X*.` x _ l '.  ",
"  s.BXnXnXbXxX&Xh 4XDXVXSXSXVXVX5XJ T OXoXXX.X*XOX&X=X@Xd.4 i.h.f.s.a.4.XXa.e.1.l A {.7.*...6./.{.  ",
"  =.h.%X$X2.,.c h wXSXSXMXMXBXBXoXh Y +X.Xs.=XOXOX=X&X@Xr.4 ] d.i.i.<.XX9.2.3.>.k h {.{.[.7.E !.).  ",
"  A g 1 2 u g y U wXMXVXBXBXBXCX*XK +.g.g.2.h.h.a.#Xk.r.r.s : k ' l l ' o.) x j a F cXgXeX0X9.3.E   ",
"  U yXvXyXNXNXyXU 6XmXMXCXCXCXbXl.2 = < = < < 2 r w.4 j ! p ; % ; % & % % % - : p J cXcXhXaXdX-X[   ",
"  3XAXyXyX9X9X3XK OXnXnXbXhX%.= @ 0 M.N.K.N.N.N.z.6 = X.=.W T 7.Y C D A G G G C D E lXlXhXsX=Xd.[   ",
"  y.vXyX9XhXtXj.g 9.bXfX@.O + q J.Y.T.G.D.D.F.G.L.U.N.6 r hXcXMXgX@.A vXAXyXyXu.z P hXzXsX0X-X-X`   ",
"  . O %.&.y.y.y.%.%.c O + z.J.Y.Y.L.D.D.D.D.D.D.D.G.L.R.x.= l.bXqX=.g yX9XtXW.u.z F rXaXdXdXpX-X#.  ",
"  , . 6 6 6 6 6 @ 6 0 M.I.Y.Y.U.L.D.D.D.D.D.D.D.D.D.D.D.S.v.$ g.aXf.1 9XtXtX3Xj.g F b l c ) ( 4 l   ",
"  %.O 0 J.P.P.P.P.U.U.U.Y.Y.U.F.D.D.D.D.D.D.D.D.D.Z.A.Z.D.S.b.# *X X1 9X9XtX8Xj.J D U J F F G F M   ",
"  t %.O 0 P.Y.Y.Y.U.Y.Y.Y.Y.U.F.D.D.D.D.D.D.D.S.B.e Z q B.S.Z.w %.c 1 eXrXeX8X7Xz T mXvXqX5Xp.9.l   ",
"  S W 8.# 6 N.P.Y.Y.Y.Y.Y.Y.U.F.D.D.D.D.D.D.D.A.e 1X2X<XE.B.S.c.2 $.1 aX8X0X0X8Xz Y eXW.j.3.i.2.]   ",
"  7.vXkXW.< $ w n.N.N.N.n.M.P.L.D.D.D.D.D.D.D.B.E.2X2XE.E.x.S.V.$ ] 1 J o.o.o.' c Y 3Xj.q.,.3.$.k   ",
"  6XNXgXeX8Xu.r o X X X + q R.G.D.D.D.D.D.D.D.A.8 <X1X,XZ c.S.V.@ g A A G G G G R Y j.p.2.i.<.{ 4   ",
"  3XcXgXfXhXjXX.o + 8 z.N.P.U.G.D.D.D.D.D.D.D.D.B.m.m.e x.S.D.A.@ 9.+.P vXcXeXqX=.L s.8.e.1.#.` Q   ",
"  q.cXfXdXjX2 o 7 N.J.U.U.U.L.D.D.D.D.D.D.D.D.D.D.S.Z.Z.S.D.D.V.@ g.@.J kXjXaXaXo.h } l j s > > Q   ",
"  +.5XfXjXy.. o 8 0 q n.J.P.L.G.F.D.D.D.D.D.D.D.S.S.D.D.D.D.S.V.$ +.c J aXaXsX*Xz (.i y % & & t u   ",
"  J u.X.jXW.O O o O O o + z.P.Y.T.D.D.D.D.D.D.D.A.x.S.D.D.D.S.b.2 e.j b 0X0X7Xf.n L _.L Y T 7.=.E   ",
"  D 7.O O 2 < %.Q.NXZXQ.9 . q U.T.D.D.D.D.D.D.D.A.@ x.S.D.S.Z.9 %.,.; z =X7X%X-.U ].].*X0.aXW.X.,   ",
"  7.lXu.o . + o . . o o o . 5 R.Y.F.D.D.D.D.D.D.S.c.+ x.V.D.c.$ >._ ; g b o.*.(.(.].zXqXh.XXg.O .   ",
"  5XfXfX8.o @ n.N.v.v.v.v.b.C.T.U.F.D.D.D.D.D.D.D.S.b.5 9 B.9 3 : p u I U A S S !.E 0X0X=X0X&X=Xl.  ",
"  9.*X XJ 8X< X 0 M.J.R.P.P.U.U.T.D.D.D.D.D.D.D.D.D.D.Z.V.x.# ) m j.nXBXMXnXcXxXhXJ <.{ pX=X$X@Xw.  ",
"  ,.zX0Xf.j c u., o . X 6 0 n.N.J.R.H.F.D.D.D.D.D.D.D.H.v.$ +.F hXbXlXlXhXhX0X$X$X+.r.1.@X@X#X#X;.  ",
"  l ` x j 4 eXqX6Xl.8Xu.r O o o X + @ q v.H.G.G.T.U.R.q $ K (.E gXlXxXzXsX0X=X$X@Xh /.>Xe.>.;.` }   ",
"  h h J R U 3X6X3X*XnXbXgXqXjXy.2 O . . X w n.z.q 0 $ 2 =._.).W aXhXfXsXpX=X$Xe.{ g !.(._./.E U ^.  ",
"  7.4X+XwX-..X+X.X*.OXzXzXsX0X.Xg.8.@.X.< , = , 3 c =.6X6X3X=.U z x ,.e.1.5.+.*.m P 4XuXfXqX0XsX4.  ",
"  j.jX6XrX=.=.h..X0X X=XdX0X&Xa.4.3.#.; x T b c 1 1 3X6X6Xj.8.y C h h F L `.^.I U ].fXsX5X*X X$XO.  ",
"  q.j.0.%Xo.F *.*XXXs.9.@X$X X5.O.l > & & u u h q.wX[.j.j.i.2.h 7.[.[.].7.{._.=.L E 0X0X=X$X X@X>.  ",
"  0X8X3X3X+.G n f.s.i.:.x w./ : ; & u i S I q.6XeX3Xj.7.9.8.-.L 5X5XoXh.a.o.f.e.c o.0X=X&X@X@X@X;.  ",
"  5X5X*X$X3.G h w.#X1.) > ; % t h P U S ~.4XrX7.j.j.q.8.,.2.:.1 s.f.f.i.4.4 w.6.l b -X-X@X@X@X@X;.  ",
"  XX*X&X$X*.L I ; > ; % t u 7.lXcXcXhXxXJ =.eXwX=.0.2.<.:.' ) ; <.i.9.:.' 2.x } k 1 #.w.r.e. .] _   ",
"  a.$X&X XR !.!.y f f L S S BXgXqX0X&Xh.c T *X8.0.3.,.@.$.$.1 ; O.e.:.@X1.:.>.| > t t f ; ; * * p   ",
"  f j b T _.(.4X4X4X>X].E U 0X0X=X=X$Xf.c z a.i.9.,.$.$.>.#.` f l [ @X:.;.{ } ^ Q m U OX$Xe.>.' m   ",
"  7.aX0XoX=.0.gXrXfXfXbX2.A =X=X=X$X@Xd.c h e.1.$.O.) ) $.| ( : R ;.1.| | _ _ Q a *.R e.>.#.[ ] k   ",
"  5X=Xh.a.O.9.eXqX0X7XjX' h &X&X$X#X#Xw.` h ;.,.#.O.) ( ^ ( Q ^ ;X;X;.| ] _ Q ! B /.*.#.#.[ _ ^ >   ",
"  6.@Xa.e.' 2.qX0X7X=X$X) u w.d.i.d.-Xr.x M s ;.| ( _ Q ; p s v :X;X}.| ~  .'.}.'.'. X` ] _ ^ k p   ",
"  j x ` ` *.5.=X=X=X-X#X` y h 1 1 4 4 ; y I ; > Q ~ Q s p m B /._.;X{././.).).}.|.Y j p u s s v ^.  ",
"  L /.7./.^.5.=X$X-X#Xk./ h 4XOXoXs.i.4.-.M L p ; p m M ^.R wX4X{.}.:X>X[.].=.5.} I I I ^.A L I !.  ",
"  7.0.4X7.L *.@Xe.r.d.r._ g lXXXa.2.,.>.;.j '.-.7.5.-.R !..XsXXXOX5.a. X1.>.#.| l h OXOX X0. X4.J   ",
"  5XbX$Xi.g m j } x  .Q ~ l *X9.2.:.#.{ [ 4 *.hX0X=X0X:.y s.a.9.4.*.4.1.O.O.] ( > b h.f.a.5.>.#.(   ",
"  a.%Xi.2.b Y h N _ r._ B m %X,.$.#.[ ] / : o.=X&X&X@X;.f n 2.,.:.:.' { [ [ ) ( Q b i.i.1.;.{ [ ^   ",
"  b ,.2.:.&X5.<.6.}.}.iXN M o.$.#.] ) / ^ : b =X-X@Xk.;.f Y O.:.$.) / [ ] ( ^ v a n 1.$.#.[ [ ] ^   ",
"  <.' O.d.1.| [ } n iXiX|.Y -X#.] ) ( ( > > ' -X@Xk.k.;.f *.:.` ( ( k k ( v _ s 6.*.O.#.[ ] ] ( Q   ",
"  b } l #X;.| | _  .iXiXt.B _ v / ^ ^ ^ ` p 5.d.#X#Xk.k n ..| _ ( : a > ( ! ! t.;XN _ } ] ] _ _ Q   ",
"  !.^.h v |  . ...'.)./.;X/.m V ; ; ; ; f M -.{ _ ] ] ..E m - - - ; d d M `.I '.'.R f & p ; V p m   "
};
