/* XPM */
static char *out[] = {
/* columns rows colors chars-per-pixel */
"50 50 246 2 ",
"   c None",
".  c #0A0403",
"X  c #150907",
"o  c #1B1513",
"O  c #280902",
"+  c #380903",
"@  c #2D140C",
"#  c #34130B",
"$  c #261814",
"%  c #321E1A",
"&  c #162C1A",
"*  c #19361B",
"=  c #28211E",
"-  c #223B1D",
";  c #132E24",
":  c #183827",
">  c #1C3C33",
",  c #173B36",
"<  c #2B2422",
"1  c #342927",
"2  c #253B29",
"3  c #3E3A36",
"4  c #33392F",
"5  c #480904",
"6  c #4A1102",
"7  c #561503",
"8  c #570804",
"9  c #770701",
"0  c #671801",
"q  c #751701",
"w  c #782F00",
"e  c #45342F",
"r  c #264618",
"t  c #37591A",
"y  c #2F5018",
"u  c #396413",
"i  c #1C442B",
"p  c #1C423C",
"a  c #194537",
"s  c #0F4031",
"d  c #294627",
"f  c #344828",
"g  c #395627",
"h  c #23443D",
"j  c #294637",
"k  c #3B4D34",
"l  c #364937",
"z  c #245236",
"x  c #3B523A",
"c  c #395639",
"v  c #2A5229",
"b  c #3B6326",
"n  c #3A6637",
"m  c #356935",
"M  c #1E4015",
"N  c #435C1E",
"B  c #754500",
"V  c #48691A",
"C  c #4F7317",
"Z  c #597B1C",
"A  c #516B1F",
"S  c #435C2C",
"D  c #435828",
"F  c #43493B",
"G  c #485839",
"H  c #494635",
"J  c #466826",
"K  c #536D29",
"L  c #4D7725",
"P  c #587726",
"I  c #496538",
"U  c #566B3A",
"Y  c #4B7436",
"T  c #597936",
"R  c #627E39",
"E  c #1A4A43",
"W  c #1B5447",
"Q  c #254B44",
"!  c #2B4C44",
"~  c #2A4945",
"^  c #334D43",
"/  c #364E45",
"(  c #2A5349",
")  c #345344",
"_  c #3B5344",
"`  c #34534A",
"'  c #3A554C",
"]  c #3C5B4E",
"[  c #365A48",
"{  c #395C50",
"}  c #3A6455",
"|  c #3D6B4A",
" . c #494A42",
".. c #445544",
"X. c #435B4D",
"o. c #475B47",
"O. c #55584B",
"+. c #445D52",
"@. c #4B5E52",
"#. c #55504B",
"$. c #675651",
"%. c #476547",
"&. c #566748",
"*. c #57764A",
"=. c #446254",
"-. c #4C6354",
";. c #4A6657",
":. c #536454",
">. c #546A56",
",. c #546B5B",
"<. c #5B6D5B",
"1. c #5A6756",
"2. c #5C725D",
"3. c #597558",
"4. c #487553",
"5. c #636C49",
"6. c #65774A",
"7. c #636B59",
"8. c #64735C",
"9. c #687858",
"0. c #75775C",
"q. c #556D62",
"w. c #5C7363",
"e. c #597767",
"r. c #4E7C6B",
"t. c #647562",
"y. c #6A7463",
"u. c #657A64",
"i. c #6B7B65",
"p. c #647C6A",
"a. c #6C7D6A",
"s. c #62726E",
"d. c #737E6A",
"f. c #757866",
"g. c #667E70",
"h. c #70746B",
"j. c #871901",
"k. c #900F01",
"l. c #B40601",
"z. c #992302",
"x. c #8C2502",
"c. c #A62602",
"v. c #BB2903",
"b. c #CA0900",
"n. c #DA0D00",
"m. c #E30800",
"M. c #EA0800",
"N. c #F40900",
"B. c #FE0900",
"V. c #FC1300",
"C. c #FB1B01",
"Z. c #E71201",
"A. c #C62C03",
"S. c #D62B02",
"D. c #DA3203",
"F. c #F92302",
"G. c #F72C02",
"H. c #E83303",
"J. c #F53403",
"K. c #F53904",
"L. c #F83203",
"P. c #EE2602",
"I. c #8B6300",
"U. c #8B796A",
"Y. c #CF4C45",
"T. c #5B841C",
"R. c #638F16",
"E. c #5B8323",
"W. c #598534",
"Q. c #668925",
"!. c #68922E",
"~. c #70A31C",
"^. c #55884E",
"/. c #6B8349",
"(. c #6E8254",
"). c #758658",
"_. c #73914C",
"`. c #59896A",
"'. c #4A8673",
"]. c #6C826A",
"[. c #75836B",
"{. c #7B856D",
"}. c #7D8A6D",
"|. c #768366",
" X c #6C8372",
".X c #658273",
"XX c #738573",
"oX c #7A8673",
"OX c #758975",
"+X c #7C8974",
"@X c #7C8D79",
"#X c #758979",
"$X c #699A7B",
"%X c #7B9677",
"&X c #7F956D",
"*X c #B58B00",
"=X c #83B21A",
"-X c #E8B600",
";X c #C9A000",
":X c #F6C400",
">X c #85876E",
",X c #869469",
"<X c #848C74",
"1X c #8B8C74",
"2X c #848E7A",
"3X c #878876",
"4X c #988D77",
"5X c #85927C",
"6X c #8C947C",
"7X c #8A9375",
"8X c #93947D",
"9X c #97957A",
"0X c #94856D",
"qX c #A5957C",
"wX c #97A073",
"eX c #75A48A",
"rX c #7E9080",
"tX c #8C9984",
"yX c #899683",
"uX c #939B83",
"iX c #9C9C84",
"pX c #979A87",
"aX c #8A8B84",
"sX c #A49A84",
"dX c #B5978F",
"fX c #9BA28B",
"gX c #96A38B",
"hX c #9BA491",
"jX c #82A996",
"kX c #A7A58B",
"lX c #B1A88E",
"zX c #A5AA94",
"xX c #ABB29B",
"cX c #AAB295",
"vX c #B2B59D",
"bX c #B7B59B",
"nX c #BAAA96",
"mX c #B4BAA2",
"MX c #BABBA2",
"NX c #AFB5A1",
"BX c #ECBDB4",
"VX c #C5B7A0",
"CX c #B9C1A5",
"ZX c #F5C4BB",
"AX c #C8C7AD",
"SX c #FECCC3",
/* pixels */
"  t G G G H f f a v M d f 2 2 f d r r - g R.R.y C =XR.u M r - g k k d - k k l d y y M r y * * * u   ",
"  9XsXqXsXsXvXi.c I >XkX9XU.2XU.f.F I pXuXT T |.(.R.I tX&.t >XiX9X7X1.9.pX>X{.oXF v %.).XXu.,.=.-   ",
"  kXkXlXlXsXzXf.D U qXsXsX9X4X1X>XF k iX9X).6X<X[.9.@X5Xi.f 5X9X>X).6X|.<X{.[.a._ %.4.I ].2.-.X.>   ",
"  iXlXcXvXvXzXoXD K 9XnXsX9X8X1X1XF k iXiX<X9.{.].>.>.XX<.d <.i.}.1X+X|.y.d.d.p._ ] (.@XOX-.+.( ,   ",
"  0.1XmXvXxXzXyXg Z &.0.7.7.O...l l k 7X6X7Xo.9.}.[.].9.j r l 2X<X+X{.d.@.t.y.q.^ n 9.].2.;.) Q z   ",
"  {.kXNXxXxXzXuXS T.U G G G G G D I >.>X7X}.9.7X+X}.@XOXu.d 8.<X[.|.a.t.7.i.i.<.f J ].@.` ` j j ^.  ",
"  9.mXzXxXhXhX#Xg 1XAXMXVXbXmXCX1XG Y }.}.{.|.+X}.OX@X Xe.4 w.a.a.i.p.2.[.u.w.,.j J !.*.%.I 4.^._.  ",
"  >.oXoXOX<.:.l g 9XCXbXMXMXmXmX{.g I {.d.i.@X}.XX@X#X Xp.> ' t.t.t.>.[.8.<.,.>.j g _.,X(.6.W.T.!.  ",
"  V f 4 4 r D N Z 7XbXCXmXCXNXNX<Xf G h.h.h.d.h.oX@Xa.g.g., > p [ j j F ../ l > p c kXiX8X6X8.<.T   ",
"  P wXqXqXlXdX9XK 1XbXbXNXNXmXNXaX7.< X X O # # # # $ < q.l : ; : & * & & & ; > i G kXfXiXyXyX#X'   ",
"  U.VXqXqX4X0X0XH +XcXcXxXzXxX2X1 X O k.v.S.H.H.H.H.A.z.7 = 5.5.I D C V J D D D C T fXfXuXtX@Xw.[   ",
"  0.lXlXsXpX3Xf.f y.NXhXpX$.3 X + j.H.J.L.G.F.B.B.B.C.L.H.z.# #.6XO.V lXnXqXqXf.D K uXgXtX5XOX#Xs.  ",
"  9.qX .o 3  .3 1 3 < . X X 7 c.H.K.K.K.J.F.B.B.B.B.B.V.V.C.A.7 e O.f 4X4X0XU.0.l S uXyXaXyXrX#Xs.  ",
"  7.sXh.X . 6 7 7 0 x.c.A.D.K.K.K.K.L.G.C.B.B.B.B.B.B.B.B.B.B.Z.8 = F 4X4X0XU.f.f S l j ^ / j ~ j   ",
"   .3X1X#.X 0 D.H.K.K.K.K.J.J.K.K.F.B.B.B.B.B.B.B.B.V.m.n.m.N.B.M.8 F 4X4X1X>Xd.F V P I D D g S J   ",
"  r l 3 ^ #.X 6 A.K.K.J.L.K.K.J.F.V.B.B.B.B.B.B.B.B.b.w I.B k.M.B.l.1 8X8X8X<X7XF U bXlX6X3Xi.t.j   ",
"  C K U 5.7.U.1 O j.D.P.G.K.L.V.B.B.B.B.B.B.B.B.B.N.w -X:X-X*Xq N.M.5 aXaXyX1X2Xx I 1X>Xf.5.t.<./   ",
"  /.lXkXkXsXpXh.$.% + 6 0 q S.B.B.B.B.B.B.B.B.B.B.m.w -X:X*X*X0 M.N.8  ...X..._ l I 3Xf.y.:.1.@.~   ",
"  1XlXiX9X8X2XO.*.U.7 6 6 0 S.V.B.B.B.B.B.B.B.B.B.N.9 *X-X;XI.k.N.N.9 4 D c D S Y I f.f.1.t.,.X.>   ",
"  |.kXiXuX6X<X@.U.e O O 0 v.H.C.B.B.B.B.B.B.B.B.B.B.n.z.x.w q m.B.N.9  .kXsX9X6X&.S i.1.w.,.+.( E   ",
"  0.fX8XyX5XOX:.nXdX$.e X O z.D.G.V.B.B.B.B.B.B.B.B.B.N.M.M.N.B.B.N.9 #.sXpXuX5XG g _ j j p , : E   ",
"  O.+XtXyX@X#X7.ZXSXZXBXdX5 . 7 D.J.V.B.B.B.B.B.B.B.B.N.B.B.B.B.B.N.8 $.yXyXtXoXx Q.u t * * * r y   ",
"  x o.&.,.>.pXdXBXBXBXZXBXY.+ . 0 H.V.B.B.B.B.B.B.B.M.k.m.B.B.B.B.m.# d.2X6X2Xa.x J W.J I U 6.6.T   ",
"  C V C L P U.< = e e $.#.e O . 7 H.V.B.B.B.B.B.B.B.N.8 9 M.B.B.B.k.1 o.2X@X@X*.P /.(.,X8.8XuX5XoX  ",
"  6.gX_.!._._.U.1 . . X 5 6 j.c.S.F.B.B.B.B.B.B.B.B.B.b.+ 9 m.N.m.5 3 g / ..I E.Q./.uXtX[.{.5X5XoX  ",
"  1XuXuX9.(.CXvXpX$.o . 0 D.K.L.F.B.B.B.B.B.B.B.B.B.B.B.l.+ 5 b.l.@ &.K P A P Z T.T 6X5X@X5XOX].a.  ",
"  8.+X].c gXhXOXo.kXdX#.X O 0 v.H.G.C.V.B.B.B.B.B.B.B.B.N.m.b.b.+ s.xXmXbXzXzXfXpXG ,.[ @X@X X X,.  ",
"  :.uX5Xu.j x 7XgX8.@X8.sX .$ . + x.S.J.F.V.B.B.B.B.B.B.B.V.n.8 3 pXkXhXpXpX2XOXXXo.e.,. X X]..X=.  ",
"  j ` l j 2 6X7X1X9.cXxXkX6XiX$.= X X q S.J.G.C.V.C.F.G.J.A.6 $ 2XhXpXgXyXyXOXXX].l E.%Xu.-.=.) c   ",
"  b g G I E.<X1X}.}.cXcXzXfX6X+Xf.$.o X O 0 z.v.v.v.v.z.0 @ 3 8.yXpXpXtX%X@XoXw.] f T.Q.W.W.T T W.  ",
"  6.,Xf.,X6.).{.|.%.[.gXgXtX5X|.i.8.y.O. .% o @ @ @ % e O.f.5.P k x ;.w.q.>.o.%.v L ,XwXuX6X2XtX3.  ",
"  f.4X3XuX:.&.d.].5X|.@XtX@XXXi.2.:.@.> x G G  .F ..d.1X3Xd.1.t N g g g K ~.E.L P /.gXuX<XoX[.XXX.  ",
"  9.f.8.{...S %.+Xd.i.8. XXX].2.X.j > * * r y f 6.7X).|.d.t.1.g 6.).).(.6._.W.&.J *.6X5X@XXX]. X;.  ",
"  1X6X3X}.o.D c a.a.t.-.j e.! > : * y V C L 0.1XpXU.|.5.y.7.*.J 7X>X{.a.u...d.w.l G @X@X#X X X X=.  ",
"  +X<X+X[.<.g c q.p.w.^ : : & - t K K Z R.,XqX6.f.f.8.7.1.>.-.2 y.[.i.t.w.2 3.-.j x #X#XXX X X.X=.  ",
"  [.+XoXoXo.J L : , : & r y 6.fXzXhXpXhXG *.6X7X&.9.1.1.@._ ! 2 >.t.2.-._ ,.x { h 2 =.q.w.w.} ` (   ",
"  u.XX#Xa.Y T.R.t 2 v J T.Z mXiXyX2X+Xa.l I oX8.9.1.:.:.@.+.2 : X.w.>.a.,.;.;.[ , r r r : : - - i   ",
"  d d x K /.Q.,X,X,X,X6.T P 5X5X2X+XoXp.l x y.7.2.1.@.;.;.+.` d j ]  X-.=.] [ E E g T XXXXw.;.[ v   ",
"  6.yX5XXX&.9.iX9XiXpXzX1.V @X@X#XOXXXp.l c w.,.:.@./ ^ +.' ( : Y ;.q.} ] ` ( E a 4.Y 2.;.+.' ` h   ",
"  <X2Xa.u.o.9.6X6X6X2XyX_ g #XOX X.X.X,.c g =.,.X.' / h ~ ~ E Q $X.X} { ` Q W W m E.%.+.+.{ ! ~ ,   ",
"  ,.[.e.w._ <.5X5X@X#XoX/ y q.p.p.p.#Xe.l b p } { ! ( E ; i E z %X$X`.{ ( | 4.`.^.*.u.[ ` ! Q h i   ",
"  a l x ) %.8.<X@X@X#X X) t g 2 2 2 > 2 t L : p E W E a i v m W.!.$X(.W.W.!.~.`.'.| i d f a a z E.  ",
"  J W.*.W.E.3.OXOXOX.X.X( t ,X}.}.i.t.2.*.b V d i i v b E.Y 7X,X_..X%X,X]./.*.3.[ L L L E.V J L Q.  ",
"  /.9.,X9.J %. Xe.e.e.e.( l pX|.y.<.;.;.} j 3.Y 6.3.*.Y E.).tX[.OX3.u.].;.4.+.] j g }.}.].9.].2.c   ",
"  <XhXoXt.f g j ) ) } E W j }.8.<.-.+.+.] 2 %.pX2X2X2X=.t i.u.8.3.%.2.>.@.X.` ! , x a.d.].3.;.-.~   ",
"  u.oXt.,.c c b c c r.Q m l oX>.@.+.' ! ~ > ..2X#XOX X=.d x <.:.;.-._ ] ' ) ! Q p x y.u.;.=.' ' Q   ",
"  _ :.<.-.OX2.;.*.`.`.eXn b ..=.+.' ^ ~ Q > x #X#X Xg.=.d I X.-.+./ ! ' ` ! Q z p c ;.@.+.' ' ! Q   ",
"  >._ X.p.,.+.{ ( n jXeX'.n #X+.' ! ~ ~ p , _ #X Xg.g.=.d %.-.^ ~ ~ h h ! Q ( a 4.%.+.+.' ` ` ` ,   ",
"  x [ j .X=.{ { ( } eXeX4.m z Q ( Q E h c i 3..X.X.Xg.h c | { ( ~ > , E Q W z r.`.| ( ) ` ( ( ( E   ",
"  T.E.g z { } } | ^.!.!.eXW.i * : : : i v g *.] ` ( ( %.W.v ; ; ; : a s g ~.b ^.^.E.d i : i M i m   "
};
