/* XPM */
static char *out[] = {
/* columns rows colors chars-per-pixel */
"50 50 251 2 ",
"   c None",
".  c #190A06",
"X  c #1A1513",
"o  c #0E0908",
"O  c #280A02",
"+  c #350B01",
"@  c #3C1308",
"#  c #251C19",
"$  c #2F100C",
"%  c #162C1A",
"&  c #19361B",
"*  c #223C1D",
"=  c #2E211D",
"-  c #132E24",
";  c #193827",
":  c #1C3C33",
">  c #173B36",
",  c #362824",
"<  c #253B28",
"1  c #2F312B",
"2  c #560906",
"3  c #4A1304",
"4  c #551504",
"5  c #480705",
"6  c #691602",
"7  c #771A01",
"8  c #710804",
"9  c #6E3502",
"0  c #453C38",
"q  c #4E352F",
"w  c #5A2826",
"e  c #264718",
"r  c #37591A",
"t  c #2F5018",
"y  c #3A6315",
"u  c #1C432B",
"i  c #1C423C",
"p  c #1A4336",
"a  c #174938",
"s  c #294627",
"d  c #334728",
"f  c #3A542C",
"g  c #385725",
"h  c #2C4434",
"j  c #23443D",
"k  c #29443A",
"l  c #274737",
"z  c #3B4D34",
"x  c #364A37",
"c  c #265436",
"v  c #3B523A",
"b  c #395638",
"n  c #2A5229",
"m  c #3B6327",
"M  c #3A6637",
"N  c #356935",
"B  c #1E4015",
"V  c #435C1E",
"C  c #47691A",
"Z  c #587A1D",
"A  c #4F7219",
"S  c #435C2C",
"D  c #435828",
"F  c #45473C",
"G  c #48583A",
"H  c #404C2F",
"J  c #466826",
"K  c #546D29",
"L  c #4D7726",
"P  c #557324",
"I  c #5A7828",
"U  c #496538",
"Y  c #576B39",
"T  c #4B7436",
"R  c #597936",
"E  c #637A3B",
"W  c #1A4A43",
"Q  c #1B5447",
"!  c #254B44",
"~  c #2B4C44",
"^  c #2E4E49",
"/  c #264642",
"(  c #334D43",
")  c #364E45",
"_  c #295349",
"`  c #345345",
"'  c #3B5344",
"]  c #34534A",
"[  c #3A554C",
"{  c #3C5B4E",
"}  c #365A48",
"|  c #3A5C50",
" . c #3A6455",
".. c #3D6B4A",
"X. c #445545",
"o. c #435C4D",
"O. c #475B48",
"+. c #56584B",
"@. c #445D52",
"#. c #4B5B52",
"$. c #5A5852",
"%. c #4B4C44",
"&. c #685D56",
"*. c #704846",
"=. c #486547",
"-. c #566747",
";. c #57764A",
":. c #446254",
">. c #4C6354",
",. c #4A6758",
"<. c #536554",
"1. c #546A56",
"2. c #546B5B",
"3. c #5B6D5B",
"4. c #5A6856",
"5. c #5C725D",
"6. c #587659",
"7. c #487553",
"8. c #66774A",
"9. c #65695B",
"0. c #64735C",
"q. c #687859",
"w. c #716E58",
"e. c #5C7363",
"r. c #5A7868",
"t. c #4D7061",
"y. c #637562",
"u. c #6A7562",
"i. c #647A65",
"p. c #6B7B65",
"a. c #647C6A",
"s. c #6C7D6A",
"d. c #737F6A",
"f. c #777967",
"g. c #657E70",
"h. c #74756D",
"j. c #980601",
"k. c #851C01",
"l. c #8E1302",
"z. c #B00B00",
"x. c #962601",
"c. c #912608",
"v. c #A62402",
"b. c #B72902",
"n. c #D80900",
"m. c #E70900",
"M. c #F40900",
"N. c #FE0900",
"B. c #FC1300",
"V. c #F91D01",
"C. c #E71B01",
"Z. c #C62C03",
"A. c #DB3303",
"S. c #CE3003",
"D. c #F82B02",
"F. c #F82802",
"G. c #E63404",
"H. c #F43503",
"J. c #F63704",
"K. c #E92F02",
"L. c #E73831",
"P. c #917000",
"I. c #B0492C",
"U. c #CD502E",
"Y. c #8B7C71",
"T. c #826159",
"R. c #5B841C",
"E. c #638F16",
"W. c #5B8423",
"Q. c #598534",
"!. c #658926",
"~. c #689526",
"^. c #678E35",
"/. c #70A31C",
"(. c #55884E",
"). c #6B8349",
"_. c #758658",
"`. c #708C50",
"'. c #59896A",
"]. c #4A8673",
"[. c #6C826A",
"{. c #75836B",
"}. c #7B856D",
"|. c #7D8A6C",
" X c #778366",
".X c #6C8372",
"XX c #658273",
"oX c #738573",
"OX c #7A8673",
"+X c #758975",
"@X c #7B8974",
"#X c #758A79",
"$X c #7C8C79",
"%X c #758778",
"&X c #699A7B",
"*X c #7B9677",
"=X c #7F956D",
"-X c #B38900",
";X c #83B21A",
":X c #DBAB00",
">X c #EBBB00",
",X c #F4C400",
"<X c #86896D",
"1X c #869469",
"2X c #838C74",
"3X c #8B8C74",
"4X c #848D7B",
"5X c #878A76",
"6X c #988D78",
"7X c #85927C",
"8X c #8C937C",
"9X c #899376",
"0X c #93947C",
"qX c #97967A",
"wX c #94856D",
"eX c #A6957B",
"rX c #A68078",
"tX c #97A073",
"yX c #C18979",
"uX c #75A48A",
"iX c #7E9080",
"pX c #8C9A84",
"aX c #899783",
"sX c #939B84",
"dX c #9B9C84",
"fX c #979B87",
"gX c #848E81",
"hX c #A39A83",
"jX c #AA9C8C",
"kX c #B1948C",
"lX c #9AA28B",
"zX c #94A18B",
"xX c #9CA491",
"cX c #82A996",
"vX c #A3A48C",
"bX c #A9A58A",
"nX c #B1A88E",
"mX c #A4AB93",
"MX c #A6AB95",
"NX c #ACB39B",
"BX c #ABB196",
"VX c #B3B59C",
"CX c #B7B59B",
"ZX c #B8AE97",
"AX c #B5BAA2",
"SX c #BABBA2",
"DX c #AFB8A1",
"FX c #C8A49C",
"GX c #D0B2A3",
"HX c #BEC0A5",
"JX c #C8C7AD",
/* pixels */
"  r G G G H z < c u e d d < * s < e B e f R.E.t R./.E.y B e e z H f d < z z x s t e B t e B & & y   ",
"  qXbXeXhXhXVXf.b =.<XhXqXY.5XY.Y.F U sXfXR R  X).E.U pX-.r <XdX9X8X4.0.fX<XOXOXF t =.[.OXi.2.:.*   ",
"  vXbXbXbXvXbXd.f K qXeXeXqX0X3X<XF z fXqX_.8X<X|.q.+X7Xp.d 2X9X<X_.8X{.2X XoXs.' =.;.U [.6.,.o.:   ",
"  dXnXZXVXZXmXOXf I qXGXeXdX0X3X5XF z dXqX9Xq.}. X1.1.+X3.s 0.p.|.2X<Xd.u.d.d.u.) =.'.$X+X>.@.^ >   ",
"  f.5XAXVXNXmXaXf Z -.w.9.4.$.%.x x f 5X0X9X=.0.|.{.{.0.h s x 5X2XOX}.d.#.i.i.3.x f [.q.5.2.) j l   ",
"  }.vXNXNXNXMXpXS !.Y G G G G G H J 1.|.9X|.q.9X=X@X@X+Xi.s 0.OX X{.d.i.3.p.p.3.f J [.:.` ~ c l (.  ",
"  q.AXNXNXmXxX#Xf 1XJXSXGXAXSXSX9XU Y |.|. X X@XOX+X$X.Xr.< y.s.p.p.s.5.{.y.e.2.l C `.).=.=.7.(.`.  ",
"  <.d.OXoX3.<.x g 1XHXSXSXVXAXAXOXf U  Xd.p.$XOXoX@X#XoXr.h ] i.i.e.1.{.0.3.<.<.~ g ).`.`.8.R R.~.  ",
"  C d * d d d V Z 9XCXHXAXAXAXDXiXG -.h.d.<.s.p.i.a.a.g.r.: ; j ] k h v X.) k j i S vXdX0X8X0.3.R   ",
"  I eXbXeXnXnXqXK 3XVXVXDXDXNXxXgXh.h.gXu.#.1 ; < l : : Q u ; - ; % % % % - - : u G vXvXzXaXaX#X{   ",
"   XGXeXrX6X6XwXz 2XBXBXMXxX$.# O @ 3 4 4 4 @ , H `.P Y Y E Y 8.Y J A A D J D V A I lXlXsXaX$Xi.}   ",
"  Y.nXeXhXfXwXf.d 0.xXsX+.X $ k.Z.H.J.D.F.F.G.Z.7 # w.CXCXCXvXCXtX+.V bXFXeXeXf.H U zXfXpX7X#X#X`   ",
"  w yX6X6X6XY.u.+.4.+.# $ c.G.J.D.V.B.N.N.N.B.D.D.b.3 $.vXVXVXmX8X-.d 6XwXwXY.f.z S sXgXgXpXiX#X@.  ",
"  4 L.Y.9.+.%.0 = . O c.G.J.D.B.N.N.N.N.N.N.N.N.N.M.C.6 0 dXMXlXaXp.1 qXwXwXY.f.z C v k x ) k k k   ",
"  . 4 *.X o + 4 7 b.A.J.J.B.N.N.N.N.N.N.N.N.N.M.m.N.M.m.2 +.zXfX7X.X< 6XqX3X5Xf.G C I G H S f J m   ",
"  &.X F &.o . v.G.J.J.J.J.B.N.N.N.N.N.N.N.M.m.7 9 7 n.M.n.w gXe.O.x * 8XqXqX5X5Xz Y CXbX8X2Xu.u.k   ",
"  Z K 8.8.Y., . + 6 b.A.J.D.N.N.N.N.N.N.N.m.x.:X>X:X9 m.M.8 h.#X+X:.< 8X7X8X5X7Xz U 0X<Xf.9.0.5.]   ",
"  8.bXbXjXjX&.O 4 + O + 6 G.B.N.N.N.N.N.N.m.9 ,X,XP.P.z.M.l.F ,.` ! e F X.X.X.X.x U <Xf.u.<.<.O.k   ",
"  3XZXdXdXhXFX, 4 v.v.k.x.V.N.N.N.N.N.N.N.M.x.-X:X-X9 n.N.j.= s d s r A D D D g T U f.u.3.y.4.{ :   ",
"  <XvXfXjXGXFXw.o O k.A.H.B.N.N.N.N.N.N.N.N.m.j.x.7 z.M.N.z., O.sX<XU K bXvXqX8X-.S u.9.e.,.@.] W   ",
"  w.fXfXkXT.= . . . O k.J.D.N.N.N.N.N.N.N.N.N.N.M.M.N.N.N.j.q 0.@X2X=.G dXsXsXgXX.r b l l p ; > W   ",
"  -.8X6X# o 2 v.Z.S.S.G.J.F.N.N.N.N.N.N.N.N.N.m.N.N.N.N.M.8 +.3Xq.>.x G aXsXpXOXv !.y r % & & e t   ",
"  9.kX# $ X X O 2 Z.H.H.B.N.N.N.N.N.N.N.N.N.m.5 n.N.N.N.m.5 h.@XoX4.< v 5X8X4Xs.v J ).J U -.8.8.R   ",
"  &.3 I.Y.FXGXY., . 7 G.H.N.N.N.N.N.N.N.N.N.M.j.5 n.N.M.z., +XOXi.2.; x 4X$X%X;.P ).).=Xq.sXsX5X@X  ",
"  &.O O q 0 q U.U.7 O 4 H.V.N.N.N.N.N.N.N.N.N.m.8 O j.n.2 $.%Xa.,.Q ; n v X.U !.!.`.sXaX{.{.7X4Xd.  ",
"  2Xw.9.Y.Y.# . 7 Z.b.x.H.H.B.N.N.N.N.N.N.N.N.N.N.z.z.j., %Xe.j ; u t P P K I Z R.R 7X7X$X7XOX.Xg.  ",
"  0.{.q.v zXjX%.# . 3 k.v.S.G.F.V.B.N.N.N.N.N.N.N.M.z.$ #.~ p p s  XBXAXCXMXvXlXdXG 1.O.$X$X.X.X3.  ",
"  <.zX7Xs.1 ) gXhXf.F = . o O 4 b.G.H.J.D.D.F.F.K.v.$ X.> c c m lXxXxXlXfXsX7X+XoXX.r.,.XX#X.Xg.:.  ",
"  k ' k h s 8X8X3Xp.BXmXjXh.F X . @ 6 l.v.v.l.7 @ # -.5.XXL !.I fXlXlXxXpXgX@XoXXXz W.*Xe.,.:.} }   ",
"  g r O.U I <X2X|.|.BXmXvXlX5Xf.h.9.1 , = , q $.$.h P ~.!.Q.~.).aXfXpXpXiX$XoXe.X.n R.!.^.Q.R I W.  ",
"  8.3X_.1X8. X X X=.{.lXzXpX7X[.h.u.4.3.u.3.X.( k ; Y 1X1X<XY P z ' #.e.6.2.O.=.n K 1XtXsX7X4XpX6.  ",
"  f.6X3XsX<.-.d.[.7X{.$XpX$XOXi.6.1.[ < h f < & ; s |.3X5Xf.4.r V g g J J /.W.L I ).sXsX2XOX{.oX@.  ",
"  0.w.q.}.O.S =.@X{.p.0..XoX[.e.o.l > & & e t f w.9X_.<Xf.y.3.r 8._._._.8.`.^.-.J R 7X7X@XoX.X.X,.  ",
"  8X8X3XOXO.D b d.p.y.#.x t.k : ; & t C R.A w.3X0X Xf.8.y.9.;.J 2X2X}.p.i.X.g.0.x X.4X$X$X.X.X.X:.  ",
"  @X2X@XoX4.g f t.a.e.) ; ; & * g P P P R.1XqX8.f.f.9.4.<.3.>.< u.s.p.y.e.< 2.,.: X.oX#X.X.Xg..X:.  ",
"  {.@XOXoX=.J K ; > ; % e t 8.lXmXvXfXxXG ;.0X9XY 0.3.4.#.' ( ; 4.y.0.,.' 2.b { / < >.t.r.e. .] _   ",
"  i.oX+X[.T R.E.r s n J W.Z AXdX8X7X+Xs.x U OX0.q.4.4.#.#.@.< u o.e.1.s.t.,.,.} i e s e < ; * * u   ",
"  d h v U ^.!.1X1X1X<X).R I 4X7X7X$XOXi.x b p.9.0.<.@.<.,.>.] s l [ g.,.>.{ } ! i n I OXs.e.,.} n   ",
"  8.aX7X|.-.q.dXdXsXfXvX4.C $X$X@X.X.Xa.x f e.1.>.#.) ( @.] ^ ; T :.2.| [ _ _ W a =.T 5.,.@.[ ] j   ",
"  @X4Xs.i.O.0.0X8X4XgXaX' g +X+X.X.XXX2.' f >.,.@.[ ) j ! ^ W ! &X&X:.| ] ^ Q Q N Q.=.@.@.[ ^ ! p   ",
"  1.oXi.e.' 3.7X7X4X+XoX' d 2.XXa.a.#Xr.x m p  .[ ^ _ W - n a a *X&X'.|  . .7.(.(.(.[.b ] ~ / W u   ",
"  l k x } =.5.4X$X+XoXXX` r t < < < : < r L ; p W Q W a u n N Q.^.&X`.Q.Q.~.~.'.].=.l ; n u p c W.  ",
"  J R (.R W.6.+XoX.X.Xg._ g 1X2X}.p.y.5.;.J J u u u n m W.T 9X1X`.[.*X1X`.(.;.6.b L L L W.C J L W.  ",
"  8.q.1X).J =..Xe.a.XXr._ d lX{.i.3.<.,. .< 6.;.8.6.;.T W. XpX{.+X6.s.a.2.,.#.[ l f |.=X[.q.p.5.G   ",
"  2XxXOXi.d f l } `  .i Q h @Xu.4.,.@.{ [ : =.zX4X$X7X:.r p.y.0.6.=.6.2.#.o.] ^ i v d.s.i.6.,.>.~   ",
"  i.OXy.3.b f m b } t.W N n OX1.#.@.[ ] ^ < X.4X+XOX.X:.s v 4.4.>.,.' [ [ ] ~ ! i x u.i.2.:.[ [ /   ",
"  v 1.3.>.+X5.>.;.'.&XuXN m X.@.@.[ ) ~ / : v +X%X.Xg.:.e =.o.>.#.] ( ] ] ~ ! c p b <.@.@.[ [ ] >   ",
"  1.' { r.2.@.| _ M uXuX].U %X@.] ^ ~ / i > ' #X.Xg.g.:.s =.>.` / / j / ~ ! _ a 7.=.@.@.[ ] ] ^ W   ",
"  v } l XX:.| | _  .uXuX7.N _ c _ ! W ! ` s t.XXXX.Xg.j N {  ._ / : > i Q c Q 7.'...} } } _ _ _ i   ",
"  R.W.g c |  . ...(.~.^.uXQ.B ; ; ; ; ; n r ;.{ _ ] _ =.R n - - ; ; p > g /.N (.(.Q.s & ; ; ; n N   "
};
