/* XPM */
static char *out[] = {
/* columns rows colors chars-per-pixel */
"50 50 236 2 ",
"   c #050201",
".  c #0B0403",
"X  c #0F0809",
"o  c #130402",
"O  c #1C0602",
"+  c #170806",
"@  c #1D0804",
"#  c #140B0C",
"$  c #1A0C0C",
"%  c #1A0E12",
"&  c #1E1212",
"*  c #1D1318",
"=  c #230803",
"-  c #270805",
";  c #2B0A01",
":  c #370A03",
">  c #26100E",
",  c #381308",
"<  c #221414",
"1  c #291012",
"2  c #21161B",
"3  c #25191C",
"4  c #2B1A1C",
"5  c #341513",
"6  c #371818",
"7  c #3B1C1D",
"8  c #3A211F",
"9  c #241921",
"0  c #2C1D23",
"q  c #341721",
"w  c #321D23",
"e  c #3B1E23",
"r  c #2E2125",
"t  c #2E2129",
"y  c #332225",
"u  c #3B2225",
"i  c #34242A",
"p  c #3B262B",
"a  c #36282D",
"s  c #3B292D",
"d  c #3C2C31",
"f  c #3F3034",
"g  c #440A04",
"h  c #5D0300",
"j  c #4C1201",
"k  c #491209",
"l  c #531302",
"z  c #5D1501",
"x  c #491714",
"c  c #44171B",
"v  c #4C151B",
"b  c #431A1D",
"n  c #4C1C1D",
"m  c #531515",
"M  c #581618",
"N  c #531A1C",
"B  c #5C1C1B",
"V  c #6C0300",
"C  c #770600",
"Z  c #661802",
"A  c #7B1D01",
"S  c #741909",
"D  c #691915",
"F  c #631C1A",
"G  c #751C15",
"H  c #7B1C13",
"J  c #47221F",
"K  c #5D221C",
"L  c #59261C",
"P  c #772A02",
"I  c #7E3400",
"U  c #63221C",
"Y  c #69251A",
"T  c #74231B",
"R  c #782719",
"E  c #7B2B1C",
"W  c #6B311D",
"Q  c #75331E",
"!  c #78371C",
"~  c #441D21",
"^  c #4B1E22",
"/  c #501D20",
"(  c #432425",
")  c #4C2424",
"_  c #462927",
"`  c #432629",
"'  c #492629",
"]  c #442A2C",
"[  c #4B2B2C",
"{  c #532524",
"}  c #5B2424",
"|  c #592A26",
" . c #522B2D",
".. c #5B2B2B",
"X. c #4F312F",
"o. c #57302D",
"O. c #422D31",
"+. c #4A2E31",
"@. c #522E30",
"#. c #5C2F33",
"$. c #433135",
"%. c #4C3335",
"&. c #453439",
"*. c #4A3639",
"=. c #47383D",
"-. c #4C3A3D",
";. c #533334",
":. c #5B3434",
">. c #5B3A36",
",. c #543639",
"<. c #533A3C",
"1. c #5B3C3C",
"2. c #642522",
"3. c #622925",
"4. c #6B2A24",
"5. c #6D2B24",
"6. c #642D2A",
"7. c #732421",
"8. c #732B23",
"9. c #782C24",
"0. c #6B3326",
"q. c #63312C",
"w. c #733225",
"e. c #72342B",
"r. c #7A3828",
"t. c #653532",
"y. c #6C3534",
"u. c #673936",
"i. c #633C3C",
"p. c #6C3C3A",
"a. c #733B33",
"s. c #743D39",
"d. c #594B00",
"f. c #714A00",
"g. c #7B6600",
"h. c #7D462B",
"j. c #67403B",
"k. c #77433A",
"l. c #4D3D42",
"z. c #523E41",
"x. c #5B3F40",
"c. c #653F40",
"v. c #4E4045",
"b. c #534244",
"n. c #5B4345",
"m. c #544549",
"M. c #5B464A",
"N. c #57484C",
"B. c #5A4A4D",
"V. c #5F4E51",
"C. c #5F5254",
"Z. c #644343",
"A. c #6B4242",
"S. c #684948",
"D. c #6B4A4A",
"F. c #734441",
"G. c #784946",
"H. c #624E51",
"J. c #615356",
"K. c #67575B",
"L. c #716064",
"P. c #830400",
"I. c #950600",
"U. c #811D02",
"Y. c #891804",
"T. c #961D09",
"R. c #861C13",
"E. c #A70900",
"W. c #B80600",
"Q. c #AD1804",
"!. c #8C2102",
"~. c #922202",
"^. c #9B2409",
"/. c #882616",
"(. c #832C1B",
"). c #952512",
"_. c #962D15",
"`. c #83321C",
"'. c #88351A",
"]. c #993618",
"[. c #A52305",
"{. c #AC2802",
"}. c #B42A02",
"|. c #B92A07",
" X c #A6340F",
".X c #B5330E",
"XX c #A83814",
"oX c #BA3C11",
"OX c #842E24",
"+X c #863927",
"@X c #953A22",
"#X c #813C32",
"$X c #CB0700",
"%X c #C50800",
"&X c #D90800",
"*X c #E40900",
"=X c #EB0800",
"-X c #FF0600",
";X c #F40900",
":X c #FE0900",
">X c #E51401",
",X c #FC1301",
"<X c #F51A01",
"1X c #FB1B01",
"2X c #C72C02",
"3X c #CA3206",
"4X c #D53203",
"5X c #DB3403",
"6X c #E72902",
"7X c #FA2301",
"8X c #F42A02",
"9X c #F82C02",
"0X c #E53504",
"qX c #EB3603",
"wX c #F63603",
"eX c #F83303",
"rX c #F63904",
"tX c #8C4A08",
"yX c #97461A",
"uX c #A74519",
"iX c #B94611",
"pX c #B05316",
"aX c #8F7500",
"sX c #9A7B00",
"dX c #A47900",
"fX c #844429",
"gX c #964928",
"hX c #834837",
"jX c #C74B13",
"kX c #C65711",
"lX c #CF601A",
"zX c #B69400",
"xX c #C29D00",
"cX c #DBB500",
"vX c #EDC100",
"bX c #F5C900",
/* pixels */
"L ,.m.N.C.K.K.N.-.*.u W h.o.&.a a a a p i i i d a i B / q d d t i ) } %.-.b.m.l.-.z.b.<.z.%.O.d 2.z.",
"4.z.B.C.C.C.v.=.B.B.D.fXh.$.d d i a a d p p i i t q R.v 0 d f a ( 5.a.D.K.J.N.-.f f =.*.z.m.+.) t.b.",
"y.-.O.-.b.=.f =.b.v.1.q.s f d O.d a p s O.p $.&.i c T.v t a a +.| ;.b.N.B.m.z.*.s a a a a i i 4.1.*.",
",.l.O.a f =.=.=.-.,.fX'.p d s d $.a i d d p d i q uXR.v t t w ~ } f d d d d d a d f f d i w e 5.z.*.",
"-.$.$.*.=.b.l.-.<.r.iX].( d p a O.d a d O.O.p q v +XT.M ` d ~ F R %.d &.*.d d &.-.l.b.b.<.] F  .-.O.",
"] $.*.-.-.&.&.>.r.pXpX]./ y i i d d a p ` i q q 7.@.oX7.,.l.x.s.@XB ~ [ ;.;.%.<.o.;.%.o. .Y ). .] &.",
"*.=.b.-.&.f *.t.e.;.:.`.G c w y e w t a i i q F 7.#.@X} O.d l.x.p.e.T Y U Y 0.c.j.i.z.b.n.u.]...&.-.",
"<.-.-.s p [  .3.{ w 4 Y S , 1 < 9 * 2 9 q i v 7.x.c.@.D ) p p O.*.-.t.r.8.3.@.*.h.! X.&.l.M.OXy.%.-.",
"w.0. .J L [ %.{ x > @ ; , ; = = O o . # * 7 Y :.Z.*.@.G (.) ( p p O.%.,.y.} ] ] 9.6.&.&.l.V.c.9.w.o.",
"E '.4.`.Y d r & = : z !.!.~.!.~.!.A j = . = e *.] +.+.7.jX'.Y U { [ @.;.i.#.] 3.3.` d d d l.x.#.].w.",
"[ 9.r.gX{ 0 # ; S }.6XwXeX9X9XeXwXrX3X!.l O X $ 3 ] ' 0.gXgX+X@X XyX+X9.8.{ ` { [ d d d l.l.l.z.} e.",
"+.OXr.hXu $ : Y.5X7X,X,X,X,X,X,X1X7X9XwX3X!.j O . & 5 ;.<.;.Z.hXjXlXgXhX#X2.^ ` O.O.d l.l.l.l.z.3.+X",
"q.q.l.O.< g {.<X,X:X-X:X-X:X-X-X:X:X,X9XwXwX2X~.j . o % 3 3 0 8 L fXD.x.<.| } [ %.$.*.z.l.l.l.*.5.,.",
"'.p 0 $ g Q.<X,X:X-X:X:X:X:X:X:X:X:X:X,X7XeXrXrX2X!.l .         & ;.>.[ ] ] ( ] O.$.$.&.=.l.f [ Q a ",
"uX^ % - W.;X:X:X:X-X:X:X:X:X:X:X:X:X-X:X,X1XwXrXrX4XZ .   X $ 5 7 [ ' ( _ u 8 p s s ] d &.&.d Q (.e ",
"hX,.+ C ;X:X;X$XE.W.=X:X:X:X:X:X:X:X:X:X:X:X1XrX0Xz o = , l B R U n ( ( ( e 8 ( s p $.*.O.O.p w.G.1.",
"z.$.: &X:X=XI.P tX!.E.:X:X:X:X:X:X:X:X:X:X:X:XwX|..   k T (.].#Xe.T B F 2.D G } ` s O.*.-.*.q.6.H.n.",
"' 3 h ;X;XQ.f.zXcXxXtX%X:X:X:X:X:X:X:X-X:X:X-XwX5X: . @ 5 , x 8 7 , 5 t.s.s.r.8.{ ` O.$.&.*.@.} <.z.",
"n # C :X&XI zXcXbXbXdXI.;X:X:X:X:X:X:X:X:X:X-XrXrX2XP.g ; O @ @ @   2 j.D.A.D.p.4.} +.] y 7 u { ] -.",
"+Xo I.;X&XP zXzXvXbXsXY.;X:X-X:X:X:X:X:X:X:X-XwXrXwXqX5X3X{.{.~.: . 4 u.p.A.c.i.e.OX7... .:.:.a.`.} ",
"] o E.:X=XU.aXcXbXcXtXQ.:X:X:X:X:X:X:X:X:X:X-XwXrXrXrXrXrXqX|.j o # ) F.G.A.j.Z.c.+X7.' p O.s ] 1.gX",
"0 o $X:X;XW., d.g.d.Y.>X:X:X:X:X:X:X:X:X-X:X-X9XrXrXrXrXrX|.; . o ( j.k.F.A.c.i.x.9.B e 7 y y i d [ ",
"3 o $X-X:X;X$XI.E.%X=X:X:X:X-X:X-X:X:X:X:X-X:X1XrXrXrXrX0Xl   . J p.s.s.F.A.A.1.,.{ N 6 0 7 r y w 0 ",
"2 o W.:X:X:X,X;X;X;X:X:X:X:X:X:X:X:X:X:X:X1XeXrXrXrXrXrXqX!.  . 7 k.G.F.G.G.A.i.>.' M b w y y 0 4 0 ",
"3 o E.-X-X:X:X:X-X-X:X:X:X:X:X:X:X:X:X:X9XrXrXrXrXrXrXrXrX0XP .   < o.y.k.j.i. .' ( R 3.u 0 y r 3 3 ",
"0 . V -X-X-X:X:X-X;X;X:X:X:X:X:X:X:X:X:X9XrXrXrXrXrXrXrXrXrXwX{.:   . $ 7 [ ( _ [ ^ F M 7 4 7 i y 4 ",
"0 + g =X:X:X:X:X&XV I.:X-X:X:X:X:X:X:X:X9XeXrXrXrXrXrXrXrXrXrXwX0X^., o . . . X $ 5 G T } u O.y w c ",
"u 5 O $X:X:X-X*XP.g W.-X:X:X:X:X:X:X:X:X:X:X1X9XrXrXrX5X{.!.A z z A }.}.Z ; .     5 } H } ] ] p ~ H ",
"6 m O C ;X-X=XI.: C ;X-X:X:X:X:X:X:X:X:X:X:X1X<X*XW.V .   . .       o ; ; .   . , L q.y.} / e y B c ",
"c D O : &X&XP.; h &X-X-X:X:X:X:X:X:X:X:X:X1XrX{.l o   o - , 5 5 6 5 > X X X $ l /.k.D.<.O.N c w D m ",
"M T.k O I.E.g V $X:X-X:X:X:X:X:X:X:X:X:X:X9XrXA ; o . g S H H (.6.0.| { J J T /.a.S.Z.*.e c M c G H ",
"G XXD = g $X&X;X:X:X:X:X:X:X:X:X:X:X:X:X:X9XwXqX|.U.j = O D |.oXE 5.0.q.q.0.OX9.u.1.;.` 7 m D D T.XX",
"|.} ~ c o Z >X:X:X:X-X:X:X:X:X:X:X:X1X1X9XwXqX0X0X0X5X!.O o P iXXX/.7.2.2.R 7.i.A.,.] ~ c M R.[. X( ",
"uXe 0 9 # @ Y.6X1X1X,X,X:X,X,X1X7X9XqX4X2X}.~.U.U.U.U.!.j   O F OX@X/./.).^.8.1.1.[ ( e c D _.XXE y ",
"1.i i t 9 X O A 2X0X8X7X7X8X8X0X4X|.!.Z j ; . o @ o o o O   . u s.c.s.@XiX.XE X.[ u e q b T } ;.+.i ",
"O.e t i t 3 # + , A ~.^.^.~.~.A z ; .   # & 4 , Z k 5 < < . # _ p.u.i.a.].jX'.] ` y w 0 c H u a [ w ",
"( F w i a t 0 & $ ; O ; O o o . . X # & 4 ] 1.6.|.R.7.t.#.~ 7 [ i.i.i.Z.a.pXyX_ p e w w M R.c w K J ",
"t.r.} e i t w w 6 m 6 6 , & & < < 4 u _ [ @.>.t.3XR.7.y.i.c.[ [ :.i.Z.D.S.fXyXL e w w ~ G ).F  .a.0.",
"B.Z.p.} / c v M R _.'.fX! _ u u p _ [ [ [ +.,. .jXQ.2.{ #.#.' ' ' ' ;.<.<.8.XX'.b 0 w +.a.a.p.Z.M.j.",
"b.-.z.,...B G R.R fXk.fXyXW _ ] ] ] [ +.@.+.[ F @X_.D ^ ( +.] ' ' _ _ _ +.5..XoX'.K ) *.z.B.m.b.-.b.",
"&.O.*.*.%.} Y 6...%.%.1.k.r._ _ p ] ] ] O.] b L ,.G G v ~ ] [ +.%.] _ ] O.r.XX_./.uX0.p s $.*.*.%.$.",
"p w a O.$.' n i s $.*.*.n.y. ._ _ ] ] ] p } yX) @.9.T.B e ` ] +.;.%.O.] _ ! XX/.G fXa.+.$.| ( u y r ",
"! 8 0 O.*.( N 7 p $.%.$.$.:.5. .` u e ) F ).kX{ +.(.|.H / ~ p u p ' ] K (.'.! o.t.S.S.x.z.x.:.Q L 4 ",
"yXpX( d s N D 7 i a a p p ] w.yXW e e ( { y.fX5.F oX|.)...@...R ! E ]..XXXw.>.-.z.B.B.B.B.B.n.a.pXh.",
"i.iXn r 8 H D ( s i a a a s | yXW y p u s %.;.:.[ (.T.} O.+.+.6.(.).3X|.'.x.v.l.-.b.M.C.K.L.K.H.!  X",
"+. XJ y n ).R b a s p s s s ! r.[ a i s ] ] O.%.%.%.R.b ] l.O.O.;.a._.(.>.l.-.l.b.b.<.<.z.M.H.H.Y  X",
"( iXR $.;.j.:.%.] a s d f 3.Q X.f a p _ p s ] O.+.O.F u d d a d O.&.6.e.-.-.l.-.b.-.*.*.*.z.n.=.Y iX",
"J r.1.m.B.C.B.b.%.s a u J o.%.f d d s s p p s s d s N q 0 a i i a ~ ' l.l.-.v.b.-.b.b.b.-.$.=.$.Y a.",
"L <.B.C.J.K.J.b.m.b.:.fXfXX.&.a a a a s p p y i i w U M w d f a w } R ;.m.B.m.l.&.*.-.-.n.z.] u 3.b.",
"w.n.m.B.C.N.f -.N.N.n.u.:.f s s i i a ] s p O.a i 0 ).N 0 a d d { e.D.K.K.J.N.-.d d $.&.*.*.%.3.i.b."
};
