/* XPM */
static char *out[] = {
/* columns rows colors chars-per-pixel */
"50 50 239 2 ",
"   c #030101",
".  c #0C0403",
"X  c #0E0808",
"o  c #130402",
"O  c #190502",
"+  c #120807",
"@  c #1D0805",
"#  c #140B0B",
"$  c #1B0C0B",
"%  c #180F11",
"&  c #1C1113",
"*  c #220602",
"=  c #220903",
"-  c #2C0A01",
";  c #2B0806",
":  c #240B0B",
">  c #390200",
",  c #330B01",
"<  c #3E0E02",
"1  c #27110B",
"2  c #38120C",
"3  c #2B0D10",
"4  c #251414",
"5  c #26171A",
"6  c #2B1B1C",
"7  c #3A1714",
"8  c #321A1C",
"9  c #3B1B1D",
"0  c #3C201E",
"q  c #251A21",
"w  c #2D1D23",
"e  c #331721",
"r  c #321E23",
"t  c #3C1E23",
"y  c #2F2125",
"u  c #2E2128",
"i  c #342225",
"p  c #3C2225",
"a  c #34242A",
"s  c #3B262B",
"d  c #36282D",
"f  c #3B292D",
"g  c #3C2C31",
"h  c #3F3034",
"j  c #470701",
"k  c #560300",
"l  c #461001",
"z  c #571301",
"x  c #4B1412",
"c  c #461C16",
"v  c #44171B",
"b  c #4C151B",
"n  c #431A1C",
"m  c #4C1C1D",
"M  c #561617",
"N  c #531A1C",
"B  c #5C1C1B",
"V  c #620300",
"C  c #760300",
"Z  c #671701",
"A  c #741B01",
"S  c #641413",
"D  c #681814",
"F  c #621D1A",
"G  c #6A1D1B",
"H  c #751C15",
"J  c #7B1D14",
"K  c #473900",
"L  c #46211E",
"P  c #55231E",
"I  c #5D231D",
"U  c #5D2C1E",
"Y  c #70280D",
"T  c #783A00",
"R  c #672619",
"E  c #63221C",
"W  c #73241B",
"Q  c #772519",
"!  c #7B2B1C",
"~  c #75331E",
"^  c #79371C",
"/  c #441D21",
"(  c #4B1E22",
")  c #501D20",
"_  c #432325",
"`  c #4C2525",
"'  c #4C2825",
"]  c #422629",
"[  c #4A2629",
"{  c #442A2C",
"}  c #4A2C2C",
"|  c #532424",
" . c #5C2424",
".. c #522827",
"X. c #5E2C24",
"o. c #532C2C",
"O. c #5B2B2B",
"+. c #4F312F",
"@. c #57302E",
"#. c #432D31",
"$. c #4B2E31",
"%. c #522E30",
"&. c #5C2F34",
"*. c #433135",
"=. c #4C3335",
"-. c #453439",
";. c #4A3639",
":. c #47383D",
">. c #4C3A3D",
",. c #533334",
"<. c #5B3434",
"1. c #5B3A36",
"2. c #55363A",
"3. c #543A3C",
"4. c #5C3C3B",
"5. c #642523",
"6. c #622A25",
"7. c #6A2A25",
"8. c #6C2B24",
"9. c #632D2A",
"0. c #732521",
"q. c #732C23",
"w. c #792C24",
"e. c #6A3324",
"r. c #62312B",
"t. c #6A312B",
"y. c #743225",
"u. c #72342B",
"i. c #7A3828",
"p. c #643533",
"a. c #6B3533",
"s. c #683936",
"d. c #633D3C",
"f. c #6B3B3A",
"g. c #733B33",
"h. c #783C37",
"j. c #725000",
"k. c #776300",
"l. c #7D462B",
"z. c #69413B",
"x. c #75433A",
"c. c #4D3D42",
"v. c #523E41",
"b. c #5B3F40",
"n. c #683F40",
"m. c #4E4045",
"M. c #534244",
"N. c #5B4345",
"B. c #544549",
"V. c #5B464A",
"C. c #57484C",
"Z. c #5A4A4D",
"A. c #5F4E51",
"S. c #5F5254",
"D. c #644343",
"F. c #6C4242",
"G. c #694949",
"H. c #744542",
"J. c #764A47",
"K. c #624E51",
"L. c #615356",
"P. c #67575B",
"I. c #716064",
"U. c #890500",
"Y. c #980800",
"T. c #891C04",
"R. c #981B07",
"E. c #861B13",
"W. c #A90600",
"Q. c #B50600",
"!. c #BA0900",
"~. c #BC0A00",
"^. c #A41D04",
"/. c #8A2104",
"(. c #922202",
"). c #9B2408",
"_. c #8D3F00",
"`. c #862517",
"'. c #832D1B",
"]. c #952512",
"[. c #962D15",
"{. c #84321C",
"}. c #89361A",
"|. c #993617",
" X c #A72703",
".X c #B82907",
"XX c #A6340F",
"oX c #B5330E",
"OX c #A83814",
"+X c #BA3B11",
"@X c #842E24",
"#X c #863A26",
"$X c #963921",
"%X c #833C32",
"&X c #C70700",
"*X c #D50800",
"=X c #DB0900",
"-X c #D11701",
";X c #E20700",
":X c #E40900",
">X c #EC0900",
",X c #FE0700",
"<X c #F30900",
"1X c #FE0900",
"2X c #EE1B01",
"3X c #FC1301",
"4X c #FB1B01",
"5X c #C82A02",
"6X c #D82602",
"7X c #C83105",
"8X c #DC3303",
"9X c #E72E03",
"0X c #F52702",
"qX c #FA2301",
"wX c #F82C02",
"eX c #E43503",
"rX c #EC3503",
"tX c #EF3804",
"yX c #F63603",
"uX c #F83403",
"iX c #F63904",
"pX c #864510",
"aX c #97461A",
"sX c #A74519",
"dX c #B34D14",
"fX c #987800",
"gX c #864429",
"hX c #974927",
"jX c #8A4C37",
"kX c #C54B13",
"lX c #C65711",
"zX c #D06019",
"xX c #A38300",
"cX c #B18C00",
"vX c #CAA400",
"bX c #D4AE00",
"nX c #D7B200",
"mX c #EEC400",
"MX c #F9CB00",
/* pixels */
"P ,.B.C.S.P.P.C.>.;.p e.l.@.-.d d f d s s a a d d s  .) e g g a i ' 6.;.>.M.B.c.>.c.M.3.v.-.#.s 5.M.",
"7.M.Z.L.S.S.m.:.Z.Z.G.gXl.*.h f a d f g s s a a u w E.b w d g d ] 8.h.F.P.L.C.:.*.*.-.;.M.M.$.` r.B.",
"a.>.#.:.v.:.h :.M.M.1.@.f g g g g d a f g s #.c.a v ].b u a d $...,.M.B.C.B.v.-.g d d f g a a 0.4.;.",
"4.>.g f h :.:.:.>.3.gX}.p g f h *.d a g g s s a e sXU.( a w a /  .h g g g g g g g h h g u u 9 7.v.;.",
"3.*.*.-.>.m.v.v.3.i.dX|._ g d f #.g d g #.g d e b #X^.b t f ] F w.=.{ -.;.g g -.>.c.M.M.3.} E O.;.{ ",
"{ *.;.;.>.-.-.,.l.sXkX|.) i a a g g s d s s e e G =.+X0.v.c.b.h.}.E m } 2.,.=.2.O.=.;.@...E [.[ h ;.",
";.:.M.>.-.*.;.p.u.,.<.{.J n r i r u w a a a e F 0.&.$X .#.g ;.b.d.u.0.R E W e.d.z.z.v.M.V.s.|.&.-.>.",
"3.:.>.*.i { @.6.| r 6 R H l 3 4 q & & q e e ( 0.n.n...G [ s s $.=.;.d.@X8.U ,.;.l.^ } -.c.V.@Xt.=.3.",
"y.7.o.` | o.=...x 3 $ ; < - = @ @ O . . & 9 R <.V.=.o.H '.' _ p s #.=.2.a. .#.{ w.7.-.h c.A.n.w.u.X.",
"^ }.8.! R g i 4 : - z A T.(.(.(.(.T.z @   : _ 3.{ $.$.8.kX{.R E P } %.,.d.&.] 6.6.{ g g g c.b.&.}.w.",
"} w.i.hX| y % O z  X5XrXuXuXuXiXiXiX8X/.l o + 5 w ] ] 7.hXhXgX$XOXhX@Xu.0...] ..$.g g g c.c.c.c.X.u.",
"$.@Xi.jX_ & = A 5X4X4X3X4X4X4X4X0XwXiXtX5XA , O + % $ 0 i s =.g.kXzXhXgX%X5.( _ #.#.g c.c.c.c.c.6.#X",
"r.r.v.-.4 , R.6X3X<X,X,X1X,X,X,X1X3XwXiXiXeX XT.Z , O o X X # 4 R hXG.N.3.X. .} =.=.;.c.c.c.c.;.8.2.",
"{.p w % ; R.2X1X,X,X1X1X1X1X1X1X1X1X3XqXyXiXiXtXeX.X(.Z o     # p F.3.+.{ { _ { #.#.*.-.c.c.h [ ~ g ",
"sX( & O Y.>X1X1X<X1X1X1X1X1X1X1X1X1X1X3X4XyXiXiXiXiX8Xz . . 4 c ..,.' ] _ p i s s { { g -.-.g ~ '.t ",
"jX3.$ V ;X,X,X=XQ.W.=X1X1X1X1X1X1X1X1X1X,XqXiXiXiXiXZ . O c E `.E ) L _ _ p 0 _ f f *.*.*.#.p y.J.2.",
"v.*.; ~.3X>X!.A j._.T.=X1X1X1X1X1X1X1X1X1X1XyXiXuX.Xo . x Q |.%Xi.`.G 5.G F G 5.] f #.-.;.;.a.X.K.N.",
"[ w j >X<X!.T cXnXbXfX^.<X1X1X1X1X1X,X1X,X3XuXuXwX!..   @ c 8.p.x.u.p.a.h.g.@Xw.| { #.;.*.;.o.O.2.M.",
"N % V ,X>XR.fXnXmXMXvXpX&X,X1X1X1X1X1X1X1XqXuXiXuX2X^., . o $ : 4 $ 8 z.G.F.H.f.W | } #.i t p | ] >.",
"#XO C ,X:X/.fXxXvXMXvXT Q.,X1X1X1X1X1X1X,XqXiXiXyXyXtX7X(.Z = .     & <.n.n.n.b.t.@X0.O.o.<.<.g.@X .",
"#.+ Y.1X<XR.j.bXmXMXxXT.;X1X1X1X1X1X1X1X1X1X4XwXiXiXiXiXtXeX7XA . + L H.J.F.n.D.F.#X0._ p #.f { 4.hX",
"y o Q.1X1X&Xz K k.j.Y !.,X1X1X1X1X1X1X1X1X1X1XwXiXiXiXiX8XT.z = + ' f.x.H.n.n.d.d.w.B t i i i s f +.",
"5 o Q.1X1X<X*XW.Y.!.=X<X1X1X1X1X1X,X1X1X1X1X4XiXiXiXiXiX Xo o . $ O.h.H.H.n.F.4.2...N 9 8 6 i r 6 w ",
"5 . W.,X1X1X1X<X3X,X1X1X1X1X1X1X1X1X1X1X1X1XqXiXiXiXiXiXeX X.X(.o 3 q.x.H.J.F.z.<.[ M n t p i w w y ",
"5 . U.,X,X1X1X1X,X,X1X,X1X1X1X1X1X1X1X1X1X1X3XiXiXiXiXiXiXiXiXeX(.o . 7 1.z.d...[ ( J 5.p e i i 6 5 ",
"w X k <X1X1X1X1X,X<X<X<X1X1X1X1X1X1X1X1X1X1X,XwXiXiXiXiXiXiXiXiXtX(.O   X 8 ] ' o.` B B 9 8 w i i 6 ",
"q # > ;X1X1X,X1X>XU.V =X1X1X1X1X1X1X1X1X1X1X1XiXiXiXiXiXyXwXrX6X5X5X(.,     $ 9 ' ) J 0.| _ #.i 6 v ",
"s 2 O W.1X1X1X<XQ.j U.<X1X1X1X,X1X1X1X1X1X,X1XyXiXiXiXeX5XU.> * O O O o       . 8  .7.J  .{ #.s ( Q ",
"9 M o V <X<X<X~.k j &X,X1X1X1X1X,X1X1X1X1X1XqXiXyX9X Xz o . . + $ $ @ # X .     o 9 r.a. .) t r M b ",
"b S : * &X>XW.> > W.,X1X1X1X1X1X1X1X1X1X1X1XuXiX6Xj   . * 2 P  .6.6.X.X...0 : o X 6 N.3.$.) t 9 D x ",
"M R.x o C ~.j k W.<X1X1X1X1X1X1X1X1X1X1X1X1XqXiX X.   O H E.E.`.t.t.e.r.r.O.R Q L #.3.=.p v M b H `.",
"H OXW ; ; Q.=X;X,X1X1X1X1X1X1X1X1X1X1X3X3X3X4XwXrXZ - . 2 E.oX+XQ 8.t.r.r.7.'.y.z.4.,.] v M S D /.XX",
"oX .n c + j -X<X1X1X1X1X1X1X1X1X3X4XwXyXrXrX8X7X7X5X/.- . < ).kXXX`.W 5.E ! q.d.D.4.} t v S E. X[.' ",
"OXp y w % X Z 6X0X4X3X3X3X,X3XqXwXiX8X5X X/.Z l l < < < . . 3 E w.$X[.`.`.].0.d.4.} _ n v S [.OX! i ",
"4.a a u q # o z  X8XrX0X0X4X0XtXeX.XA l + . X = , @ + .       8 d.x.f.$X+XoX! } } p t r / H  .;.%.a ",
"#.t a u u 6 % + , Z /.). X X X(.A , .   X 4 p E  XS M 8 4 $ # 6 d.d.d.g.OXkX}.' ] r r w v J p d } r ",
"_ F r a a a w 5 $ 1 = = = - = o . X # 4 6 $.4.9..XE.0.a.&.%.{ } d.d.d.z.x.dXaX] ] r r e M E.n r I c ",
"p.i.| t a u r r c M c 0 2 & & 4 4 6 p { { %.d.p.7XE.0.a.f.n.,.o.@.1.D.G.G.gXaXU t r r / H ].G %.x.e.",
"Z.D.f. .) v v M Q [.#X}.l.L 0 p p { } } } } ,.o.kX^.G ..&.<.[ [ ' ' ,.4.3.8.OX}.9 w r %.g.h.s.D.V.z.",
"M.>.v.2.O.F H E.! l.l.gXaXe.] { { } $.$.%.$.} E $X].G ( _ $.[ ] ] ] { } } e.oX+X}.E _ ;.v.C.B.M.>.M.",
"-.#.;.;.;. .R X.O.=.;.4.x.i.' s { { { { } { n I 2.H H ) t $.} $.} { { { #.i.OX[.'.OXe.f f *.;.-.h *.",
"p r d *.#.[ ) a s *.;.;.N.g.| { f } { { p P aX' ,.0.R.) t p { $.,.;.} } ] ~ OX`.W gXg.+.*. ._ p i y ",
"^ p w #.;./ N 0 s *.-.#.*.<.e...s p p L F ].lX| } '..XE.) / p p s } ] I }.}.^ r.p.G.G.M.v.d.<.~ U y ",
"aXsX_ g f ) D r i f f d d } y.aXR / p _ } a.gX8.I +X.X].6.%.O.! ^ ! |.oXOXe.3.v.3.C.K.C.Z.Z.b.x.dX^ ",
"z.dXc i 0 J D _ f a d d d f X.aXe.i s s f =.2.,.} '.R. .} ;.$.9.'.[.7X.X}.M.v.>.>.M.V.K.L.I.P.K.{.XX",
"+.XXL i m ].`.n d f d f g s ^ i.} s i s f { { =.=.$.E.( #.>.g { ,.u.[.@X1.m.>.>.M.M.3.>.v.C.K.K.R |.",
"_ dX! #.,.d.<.,.{ d f g h e.e.+.*.f f f s { { #.#.{ F t g g f f #.*.9.q.>.:.>.M.M.>.=.>.>.v.V.;.R kX",
"L i.4.B.C.S.Z.M.;.f a i P @.=.f g f f s s s f f #.g N e w d a a d ] [ v.:.>.M.M.>.M.M.M.:.-.;.h R g.",
"I 3.C.L.L.P.L.M.B.M.<.gXgX+.h d d d f s f i a d d r G N r g g d r  .! %.B.C.B.c.-.;.>.3.B.3.{ p 6.M.",
"y.N.B.Z.A.C.*.:.Z.Z.N.p.<.h h f a a f f s s #.f a q ].b u d g g ..u.G.P.P.L.C.:.*.g *.*.:.;.=.6.d.M."
};
