/* XPM */
static char *out[] = {
/* columns rows colors chars-per-pixel */
"50 50 239 2 ",
"   c #050101",
".  c #0C0303",
"X  c #0E0809",
"o  c #130402",
"O  c #1C0502",
"+  c #180806",
"@  c #130A0A",
"#  c #1A0D0D",
"$  c #180F11",
"%  c #1C1214",
"&  c #1C1218",
"*  c #220401",
"=  c #250902",
"-  c #2A0A03",
";  c #280A09",
":  c #330400",
">  c #330C01",
",  c #3C0E01",
"<  c #27110D",
"1  c #241314",
"2  c #2B1312",
"3  c #241618",
"4  c #261A1D",
"5  c #2A191B",
"6  c #391110",
"7  c #381512",
"8  c #321A1D",
"9  c #3C1A1E",
"0  c #3B2510",
"q  c #271B23",
"w  c #2D1D23",
"e  c #331721",
"r  c #331E23",
"t  c #3C1E23",
"y  c #2F2125",
"u  c #2E2128",
"i  c #332225",
"p  c #3C2225",
"a  c #34242A",
"s  c #3B262A",
"d  c #36282D",
"f  c #3B292D",
"g  c #3C2C31",
"h  c #3F3034",
"j  c #460504",
"k  c #4B0200",
"l  c #430F00",
"z  c #570400",
"x  c #471102",
"c  c #571301",
"v  c #491715",
"b  c #44171A",
"n  c #4C151B",
"m  c #431A1D",
"M  c #4B1D1D",
"N  c #571818",
"B  c #531B1C",
"V  c #690600",
"C  c #770500",
"Z  c #671803",
"A  c #761903",
"S  c #681816",
"D  c #611C1A",
"F  c #771A15",
"G  c #751C15",
"H  c #7B1C13",
"J  c #5C3B00",
"K  c #4C211E",
"L  c #5D231C",
"P  c #59261C",
"I  c #7B2206",
"U  c #7B3303",
"Y  c #64221C",
"T  c #69261A",
"R  c #792315",
"E  c #74231C",
"W  c #762B1C",
"Q  c #7B2C1D",
"!  c #6B311D",
"~  c #75331E",
"^  c #79381D",
"/  c #431D21",
"(  c #4A1D22",
")  c #581E20",
"_  c #432325",
"`  c #4C2524",
"'  c #462827",
"]  c #432629",
"[  c #492629",
"{  c #442A2C",
"}  c #4A2C2D",
"|  c #532524",
" . c #5B2424",
".. c #5B2B25",
"X. c #532729",
"o. c #532B2C",
"O. c #5B2C2B",
"+. c #4F312F",
"@. c #59302D",
"#. c #432D31",
"$. c #4A2E31",
"%. c #522E30",
"&. c #5C2F34",
"*. c #433135",
"=. c #4B3335",
"-. c #453439",
";. c #4A3639",
":. c #47383D",
">. c #4C3A3D",
",. c #543334",
"<. c #5B3434",
"1. c #533A3C",
"2. c #583838",
"3. c #5B3B3C",
"4. c #632623",
"5. c #642924",
"6. c #6B2A24",
"7. c #6D2C24",
"8. c #642E2A",
"9. c #732521",
"0. c #742C24",
"q. c #792C24",
"w. c #6C3124",
"e. c #683525",
"r. c #62312B",
"t. c #6B322B",
"y. c #743225",
"u. c #72342B",
"i. c #7A3928",
"p. c #663532",
"a. c #6C3534",
"s. c #663A36",
"d. c #643C3C",
"f. c #6A3A3A",
"g. c #733A33",
"h. c #763C37",
"j. c #6D5A00",
"k. c #795300",
"l. c #7B6700",
"z. c #704235",
"x. c #754438",
"c. c #4D3D42",
"v. c #523E41",
"b. c #5B3F40",
"n. c #4E4045",
"m. c #534244",
"M. c #5B4245",
"N. c #544549",
"B. c #5B464A",
"V. c #57484C",
"C. c #5A4A4D",
"Z. c #5F4E51",
"A. c #5F5254",
"S. c #644243",
"D. c #6B4241",
"F. c #694949",
"G. c #754947",
"H. c #624E51",
"J. c #615356",
"K. c #67575B",
"L. c #716064",
"P. c #8A0400",
"I. c #970900",
"U. c #881604",
"Y. c #821D01",
"T. c #961B09",
"R. c #861B13",
"E. c #901F12",
"W. c #A50600",
"Q. c #A90C00",
"!. c #BA0800",
"~. c #AB1703",
"^. c #B51701",
"/. c #8A2105",
"(. c #932302",
"). c #9A2409",
"_. c #872616",
"`. c #822C1B",
"'. c #942512",
"]. c #962C16",
"[. c #83321C",
"{. c #883519",
"}. c #993616",
"|. c #A72704",
" X c #B42B03",
".X c #BB2A07",
"XX c #A6340F",
"oX c #B5330E",
"OX c #A93814",
"+X c #BA3B11",
"@X c #862D23",
"#X c #863925",
"$X c #943A21",
"%X c #813C32",
"&X c #C80800",
"*X c #D80900",
"=X c #CB1801",
"-X c #E40900",
";X c #ED0800",
":X c #FB0700",
">X c #F40900",
",X c #FE0900",
"<X c #E01B01",
"1X c #FC1301",
"2X c #F51A01",
"3X c #FB1C01",
"4X c #C82D03",
"5X c #D72902",
"6X c #C63308",
"7X c #D73203",
"8X c #C83611",
"9X c #E92A02",
"0X c #F92302",
"qX c #F32C02",
"wX c #F92C02",
"eX c #E43403",
"rX c #EB3303",
"tX c #EE3904",
"yX c #F63503",
"uX c #F83203",
"iX c #F63904",
"pX c #8A460A",
"aX c #97461A",
"sX c #A74519",
"dX c #B74512",
"fX c #B05316",
"gX c #997500",
"hX c #864328",
"jX c #964928",
"kX c #8C4D37",
"lX c #C64B13",
"zX c #C65711",
"xX c #CF601A",
"cX c #A38600",
"vX c #B89500",
"bX c #C09D00",
"nX c #D1AC00",
"mX c #D8B200",
"MX c #F7CA00",
/* pixels */
"K <.m.C.A.K.K.V.>.;.p ! z.@.-.d d d f d a s a g a a ) ( e g g a a ` 5.=.>.m.m.n.>.>.m.m.v.-.#.f 4.v.",
"6.m.C.J.A.A.n.c.C.C.F.hXz.=.h f a a f g s s a a u r R.n r g g d _ 7.h.F.K.J.C.:.*.h *.>.v.N.$.` p.m.",
"a.>.*.:.n.:.d c.m.m.3.e.' g g { g d d f s s #.*.d b E.n a a d $.X.,.m.V.B.N.n.:.g d f f d a a 6.b.=.",
"3.>.g f h :.-.:.>.=.hXhXp h g g *.g a f g g #.a e sXU.n w w a /  .h g g g g f f g h h d a r 9 6.v.;.",
">.*.*.-.>.n.v.>.1.i.dX}._ g d f g g d g g g a w n %XT.N ] g ] D W $.g *.;.h g ;.>.v.m.m.1.{ Y O.>.*.",
"{ *.>.;.>.-.-.2.g.fXdX}.B a i a g g d g s s e e G $.8X9.,.c.b.h.$XD M $.,.+.,.;.@.$.;.@.O.Y ].X.{ *.",
";.;.m.>.-.h ;.p.u.,.p.{.H m r y r w w w a a e S 9.&.$X .#.#.:.b.d.u.E T Y T t.d.z.s.v.N.m.f.}.O.*.>.",
"1.;.>.h p { @.5. .i 5 T A v 2 5 & $ $ & q e ( 9.b.S.%.S [ s s #.;.>.p.i.0.5.,.;.x.^ +.*.c.B.@Xp.;.>.",
"y.t.o.K | } %.X.N 6 + ; x > = O * O o . @ 3 D <.B.,.%.F `.` ] p ] *.=.1.u.O.{ { q.t.c.h c.Z.f.0.y.@.",
"^ {.6.Q T #.a 5 ; = l Z A (.(.(.(.(.Y.c - o 2 $.s $.} 6.lX{.T L K X.%.,.f.&.{ 5.4.] d g g v.v.8.}.0.",
"[ q.i.jX| u & o , Y..XeXwXwXwXwXwXwXyX7X|.c o X 1 p { w.jXjX#XW U jX@Xu.9.| ( X.$.g g g c.c.c.c. .u.",
"$.[.h.kX[ 1 + c ~.9X0X3X1X1X1X1X1X1X2XwXiX5XZ *   # 2 ,.;.=.{ 7 `.xXjXhXh.4.( ] #.#.g c.c.c.c.c.5.#X",
"8.r.v.:.5 ; A 4X0X1X,X,X,X,X,X,X,X,X,X1XwXiX5XI.k O . % 5 1 @ @ P jXG.M.1... .} =.#.;.c.c.c.-.c.w.1.",
"[.p w & O U.<X1X:X:X,X,X,X,X,X,X,X,X,X,X1XuXiXwX=XU.c - = .   # <.D.M.$.{ { ' { #.$.*.-.c.c.-.[ W d ",
"sX( 3 o C *X,X,X,X,X,X,X,X,X,X,X,X,X,X,X,XwXiXiXuXrX4X XA .   7 O.%.' ] ] _ p p f { #.g *.:.g ~ #Xt ",
"kX1.# k *X:X,X;X!.W.&X;X,X,X,X,X,X,X,X,X,XuXiXiXiXuXiX.X, . < R L m 8 8 _ 9 9 _ f f *.*.*.*.p y.G.2.",
"v.:.* W.,X>X&XU.U pXU Q.>X,X,X,X,X,X,X,X,X0XiXiXiXuX9Xx   o Y w.K # o 2 Y S G  .' { #.-.>.=.p.O.H.M.",
"[ a : -X:X*XI gXnXmXvXpX&X,X,X,X,X,X,X,X,X,X3XuXiXiXrX=     = # #   @ ' f.h.q.q.| { #.=.=.=.%. .1.v.",
"M % j >X>X~.j.mXmXMXMXgXI.;X,X,X,X,X,X,X,X,X,X1XiXiXiX XA l x l o   4 z.G.D.F.f.9.| $.{ i t p ` ' >.",
"#XO V :X>X~.j.vXcXMXMXgXU.;X,X,X,X,X,X,X,X,X,X,X0XiXiXiXeX7X4XZ . X ' s.D.D.D.d.w.@X9.O.o.<.<.g.#X) ",
"} + C ,X>X!.J bXMXMXmXk.W.>X,X,X,X,X,X,X,X,X,X,X1XuXiXiXiX7XZ O . < | D.G.D.D.S.D.#X0.[ s { f } 3.jX",
"y X I.,X,X-XC 0 j.l.J U.-X:X,X,X,X,X,X,X,X,X,X,X,XwXiXiXwX<X:     X 1 } d.D.d.b.b.q.D t r i i s f } ",
"4 o W.,X,X:X;XQ.I.Q.&X>X,X,X,X,X,X,X,X,X,X,X,X,X,XwXiXiXuX9X(.x > - o . 4 ,.z.1.&.X.n 7 8 w i i w i ",
"3 . P.:X,X,X,X1X>X>X,X,X,X,X,X,X,X,X,X,X,X,X,X,X,XwXiXiXiXiXiXyXiX7X Xc   X p 3.3.[ N m t p i 5 5 q ",
"q . C ,X,X,X,X,X,X,X:X,X,X,X,X,X,X,X,X,X,X,X,X,X,XuXiXiXiXiXiXiXiXiXiXeX(.= . 1 _ _ R 4._ r i y 5 4 ",
"w X : >X,X,X,X,X,X:X;X>X,X,X,X,X,X,X,X,X,X,X,X,X,XwXiXiXiXiXiXwXwXiXiXiXiX X,   1 / N N 9 5 w i i 8 ",
"q # * *X,X,X,X:X,X&Xz I.,X,X,X,X,X,X,X,X,X,X,X,X,X3XiXiXyX<X^.Q.I.Y.A A (.4X Xl   ; G E | _ #.i w b ",
"p 6 O P.:X,X,X,X*XV k &X,X,X,X,X,X,X,X,X,X,X,X,X,X3XtX7X(.: o . .   .     O c A = . 7 F ) { { f / H ",
"9 N X k -X,X>X*XC : I.:X,X,X,X,X,X,X,X,X,X,X,X,X3XyX|.=   X + < 2 2 2 < < # X .     # O. .( t r N b ",
"b S ; * W.>X!.z * C -X:X,X,X,X,X,X,X,X,X,X,X,X,XiXeXO . - B 5.6.r.r.r.r.@...m ; .     a } ( b t S n ",
"N T.v o k &XV j P.*X,X,X,X,X,X,X,X,X,X,X,X,X,X1XiXrXZ S E.R.H `.6.t.t.t.r.O.W R m @ X y t b N n H R.",
"F OXG 2 * I.*X-X>X,X,X,X,X,X,X,X,X,X,X,X1X3X0XwXiXiXtX8X@X]..X+XW 6.8.r.O.6.{.q.2.=.i r 7 N S S /.OX",
"oX .M M @ : ^.>X1X,X,X,X,X,X,X,X,X,X1X0XuXiXiXeX7X4X.X XR R XXdXOX_.E 5.4.R 0.D.S.2.{ / b N U.~.XX_ ",
"OXp y q & X l  X9X3X3X1X1X1X1X1X1X3XuXiXeX4X|.(.c > = = O < 6 N q.$X]._./.'.9.3.3.{ p / / S ].sXQ a ",
"3.p i u q $ X , T.4XeX9XwXwXqXqX9XeX4X|.A z * O > O # # # # o 1 d.z.f.}.+X+XQ o.} p r r / G  .=.} a ",
"*.p u a y 4 & @ O c /.(.|.|.|.)./.I l O . @ 3 7 (.S B ' } } s { d.d.d.g.}.lX{.[ ] t r w n G t d } i ",
"_ D r a a u y 5 < < = O = = - O o . + $ % t 2.8.oXE.`.a.&.f.d.d.d.f.d.S.g.fXaX' ] r r r N R.m r L M ",
"<.i. .p a u r r v D K m 7 < # % 1 1 w p s $.3.<.6XR.9.a.f.d.&.%.%.3.D.F.F.hXaX..r r r / F '.D %.g.r.",
"F.B.f. .) m n N R {.aXaXz.K i p ] s } } } } <.o.lX~.Y [ &.2.[ [ [ } 2.3.1.0.XX{.m w r %.g.h.f.S.C.z.",
"m.:.1.2.O.N F R.Q #Xx.hXaX! ' { { { } } =.$.$.N $X'.S ( ] $.[ ] _ _ ' { =.! oX+X{.Y _ ;.v.B.V.m.>.m.",
"-.#.;.:.;. .T 5.@.=.;.2.x.i.` { ' } { { $.s K P 2.G F ( / { $.$.$.{ { { $.i.OX]._.sXe.f f $.;.-.*.*.",
"p r d #.*.[ M a f *.;.;.M.f.| f s { f { p | aX` %.E T.) t s ] $.=.=.$.{ s ! OX_.G hXg.} *..._ p p y ",
"~ p w #.;._ B i s #.*.*.*.,.w.o.s p p M D ].zX` $.`..XH ( / p p ] { ' L {.{.~ e.<.F.F.m.c.z.<.~ P y ",
"aXfX_ g ] B S 9 a f f d f } y.aX! / p p X.a.hX7.N +X.X'.8.%.O.W y.`.}.oXOXw.1.v.v.B.H.C.C.B.B.g.fX^ ",
"3.dXK y 9 H S _ f a d d f f ..aX! i s s f =.;.<.} Q T. .$.=.$.8.`.'.6X X#Xb.m.>.>.m.B.Z.A.L.K.H.^ XX",
"+.XXK i M '.R / d f d g f f ^ i.} d a f s { $.*.=.,.R.( ] c.g { ,.g.}._.2.c.:.>.m.m.v.1.n.C.H.H.S }.",
"_ dXW { 2.s.,.,.{ d d g h e.w.+.*.f f s s { $.{ #.$.D p g g f d g $.8.0.>.>.>.v.m.>.;.;.;.m.V.;.T zX",
"` ^ b.N.C.A.C.m.=.f a p K @.=.f f f f f f s f f g s B 8 w d a a a s } v.:.>.m.v.v.m.m.m.>.*.:.h T g.",
"P 1.V.A.J.K.J.n.N.m.<.hXhX+.*.d a d f f p a i a a r Y n r g *.d s | E <.M.C.N.:.-.*.1.1.V.v.{ p 5.m.",
"y.M.N.Z.Z.V.*.>.V.V.M.s.<.h h f d a d f f f #.g a q '.N a d g d X.u.F.K.K.J.V.c.h g h *.;.;.=.5.3.m."
};
