/* XPM */
static char *out[] = {
/* columns rows colors chars-per-pixel */
"50 50 235 2 ",
"   c #040101",
".  c #0C0302",
"X  c #0E080A",
"o  c #130402",
"O  c #1B0502",
"+  c #1A0805",
"@  c #130A0B",
"#  c #1B0D0D",
"$  c #1E100E",
"%  c #180E10",
"&  c #1C1213",
"*  c #220401",
"=  c #2C0200",
"-  c #240A01",
";  c #2D0A02",
":  c #240D0C",
">  c #330B01",
",  c #370802",
"<  c #23110F",
"1  c #37150A",
"2  c #221312",
"3  c #2B1415",
"4  c #21161B",
"5  c #241A1D",
"6  c #2B1B1D",
"7  c #351818",
"8  c #3C1B1E",
"9  c #3C2010",
"0  c #2C1D23",
"q  c #331721",
"w  c #321E23",
"e  c #3B1E23",
"r  c #2E2125",
"t  c #2E2228",
"y  c #342125",
"u  c #3C2225",
"i  c #34242A",
"p  c #3B262A",
"a  c #36282D",
"s  c #3B292D",
"d  c #3C2C31",
"f  c #3F3034",
"g  c #3F3138",
"h  c #4D0500",
"j  c #410F00",
"k  c #530500",
"l  c #5C0400",
"z  c #520C00",
"x  c #471001",
"c  c #4D1101",
"v  c #521301",
"b  c #5E1602",
"n  c #4B1712",
"m  c #44171A",
"M  c #4C151B",
"N  c #421B1C",
"B  c #4C1C1D",
"V  c #581616",
"C  c #54161A",
"Z  c #541B1C",
"A  c #5C1C1B",
"S  c #6B0300",
"D  c #760400",
"F  c #6B1701",
"G  c #781702",
"H  c #681714",
"J  c #621C1A",
"K  c #6B1D1B",
"L  c #771C16",
"P  c #7B1C14",
"I  c #563000",
"U  c #45211E",
"Y  c #55231E",
"T  c #5D241D",
"R  c #59281B",
"E  c #742800",
"W  c #63221C",
"Q  c #68251B",
"!  c #73241B",
"~  c #772619",
"^  c #7B2C1D",
"/  c #703513",
"(  c #75331E",
")  c #77371C",
"_  c #441D21",
"`  c #551E21",
"'  c #432325",
"]  c #4B2524",
"[  c #432629",
"{  c #4B2728",
"}  c #432B2D",
"|  c #4B2C2D",
" . c #532424",
".. c #5B2424",
"X. c #592A26",
"o. c #522B2C",
"O. c #5A2B2C",
"+. c #4D302E",
"@. c #5A322E",
"#. c #432D31",
"$. c #4A2E31",
"%. c #522E30",
"&. c #5C2F33",
"*. c #433135",
"=. c #4B3335",
"-. c #453539",
";. c #4A3639",
":. c #47383D",
">. c #4C3A3D",
",. c #543334",
"<. c #5B3434",
"1. c #573838",
"2. c #543A3C",
"3. c #5C3B3C",
"4. c #632624",
"5. c #632A25",
"6. c #6B2A24",
"7. c #6D2C24",
"8. c #622D29",
"9. c #732521",
"0. c #732C24",
"q. c #782C24",
"w. c #693326",
"e. c #62312C",
"r. c #743125",
"t. c #7A3927",
"y. c #73342C",
"u. c #663532",
"i. c #6B3534",
"p. c #673936",
"a. c #633D3C",
"s. c #6A3B3B",
"d. c #733B33",
"f. c #7B3B32",
"g. c #754F07",
"h. c #7D462B",
"j. c #6C413B",
"k. c #774536",
"l. c #4D3D42",
"z. c #523E41",
"x. c #5D3F41",
"c. c #663F41",
"v. c #4E4045",
"b. c #534244",
"n. c #5B4345",
"m. c #544549",
"M. c #59474B",
"N. c #5A4A4D",
"B. c #5F4E51",
"V. c #5F5254",
"C. c #644344",
"Z. c #6B4242",
"A. c #674949",
"S. c #6B4A4A",
"D. c #754846",
"F. c #624E51",
"G. c #615356",
"H. c #67575B",
"J. c #716064",
"K. c #8D0700",
"L. c #950700",
"P. c #8B1906",
"I. c #961B09",
"U. c #861B13",
"Y. c #A80500",
"T. c #B70800",
"R. c #A71904",
"E. c #8A2105",
"W. c #932302",
"Q. c #992307",
"!. c #893800",
"~. c #882718",
"^. c #822D1B",
"/. c #942512",
"(. c #962C14",
"). c #83331C",
"_. c #883519",
"`. c #993617",
"'. c #A92603",
"]. c #B82A05",
"[. c #A4390D",
"{. c #B4330E",
"}. c #A83814",
"|. c #BA3C12",
" X c #863925",
".X c #833328",
"XX c #953C21",
"oX c #C50800",
"OX c #D50700",
"+X c #D30A00",
"@X c #DD0900",
"#X c #C81E01",
"$X c #EA0700",
"%X c #E30800",
"&X c #EE0900",
"*X c #FF0700",
"=X c #F40900",
"-X c #FE0900",
";X c #E71B01",
":X c #F41701",
">X c #FC1301",
",X c #FB1C01",
"<X c #C52D02",
"1X c #CB2D03",
"2X c #DA2902",
"3X c #CA3106",
"4X c #D63203",
"5X c #DC3203",
"6X c #EA2A02",
"7X c #F92202",
"8X c #F22802",
"9X c #F82C02",
"0X c #E43403",
"qX c #EC3703",
"wX c #F63503",
"eX c #F83203",
"rX c #F63904",
"tX c #F83904",
"yX c #8D461E",
"uX c #98461A",
"iX c #A74519",
"pX c #B04E14",
"aX c #956B00",
"sX c #864328",
"dX c #964726",
"fX c #824737",
"gX c #C54B13",
"hX c #C65711",
"jX c #A98500",
"kX c #B99600",
"lX c #CDA800",
"zX c #D8B500",
"xX c #E7BD00",
"cX c #EFC500",
"vX c #F8C900",
/* pixels */
"Y 1.m.N.V.H.H.m.>.;.p / h.,.-.a a s s a p i i d p i ` C 0 d d i i ] 5.=.:.b.m.l.>.>.b.z.z.-.#.p 6.l.",
"6.z.N.G.V.V.v.:.N.N.A.sXk.*.g a i i s s p p i i t q U.M w a d a ' 7.f.S.H.G.M.:.*.f =.;.b.b.$.] u.b.",
"i.>.#.:.z.:.f :.z.z.3.@.[ d d #.d a a s d p #.*.i _ I.M w i s $.X.%.b.M.M.m.v.:.a i a d a i i 9.3.=.",
"1.l.d s f :.-.l.>.2.sX_.p s d d *.s i s d [ d i q iXU.M i 0 i _ ..g d d d d d s f g g d i t 8 7.z.;.",
">.*.*.;.>.v.z.>.z.t.pX`.' d a s #.d a d #.d p 0 `  XI.C p d [ J ! =.d -.=.*.d -.>.>.b.b.2.} J O.;.*.",
"} *.;.>.>.-.-.1.t.pXgX`.` i y i d d i d p p q q K ;.3X9.,.l.x.d.XXT B | ,.+.=.1.o.,.=.,.o.Q (.o.} -.",
";.;.b.>.-.*.;.u.y.,.<.).H 8 6 6 0 0 0 0 q 0 q J 9.&.XX` #.#.l.x.a.q.! K Q Q w.a.j.j.z.b.n.i.`.&.-.>.",
"2.;.>.d p } o.5. .0 6 n b , : @ % @ X X X 4 q J x.c.o.K ] p p #.;.>.p.t.0.5.,.:.h.) +.*.l.N..X8.;.>.",
"r.w.o.] Y { =. .n : + ; , c v v v v c j ; O + 3 l.#.| L ^. .u u s =.=.2.i...} } q.6.-.g l.B.c.q.r.@.",
") _.6.^ 6.#.r & + , F Q.<X2X5X2X2X2X5X1X].E.x o . & 6 ..gX).Q W Y { o.&.p.&.] X.8.p i d d l.x.&.`.r.",
"| q.t.dX .0 @ O v '.0XwX9X,X>X>X-X>X,X8XrXrX<XG , o X 1 h.sXsX`.[.yX Xq.6. .u ] u & 4 t g z.l.l.4.r.",
"|  X.XfXu % ; G 1X8X9X,X-X-X-X-X*X-X-X>X7XwXtX0X].G > o + 6 #.u.[.pX) w.6.M 3 & X X X a l.l.l.l.4.t.",
"8.@.z.g & , I.;X,X>X-X-X-X-X-X-X-X-X-X*X-X,XrXwXrXqX'.E x O + < 1 1 < & 2 + o .     5 :.l.l.l.=.7.2.",
").[ 0 @ ; Y.:X-X-X*X*X*X-X-X-X-X-X-X-X-X-X-X9XeXrXtXtX0X].W.F F b F b b b F F >   X i -.l.l.g { ( s ",
"iX_ 2 O K.&X-X-X=X$X=X*X-X-X-X-X-X-X-X-X-X-X>X>XeXtXrXrXrXrX5X4X4X4X4X4X4X4XW.; X 6 s f -.-.a ( ^.e ",
"fX1.# l %X-X=XOXL.G G T.=X-X-X-X-X-X-X-X-X-X*X-X9XrXrXrXrXrXtXtXtXtXtXtXwX].c @ & y #.*.*.*.p r.D.1.",
"z.-.* T.-X=XT.E aXjXaX!.oX-X-X-X-X-X-X-X-X-X-X-XwXtXtXrXtXtXtXrXtXrXrXqX'.x + $ y s #.;.;.;.i.4.F.x.",
"{ 0 = %X=XoXE jXxXvXvXaXW.@X-X-X-X-X*X-X-X-X-X-XrXtXrXrXrXrXrXrXtXtX0XW.> X 7 T  .} #.*.;.=.o.X.z.z.",
"Z % , =X=XT.g.kXaXcXvXlXg.T.-X-X-X-X-X-X-X-X-X,XtXqX4X4XqXqXqXqX1XW.v O @ y 3.s.9.X.| } y e u ] [ >.",
" X@ l =X-X#XI lXkXcXvXkXE oX-X-X-X-X-X-X-X-X-X,XtXE.> > , v v , ; O o $ } 3.j.3.y.^.9.O.o.<.<.d. X` ",
"+.@ D -X-X@XF g.lXcXzXg.K.&X-X-X-X-X-X-X-X*X-X>XrX1XG o .       . : ' a.D.c.c.C.C. X9.' p } } } a.dX",
"r o K.*X-X=XT.z 9 I I P.@X-X-X-X-X-X-X-X-X-X-X-XwXrX0X1XE.c -     # | j.Z.c.c.c.x.q.A e y y y i a o.",
"5 . K.*X-X-X=X%X+X+X%X=X*X-X-X-X*X-X-X-X-X-X-X-X9XwXrXrXrX0X1XP.*   @ | Z.Z.c.a.1. .C 8 6 6 y y 0 0 ",
"5 . D =X-X-X-X-X=X-X-X-X-X-X-X-X-X-X-X-X-X*X*X*X-XtXrXrXwXtXqXqX'.-   % 1.D.Z.c.1.{ C N e u y 0 6 0 ",
"0 . h =X*X-X-X-X*X*X-X*X-X-X-X-X-X-X-X-X-X-X7X7X9XrXwX0XG j > > ; O   . y j.3.| { [ P 4.u 8 y r 6 5 ",
"r X = %X*X*X-X-X*X*XOXoX=X-X-X-X-X-X-X-X-X,XtXtXrXwXQ.o .               3 ] 7 2 u _ J V 8 6 0 y y 6 ",
"0 & o Y.-X-X-X-X*XoXl S %X-X*X-X-X-X-X-X*X-XwXtXqXh   . > N N 8 m 7 1 3 7 @   @ e  .~ 9. .u $.y 6 m ",
"u n O l =X-X-X*X@XD , Y.-X-X-X-X-X-X-X-X-X,XtXtXE.  . D H U N 7 : @           2 ] 4.4.U.` } } a _ U.",
"8 V @ = oX*X=XOXD = D $X-X-X-X*X-X-X-X-X-X9XwXeXG . . . . . . . . o o .     % _ ^.r.e.i.` ` e w V m ",
"m H 3 o S $XT.h * S @X*X-X-X-X-X-X-X-X-X-X9XtX,X+Xl k k z k k z b G E.j . # ' ^.}.f.S.z.| ` e e H M ",
"V /.V # = T.L.k L.%X*X-X-X-X-X-X-X-X*X-X*X7XtXwXwX8X8X8X8X8X6X0X4XW.> . # ' q./.y.C.c.;.e 8 Z M P ~.",
"P }.~ 7 O l OX=X=X-X-X-X-X-X-X-X-X-X-X-X-X:XwXwXtXqXqX0X4X<X].W.v o X 3 { 5.^.r.c.3.=.[ 8 V H H P.[.",
"]...B Y 2 o G ;X>X-X-X-X-X-X-X-X*X-X-X:X:X6X5X3X].'.E.F c > - o o ; n Y 4.~ 9.a.C.2.} _ m V P.R.[.' ",
"iXe 0 0 0 X * G 2X9X7X,X:X-X-X-X:X;X<XR.W.E.F j - o . . X # $ 2 U r._.~ /.I.7.a.3.} ' e 8 H (.iX^ i ",
"3.i i 0 0 & X O b '.1X0X6X8X8X;X'.F , - o     o ; + # 3 e ] o.&.s.s.d.XXpX{.^ +.| p e w _ L ..,.$.i ",
"*.e t i t r 5 @ X ; b F E E.W.G > .       X & 1 W.H Y o.O.<.p.c.j.a.a.i.`.gX_.{ [ w q 0 m L e a { w ",
"_ W w i i t y 0 3 1 1 : - - O + o . X $ & y =.O.].U.q.i.c.i.c.c.a.a.a.C.d.pXyX[ p w w w C U.N w T B ",
"u.t...e i t w w B Q W T Y 1 2 & 3 3 6 s [ o.3.u.3XU.9.i.c.c.&.%.,.3.C.S.A.sXuXR e w w _ L /.K %.d.7.",
"N.C.s...` m M C ~ `.sXuXsX| y p [ p } | } | 1.o.gXR.K { O.,.[ } { } ,.3.2.7.}._.N 0 w %.d.d.p.c.n.S.",
"b.:.z.1.&.V L U.^.t.k.sXuX/ ' } [ } | | =.=.} J dX/.H _ _ $.$._ [ [ [ } *.( {.|._.A ' :.z.M.m.m.>.b.",
"-.#.;.:.;...Q 5.O.=.;.3.k.t.{ [ [ } #.} $.} N  .1.L H ` _ } } $.$.} [ } =.y.[.(.~.iXw.s s $.-.-.*.*.",
"u w a #.#.{ B p s *.-.;.n.p.o.[ [ s } s p Y uX] ,.~ I.` e p } $.=.=.$.} u ) }.~.K dXd.+.*.X.' u i y ",
") e 0 #.;.[ Z 6 i *.*.#.*.,.w.o.u y u U J (.hX .#.~.].P ` e e p p } [ T _._.) e.<.S.A.n.z.a.@.( R r ",
"yXpX' d p Z J 8 i s s a s } ( uX( e u U { i. Xw.` |.]./.O.%.O.^ ( ).`.{.}.r.2.>.2.M.N.N.N.N.n.k.pX) ",
"j.pXB w u P H ' s i a a a s X.uXw.y p p s =.,.1.o.^.I...| ;.| 8.^ /.3X{.).n.z.>.>.b.N.B.G.J.H.F.) [.",
"+.[.] w n /.~.N a s a s s [ ) h.} s i p s } #.=.=.$.U.B #.>.d } <.y.(.~.1.v.>.z.b.b.2.>.z.M.F.F.J [.",
"u gX~ #.1.3.<.,.} a a f d 8.7.+.*.s s s p [ } } $.#.A u d d a d d *.8.y.>.>.>.b.b.>.;.2.;.z.M.;.Q hX",
"U t.3.m.N.V.N.b.-.s a y Y @.=.s s s s p s s d s s s Z q 0 a i i p [ { z.>.>.z.b.>.b.z.b.>.*.:.g Q d.",
"T 2.M.V.H.H.G.v.m.b.<.yXsX=.*.a a a s s a p y i i w W ` 0 d g i w ..^ &.m.M.m.l.:.-.>.2.m.2.} u 5.b.",
"r.b.M.N.B.M.f >.N.N.b.p.@.f d d i i a d p p #.a i 0 /.C w i d d { y.S.H.H.G.M.:.d d *.*.;.:.=.5.a.b."
};
