/* XPM */
static char *out[] = {
/* columns rows colors chars-per-pixel */
"50 50 241 2 ",
"   c #050101",
".  c #0C0403",
"X  c #0E0808",
"o  c #130503",
"O  c #1B0601",
"+  c #180906",
"@  c #150B0B",
"#  c #1B0B0B",
"$  c #190F11",
"%  c #1D1214",
"&  c #2B0401",
"*  c #240905",
"=  c #2B0A01",
"-  c #240C0B",
";  c #3A0301",
":  c #380B02",
">  c #25100C",
",  c #3A130A",
"<  c #2B0D10",
"1  c #241515",
"2  c #2C1514",
"3  c #24161A",
"4  c #25191C",
"5  c #2B1B1D",
"6  c #361613",
"7  c #321A1D",
"8  c #3B1A1C",
"9  c #38211F",
"0  c #251A21",
"q  c #2D1D23",
"w  c #331721",
"e  c #321E23",
"r  c #3B1E23",
"t  c #2E2124",
"y  c #2E2128",
"u  c #332125",
"i  c #3B2225",
"p  c #34242A",
"a  c #3B262B",
"s  c #36282D",
"d  c #3B292D",
"f  c #3C2C31",
"g  c #3F3034",
"h  c #490402",
"j  c #420F01",
"k  c #550700",
"l  c #4C1101",
"z  c #491609",
"x  c #531201",
"c  c #5C1504",
"v  c #4A1614",
"b  c #44171B",
"n  c #4C151B",
"m  c #431B1C",
"M  c #4C1D1D",
"N  c #561617",
"B  c #531A1C",
"V  c #5C1C1B",
"C  c #620300",
"Z  c #770502",
"A  c #631601",
"S  c #661704",
"D  c #721804",
"F  c #7A1D02",
"G  c #6A1916",
"H  c #621D1A",
"J  c #761C15",
"K  c #7B1C14",
"L  c #473900",
"P  c #47211E",
"I  c #55231E",
"U  c #5C231D",
"Y  c #5D2C1E",
"T  c #762008",
"R  c #783A00",
"E  c #6A2E13",
"W  c #63221C",
"Q  c #68251A",
"!  c #73231B",
"~  c #77261A",
"^  c #7B2C1D",
"/  c #75331E",
"(  c #79371C",
")  c #441D21",
"_  c #491C21",
"`  c #551E21",
"'  c #432325",
"]  c #4D2524",
"[  c #422629",
"{  c #4A2629",
"}  c #442A2D",
"|  c #4B2B2C",
" . c #542424",
".. c #5C2423",
"X. c #532827",
"o. c #5D2A24",
"O. c #532C2D",
"+. c #5B2C2B",
"@. c #4F312F",
"#. c #5A302D",
"$. c #422D31",
"%. c #4B2E31",
"&. c #522E30",
"*. c #5B2F32",
"=. c #433135",
"-. c #4C3335",
";. c #453439",
":. c #4A3639",
">. c #47383D",
",. c #4C3A3D",
"<. c #543334",
"1. c #5B3434",
"2. c #573838",
"3. c #533A3C",
"4. c #5C3C3C",
"5. c #632623",
"6. c #632924",
"7. c #6D2B23",
"8. c #6B2A24",
"9. c #622D2A",
"0. c #732521",
"q. c #732B24",
"w. c #782D25",
"e. c #6A3327",
"r. c #63312D",
"t. c #783627",
"y. c #73342B",
"u. c #653532",
"i. c #6C3633",
"p. c #663936",
"a. c #6C3935",
"s. c #643C3C",
"d. c #6B3C3A",
"f. c #733A33",
"g. c #7B3B32",
"h. c #733E3B",
"j. c #725000",
"k. c #776300",
"l. c #704235",
"z. c #76433A",
"x. c #4D3D42",
"c. c #523E41",
"v. c #5B3F41",
"b. c #673F40",
"n. c #4E4045",
"m. c #534244",
"M. c #5B4345",
"N. c #544549",
"B. c #5B464A",
"V. c #57484C",
"C. c #5A4A4D",
"Z. c #5F4E51",
"A. c #5F5254",
"S. c #654343",
"D. c #6C4342",
"F. c #694949",
"G. c #744543",
"H. c #794845",
"J. c #624E51",
"K. c #615356",
"L. c #67575B",
"P. c #716064",
"I. c #8B0400",
"U. c #980700",
"Y. c #831E02",
"T. c #891905",
"R. c #971B08",
"E. c #871B13",
"W. c #9E1512",
"Q. c #A90600",
"!. c #B50600",
"~. c #BB0900",
"^. c #A31A04",
"/. c #882004",
"(. c #922202",
"). c #9C2402",
"_. c #99240E",
"`. c #873808",
"'. c #872516",
"]. c #832C1B",
"[. c #952512",
"{. c #952C15",
"}. c #84321C",
"|. c #89361A",
" X c #993617",
".X c #A72604",
"XX c #B62906",
"oX c #BC2C02",
"OX c #A6340F",
"+X c #B5330E",
"@X c #A73814",
"#X c #BA3C12",
"$X c #842E24",
"%X c #863926",
"&X c #963A22",
"*X c #823A32",
"=X c #C70700",
"-X c #D50800",
";X c #DB0900",
":X c #D11701",
">X c #E20700",
",X c #E40900",
"<X c #EC0900",
"1X c #F30900",
"2X c #FE0900",
"3X c #EF1801",
"4X c #FC1301",
"5X c #F51C00",
"6X c #FB1A01",
"7X c #C52D03",
"8X c #D72502",
"9X c #C93208",
"0X c #D83203",
"qX c #F92301",
"wX c #F52902",
"eX c #F92B02",
"rX c #E53403",
"tX c #EB3503",
"yX c #EE3904",
"uX c #F53503",
"iX c #F53904",
"pX c #F93804",
"aX c #864510",
"sX c #97461A",
"dX c #A74519",
"fX c #B14E15",
"gX c #987800",
"hX c #844328",
"jX c #964928",
"kX c #844738",
"lX c #945031",
"zX c #C74C13",
"xX c #C65711",
"cX c #D1611A",
"vX c #A38300",
"bX c #B18C00",
"nX c #CAA400",
"mX c #D4AE00",
"MX c #D7B200",
"NX c #EEC400",
"BX c #F9CB00",
/* pixels */
"I 2.N.V.A.L.L.V.,.:.[ E l.#.;.s s d d s a e p f s a V n q f f p s ] 6.:.:.m.N.n.>.c.m.,.c.=.$.d 5.c.",
"8.c.C.K.A.A.n.>.C.C.F.hXl.=.g d p p d f a a p p y q '.n p s g a ' 7.g.F.L.K.C.>.;.} =.,.m.N.%.] u.m.",
"i.,.$.>.c.>.g >.n.m.4.#.| g d f f s p d f a $.x.p n W.n p p s $.X.<.n.V.V.N.x.;.f s d d f p p 0.4.:.",
"2.x.f d g >.>.>.,.<.hXaXi f f $.=.d p f f a a p w &XT._ q q p ) ..=.f f f f f d f g g f y y 8 8.c.:.",
",.=.=.:.,.n.c.,.4.t.fX X' f s d f $.s f $.[ f w _ %X^.n [ f [ H ~ =.$.;.:.=.f ;.,.x.N.m.,.} H +.,.d ",
"} =.:.,.,.;.;.2.l.dXzX XB p u s f f s s f s w w J -.#X0.<.x.v.f.&XV M | <.%.-.,.#.-.<.<.+.Q {.O.} :.",
":.>.m.,.;.g :.u.y.<.#.}.J m 7 u e y e y w p w H 0.*.&X..$.$.:.M.s.y.0.Q W Q e.l.l.p.c.m.m.a. X+.>.,.",
"2.,.,.d a } #.6.I u 5 Q J z < 1 0 % 3 0 y w _ 0.v.b.&.G ] a a $.:.3.u.t.q.6.<.:.l.( @.=.x.B.$Xu.-.,.",
"y.e.| P I | -.X.v < # = : = * * O O . . % 3 H 1.B.<.| J ].X.i i a $.-.2.i...} } w.8.x.g x.Z.b.w.t.#.",
"^ |.8.}.8.d u 1 * = x F /.(.(.(.(.T.S : o o 2 %.[ %.| 0.zX}.Q W  .X.&.<.s.*.[ ..9.[ s f f x.v.9.|.w.",
"| w.t.jX .t $ O x ).9XuXeXeXeXeXpXpXrXXXD ; . @ 3 } { y.lXjXhX&X@XsX$Xy.0.] 7 m } f f f x.x.x.x...t.",
"| }.*XkX[ $ = D 7XuXeX6X4X2X2X4XqXwXwXuXrXXXS * . % 8 1.2.2.D.kXzXcXlXhX*XG - 1 $.$.f x.x.x.x.x.5.%X",
"r.#.x.;.1 = R.8XqX6X4X2X2X2X2X2X2X4X6XqXuXuX0X.Xc O X 1 5 i } 1.%XlXF.v.g.W.; 1 $.=.:.x.x.x.x.x.7.2.",
"}.' y $ & ^.3X4X2X2X2X2X2X2X2X2X2X2X2X2X6XqXuXiX0X(.j . . @ @ % 3 e t P W.U.& 4 } $.=.;.;.x.;.{ q.s ",
"dX_ % O U.<X2X2X2X2X2X2X2X2X2X2X2X2X2X2X2X2X6XqXpXiXoX/.A : = O .   . : Z h o 4 a } } g ;.;.f / }.r ",
"kX2.# C >X2X2X;XQ.Q.;X2X2X2X2X2X2X2X2X2X2X2X2X4XuXiXiXyX0X7XXXT O   X * * . @ 9 d d =.=.$.$.a y.H.2.",
"c.;.& ~.4X<X!.T aXaXT.;X2X2X2X2X2X2X2X2X2X2X2XqXiXiXpXiXiX0X.X: . O v < + = S ` [ d $.:.:.:.i.o.J.M.",
"{ q h 1X1X~.R bXMXmXgX^.1X2X2X2X2X2X2X2X2X2X6XpXpXiXtXoX/.l * . > ] u.<.3.1.y.w.X.[ $.;.:.=.O...3.3.",
"B $ k 2X<XR.vXmXNXBXnX`.=X2X2X2X2X2X2X2X2X2XuXuX9X/.l = O o . > N 6.a.D.F.D.D.d.0. .%.} u r i I [ x.",
"%Xo Z 2X,X/.gXvXnXBXnXR !.2X2X2X2X2X2X2X2X2XuX).= o . o l F O + I o.r.p.D.D.S.s.y.$X0.+.O.1.1.f.$X` ",
"| X U.2X1XU.j.MXNXBXvXT >X2X2X2X2X2X2X2X2X2X5XoXx x (.7XoXl . 6 5...r.G.H.D.s.S.b.%X0.' a $.d } l.jX",
"t o !.2X1X-Xx L k.j.E =X2X2X2X2X2X2X2X2X2X2X2X5XrXrXtX.Xj . - o.i.f.h.G.G.b.b.s.v.w.V 8 u u u a s -.",
"3 o !.2X2X1X-XQ.R.!.;X1X2X2X2X2X2X2X2X2X2X2X2XeXiXiXF o   . 8 #.f.h.h.G.G.D.D.4.1. .n 8 7 5 u u 5 t ",
"3 . Q.2X2X2X2X1X2X2X2X2X2X2X2X2X2X2X2X2X2X2X6XpXpXA .       . . 6 f.z.G.G.H.D.b.4.{ N ) r i u q 4 0 ",
"4 . I.2X2X2X2X2X2X2X2X2X2X2X2X2X2X2X2X2X2X2XqXiXiXD j j j j j , o + P p.z.D.s.O.O.' J 8.i 7 u y 5 0 ",
"q X k 2X2X2X2X2X2X1X1X2X2X2X2X2X2X2X2X2X2X2X4XeXiXpXpXpXpXyXXXl o     > ]  . .] O._ H N m 5 7 u y 7 ",
"q @ ; >X2X2X2X2X<XI.C ;X2X2X2X2X2X2X2X2X2X2X2X2XeXiXiXtX7Xl           X 2 ] ] X.{ ` ~ ~  .a =.u 7 b ",
"i , o Q.2X2X2X1XQ.h I.1X2X2X2X2X2X2X2X2X2X2X2X2XeXiXrXT.o . + 6 P m M T S # 8 _ ] 8.6.E.` } } d ) ~ ",
"8 v o C 1X2X1X~.h k =X2X2X2X2X2X2X2X2X2X2X2X2XqXuX0Xx   o 6 U ..I P , T F + 7  .].t.r.i..._ r e N n ",
"n G - & =X>XQ.; ; Q.2X2X2X2X2X2X2X2X2X2X2X2X4XuXtX: . = Y.9X+Xz X # + = j # P ].@X*XF.c.%.n b r G v ",
"N R.v o Z ~.h k Q.1X2X2X2X2X2X2X2X2X2X2X2X2XwXpX9X= x oXrXoXc   @ 8 6 X o 1 G {.g.S.b.:.r b N b J Y.",
"J @XJ - & !.;X>X2X2X2X2X2X2X2X2X2X2X2X2X4X6XuXpXyX7X7XXXF = o = z 6.o.P P ..$Xw.s.v.<.' 8 N G G [.@X",
"XX..) M X l :X1X2X2X2X2X2X2X2X2X2X4X6X5XwXrX0XoXXX).c O . @ , `. XE.! 5.W ~ 0.b.S.2.[ ) b N T.^. X] ",
"dXr q 0 $ o A 8XwX6X6X4X4X6XqXqXeXeXtX0X.XF l = O o . # 2 X.y.q.$X&X].'.[.[.Q s.4.} ' r ) G {.dX^ u ",
"2.a p y 0 @ o c .X0XuXtXuXuXiXyXrX9X(.x * .   o : * 6 ] *.r.i.f.h.h.f.&X#X#X^ &.| i e e ) J 5.-.<.u ",
"=.r y p y 4 $ X = S (.).^..X.X(.T l O   . % 5 v OXQ W +.+.u.a.b.d.s.s.f. XzX|.[ [ i e e b J r d | 7 ",
"' H e p p y t 3 # = * * & = * o . X @ 1 7 | 4.9.oXE.$Xi.u.d.d.d.d.l.s.l.d.fXsX[ [ e e w N E.b e U P ",
"u.t. .r p p e w m N P 8 6 # # 1 1 5 i | } %.4.u.9XW.0.i.d.b.*.&.&.v.D.F.F.hXsXo.r e e ) J [.H &.f.e.",
"C.S.d...` b b N !  XaX&Xl.9 i [ [ [ | | | | 1.O.zX.XH X.*.*.{ { [ { <.4.3.7.@X`.8 q e &.f.h.a.S.C.S.",
"m.,.c.2.+.V J E.'.l.l.hXdX/ [ [ } } | %.%.%.} H %X[.G _ ) %.{ [ [ { } } =.q.#X#X|.W ' :.c.B.N.N.,.v.",
"=.=.:.:.-...Q 9.+.@.:.4.z.t.X.d [ $.} } $.[ M I 2.J G ` ) $.| -.@.} { } %.( @X{.].@Xe.a d =.:.;.=.=.",
"a e p =.=.{ M a d =.:.:.v.a.o.} [ $.} } a U sX] &.~ R.B r ' [ %.-.-.} } [ / dX'.G jXf.%.=.o.' i 9 t ",
"( 9 e f :.' B 5 u =.;.=.=.<.e.X.a i r P H [.xXX.%.].XX'.` ) i i a } { U }.|./ #.1.F.F.M.c.4.#./ Y t ",
"sXfX' f d B G 8 u d d s d } / sXE ) i ' X.i.hX7.W #XXX[.+.O.+.q.( }. X+X@Xe.3.c.m.B.C.C.C.J.M.l.fX( ",
"l.dXB u 8 K G [ d p s s s d o.sXY a i a } =.2.1.| ].R. .} -.%.9.].[.9X+X|.v.c.,.,.m.B.J.K.P.L.J.}. X",
"$.OXP u M _.~ M u d s d d d ( t.| d a d [ } $.=.=.&.E._ $.x.$.[ <.y.{.'.2.n.,.x.m.m.3.,.m.B.J.J.Q OX",
"' fX/ $.2.4.1.<.} d s g g e.e.@.g d d d d [ } } $.} H i f f s f $.=.9.y.,.,.,.x.m.,.:.,.,.c.M.>.Q fX",
"' t.l.m.C.A.C.m.;.d s i P #.@.f d d d d a d d d $.f B w q s p p p [ { c.,.,.c.m.x.m.m.c.,.=.>.=.Q f.",
"U 2.V.A.K.L.K.x.m.m.1.hXhX-.=.d p s d a a p u p p e 5.N e f =.p e ..0.<.M.C.N.x.;.>.,.3.m.m.} i 6.m.",
"y.c.N.Z.A.B.f x.C.C.M.p.#.=.f d s s s d d a $.f p 0 _.n e s f f X.y.F.L.L.K.B.>.g f =.=.,.:.-.5.s.m."
};
