/* XPM */
static char *out[] = {
/* columns rows colors chars-per-pixel */
"50 50 243 2 ",
"   c #020101",
".  c #0B0303",
"X  c #0D0809",
"o  c #130403",
"O  c #1B0402",
"+  c #150905",
"@  c #140B0C",
"#  c #1B0C0B",
"$  c #1C1314",
"%  c #1D1519",
"&  c #230503",
"*  c #2A0202",
"=  c #270901",
"-  c #220C0B",
";  c #2B0E0D",
":  c #330200",
">  c #3C0201",
",  c #380C06",
"<  c #27110E",
"1  c #361407",
"2  c #340F14",
"3  c #231314",
"4  c #2B1413",
"5  c #261619",
"6  c #251A1C",
"7  c #2B1B1D",
"8  c #3A1718",
"9  c #341A1C",
"0  c #3A1B1D",
"q  c #3D2900",
"w  c #3A201F",
"e  c #2D1D23",
"r  c #331D23",
"t  c #321924",
"y  c #3B1E23",
"u  c #2F2127",
"i  c #342225",
"p  c #3B2125",
"a  c #34252B",
"s  c #3B252A",
"d  c #36282D",
"f  c #3B292D",
"g  c #3E2730",
"h  c #3C2C31",
"j  c #3F3034",
"k  c #4D0100",
"l  c #460A00",
"z  c #550200",
"x  c #4B1407",
"c  c #581403",
"v  c #4B1715",
"b  c #44161A",
"n  c #4B161B",
"m  c #431B1D",
"M  c #4C1D1D",
"N  c #581517",
"B  c #5D1B16",
"V  c #53151A",
"C  c #531B1C",
"Z  c #5B1B1B",
"A  c #650400",
"S  c #670903",
"D  c #7A0601",
"F  c #681402",
"G  c #741700",
"H  c #7C1300",
"J  c #671814",
"K  c #641C1A",
"L  c #6B1D1A",
"P  c #761915",
"I  c #7B1D14",
"U  c #532508",
"Y  c #4A211E",
"T  c #55221E",
"R  c #5B231D",
"E  c #5E281B",
"W  c #6B310A",
"Q  c #64231C",
"!  c #68241A",
"~  c #6A241B",
"^  c #772314",
"/  c #74241D",
"(  c #7A251C",
")  c #742B1C",
"_  c #7C2B1D",
"`  c #77341C",
"'  c #441D21",
"]  c #4A1E22",
"[  c #561E21",
"{  c #432324",
"}  c #4C2424",
"|  c #492926",
" . c #44252A",
".. c #4C262A",
"X. c #442B2D",
"o. c #4B2B2C",
"O. c #542324",
"+. c #5B2524",
"@. c #542926",
"#. c #5C2D24",
"$. c #532C2C",
"%. c #5A2B2B",
"&. c #4E312E",
"*. c #54312E",
"=. c #5B312E",
"-. c #432D31",
";. c #4B2E31",
":. c #522E31",
">. c #5F2C30",
",. c #433135",
"<. c #4C3335",
"1. c #453439",
"2. c #4A363A",
"3. c #47383D",
"4. c #4C3A3D",
"5. c #543334",
"6. c #5C3333",
"7. c #593936",
"8. c #523639",
"9. c #543B3C",
"0. c #5C3B3C",
"q. c #632623",
"w. c #632923",
"e. c #6D2C23",
"r. c #6B2925",
"t. c #622C2A",
"y. c #742A25",
"u. c #732D24",
"i. c #7B2C23",
"p. c #693324",
"a. c #63312C",
"s. c #6B332C",
"d. c #723225",
"f. c #7C3423",
"g. c #73332B",
"h. c #783928",
"j. c #7B3A2B",
"k. c #633534",
"l. c #6B3534",
"z. c #673A36",
"x. c #633C3B",
"c. c #693C3B",
"v. c #733B33",
"b. c #7A3932",
"n. c #644500",
"m. c #784E00",
"M. c #7F452A",
"N. c #6C403B",
"B. c #754538",
"V. c #4E3D42",
"C. c #523E41",
"Z. c #5B3F40",
"A. c #623E41",
"S. c #4E4045",
"D. c #534244",
"F. c #5B4245",
"G. c #544549",
"H. c #5B454A",
"J. c #57484C",
"K. c #5A4A4D",
"L. c #5F4E51",
"P. c #5F5254",
"I. c #634345",
"U. c #694747",
"Y. c #7C4B46",
"T. c #624E51",
"R. c #615356",
"E. c #67575B",
"W. c #716064",
"Q. c #890800",
"!. c #970A00",
"~. c #841B00",
"^. c #8A1D00",
"/. c #8C180A",
"(. c #951B04",
"). c #9B1F00",
"_. c #811D13",
"`. c #801F1A",
"'. c #A60200",
"]. c #B70700",
"[. c #A91300",
"{. c #B61702",
"}. c #892C09",
"|. c #992309",
" X c #882816",
".X c #822D1C",
"XX c #962A14",
"oX c #863419",
"OX c #8C331B",
"+X c #993617",
"@X c #A82605",
"#X c #B52905",
"$X c #B63508",
"%X c #A33112",
"&X c #A73815",
"*X c #B93913",
"=X c #852F27",
"-X c #883824",
";X c #943B25",
":X c #873E32",
">X c #C70301",
",X c #C91B00",
"<X c #D91A01",
"1X c #E60800",
"2X c #FC0D00",
"3X c #E91E00",
"4X c #F61800",
"5X c #C62800",
"6X c #D62701",
"7X c #C13204",
"8X c #D83400",
"9X c #E62300",
"0X c #E42C00",
"qX c #EB2E00",
"wX c #F52400",
"eX c #FD2500",
"rX c #F32C00",
"tX c #FC2D00",
"yX c #EA3200",
"uX c #F43100",
"iX c #FE3300",
"pX c #FE3A00",
"aX c #855800",
"sX c #8A451D",
"dX c #98461C",
"fX c #B9490A",
"gX c #A7441A",
"hX c #B34212",
"jX c #AB5518",
"kX c #936F00",
"lX c #A76016",
"zX c #874328",
"xX c #964527",
"cX c #844739",
"vX c #C34804",
"bX c #C75115",
"nX c #FF4400",
"mX c #FF4900",
"MX c #A68C00",
"NX c #B39700",
"BX c #BEA600",
"VX c #C59E00",
"CX c #CDAA00",
/* pixels */
"T 5.G.J.P.E.E.J.4.<.{ p.M.*.1.d d f d f f a a d f a Z n t h f a a | w.2.4.D.G.V.V.4.D.9.C.,.-.g q.D.",
"r.D.K.P.P.P.S.V.K.K.U.zXM.,.j g a a f h f s s a u t _.V u g j f { ) b.U.E.R.J.3.j j ,.4.G.D.;.} k.D.",
"l.4.-.4.S.3.h 3.D.S.7.=.f j h -.g d a s s s -.-.a b (.n a a d -.%.&.S.J.J.G.V.3.h d f f d a s r.0.,.",
"0.4.h f j 3.3.3.V.2.zX-Xs f h -.-.g a h -.g -.a t gX/.] r e i { +.,.h h h h h g h j j h a r 0 r.9.4.",
"9.,.,.1.4.S.V.4.9.h.hX+X .g g g -.-.s g -.-.s t V :X[.N  .h  .K _ <.X.<.<.,.h <.4.V.D.C.8.X.R %.4.-.",
"X.,.2.4.4.1.1.7.h.jXbX+X[ s r y -.-.g g g  .y y P :.hXy.8.9.Z.b.OXQ M ..5.&.8.9.%.5.8.5.%.~ XX$.f 2.",
"2.2.D.V.1.,.2.z.g.5.6.OXI n y y s y g g y g t K i.>.+X%.X.X.<.I.c.g./ ! ! / e.x.N.N.S.D.G.l.+X%.,.C.",
"9.2.4.f s X.*.Q +.y y .X@XP [ ] ' y r y y ' V `.A.I.%.L @. . .o.<.8.l.=Xu.w.5.2.M.` &.,.V.K.=Xs.2.4.",
"d.p.o.} ] $.:.%.K K [ =X*X@X_.P B C ' p } Z ) s.U.%.%.I  XR } { | :.5.6.g.t. .o.i.y.;.j V.L.A.y.d.=.",
"` OXr..Xr.,.a ' K P u.g.xX&X*X%XXX_.K K  XXXl.c.%.%.=._ bXOX) ! +.%.%.6.c.>.@.q.t. .-.g h C.Z.>.+Xd.",
"X.i.j.xX[ g t V K $.-.;.5.l.xXxX:X;X=X_ %X|.#.| } @.T ! sXxX;X+X&XgX-Xi.y.+...+.o.X.-.-.V.V.V.V.+.g.",
";.oX:XcX:. .Z `.I [ } O.+.k.v.z.c.c.x.@.v x = < ; 4 ; 8 8 w  .f.bXbXgX:X=Xy.[ ..o.;.-.V.V.V.C.C.q.-X",
"#.a.V.V.V.Z.l.XX%XXXi.y.l.U.N.x.6...7 # X = = , G G ~.^.~.G c 1 W f.B.N.k.r.q.$.5.5.8.C.C.V.V.2.e.8.",
"oXs d h g V.V.A.;XhXi.k.6.z.U.N.{ # . q n.kXaXW (.yXrXuX|.}.W 1 = ; i @.$.@.@.@.o.o.;.<.1.V.1...` f ",
"gX] y y u t t t w.-X6.6.6.%.6.p # > x MXCXCXCXkX, iXuX7Xm.MXVXkXx F & 3 0 } Y { | | o.-.1.1.g ` i.y ",
"cXI.8.[ t ] a ] ~ y.A.A.k.:.0 - G #XG kXVXBXkXn.~.iXuX7XW MXNXaX^.8XH & - b M } o.X.;.<.;.-.s u.Y.8.",
"C.K.Z.>.Z  XL OX+Xy.x.k.6.{ # F 6XuX5X7XvXvX$X#X0XiXiXyX#XvXvX5X0XuX0XQ.O , J ~ @.| -.8.8.<.l.t.T.D.",
"..H.C.k..X_ m q.i.+.6.6.@.< l 5XuXiXiXuXqXqXuXuXuXiXiXiXiXuXiXuXiXiXiX6XS - K i.+.@.o.<.<.8.$.+.9.D.",
"[ V.2.;.e. X8 8 C q.:.6.9 & !.yXiXiXiXiX5X).5XyXyXuXiXiXiXiXiXiXiXiXiXtX{.l 9 t.( q.$.o.y 0 p } ..4.",
":XK :...r.|.J b n +.%.$.5 l ,XiXpXiXiXiXqX|.c l l c F F ~.qXiXiXiXiXiXiX9XD O | g. Xy.t.%.k.6.v.oX+.",
"5.B.gX( ;XcXb._.P L t...# D 9XiXiXiXiXiXiXqX6X5X).^.^.^.@XrXiXiXiXiXiXiXtX[.: p z.;Xy.} { X.X.| 0.xX",
"s X.u.gX%.0.U.b.%XXX%.y & Q.wXiXiXiXiXiXiXiXiXiXrXqXqXqXqXiXiXiXiXiXiXiXiX,Xk 3 5.y.K m 9 p p a g &.",
"e e |  Xm s o.*.u.( } 4 & (.uXiXiXiXiXiXiXiXiXiXiXiXiXiXiXiXiXiXiXiXiXiXiX9XS - ..O.Z b r 0 r r 7 u ",
"6 e 8  XN i X.o.+.L M - O |.iXiXiXiXiXiXiXiXiXiXiXiXiXiXiXiXiXiXiXiXiXiXiXrXH ; ..@.B m p p i r 6 e ",
"6 e 8 J b t  .p M K B ; & ).uXiXpXpXiXiXiXiXiXiXiXiXiXiXiXiXiXiXiXiXiXpXmXtX/.& y } I q.{ 9 i i 6 e ",
"i 9 b K 9 2 7 0 T  XI , . ~.yXmXmXmXpXiXiXiXiXiXiXiXiXiXiXiXiXiXiXiXpXmXpXtX!.= y ] K B 0 9 r i i 7 ",
"e 0 J P o.p y K  X! Y ; . F yXmXmXmXpXiXiXiXiXiXiXiXiXiXiXiXiXiXiXiXiXnXnX9XS . 5 T `.( +. .-.i 7 b ",
"p B +XT f s m J ) Y { 9 o c 8XmXmXmXpXiXiXiXiXiXiXiXiXiXiXiXiXiXiXiXiXiXpX,Xz . 8 r.r._.[  .X.f ' I ",
"m B T T 5.5.Q  Xw.{ } 9 + , $XmXmXmXiXiXiXiXiXiXiXiXiXiXiXiXiXiXiXiXiXtXtX,Xk # ^ d.l.l.q.] y r Z b ",
"b J ] Q  X) gX_ { { | w # = #XmXpXiXiXiXpXnXnXiXiXiXiXiXiXiXpXpXiXuXwX1X3X{.: x XXM.U.0.;.C m 0 J V ",
"N |.Z %.XXY E ~  .o.o.| # & @XmXpXtXiXpXnXmXmXmXiXiXiXiXiXpXmXmXpXrX[.z ].'.: x s.I.A.<.p b B b P _.",
"P &X^ R ! y { Z @.o.o.| 3 + |.pXuX4XeXpXmXmXmXmXmXiXiXiXiXiXmXnXuX{.l . A D & 0 x.Z.5. .8 V J J (.&X",
"$X+.M Q R y r m { X.o.&.6 o ^.yX,X'.6XtXpXmXmXmXmXiXiXiXiXpXmXpX5Xl . o : > O -.I.7. .' b N /.[.%X{ ",
"&Xs e e t y y m ]  .X.o.9 X H <XS O [.tXpXmXmXmXnXiXiXiXiXpXmX8XF . ; B x + X f 9.o.{ ' ' J XXgX_ i ",
"0.s a u e e r { M ..o.o.y + S ].k   Q.qXiXmXmXmXpXeXwXrXiXpXnX|.+ $ | ;X&Xc + 7 p p p r m P #.2.;.a ",
",.y u a i e r i M Q $.X.' - z '.>   > 6XiXnXmXnXiX4X<X6XiXuX8Xl . s 7.z.+XfXU 3 p i r 7 m I p d o.r ",
"' Q t a a a t i Y _ ` e.OXU x Q.>   o !.rXpXnXpXeX1XS ].tXiX#Xo % 9.0.N.N.lXsXp s r t t N _.b t R Y ",
"6.j.+.y a u r y M ^ -X;XgX` , z & @ . > 6XuXiXeX2XD o Q.4XqXH . 7 9.I.T.I.zXdXE y r r ' P XX~ $.v.p.",
"H.I.z.%.] m b N ^ +XsX;XsX@.$ o   5 $ . D qXeX2X>XO   * ].6Xk X w X.&.9.9.e.&XoXm 6 t :.v.v.z.I.H.N.",
"D.4.C.6.>.K P _._ j.B.zXxXp.7 X   5 i @ & [.2X1Xk . 2 o z ].l % d s X.X.-.d.$X*XoXQ  .4.C.K.G.D.4.D.",
",.,.<.2.<.+.~ w.%.<.4.9.B.h.| % . $ a 6 X = ].!.. ; J 2 + k = % ,.X.f X.,.p.&XXX XgXp.s h ,.<.1.,.,.",
"s t d ,.,...M a f ,.1.1.F.z.@.i $ $ a d 5 . : :   Z /.[ 3 o . % ,.<.X.-. .` hX X/ zXv.&.,.@.{ p i u ",
"` w i h 2.{ C e a ,.,.j ,.5.a.| e e u Y Z x o .   ~ #XI b 4 @ $ a X. .T oXoXh.#.6.U.U.Z.C.0.6.` E w ",
"dXjX{ f f C L 9 a d f d d -.d.dXp.0 i p o.%.0 +   }.#X X%.:.@.! ` _ +X$X&Xd.7.4.9.K.L.K.K.K.F.B.jX` ",
"N.hXY u p I J p d a a d d d #.dXp.u a f h -.@ #   x (.O.-.1.,.a._ XX$X#XoXZ.S.4.4.D.K.L.R.W.E.T.` &X",
"&.%XY i v XX_.Y d f d h h f ` M.-.d a d f a X S & # _.' h V.f X.5.v.%X X7.S.4.S.D.D.9.4.D.H.T.T.! +X",
"p bX) -.7.x.7.<.f f d h h p.p.&.h d f s s 5 * >X: X Z p d h d h h ,.>.y.4.4.4.S.D.4.2.2.4.Z.H.4.! bX",
"| ` 0.D.K.L.K.D.<.f d i Y =.,.f h h f s 6 + '.>Xo @ C t e d a a f s ..C.4.4.D.D.4.D.D.C.4.,.1.j Q h.",
"R 9.J.R.R.E.R.S.D.D.6.sXzX<.j d d d d u X * D : X e Q V t h j a a T _ 5.D.K.G.V.1.1.4.9.D.D.f p w.D.",
"d.D.J.K.T.J.,.4.J.J.H.z.=.j h h a a d d 6 $ 3 % e e XXV a a h d @.g.U.E.E.R.J.4.j g ,.,.4.4.<.q.x.D."
};
