/* XPM */
static char *out[] = {
/* columns rows colors chars-per-pixel */
"50 50 239 2 ",
"   c #040101",
".  c #0B0303",
"X  c #0E0809",
"o  c #130403",
"O  c #1D0302",
"+  c #160808",
"@  c #140C0C",
"#  c #1A0D0B",
"$  c #190F11",
"%  c #1D1314",
"&  c #230401",
"*  c #2A0301",
"=  c #260802",
"-  c #2C0A00",
";  c #220C0B",
":  c #2D0D0A",
">  c #370703",
",  c #2B120D",
"<  c #341805",
"1  c #251212",
"2  c #2C1514",
"3  c #22171A",
"4  c #26191B",
"5  c #2B1B1D",
"6  c #371718",
"7  c #331A1C",
"8  c #3C1B1D",
"9  c #3A201F",
"0  c #2D1D23",
"q  c #2E1F28",
"w  c #341D23",
"e  c #321924",
"r  c #3B1E23",
"t  c #2F2126",
"y  c #342225",
"u  c #3B2225",
"i  c #34242B",
"p  c #3A252A",
"a  c #36282C",
"s  c #3B292D",
"d  c #3A2831",
"f  c #3D2C31",
"g  c #3F3034",
"h  c #460601",
"j  c #4B0E00",
"k  c #570500",
"l  c #471405",
"z  c #5B1200",
"x  c #461715",
"c  c #45151A",
"v  c #4B161A",
"b  c #431A1D",
"n  c #4C1D1D",
"m  c #581517",
"M  c #5B1917",
"N  c #53151A",
"B  c #531C1D",
"V  c #5B1C1B",
"C  c #680500",
"Z  c #780700",
"A  c #7C0400",
"S  c #671400",
"D  c #791A00",
"F  c #641514",
"G  c #681914",
"H  c #631B19",
"J  c #6B1D1A",
"K  c #751A15",
"L  c #7B1D14",
"P  c #542B06",
"I  c #4A211E",
"U  c #57271D",
"Y  c #5B221E",
"T  c #6D2A10",
"R  c #66251A",
"E  c #64231C",
"W  c #6B241B",
"Q  c #782817",
"!  c #74241C",
"~  c #7A251C",
"^  c #7C2C1C",
"/  c #77341C",
"(  c #431D21",
")  c #4A1F21",
"_  c #521E20",
"`  c #432324",
"'  c #4B2424",
"]  c #432927",
"[  c #432529",
"{  c #4C2629",
"}  c #442B2D",
"|  c #4B2B2C",
" . c #542324",
".. c #5B2524",
"X. c #572927",
"o. c #532C2C",
"O. c #5A2C2B",
"+. c #4E312E",
"@. c #55302E",
"#. c #5C312D",
"$. c #432D32",
"%. c #4A2E31",
"&. c #522E31",
"*. c #5F2E31",
"=. c #433135",
"-. c #4C3335",
";. c #453439",
":. c #4B3639",
">. c #47383B",
",. c #4C3A3D",
"<. c #543334",
"1. c #5C3434",
"2. c #5B3937",
"3. c #52363A",
"4. c #533B3D",
"5. c #5B3C3C",
"6. c #632523",
"7. c #682A25",
"8. c #6C2C24",
"9. c #622C2A",
"0. c #762720",
"q. c #752C24",
"w. c #7C2C23",
"e. c #702E29",
"r. c #693225",
"t. c #62312C",
"y. c #733224",
"u. c #7A3727",
"i. c #74332B",
"p. c #643633",
"a. c #6B3533",
"s. c #643A36",
"d. c #673838",
"f. c #633C3B",
"g. c #6A3C3B",
"h. c #773933",
"j. c #753A33",
"k. c #584400",
"l. c #764E00",
"z. c #714235",
"x. c #754338",
"c. c #4D3D42",
"v. c #523E41",
"b. c #623E41",
"n. c #544244",
"m. c #5B4245",
"M. c #544549",
"N. c #56474B",
"B. c #5B464A",
"V. c #57484C",
"C. c #5A4A4D",
"Z. c #5F5254",
"A. c #644344",
"S. c #6A4342",
"D. c #65494A",
"F. c #754845",
"G. c #624E51",
"H. c #615356",
"J. c #67575A",
"K. c #716064",
"L. c #880900",
"P. c #970600",
"I. c #871606",
"U. c #8B1B00",
"Y. c #951B07",
"T. c #9C1E00",
"R. c #821E14",
"E. c #A70800",
"W. c #BC0F00",
"Q. c #A61800",
"!. c #892608",
"~. c #9C230B",
"^. c #843700",
"/. c #993705",
"(. c #872816",
"). c #822B1B",
"_. c #962913",
"`. c #873518",
"'. c #82331E",
"]. c #8C331B",
"[. c #9A3617",
"{. c #A82504",
"}. c #AD2F0F",
"|. c #BB2806",
" X c #A9340A",
".X c #A73816",
"XX c #B93A12",
"oX c #833322",
"OX c #8A3A27",
"+X c #85372D",
"@X c #953A24",
"#X c #C70800",
"$X c #D60800",
"%X c #D61A00",
"&X c #F50C00",
"*X c #E71500",
"=X c #F91800",
"-X c #C22500",
";X c #C02A00",
":X c #CB2900",
">X c #DC2100",
",X c #D52C00",
"<X c #DB2C00",
"1X c #E52300",
"2X c #E42D00",
"3X c #EB2E00",
"4X c #F52700",
"5X c #FC2500",
"6X c #F42C00",
"7X c #FD2C00",
"8X c #ED3100",
"9X c #E83C00",
"0X c #F43200",
"qX c #FE3300",
"wX c #FE3C00",
"eX c #954A00",
"rX c #864C11",
"tX c #99431B",
"yX c #A7451B",
"uX c #B34312",
"iX c #AF5114",
"pX c #8C6600",
"aX c #A77900",
"sX c #874229",
"dX c #974626",
"fX c #854739",
"gX c #914535",
"hX c #A54D2F",
"jX c #C74C14",
"kX c #CC5814",
"lX c #FE4400",
"zX c #FF4900",
"xX c #B48E00",
"cX c #B49900",
"vX c #BBA700",
"bX c #C9AA00",
"nX c #D1B100",
"mX c #E5BC00",
"MX c #DCC300",
/* pixels */
"U <.M.V.Z.J.J.N.,.:.u r./ 2.;.a a s s s p i i s s i V v q s f i i ` 6.:.:.n.M.c.c.,.n.v.v.;.f s R n.",
"7.v.C.Z.Z.Z.n.c.C.C.D.sXz.=.g d i i s f p p i i t e R.N q d g s ` / h.D.J.J.V.,.g g :.:.n.n.%. .p.M.",
"a.,.$.,.n.c.a c.n.n.5.#.] g f $.d d i s $.p %.=.i c Y.v t i s } O.<.n.C.B.M.n.;.f a a s d i r 8.4.:.",
"5.c.f s f ,.g >.c.-.sXrX] f s $.=.d i s d $.f q e yXI.) i q i )  .g f d d f f d f g g a q i r 7.v.:.",
"4.=.=.>.c.M.n.,.2.u.uX[.[ d p d $.$.r $.$.$.[ e _ sX~.N r d [ H ^ -.} ;.:.=.g ;.c.v.n.n.:.| H O.:.} ",
"s =.:.,.>.g ;.3.z.yXjX[._ p r p [ $.d d [ d e e K :.;X~ 3.4.A.h.].E n | <.+.<.3.@.%.:.@.O.R _.o.$.;.",
":.,.n.,.;.g :.p.i.<.#.].L v r r d p r d p p e J 0.*.@X..} } :.m.d.i.q.E R ! e.f.z.z.c.n.M.p.[.*.>.,.",
"4.:.,.s p } @.6...r r ^ }.K N ( ( e r p e ( _ L b.A.O.J ' [ [ | -.3.a.oX8.E <.:.z.'.+.;.v.B.+X9.-.,.",
"y.r.| ' _ &.&.O.H H _ oXXX{.R.K V v ( ( ` Y ~ t.S.<.@.L (...` ` { -.-.p.i.O.$.{ w.e.-.$.c.G.b.q.y.#.",
"^ ].7.'.7.$.i ( H K q.h.gX.XXX}._.L H H )._.a.g.o.o.@.~ jX].Q R U o.O.<.d.*.{ 6.6.{ f f f v.v.*.].w.",
"| w.u.dX_ d e N H o.$.$.<.p.dXdX+X+XoXw.}.~.9.#.O.#.X.w.dXdX@X[.XX[.OXi.0...{ X.| $.d $.c.v.c.c...u.",
"%.oX+XfX&.{ _ R.R._ '  .X.p.a.f.g.b.F.b.y.!.V I ' ' B O.@.<.S.gXjXkXhX+X+Xq._ ) } %.$.c.c.c.c.c.7.u.",
"#.t.c.c.c.v.j.]..X(.w.e.d.b.S.f.g.d.s.<.7 l : ; ; ; : , , 2 7 #.tXhXF.z.2.9.E O.<.-.-.v.c.c.c.:.r.3.",
"`.u d d d c.c.*.dXXXw.p.5.g.S.F.g.o.7 # . * = > I.D U.U.U.D j : 7 #.2.o.X.o.' | | %.%.:.:.c.c.) / s ",
"yX) r r q e q p 6.oX1.1.&.&.f.f.9 #   < P pXl.P ~.3X6X3X{.^.T - - ; 2 I ' ' ` ` ] } | $.;.;.d / ).r ",
"fXA.3. .r ( r ( H q.b.v.p.*.O.8 # - < aXbXbXbXaXl 0XqX:Xl.xXxXpXl z + 1 b n n ' ' } %.-.%.$.p i.F.5.",
"v.G.v.*.V (.6.).[.e.5.2.p.o.b + z {.P aXmXMXcXl.z qX0X|.k.vXnXpXD -XS + : G L E { } %.-.4.-.a.6.G.m.",
"{ B.v.p.w.Q n E w.6.<.*.O.' # j ;X8X-X/.eXeX^.!.,XqXqX8X X/.eX X,X0X,XS & n w.w.6.{ | -.-.-.o.X.4.v.",
"_ c.:.%.y.Q 8 8 B ..<.1.o.2 > Q.6XqX7X2X<X<X<X2XqXqXqXqX0X<X<X8XqXqX7X|.h 1 1.j.0.6.| | r b u  .[ ,.",
"OXH &.| 6.{.F c v ..o.1.{ # A 1XqXqXqXqX8X8X0XqXqXqXqX0XqXqXqXqXqXqXqX6XT.* r p.i.(.0.O.o.1.1.j.oX..",
"<.x.yX! @XfXh.R.K J 9.p.e * E.5X7XqXqXqX:Xj z U.T.;X<X<X8XqXqXqXqXqXqXqX>Xk ; <.b.@X0.) [ %.} } 5.dX",
"s } q.yXO.5.S.h.}.(.O.[ $ C $X=X7XqXqXqX0X,XT.z = = = = j 2XqXqXqXqXqXqX6XP.& ` d.oXH c w y y p s +.",
"0 0 ' (.8 p %.o.q.~ ' 6 o A &X7XqXqXqXqXqXqX6X3X2X,X,X<X<XqXqXqXqXqXwXlXqXW.> 2 &._ M 8 e 7 y w 0 t ",
"4 0 8 (.N w } | ..J ) 2 O P.=X7XqXqXqXqXqXqXqXqXqXqX0XqXqXqXqXqXqXqXqXzXzX,Xk 1 &.{ M ) r u y 7 5 0 ",
"0 4 8 G c e ` ( n H M : & P.&X=XqXqXqXqXqXqXqXqXqXqXqXqXqXqXqXqXqXqXqXlXlX1XS ; ( ' ~ 6.` 7 y t 4 4 ",
"i 7 c M 8 2 7 e U (.L > & P.=X7XqXqXqXqXqXqXqXqXqXqXqXqXqXqXqXqXqXqXwXzXlX0XZ ; (  .F m 8 7 w y y 7 ",
"0 8 F K | p 8 H (.R I , & P.=X7XqXqXqXqXqXqXqXqXqXqXqXqXqXqXqXqXqXqXwXlXwX7XI.& 7  .R.0...[ $.y 0 c ",
"u M [.Y s p b G ! I ' 2 o L.*XqXqXqXqXqXqXqXqXqXqXqXqXqXqXqXqXqXqXqXqXwXwX7XI.O 8 6.7.R...[ } s b L ",
"b M V Y <.2.R (.R ' ' 6 + A *XwXlXlXlXqXqXqXqXqXqXqXqXqXqXqXqXqXqXqXqXqXwX6XZ O T w.e.a.6.) r y M c ",
"c G ) 6.(.Q yX^ ` ' { ` ; k ,XlXzXzXzXwXqXqXqXqXqXqXqXqXqXqXqXqXqXqXwXqXqX1XC l !.fXF.4.%.B c 8 F v ",
"N ~.m X._.I Y W ] { o.o.2 > |.wXzXzXlXwXqXqXqXqXqXqXqXqXqXqXqXqXqX2X-X1X7X%Xk : O.S.m.<.u c M v L (.",
"L .XQ Y W r n E X.o.o.| 2 = Q.wXlX9X9XqXqXwXwXwXqXqXqXqXwXlXlXlX0X{.- Z *X%Xk 2 3.5.<.[ c m F G I..X",
"}...n R Y 8 r b ' { o.@.9 # U.8X9XD T.3XqXlXzXzXwXqXqXqXlXzXzXzXwX{.O > E.#Xh w 5.1.{ ` c F I.{.[.' ",
"yX( w 0 e ( 8 b ' { | @.u # S ,XU.& k >XqXlXzXzXlXqXqXqXwXzXzXzX9X{.o . C P.> 7 <.| ` ( c G _.yX^ y ",
"2.i i t 0 e r ( _  .| | u # z T.> . h $X5XwXzXzXqX0X:X-XqXlXzXlXwXQ.o   & k = 9 } ` r 8 ( L ..-.+.y ",
"=.r i i i 0 y r n W o.{ ) ; - j & . > #X5XwXlXlXqXT.j z qXwXzXlX0X~..     o o 5 ] r e e c L u d { w ",
"( R q i i i w r n ).'./ `.l . . ; 1 O W.=XqXwXqX4XO   > qXqXlXwX8XU.o % @   . 5 ` u e e m R.c e Y I ",
"1.u. .( p q r r n ~ oX@XtXP     2 u + P.&XqXqXqXW.    * 6XqXwXwX2XS @ a 4   ; x r r w ) K _.J &.h.r.",
"D.m.d..._ c v m K [.`.dXOX2   X 7 p @ h $X7XqX7XC     O *X7XqXqX:Xj @ p t . l T b 7 w o.j.j.a.A.B.S.",
"n.c.v.2.O.H K R.^ +Xx.sXdXP   @ y } 4 + P.6XqX*XO . o o E.=X7XqX-X* @ p u 2 T uX`.R { :.v.B.m.M.,.n.",
";.=.;.:.:...W 9.#.-.-.5.x.U . $ y } y $ h 1X7XP.  : h   k &X5X6XQ.o $ [ | r./._.(..Xr.] s %.:.;.=.=.",
"u w i =.=.{ n y p =.:.:.n.| @ % p ] s t o Q.*X>   R R.o * $X=X2XL.. 4 } [ / .X(.W dXh.%.=.O.( u y t ",
"/ 9 0 $.:.` B w p =.=.=.=.y $ 5 u y 9 9 + h P.o @ ~ |.l o Z &X*XZ X 7 U `.]./ t.p.S.D.v.v.f.1./ U 9 ",
"dXiX` s s B G 8 y s s a a 9 9 rXr.r u u 3 o * . x XX|.L . > $X$Xh : _.}..Xy.4.4.4.B.G.C.C.C.m.z.iX/ ",
"z.uXI t 9 L K ` s a a a a s U tXr.y i u i X     ] ^ ~.I 4 o C #X* l |.|.'.m.4.,.,.m.C.G.J.K.J.G./ yX",
"$. XI y n _.Q b a a a s a s / z.+.a a a s 3   X =.+.(.b i @ * A & : _.].2.v.,.v.n.n.4.,.v.V.G.G.G [.",
"' uX/ f <.2.2.<.} a a g } #.r.+.g a s s s a @   s } H r i 0 . o o $ ..i.,.,.,.n.n.,.3.>.,.v.m.>.T jX",
"I u.5.M.C.Z.C.n.=.s a u I #.+.s f s s s u a 0   s s N e q i 3 X   + u v.,.,.v.n.,.n.v.v.,.;.>.=.R z.",
"U 4.V.H.H.J.H.n.M.n.1.sXsX+.g a a a a s s y t % i q 6.N e d g 4 X o 6 @.m.V.M.,.>.:.:.,.m.v.s u 7.n.",
"y.m.M.C.G.V.g ,.V.V.m.s.#.g g s i a i f s s $.d i 0 _.v t d d s ` I ;.J.J.H.C.,.g f =.;.>.:.3.6.2.n."
};
