/* XPM */
static char *out[] = {
/* columns rows colors chars-per-pixel */
"50 50 243 2 ",
"   c #040101",
".  c #0C0202",
"X  c #0E090A",
"o  c #140402",
"O  c #1C0302",
"+  c #180905",
"@  c #120A0A",
"#  c #1C0C0B",
"$  c #1D1212",
"%  c #250301",
"&  c #290401",
"*  c #2C0901",
"=  c #260B09",
"-  c #360702",
";  c #3C0C01",
":  c #261600",
">  c #39150B",
",  c #241313",
"<  c #271719",
"1  c #2B1B1D",
"2  c #321413",
"3  c #351719",
"4  c #341B1D",
"5  c #3B1B1D",
"6  c #3C211F",
"7  c #2D1D23",
"8  c #2D1E28",
"9  c #331D22",
"0  c #321924",
"q  c #3B1E23",
"w  c #2F2126",
"e  c #342225",
"r  c #3B2224",
"t  c #34252B",
"y  c #3B252A",
"u  c #36282D",
"i  c #3B292D",
"p  c #3A2831",
"a  c #3C2C31",
"s  c #3F3034",
"d  c #450D01",
"f  c #490C00",
"g  c #570A00",
"h  c #4A1205",
"j  c #541100",
"k  c #5A1301",
"l  c #4D0F10",
"z  c #471614",
"x  c #44161A",
"c  c #4B161B",
"v  c #431B1D",
"b  c #4B1D1D",
"n  c #5C1A16",
"m  c #561618",
"M  c #531B1C",
"N  c #5B1C1B",
"B  c #690200",
"V  c #770200",
"C  c #7C0400",
"Z  c #651504",
"A  c #7A1700",
"S  c #671714",
"D  c #641C1A",
"F  c #6B1D1A",
"G  c #751A15",
"H  c #7B1D14",
"J  c #4A2300",
"K  c #512700",
"L  c #48211D",
"P  c #55221E",
"I  c #5B221D",
"U  c #5E2C1E",
"Y  c #7B2305",
"T  c #63231C",
"R  c #68261B",
"E  c #6B241C",
"W  c #772514",
"Q  c #74251C",
"!  c #7A241C",
"~  c #732B1C",
"^  c #7C2B1C",
"/  c #673012",
"(  c #76331B",
")  c #431D21",
"_  c #4A1E22",
"`  c #531E21",
"'  c #432324",
"]  c #4B2424",
"[  c #492826",
"{  c #432629",
"}  c #4C2629",
"|  c #442B2D",
" . c #4B2B2C",
".. c #542324",
"X. c #5B2524",
"o. c #532A26",
"O. c #532C2C",
"+. c #582B28",
"@. c #5A2C2B",
"#. c #4E312E",
"$. c #54312E",
"%. c #5B312E",
"&. c #422D32",
"*. c #4A2E31",
"=. c #522E31",
"-. c #5C2E30",
";. c #433135",
":. c #4C3335",
">. c #453439",
",. c #4A3639",
"<. c #47383D",
"1. c #4C3A3D",
"2. c #543334",
"3. c #5C3333",
"4. c #5B3937",
"5. c #523639",
"6. c #543B3C",
"7. c #5B3B3C",
"8. c #632523",
"9. c #622924",
"0. c #6B2A25",
"q. c #6D2C24",
"w. c #622C29",
"e. c #742C23",
"r. c #762924",
"t. c #7C2C23",
"y. c #693326",
"u. c #62312C",
"i. c #733124",
"p. c #73342C",
"a. c #793928",
"s. c #602F32",
"d. c #633634",
"f. c #6B3533",
"g. c #643A35",
"h. c #673837",
"j. c #643C3C",
"k. c #6B3B3B",
"l. c #743A33",
"z. c #783933",
"x. c #5E4C00",
"c. c #764A00",
"v. c #7F452A",
"b. c #6C403B",
"n. c #784436",
"m. c #4E3D42",
"M. c #523E41",
"N. c #5C3F40",
"B. c #613E41",
"V. c #4E4045",
"C. c #534244",
"Z. c #5B4245",
"A. c #544549",
"S. c #5B454A",
"D. c #57484C",
"F. c #5A4A4D",
"G. c #5F4E51",
"H. c #5F5254",
"J. c #644344",
"K. c #694747",
"L. c #774743",
"P. c #634E51",
"I. c #615356",
"U. c #67575B",
"Y. c #716064",
"T. c #890D00",
"R. c #980600",
"E. c #891804",
"W. c #931C00",
"Q. c #991E07",
"!. c #821D14",
"~. c #A40D00",
"^. c #B80F00",
"/. c #A31B00",
"(. c #99240B",
"). c #853405",
"_. c #963705",
"`. c #872716",
"'. c #812D1B",
"]. c #962A14",
"[. c #85341A",
"{. c #8C331B",
"}. c #983517",
"|. c #A32100",
" X c #A92505",
".X c #B72603",
"XX c #B7330D",
"oX c #A42F13",
"OX c #AA3512",
"+X c #A63917",
"@X c #B83A12",
"#X c #842F27",
"$X c #833322",
"%X c #8A3825",
"&X c #943B25",
"*X c #863E32",
"=X c #C30800",
"-X c #D80E00",
";X c #C41D00",
":X c #E80B00",
">X c #FA0A00",
",X c #E81800",
"<X c #F81B00",
"1X c #C32500",
"2X c #CA2600",
"3X c #C22900",
"4X c #CC2B00",
"5X c #DD2400",
"6X c #D32B00",
"7X c #DD2E00",
"8X c #E82600",
"9X c #E42D00",
"0X c #EC2E00",
"qX c #F92200",
"wX c #F42B00",
"eX c #FD2C00",
"rX c #E83400",
"tX c #F43100",
"yX c #FE3300",
"uX c #F23A00",
"iX c #FE3A00",
"pX c #8B510E",
"aX c #9A461B",
"sX c #A7441A",
"dX c #B34312",
"fX c #AF5114",
"gX c #876400",
"hX c #956C00",
"jX c #AD6E00",
"kX c #854328",
"lX c #964627",
"zX c #864738",
"xX c #A4482C",
"cX c #C64B14",
"vX c #CC5714",
"bX c #F34000",
"nX c #FE4400",
"mX c #FF4900",
"MX c #B38D00",
"NX c #C18800",
"BX c #CDB100",
"VX c #DFC500",
"CX c #F2C800",
/* pixels */
"P 2.A.D.H.U.U.D.1.,.' y.v.$.>.u u u i u u y t p u u N c 0 a a t t [ w.,.m.m.A.m.1.6.C.C.M.>.&.i R M.",
"0.C.F.H.H.H.V.m.F.F.K.kXv.;.a i u u u &.y y q t 8 8 !.m 8 p s u ' ~ a.K.U.I.D.<.;.s >.1.C.C.*.] f.A.",
"f.1.&.1.V.<.a <.C.C.4.%.i a a &.p p t i | p >.s t x Q.c t t u | +.2.V.F.F.A.M.<.a u u y i t q 0.6.,.",
"7.1.a i s <.<.<.1.#.kXkXy a i ;.&.p t i p | p q 0 sXE._ 8 9 8 ] X.;.p a p a a p a s s u 8 t q 0.M.,.",
"6.;.;.>.1.V.m.1.6.a.dX}.{ p y p &.&.p &.&.{ p 0 m *XQ.m { a { D ^ :.| >.,.s a >.1.m.C.C.1. .T @.,.i ",
"i ;.,.1.1.>.>.4.v.sXcX}.` q q p | &.p p { p q 0 F 1.3Xr.2.6.N.z.{.D b  .2.O.5.7.$.2.2.$.O.R ].} ;.,.",
",.,.C.1.>.s ,.g.p.2.3.{.!._ q q y p q p q p 0 F t.s.}.w.| | ,.J.k.p.Q E T W q.B.k.b.M.C.Z.h.}.@.>.6.",
"6.1.m.i y | $.R X.q q ^  XG m _ ) q q q q ) m !.B.B.@.F ] { { *.,.5.f.$Xe.9.2.,.v.( #.>.m.S.#Xf.,.,.",
"i.y. .] ` } =.+.S D ` '.@X X!.G n c ) ' ] N Q f.B.d.$.H `.X.] ' [ *.=.j.p.8.*.[ t.0.:.;.m.G.B.r.i.%.",
"^ {.0.'.0.&.u ) D Q e.z.lX+X@XoX].H D D `.].f.k.+.@.@.~ cX{.~ R X.+.@.3.h.-.} 8.9.} &.a p M.N.s.{.t.",
"*.t.a.lX` p 0 m D O.&.*.5.f.lXlX*X&X#X! OX(.X.+.+.@.+.^ lXlX&X}.XXaX%Xt.r.@._ X. .*.p &.m.m.m.m.X.p.",
"| $XkXzX=.&.D !.!.` ] ..X.d.f.k.k.B.K.d.U Z 2 2 3 3 2 v 6 ' 3.kXvXvXxX*X#Xr.` }  .*.&.m.m.m.M.M.9.$X",
"w.%.m.m.m.N.z.#XoX{.t.p.f.B.b.j.f.d.' 1 $ * O : d d j k k h > 6 ( lXL.b.d.w.8.@.:.=.,.M.M.m.m.,.i.6.",
"[.y p p p m.m.-.&X@Xt.d.j.h.J.L.-.1 @ + : K J h |..X4X6X XE.j * : 6 } +.o.o.o.}  .*.*.:.>.m.>.} ~ u ",
"sX_ q q 8 8 8 y 9.$X3.2.-.-.3. .< + : c.MXMXMXhXZ yXyX6X).jXjXx.; ; # 2 ' ] ' ] [ [  .*.>.>.p ( [.q ",
"zXJ.2...q ) q _ T t.B.j.3.3.[ , ; A K NXCXVXBXgXd tXyX.Xx.BXBXhXk |.d + 2 b b [ [ | *.*.*.&.{ p.L.6.",
"M.G.N.-.N `.8.{.}.r.7.j.d.} , ;  X9X XpXgXgXc.Y .XyXyX7X_.c.c.pX.XtX.Xf % z G F } [ :.:.5.5.w.X.P.Z.",
"} S.M.3.'.! v T t.X.3.2.O.2 & W.0XyX0X2X4X4X2X6XyXyXyXeX9X4X4X8XeXyXtX/.- 2 Q t.X.}  .:.,.:.-.+.5.M.",
"` m.,.*.q.`.3 x M 8.-.-.' = B 8XyXyXyXyXtXtXtXyXtXyXyXyXyXyXyXyXyXyXyX8XR.& ' f.r.8.O. .r ) r ..{ M.",
"%XD -.*.E (.S x c X.O.3.9 % ~.wXyXyXyXyX2Xk A |..X4X9X9X0XyXyXyXyXyXyXyX;Xg , -.t.`.r.w.@.3.3.l.$X` ",
"2.n.aX! &XzXz.!.G G w.=., g -XeXyXyXyXyXtX2XW.j * * - * j 9XyXyXyXyXyXyXwXT.O { k.&Xr.] ' *.| [ j.lX",
"i *.i.+X@.7.K.z.oX{.@.q @ V <XeXyXyXyXyXyXyX0X9X7X4X4X4X7XyXyXyXyXyXyXyXyX.X; 3 3.t.D v 9 9 e e i #.",
"7 9 [ `.) y  .2.t.! _ 2 O R.<XyXyXyXyXyXyXyXyXyXyXyXyXyXeXyXyXyXyXyXyXyXyX6Xk , *...N 5 4 9 9 e 7 w ",
"< 7 5 `.m 9 | [ X.F b , % R.qXyXeXyXyXyXyXyXyXyXyXyXyXyXyXyXyXyXyXyXyXnXmXrXZ , [ } n c q ' e 4 1 7 ",
"7 < 3 S l 0 ' ' b T n = O R.qXiXiXyXyXyXyXyXyXyXyXyXyXyXyXyXyXyXyXyXyXnXnXuXA = q ] H 8.' 9 e w 1 < ",
"e 7 x n 0 3 2 0 P `.!.; & R.qXnXmXiXyXyXyXyXyXyXyXyXyXyXyXyXyXyXyXyXiXnXmXiX(.= q ] S D 5 4 4 e e 1 ",
"w 4 S Q | y q D `.T L , O T.wXnXmXiXyXyXyXyXyXyXyXyXyXyXyXyXyXyXyXyXyXiXnXnXW.O , M !.r.X.' *.e 1 x ",
"r n oXP i r v F ~ L ] 2 . Z 7XnXmXyXyXyXyXyXyXyXyXyXyXyXyXyXyXyXyXyXeXeXiXiXW.O 2 9.0.!.` | | y ) H ",
"5 n M ..2.4.T `.8.' ] 3 X *  XmXnXyXyXyXyXyXyXyXyXyXyXyXyXyXyXyXyXyXeXqXeXyXE.% S i.p.f.X.b q 9 m v ",
"c S _ R `.~ sX^ { [ ] ] , o (.bXiX0X7XtXyXyXyXyXyXyXyXyXyXyXyXyXyXyX8X=X,X0XE.* / kXK.M.*.` x q S m ",
"m (.n +.].b U E [ [ o.O.6 + Y rX0XA f 6XyXyXiXyXyXyXyXyXyXiXnXmXnXyX(.% T.5XZ % } J.B.5.r x m z G !.",
"G OXW I E e b D o. .#.#.L $ A 9X6X; o 1XiXnXmXiXyXyXyXyXyXnXmXmXnXwXW.O T.;Xf $ 2.B.=.{ x m S S (.+X",
"XX8.b T N q q v ' [ *.-. ., j 4X/.% o 3XmXmXmXmXiXyX1X.XtXnXmXmXnX8XA % R.R.% 1 6.4. .) x S !./.}.] ",
"sXq w 7 0 q 5 v ] [ [  . .< * Q.j . o .XnXmXmXmXiX5X- & 8XyXmXnXiX2Xf O V V o y 5. .' v v S }.+X^ e ",
"7.y t w 7 7 q ) _ ]  .*.[ < O f % . o .XnXmXmXmXyX/.  O ,XeXiXnXtX/.O . % % @ e  .r r 9 v H X.5.*.e ",
"&.q w t t 8 e q ` R o.} ..z O   X , + .XbXmXmXnXtXj   O :X<XyXiX6Xg @ 1 $ . = 6 { r 4 7 x H q u  .e ",
"' D 8 t u t 9 e b '.[.~ {._.>   , e @ W.uXmXnXiX.X.   O -X>XeX0X(.O 6 M.i > m [ ' q 0 0 m !.x 0 D v ",
"3.a.X.q t 9 9 q b ! a.&XsXaX> @ 4 e @ j 7XmXiXtXg   . o ^.>XqX6Xj $ ,.K.6.~ }.T r 9 9 ) G ].F =.l.y.",
"P.Z.k.X.` x c m W }.%XlXpXo.1 < q y # * 6XnXyX5Xo o = . B >X>X|.+ 1 :.7.6.q.OX[.v 7 9 =.l.z.h.J.Z.K.",
"C.1.6.4.@.n G !.'.a.n.kXlXy.e e i a < O .XtXeXA   ; l . & =X:XE.@ 4 { |  .i.XX@X[.T { ,.M.F.A.C.1.C.",
">.&.,.,.,.X.E @.@.:.1.6.n.a.[ y y | 1 X T.rX8X-   m S = . g -XC X e i | ;.i.OX].`.sXy.y i ;.,.,.;.;.",
"y 9 u ;.;.} b e i &.>.1.Z.h.o.i i i u @ - 5X2Xo X r.E.x o O V B @ u #.| y ( dX`.F lXl.*.;.+.L r e w ",
"( 6 9 a >.' M 6 u &.;.&.;.2.y.o.y e 9 $ o ~.~.. $ ! XXG 2 . O % X e [ I [.{.( u.%.K.K.7.1.b.3.( / w ",
"aXfX' i i M S 9 u u i u u &.i.aXq.q e 6 X - T.. z @X3X`.+.q $ . @ J {.XXOXi.6.M.6.F.I.F.F.F.Z.b.fX( ",
"7.dXL e 5 H F ' u u u u u i +.aXy.w u u $   %   6 ( (...| >.u ' m !.XX.X[.Z.V.1.1.C.S.H.I.Y.U.P.[.aX",
":.OXL e b ].H L u u u a u i ( v.#.u e u u X     w ;.!.v a m.a i 2.f.oX{.4.V.1.1.C.C.6.6.C.D.P.P.S OX",
"6 cX~ | 2.g.4.2.| u u a a y.y.#.a u i i y 7     e | D r u a u u a *.w.q.1.1.1.1.C.1.,.,.,.M.Z.<.R fX",
"L a.7.A.F.H.D.C.>.y u e L $.:.i a a u i y e 7   < u M 0 w p u t u i  .M.1.m.C.C.1.C.C.C.1.>.<.s R l.",
"U 6.A.I.I.U.I.C.A.C.3.kXkX:.;.u t u i i y e w < X w T m 0 a s u e P ~ 2.S.F.A.1.<.>.1.6.C.M.| r 9.C.",
"i.C.A.G.G.D.s 1.D.D.Z.g.%.;.s i t t u i y i s u 8 8 ].c w u p p ..p.K.U.U.I.D.m.a a ;.;.,.1.:.9.j.C."
};
