/* XPM */
static char *out[] = {
/* columns rows colors chars-per-pixel */
"50 50 244 2 ",
"   c #050101",
".  c #0B0303",
"X  c #120403",
"o  c #1B0503",
"O  c #130A0B",
"+  c #160808",
"@  c #1B0C0C",
"#  c #150E11",
"$  c #1C1112",
"%  c #1C1316",
"&  c #220402",
"*  c #230A05",
"=  c #2C0805",
"-  c #220E0D",
";  c #330302",
":  c #3C0303",
">  c #380B05",
",  c #2B140A",
"<  c #351B06",
"1  c #260E10",
"2  c #241312",
"3  c #2A1413",
"4  c #27171A",
"5  c #2B1B1C",
"6  c #381817",
"7  c #341B1D",
"8  c #3A1C1D",
"9  c #3C211F",
"0  c #2D1E23",
"q  c #331D23",
"w  c #321924",
"e  c #3B1E23",
"r  c #2E2125",
"t  c #2F2128",
"y  c #342125",
"u  c #3C2225",
"i  c #34242B",
"p  c #3B252A",
"a  c #37282D",
"s  c #3B292D",
"d  c #3A2831",
"f  c #3C2C32",
"g  c #3F3034",
"h  c #4B0A01",
"j  c #550601",
"k  c #5A0202",
"l  c #481306",
"z  c #531102",
"x  c #581406",
"c  c #481514",
"v  c #45161A",
"b  c #4C161B",
"n  c #431A1D",
"m  c #4B1D1D",
"M  c #571617",
"N  c #5C1B17",
"B  c #53151A",
"V  c #531B1C",
"C  c #5C1C1B",
"Z  c #600300",
"A  c #6B0300",
"S  c #770601",
"D  c #651300",
"F  c #6E1500",
"G  c #771803",
"H  c #7C1900",
"J  c #691412",
"K  c #651815",
"L  c #641C1A",
"P  c #6B1D1A",
"I  c #751B14",
"U  c #771916",
"Y  c #7B1D14",
"T  c #5C2400",
"R  c #503700",
"E  c #49221E",
"W  c #55221E",
"Q  c #5B221D",
"!  c #5D2C1E",
"~  c #642509",
"^  c #64231C",
"/  c #6B231B",
"(  c #682718",
")  c #792414",
"_  c #74251D",
"`  c #7A251C",
"'  c #732A1C",
"]  c #7C2B1C",
"[  c #67321C",
"{  c #77341C",
"}  c #431D22",
"|  c #4A1E22",
" . c #531E21",
".. c #432324",
"X. c #4C2424",
"o. c #4C2827",
"O. c #43252A",
"+. c #4C262A",
"@. c #442B2D",
"#. c #4B2B2C",
"$. c #532324",
"%. c #5B2424",
"&. c #532927",
"*. c #5C2C26",
"=. c #532C2B",
"-. c #592B2B",
";. c #4E312E",
":. c #53302E",
">. c #5B312E",
",. c #422D32",
"<. c #4B2E31",
"1. c #522E31",
"2. c #5F2C30",
"3. c #433135",
"4. c #4C3335",
"5. c #453439",
"6. c #4B3639",
"7. c #47383D",
"8. c #4C3A3D",
"9. c #543334",
"0. c #5C3333",
"q. c #593936",
"w. c #523539",
"e. c #533B3D",
"r. c #5B3B3C",
"t. c #632623",
"y. c #622924",
"u. c #6B2925",
"i. c #6D2C24",
"p. c #632C2A",
"a. c #772923",
"s. c #742D24",
"d. c #7B2C23",
"f. c #693325",
"g. c #62312C",
"h. c #6A332D",
"j. c #733224",
"k. c #783827",
"l. c #73332A",
"z. c #7D3B2A",
"x. c #633534",
"c. c #6B3534",
"v. c #673A36",
"b. c #633B3B",
"n. c #6A3C3B",
"m. c #733A33",
"M. c #7A3A32",
"N. c #5D4200",
"B. c #6B4800",
"V. c #7B5300",
"C. c #7F452A",
"Z. c #6C403C",
"A. c #764536",
"S. c #4E3D42",
"D. c #523E41",
"F. c #5B3F40",
"G. c #623E41",
"H. c #4E4045",
"J. c #534244",
"K. c #5B4245",
"L. c #544549",
"P. c #59474B",
"I. c #5A4A4D",
"U. c #5F4E51",
"Y. c #5F5254",
"T. c #634344",
"R. c #694747",
"E. c #794843",
"W. c #624E51",
"Q. c #615356",
"!. c #67575B",
"~. c #716064",
"^. c #8A0302",
"/. c #990500",
"(. c #881705",
"). c #851A00",
"_. c #951E06",
"`. c #811D13",
"'. c #911E14",
"]. c #AB0501",
"[. c #BB0400",
"{. c #B20A03",
"}. c #A71B00",
"|. c #BA1E00",
" X c #852709",
".X c #99240B",
"XX c #852616",
"oX c #8B2B16",
"OX c #812D1C",
"+X c #962913",
"@X c #84361B",
"#X c #8C331B",
"$X c #9A3617",
"%X c #A82506",
"&X c #B72702",
"*X c #A4330E",
"=X c #B43404",
"-X c #A73815",
";X c #B83912",
":X c #852F27",
">X c #833322",
",X c #8B3926",
"<X c #943B25",
"1X c #873E32",
"2X c #D60401",
"3X c #D30F02",
"4X c #CA1700",
"5X c #E80900",
"6X c #F30B01",
"7X c #E71900",
"8X c #F51A00",
"9X c #C62800",
"0X c #D82A00",
"qX c #DB3100",
"wX c #E82500",
"eX c #E32D00",
"rX c #EB2E00",
"tX c #F62400",
"yX c #FB2300",
"uX c #F52E00",
"iX c #FC2C00",
"pX c #F43100",
"aX c #FE3300",
"sX c #F73C00",
"dX c #FE3C00",
"fX c #854710",
"gX c #9A461B",
"hX c #AF4A00",
"jX c #B84E08",
"kX c #AA530F",
"lX c #A7441A",
"zX c #B34312",
"xX c #A65D16",
"cX c #956C00",
"vX c #864328",
"bX c #954526",
"nX c #85493A",
"mX c #C54B13",
"MX c #CB5714",
"NX c #FE4500",
"BX c #FF4800",
"VX c #AD8A00",
"CX c #B89E00",
"ZX c #CEAE00",
/* pixels */
"W 9.J.I.Y.!.!.L.8.4.u [ C.q.5.s a s a s p i i f a i C b w f a i i X.t.6.S.S.L.S.S.D.J.e.D.3.,.s t.J.",
"u.J.I.Q.Y.Y.H.S.I.I.R.vXC.3.f f a i s d O.p i i t w `.B t d g s ..[ M.R.!.Q.I.7.g f 5.6.J.J.<.$.x.K.",
"c.8.3.7.H.7.f 7.J.J.q.>.s f g f d p a s d d 5.g i v _.B i i a ,.-.9.H.I.P.L.D.5.f a a s a i i u.e.6.",
"r.8.f s g 7.7.7.S.4.vXvXu f s ,.3.d i s ,.d O.e w lX(.| i 0 q X.Q 3.f f f f f f f g g f i i 8 u.e.6.",
"w.3.3.5.8.H.D.8.e.j.zX$XX.d p d ,.,.d d ,.O.p w  .vX_.B e ,.O.L ] 4.@.6.5.3.g 5.8.S.J.J.w.#.^ =.8.,.",
"@.3.8.6.8.5.5.q.C.lXmX$X .p i p ,.,.d O.O.O.e w U 6.9Xa.w.e.F.M.#XL m #.9.:.4.w.:.1.w.9.-.^ +X&.@.5.",
"6.7.J.8.5.,.6.x.j.q.0.#XY b } e e d e d d p w P a.2.-X-.@.@.6.T.n.l._ / / ' u.Z.Z.Z.J.J.K.v.$X2.5.8.",
"e.6.S.,.i @.=.[ %.u u ] %XU  .| } e e p e }  .`.G.G.-.P $.O.O.@.w.w.x.>Xs.^ 0.6.C.{ #.3.S.I.:Xp.6.8.",
"j.f.=.X. .+.1.-.K L  .OX;X%X'.U N b } ..X.L d.h.R.2.>.Y oX%.X...X.4.9.r.l.t.@.o.d.u.4.5.S.U.G.d.j.>.",
"{ #Xu.] u.,.a } L P s.M.bX-X;X+X+X`.L L XX+Xh.n.-.-.-.` mX#X/ ( %.*.-.0.c.2.+.t.u.+.,.d f D.F.2.$Xj.",
"@.d.z.bX .d w B P 1.,.<.w.h.bXbX1X<Xd.d.*X.X%.&.$.-.$.' bXbX<X-X;X$X,X:Xa. .$.-.@.@.d ,.S.S.S.S.t.l.",
"@.@X1XnX1.O.L `.Y  .X.$.%.c.c.n.n.G.Z.-.m x , 2 3 3 , 6 6 y #.z.MXMXbX1X1Xu. .$.4.#.,.S.S.S.S.S.t.k.",
"p.g.S.S.S.F.c.<X-X+Xd.l.c.n.Z.n.c.#.8 $ X * & ; D D G H G F l < ~ vXE.n.v.p.^ -.9.4.w.e.S.S.S.w.i.w.",
"@Xp a d d S.S.0.<X;Xd.x.r.b.R.Z.+.- . < R V.B.T _.qXrXrX%X X~ , * < ..&.&.&.o.=.o.#.4.6.5.S.5.+.' s ",
"lX| e e t w w d y.,X0.9.>.0.0...- = < cXZXZXCXcXz sXpX9XB.VXVXfXl x o 1 m X.E ....#.@.@.5.5.f ' @Xe ",
"nXG.w.%.w | w | L s.G.b.0.2.9 @ D %X~ cXZXZXCXB.F iXsX9XN.CXZXcXH 9XA o 2 n m X.#.#.#.4.<.,.O.j.E.e.",
"D.W.K.2. .XXt.#X$Xs.b.v.x...- z 9XuX9X=XhXhXhX.X0XaXaXrX&XhXhX=X0XtX3XA o > I / o.#.#.6.w.w.c.t.W.K.",
"X.P.D.x.OX) m L d.%.0.0.&.- l &XsXaXaXeXeXeXqXuXaXaXaXaXaXeXrXpXaXaXiX3Xk - ^ ] %.o.#.9.4.4.=.-.w.J.",
" .S.6.<.s.XX6 e V t.1.0.u o ).uXaXaXaXaX0X&XrXpXpXiXpXaXpXaXaXaXaXaXaXtX].; 9 h.a.t.+.<.e n ..$.@.8.",
",XL 1.+.u..XJ c b %.=.>.3 > |.iXaXaXaXaXqXG h z x )._._.&XpXaXaXaXaXaXiX7XS @ o.s.oXa.p.=.0.0.m.,X .",
"9.A.lX_ <XnXM.U U U p.+.@ S 5XyXaXaXaXaXpXeX9X%XF z z z ).uXaXaXaXaXaXaXtX}.= u n.<Xa.X...#.@.@.b.bX",
"a @.s.lX-.r.G.1X*XoX-.e o ^.7XiXaXaXaXaXaXaXaXpXrXeXeXeXeXaXaXaXaXaXaXaXiX4Xh 4 9.a.L 8 e y y u a ;.",
"0 q X.XX} p 4.-.] ` | 3 & /.tXaXaXaXaXaXaXaXaXaXaXaXaXaXaXaXaXaXaXaXaXaXaX0XD - +.%.C n 7 7 q y r r ",
"5 0 8 XXM y O.@.%.P | 2 & /.8XaXaXaXaXaXaXaXaXaXaXaXaXaXaXaXaXaXaXaXaXNXNXuXS 1 +.+.N v u u y 5 5 5 ",
"0 4 6 L c w } O.m L C 1 & /.8XaXaXaXaXaXaXaXaXaXaXaXaXaXaXaXaXaXaXaXNXBXBXaX(.& q | Y t...7 y t 5 4 ",
"y 0 v N w 6 5 7 W  X`.> & /.tXsXBXBXdXaXaXaXaXaXaXaXaXaXaXaXaXaXaXdXdXNXBXsX_.- e $.K N 6 7 7 y y 5 ",
"0 6 K U +.p e K oX^ E , X S wXNXBXBXaXaXaXaXaXaXaXaXaXaXaXaXaXaXaXaXdXBXBXsX).o 5 V ` ` %.O.,.u 0 v ",
"u N $XQ p p n K ' ..E 9 X ; &XNXBXNXdXaXaXaXaXaXaXaXaXaXaXaXaXaXaXaXdXBXBXsX).o 6 u.u.`.%.O.,.p } Y ",
"8 N V %.w.q.( oX%...X.X.2 . F NXBXdXaXaXaXaXaXaXaXaXaXaXaXdXdXdXaXaXaXNXNXsX).o T j.h.c.t.| e q M v ",
"b J | ^ XX' -X' ..X.X.=.9 O = &XNXrXeXpXaXaXaXaXaXaXaXaXaXBXBXBXdXaXaXaXaXsX(.& ( M.R.F.<.V n 8 K B ",
"B .XC -.+XE ! / O.o.=.=.=.3 . F 0X}.D 9XpXaXNXBXNXaXaXaXdXBXBXBXdXaXyXyXaXuX(.o O.G.G.w.u v M b I  X",
"Y -X) Q / q } ^ &.#.;.=.#...2 o F > . H rXaXBXBXBXaXaXaXaXBXNXNXaX8X6X6XiXuXH o s D.9.O.6 B J J '.-X",
"=X%.| ^ C e e n ..O.#.9.:.=.8 O       ^.wXaXBXBXNXrX&X9XrXNXNXaXiX7X{.{.8X0XZ $ 3.9.#.n v M (.%X*X..",
"-Xp 0 0 0 e e n X.O.#.#.<.=.$.- . . . ].tXaXBXBXsX}.o ; &XsXaXaX7X/.; A 5X3Xh 7 4.#...e n J +XlX] i ",
"r.y i i 0 q q ..m +.@.#.#.&.P x , @ . [.tXaXBXNXaXH     h rXpXtX{.;   h [.].: e #.u e q } U %.w.#.i ",
",.e t i i 0 q q m / &.#.$.V M x 6 4 X [.tXdXBXNXaXz   O o |.8X5XZ + # o ^.^.> } ..y q 0 b U e a @.7 ",
"..L w i a i y y E ] @Xs.) l o o - 5 + [.tXaXBXdX9X. X p X j 5X[.& % s 2 h j > | O.q q q M Y m w ^ m ",
"0.z.$.e i q q e m ` d.,X@X< > > + 5 + ^.8XaXNXrXz   6 0.4 & ].^.. 0 e.5 X o x W q q w } I +XP =.m.u.",
"W.T.n.-.| v b B ) $XvXgX@X5 > ; O 0 # Z 7XpXsXH . z B ..q X j k . 4 3.r . o G ] n 5 q 1.m.m.v.K.I.R.",
"J.6.e.q.-.K U `.] z.A.vXbX[ 5 2 0 p 2 h 2XiXqXo $ ) M 8 q O . o . 4 s u % - H ;X@X^ O.6.J.P.P.J.7.J.",
"5.3.6.6.4.%./ *.>.4.8.q.A.l...s a @.r o [.8X0XX y P J | i 0 O   . 4 s @.s E  XoXXXlX[ s f ,.6.6.3.3.",
"u y i ,.,.+.| i a 3.5.5.K.v.=.s O.s y O S 5X7Xo 5 a.(. .q i 0 $ . 2 s s O.[ -XXXP bXm.4.3.*.} u u t ",
"{ 9 i f 5...V 9 i 3.3.3.3.w.f.#.a y q 2 > 2X6X& O ] &X` b e i 7 3 @ 4 Q @X#X{ >.0.R.R.e.e.r.0.{ [ r ",
"gXxX..d s V K 8 i a s a a @.{ gX[ e y 5 + ^.6Xk . -X&XXX-.1.-.' ) ; < .X-Xj.q.8.e.I.Q.I.I.W.K.Z.kX{ ",
"v.zXm y 8 Y J ..a a a a a a *.gXf.y a a # 1 2X].. ( .XW ,.6.;.u.+Xk & H @XJ.S.8.8.J.I.U.Q.~.!.W.@X$X",
"<.*XE y V +X) ..a a a f a s { C.@.a i u q . j 2X. 7 `.} f 8.f +.U k * ^ q.H.8.J.J.J.e.e.J.P.W.W.P $X",
"9 mX' ,.9.r.q.9.s a a f f f.f.;.g a a s a # X ^.; $ L e a f a O.B & = p.8.8.8.S.J.8.6.6.6.J.P.6.( jX",
"..k.r.P.I.Y.I.J.4.s i u E :.4.a f s s p a y O X . . B w r a i r O X 8 e.8.8.D.J.S.J.J.J.8.3.5.3.( A.",
"Q q.I.Y.Q.!.Q.H.J.K.9.vXvX;.g a a a a s a i r $     C B 0 f g t 2 c ' 9.K.I.L.S.5.7.8.e.K.J.O.u y.J.",
"l.J.P.I.Y.P.g 8.I.I.K.v.>.g f f i a a a s p ,.f t % +XB t a f s &.f.R.!.!.Q.I.7.f f 3.3.6.5.4.y.b.J."
};
