/* XPM */
static char *out[] = {
/* columns rows colors chars-per-pixel */
"50 50 242 2 ",
"   c #050101",
".  c #0B0302",
"X  c #0E0808",
"o  c #130302",
"O  c #1B0403",
"+  c #130906",
"@  c #1C0A04",
"#  c #140C0C",
"$  c #190B0B",
"%  c #1D1100",
"&  c #150E11",
"*  c #1D1213",
"=  c #230301",
"-  c #2B0403",
";  c #230904",
":  c #220B0A",
">  c #2C0C08",
",  c #330402",
"<  c #370903",
"1  c #3B0D03",
"2  c #3A1307",
"3  c #2A0F11",
"4  c #251313",
"5  c #291618",
"6  c #251A1D",
"7  c #2B1B1D",
"8  c #351618",
"9  c #341B1C",
"0  c #3C1B1D",
"q  c #3D201E",
"w  c #2D1D23",
"e  c #2B1D25",
"r  c #341E23",
"t  c #321924",
"y  c #3B1E23",
"u  c #2E2125",
"i  c #2F2128",
"p  c #342225",
"a  c #3C2125",
"s  c #34252B",
"d  c #3B252A",
"f  c #37282D",
"g  c #3B292D",
"h  c #3E2730",
"j  c #3C2C31",
"k  c #3F3034",
"l  c #430401",
"z  c #4C0200",
"x  c #460E02",
"c  c #590500",
"v  c #481607",
"b  c #5A1302",
"n  c #4A1614",
"m  c #44161B",
"M  c #4C161B",
"N  c #431B1D",
"B  c #4B1C1D",
"V  c #541416",
"C  c #5B1A15",
"Z  c #581816",
"A  c #53151A",
"S  c #531B1C",
"D  c #5B1B1A",
"F  c #680500",
"G  c #780600",
"H  c #641300",
"J  c #681709",
"K  c #731500",
"L  c #791903",
"P  c #651413",
"I  c #681915",
"U  c #641C19",
"Y  c #691D1A",
"T  c #741B16",
"R  c #7B1C13",
"E  c #5A2706",
"W  c #48221E",
"Q  c #55221E",
"!  c #5C231D",
"~  c #5B2C1D",
"^  c #7B2C00",
"/  c #64231C",
"(  c #6A231B",
")  c #642819",
"_  c #762314",
"`  c #74251C",
"'  c #7A251C",
"]  c #732B1C",
"[  c #7C2C1D",
"{  c #6A311D",
"}  c #78341C",
"|  c #431E21",
" . c #4A1E22",
".. c #561E20",
"X. c #432325",
"o. c #4B2424",
"O. c #492827",
"+. c #43262A",
"@. c #4B2729",
"#. c #442B2D",
"$. c #4B2B2C",
"%. c #532324",
"&. c #5C2424",
"*. c #582A25",
"=. c #532C2C",
"-. c #5A2C2B",
";. c #4E312E",
":. c #58312E",
">. c #432D31",
",. c #4B2E31",
"<. c #512E31",
"1. c #5F2C30",
"2. c #433135",
"3. c #4B3335",
"4. c #463439",
"5. c #4B363A",
"6. c #47383D",
"7. c #4C3A3D",
"8. c #543334",
"9. c #5C3333",
"0. c #593936",
"q. c #523639",
"w. c #533B3D",
"e. c #5B3C3D",
"r. c #642622",
"t. c #632924",
"y. c #6C2B23",
"u. c #6B2925",
"i. c #632C29",
"p. c #732D24",
"a. c #782B24",
"s. c #693424",
"d. c #63312C",
"f. c #6C342C",
"g. c #733224",
"h. c #7C3423",
"j. c #73342C",
"k. c #793929",
"l. c #633534",
"z. c #6A3635",
"x. c #643A35",
"c. c #643B3B",
"v. c #6A3B3A",
"b. c #733A33",
"n. c #773932",
"m. c #5D4900",
"M. c #754B00",
"N. c #7F432B",
"B. c #6C403B",
"V. c #754537",
"C. c #4E3D42",
"Z. c #523E41",
"A. c #5A3F40",
"S. c #623E42",
"D. c #4E4045",
"F. c #534244",
"G. c #5C4245",
"H. c #544549",
"J. c #5B454A",
"K. c #57484C",
"L. c #5A4A4D",
"P. c #5F4E51",
"I. c #5F5254",
"U. c #644444",
"Y. c #684748",
"T. c #7D4B46",
"R. c #634E51",
"E. c #615356",
"W. c #67575B",
"Q. c #716064",
"!. c #860701",
"~. c #9A0301",
"^. c #881903",
"/. c #931B06",
"(. c #9B1C00",
"). c #821D13",
"_. c #AB0502",
"`. c #B10D00",
"'. c #B61600",
"]. c #8B2D07",
"[. c #9B260C",
"{. c #852414",
"}. c #892917",
"|. c #822D1B",
" X c #932413",
".X c #972D14",
"XX c #853717",
"oX c #83331C",
"OX c #8C331B",
"+X c #9A3617",
"@X c #A92504",
"#X c #B82602",
"$X c #A93A0E",
"%X c #AA2D10",
"&X c #A73715",
"*X c #BA3913",
"=X c #832E26",
"-X c #883723",
";X c #943A26",
":X c #873E32",
">X c #CF1300",
",X c #E90600",
"<X c #F80C00",
"1X c #E51700",
"2X c #FA1A00",
"3X c #C22500",
"4X c #C72B00",
"5X c #DA2400",
"6X c #D52B00",
"7X c #DD2C00",
"8X c #C53106",
"9X c #E32400",
"0X c #E22C00",
"qX c #EB2D00",
"wX c #FC2300",
"eX c #F52C00",
"rX c #FB2D00",
"tX c #ED3100",
"yX c #F43100",
"uX c #FE3300",
"iX c #FE3C00",
"pX c #994100",
"aX c #8B5208",
"sX c #99471B",
"dX c #A7441A",
"fX c #B34212",
"gX c #AF5114",
"hX c #966300",
"jX c #916E00",
"kX c #AD6300",
"lX c #A67E00",
"zX c #854328",
"xX c #964527",
"cX c #844739",
"vX c #A4472A",
"bX c #C55014",
"nX c #FF4400",
"mX c #FF4900",
"MX c #B68600",
"NX c #B9A100",
"BX c #CAAE00",
"VX c #F0C400",
/* pixels */
"Q 8.H.K.I.W.W.K.7.5.X.{ N.0.4.f f g f g g s s g f s D M e j j s s o.t.7.7.F.H.C.C.7.F.F.Z.2.>.g r.F.",
"u.F.L.I.I.I.D.6.L.L.Y.zXN.k j j s f d j d d s s s t {.A w j 2.s X.y.n.Y.W.E.K.7.2.j 5.5.F.H.,.%.l.F.",
"z.7.>.7.D.7.k 6.F.F.e.d.g g j >.h s s g h h 3.2.s N /.M s s s ,.-.:.D.K.K.H.C.4.j f f g s s r u.e.5.",
"e.7.j g k 6.6.6.7.5.zXXXa k j >.2.h s j j +.h r t &X/.| w w s | &.2.g j j j j g f k 2.f s s 0 u.Z.4.",
"7.2.2.4.7.D.C.7.w.k.fX+X+.h d d >.>.h h >.+.+.t A :X/.V +.h +.U [ 3.+.5.4.j j 4.w.D.F.F.w.#./ -.7.#.",
"#.2.7.7.7.4.4.0.N.dXgX&X..y s d +.>.h h +.h t y T q.8Xa.9.Z.U.n.OX/ B $.8.8.8.0.=.8.5.:.=.( .X$.g 5.",
"7.5.F.w.4.>.5.x.j.8.9.}.R M y y d d y +.y h y U a.1.&X-.#.$.3.G.v.j.` ( ( ` y.S.B.B.Z.F.J.z.+X1.4.7.",
"q.5.7.j s #.:./ &.a q [ %XR V  .| y y d y | ..R v.U.-.Y %.+.+.$.8.w.f.=Xa.t.9.5.N.} ;.2.7.J.=Xf.5.w.",
"g.d.=.W ..$.<.-.Y U ..=X*X%X).T C S N X. .! ` f.U.l.-.R }.&.O.X.@.,.8.l.j.i.+.$.a.p.3.2.C.P.S.a.g.:.",
"} OXu.|.u.>.s | U T p.j.xX&X*X%X X).Y / }..Xf.B.*.*.-.' bX.X] ( / &.-.9.z.1.=.t.r.+.>.h h Z.A.1.OXh.",
"$.h.k.xX..f y A Y =.>.,.q.z.xXxX;X;X=X' [.R W q 0 N 0 C } oXoX+X$XsXOXh.a... .&.<.>.>.>.C.C.C.C.&.j.",
",.=XzXcX<.+.U ).R ..o...&.f.b.v.c.c.;.q 2 1 ; @ < 2 2 v v v 0 ) fXbXvXzX:Xa...%.,.$.>.C.C.C.C.C.r.-X",
"-.i.C.C.C.A.z.=X&X X=Xp.z.S.U.v.=.9 * + % 2 2 1 ^.@X@X#X@X^ b > v { x.B.l.i./ -.<.<.q.w.C.C.C.3.y.0.",
"XXd f s h C.C.1.;XfXa.l.x.v.B.:.5 @ % M.lXMXMXhXK uXuX7X].kXkXE < 1 4 q %.*.*.$.=.,.3.4.5.C.C. .] f ",
"dX .y h t i t h t.-X9.9.9.-.=.5 2 L v MXVXBXBXjXx yXyX4Xm.NXBXjXb [.x @ 9 o.W o.O.$.$.#.2.5.j } -Xy ",
"cXS.9.%.t  .y  .( a.S.c.l.@.5 1 @X7X@XpXhXhXM.^ #XiXiX7X].aXhXpX3XtX@Xx O 8 W %.@.@.,.,.,.>.d g.T.q.",
"Z.R.A.1.S {./ OX+Xp.c.x.:.9 > (.tXuXtX4X4X4X4X6XuXuXuXuXqX4X4X7XyXuXyX@Xl ; J / @.O.,.8.q.8.f.i.R.G.",
"@.A.Z.9.oX[ B / a.r.9.9.X.: K qXuXuXuXuXtX0XyXuXuXuXuXuXyXuXuXuXuXuXuXeX/.- n ` r.@.$.3.3.5.<.&.w.F.",
"..C.5.,.y.{.m y D r.:.=.5 < @XyXuXuXuXuX6XH H K L @X#X3X7XyXuXuXuXuXuXuX5XH : *.a./ =.$.y N a %.$.5.",
";XU <.$.a.[.P M M &.=.O.* H 0XuXuXuXuXuXyX6X#X/.b x x x K tXuXuXuXuXuXuXrX(.> y a.|.a.i.-.9.9.b.-X..",
"5.V.dXa.;XcX=XR T T i.+.$ ^.yXuXuXuXuXuXuXuXyXqX0X6X6X6X7XuXuXuXuXuXuXiXuX>Xl 7 l.;Xa. .X.$.#.#.c.xX",
"s ,.p.&X-.e.Y.n.%X}.-.9 = /.eXrXuXuXuXuXuXuXuXuXuXuXuXuXuXuXuXuXuXuXuXiXnX7Xc 3 <.a.U N y p a a j $.",
"w r O.{.| d $.8.a.{.N 4 = (.rXuXuXuXuXuXuXuXuXuXuXuXuXuXuXuXuXuXuXuXuXiXnXtXK > $.&.Z 0 9 r y p u u ",
"6 w 0 {.V p +.$.&.Y B 4 ; (.eXuXuXuXuXuXuXuXuXuXuXuXuXuXuXuXuXuXuXuXuXnXmXyX^.> +.X.D M y a p 7 5 e ",
"w 7 0 I m t d | W U D 3 o !.1XuXuXuXuXuXuXuXuXuXuXuXuXuXuXuXuXuXuXuXuXiXnXiX/.@ 9 X.R r.d 9 p p 6 6 ",
"p 7 m C 8 8 8 t Q {.).x o F 1XuXiXuXuXuXuXuXuXuXuXuXuXuXuXuXuXuXuXuXuXiXiXyX!.$ r o.P D m 9 9 p p 9 ",
"w 8 P R #.d y C }.) W 8 $ F 1XiXnXiXuXuXuXuXuXuXuXuXuXuXuXuXuXuXuXuXuXyXuXeX^.O 9 ..R a.%.X.>.s w m ",
"d U +XQ g a N Y _ W X.q O F 1XiXnXiXuXuXuXuXuXuXuXuXuXuXuXuXuXiXuXuX6X/.#XqXK O N u.u.R &.O.#.d | R ",
"0 U Q Q 8.0.) }.&.X.o.9 # F 5XiXiXrXrXuXnXiXiXuXuXuXuXuXiXmXmXmXiXeX/.O L 9XF : _ g.f.z.&. .y r D m ",
"m I  .r.{.] sX[ +.X.O.q $ z 3XiXrX2XwXiXmXmXmXiXuXyXuXuXiXmXnXnXuXqXK . K 5Xc x ].cXY.e.,.S m y P n ",
"V [.D -.[.W / ( O.#.$.O.4 ; @XrX2X<X2XiXnXmXmXnXyX@X3XuXnXnXnXiXrX#X< . K `.z 2 l.S.S.5.a m D N R ).",
"R &X_ Q ( r  ...O.$.;.#.4 o ^.qX1X<X2XuXnXmXmXiXqXo < iXiXnXiXrX5XH . . z G , 0 c.A.8.+.N V P I /.&X",
"#X&.o./ Q 0 y N X.+.,.3.a + H #X!.~.1XrXnXmXmXuX'.  1 iXnXuXrX5XG o ; : - - : 3.U.q.O.y m P ).@X[.O.",
"dXy e e w a y 0 X.+.#.$.#.* < !., O `.wXiXmXiXrXF   !.yXiXrX>X~.o $ S C ;   * q.e.$.X.y N P .X&X} p ",
"e.s s u e t r a  .O.#.$.#.7 O < = . G 9XuXmXuX1X=   `.yXuX#Xc = . 7 x.} E @ 4 >.#.a r r y R *.3.$.s ",
">.y i s i w p p B / =.+.%.C < . . . - '.yXiXuX_.    _.2X7Xb * 6 * #.e.x.) < 3 X.+.r t w m R a f #.9 ",
"X.U r s s s p p W [ } y.OXdXE o & * X F 7XuXwXc     z ,X`.# g 7.4.w.A.A.#.> 8 | d t t r Z ).N t / B ",
"l.k.%.y r s t y B ` -X;XdXsX~ $ * w $ O `.2X2X-   , o G G + g ,.3.A.J.Y.j > P &.p r u | T  XY =.n.s.",
"R.G.z.&. .m m Z _ .XzXsXzX*.p w p d e X z >X<X=   ^.> o = X s d a #.5.w.u - /. XN 7 t $.b.b.v.U.J.Y.",
"F.7.Z.0.1.U T ).[ N.V.zXsXs.d g g g g 6 o !.,X-   {.V 3 # & s d g a g g 7 % L #XXX! +.6.F.K.H.F.7.F.",
"4.2.5.4.4.&.( i.:.4.7.w.V.k.O.g g k g p & ; _.<   M P m w u g >.2.d g #.g W ].}.}.dX{ f g ,.4.4.2.2.",
"a r d 2.2.@.B p g 2.4.6.G.x.@.g g g g f e + < F   2 /.M r s g 2.5.4.2.g d { +X{.Y xXb.3.2.*.X.a s u ",
"} q u j 4.X.D w s >.2.k 2.0.s.=.s p p W D I + l O @ @XR B y p s g d O.Q XXXX} d.9.Y.Y.G.C.B.9.} ~ u ",
"xXgXX.j +.S I 9 s g f f f g g.sX{ y s p O.1.$ = c . [.}.-.$.:.] } oX+X%X&Xg.w.7.w.L.L.L.K.L.G.B.gX} ",
"0.fXW p y R I X.f f f f f f :.sX{ i f f g 2.e o ~.  b ..>.4.3.i.[  X*X#XoXA.D.7.7.F.L.R.E.Q.W.R.} $X",
";.$XW p B [.).X.f f f f f g } k.#.f s f g g 6   _.. v | j C.j g 8.b..X}.0.C.7.D.F.F.w.7.F.L.E.L.U $X",
"o.gX] #.0.e.0.8.#.f f k j s.{ ;.k f f g g d 6   z   n y f j f j j ,.i.j.7.7.7.D.F.7.7.5.7.w.G.7.) bX",
"o.h.e.H.L.P.L.F.2.g s a W :.2.k j j g a g g s     . M t e f s s s g @.w.7.7.F.F.7.F.Z.Z.7.2.7.k ) b.",
"! 0.K.P.W.W.W.D.H.F.9.zXzX;.k f f f g d g s u *   * r.A w j k s s Q ` 8.J.L.H.7.6.4.7.w.F.Z.+.d t.Z.",
"j.F.H.L.P.K.k 6.K.K.G.x.:.k k k s s s g d g >.f w e [.M s f f j *.j.Y.W.W.E.K.7.k j 2.2.5.7.3.t.c.F."
};
