/* XPM */
static char *out[] = {
/* columns rows colors chars-per-pixel */
"64 64 249 2 ",
"   c #090C0C",
".  c #0D140C",
"X  c #12150F",
"o  c #0C0D14",
"O  c #0E1214",
"+  c #0F121C",
"@  c #111515",
"#  c #141B14",
"$  c #12141C",
"%  c #151C1C",
"&  c #1A1B1A",
"*  c #351B13",
"=  c #182B0D",
"-  c #1B2617",
";  c #1B221B",
":  c #26251B",
">  c #222C1C",
",  c #302E15",
"<  c #27371B",
"1  c #0E1024",
"2  c #121323",
"3  c #161827",
"4  c #181F22",
"5  c #181737",
"6  c #261928",
"7  c #231A3A",
"8  c #1C2224",
"9  c #1F2824",
"0  c #1E2429",
"q  c #1B2835",
"w  c #252926",
"e  c #21252B",
"r  c #242B2B",
"t  c #382728",
"y  c #2A3624",
"u  c #353828",
"i  c #272835",
"p  c #342935",
"a  c #333635",
"s  c #431E10",
"d  c #482A1B",
"f  c #532F10",
"g  c #552A18",
"h  c #563616",
"j  c #653112",
"k  c #693715",
"l  c #753C16",
"z  c #47312C",
"x  c #5A3729",
"c  c #683626",
"v  c #783B23",
"b  c #2B4515",
"n  c #294516",
"m  c #2A5714",
"M  c #355819",
"N  c #3D770E",
"B  c #386515",
"V  c #396F10",
"C  c #334523",
"Z  c #374929",
"A  c #36482F",
"S  c #3B4B2B",
"D  c #3B5529",
"F  c #3E6620",
"G  c #504C14",
"H  c #6D4F13",
"J  c #7B4517",
"K  c #44661B",
"L  c #477918",
"P  c #517213",
"I  c #587615",
"U  c #6B7916",
"Y  c #42582A",
"T  c #534D31",
"R  c #465833",
"E  c #6B4E2E",
"W  c #77472A",
"Q  c #764937",
"!  c #4F722B",
"~  c #4C6536",
"^  c #546A39",
"/  c #577539",
"(  c #5A733E",
")  c #667C28",
"_  c #736D34",
"`  c #637A3A",
"'  c #1C1B45",
"]  c #231C43",
"[  c #241D4C",
"{  c #231E52",
"}  c #1C3C49",
"|  c #1C2153",
" . c #292343",
".. c #32324D",
"X. c #282458",
"o. c #282968",
"O. c #333766",
"+. c #2C2D74",
"@. c #2D327B",
"#. c #343879",
"$. c #45384C",
"%. c #473D54",
"&. c #334C52",
"*. c #3C437F",
"=. c #266760",
"-. c #504953",
";. c #73584C",
":. c #5D7941",
">. c #637E43",
",. c #787148",
"<. c #6F635D",
"1. c #504C60",
"2. c #525370",
"3. c #605B6A",
"4. c #706B6B",
"5. c #777578",
"6. c #803E1F",
"7. c #874915",
"8. c #944D15",
"9. c #88531A",
"0. c #975717",
"q. c #A85A18",
"w. c #906D19",
"e. c #A9681B",
"r. c #B46A1B",
"t. c #AE7B1F",
"y. c #B7721E",
"u. c #8A512E",
"i. c #906E2B",
"p. c #A97627",
"a. c #A6702D",
"s. c #B97A22",
"d. c #C47D1F",
"f. c #C17C22",
"g. c #885B49",
"h. c #8F6D54",
"j. c #8E7A6B",
"k. c #AA7E65",
"l. c #398708",
"z. c #2F9203",
"x. c #359500",
"c. c #3B9601",
"v. c #369A00",
"b. c #3C9A00",
"n. c #3F930B",
"m. c #3EA100",
"M. c #3C9022",
"N. c #46890C",
"B. c #588B0E",
"V. c #429505",
"C. c #439D00",
"Z. c #4A9D04",
"A. c #45940A",
"S. c #4C940B",
"D. c #46980A",
"F. c #4B9B0B",
"G. c #54980C",
"H. c #4B8515",
"J. c #568B16",
"K. c #4B9816",
"L. c #569815",
"P. c #688516",
"I. c #69901A",
"U. c #45A100",
"Y. c #4BA301",
"T. c #4EA801",
"R. c #4EA10B",
"E. c #51A602",
"W. c #53A901",
"Q. c #5AAC04",
"!. c #52A20B",
"~. c #55A314",
"^. c #498E24",
"/. c #598B29",
"(. c #599727",
"). c #5D8C37",
"_. c #5B9434",
"`. c #708D28",
"'. c #638A3B",
"]. c #649438",
"[. c #68A135",
"{. c #378C5A",
"}. c #318976",
"|. c #4E8B52",
" X c #658445",
".X c #688646",
"XX c #658942",
"oX c #6B8B45",
"OX c #6B8A48",
"+X c #758C43",
"@X c #638476",
"#X c #8F8B2F",
"$X c #87863C",
"%X c #9A8E38",
"&X c #B8852C",
"*X c #AF8F36",
"=X c #C78826",
"-X c #CE912A",
";X c #D2942A",
":X c #D7982A",
">X c #C89837",
",X c #C9A13A",
"<X c #DAA336",
"1X c #E1A22D",
"2X c #E4AA36",
"3X c #E7B23E",
"4X c #93894D",
"5X c #B39043",
"6X c #8C8079",
"7X c #9A8F72",
"8X c #998D7C",
"9X c #B08C6E",
"0X c #B9A871",
"qX c #C8964B",
"wX c #D4A748",
"eX c #D1AB50",
"rX c #EAB844",
"tX c #E0B35E",
"yX c #C59374",
"uX c #D4B069",
"iX c #E4B66E",
"pX c #F1C24D",
"aX c #ECC353",
"sX c #F2C651",
"dX c #F5CA55",
"fX c #F7CE59",
"gX c #2E3483",
"hX c #2D3D84",
"jX c #303788",
"kX c #323B93",
"lX c #3A4786",
"zX c #5F7083",
"xX c #198893",
"cX c #229198",
"vX c #6A8888",
"bX c #9B9587",
"nX c #92948E",
"mX c #AB9D88",
"MX c #B3AB92",
"NX c #A2B1AD",
"BX c #C49882",
"VX c #D4B18F",
"CX c #E4B691",
"ZX c #DCBAA3",
"AX c #EDC595",
"SX c #D6C1AE",
"DX c #EFCEB2",
"FX c #BCCBC7",
"GX c #D9D7CA",
/* pixels */
"E.E.T.T.Y.T.W.W.E.T.Y.Z.C.Z.T.U.U.C.C.D.F.G.~.`.#Xi.4X+X$X$X$X$X%X`.[.`._.].~.F.c.c.Y.Y.C.b.C.b.x.x.z.c.Z.C.c.C.T.T.Y.C.x.c.U.Y.",
"T.T.Y.Y.Y.T.E.E.Y.C.Z.C.C.Y.C.C.C.V.D.L.L.I.I.`.#X%X%X4X%X%X%X%X4X5X%X[.`.`.I.L.S.V.Z.T.U.b.C.v.x.x.x.c.C.C.b.C.Y.Y.C.C.c.v.U.Y.",
"U.U.v.m.Y.T.U.C.b.b.C.C.C.C.C.c.c.A.L.I.#X#X#X%X5XwX,X,X,X,X,X,XeXrXeX,X*X#Xi.P.B.Z.Z.Y.U.U.v.x.x.c.V.V.C.U.C.U.T.Y.C.b.v.b.C.U.",
"U.U.b.C.Y.T.C.b.b.b.C.C.C.C.b.V.A.J.`.#X*X*X,XwXeXrXwX3X3X3X3XrXdXdXsXrX,X&Xp.#XI.B.F.C.Y.C.c.x.x.c.C.Z.Z.U.b.U.Z.Y.b.c.b.b.b.m.",
"m.U.T.T.E.T.Z.C.C.C.C.Y.C.V.D.S.S.`.#X,X,X3XrXaXsXdXsXsXsXsXpXsXdXfXfXsX3X<X&X&Xi.P.S.Z.Y.U.v.x.x.v.Z.C.C.b.v.v.b.U.C.b.C.m.b.b.",
"U.Y.W.W.Y.Y.Y.C.C.C.U.C.C.C.S.L.I.#X-X1X3XrXsXdXfXfXsXsXdXdXsXsXdXfXfXdXpX3X:X&Xp.U J.G.Z.C.b.x.x.b.C.Z.U.C.v.v.m.b.b.U.U.b.b.v.",
"T.E.W.E.C.C.C.C.U.b.b.v.c.V.S.P.#X&X:X2X2X2XrXpXaXsXpXpXpXpXpXpXpXpXpXpXpX3X1X;Xs.w.U B.G.U.b.v.b.C.Y.Y.C.C.U.T.U.U.C.b.C.C.b.v.",
"T.E.Q.W.C.C.c.C.U.U.b.v.c.V.H.P.w.&X-X:X:X<X<X3X3XrX3XrXrXrXpXpXrXrXpX3X3X3X<X:X=Xt.w.U G.Y.C.C.C.C.T.E.Y.Y.E.W.T.U.C.v.b.C.c.b.",
"Z.T.W.E.C.C.c.C.C.U.T.C.v.c.H.U w.e.=X=X=X=X-X;X:X:X2X2XrXrXrXrX3X3X2X2X1X:X:X=X:X=Xq.U B.!.E.E.U.Y.Y.Y.T.W.Q.Q.W.Y.b.c.v.v.c.c.",
"C.Y.W.E.Z.C.c.C.Z.T.E.T.C.c.N.U H 8.e.r.y.y.=X-X=X=X:X1X<X2X2X2X2X1X1X1X:X;Xd.d.=Xd.q.w.P.!.Q.E.Y.C.T.Y.E.W.Q.Q.W.Y.Z.Z.C.C.v.c.",
"b.C.W.Q.C.b.c.b.T.Q.W.W.E.Z.H.I H 7.7.0.0.e.;X<X-X=X:X:X=X>X<X2X1X:X1X:X;Xd.d.r.=Xy.0.9.P.G.E.E.Y.Y.T.T.T.T.E.T.Y.Y.E.E.Y.U.c.x.",
"c.C.E.E.Z.Z.b.C.E.W.Q.W.E.G.H.P G l 7.0.8.e.-X<Xf.f.-X-Xs.a.-X:X:X:X:X:Xd.d.q.r.r.e.8.H U G.G.E.Y.C.T.T.Y.Y.Y.C.Z.C.E.E.Y.Z.v.x.",
"C.C.Y.Y.E.E.Y.E.E.E.E.Y.Y.D.B.P f j 0.e.0.e.&X-Xp.e.=X&X0.i.s.=X=X=X=Xd.y.r.r.q.r.0.l H P B.E.E.C.U.T.Y.U.C.Y.C.c.V.C.Z.V.c.b.b.",
"C.C.C.Z.Y.E.E.E.E.Y.Y.C.C.Z.G.P G H e.t.9.0.p.a.0.0.p.p.9.7.q.e.r.r.e.q.r.q.q.q.q.8.j G I G.G.E.Y.C.U.C.b.C.Y.Z.c.x.C.C.c.c.C.C.",
"Y.U.U.Z.U.Y.Z.Y.C.C.C.C.Z.Z.E.G.P _ t.r.9.J 7.7.l 7.u.8.l l 6.6.7.7.8.8.q.q.q.q.8.7.f f U G.Q.E.Y.U.C.b.c.b.T.Z.c.c.C.C.Z.C.C.C.",
"U.Y.Y.U.C.C.C.C.c.c.c.c.C.E.Q.!.J.`.i.a.u.J l l l l 6.6.l j j j j l H 7.8.q.q.0.7.J f G I E.Z.Z.Y.Y.b.v.x.v.U.Y.C.V.C.C.C.C.C.C.",
"C.U.Y.C.v.c.b.C.C.b.c.V.C.T.T.!.L.) w.u.Q Q v c c v v 6.v c g g g j k l 7.8.q.8.J k G G H.F.C.U.U.U.b.c.x.v.Y.T.Z.Y.Y.U.U.U.U.Y.",
"U.C.Y.C.c.c.C.U.C.C.b.b.C.Y.T.R.G.P._ _ h.h.g.Q Q ;.Q 6.Q Q x c Q Q W l l 7.8.7.k h G K N.D.b.b.Y.U.b.c.v.b.C.Y.Y.Y.Y.C.U.U.U.Y.",
"Y.Z.U.b.x.c.Y.Y.C.C.b.C.C.C.T.T.R.J.) ,.k.k.9X9Xh.g.;.;.4.5.h.j.9Xk.g.W j j J k j f G L N.C.C.C.Y.Y.C.b.C.U.C.U.C.C.C.Z.C.C.U.Y.",
"T.Y.Y.C.c.V.Y.T.C.b.C.C.c.b.Y.Y.Z.S.!  X9XBXVXVXk.j.;.4.nXNXmXBXVXyXh.W j f j j f G L N.V.V.b.C.Y.Y.C.Z.C.U.U.C.C.C.C.C.U.C.Y.C.",
"E.E.E.T.C.C.T.U.b.c.b.b.x.x.C.C.D.N.J.` k.mXCXZXbX5.3.nXNXGXSXCXCXBXh.Q g g f h K P N.V.V.c.c.b.U.Y.U.C.C.C.U.U.U.v.U.T.T.Y.Y.C.",
"Y.T.E.T.U.U.T.C.v.c.C.b.c.x.Z.Z.V.H.L ` h.BXZXZXmXvXzXnXFXGXDXDXCXyXh.c g s s s K L A.C.C.v.x.v.m.U.Z.C.c.c.C.U.b.m.U.T.E.T.U.U.",
"C.Y.C.C.b.U.C.U.b.C.C.b.x.V.Y.Z.G.L M T k.yXZXZXmXbXnXNXGXGXDXDXCXyXg.c s s * , M L n.C.C.b.x.x.v.v.C.Z.C.c.C.U.b.b.C.Y.T.T.U.v.",
"C.C.b.b.v.v.m.b.C.C.C.C.c.Z.Z.S.L K u -.h.yXVXCXVXBXMXSXDXDXDXCXCXyXg.c g * * : C B N V.D.C.v.v.x.x.C.C.C.C.U.U.U.m.C.C.T.T.U.v.",
"C.C.C.b.x.c.b.C.b.C.c.Z.E.Z.G.L M < u z ;.g.qXiXuXuXuXCXAXAXAXiXqX5Xu.v c g 6 6 - n B l.V.Y.U.b.v.c.C.C.b.C.U.U.U.U.Z.U.Y.U.U.v.",
"C.b.U.b.b.v.b.C.Z.b.c.C.E.Z.N.V < = r u E i.5XwXtXtXtXiXCXiXtXwXqXa.u.v c z 6 6 % - n B N.F.C.U.b.b.b.C.U.C.C.C.U.U.Y.Y.T.Y.m.m.",
"U.m.v.C.C.U.b.Z.C.C.C.V.Z.V.N M < ; r u E i.p.&X>XqXwXtXtXtXqXp.q.u.v c x z t 6 % - = < B L V.C.c.c.b.C.C.b.b.c.v.b.T.E.W.T.U.U.",
"C.C.b.C.U.Y.C.b.C.Z.C.C.C.A.B b - e e a E i.a.a.p.>X>XqXqX>Xp.0.v c c z p t w 4 8 % + - n B l.V.c.b.C.U.U.C.b.c.c.b.Y.E.W.E.Y.U.",
"b.C.C.C.Y.Y.C.c.C.C.C.V.D.l.m < r r e u E J 9.w.p.&X*X&X=Xp.7.h g d t p p i e e 8 % @ . . n N c.c.v.Y.T.T.C.b.c.C.C.C.Z.Q.Q.E.T.",
"Z.C.Y.Z.T.Z.v.c.C.C.C.Z.S.V n - r r w w z k k J i.a.a.a.p.u.g * * : r e e e 0 e 8 % % O   . B l.l.v.U.T.U.C.c.b.U.C.b.C.T.W.E.E.",
"T.T.E.T.Z.C.x.v.Y.Y.Z.V.L M < ; e 0 0 w , t f h x Q i.u.W x p 6 & & 8 e 0 8 8 8 8 8 ; .   . n V l.b.C.C.b.c.c.v.C.C.c.b.C.U.T.T.",
"T.T.Y.Z.C.b.x.b.Y.E.Z.N.M n 9 8 0 0 8 8 9 ; : t z x h.,.E z  .5 + $ 4 0 0 8 8 8 8 8 ; # . . < m l.c.C.b.v.c.c.c.C.b.b.v.b.U.C.Y.",
"E.T.C.C.C.C.c.c.Y.Z.S.N n = - 8 0 0 6 4 $ 1 2 5 7 T j.6X;.-.O.| 2 o 4 8 0 0 8 4 8 8 % % O . = n N n.C.C.b.b.C.b.b.b.c.C.Y.T.Y.C.",
"E.Y.b.b.c.b.x.c.C.F.D.N n - % 4 8 8 8 4 $ 1 5 ' 7 -.6X6X<.1.O.o.3 o 2 8 8 8 % 2 2 % % + + O # = V A.C.U.C.C.C.b.b.c.b.C.Y.Y.C.C.",
"T.C.v.v.v.b.c.c.b.C.A.N n = # % % 8 4 & o 2 ' [ ] %.6XbX<.1.*.O.5 o 1 3 4 % @ + o O 2 2 5 5 1 > F H.D.U.C.v.v.v.C.C.Y.U.b.v.v.b.",
"T.Y.v.v.v.b.v.c.v.b.C.A.m < > - % # @ $ o 2 ' { ] %.j.8X<.1.lX@.5 1 1 3 2 % O o   o 2 5 | | ' q D L D.U.m.b.U.m.C.C.Y.C.v.v.b.b.",
"T.T.v.v.b.b.x.x.v.C.U.D.L K M < #     o 1 5 [ { [ %.j.bX<.1.lXhX| ' 1 1 1 + + o   o 5  .o.+.o...A F N.D.C.U.U.Y.Y.C.Z.C.Z.C.C.C.",
"T.U.C.b.C.C.v.b.b.C.T.G.L.H.K M = X X o 1 5 { { ] %.j.8X<.1.lXhXo.| ' 5 5 3 1 1 O % 5 X.+.+.+.o.A D l.D.C.U.Y.T.Z.C.c.V.C.C.C.Z.",
"b.b.x.v.C.U.C.C.C.Y.T.E.G.L.P K u , * * 6 7 { { [ %.nX8X<.1.lXkX@.o.o.o.X.' 5 3 9 y i  .X.X.X. .q n M.U.C.b.C.m.C.C.C.c.c.b.b.C.",
"c.c.b.C.U.C.C.C.Y.E.E.E.Z.S.) ^ T T T h 6 7 [ { [ %.j.8Xj.<.lXjXhXhXgXgXo.X.5 0 C Z a p i  . . .q C N D.C.v.b.C.U.C.b.c.c.b.C.C.",
"c.Z.Z.Y.C.b.V.C.Y.E.Y.Y.E.L.) ` 4X4Xi.E * 3  .{ ] $.j.mXbXzXlX#.gXgXgXgX+.{ ] e m B R R u p p a q =.F H.n.b.C.Y.T.C.c.c.C.Z.Y.E.",
"b.Z.Y.E.C.C.Z.C.Y.Y.Z.Z.T.B.) 4X0XuX%XE d 6 [ { 7 $.j.mXVXbX2.+.gXgXgXgX+.o.] w m V Y ;._ -.-.&.=.=.=.! n.b.C.Y.E.Y.V.C.C.Y.E.W.",
"C.Z.Y.E.E.E.Y.C.U.Y.Y.Y.Z.H.) 4XuXeX4Xi.x 6 ] [ 7 a 4.mXMXMX2.#.@.gX@.+.+.X.7 r m V ! ,.7XmX@XcXxXxX}.{.M.n.V.U.E.E.Z.C.Y.E.E.E.",
"T.Y.Y.Y.E.E.Y.U.b.C.U.Z.Z.S.) $XeXeXi.E z 6 ] [ 7 ..<.nXNXMX3.&.@.gXgX+.+.o.' w m B T ,.0XVXbXvXcXcXcX{.M.A.v.m.T.E.Y.Z.E.T.T.Y.",
"E.W.E.E.T.Y.C.b.v.v.T.T.E.B.P._ *Xh.W h t ] [ { ] ..1.5.mXbX5.2.hXjXjXgX+.o.] w m B Y Q 9XMX7X@XcXcX}.|.^.U.b.v.C.C.C.b.Z.Z.U.Y.",
"W.W.W.E.T.C.b.c.v.m.T.T.!.G.B.) i.i.G t 7 [ { [ ]  .O.2.vXnX5.3.*.gXjXjXgXo.] w m m Z ;.4X9X7X@XcX}.|._.K.C.v.v.b.C.c.b.b.C.C.Z.",
"U.T.E.E.Y.b.x.x.b.U.Y.Y.Y.G.L./.).^ z r  .[ { ] 5 5  .1.3.3.4.3.O.+.kXkXgXo.[ r M B Y T _ h.h.h.|.|.(.K.R.U.v.v.b.U.C.C.C.C.Y.Y.",
"U.U.E.T.m.v.z.x.C.T.Z.C.C.Z.L././.^ R T  . .] 7 3 3 q } O.1.1.-...X.gXkX+.X.] p D ~ ~ ^ ( _ _ '.'.(.~.R.Y.U.m.v.b.C.C.C.U.U.U.C.",
"U.U.U.U.C.b.x.x.b.T.C.C.C.Y.K.L.].'.` ^ a i r 0 3 2 3 5 5  ...p 7 [ +.+.o. .5 p R ^ :.` '.'.'./.J.K.F.Y.U.C.C.C.U.C.U.Y.T.U.m.b.",
"U.U.U.U.C.b.x.v.b.C.U.C.D.R.L.(._.oXOX:.A r r q 3 2 $ 2 1 2 e e 3 5 [ { ] 7 5 r R ( :.oXOX'.]._.K.D.U.Y.C.b.b.C.C.Y.Y.T.Y.U.C.b.",
"U.U.T.U.Y.C.v.x.b.C.C.Z.~.(._.'.XXoX X:.A y i i e 4 8 & o @ ; : $ $ 5 3 3 2 2 w R :. X.XOXoX].(.L.R.R.Y.C.C.c.C.U.Y.Y.U.U.m.Y.U.",
"m.m.T.T.T.C.C.b.b.C.C.F.~._.).XX XOXOX^ C w a  .e 8 e & # # y > X o $ $ @ @ # - D ^ ` .XOXoX].].(.R.R.U.C.C.b.C.T.T.Y.Z.m.m.T.T.",
"v.U.E.E.Y.C.b.C.U.T.m.D.(.).XX X.XOXOX:.C < y q 0 ; % ; > y Z u & o & 4 % % @ ; y S / >..X.X.X)._.K.A.c.b.C.Z.T.W.Q.T.Z.T.U.T.T.",
"v.U.Y.T.U.b.C.U.T.T.U.D.(.).XX X X X X:.C - r q 8 4 @ ; y D R A & @ 4 6 4 4 % # # < ~ >. X.XXXXX).(.D.c.c.b.Y.E.Q.W.Y.Y.U.T.U.Y.",
"U.C.Z.C.v.c.Z.T.W.W.U.R.(.).XX X X X X~ y - 0 0 0 4 O # C R ~ R > & e e 8 4 % # . > ~  X X.X.XXX)._.G.D.c.c.R.E.Y.Y.Y.Y.U.U.U.U.",
"T.Y.C.b.b.v.U.Y.T.W.U.K.(._.XX X:.:.:.D > ; 8 8 8 % O - S R R R y w e 0 8 ; % @   - ~  X.X.X.XXX].(.!.Y.v.b.Y.E.Z.Y.T.T.Y.C.m.b.",
"W.E.C.C.C.C.v.m.U.T.T.!.(._.XX:.:.~ A y 8 8 8 8 8 4 O - u R Z y w e e 8 4 % O O X < ~ .X.X.X.XXX].(.L.Y.b.b.T.E.T.T.E.T.Z.C.b.c.",
"W.E.C.C.C.U.v.v.m.U.W.!.(._.). X:.D y 0 8 8 4 8 4 % @ ; A Y < > e e 8 % & # # # - Z /  X.X.XoXXX].(.!.U.m.C.T.W.E.E.E.Y.Y.C.C.b.",
"T.Z.c.C.C.C.C.b.m.Y.W.~.~._.XX/ ~ Z y r 0 8 8 % 4 % % ; S S < & : ; & @ # - > < A ~ )..X X.XXXXX].(.!.Y.C.U.T.E.Y.Y.T.Y.Y.U.C.b.",
"Y.C.C.C.C.Y.C.C.U.Y.W.Q.~.(._.).Y Z a r 0 8 ; % % % & > S R y < < > w > > < Z ~ ^ :. X.XXX'.XX_.(.(.!.T.m.b.T.T.Z.C.Z.T.T.Z.C.C.",
"Y.Y.C.C.Y.U.C.C.C.C.Y.E.!.~.(._.! R u y - - - - # - > < R ^ R R R R R R R ~ ^ ` .X.XXX.XoX].].(.L.F.R.U.v.C.Y.T.U.U.C.Y.E.T.V.x.",
"C.U.C.C.U.U.C.b.b.b.C.Z.T.E.~.L./.! D n C y < < < < C Y ( >.:.( ^ :.^ :.( :.XXoXoX].].]._._.L.K.F.V.C.C.v.v.C.C.v.b.b.U.E.E.Z.c.",
"v.b.U.U.C.b.v.c.v.c.v.b.b.U.!.!.G.K.^.! / ! ^ ~ ~ ~ ^ :.` OX>.>.>.>..X.XOXoX].].].]._.(.K.K.n.x.c.z.x.z.v.v.v.b.b.C.b.C.Y.T.C.C.",
"x.v.C.Y.C.v.c.x.x.x.z.v.b.U.Y.R.R.L.(._.].]. X X X>. X.XOXOX.X X.XOXOXOXOXOX[.[.]._.(.K.n.x.l.z.x.z.z.z.z.z.x.v.b.b.b.b.U.Y.Y.T."
};
