/* XPM */
static char *out[] = {
/* columns rows colors chars-per-pixel */
"50 50 248 2 ",
"   c #0E1416",
".  c #041319",
"X  c #152B1E",
"o  c #1A3A1B",
"O  c #243D1E",
"+  c #091C23",
"@  c #08212C",
"#  c #17282C",
"$  c #193423",
"%  c #193727",
"&  c #1B3B2B",
"*  c #062837",
"=  c #192C33",
"-  c #1B3C34",
";  c #1A3B39",
":  c #243C27",
">  c #232E31",
",  c #243B37",
"<  c #27481A",
"1  c #2E5219",
"2  c #3A5A1B",
"3  c #3B6419",
"4  c #1D4429",
"5  c #1A443A",
"6  c #234324",
"7  c #2B4224",
"8  c #2C4A23",
"9  c #2B442D",
"0  c #264828",
"q  c #35492A",
"w  c #2B5326",
"e  c #385627",
"r  c #284738",
"t  c #364935",
"y  c #3C4C33",
"u  c #324B3C",
"i  c #275736",
"p  c #3A5538",
"a  c #3C632A",
"s  c #3C6637",
"d  c #46691C",
"f  c #526E1E",
"g  c #4F741C",
"h  c #53771C",
"j  c #435C2A",
"k  c #40483A",
"l  c #455839",
"z  c #476627",
"x  c #506E2C",
"c  c #4A7429",
"v  c #577926",
"b  c #476438",
"n  c #556939",
"m  c #497738",
"M  c #5A7837",
"N  c #647A3B",
"B  c #083345",
"V  c #193846",
"C  c #093E54",
"Z  c #283D44",
"A  c #313E42",
"S  c #1B4A43",
"D  c #124A54",
"F  c #254942",
"G  c #2B4B44",
"H  c #2B4849",
"J  c #354D47",
"K  c #28534A",
"L  c #385645",
"P  c #34534B",
"I  c #3B554C",
"U  c #3B5B4B",
"Y  c #2C4F54",
"T  c #3A5554",
"R  c #3D5B50",
"E  c #3A6B4B",
"W  c #3B6756",
"Q  c #0B4E6A",
"!  c #095777",
"~  c #29596A",
"^  c #306774",
"/  c #465844",
"(  c #425B4D",
")  c #4A5E4C",
"_  c #52584B",
"`  c #425C51",
"'  c #475957",
"]  c #486446",
"[  c #4D644C",
"{  c #52634C",
"}  c #576948",
"|  c #477646",
" . c #5B7748",
".. c #456254",
"X. c #4B6354",
"o. c #4B6857",
"O. c #4C6A5C",
"+. c #546555",
"@. c #536A55",
"#. c #596955",
"$. c #546B5B",
"%. c #5B6D5C",
"&. c #4B7358",
"*. c #597456",
"=. c #5C725D",
"-. c #616A4A",
";. c #647649",
":. c #636B58",
">. c #63735C",
",. c #697759",
"<. c #757D59",
"1. c #425D66",
"2. c #556D64",
"3. c #5D7463",
"4. c #597969",
"5. c #4E6F70",
"6. c #606C62",
"7. c #647563",
"8. c #657A64",
"9. c #6C7B64",
"0. c #657868",
"q. c #6B7D6B",
"w. c #727D64",
"e. c #7A7B67",
"r. c #717E6B",
"t. c #677B75",
"y. c #877E6B",
"u. c #5B851B",
"i. c #638C1B",
"p. c #6D991D",
"a. c #5C8529",
"s. c #5B8634",
"d. c #648927",
"f. c #689528",
"g. c #6F962D",
"h. c #678737",
"j. c #779435",
"k. c #78A526",
"l. c #57874B",
"z. c #588859",
"x. c #668449",
"c. c #73904B",
"v. c #628655",
"b. c #78865A",
"n. c #5A8C6F",
"m. c #6B826A",
"M. c #75836B",
"N. c #7A8768",
"B. c #7A846C",
"V. c #6F976E",
"C. c #668375",
"Z. c #6C8373",
"A. c #728573",
"S. c #768975",
"D. c #778977",
"F. c #7C8A74",
"G. c #7B8C7A",
"H. c #7B9479",
"J. c #75A474",
"K. c #84B11A",
"L. c #8DB52D",
"P. c #828C57",
"I. c #83876B",
"U. c #89936D",
"Y. c #838C74",
"T. c #898874",
"R. c #8C8B75",
"E. c #838E7A",
"W. c #968D78",
"Q. c #899476",
"!. c #84927C",
"~. c #8B947C",
"^. c #94947B",
"/. c #98967B",
"(. c #A2957B",
"). c #95A17D",
"_. c #025E85",
"`. c #046B95",
"'. c #026B98",
"]. c #33718C",
"[. c #0378AA",
"{. c #497586",
"}. c #677D83",
"|. c #328A90",
" X c #0284BB",
".X c #1E89B7",
"XX c #718B8C",
"oX c #6D9F9C",
"OX c #4A90AD",
"+X c #038BC5",
"@X c #0896D2",
"#X c #0298D8",
"$X c #36A2D1",
"%X c #00A5EA",
"&X c #1BAAE7",
"*X c #00ABF3",
"=X c #03AEF7",
"-X c #01B2FE",
";X c #0CB4FC",
":X c #17B8FD",
">X c #34B4EA",
",X c #24BDFF",
"<X c #4EA8CF",
"1X c #68B2D3",
"2X c #4BB8E7",
"3X c #37C2FE",
"4X c #50CDCE",
"5X c #47C6FD",
"6X c #5ACCFD",
"7X c #6AC7EF",
"8X c #65CCF8",
"9X c #68D1FF",
"0X c #79D5FE",
"qX c #859482",
"wX c #8A9682",
"eX c #8D9A84",
"rX c #8B998A",
"tX c #949B84",
"yX c #9B9C83",
"uX c #979D88",
"iX c #869693",
"pX c #A69D85",
"aX c #99A387",
"sX c #9BA38B",
"dX c #9AA794",
"fX c #A3A48B",
"gX c #A8A78B",
"hX c #A3AB94",
"jX c #ACAD95",
"kX c #A7AD98",
"lX c #B6AB90",
"zX c #A8B196",
"xX c #ABB39C",
"cX c #B2B49C",
"vX c #B9B89C",
"bX c #93ADA9",
"nX c #AFB7A5",
"mX c #B4B9A3",
"MX c #BABCA3",
"NX c #C1B69C",
"BX c #B5C4B3",
"VX c #C3C1AA",
"CX c #98BEC7",
"ZX c #9AC9D6",
"AX c #ADCFCF",
"SX c #83D8FD",
"DX c #ACDAE7",
"FX c #BCE9F4",
/* pixels */
"d e j k : q O 7 4 < 8 q 7 O q : < < < 7 e i.u.1 h K.i.d < < < 0 q e : 7 9 q q : e 1 < < 3 1 4 o o 3 ",
"} W.W.W.W.R.N.k ..j I.I.e.:.,.6.:.: j e.b.d.a. .s.p.g ,.l 2 b T.I.I.9.k Y.M.r.7.#.< 1 ] l @.[ U 0 1 ",
"I.pXpXgXfXhXyX/ z -.pXpXW.W.R.y.y., l /.^.;.~.Y.N. .>.~.M.y M./.U.I.w.9.~.I.B.r.q.9 ] m.*.8.%.o.U , ",
"I.gXlXvXlXjXyX{ M -.pXpX(./.W.T.y.y / /.^.N.E.B.M.8.F.F.m.9 >.Y.N.U.Y.B.9.r.A.r.7.9 4.v.eX#.o.` G 4 ",
",./.cXcXxXkXsX{ f n pXpXR.T.T.-.k t { yXyXI.q / { / l =.I 6 : ) ~.Y.B.B.:.r.7.7.+.: m S.m.=.o.J S i ",
"-.T.cXnXxXxXsX*.h i.q : : q q q e e l N.Q.F.m.Q.Q.F.F.S.m.q ] wXB.B.M.q.#.+.,.r.u 7 x.>.o...( 5 - | ",
"} cXkXnXkXhXdX+.n MXNXvXNXMXvXzX<.M  .I.I.N.b.Y.F.S.G.A.0.r #.M.9.9.q.>.M.q.7.3...8 a.N.X.L L &.l.c.",
"/ qXwXwXG.9.) t n VXMXMXmXMXvXBX#.z n M.M.9.D.S.S.F.D.A.4.u J q.q.8.3.8.9.7.%.+.O.: c c.c.;.M s.i.g.",
"2 e : k O 2 2 2 N NXNXBXBXmXcXxX#.z } r.r.$.r.q.9.Z.m.C.4.F 4 F ' U u +./ ( L L G & ,.jXyX^.Y.+. .h.",
"h P.y.y.y.y.y.n N NXvXvXnXnXmXzX[ b / [ ( : 9 9 9 i 5 r K i % & & $ o : X X > % 5 0 w.jXfXtXeXD.G.p ",
"N NX(.(.(.W.W.-.n xXzXxXxXxXxXkX/ z h.p j M h.i.i.v z n n M M  .n j d d z j j j 2 d N.aXsXrXwXG.2.u ",
"N NX(.(.W.W.y.k l dXsXsXuXhXhXqXi z j.j.k.P.j.j.j.i.U.NXjXcXgXMXgX:.d y.lXpX(.pX_ d <.tXuXeX!.S.S.r ",
"-.pX(.W.tXW.y.t e / l _ ) / y u r z vXlXlXgXgXgXVX, pXmXmXcXBXAXAXbXXXbXnXyXT.y.{ 2 -.rXwXD.H.S.Z.u ",
"l pXW.wXwXy.e.k 2 z l l y k y 8 2 n VXvXgXfXpXyXyX( r.AXFXFXFXFXDXCXoXXX}.}.}.qX:.j ] ( L [ ' ( U r ",
"k y.y.T.T.T.+.k n cXvXlXyXjXaX*.2 M MXjXfXsXfXsXdXCXDXDXDXZXZXZX1.V C _.].{.~ Z XXH.N j k q q q w a ",
"_ _ _ _ _ / t O n lXgXpXjXgXaX<.2 x xXxXhXdXdXiXAXDXbX~ Z H H , B  X%X,X2XSX8X<XQ }.ZXmXuXT.e.r.9.9 ",
"k M n l l n f h M Q.^.jXzXdXaXN.d l hXhXhX0.Z A A Z Q .X<X1X1X].B _.#X>X6XSX0X6X;XQ 5.CXiXy.+.6.%.G ",
"v /.NXgXgXpXY.j } / cXzXhXaXaXA.q l rXrXt.Y 2X@X.  X;X,X9X0X0X9X&XB . * OX0X8X,X-X,X].T bXr./ ' ) r ",
"<.NXpX/./.~.>.e Y.fXS.dXsXeXqXH.r q.G J , OX9X>X@ %X=X5X0XSX0X9X:X*X!     OX6X;X=X:X5XOX> }.6.2.I # ",
":.gXyXtXtX~.9.y tXfXsXqXaXqX9.u 9 v.bX, ~ 7X0X5X@ +X>X9X0XSX0X9X,X-X5XOX  + &X=X;X,X6X0X1XY > 5.O.S ",
"-.pXtXrXwXG.%.( X.3.J : =.L L r s x./ + .X6X8XOX  ! 8X0XSX0X9X6X:X:X6X7XZ   '.=X5X9X0X0X8X>X[.B = > ",
"} w.rXwXH.G.$.l *.s 9 z e 9 i p a.h.<.( * ~ ~ *  XB OXSX0X9X5X:X;X>X9X0X{.> * #X2X0XSX0X6X;X#X! = l ",
"j / #.>.,.3.( z g.c.c.d.g x N b.U.lX).J _.[.C ! [. XD {.OX>X;X-X,X6X0X0XOXA 5.D <X7XSX7X$X! V 2.M.N ",
"f z g d g.m x.g.K.K.c.c.x.U.MXfXfX/.^.H +X X~ 4X|.[.#X`.Q D '.+X>X7X7X8XOXZ DX}.Z ^ 5.Y = A iXT.Y.w.",
"x gXU.v c.j.h.h.L.k.).aXgX,.gXfXyXaXwXZ @X X^ <X4XB %X*X%X XQ * B V ~ ^ ! # DXAXV.H.XXiXqX%.S.!.G.6.",
"9.uXeXU.n zXzXV.b gXgXaXaXm.#.aX/.yXeXH  X%XD |.!  X=X-X-X=X%X#X+X+X+X`.@   bXh.d.f.m.!.G.eXG.S.A.=.",
"{ E.M.] 3.dXrX{ 9.zXaXaXb.M.^.U./.~.!.I `.*X[.[.%X-X-X-X-X-X-X-X-X-X%XQ 5.XXiXT.R.,.l @.7.qXS.A.Z.] ",
"p G.F.M.p l m.Q.9.S.b.H.,.sX/.^.,.!.F.3.D *X=X=X;X-X=X-X-X-X-X-X-X-X#X* iXdXrXqXB.%.&.o.3.G.m.m.Z.U ",
"t ( U u : ,.^.Q.M.N.zXgXgXQ.~.U.N.w.9.{ A [.-X=X=X@X[.-X-X;X:X-X-X=X_.' iXqXG.S.A.X.z c. .*.4.@.R b ",
"j 1 w l c b.T.T.M.xXzXgXsXaXE.I.M.9.p M.t.B #X#X'.B &X;X-X-X3X-X=X+XV XXqXH.A.q.@.u d a.g.c.h.x.h.a.",
"n fXW.Q.U.} M.M.} [ aXsXaXqXF.m.9.>.3.7.%.' + * Q $X8X5X-X-X-X-X@XB 1.2.3.=.] ] p e N gXsX~.F.!.dX( ",
"{ ^.R.yXB.l w.,.H.!.*.qXqXH.A.8.#.$.U # - } T . [.2X0X5X-X=X%X'.= =.z 2 g k.L.v u.u.~.~.~.Y.D.M.A.J ",
"w.yXB.:.[ e y A.A.w.7.[ S.m.m.$.L & ; o o < e t.A # V Q Q C Y 5.q.hX^.U.N.;.b.v.*.z w.qXE.D.A.m.Z.P ",
",.T.T.E.9.8 e 3.q.7.$.) ( L , & o < 2 g u.v e.R.R.r.:.+.3.t.7.z qXF.M.q.9.#.qX3.+.: 9.H.G.A.Z.Z.C.P ",
"7.Y.F.F.9.y d U $.o.P r X o : y  .x.;.x.a.b.W.;.e.w.6.:.+.+.o.u 7.r.9.7.=.( U @.( : 2.D.S.Z.Z.Z.S.P ",
":.B.S.A.*.l M w ; & $ o 1 j Q.hX/.aX^.~.j } W.F.,.>.:.+.' ( u : ..7.=.@...7...W L % u ` O.O.O.P r K ",
") 7.t.m.} a.i.h 8 8 z g u.b.jX^.!.E.D.r.q { Y.7.:.%.+.+.' ) G $ p o.o.q.2.X.E ..G % 1 2 y y u 9 4 4 ",
"e y l b M d.P.aXaXtX~.,.v ;.~.!.G.G.A.8.9 ] q.:.%.+.( o.o...T & 7 U 4.O.X.R W K F & m  .8.$.) W L 0 ",
" .fXeX!.F.b yXyXyXtXtXuX9 n !.F.A.Z.Z.q.9 l 3.$.X.` ( , T P G 5 m E o.O.R T K S 5 i l.] o.X.R P P - ",
"r.qXA.0.*.p tX~.~.E.qXG.: ] S.A.Z.m.C.&.p e R ..( I J G ; G K K V.XX&.W P P K S E s. .@.( R P H F & ",
"U 0.3.2.( y qXH.E.G.S.Z.: q X...2.$.O.U w b 5 U T K G S % w 5 i l.V.V.n.W E m z.oXs.&.O.r K G F i w ",
"0 U U U ] ] !.G.G.G.Z.C.: c 1 7 : 6 9 & 3 h % 5 S K 5 4 i 3 s c f.V.z.s.s.d.k.c n.l.p 0 1 e 4 i a a.",
"d v h.v a.v H.A.Z.Z.C.C.& ;.sX~.E.M.9.3.X.e m 0 4 o w c u.m ).Q.H.*.!.!.H.,.*.@.E w v h.h.a.c x v a.",
">.~.dX!.b z 0.3.o.C.4.P - M.B.9.=.@.X...R 9 z.,.m.N.m.] v v.!.M.,.] 8.8.*...( I K % =.M.M.,.A.Z.8.u ",
">.aXr.7.] 1 : r r E W S 5 ,.r.%.+.' ( T P % } Y.H.S.A.X.w l 7.:.%.%.@.@.` ( I H K % #.m.0.$.O.) ` ; ",
"] F.7.%.L 8.b m n.E K m c / 7.X.` ` I P H & [ G.D.S.A.O.8 u %.%.+...u I I J P K S 4 #.0.$.X.` R P r ",
"p ) %.X.0.=.[ E E z.BXn.m  .%.( I P G H F - ] S.A.m.Z.R q b p X.' J G G P H K K & s / X.` R I P K 5 ",
") $.u m.$.' R U L &.oXXXE @.O.R P G G F , % [ XXZ.C.t.U w L o.U H F r , K S K S E *...( R T P J K 5 ",
"w p a O.R P P K E z.J.n.z.s 4 S 5 5 5 r p w C.O.O.2.O.K m J F F , ; S S ; i i s oXl.i i 5 F F r K 5 ",
"u.d.a 0 W 5.5.E l.s.f.l.J.c < 4 % & o % 0 z l.5...R R E v a % % $ % % & 4 i.p.f.m l.3 4 4 0 o 4 w a "
};
