/* XPM */
static char *out[] = {
/* columns rows colors chars-per-pixel */
"64 64 244 2 ",
"   c #080B0B",
".  c #0E140D",
"X  c #0B0C13",
"o  c #0D0C1A",
"O  c #0D1212",
"+  c #0E101E",
"@  c #121915",
"#  c #11141B",
"$  c #151B1D",
"%  c #191E1F",
"&  c #1A2617",
"*  c #1A241B",
"=  c #1C3013",
"-  c #242C1C",
";  c #3A271B",
":  c #2E3815",
">  c #25391A",
",  c #110E23",
"<  c #161727",
"1  c #1A1E22",
"2  c #13132B",
"3  c #1A1837",
"4  c #271B28",
"5  c #221A37",
"6  c #1C2224",
"7  c #1F2A25",
"8  c #1F2529",
"9  c #262A27",
"0  c #21262B",
"q  c #352928",
"w  c #2A3826",
"e  c #343A29",
"r  c #282735",
"t  c #2F2F35",
"y  c #353737",
"u  c #57290D",
"i  c #4C320E",
"p  c #582A15",
"a  c #573613",
"s  c #693311",
"d  c #6A3817",
"f  c #743C15",
"g  c #4A332D",
"h  c #593426",
"j  c #473737",
"k  c #673825",
"l  c #773C27",
"z  c #2A4518",
"x  c #2C5513",
"c  c #305311",
"v  c #365A1A",
"b  c #33650E",
"n  c #397A0C",
"m  c #386718",
"M  c #3C7614",
"N  c #384929",
"B  c #3C5825",
"V  c #384533",
"C  c #3D5031",
"Z  c #3E6626",
"A  c #4E4B12",
"S  c #6C4F12",
"D  c #794215",
"F  c #477607",
"G  c #4F6D14",
"H  c #467915",
"J  c #707218",
"K  c #41532E",
"L  c #52532F",
"P  c #454834",
"I  c #445433",
"U  c #475A33",
"Y  c #784327",
"T  c #714A2C",
"R  c #694A37",
"E  c #457228",
"W  c #556B3A",
"Q  c #556B3B",
"!  c #5A733C",
"~  c #5A783C",
"^  c #677926",
"/  c #777924",
"(  c #71712F",
")  c #1C1C46",
"_  c #1F1F52",
"`  c #241D48",
"'  c #1F2558",
"]  c #282549",
"[  c #362D48",
"{  c #292758",
"}  c #312A5B",
"|  c #3B335B",
" . c #292864",
".. c #2B3070",
"X. c #2C337A",
"o. c #34367A",
"O. c #463B50",
"+. c #3C595D",
"@. c #27756A",
"#. c #494356",
"$. c #515053",
"%. c #755847",
"&. c #6C5853",
"*. c #556F45",
"=. c #627E43",
"-. c #4C4B65",
";. c #574D69",
":. c #43447C",
">. c #49746F",
",. c #726967",
"<. c #716E71",
"1. c #854916",
"2. c #924E17",
"3. c #8C551A",
"4. c #985719",
"5. c #A75C19",
"6. c #826F17",
"7. c #9D641D",
"8. c #AB671C",
"9. c #B36A1D",
"0. c #B8731E",
"q. c #865626",
"w. c #8E5431",
"e. c #986826",
"r. c #88712E",
"t. c #987526",
"y. c #A77826",
"u. c #AC712C",
"i. c #B77A24",
"p. c #C37B1F",
"a. c #C27D21",
"s. c #875C47",
"d. c #9A5F47",
"f. c #916D50",
"g. c #8E786B",
"h. c #A57E67",
"j. c #288C00",
"k. c #3B8808",
"l. c #2E9600",
"z. c #369400",
"x. c #3B9600",
"c. c #369B00",
"v. c #3D9A00",
"b. c #3C970A",
"n. c #3E8610",
"m. c #3EA000",
"M. c #438D06",
"N. c #468A0B",
"B. c #5C8007",
"V. c #439504",
"C. c #4B9405",
"Z. c #439D00",
"A. c #499E02",
"S. c #48940B",
"D. c #45990B",
"F. c #4C9C0A",
"G. c #559B09",
"H. c #498614",
"J. c #588817",
"K. c #4B9417",
"L. c #4D9A13",
"P. c #559818",
"I. c #668E13",
"U. c #45A100",
"Y. c #4BA401",
"T. c #4EA801",
"R. c #4DA209",
"E. c #51A601",
"W. c #53A901",
"Q. c #58AA04",
"!. c #58A215",
"~. c #65A61F",
"^. c #4D8E2E",
"/. c #579624",
"(. c #5C922C",
"). c #5E8837",
"_. c #5E9433",
"`. c #6B8C29",
"'. c #759423",
"]. c #63863D",
"[. c #638C3C",
"{. c #669639",
"}. c #5EA021",
"|. c #6DA330",
" X c #328963",
".X c #658444",
"XX c #698646",
"oX c #658943",
"OX c #6B8A46",
"+X c #6B9241",
"@X c #709144",
"#X c #8E8C33",
"$X c #B48C30",
"%X c #A3913C",
"&X c #C98826",
"*X c #D99929",
"=X c #CC9230",
"-X c #D49C36",
";X c #DDA12E",
":X c #CBA23A",
">X c #DAA237",
",X c #E3A42D",
"<X c #E4AA35",
"1X c #EAB33C",
"2X c #EDB83F",
"3X c #8A8841",
"4X c #97825B",
"5X c #AA9349",
"6X c #948276",
"7X c #B18F75",
"8X c #C8954A",
"9X c #D2AC4E",
"0X c #E9B845",
"qX c #F0BE48",
"wX c #C4916F",
"eX c #D8AB72",
"rX c #E3B171",
"tX c #F2C34B",
"yX c #ECC557",
"uX c #F3C956",
"iX c #2F3582",
"pX c #32388B",
"aX c #343C96",
"sX c #3A4689",
"dX c #354199",
"fX c #3640A1",
"gX c #198891",
"hX c #219AA8",
"jX c #689B99",
"kX c #878983",
"lX c #988D85",
"zX c #9E928B",
"xX c #A79888",
"cX c #BD9980",
"vX c #B1A893",
"bX c #9BACA7",
"nX c #C8A887",
"mX c #D3AF8C",
"MX c #CDAB94",
"NX c #DDB79B",
"BX c #E8BA8E",
"VX c #D5C7B6",
"CX c #EECAAA",
"ZX c #E0D6C6",
/* pixels */
"W.T.T.T.E.W.Q.W.E.Y.A.A.A.A.Y.Y.Z.v.v.U.U.R.Q.Q.}.`.( ( #X3X3X3X3X3X3X3X#X|.|.~.F.Z.Y.T.Z.v.v.v.v.z.l.z.Z.Z.V.v.Y.E.A.Z.z.z.U.Y.",
"T.T.U.U.E.E.W.T.Y.Z.Z.Z.Z.A.Z.Z.Z.v.v.Z.R.!.I.~.'.'.r.#X#X%X5X3X%X5X%X%X5X#X'.'.J.N.F.T.U.v.V.x.x.z.z.z.Z.Z.v.Z.Y.T.A.v.x.v.U.U.",
"U.U.v.m.Y.Y.Z.Z.Z.Z.Z.Z.Z.Z.Z.v.x.v.Z.A.I.'.#X#X#X%X5X8X$X9X:X:X:X9X9X9X9X:X%X#X/ J.G.C.Y.Z.x.z.x.x.v.Z.A.Z.v.Z.T.Y.Z.x.x.v.Z.U.",
"U.m.m.m.Y.Y.Z.v.x.x.Z.Z.Z.Z.x.x.v.V.F.B.'.#X$X$X$X:X9X0X0X1X1X0X1X0XyXyXyX0X=X$Xe./ I.G.G.Y.x.z.z.x.Z.Y.U.U.v.U.A.Y.Z.x.v.v.v.U.",
"m.U.U.T.T.T.A.Z.Z.A.U.Z.x.V.x.Z.A.G.P.'.#X:X:X1XyXyXuXuXyXuXtXtXuXuXuXuXuXyX0X:X$Xt./ I.P.C.x.z.z.x.Z.Y.Z.v.c.c.v.U.m.m.v.v.v.Z.",
"U.U.W.W.Y.Y.A.U.A.Z.Z.v.Z.x.x.Z.G.G.'.#X$X;X<X2XyXyXuXuXuXuXuXuXuXuXuXuXuXuXtX>X*X&Xt./ I.K.V.x.z.x.Z.A.U.v.v.c.m.v.Z.U.m.U.v.v.",
"T.T.W.W.A.Z.Z.Z.U.Z.v.c.v.v.Z.Z.E.G.J $X*X,X*X,X2XtXtXtXtXtXtXtXuXtXqXqXtXtX2X1X,X&Xy.t.^ J.M.V.v.v.Y.Y.U.Z.U.Y.U.U.Z.v.m.v.x.x.",
"T.W.Q.W.A.V.v.Z.U.m.c.v.c.v.Z.V.G.B.J #X=X,X*X*X;X>X>X1X1X1X1X0X2XtX1X1X2X2X1X,X*X&X$Xy.J H C.A.v.v.T.T.Y.Y.W.W.T.U.Z.v.c.v.x.x.",
"Z.Y.Q.E.Z.v.V.Z.v.U.U.U.v.x.x.V.C.J J 5.&X&X&X&X&X*X=X*X,X<X<X1X2X1X,X,X,X,X,X*X*Xp.p.0.6.S G.Q.Z.U.T.T.W.W.Q.Q.W.Y.Z.x.v.v.x.x.",
"Z.A.E.E.A.Z.x.x.Z.Y.W.W.Z.Z.Z.V.G.G S 2.7.8.0.0.&X&X&X&X*X,X;X;X,X<X,X,X*X*X*X&Xp.p.&X9.1.S G.Q.U.U.T.T.W.Q.Q.Q.E.Y.A.Z.Z.v.x.z.",
"V.Z.Q.Q.A.v.x.Z.T.W.Q.W.T.A.Z.V.C.F A d 3.4.4.8.-X8X=X&X;X>X&X$X*X,X,X,X*X*X&Xp.0.9.0.8.2.S F G.A.Y.T.W.W.W.E.E.E.A.E.A.Y.U.x.z.",
"x.A.E.W.A.Z.Z.Z.W.W.Q.W.E.Y.Z.V.C.F a a 2.4.2.7.=X;Xi.&X;X-Xi.y.*X,X*X*X*X*Xp.p.9.5.9.5.D S F C.A.Z.Y.T.T.Y.Y.Y.Z.A.E.E.Y.Z.v.z.",
"V.Z.Y.Y.Y.E.Y.T.W.E.T.T.A.U.Y.U.C.F A S 7.8.3.e.i.a.u.u.8X=Xu.8.0.&X&X&X&X&Xp.0.5.5.5.2.u i F M.V.Z.Y.U.Z.Z.Z.Z.V.Z.E.A.v.x.x.v.",
"Z.Z.Z.U.Y.T.E.E.T.Y.A.Z.Z.Z.T.T.V.F A S 7.8.3.3.5.7.q.4.u.u.2.2.7.8.8.8.8.8.0.9.9.5.5.1.u i F V.Z.Z.U.Z.x.Z.Z.Z.x.x.A.A.x.x.v.Z.",
"U.U.Y.U.U.U.Y.Y.Z.Z.Z.Z.v.U.T.E.Z.N.G G t.7.D D D D f D 1.1.s s S D D D 1.2.5.5.5.5.2.D u : F Z.U.Y.U.v.x.v.Y.U.x.z.x.Z.Z.Z.Z.Z.",
"Y.Y.Y.Y.Z.v.Z.Z.v.v.x.v.v.Z.T.E.Z.N.H ^ r.e.q.Y k d k f f s s p s s s s f 1.2.4.5.5.1.s u A F U.Y.U.Z.v.x.v.Y.Y.v.x.Z.Z.Z.Z.U.Z.",
"Z.Z.Y.U.v.v.v.U.U.v.v.v.v.U.T.Y.U.V.S.J.( r.f.s.%.l R l l l k k p h k k k f f 1.2.2.f a A G N.Z.Y.T.v.v.x.x.Y.Y.A.Z.A.A.U.U.U.U.",
"Z.Z.Y.Z.c.c.U.U.U.Z.v.v.v.U.Y.U.Y.Z.D.J.^ r.h.h.f.g.s.s.Y w.w.R %.%.s.s.Y d s d 1.D u a L H S.Z.Y.U.v.z.v.Z.Z.Y.Y.Y.Y.A.U.U.U.Y.",
"A.A.Z.v.z.z.U.Y.U.Z.Z.v.v.Z.Y.T.U.Z.V.S.^ #Xh.7XMXcXg.f.%.s.6XjXg.h.7X7Xw.l p s s s p A H P.D.U.T.Y.v.v.Z.Z.Z.Z.Z.A.Z.Z.v.U.U.U.",
"Y.Y.A.Z.x.v.Y.T.Z.v.v.Z.v.Z.U.U.Z.v.v.N.^ f.4X7XNXNXxXg.&.,.bXbXvXcXMXwXd.l p u u a A G H.L.D.Z.Y.T.Z.Z.Z.A.Z.Z.Z.Z.Z.Z.U.U.U.U.",
"E.E.E.T.U.Y.Y.U.Z.x.v.v.x.z.v.v.x.x.x.M.N.`.g.7XNXNXzXg.,.kXbXZXCXNXmXwXd.k p p a A F J.S.Z.c.v.U.Y.Y.Z.Z.Z.Z.U.v.U.U.Y.Y.T.U.U.",
"Y.E.E.T.Y.U.Y.Z.v.x.Z.v.z.z.v.v.v.x.z.V.H.^ f.7XNXNXvXkX<.lXZXZXCXCXNXwXd.k p p i K H.R.F.v.z.z.Z.U.Y.Y.v.x.U.U.v.v.Z.Y.T.T.U.U.",
"Z.Z.v.Z.m.v.m.m.v.v.Z.x.x.v.Y.Y.Z.v.V.N.H ( 4X7XmXNXMXvXxXvXVXZXCXCXBXwXs.k u i ; v H F.V.v.z.z.z.v.U.Z.v.x.Z.v.v.m.m.U.T.Y.m.m.",
"Z.Z.v.v.v.c.m.v.Z.Z.x.Z.v.U.Y.Y.A.V.k.M G W w.7XeXrXmXnXnXNXCXCXCXBXrXwXw.k ; ; ; z m N.S.D.c.v.z.z.v.v.x.v.Z.Z.v.m.Z.U.T.T.m.v.",
"Z.v.Z.v.z.z.v.v.v.Z.x.Z.Y.T.Y.Y.V.M.M v z e R r.8XeX9XeX9XrXBXBXBXeX8Xd.w.l k ; 9 - z m H.R.Z.v.z.x.v.v.v.Z.U.U.Y.U.Y.Y.Y.U.m.v.",
"Z.U.U.m.v.x.v.v.Z.Z.Z.Z.Y.T.Y.A.D.n.v > 7 q L e.u.8X:X8X9X9XrX0XwX=Xu.4.w.l h g 7 * - z G S.Z.v.v.v.Z.Z.Z.v.v.Z.U.Y.Y.T.T.Y.m.m.",
"U.Z.v.Z.Z.Z.Z.Z.Z.Z.V.Z.Y.Y.Y.F.n.m > & 7 e T e.e.%X%X$X-X8X<X8Xp.e.w.l k h g r 8 6 & = z b k.V.x.Z.Z.Z.Z.v.v.x.v.Z.Y.E.W.W.U.m.",
"v.Z.Z.Z.A.Z.Z.v.A.Z.x.Z.A.Y.T.S.M v = * 7 y S S 3.e.y.$X&X&X&Xi.2.l h h g g j r 8 6 * & & = n M.x.x.Z.Z.Z.v.x.x.x.Z.Z.E.W.W.Y.U.",
"v.Z.Z.A.Y.Y.v.z.Z.Z.Z.V.U.T.E.S.m z 7 8 7 t h Y D 3.t.y.8.8.8.3.u ; ; q 4 q r r 8 6 6 $ O = b j.z.c.U.Y.Y.Z.v.x.Z.A.Z.Z.W.Q.E.T.",
"Z.Z.Z.A.Y.Y.v.c.Z.Z.Z.Z.Y.Y.E.F z 9 9 0 7 9 q h h S 3.q.e.w.q.D g 4 % 4 5 5 r 9 8 6 6 < X @ x n k.z.U.Y.U.m.v.v.Z.Z.x.Z.T.W.E.E.",
"T.T.Y.Y.A.Z.c.c.Y.T.Z.Z.E.E.C.H z * 8 8 8 7 9 9 q ; g T f.f.%.j 5 5 < 6 0 0 0 6 6 6 6 % $ & > b k.v.v.U.v.c.v.v.Z.Z.x.x.Z.A.Y.Y.",
"W.E.Y.Z.A.Z.v.v.T.E.Y.A.W.G.H.b > * 8 8 8 6 8 8 6 0 r $.g.6X,.#.} ] < $ 0 0 8 1 6 6 6 6 6 * = x n v.v.v.c.c.c.v.x.x.x.v.Z.Y.U.Y.",
"W.T.Z.v.Z.x.x.x.Y.Y.Z.Y.W.C.b c = % 8 6 6 $ 6 8 3 ) ] -.6XzX,.#...{ 3 * 6 8 8 6 6 8 6 6 * * & z n b.Z.v.v.v.v.c.v.v.x.Z.Y.E.U.Z.",
"W.Y.v.c.x.x.x.x.Z.Y.A.A.T.V.c = % $ 6 8 6 6 $ < 3 ` ] ;.zXzX,.-.o...2 $ * 6 8 6 6 1 1 < 1 $ & = b b.A.U.m.v.v.v.z.v.v.Z.Y.Y.Z.Z.",
"T.U.c.c.v.x.z.z.v.Z.Z.Y.Y.M.z & # # 6 8 8 6 $ + ) ] } ;.xXxX,.-.:...6 O $ 6 6 $ $ $ O o + , O = x H D.U.m.v.v.v.v.Z.U.U.v.v.v.Z.",
"T.U.v.c.c.v.z.z.v.Z.Z.A.A.N.x = & * * 6 6 6 O < _ {  .;.zXxX,.-.:...3 O + $ $ $ # + + , 2 2 , * x n S.U.v.m.m.m.Z.U.Y.Z.z.z.Z.Z.",
"W.T.U.b.v.v.v.z.v.v.U.U.Z.M.M m x > = * % $ $ 3 ] { } ;.zXxX,.-.dXiX) 2 < + + O o o 2 ) ' ' ) r v H M.Z.Z.Z.T.U.A.Z.Z.v.v.Z.Z.A.",
"T.U.Z.v.Z.Z.v.v.v.Z.Y.Y.Z.V.n.M m m x z z z * 0 {  .} ;.zXxX,.-.sXpX' ) 3 2 + + o , ) _ ....{ ] B n M.Z.Z.Y.U.Y.Z.Z.v.V.Z.Z.Z.Z.",
"v.x.z.v.Z.U.Z.v.U.Y.T.T.T.A.V.S.b.n.n.Z M Z N y }  .} ;.lXxX,.-.sXdXiX .' ) 3 2 , 4 ]  .X.X.{ t B H C.Y.Z.Z.U.m.Z.Z.x.x.V.x.V.Z.",
"x.x.x.x.Z.U.Z.Z.Y.T.T.T.E.T.U.Z.R.D.L././.H.Z V } } } ;.lXlX,.-.:.dXpXiXX. ._ ) < 5 [ | :.:.{ [ B F C.U.Z.Z.v.v.U.Z.Z.x.v.v.V.Z.",
"x.x.Z.A.Z.Z.V.Z.Y.T.Y.T.T.W.E.Y.U.D.R.R.D.n.Z V ] ] ] $.zXxX,.-.o.sXpXiXpXiX .{ 5 5 j &.<.<.| y v H M.Z.x.v.Z.A.Y.Y.V.x.Z.A.Y.Y.",
"v.Z.Y.E.A.Z.Z.Z.Y.T.U.U.Y.T.E.E.U.U.U.R.Z.k.B z ] ` ` O.g.lX,.-.:.dXiXdXaXpXo.} 5 h &.g.lXjX$.C K M k.x.x.x.Z.A.Y.T.Z.Z.Z.Y.E.E.",
"Z.Y.Y.Y.E.E.Y.A.Z.Z.Y.U.U.Y.T.Y.Z.U.v.U.b.n z 0 ` ` ` O.,.<.&.#.sXiXiXdXaXaXo.| j %.h.vXjXjX*.Z m n k.v.x.x.x.Z.E.E.Y.Y.Y.E.Y.Y.",
"E.T.Y.T.W.W.Y.Z.Z.Z.U.Y.U.U.Y.Y.Z.v.v.v.K.M w 0 ` ` 5 r #.;.#.O.X.dXpXpXfXaXiX| j %.xXvXjXjX@.+.Z H k.x.x.x.c.v.Y.E.Y.A.Y.E.Y.Y.",
"Q.W.E.E.E.Y.Z.v.v.v.T.T.T.Y.U.Z.v.Z.Z.V.n.m 7 3 ) ` 2 5 [ } ]  .dXdXfXfXfXaXo.} O.R ,.jXjXhXgX@.E H k.x.m.m.c.c.Z.Z.v.Z.A.A.Y.Y.",
"W.W.W.E.Y.Z.x.x.v.U.Y.T.E.T.Z.Z.x.Z.Z.V.N.Z w ) ` 5 , 2 3 ) ` _ X.dXfXfXfXaXX.} j j $.>.gXgX X X^.^.S.v.T.U.c.c.v.v.x.v.Z.A.Y.Y.",
"Y.T.W.E.Z.v.z.c.Z.U.U.A.Y.Z.v.x.V.x.v.S.K.E t 3 3 3 < # 2 2 , 3 ' iXaXaXpXiX .` 4 q P $.gXgX X X^.K.A.U.T.m.c.c.v.Z.v.Z.Z.A.Y.Y.",
"U.U.T.T.Z.z.z.x.Z.Y.Z.Z.Z.Z.x.x.Z.F.F.!.(.E V r 5 3 < $ < # X + ) ' ..X... ._ r 4 9 P +.@.@. X XK.D.Y.Y.T.U.v.c.v.Z.Z.U.Z.U.Z.U.",
"U.U.U.U.v.v.c.c.Z.Y.Z.v.v.v.v.v.R.!.~.|.{.).N 9 9 0 8 6 $ # X X 2 3 ) ` ] [ [ j V I C $.Q @.^.^.b.U.Y.T.Z.Z.v.x.Z.Y.U.Y.U.U.U.v.",
"v.U.U.U.U.v.z.x.Z.Z.v.Z.Z.Z.v.D.P.}.|.|.+X=.C w 9 0 8 6 6 # O X o , 2 3 r y I U W Q *.*.Q *.^.K.D.R.T.Y.Z.Z.Z.Z.A.T.Y.Y.Y.U.m.v.",
"v.m.U.T.Z.v.v.z.v.v.Z.A.Y.F.F.K.(._.+X@X+X=.I w 7 6 6 1 6 $ $ O X X X % t I Q ! =.=.=.=.=.)._.(.P.G.R.Y.Z.x.x.Z.Y.T.T.Y.U.v.U.U.",
"v.v.T.T.U.v.x.v.v.v.Z.A.Y.Y.L./.).oX@XOXOX.XQ C w 6 % % $ * 6 $ X     @ w K ! .XXXXXoX.X.X].[._.P.L.F.Z.Z.v.V.Z.E.W.T.U.m.U.Y.Y.",
"v.Z.E.W.Z.Z.v.U.U.U.Z.Z.Z.A.K.(.).XXOXOXOXXX=.Q C w * $ $ 1 6 # O X X O * e W ~ =.XX=.=..XXX.X[.{.P.D.x.x.Z.A.E.Q.W.T.U.T.T.U.U.",
"v.U.T.T.Z.x.m.U.T.T.Z.v.v.D.K.(.)..XXXOX@XOX.X=.I N 6 $ % % $ $ O X X O @ - U ~ XXXXXX=.XXXX.XoX{.(.L.v.x.Z.Y.W.W.W.Y.Z.U.T.T.Y.",
"U.U.Z.Z.x.z.U.T.W.W.Y.U.b.b./.(.]..XXXXXOXOXXX*.I e * $ % % % $       O O - P W =.OXXXXXXX.X.XoX[.(.L.U.x.v.Y.E.T.Y.Y.Y.U.U.U.U.",
"T.T.Z.Z.v.v.U.T.W.W.T.U.c.b.K.)..X.X.X.XXXOX.XQ C w 9 % % % % @     O O O @ > I =.OXOXXXoXoX.XoX].(.G.U.v.v.Y.Y.Y.Y.E.T.U.Z.m.m.",
"W.W.U.Z.v.v.c.m.T.T.T.U.c.b.P._.oX.X.X.XXX.X*.U V t 9 0 0 % % $     O @ O . @ w Q oXoXXXXXOX.X.X].(.G.Z.v.v.W.W.T.Y.E.E.A.Z.Z.Z.",
"W.E.Z.v.U.m.c.c.U.Y.T.Y.c.b.K.(.[..X.X.XXX=.U V y t 0 6 % % $ @     O O . . @ : *.oXoXoXXXXX.XoX[.(.!.Y.v.U.W.W.E.E.E.Y.A.A.Z.x.",
"T.A.Z.V.Z.Z.m.U.U.Y.W.W.U.b.F./.).oXOXOXXX*.B z 9 9 6 * $ @ . .     . .   . - N *.OX.XoXoX.X.XoX[./.!.Y.Z.Z.E.W.Y.Y.Y.Y.Y.A.Z.Z.",
"A.Z.Z.Z.Z.Y.Z.U.m.Y.W.W.U.A.C.P._.).+XOXXX=.B N w w w 9 9 - - & & @ & - & - z U *.oXoXoXoXoXoXoX{.P.R.T.v.v.T.W.A.A.Y.Y.T.Y.Z.x.",
"Y.Z.Z.v.U.Y.Z.Z.Z.Z.Y.E.T.Y.F.S./.^.{.+XOX].Q U U I U I I I I L K P K I K L W ~ oX+XoXoXoXoX[._./.L.R.Y.v.v.U.Y.Z.Z.U.U.E.Y.x.x.",
"Y.Z.m.Z.U.Z.Z.v.v.Z.Z.Z.Y.Y.U.D.L.K._.{.{.[.).! ! ! ! ! W W W W W W W W W ! .X[.+X+X+XoX[._.(./.L.D.Z.v.c.m.U.Z.Z.v.m.U.W.T.V.z.",
"x.Z.U.Z.Z.x.x.v.z.z.x.v.Z.U.U.Z.b.R.!.!.~.{.{.+X].]..X.XXX].=.=.=.=.=..X=..XoX+X+X{.{._.(./.K.S.V.z.l.j.l.l.m.c.v.v.v.U.Y.Y.Z.Z.",
"x.v.U.U.v.z.x.z.z.z.z.v.v.Z.m.U.v.v.R.!.~.|.|.|.[.oXoXOX@XOXXX.XXXOXOXOXOXOXOX+X|.|.{./.^.K.b.b.v.z.j.j.l.l.l.l.c.v.v.v.U.Y.Y.T."
};
