/* XPM */
static char *out[] = {
/* columns rows colors chars-per-pixel */
"64 64 245 2 ",
"   c #0C0D14",
".  c #0D0D1B",
"X  c #100E16",
"o  c #0E1214",
"O  c #0F1518",
"+  c #111615",
"@  c #151B16",
"#  c #181C17",
"$  c #12151B",
"%  c #151B1C",
"&  c #191D1D",
"*  c #2E1A1A",
"=  c #1A2515",
"-  c #1B2D10",
";  c #1B231B",
":  c #24291C",
">  c #342D17",
",  c #28361C",
"<  c #0E0E25",
"1  c #110E25",
"2  c #0E1129",
"3  c #121323",
"4  c #171B21",
"5  c #191E22",
"6  c #19162B",
"7  c #191637",
"8  c #231B31",
"9  c #1C2224",
"0  c #1E2429",
"q  c #1C2437",
"w  c #272927",
"e  c #22252C",
"r  c #23292B",
"t  c #382A25",
"y  c #2B3528",
"u  c #363829",
"i  c #272834",
"p  c #323135",
"a  c #411E12",
"s  c #4D2B12",
"d  c #592C15",
"f  c #593617",
"g  c #6A340F",
"h  c #663614",
"j  c #723B12",
"k  c #783F19",
"l  c #533326",
"z  c #6A3225",
"x  c #673B27",
"c  c #2A4C0F",
"v  c #2B4815",
"b  c #335715",
"n  c #376C0B",
"m  c #37780C",
"M  c #3A6715",
"N  c #3C7517",
"B  c #394729",
"V  c #364C2F",
"C  c #385824",
"Z  c #3A4532",
"A  c #3C6622",
"S  c #4F4F15",
"D  c #684415",
"F  c #794717",
"G  c #785617",
"H  c #4D6F12",
"J  c #467A1A",
"K  c #6A6E14",
"L  c #737916",
"P  c #4F4D2F",
"I  c #43552D",
"U  c #475932",
"Y  c #6D462B",
"T  c #754826",
"R  c #6C4C39",
"E  c #6F5633",
"W  c #517226",
"Q  c #4C6535",
"!  c #526839",
"~  c #5A743D",
"^  c #717134",
"/  c #1C1B43",
"(  c #1B1C48",
")  c #1E1F5B",
"_  c #221C48",
"`  c #1D244F",
"'  c #262347",
"]  c #33304C",
"[  c #262659",
"{  c #37365B",
"}  c #252A67",
"|  c #29346C",
" . c #3A386A",
".. c #293476",
"X. c #353A76",
"o. c #45394F",
"O. c #39464F",
"+. c #2B586B",
"@. c #304572",
"#. c #504E4F",
"$. c #725448",
"%. c #675759",
"&. c #58604B",
"*. c #5E7840",
"=. c #627D42",
"-. c #736755",
";. c #555268",
":. c #44497A",
">. c #746B6B",
",. c #7A767C",
"<. c #874714",
"1. c #944D15",
"2. c #895819",
"3. c #965819",
"4. c #A75B18",
"5. c #86681A",
"6. c #9C631C",
"7. c #A8661C",
"8. c #B66A1B",
"9. c #BA731D",
"0. c #854F2C",
"q. c #905B24",
"w. c #83563B",
"e. c #906E29",
"r. c #A86D23",
"t. c #AB7724",
"y. c #B77A23",
"u. c #A77231",
"i. c #C2791F",
"p. c #C67E20",
"a. c #855B46",
"s. c #8D6C4F",
"d. c #987856",
"f. c #A47359",
"g. c #857261",
"h. c #997966",
"j. c #857A7B",
"k. c #AD7C64",
"l. c #2F8E03",
"z. c #3B8A0A",
"x. c #359500",
"c. c #3B9601",
"v. c #369A01",
"b. c #3C9A00",
"n. c #3E930A",
"m. c #3FA000",
"M. c #47870B",
"N. c #568B08",
"B. c #449504",
"V. c #4B9507",
"C. c #439D00",
"Z. c #499E02",
"A. c #43930A",
"S. c #449909",
"D. c #4B9C0A",
"F. c #549608",
"G. c #529D0C",
"H. c #468715",
"J. c #568917",
"K. c #4C9615",
"L. c #559817",
"P. c #698615",
"I. c #66981B",
"U. c #45A100",
"Y. c #4BA401",
"T. c #4DA901",
"R. c #4DA20B",
"E. c #51A602",
"W. c #53A901",
"Q. c #56A807",
"!. c #59A318",
"~. c #588F2C",
"^. c #589627",
"/. c #5B8B33",
"(. c #5E873B",
"). c #668629",
"_. c #739127",
"`. c #628639",
"'. c #638C3D",
"]. c #659439",
"[. c #62A621",
"{. c #6AA52F",
"}. c #658544",
"|. c #688646",
" X c #658A42",
".X c #6A8A46",
"XX c #6D9242",
"oX c #608467",
"OX c #8D912A",
"+X c #89883D",
"@X c #9D933A",
"#X c #BA862B",
"$X c #B18D32",
"%X c #A3933B",
"&X c #BBA03A",
"*X c #C88826",
"=X c #D28E24",
"-X c #CB922F",
";X c #D49024",
":X c #D89729",
">X c #CA9736",
",X c #CF9635",
"<X c #CEA237",
"1X c #DBA639",
"2X c #E2A42D",
"3X c #E4AA37",
"4X c #E9B33D",
"5X c #999153",
"6X c #A99248",
"7X c #8E8272",
"8X c #998775",
"9X c #B18F75",
"0X c #C9974A",
"qX c #CFA74C",
"wX c #D9AA44",
"eX c #EAB846",
"rX c #EEBB44",
"tX c #E6B653",
"yX c #C59873",
"uX c #D0AA6C",
"iX c #E4B36F",
"pX c #F3C54E",
"aX c #EBC355",
"sX c #F2C653",
"dX c #F4CB58",
"fX c #333B88",
"gX c #1C5887",
"hX c #24648C",
"jX c #444B81",
"kX c #2E909D",
"lX c #1289A3",
"zX c #4C999B",
"xX c #A0918A",
"cX c #8BA692",
"vX c #B9B192",
"bX c #B0AFAC",
"nX c #CEAD8F",
"mX c #D5A786",
"MX c #E4B992",
"NX c #CCB7A7",
"BX c #E7BDA0",
"VX c #E8C196",
"CX c #EAC7AB",
"ZX c #EBD0BB",
"AX c #DAD2C5",
/* pixels */
"E.E.T.T.E.W.W.W.E.Y.Z.C.Z.Y.Y.Z.C.c.b.b.Y.R.Q.G.L.I.^ ).+X+X+X+X+X+X+X+X+X_._.{.K.B.U.Y.b.b.b.b.c.x.l.x.b.b.b.b.T.T.Z.B.x.v.C.Y.",
"T.T.Y.Y.T.T.W.E.Y.Z.Z.Z.C.Z.C.C.C.b.b.C.R.R.I.I.I._._.+X@X%X6X@X@X6X@X@X6X@XOX_.P.J.R.T.U.m.C.b.c.c.x.v.b.C.C.U.Y.T.Z.b.c.b.U.Y.",
"U.U.b.b.Y.Y.U.C.b.b.C.C.C.C.C.b.b.b.C.D.L.I.OXOXOX@X%X$XqX<X<X>X<X<XqXqXtXqX&X%XL L I.G.Y.C.C.c.x.c.v.b.Z.Z.C.U.T.T.C.b.b.v.U.U.",
"U.U.b.m.U.U.U.b.v.c.C.Z.B.c.c.c.b.C.C.G.I._.OX#X&X0XqXwXeXrXrXeXeXeXeXtXdXsXwX>X#Xe.P.L.G.C.c.x.x.c.C.C.Y.U.b.U.Z.U.C.b.m.b.b.m.",
"m.U.W.W.Y.Y.C.C.C.C.Y.U.C.B.b.b.C.C.G.I.OX%X<X<XeXtXaXaXdXdXsXsXpXpXpXdXdXdXaX4X>Xt.e.P.N.V.c.x.x.c.C.C.C.C.v.v.b.C.C.C.U.C.b.m.",
"U.Y.W.W.Y.U.Z.Z.Z.C.U.C.c.b.C.C.C.V.J._.OX&X1X4XrXaXdXdXdXdXsXdXdXdXpXpXdXdXaXeX1X-X#X5.L J.A.x.x.b.C.Z.C.C.v.b.b.b.C.U.C.C.b.b.",
"T.T.W.W.C.C.C.Z.U.C.b.x.c.c.b.C.Z.N.H 5.-X2X2X2X4XeXrXrXtXeXeXrXpXpXrXpXpXpXpX4X3X1X*Xt.5.K M.c.c.b.T.T.U.C.U.Y.Y.U.b.C.C.b.v.x.",
"T.W.W.W.C.c.C.C.U.U.b.b.x.c.C.C.E.F.K L #X2X:X;X:X1X3X3X3XeXeXeXrXrX4X4XrX4X4X3X3X2X-Xy.q.K N.V.B.C.Y.T.U.Y.W.W.T.U.C.b.b.b.v.x.",
"Z.E.W.W.C.B.B.C.C.U.Y.U.v.x.c.C.Y.N.K 2.9.*X*X*Xp.-X=X:X:X1X3XeX4X4X4X3X2X2X2X2X;X=X;Xi.7.5.P.F.C.U.T.T.W.W.Q.W.W.U.C.c.B.b.b.x.",
"Z.E.W.W.C.c.c.b.C.T.W.W.C.b.c.C.Y.N.S G 6.7.8.9.p.p.*X*X=X:X1XwX3X2X3X2X2X2X2X;Xp.i.=Xi.4.5.L F.V.U.Y.T.W.Q.Q.W.T.Y.Z.B.C.C.b.b.",
"C.U.W.W.Z.c.c.b.T.W.W.W.Y.Z.C.C.Y.M.S f <.3.3.6.y.,X-X-X=X=X,X<X<X:X2X2X:X:X;X=Xi.8.8.8.4.3.K N.V.Y.T.W.W.W.E.T.Y.Y.Y.Y.Y.U.v.x.",
"b.C.E.W.Z.C.C.C.E.W.W.W.E.Y.C.C.C.M.S f F <.1.6.u.>X-X*Xp.*X#X#X#X#X*X=X;X=X=X*X8.8.8.4.1.<.K N.V.Y.T.T.E.W.Y.U.C.Z.Y.E.Y.C.b.x.",
"c.C.C.Y.Y.Y.E.E.W.E.T.T.Y.U.Y.U.C.M.S D F 3.7.t.y.t.r.r.y.y.t.t.t.y.y.*X9.i.i.i.8.4.4.4.<.g H M.B.C.Y.U.U.U.C.C.c.B.Y.Y.B.c.b.b.",
"C.C.C.C.Y.E.W.W.E.Y.Z.C.C.C.T.T.Z.M.H P G 3.r.r.r.q.3.q.6.7.6.2.5.3.3.6.4.4.9.8.4.4.4.1.g g H H B.C.U.U.b.b.U.C.x.c.Z.U.c.c.b.b.",
"Y.Y.Y.C.C.U.Y.Y.C.C.b.C.b.U.W.W.Z.B.J H G e.q.q.F k j k G G D j j j j j F <.4.4.4.4.4.<.g s H M.B.U.C.b.b.b.U.Y.c.x.C.C.C.C.C.c.",
"T.Y.Y.C.C.C.C.C.b.b.b.b.b.U.T.E.Y.B.M.N.^ e.e.0.x h h h D D h d d g d h g F 1.4.4.4.1.j g S H M.Z.Y.b.b.x.c.Y.T.B.c.C.U.C.V.C.C.",
"b.U.Y.U.b.c.C.C.C.C.b.x.b.U.T.T.Z.C.B.M.L -.5Xs.$.z x x T T Y x d d z z g j <.1.1.1.<.D f S J S.T.U.b.x.x.b.C.Y.C.C.U.Y.U.U.U.U.",
"C.C.Y.U.v.c.C.Y.Z.C.c.v.U.U.Y.T.Z.C.b.M.W e.5Xh.s.a.f.a.T R a.$.R $.a.a.0.z j g <.<.j h S S M.D.T.Y.b.x.b.b.U.Y.Z.Z.Y.Y.U.U.Y.Y.",
"Y.C.C.c.x.c.C.Y.C.C.b.b.b.C.T.T.Z.C.c.n.^._.s.f.9XmX9Xg.R R j.9Xh.h.xXyXf.w.z d j j h f U J A.C.T.Y.C.b.C.U.b.C.C.Z.C.C.C.C.C.Z.",
"Y.Y.Y.C.c.c.Y.Y.C.b.C.C.b.C.U.Y.Z.B.x.n.K.I.^ f.mXBXnXxX$.%.xXbXvXnXMXmXk.a.z d d h D S W L.S.C.Y.T.C.C.U.C.U.C.C.C.C.C.C.C.C.Y.",
"E.W.W.W.C.C.Y.U.b.v.b.b.x.x.b.b.C.c.l.x.B.J.^ f.nXBXNXxX%.>.bXAXNXBXBXmXk.a.z a s S S K H.S.c.b.U.Y.Z.C.b.b.C.U.b.C.U.T.Y.Y.U.U.",
"T.E.W.W.Y.C.U.U.b.c.b.b.x.b.b.m.b.c.x.n.S.J.E h.nXCXNXxX>.jXbXAXZXCXBXmXf.w.l a s s W K.A.c.x.c.C.C.C.C.c.b.U.U.b.b.U.T.W.T.U.C.",
"C.Z.C.C.b.b.m.m.C.C.b.b.c.B.U.U.C.c.b.S.N.).a.f.nXMXBXnX8XxXNXZXZXBXBXmXf.0.d a > u W H.n.c.x.x.x.c.C.C.c.C.C.C.b.b.b.U.T.T.U.b.",
"C.C.b.b.b.v.b.b.C.C.b.b.C.Z.T.Y.C.B.S.H.J ! E s.9XiXmXnXyXyXVXCXCXBXMXyXf.0.z a > , C N M.n.c.x.x.n.B.C.C.C.Y.Z.C.C.C.U.T.T.m.v.",
"C.U.m.b.x.x.b.B.b.b.c.C.Z.T.U.U.b.A.H.N C B l E 6XqXuXuXqXiXiXMXMXiXuX0Xu.0.z z t : , b H.K.n.b.c.b.C.C.C.C.Y.Y.U.U.Y.Y.T.T.b.b.",
"b.C.U.b.b.c.b.C.C.B.B.C.Y.T.Y.C.C.z.N C y w u D u.>X0X0XwXtXiXiXiXwXp.r.0.k z l t r 9 , A J A.B.b.b.B.C.C.C.C.C.C.Y.Y.T.T.Y.m.b.",
"b.U.b.b.C.C.C.C.Y.Z.C.C.Z.Y.Y.Y.n.m v y w y P S e.t.#X$X>X,XwXwX,Xu.q.T x l l ] r 0 9 = - c m A.c.b.C.C.b.c.b.b.b.U.Y.E.W.T.U.b.",
"C.b.b.U.C.Z.C.C.U.C.b.B.C.Z.T.Z.A.n v = r w u P ^ e.u.y.y.y.-X*X7.1.z d l l t i 0 0 9 % O - b z.n.b.C.C.b.c.c.c.b.U.Y.T.W.W.T.U.",
"b.C.C.C.T.Y.b.v.C.C.B.C.C.Y.W.Z.z.b , ; 0 y u l h 2.q.r.6.r.y.r.F h a * 8 i i w 0 0 9 % + = c m z.c.C.Y.U.C.c.v.U.Y.C.C.W.W.W.T.",
"C.C.U.Y.Y.Z.x.x.C.Z.C.C.U.Y.Q.V.N v , ; r 0 w u s f D 0.0.q.e.q.x * * X 8 e i e 0 9 9 ; @ = , b m c.C.Y.U.C.v.b.U.U.C.C.W.W.T.T.",
"T.Y.Y.T.Y.C.x.v.Y.T.C.Z.Y.T.R.M.b , : w r r 0 9 w t a l Y a.a.$.o.8 1 X 8 i e e 9 9 9 4 ; @ = - m B.C.C.b.x.v.b.b.b.v.c.U.U.U.T.",
"W.W.T.U.Z.C.c.b.Y.T.Z.Y.W.E.F.H > : : 9 0 0 9 ; 4 6 8 p $.$.g.-.o._ 1 X 5 e e 8 9 9 9 9 9 % o - n M.B.c.b.x.v.b.c.b.x.b.C.U.Y.U.",
"W.T.U.m.C.C.x.x.Z.Y.Y.Z.W.V.M.M - % 9 0 0 9 9 4 1 < / ] %.g.7X>.:.) 2   % 0 9 9 9 9 9 9 % % O - n z.C.b.b.b.b.b.v.v.b.b.T.T.C.C.",
"T.U.b.b.b.b.x.b.C.Y.C.Y.E.F.H c - O 9 0 0 9 9 O . 2 ( { %.-.7X,.:.[ 2   O 9 9 9 % 9 % 9 9 O o - b m S.U.U.v.v.b.x.b.b.U.Y.Y.C.B.",
"T.U.v.v.b.b.x.x.b.U.C.Z.E.V.n c = + % 0 0 9 3 3 1 7 )  .%.g.7X,.:.} 2   O 9 4 4 4 3 O @ O O o + c n B.U.m.b.b.b.b.C.Y.U.b.c.c.c.",
"T.U.b.v.b.c.x.x.b.C.C.Z.Z.B.n c - = ; 9 9 9 9 3 2 7 }  .%.g.7X,.:.} 7 2 3 3 % O O 3 3 3 3 3 . = c n S.U.U.m.v.m.C.Y.Y.Z.b.c.c.C.",
"W.T.C.b.c.c.x.x.c.b.U.U.C.c.z.n b v 0 = ; = 4 4 7 / )  .%.g.7X,.:.} ( 7 2 < .     < 7 7 ( / 7 0 M M.S.C.C.C.U.Y.Y.C.C.C.b.C.C.C.",
"T.C.C.b.C.b.c.c.c.C.T.T.U.C.n.z.z.M v v v , , 0 6 ( }  .%.g.7X,.jX..) _ / 2 <   X 2 ( } } [ ' B J G.B.C.C.Y.T.U.C.C.B.B.C.C.V.C.",
"b.B.x.c.C.Y.C.C.C.U.T.T.T.Z.B.n.z.z.z.J J J M V 8 _ }  .%.g.8X8XjX..} } ) ( 7 3 3 7 ..fXfX..] V J G.Y.Y.C.C.b.m.C.C.C.c.x.c.b.C.",
"c.c.x.c.C.Z.Z.C.T.T.W.T.E.T.C.C.n.S.L.!.K.^.H.A i _ ) o.%.7X8XjXjX..| | { ] ] p p ] fXfXfX@.] C M.Q.Y.Y.U.C.m.C.U.C.b.c.c.b.B.C.",
"b.b.Z.Z.C.C.B.C.T.E.Y.Y.E.E.T.Y.U.U.R.R.S.n.z.A w 8 _ o.%.g.9Xj.:...@.#.O.P #.-.%.;.jXfX| { V M V.Y.C.C.b.b.U.Y.T.Z.c.c.C.C.Z.E.",
"b.C.Y.E.Z.C.C.C.Y.Y.Z.Y.T.W.E.T.U.U.Y.U.b.n.N A i _ _ ] %.-.9XjX:.| X.#.#.&.-.8X8X7X;.:.] O.M z.V.Z.C.c.b.b.C.U.E.T.C.C.Z.Y.E.E.",
"C.C.Y.Y.E.E.Y.Z.Z.Z.Y.Y.C.U.E.E.Y.C.C.U.m.n.Q O.' _ 8 ' o.#.>.>.X.} { O.+.oX8XvXnXvXg.#.P V J V.c.c.c.b.v.x.x.C.W.W.Z.Z.Y.E.Y.Y.",
"T.Y.T.E.W.W.T.C.C.C.Z.Y.Y.U.Y.Y.C.C.b.b.m.H.C ] ] _ _ _ { ;.%.;.X...| +.kXzXcXvXnXuXd.E Q W K.D.C.b.c.c.b.v.x.b.Y.W.Z.Z.Z.E.Y.Y.",
"W.W.W.T.E.Y.U.b.v.b.Y.T.T.Y.Y.U.C.B.C.C.b.z.V ' _ [ _ [ X.jX;.{ } ..@.gXlXlXzXcXvXqXd.^ P.V.Z.E.T.Y.C.c.m.m.b.c.C.C.c.b.Z.Y.Y.Y.",
"W.W.W.W.Y.C.b.v.b.v.Y.T.T.Y.U.C.b.C.C.C.n.m B q _ _ _ _ ....[ [ } } ..gXlXlXzXzX8XqX5X^ L.E.Y.E.Q.Y.C.C.Y.U.b.v.c.b.x.b.C.C.Y.Y.",
"T.E.W.E.b.x.x.x.m.Y.U.U.U.C.b.c.c.B.C.B.B.H.V i _ _ 7 ( } } _ 7 ( } ..gXhXhX+.&.+X+X^ `.L.E.W.T.Y.Y.Z.Y.T.U.b.v.b.C.C.b.C.C.Y.Y.",
"Z.Y.E.T.b.x.x.x.U.T.U.C.C.b.c.c.C.C.D.D.!.~.C p i 7 2 7 ' _ 2 < 7 _ [ | +.+.+.V E ^ ^ '.J.!.E.G.Z.C.Y.Y.T.U.v.v.C.C.C.U.U.U.C.C.",
"C.U.U.C.b.b.x.x.U.Y.C.b.b.c.b.b.R.R.[.{.{./.U Z i 0 0 q 0 2 .   1 8 / ' ` i e t P ^ ~ '.].L.K.D.Z.Y.Y.Y.C.C.b.b.U.Y.Y.Y.Y.U.b.v.",
"U.U.U.U.U.b.x.v.C.C.C.b.C.C.b.C.R.!.{.{.].`.! I y 0 0 9 9 % o   $ 6 6 7 6 6 X : B ! |..X].].^.L.K.V.Y.Z.C.B.b.C.Y.T.T.Y.U.U.b.b.",
"m.m.U.T.Y.U.b.x.b.C.C.Z.Z.Z.C.S.!.~.XXXXXX}.~ U y 0 0 9 5 % % $ X X 3 5 5 4 + # u ! }.|. X'.'.~.L.L.Y.Z.C.c.c.C.Y.E.T.Y.b.C.U.Y.",
"b.U.Y.T.U.C.b.v.b.b.C.C.Z.D.C.K.^.]. X.XXX.X}.! u 9 5 5 9 % % $     % 5 5 4 + @ y U ~ |.|..X X'.^.L.D.C.C.c.B.C.T.E.Y.C.C.U.Y.T.",
"b.C.Y.T.C.C.b.C.Y.Y.B.C.V.Z.S.K.~. X.X.X.X.X}.*.Z w & % & 5 % %     + @ 5 % % % ; u ~ }.|.|.}.(.].^.A.c.B.C.Z.T.W.W.Y.C.U.U.T.T.",
"b.C.Y.Y.C.b.U.U.T.T.U.b.C.C.A.K.(.}.|..X.X|.|.*.U u # + % 5 5 % +     o % 5 9 % + : Q }.|.|.}.}./.~.A.c.c.C.T.W.W.E.Y.C.Y.T.Y.U.",
"C.Z.Y.C.c.b.U.T.W.W.Y.U.b.b.K.K./.}.|.|..X.X.X}.! u : % 9 5 5 % +       % 9 9 % + : U =.}.}.}.}./.^.V.C.c.b.Y.T.W.E.Y.Y.U.U.U.U.",
"T.Y.Z.C.b.b.U.U.W.W.Y.U.v.x.S.^.(.}.|.|..X.X|.*.U P w : 9 9 5 % + o   o 5 0 9 ; @ : I ~ }.|.}.(./.^.G.U.b.b.Y.W.Y.Y.T.T.Y.U.U.m.",
"W.E.U.C.C.C.b.b.U.Y.Y.U.v.v.S.L./.}.}.}.}.}.*.! I u p w w 9 4 $ + + % % 5 0 9 % # : u U ~ .X}. X].^.R.U.b.C.W.W.W.E.E.E.Z.C.C.b.",
"W.T.C.C.C.C.b.b.m.U.W.T.b.b.S.L.~. X}.}..X}.(.&.Z p p w * & $ + O O 4 9 0 9 9 % @ = , I ~ .X}.'.].^.R.U.b.C.W.W.E.E.E.Y.Y.C.b.b.",
"Y.Y.b.c.C.C.C.C.U.T.W.W.C.b.S.K.^./. X.X|.}.*.Q u i w 9 % + o o = 4 0 0 0 9 9 % + ; y C ~  X X'.^.!.Q.Y.b.U.W.W.E.Z.E.Y.Y.C.C.b.",
"Z.C.b.b.C.Z.Z.C.U.U.W.W.Y.U.D.K.^.~. X X.X}.*.&.V Z y w : ; @ = % 9 9 9 5 ; % % @ = B U ~  X X].^.R.E.Y.b.C.E.E.Z.C.Y.Y.T.Y.C.c.",
"U.U.b.U.U.Y.Z.Y.U.U.Y.Y.T.Y.S.V.K.^.].'..X.X}.}.! Q U I P B u : # + # # @ # @ # O , V ~ }.'.].^.K.R.U.C.x.b.Y.T.C.C.C.U.E.T.b.x.",
"b.U.U.U.U.C.C.C.C.C.C.C.Y.Y.Y.B.m.K.^.].].]. X X}.~ ~ *.~ ! U B u , y w y , , , , V Q /././.^.K.R.b.b.b.x.v.U.C.C.b.b.U.E.E.C.b.",
"x.b.U.U.b.b.b.b.v.x.x.b.C.C.C.C.S.S.!.!.[.{.].XX X`.=.}.`.=.~ ! Q Q ! Q ! Q ! ! /.~././.K.H.H.n.v.x.x.l.x.x.x.b.b.b.b.m.Y.T.U.U.",
"x.v.C.U.v.x.v.v.x.x.x.x.c.b.U.U.v.m.m.R.!.[.{.{.]. X X XXX.X|.=.=.=.=.=.=.}.`.'.~.].].~.H.n.l.x.v.x.l.l.l.x.x.x.v.b.b.m.U.T.T.T."
};
