/* XPM */
static char *out[] = {
/* columns rows colors chars-per-pixel */
"50 50 256 2 ",
"   c #0C1113",
".  c #152B1E",
"X  c #1B3A1D",
"o  c #243D1E",
"O  c #071E28",
"+  c #16262B",
"@  c #193423",
"#  c #193827",
"$  c #1B3B2A",
"%  c #092531",
"&  c #082936",
"*  c #172D35",
"=  c #1B3C33",
"-  c #19363B",
";  c #243C27",
":  c #2B3334",
">  c #253A38",
",  c #27471A",
"<  c #2F501A",
"1  c #3A581C",
"2  c #3B6319",
"3  c #1D4429",
"4  c #1A443A",
"5  c #234324",
"6  c #284626",
"7  c #2C4A23",
"8  c #2B442D",
"9  c #34482A",
"0  c #2B5326",
"q  c #385626",
"w  c #284739",
"e  c #354A37",
"r  c #3C4D34",
"t  c #275736",
"y  c #395538",
"u  c #3B632A",
"i  c #3C6735",
"p  c #435D1D",
"a  c #46681C",
"s  c #4F741C",
"d  c #52761C",
"f  c #617E1F",
"g  c #445C2A",
"h  c #40483A",
"j  c #455939",
"k  c #466726",
"l  c #526D27",
"z  c #4A7429",
"x  c #577927",
"c  c #476437",
"v  c #556939",
"b  c #497738",
"n  c #587836",
"m  c #63793A",
"M  c #073346",
"N  c #163744",
"B  c #063C53",
"V  c #123F52",
"C  c #243D46",
"Z  c #1A4944",
"A  c #064259",
"S  c #184D53",
"D  c #254942",
"F  c #2B4B44",
"G  c #294648",
"H  c #354948",
"J  c #28534A",
"K  c #385645",
"L  c #34534B",
"P  c #3B554C",
"I  c #3B5B4B",
"U  c #2D4F53",
"Y  c #375951",
"T  c #3D5B50",
"R  c #3A6B4B",
"E  c #3B6756",
"W  c #094F6A",
"Q  c #055576",
"!  c #2B5364",
"~  c #1E626C",
"^  c #336678",
"/  c #465944",
"(  c #435B4D",
")  c #4A5E4C",
"_  c #555B4D",
"`  c #445454",
"'  c #425C51",
"]  c #486446",
"[  c #4D644C",
"{  c #566749",
"}  c #477646",
"|  c #5B7747",
" . c #456254",
".. c #4B6454",
"X. c #4B6A54",
"o. c #4B665A",
"O. c #4C6A5C",
"+. c #546554",
"@. c #536B55",
"#. c #596856",
"$. c #546B5B",
"%. c #5A6D5C",
"&. c #4B7358",
"*. c #587457",
"=. c #5C715D",
"-. c #616A4A",
";. c #647A49",
":. c #636B58",
">. c #63735C",
",. c #687859",
"<. c #757D59",
"1. c #4C5E63",
"2. c #4D6D6D",
"3. c #576863",
"4. c #5C7463",
"5. c #577B69",
"6. c #647563",
"7. c #667766",
"8. c #657A64",
"9. c #6C7B64",
"0. c #6B7D6B",
"q. c #757C65",
"w. c #727E6B",
"e. c #697A76",
"r. c #717F7A",
"t. c #867B66",
"y. c #5B851B",
"u. c #638C1B",
"i. c #6D991D",
"p. c #5C8429",
"a. c #5B8634",
"s. c #638824",
"d. c #689528",
"f. c #6F962D",
"g. c #678738",
"h. c #779435",
"j. c #78A526",
"k. c #57874B",
"l. c #588859",
"z. c #678348",
"x. c #708C50",
"c. c #5A8C6F",
"v. c #6B826A",
"b. c #798667",
"n. c #75836B",
"m. c #7B846C",
"M. c #668375",
"N. c #6C8373",
"B. c #728573",
"V. c #758975",
"C. c #768977",
"Z. c #7C8B74",
"A. c #7C8C7A",
"S. c #6B9771",
"D. c #7B9477",
"F. c #75A474",
"G. c #84B11A",
"H. c #8DB52D",
"J. c #828B56",
"K. c #83866B",
"L. c #90836E",
"P. c #85956B",
"I. c #838B74",
"U. c #888B76",
"Y. c #968E77",
"T. c #899476",
"R. c #84927B",
"E. c #8B947C",
"W. c #95947B",
"Q. c #98967C",
"!. c #A49279",
"~. c #95A17D",
"^. c #025D83",
"/. c #06648A",
"(. c #056D99",
"). c #05719E",
"_. c #36718B",
"`. c #0174A4",
"'. c #0B7DAD",
"]. c #247CA0",
"[. c #577781",
"{. c #359399",
"}. c #0184BB",
"|. c #358DB2",
" X c #798F8D",
".X c #65969B",
"XX c #038CC7",
"oX c #0B93CC",
"OX c #0398D7",
"+X c #2C9ECF",
"@X c #38A5D2",
"#X c #009EE1",
"$X c #03A4E8",
"%X c #12A4E3",
"&X c #01ABF3",
"*X c #02AEF8",
"=X c #01B2FE",
"-X c #09B4FD",
";X c #17B7FB",
":X c #26BDFD",
">X c #34B8F1",
",X c #53B0D9",
"<X c #6AB4D4",
"1X c #46B7E9",
"2X c #63BFE6",
"3X c #2EC1FF",
"4X c #52D0D0",
"5X c #59D1E8",
"6X c #43C5FE",
"7X c #4EC8FD",
"8X c #58C8F9",
"9X c #5ACDFE",
"0X c #73C4E6",
"qX c #66CEFB",
"wX c #65D0FF",
"eX c #6CD3FF",
"rX c #73D5FF",
"tX c #7DD7FE",
"yX c #859481",
"uX c #8A9682",
"iX c #8D9A84",
"pX c #8B988A",
"aX c #949B84",
"sX c #9B9C83",
"dX c #979D89",
"fX c #869792",
"gX c #A79D86",
"hX c #99A388",
"jX c #9BA38B",
"kX c #89A79C",
"lX c #9CA893",
"zX c #A3A38A",
"xX c #A8A78B",
"cX c #B5AA8F",
"vX c #A5AC95",
"bX c #ACAD94",
"nX c #A9B299",
"mX c #B2B49C",
"MX c #B9B89C",
"NX c #8EABAD",
"BX c #ABB2A1",
"VX c #B4BAA3",
"CX c #B4B8A4",
"ZX c #BABCA3",
"AX c #C1B69C",
"SX c #B5C5B6",
"DX c #C3C1AB",
"FX c #8EB8C6",
"GX c #9DCDDD",
"HX c #A9CFD7",
"JX c #9CD2E3",
"KX c #82D8FD",
"LX c #AEDBE8",
"PX c #B6E1EE",
"IX c #BAE9F8",
"UX c #C0ECFA",
/* pixels */
"a q g r : 9 7 5 6 5 7 9 ; ; 9 6 o , , 9 < i.y.< d G.u.a , , , 6 9 q ; o ; 9 8 ; k < , , 2 0 5 X X 2 ",
"-.Y.Y.Y.Y.K.w.r E g K.K.<.:.:.6.:.o j <.b.p.p.| a.i.d ,.j 1 c U.K.K.,./ U.q.q.6.#., , ] j { ] I 8 < ",
"K.gXcXxXzXbXdX/ k m gXgX!.Y.L.L.q.e h Q.W.;.E.Z.b.| >.uXN.9 b.Q.P.K.q.,.aXK.B.w.9.8 c v.@.v.%...I 5 ",
"b.xXcXcXcXbXjX_ v ;.!.xXgXY.U.U.q.r ] Q.W.b.I.m.b.8.V.Z.v.e :.I.Z.P.I.Z.9.q.r.q.6.w l.v.iX@.O.' J $ ",
",.sXmXmXnXnXjX{ s v gX!.L.U.K.:.h : { dXsXZ.9 ) [ / j =.P 6 ; ) E.K.m.n.:.0.6.6...; b V.v.=.+.L Z t ",
"{ U.mXmXnXnXjX%.d u.r : e 9 9 9 g k j b.T.K.b.T.T.Z.Z.V.v.9 ] E.Z.m.m.0.#.+.,.b.e 6 z.>.o. .' w = } ",
"{ mXnXBXvXvXlX+.v ZXMXMXMXZXVXnX<.n | K.K.b.v.I.Z.V.A.B.7.w #.n.0.9.0.>.n.0.6.3...6 p.D.[ K t &.k.x.",
"/ E.uXpXA.7.) e v DXZXMXCXMXVXVX#.g v m.n.9.Z.b.V.Z.C.N.7.F K 0.8.7.6.8.9.6.%.$.o.; x z.x.z.| x u.f.",
"p < 9 : 7 9 p p m ZXZXZXVXVXVXnX#.k { w.w.#.n.w.9.N.v.c.5.J = w  .I e +./ ( ( L F 3 ,.cXsXW.I.+.;.p.",
"d J.J.t.t.t.t.v m MXMXZXVXVXVXnX+.c / ' ( ; ; > 8 t w w J 3 $ $ # # X @ . @ @ $ 4 5 q.bXzXdXaXA.D.K ",
"m AX!.!.!.Y.t.-.v BXnXnXnXBXBXvX/ k a.g c a.g.u.u.x k v v n m | v g a p k g g g 1 a b.hXdXaXuXV.4.e ",
"-.AXgXcXY.gXt.h j lXjXjXhXnXlXyXw k j.J.h.h.h.h.h.u.T.AXbXbXxXZXxX-.p t.cXgX!.!._ a v.aXaXiXU.r.C.w ",
"_ !.Y.Y.aXY.t.r q / j _ ) / r e t k ZXcXcXgXcXgXDXh vXCXVXCXVXCXvXw./ q.cXt.t.t._ 1 -.dXfXr.3.3.3.3.",
"_ xXW.Y.U.U.q.h p g j j r h r 7 1 l DXZXzXgXdX Xe.3.[.fXHXHXIXIXUXUXLXHXHXBXpXt.{ q #.3.N W _.^ _.! ",
"h t.L.I.U.I.#.h v mXMXxXsXbXsX-.q l BXdXdXdX1.C 2.^ ^ U C 1.FXGXJXJXPXUXUXUXLXBXw.{ / W OX&X1XqX<X_.",
"< r _ _ _ / e o v cXxXgXbXxXjXv.g _ H * ` C ^ 2XKXqX>X>X@X! + C C C 1..XGXLXPXGX XH ! @X-X=X;X|.: : ",
"d l g c j v k d m T.W.bXvXlXdXP.;.- |.XXM W 8XrXKXqX;X=X=XOX! * M (.(.B N C C C U [.qX8X;X=XXX* #.H ",
"x !.AXxXxXgXU.g { / BXnXvXjXiXyX3._.7X$XM +XqXtXtX9X;X=X=X:X9X<XN B '.+X#X#X#X1XqXKXtX9X-X#XM ` ) w ",
"<.DXgXQ.Q.Y.>.q K.zXB.lXjXiXuXe.* 1X8X%XB 1XqXKXqX6X-X=X-X6XwXtX<X+   * ].&X*X7XwXKXeX1X;X! C $.P + ",
":.xXsXaXaXR.8.r aXzXjXuXhXyXpX* Q ;X8X>XM ^ qXKXwX;X=X-X6XwXrXKXrX].O [.- ^.-X1XeXKXrX7X|.+ C e.e.U ",
"-.jXaXiXE.R.%.] ..=.K ; %.K X.` O Q @X_.O % |.tX9X-X*X$X,X,X0XKXeX1XQ 2.FXC (.1XrXKXwX6X-X}.%   + ' ",
"{ q.iXuX XC.@.j *.I e 2 q w y ' B A M M `.}.A ^ _.^.W M & M - ^ ,X>XoXU JX.X+ _.<X0X0X@X(.& : +.c a ",
"g / *.>.8.4.( z d.h.x.s.d l -.` (.#X/.N ~ (.XX).^.^.`.}.OX#X}.B M XXOXN GXIXNXH : G G > H 3.n.;.;.m ",
"a l s a d.n z.f.j.H.h.x.z.K.ZXC XX#XA 4X5X{.(.&X*X*X*X-X-X-X-X#XB M `.* JXIXPXNXz. X X XpX:.E.T.I.0.",
"v zXP.x x.h.g.g.H.j.~.xX~.,.jXC }.$X~ ^ 4X|.B *X=X=X-X6X9X9X:X=X&XQ O + HXHX4.n u.h.R.aXuX>.Z.yXI.6.",
"9.sXiXP.v nXvXD.c xXxXhXhXn.:.H }.$XQ {.~ /.XX*X=X=X6XeXrXrXwX;X*XoXO   kXx.n s.s.u.v.R.A.uXZ.Z.B.*.",
"[ R.B.] 4.vX~.] 9.nXhXhXv.b.W.3.Q $XOXW OX*X=X=X=X=X9XrXrXrXeX3X&XV H : :.dXuXU.I.>.j $.6.yXC.N.N.] ",
"h Z.Z.b.y y v.T.9.A.x.D.<.hXQ.n.= $X*X&X=X=X=X=X=X=X9XeXrXeXeX:X#X* [.kXyXdXR.I.B.%.&.X.4.C.N.v.N.Y ",
"e ( I e ; 9.W.U.n.b.nXxXxXT.W.Z.D ).*X=X=X=XOX'.=X=X;X9XeXeX6X-X/.H lXjXiXyXA.V.w.o.k x.;.*.5.X. .c ",
"u < 9 j z x.U.I.n.nXbXlXjXhXI.K.e.% oX;X&XXXW }.=X=X=X;X3X:X-XOX%  XpXpXyXC.V.M.$.e k u.f.x.g.g.a.p.",
"v zXY.T.T.v b.q.{ [ hXhXhXyXZ.n.q.C G {.S % `.=X=X=X=X=X=X=X#XA H P ) %.4.=.] ] y q m jXjXE.A.R.lX) ",
"{ W.U.sXm.j q.9.R.R.*.yXyXD.B.9.:.3.+   /.#X=X=X=X=X=X=X=XOXM e m 2 1 1 z j.H.x y.y.E.W.E.Z.Z.n.N.H ",
"<.sXq.:.[ 9 y V.m.9.8.[ B.v.v.$.F $ w : O W XX$X&X&X&XXXQ * e.{ | hXT.P.b.;.b.v.| k n.R.I.Z.N.N.N.P ",
"6.U.U.R.,.9 q 4.0.7.#.( ( L > $ X , 1 p.;.P > % B S S 1.[.4.$.k D.I.n.b.9.#.R.=.[ ; 6.R.A.C.N.N.M.L ",
">.I.I.B.9.y l K $.o.K w . # o y ;.z.z.z.n b.U.{ :.7.e.3.+.+.@.w >.0.9.6.4.( K $.( ; 4.C.C.N.N.M.D.Y ",
":.I.V.B.=.q n < = = @ X < g T.xXdXaXW.yXg { U.I.:.6.:.#.+.( w > ) 6.6.@. .4.[  .L @ w  .O...O.L w S ",
") 6.e.N.| p.u.d < 7 g s y.x.bXW.E.I.Z.0.9 { U.>.>.:.+.+.) ..e @ K o.O.v.$.X.R  .F @ 0 < y r e 8 5 5 ",
"q r y c n f P.~.sXsXE.,.x ;.uXI.A.Z.B.7.8 ] w.3.%.+./ o.o.' L $ 7 I 4.$. .T E J D 4 z | 9.$. .E L 7 ",
"*.jXiXR.D.v sXsXdXaXaXdX9 v yXA.B.N.M.0.8 j 4.$.+.( ( > Y L F w b R O.2.T Y J Z 4 t | v +.' I L J = ",
"w.E.n.0.%.r iXE.uXI.yXC.; ] C.B.N.N.M.&.y q T  .` P L G - J J S S.M.O.E L Y J Z R a.l.@.T T L H D $ ",
"R 8.4.3.( r yXR.R.A.C.N.; 7 O...$.3.O.T 0 c 4 Y Y J J 4 & 0 4 t x.S.F.5.E R i l.F.k.&.&.w F J D t 0 ",
"6 I I I ] ] D.A.A.A.N.N.; l < 5 ; 6 5 ; 2 x $ = Z J 4 4 t 2 i z a.S.k.a.a.d.j.z c.k.y 5 < q 3 t i p.",
"a x g.x p.x C.V.N.N.e.M.$ ;.jXE.I.B.0.7.X.q b 0 3 5 0 z y.p.~.T.D.| R.R.R.l.*.@.Y 0 z g.g.p.z z x y.",
">.uXlXR.c k M.4.O.M.5.J = m.m.9.%.$. .' I ; l.,.v.b.v.c s v.R.n.,.] 8.8.%...' T J 3 >.V.n.,.n.r.4.K ",
">.dXw.6.] < ; 8 w L E 4 4 ,.0.%.$.) ' P H ; @.I.D.V.V...q / >.:.%.%.@.@.) P P F J $ #.v.0.$.O.) T > ",
") Z.6.%.K 8.c b c.R R i z / 6...' T L L D $ ] A.m.V.N.O., e %.$.@. .e P P P L F Z 3 #.7.$. .' T P = ",
"y ) %...8.%. .R } l.SXS.b | #.' P L H G D = / A.B.v.M.' 7 ] y  .T L F F L F J Z $ i /  .` T P L J 4 ",
") $.e v.3. .I L K &..X.XR @.$.T L F F D = $ ]  XM.0.M.Y 0 / O.I G w C w J w J S R *. .' T P L L J 4 ",
"0 y i O.Y L J Y ~ l.F.c.c.i 3 D 4 Z 4 w i 0 M.O.O.2.o.F } e D D > - Z Z - u t R S.l.t t 4 D D w J 4 ",
"y.d.q 6 E 5.2.R a.a.j.a.F.u , X # # X # 6 k | 2. .E Y } a.u # . @ # # 3 3 u.d.y.b k.i 3 3 0 X 5 0 u "
};
