/* XPM */
static char *out[] = {
/* columns rows colors chars-per-pixel */
"50 50 253 2 ",
"   c #080D0F",
".  c #07141A",
"X  c #152B1E",
"o  c #1B3A1D",
"O  c #243D1E",
"+  c #101F25",
"@  c #172628",
"#  c #193423",
"$  c #193827",
"%  c #1B3B2A",
"&  c #0E2A34",
"*  c #082B38",
"=  c #162D35",
"-  c #1B3C33",
";  c #1C373B",
":  c #243C27",
">  c #2D3232",
",  c #233937",
"<  c #27471A",
"1  c #2E5219",
"2  c #3A591B",
"3  c #3B6319",
"4  c #1D4429",
"5  c #1A443A",
"6  c #234324",
"7  c #284626",
"8  c #2C4A23",
"9  c #2B442D",
"0  c #34482A",
"q  c #2B5326",
"w  c #385626",
"e  c #284739",
"r  c #364A36",
"t  c #275736",
"y  c #3A5538",
"u  c #3B632A",
"i  c #3C6735",
"p  c #46681B",
"a  c #526E1E",
"s  c #4F741C",
"d  c #53761D",
"f  c #445C2A",
"g  c #40483A",
"h  c #455839",
"j  c #476727",
"k  c #526D27",
"l  c #4A7329",
"z  c #567927",
"x  c #476437",
"c  c #556939",
"v  c #497738",
"b  c #597737",
"n  c #607F29",
"m  c #637A3A",
"M  c #002F43",
"N  c #053448",
"B  c #193946",
"V  c #053D55",
"C  c #263C45",
"Z  c #323F44",
"A  c #1B4A43",
"S  c #124A53",
"D  c #254942",
"F  c #2B4B44",
"G  c #294847",
"H  c #354947",
"J  c #28534A",
"K  c #385645",
"L  c #34534B",
"P  c #3B554C",
"I  c #3B5B4B",
"U  c #324E52",
"Y  c #385557",
"T  c #3D5B50",
"R  c #3A6B4B",
"E  c #3B6756",
"W  c #034865",
"Q  c #145468",
"!  c #035577",
"~  c #27576B",
"^  c #355663",
"/  c #276670",
"(  c #465845",
")  c #435B4D",
"_  c #4A5E4C",
"`  c #425C51",
"'  c #475957",
"]  c #525950",
"[  c #486446",
"{  c #4D644C",
"}  c #56674A",
"|  c #477646",
" . c #5B7748",
".. c #456254",
"X. c #4B6454",
"o. c #4B6A54",
"O. c #4D6659",
"+. c #4C6A5C",
"@. c #546555",
"#. c #536B55",
"$. c #5A6955",
"%. c #546B5B",
"&. c #5B6D5C",
"*. c #4B7358",
"=. c #587457",
"-. c #5C715D",
";. c #616A4A",
":. c #637748",
">. c #646A59",
",. c #63735C",
"<. c #687759",
"1. c #757D59",
"2. c #4D5F64",
"3. c #476766",
"4. c #556B64",
"5. c #4E7064",
"6. c #5C7362",
"7. c #577B69",
"8. c #647563",
"9. c #657A64",
"0. c #6C7B64",
"q. c #667868",
"w. c #6B7D6B",
"e. c #757C65",
"r. c #727E6A",
"t. c #677B72",
"y. c #707F72",
"u. c #877E69",
"i. c #5B851B",
"p. c #628C1C",
"a. c #6D991D",
"s. c #5C8529",
"d. c #5B8533",
"f. c #648825",
"g. c #689528",
"h. c #6F962D",
"j. c #678738",
"k. c #779435",
"l. c #78A526",
"z. c #57874B",
"x. c #588859",
"c. c #668249",
"v. c #738E4F",
"b. c #688556",
"n. c #5A8C6F",
"m. c #6B826A",
"M. c #798667",
"N. c #75836B",
"B. c #7A846C",
"V. c #6E966F",
"C. c #668375",
"Z. c #6C8373",
"A. c #738573",
"S. c #768975",
"D. c #778877",
"F. c #7C8A74",
"G. c #7C8C7A",
"H. c #7C9477",
"J. c #75A474",
"K. c #84B11A",
"L. c #8DB52D",
"P. c #828B57",
"I. c #83876B",
"U. c #86906C",
"Y. c #878B76",
"T. c #838C74",
"R. c #978D77",
"E. c #899475",
"W. c #84927B",
"Q. c #8B947C",
"!. c #95947B",
"~. c #97967B",
"^. c #A49279",
"/. c #95A17D",
"(. c #076991",
"). c #036B97",
"_. c #2E768D",
"`. c #0177A8",
"'. c #027DB1",
"]. c #537A88",
"[. c #2C818A",
"{. c #0183BB",
"}. c #3A90A8",
"|. c #778D86",
" X c #68998B",
".X c #79948C",
"XX c #719DAC",
"oX c #008BC7",
"OX c #0491CD",
"+X c #0396D4",
"@X c #029CDD",
"#X c #329FCF",
"$X c #1AA1DA",
"%X c #019FE2",
"&X c #00A1E6",
"*X c #00A4EA",
"=X c #01ABF3",
"-X c #00AFF9",
";X c #16AFF0",
":X c #01B3FE",
">X c #0AB6FF",
",X c #18B8FC",
"<X c #32B4EB",
"1X c #26BBFB",
"2X c #57AACE",
"3X c #66B2D3",
"4X c #34C2FF",
"5X c #54D5D6",
"6X c #4EC7FB",
"7X c #59CBFC",
"8X c #6ACBF5",
"9X c #61CEFC",
"0X c #77CBF0",
"qX c #65D0FF",
"wX c #6AD2FF",
"eX c #73D5FF",
"rX c #7BD5FC",
"tX c #859481",
"yX c #8A9682",
"uX c #8D9A84",
"iX c #879789",
"pX c #949B83",
"aX c #979C87",
"sX c #9A9C83",
"dX c #909F9B",
"fX c #A79D85",
"gX c #99A388",
"hX c #9BA38B",
"jX c #8DA997",
"kX c #9CA793",
"lX c #A7A68B",
"zX c #A5AB96",
"xX c #ABAD94",
"cX c #B6AB90",
"vX c #A8B196",
"bX c #ABB39C",
"nX c #B2B59C",
"mX c #BAB99D",
"MX c #90AEB1",
"NX c #B4BAA2",
"BX c #B0B8A6",
"VX c #BABCA3",
"CX c #C1B69C",
"ZX c #B5C6B7",
"AX c #C3C4AF",
"SX c #8FBAC8",
"DX c #98C6D4",
"FX c #AACDD1",
"GX c #9AD6EA",
"HX c #83DAFF",
"JX c #B0DCE8",
"KX c #B9E9F7",
"LX c #C0E5ED",
/* pixels */
"p w f g > 0 < : 4 < 8 0 : O 0 8 O < < 0 8 a.i.1 s K.p.s < < < < 0 w : : 0 9 : 9 f 1 < < u 1 6 o o 3 ",
" .R.R.R.R.U.e.y E f U.I.e.>.>.>.>.: f 1.M.p.s. .j.a.l <.y 2 c Y.I.M.e.g T.M.e.8.} 8 8 x h o.[ I 9 1 ",
"u.fXcXlXlXxXsX_ p ;.fXfXR.R.R.Y.u.r g sX!.:.Q.T.M. .,.Q.N.r e.!.E.I.M.<.Q.I.B.y.w.9 x m. .q.&.X.I , ",
"e.lXcXnXxXxXsX] c ;.fXfX^.~.Y.Y.e.r ( ~.!.M.W.B.N.,.S.F.m.9 ,.T.M.U.T.B.0.r.A.r.8.9 x.m.uX#.+.) F 4 ",
"<.~.nXnXbXvXhX} d c lX^.Y.u.I.>.g r { sXsXT.0 ( } ( h -.P 7 : _ Q.T.B.B.,.w.8.6.O., v A.m.-.O.L 5 t ",
";.Y.nXBXbXxXhX&.d d 0 g > 0 0 w 0 f h B.E.T.m.E.W.F.F.S.m.0 [ yXB.B.N.w.$.@.<.N.r 6 c.<.O.` I e 5 | ",
"} nXbXbXzXzXkX} b mXmXmXAXmXmXvX1.b b I.I.M.<.T.F.B.G.A.q.e $.N.0.r.w.,.r.r.8.6...8 s.V.{ K K *.z.v.",
"( Q.yXiXG.q._ r c AXVXmXmXmXNXVX$.j c N.N.0.W.F.A.G.S.Z.8.F K w.q.q.8.9.0.6.&.@.O.: k v.v.:.b d.p.h.",
"2 w > 0 O 0 2 2 m VXVXVXBXVXBXbX#.x } r.r.4.r.r.m.Z.m.n.7.J 4 D ..) e @.( ( ) P J : <.xXsXpXT.]  .d.",
"d P.P.u.u.u.u.k m CXVXVXBXBXBXbX{ x h { ) : 9 : 9 t e e J 4 % % % % # : # # # % 5 7 e.bXlXsXuXG.H.y ",
"m CX^.^.^.R.u.;.} bXxXnXbXbXnXzX( j j.y f b j.p.p.z k c } b m  .h f a 2 f f f f 2 p I.aXaXuXiXD.6.r ",
";.CXcX^.^.fXu.g f kXhXhXgXvXkXiXy p k.k.l.P.k.k.k.f.E.VXnXNXzXAXnX0.k u.cXfX^.^.( p b.aXuXuXtXD.S.e ",
">.^.R.pXR.R.u.r 0 ( h ] _ h r r e j mXxXcXlXlXcXAXtXFXLXKXKXKXLXLXJXFXFXAXfXu.u.;.w >.pXyXD.tXA.Z.F ",
"@ > >.R.yXu.e.g p j h h g g 0 1 3 c VXVXlXfXaXdXSXSXFXGXJXKXKXKXJXJXGXFXDXSXdXy.t.>.6.` ( 2.' ) P e ",
"&   > I.Y.Y.@.g h mXmXlXsXbXgX>.2 b nXzXkX|.^ C Z Z U ^ ].XXDX3X].^ C B C B C B Z Z H H Z U C = , ( ",
"g ] ] ] ] ( r O c cXlXlXxXlXlX<.2 h H B , = {.@X<X3X2X#X(.B = X * (.`.OX@X+X@X+X#X2X3X2X2XOX{.`.Q H ",
"d k f c h c k a b E.!.xXzXzXgXU.k ' N oXV ! -X>X9XeX9X1X:X*X`.B V ).`.@X=X>X:X:X6XwXHXeX7X,X+XQ , H ",
"n ~.CXlXlXfXT.f $.( bXzXzXgXuXG.] & +X@XN {.:X4XqXrX9X4X:X:X,X6X_..   N oX-X-X:X6XwXHXrX7X$X* 4.O.e ",
"1.CXfX~.~.R.,.w I.lXD.zXgXuXyX.X= `.*XOX* *X>X6XwXeXqX4X:X>X6XwXHX].C ].= oX-X1X9XrXHXeX7XQ > t.P @ ",
">.zXgXpX!.W.9.y uXlXhXuXuXiX>   W '.W . . {.1XqXrXqX4X>X:X,X9XrXHX0X^ ].XX& oX<X9XrXHXeX7X_.V N > ' ",
";.aXaXuXyXG.6.( { ,.K : 6.K ) 3.B W ! `.(.* _.2XHXwX,X:X:X4XqXHXrX9X}.^ GXXXB ~ 2XrXrX8X6X;X*XOXV   ",
"} e.uXyXH.G.%.h =.K r 3 w 9 K ' (.&X@X{.{.`.W ; U / ).).).`.}.2X0X7X$XB GXKXSX3.C Y ^ ~ ~ W V B Z 3.",
"f ( &.-.<.6.) l h.k.v.f.d k :.Z `.&X(.~ / (.@XOX).! W W W W V = B _.OXN SXKXKXKXMX|.|.S.|.w.0.F.b.m ",
"p k d p h.v c.h.l.K.v.v.<.I.BX; oX%XS 5X5X}.(.-X-X=X<X;X;X;X<X$X`.M M * SXKXJXdXb d.v.m.W.,.yXQ.Y.q.",
"c lXU.z v.k.j.j.L.l./.lXgX<.aXC oX&XQ ~ 5X_.V -X-X-X7XwXqXwXqX4X=X(.    dXSXX.z p.h.U.uXQ.,.F.W.W.6.",
"0.pXpXU.c vXvXV.x lXlXgXgXM.$.H {.*X! [.S {.&X:X:X:X7XeXeXeXqX1X-XW   @ jXb z f.n p.m.W.G.yXF.A.A.&.",
"{ W.m.[ -.kXgX[ 0.vXgXgXb.N.!.] Q =X@X(.@X:X:X:X:X:X1XwXwXwX6X>X&X* 2.MXlXaXQ.W.T.<.h %.8.tXS.A.Z.[ ",
"h F.F.N.y ( 0.E.0.T.b.H.1.hXsXD.* &X,X,X:X:X-X=X:X:X:X,X4X4X>X:X+X+ iXkXaXaXQ.G.y.&.*.o.6.G.Z.C.Z.P ",
"r ` I r 6 <.sXQ.N.M.vXlXlXE.!.yXP (.7X9X1X=XoX`.:X:X:X:X:X:X:X-X! 2.kXhXuXtXG.S.A.O.j v.:.=.x.o...x ",
"w 1 0 h k b.T.I.N.vXvXzXkXpXW.I.q.@ 2X8X<X'.V +X:X:X:X:X:X:X:X{.@ |.iXuX.XG.A.m.@.r j i.h.v.c.j.d.s.",
"b sXE.E.U.} B.e.} { gXkXgXtXF.N.q.( @ / * N oX:X:X:X:X:X:X:X+X* ' H ) 6.6.=.o.[ y w m lXhXQ.T.W.kX) ",
"} pXR.sXM.h e.0.H.E.=.W.tXG.A.q.$.4.> . ).*X:X:X:X:X:X:X=X{.* ..n 2 2 2 s l.L.d i.i.Q.Q.Q.T.A.A.A.H ",
"e.fXr.>.{ w r A.N.r.9.{ A.m.m.&.H % D ' @ N `.oX&X*X+X`.V C .X}  .lXE.U.M.:.M.b.=.j N.W.W.F.A.w.Z.P ",
"<.Y.Y.Y.<.0 w 8.w.9.$.) ) L , % o < 3 d b.X.H = B ^ ^ 4.t.t.&.j W.B.M.m.q.$.W.-.X.7 9.W.G.A.Z.Z.C.T ",
",.Y.F.A.0.y s K +.O.K e X # O y :.c.c.c.n M.pX>.y.A.D.6.@.%.O.r -.r.0.9.6.) K #.) : 6.S.S.Z.Z.C.S.J ",
",.F.D.A.=.y b q - - # o 1 f E.lXpXaXQ.Q.f } Y.T.<.8.>.@._ ( G : { q.-.#...8.` ..K $ e ' +.O.+.K D J ",
"_ 8.w.m.} s.f.d q 7 u d i.v.xXpXQ.W.F.w.r c Y.,.>.>.@.@._ ' F # K O.%.9.6...R o.F # 1 2 y r r 9 6 6 ",
"w r y x b f.P./.gXsX!.<.z :.uXY.G.F.A.9.: [ y.&.&.@.) +.O...U % 7 I 6.+.` E E J D 5 l  .q.%.` E J 8 ",
";.zXQ.W.H.x lXsX~.pXuXaX0 c W.D.A.Z.A.9.9 h 6.@.X._ ` , T P J 5 l I +.5.T Y J A 5 t z.[ @...` L L - ",
"m.yXN.t.&.y !.Q.Q.W.tXG.: ( D.A.Z.C.C.5.y w E ..) P H D - D J J V. X+.E L L J A R d. .#.` T L F D % ",
"R q.6.6.) y tXW.W.G.S.Z.: 0 X...%.4.+.T w i 5 Y Y J J 5 $ 4 5 t x.V.V.n.E R R x. Xd.*.*.e J F D t q ",
"7 I I I [ [ H.G.D.G.Z.C.: l 1 7 : 6 : : 3 l % 5 A J 5 5 t 3 i s.g.V.z.d.s.g.l.l n.x.y 6 8 w 4 t u s.",
"p z b z i.b G.S.A.Z.t.C., :.hXQ.W.N.w.6.o.w l 7 4 o q l i.d.Q.E.U.=.tXW.H.<. .#.E q z j.j.s.l l z s.",
",.uXzXT.x j 7.6.+.C.7.L - N.B.0.&.#.X...) 9 x.<.m.M.0.v l <.W.r.9.[ 9.9.=...` P J % =.B.N.9.N.Z.6.y ",
",.gXr.8.[ w : e e L *.A 4 ,.m.&.@._ ` P L $ } H.H.S.A.o.1 ( 8.,.$.-.o.#.` ) H H J $ $.m.0.&.X...` ; ",
"( F.8.&.K ,.x l n.R K R l ( 8.@.` ` P U G % { G.G.A.A.+.8 r &.%.@.X.r P P L L J A 4 $.9.&...` P L e ",
"( ) &.X.9.6...[ | x.ZXn.v  .&.) P L H F D - ( G.Z.m.t...8 [ y ..) U G F L J J A 4 y ( X.` ` P L J 5 ",
") %.r m.5...T L K *. X XR o.+.T L F D D ; % { |.Z.C.t.I w K +.K G e C e F D J A E x...` P P L U J 5 ",
"q h u 5.T U J J R x.J.n.x.i 5 5 5 5 5 e y q C.5.3.%.+.J v r D D ; 5 A A - t t R  Xz.t 5 5 F e D J 5 ",
"i.i.u 7 E 7.E *.z.d.h.z.V.l < 4 $ % o 4 7 j  .5.E E T o.d.w $ $ # # $ % 4 p.a.p.d.z.u 4 4 q o 4 q u "
};
