/* XPM */
static char *out[] = {
/* columns rows colors chars-per-pixel */
"64 64 244 2 ",
"   c #0A0E0D",
".  c #0F0E15",
"X  c #0E1213",
"o  c #0F131D",
"O  c #131B14",
"+  c #131518",
"@  c #11141B",
"#  c #151C1C",
"$  c #191F1D",
"%  c #2C181A",
"&  c #1A2B11",
"*  c #1B2718",
"=  c #1B241C",
"-  c #243C0F",
";  c #22291C",
":  c #25371B",
">  c #150E23",
",  c #151727",
"<  c #191F21",
"1  c #171B37",
"2  c #251C2D",
"3  c #1B2224",
"4  c #1E2923",
"5  c #1E2429",
"6  c #1D2532",
"7  c #232C24",
"8  c #21262A",
"9  c #22292C",
"0  c #2B282A",
"q  c #362825",
"w  c #293524",
"e  c #363A27",
"r  c #27243A",
"t  c #303235",
"y  c #48281A",
"u  c #582C14",
"i  c #4E3213",
"p  c #583515",
"a  c #65310F",
"s  c #673516",
"d  c #733C13",
"f  c #733E1F",
"g  c #473628",
"h  c #4F312A",
"j  c #5A3724",
"k  c #673728",
"l  c #7D3829",
"z  c #294717",
"x  c #294A10",
"c  c #2D5717",
"v  c #335919",
"b  c #39650F",
"n  c #38780B",
"m  c #366715",
"M  c #3D7515",
"N  c #394729",
"B  c #385328",
"V  c #324931",
"C  c #3B6423",
"Z  c #584416",
"A  c #4E5115",
"S  c #7A4516",
"D  c #6C5018",
"F  c #477B0C",
"G  c #4A6619",
"H  c #566811",
"J  c #477812",
"K  c #707619",
"L  c #474A28",
"P  c #46562A",
"I  c #534F31",
"U  c #465632",
"Y  c #794728",
"T  c #774A39",
"R  c #665736",
"E  c #6F5331",
"W  c #4F6F27",
"Q  c #4C6436",
"!  c #536636",
"~  c #546B3A",
"^  c #596E3C",
"/  c #587538",
"(  c #5B743E",
")  c #727030",
"_  c #1C1C43",
"`  c #231C47",
"'  c #1D264B",
"]  c #262549",
"[  c #31314E",
"{  c #3B3549",
"}  c #272858",
"|  c #35375A",
" . c #292A69",
".. c #2A3268",
"X. c #343866",
"o. c #292B77",
"O. c #292C74",
"+. c #2D3377",
"@. c #373B76",
"#. c #42374B",
"$. c #453B57",
"%. c #433E65",
"&. c #305847",
"*. c #39456F",
"=. c #2D756E",
"-. c #4E534B",
";. c #70534C",
":. c #5C7842",
">. c #766D4B",
",. c #617D42",
"<. c #514D65",
"1. c #43457A",
"2. c #5B5D77",
"3. c #675D69",
"4. c #496E69",
"5. c #6E6368",
"6. c #6E6E71",
"7. c #787475",
"8. c #864715",
"9. c #8F5118",
"0. c #975819",
"q. c #A75A18",
"w. c #976B1E",
"e. c #A8671C",
"r. c #B46A1C",
"t. c #BA741E",
"y. c #8A5327",
"u. c #956627",
"i. c #8E712F",
"p. c #A66D23",
"a. c #A97425",
"s. c #B57825",
"d. c #AC7E36",
"f. c #C17920",
"g. c #8C7151",
"h. c #A27E45",
"j. c #AB785A",
"k. c #887B6C",
"l. c #AE7C62",
"z. c #3A8509",
"x. c #328D08",
"c. c #359500",
"v. c #3B9600",
"b. c #379A01",
"n. c #3C9A00",
"m. c #3EA100",
"M. c #43850C",
"N. c #498509",
"B. c #438B0B",
"V. c #439504",
"C. c #439D00",
"Z. c #499D02",
"A. c #43930A",
"S. c #489609",
"D. c #4C9B0A",
"F. c #55960B",
"G. c #488515",
"H. c #568910",
"J. c #4B9715",
"K. c #539A17",
"L. c #6F8A18",
"P. c #689618",
"I. c #45A100",
"U. c #4BA301",
"Y. c #4DA801",
"T. c #4DA109",
"R. c #51A601",
"E. c #55A707",
"W. c #53A901",
"Q. c #54A217",
"!. c #568B27",
"~. c #46962F",
"^. c #589627",
"/. c #5D8B36",
"(. c #5D863B",
"). c #5D9233",
"_. c #6C912C",
"`. c #63883D",
"'. c #628B3E",
"]. c #649638",
"[. c #69A531",
"{. c #388F56",
"}. c #288F72",
"|. c #5B825E",
" X c #658444",
".X c #698646",
"XX c #658942",
"oX c #6A8946",
"OX c #6D9242",
"+X c #878636",
"@X c #908E30",
"#X c #AE8930",
"$X c #A3933B",
"%X c #BA993B",
"&X c #C78725",
"*X c #CF8F2E",
"=X c #CE932D",
"-X c #D8982A",
";X c #CC9A37",
":X c #CAA139",
">X c #DBA435",
",X c #E2A32C",
"<X c #E5A934",
"1X c #E4A935",
"2X c #E8B23D",
"3X c #908A46",
"4X c #AD8C44",
"5X c #988977",
"6X c #AC8D71",
"7X c #B59B75",
"8X c #CA9751",
"9X c #CBA444",
"0X c #D6AF4D",
"qX c #E6B646",
"wX c #EEBA44",
"eX c #E6B348",
"rX c #CC9976",
"tX c #D6AE70",
"yX c #E7B264",
"uX c #EFC04A",
"iX c #F2C34D",
"pX c #EDC556",
"aX c #F3C855",
"sX c #F4CC5A",
"dX c #2E3486",
"fX c #313888",
"gX c #333B94",
"hX c #3B4185",
"jX c #747684",
"kX c #1D939B",
"lX c #5D9394",
"zX c #8D928E",
"xX c #A69B8B",
"cX c #B3AB9A",
"vX c #B5AD9E",
"bX c #ACABA5",
"nX c #B7B3A7",
"mX c #C2A791",
"MX c #D3B090",
"NX c #E6BA8E",
"BX c #D6C8B2",
"VX c #E9C7A8",
"CX c #E4D0B2",
"ZX c #DFD5C5",
/* pixels */
"W.Y.Y.U.U.R.W.W.R.U.Z.Z.Z.I.U.U.I.C.v.n.U.Y.E.Q.!._.i.i.@X+X+X+X3X3X3XOX[.[.E.F.V.n.I.R.C.V.C.n.v.c.c.c.C.C.V.n.Y.Y.I.C.v.c.I.U.",
"Y.Y.I.I.U.Y.R.R.I.I.C.C.Z.C.I.C.C.n.n.Z.F.P.P.L._.+Xi.$X@X$X$X4X$X$X$X3X$X@XL.P.G.B.Z.U.C.C.V.n.v.c.c.c.C.C.n.C.Y.R.Z.n.v.v.I.I.",
"I.I.n.C.I.R.I.C.C.C.C.C.C.C.C.n.v.n.C.D.L._.@X@X@X4X4X0X%X:X:X:X%X9X0X0X0X%X#Xi._.J.D.C.Z.C.V.v.v.v.v.C.Z.C.C.C.U.Y.C.v.v.n.I.I.",
"I.I.n.n.Y.U.I.n.n.n.C.C.C.V.n.n.v.V.F.P.@X#X#X;X4X9X0XqXqX2XqX2XqXqXpXsXuX>X*X@Xi._.H.S.I.C.v.c.c.v.C.I.C.C.C.C.I.Z.C.v.n.n.n.I.",
"m.I.U.Y.W.Y.I.C.n.C.I.I.C.V.V.C.Z.F.L.@X%X9X:X2XpXpXsXsXpXpXpXpXaXaXsXsXaXuX2X;X#XK L.J.D.n.c.c.c.v.C.Z.C.C.v.c.n.n.C.n.m.I.n.I.",
"I.U.W.W.Y.Z.Z.C.C.I.I.C.n.V.C.V.F.P.@X%X9XqX2X2XaXsXsXsXaXiXsXaXaXsXsXsXaXiXuX>X=Xa.i.L.F.C.c.c.c.v.C.I.C.C.n.n.m.I.n.m.I.n.C.n.",
"W.W.W.W.C.C.C.C.I.m.n.b.v.C.C.S.F.L.@X:X>X1X,X,X2XuXuXuXuXiXiXiXiXiXiXiXuXwXqX2X-X&Xa.K F.D.n.v.b.n.I.Y.I.C.I.Y.U.U.I.n.m.n.v.v.",
"W.W.W.W.C.n.C.C.I.C.n.v.v.n.C.S.F.@X#X=X:X-X-X-X<X<X<X2X2X2XwXuXwXuXuX2X2X2X2X>X,X&Xa.w.L.F.V.C.n.I.Y.Y.I.U.W.W.W.U.n.n.b.v.b.v.",
"U.Z.W.W.C.n.V.n.C.C.U.Z.n.n.C.S.H.K #X&X&Xt.&X&X&X-X-X-X<X1X2XeX2X2X<X<X,X,X,X-X-X&Xf.r.w.H.D.Z.I.I.I.Y.W.W.W.W.W.Y.C.n.n.v.v.c.",
"C.Z.R.W.Z.C.n.V.C.U.W.W.C.C.C.V.N.K w.e.e.e.e.&X&X*X*X-X-X>X>X>X<X<X,X,X,X-X-Xf.f.f.t.r.K K F.R.I.I.Y.Y.W.W.W.W.W.U.C.C.C.n.v.c.",
"V.Z.W.W.Z.n.v.n.Y.W.W.W.R.I.C.B.F K D 9.0.w.e.t.-X-X*X*X1X1X*X&X,X,X,X,X,X-Xf.f.r.r.r.e.8.D H.R.Z.I.R.R.W.W.R.R.Z.U.R.U.Y.C.v.c.",
"C.C.W.W.Z.C.V.C.R.W.W.W.R.Z.Z.V.N.H D 8.0.0.0.w.*X-X#X&X>X>Xs.t.-X-X-X-X-X&Xf.r.r.r.q.0.d Z H.Z.Z.U.Y.W.W.W.Y.I.C.Z.R.W.U.C.v.c.",
"C.C.I.U.R.W.Y.U.W.W.Y.U.Z.C.I.S.N.H Z S e.r.0.0.a.s.a.s.*X*Xr.q.f.&X&X&X&Xt.r.q.q.q.0.8.a Z F Z.Z.I.I.I.C.C.C.C.V.C.U.U.C.v.n.n.",
"C.C.C.Z.R.W.R.Y.U.U.I.I.C.C.Y.R.N.H Z S a.a.8.S 0.0.9.e.f.f.0.9.q.e.e.e.e.r.q.q.q.q.8.S a A N.C.C.C.I.C.n.n.C.C.v.n.Z.Z.v.v.V.C.",
"U.U.I.Z.Z.I.Z.Z.C.C.n.m.n.I.W.W.D.F A D u.w.d a d d d S y.l d a S S S 8.9.q.q.q.q.0.8.a i A z.C.I.I.I.n.v.v.Y.I.n.v.C.C.C.C.C.C.",
"I.I.I.Z.C.C.C.C.n.v.n.v.n.I.W.W.U.N.W D i.u.Y j s s s k l l s u u u a a 8.8.0.q.q.8.a a A b B.C.U.I.C.n.v.n.I.I.V.v.V.C.C.C.C.C.",
"Z.I.U.C.n.v.C.C.n.n.v.v.I.I.Y.Y.I.S.G.) i.i.;.T T l k l l l k k h k k s d 8.8.8.0.8.p i G G.A.n.I.I.C.n.v.n.I.Y.C.Z.I.I.Z.I.I.U.",
"C.I.I.C.v.c.C.I.I.n.n.n.m.I.Y.U.I.S.J.!..Xg.g.g.g.g.;.;.l ;.;.;.g.y.T l f d a d S S p Z J J.n.n.Y.I.n.v.n.n.I.I.Y.I.U.I.C.C.I.I.",
"I.Z.I.C.c.c.I.U.I.I.C.n.n.C.Y.Y.U.V.S.H.) g.6XmXmXl.g.g.5.6.k.k.6Xl.l.g.l s a a a s Z G N.S.C.I.Y.U.C.v.C.I.C.C.C.Z.I.C.C.C.Z.C.",
"R.Y.I.C.n.n.U.Y.I.C.C.C.n.n.I.I.C.V.V.N./ >.rXMXNXmXk.k.k.zXbXbXMXMXrXl.T k u u u Z A J N.V.C.C.Y.I.C.C.I.I.n.C.C.Z.I.C.I.I.I.C.",
"R.R.W.W.Z.I.Y.I.C.n.C.V.v.v.n.n.A.v.v.M.W .XrXMXVXmXzX6.lXbXBXBXVXNXmXl.T k u u Z A G.B.A.n.v.v.C.U.I.C.C.C.C.C.n.I.I.Y.Y.U.I.I.",
"Y.R.R.W.I.I.I.I.n.n.n.n.c.c.n.C.v.v.v.M.J >.xXNXVXMXzX7.bXnXZXZXCXNXMXl.T y y i L G N.C.C.v.c.c.C.I.U.I.n.n.C.Z.m.m.I.Y.W.Y.I.I.",
"C.Z.C.C.m.m.I.m.C.n.n.n.v.n.Z.I.Z.V.D.H.R i.6XtXNXNXxXxXnXBXZXZXVXNXrXj.T y y i L W B.C.C.v.c.c.v.n.C.C.n.n.C.I.n.n.C.I.Y.Y.m.n.",
"C.C.n.n.v.n.n.n.n.C.V.C.n.I.U.U.S.B.N.J A T j.rXtXtXtXmXMXBXCXCXNXMXrXj.T u y y e v M B.C.C.v.b.c.c.C.C.V.n.I.I.I.m.C.I.Y.Y.m.n.",
"C.C.n.n.b.b.v.n.n.n.n.C.U.U.Y.Z.S.M.v N e I u.h.8X8XyXtXyXNXNXNXrX8Xj.u.y.l h q ; : v J A.I.I.b.n.v.n.C.n.I.I.I.I.I.I.I.U.U.m.n.",
"C.C.I.n.v.v.n.C.V.V.V.V.U.R.Y.Z.B.m z : 7 g y.d.;X8X9X0XyXyXyX0X8X*Xp.y.l k y q = * z B F S.Z.C.n.v.C.C.C.n.m.I.I.I.Z.U.R.U.m.m.",
"I.m.n.n.I.I.I.C.C.C.C.C.Z.U.U.V.n c : 5 9 g u.s.s.d.&X9XeXeX9X*Xr.y.l k h h q 2 3 = * : v M S.C.n.n.I.m.n.n.n.n.n.C.I.R.W.R.I.m.",
"I.I.n.I.I.I.C.n.Z.C.V.n.C.Z.R.B.m z 7 5 9 e y.p.p.a.s.#X;X;Xf.e.l l k h h h r 2 3 3 # * : v z.S.n.n.I.I.m.n.v.v.n.C.Z.R.W.W.Y.I.",
"n.n.C.Z.U.I.n.n.C.Z.C.V.Z.R.F.N.x : 7 9 9 e Z Y y.p.i.d.s.p.0.S u % q 0 r 0 9 9 3 3 3 # O - M z.c.v.I.Y.U.I.v.n.C.I.C.C.W.W.W.Y.",
"C.C.Z.U.R.I.n.v.I.U.C.C.U.Z.F.F - * 7 9 9 0 e Z D Y y.u.h.u.Y j % + < 5 8 8 8 8 3 3 = o   & b z.x.v.I.U.I.C.v.n.C.C.n.V.R.W.R.R.",
"R.Y.U.U.Z.C.c.v.I.R.Z.U.W.S.F c : 3 5 9 6 9 7 0 q e j E j.j.;.g q , 5 8 9 8 3 < 3 3 3 # X & c n x.v.C.I.v.b.v.n.C.C.n.n.C.Z.U.U.",
"W.W.Y.Z.C.C.c.v.Y.Y.Z.I.W.F.b z = 3 5 5 3 3 3 5 5 r t ;.zX5X<.{ r 1 6 9 9 5 < 3 3 3 3 = O O - c z.v.C.n.v.c.v.n.n.n.n.C.C.U.I.U.",
"W.Y.C.n.C.n.c.v.C.Y.C.Z.Z.M.x & 4 3 3 3 3 , o , ` [ #.5.xXcX3.| ] ' 6 6 4 3 3 3 5 3 3 3 O O & - x.c.n.C.n.n.n.n.b.v.n.C.U.R.Z.C.",
"Y.I.n.b.n.n.v.v.I.I.I.C.F.F - * 4 3 3 3 = , o 1 }  .#.5.vXbX2.| } ' 6 4 # 3 3 3 3 3 , # O o X & n c.Z.C.I.n.n.n.n.v.n.C.I.Y.I.C.",
"Y.I.b.b.v.v.v.v.n.I.I.V.N.b & O 3 3 3 3 < @   , } @.$.5.vXbX2.X...' 1 o < 3 < < o # # # o o o : M J.D.I.n.n.n.n.n.C.I.I.n.v.C.C.",
"Y.I.m.b.n.n.c.b.b.m.C.Z.N.b z * * 3 4 3 3 # O 6 } @.$.5.nXbX2.X.*. .1 o , 3 # o 3 # o o 1 1 1 9 C G.D.I.m.n.m.m.I.I.I.Z.v.b.n.C.",
"R.U.m.m.C.n.b.b.b.m.I.I.V.F m c z : 4 3 # * : V X.@.#.5.vXbXjX@.+...' o o o o O 4 4 # 1 } ....[ V m B.C.C.Z.I.Y.C.C.C.V.n.C.C.Z.",
"Y.I.m.b.C.C.v.v.n.I.U.U.Z.A.z.M m B z : * ; B V @.@.#.5.vXbX2. .hXdX' _ 1 , o O z z 4 1 ..fX+.X.V v M.Z.Z.C.I.U.I.C.v.v.C.C.Z.C.",
"n.v.c.b.C.I.C.C.C.I.W.W.R.Z.V.B.z.M W B N e P -.*.@.$.5.vXvX5.%.hXgXO.} ' _ o * c c w ] O.fX@.X.t c z.C.C.C.n.C.C.C.n.v.n.n.C.C.",
"v.v.v.n.C.I.C.C.U.Y.W.W.W.W.I.C.T.J.!.~ U L P U *.1.$.5.vXvXk.<.hXdX+.o.O.} 1 4 c m e t 1.1.*.| t c z.V.V.n.n.n.C.C.v.v.n.C.C.I.",
"n.C.Z.I.C.C.C.C.U.R.U.Y.R.W.R.U.D.z.W Q R R I L %.X.#.3.cXnXzX3.*.dXo.o.o.O.` 0 v m N -.6.7.4.<.w z z.V.n.v.n.C.U.Z.v.v.V.Z.U.W.",
"C.C.U.R.Z.C.C.C.I.Y.Z.C.U.Y.R.Y.I.G.P R g.g.;.g [ $.#.;.xXmXxX7.*.o.o.o.dX+.} { B W I g.5XzX7.4.V z n n.v.v.n.I.R.R.C.V.C.U.W.W.",
"Z.I.U.Z.R.R.Z.Z.I.Z.I.I.I.U.W.R.I.G.P R h.4X) I #.] { <.zXxXzX7.*.o. .o.dXdX .[ V -.g.7XMXnXlX=.&.&.z.A.n.v.v.I.W.W.I.Z.U.R.U.R.",
"R.U.U.R.W.W.U.Z.C.C.Y.U.I.I.Y.I.n.G.P E h.4Xi.I q r ] <.jXjXk.6.@.o.o.+.gXfXO.} #.;.5XtXMXnXzXlX}.&.z.S.C.v.v.C.W.W.Z.I.Y.Y.U.Z.",
"W.W.R.Y.Y.Y.C.n.n.m.U.Y.Y.Y.I.C.C.M.G I i.i.R g % 2  .@.hX<.5.<.X.o.dXgXgXdXO.} { I g.7X6XzXlXkXkX}.x.J.I.C.n.m.I.C.C.n.C.C.I.Z.",
"W.W.W.R.I.C.v.v.n.I.U.Y.Y.U.C.C.v.M.G D R R g q > 2 } X...| { {  .o.dXgXgXdX .` r h g.k.5X|.kXkXkX}.~.J.T.I.n.n.C.n.n.n.C.C.I.Z.",
"Y.Y.W.W.C.v.c.v.I.U.I.I.C.C.n.n.V.B.G.W ! I q % > > 1 _ 6 1 5 2 _ } dXgXdXO.` 2 0 e R E g.6.=.kXkX{.~.Y.U.I.m.b.n.C.C.C.C.C.U.U.",
"I.I.Y.Y.C.b.b.v.I.Y.C.C.C.C.v.v.Z.J.P.!./ U q ; + o 1 , , , o o 1 _ O.o. .} ` 0 e L L R ) >.=.=.{.~.Q.Y.U.m.b.n.n.C.C.I.I.Z.I.I.",
"C.I.I.I.C.n.c.c.I.U.I.C.C.C.v.n.J.Q.[._.oX:.U 0 < # < 6 , # # # > , ` ` ` ] t V U ! ! R ^ :.:.{.~.J.T.U.Z.C.n.n.I.I.I.U.Y.I.I.n.",
"C.C.I.I.I.n.v.b.C.I.C.I.C.C.n.J.K.[.[.[.oX:.U e 5 3 8 8 3 < 3 o + > > , 2 0 t U :.,.( ^ ^ :.:.).A.Z.T.I.C.C.C.C.I.I.U.Y.I.U.I.m.",
"I.I.Y.I.I.C.v.b.v.C.C.C.R.T.J.K.).].OXOXoX,.~ L 7 3 3 5 3 3 3 # O + + . > $ q L :.,.,..X,.,.'.^.K.U.U.I.C.n.C.C.U.Y.U.I.I.n.I.I.",
"n.I.Y.Y.U.C.v.n.n.n.n.I.U.D.K.~.'.XXoX.X>.`.~ U w 3 3 3 3 3 = # + .     + # ; N ^ .X.XoXoXoX).^.K.T.T.C.V.n.V.Z.Y.W.U.C.n.C.I.U.",
"v.C.R.W.I.C.n.n.I.T.C.n.Z.J.!./. X XoX.X X,.Q N 7 # 3 5 3 3 3 @ X   + + + O = w ! ,.,. X.XoXXX/.^.K.V.n.n.C.C.Z.W.W.U.I.I.I.Y.U.",
"v.I.Y.R.C.n.m.I.Y.Y.I.C.C.S.!./.(. X X X^ U B e = O < < 3 < 3 #     + # # # O : U ( ,.,. X.X X'.).^.S.C.v.C.Z.Y.W.W.I.I.Y.Y.Y.I.",
"I.I.I.C.n.v.I.Y.W.W.Y.C.C.A.^./. X X X~ N : : ; = < < < < # @ X     X $ $ # # ; N ! ,..X.XoX.XXX/.^.D.C.v.n.Y.W.W.U.U.I.U.Y.I.I.",
"Y.U.I.n.v.v.I.I.Y.W.Y.I.n.V.!./.(. X:.Q : * * = < < $ < < o X     X + # $ $ # * w U :..X.X.X XXX/.^.T.T.v.n.Y.E.Y.I.U.U.U.I.I.m.",
"W.R.C.n.C.n.m.m.I.Y.Y.I.n.A.!./.( (.:.Q w 3 7 9 3 3 < < $ +     X @ # $ < $ # $ * : ~ .X.XXX.X X/.^.T.U.n.I.W.W.R.R.R.R.Z.C.C.n.",
"W.Y.C.n.C.C.b.b.m.I.Y.W.C.A.!./.(.:.:.Q w 5 9 9 5 3 < $ # +     X # # $ 3 $ # O + : ~  X.X XXXXX/.^.Q.U.m.I.W.W.R.R.R.R.U.C.n.n.",
"U.Z.n.C.Z.Z.C.n.I.I.W.W.V.v.J.!.'. X XQ e 4 3 3 3 < < $ * O     X O O # $ $ O O * N :. XXXXXXXXX).^.E.U.m.I.R.W.U.U.R.R.R.I.C.V.",
"I.C.V.C.Z.R.C.I.m.Y.W.W.T.S.J.^.).(. X^ B t = $ $ $ $ $ ; * * $ * 7 7 ; 7 7 = : N U :. X XXXXX).^.Q.T.U.n.C.Y.W.U.Z.U.U.R.I.C.n.",
"I.I.C.I.U.I.I.C.C.C.U.R.Y.R.D.K.^.).XX X~ B : = O O $ ; t N L N L U U U U U B U :.:.:.XXXXXX).^.J.T.U.I.v.n.U.Y.I.C.I.I.R.U.V.c.",
"C.I.I.I.I.I.C.n.n.C.C.I.Y.R.I.D.K.^.).].'.~ B z 7 : w e U Q ! :.^ ^ ^ ^ ^ ^ ( :.XX].(.'./.).~.^.D.n.C.n.b.b.n.I.C.C.C.I.W.Y.n.c.",
"v.n.I.I.I.n.v.v.v.c.c.v.C.I.I.Z.D.J.Q.^.[.).!.W Q Q Q ! :.,.:.,.:. X,. X X.XXX'.OX].].).^.J.A.v.v.c.c.c.c.c.c.b.v.n.n.I.I.U.Z.C.",
"v.n.I.I.n.v.b.c.c.c.c.c.v.n.n.I.n.Z.Y.T.[.[.]./.(.( :. XoXoX.X X.X.XoXoX.XOXOX].[.[.[.^.J.x.v.v.v.c.x.x.x.c.c.b.b.n.v.C.I.Y.U.U."
};
