/* XPM */
static char *out[] = {
/* columns rows colors chars-per-pixel */
"64 64 251 2 ",
"   c #07080C",
".  c #0B0B0C",
"X  c #0E110F",
"o  c #11170D",
"O  c #0C0D17",
"+  c #150E1B",
"@  c #0E1215",
"#  c #131514",
"$  c #151A13",
"%  c #1B1A16",
"&  c #12141B",
"*  c #151B1C",
"=  c #1A1D1B",
"-  c #2B171D",
";  c #371D18",
":  c #1B2716",
">  c #1C2F10",
",  c #1B231C",
"<  c #23291D",
"1  c #392C1B",
"2  c #25371A",
"3  c #0E0E22",
"4  c #0E1228",
"5  c #161B21",
"6  c #191E21",
"7  c #151528",
"8  c #171637",
"9  c #261D24",
"0  c #241B38",
"q  c #1B2223",
"w  c #1F2529",
"e  c #1A2831",
"r  c #21262B",
"t  c #272A28",
"y  c #352728",
"u  c #2C3422",
"i  c #2D3924",
"p  c #373627",
"a  c #282833",
"s  c #372B37",
"d  c #3F313D",
"f  c #461E12",
"g  c #582A15",
"h  c #4D3015",
"j  c #593814",
"k  c #61310F",
"l  c #663717",
"z  c #733C13",
"x  c #743C18",
"c  c #4F2F27",
"v  c #47372B",
"b  c #593426",
"n  c #46363D",
"m  c #6B372A",
"M  c #2A4716",
"N  c #2D4E11",
"B  c #345617",
"V  c #38690D",
"C  c #3B770B",
"Z  c #396812",
"A  c #3D7413",
"S  c #394929",
"D  c #3A5629",
"F  c #3B4737",
"G  c #3A6B2D",
"H  c #504E15",
"J  c #6A4417",
"K  c #794716",
"L  c #7A5317",
"P  c #476817",
"I  c #457917",
"U  c #507317",
"Y  c #6C6415",
"T  c #667415",
"R  c #727A16",
"E  c #4D4B2A",
"W  c #43532C",
"Q  c #57473A",
"!  c #485A32",
"~  c #704B31",
"^  c #784834",
"/  c #516C29",
"(  c #4C6434",
")  c #526939",
"_  c #58753B",
"`  c #59743D",
"'  c #737033",
"]  c #1C1C48",
"[  c #231D48",
"{  c #1D2354",
"}  c #292549",
"|  c #31324B",
" . c #282657",
".. c #3C3759",
"X. c #1F2961",
"o. c #272A67",
"O. c #393768",
"+. c #282B73",
"@. c #2E3474",
"#. c #44394F",
"$. c #423B64",
"%. c #1D5055",
"&. c #1D746D",
"*. c #534B57",
"=. c #705247",
"-. c #6A5958",
";. c #4E6F4E",
":. c #5D7A41",
">. c #7B664F",
",. c #637E43",
"<. c #53516F",
"1. c #43497A",
"2. c #605A69",
"3. c #70696E",
"4. c #79767C",
"5. c #874815",
"6. c #944D15",
"7. c #875A18",
"8. c #985718",
"9. c #A75A18",
"0. c #876919",
"q. c #9C631D",
"w. c #A8671C",
"e. c #B66A1B",
"r. c #BA731E",
"t. c #855626",
"y. c #89592F",
"u. c #8B6C28",
"i. c #996724",
"p. c #A76C23",
"a. c #AA7726",
"s. c #B77924",
"d. c #C1781E",
"f. c #C37E21",
"g. c #8A5848",
"h. c #89644B",
"j. c #896D52",
"k. c #947A59",
"l. c #A27359",
"z. c #867361",
"x. c #95786A",
"c. c #298F00",
"v. c #3A8707",
"b. c #359500",
"n. c #3B9601",
"m. c #359A00",
"M. c #3D9A00",
"N. c #3E9308",
"B. c #3EA100",
"V. c #3F8931",
"C. c #45830C",
"Z. c #46890B",
"A. c #578B08",
"S. c #439505",
"D. c #4B9607",
"F. c #439D00",
"G. c #499E01",
"H. c #44930A",
"J. c #459909",
"K. c #4B9B0B",
"L. c #539A0A",
"P. c #468614",
"I. c #558A17",
"U. c #4C9714",
"Y. c #519B14",
"T. c #579518",
"R. c #6A8617",
"E. c #64971A",
"W. c #45A100",
"Q. c #4BA301",
"!. c #4EA801",
"~. c #4EA209",
"^. c #51A601",
"/. c #55A706",
"(. c #54A901",
"). c #56A417",
"_. c #67AC14",
"`. c #4E9228",
"'. c #589627",
"]. c #5C8A36",
"[. c #5E9333",
"{. c #709026",
"}. c #61893B",
"|. c #648C3E",
" X c #659538",
".X c #5EA324",
"XX c #66A62F",
"oX c #2B8054",
"OX c #4C8449",
"+X c #658444",
"@X c #688746",
"#X c #668A42",
"$X c #6B8B45",
"%X c #699242",
"&X c #89883C",
"*X c #969133",
"=X c #BA852B",
"-X c #AD9135",
";X c #BBA03A",
":X c #C88726",
">X c #D18E25",
",X c #D49024",
"<X c #D89829",
"1X c #CA9634",
"2X c #D09431",
"3X c #DEA22F",
"4X c #CAA33B",
"5X c #DCA739",
"6X c #E2A42D",
"7X c #E4A936",
"8X c #EAB33D",
"9X c #8B8A40",
"0X c #AA8C48",
"qX c #8E8272",
"wX c #978876",
"eX c #AF8F73",
"rX c #CA9C49",
"tX c #DAA944",
"yX c #D2A94F",
"uX c #EAB947",
"iX c #EEBB44",
"pX c #E6B54F",
"aX c #C7976D",
"sX c #D1AB6E",
"dX c #E5B36F",
"fX c #F3C54E",
"gX c #ECC356",
"hX c #F3C754",
"jX c #F4CC5B",
"kX c #303989",
"lX c #384789",
"zX c #13718B",
"xX c #454F88",
"cX c #178390",
"vX c #368B95",
"bX c #1892A8",
"nX c #629897",
"mX c #969A8C",
"MX c #A59588",
"NX c #B1AB8E",
"BX c #B0AFAD",
"VX c #CFAF8F",
"CX c #E6BC92",
"ZX c #CFBEB1",
"AX c #E7BEA1",
"SX c #D6C494",
"DX c #E8C196",
"FX c #DBC3AB",
"GX c #EBC9AB",
"HX c #EBD0BB",
"JX c #DAD2C5",
/* pixels */
"(.(.Q.W.!.(.(.(.Q.Q.G.G.G.Q.Q.W.F.M.n.M.F.~.L.Y.Y.E.T ' &X&X&X&X9X9X9X9X9X&XXXE.U.D.Q.Q.W.F.F.M.n.b.c.b.F.F.n.M.Q.Q.Q.F.b.b.W.Q.",
"(.Q.W.W.Q.(.(.(.Q.W.F.G.F.G.W.F.F.F.n.F.~.L.L.L.E.{.{.&X0X*X*X0X0X*X*X*X0X*X*X{.R.L.L.^.W.F.M.n.n.b.b.n.F.F.S.F.!.Q.F.F.n.n.F.Q.",
"W.W.B.B.W.Q.W.F.M.M.F.G.F.F.F.n.n.M.M.J.Y.E.*X*X*X*X-X-X4XtX4X1X4X;XyXyXyXyX;X-Xu.R.T./.~.W.n.n.b.n.n.M.G.G.F.F.Q.Q.F.M.b.M.W.W.",
"W.W.F.W.Q.W.F.M.n.M.F.F.F.F.n.n.n.M.G.L.E.{.*X=X-XrXtXtXuXuXuXuXfX8XuXfXjXgXtX1X=Xu.R.T.L.W.n.b.b.b.M.F.G.W.M.B.W.Q.M.n.M.M.F.B.",
"B.W.Q.Q.Q.Q.F.F.F.F.W.Q.F.F.n.S.F.K.)._.*X*X4X5XuXpXgXgXjXjXhXgXfXfXhXhXjXjXfX8X1X=Xu.R.T.G.b.b.b.b.F.F.F.F.m.B.M.F.F.F.F.W.M.W.",
"W.Q.(.(.Q.W.G.G.G.F.W.F.M.M.M.F.G.G.T.{.*X;X3X8XfXhXjXjXjXjXhXjXjXhXhXhXjXjXfXuX5X1Xa.0.R.I.N.M.b.n.F.Q.F.F.M.M.B.M.F.W.W.M.M.M.",
"Q.(.(.(.F.F.F.G.W.F.M.b.b.n.M.F.G.A.A.0.<X3X6X6X8XuXiXpXuXpXiXiXfXfXiXiXfXfXfX8X7X3X:Xa.0.T A.M.M.F.Q.Q.F.F.W.W.W.W.M.M.B.M.M.b.",
"!.(.(.(.F.M.F.F.W.W.M.m.b.b.F.F.W.A.Y R =X3X<X,X<X5X7X7XuX8XiXiXiXiX8X8XiXiX8X3X7X<X>Xs.y.Y A.L.F.F.!.(.Q.Q.(.(.Q.Q.W.M.M.M.b.b.",
"G.^.(.(.F.n.F.S.F.F.Q.F.n.n.F.F.Q.A.Y L =X:X:X:X:X>X>X2X<X7XtXuX8X8X7X7X6X6X6X6X>X>X,Xd.9.0.A.L.F.W.!.!.(.(.(.(.(.Q.F.n.M.M.n.b.",
"F.G.(.(.Q.F.n.F.Q.Q.^.^.F.M.M.F.Q.A.H L q.w.w.r.f.f.f.:X<X<X7X7X7X7X6X7X6X6X6X,Xf.d.f.d.9.0.R A.D.W.!.!.(.(.(.(.(.Q.G.F.F.M.n.b.",
"F.W.(.(.F.S.n.F.Q.(.(.(.Q.G.F.M.W.Z.H l 5.8.7.q.s.1X2X:X>X>X2X4X1X<X6X6X<X<X>X,Xd.e.d.e.9.7.R A.D.Q.(.(.^.^.^.^.Q.G.Q.Q.Q.F.n.b.",
"M.F.^.(.G.F.S.F.(.(.(.(.^.Q.F.M.M.I H j K 5.6.w.s.:X:X:X:X:X=X=X=X:X:X,X,X,X,Xf.e.e.e.9.6.7.Y A.D.Q.Q.Q.Q.G.Q.Q.F.G.^.^.Q.F.M.b.",
"M.S.Q.Q.Q.Q.Q.^.^.(.^.Q.Q.W.W.F.F.C.H j L 8.w.s.a.s.p.r.r.=Xa.a.=Xw.e.r.f.f.f.d.e.9.9.9.z z U U S.F.Q.W.W.W.Q.F.n.S.Q.G.F.n.n.M.",
"F.F.F.G.Q.^.^.^.Q.W.Q.W.F.F.Q.Q.F.C.Z / L 8.w.p.p.i.8.9.w.q.0.8.8.0.8.9.w.w.r.r.9.9.9.6.z k P I S.F.W.W.M.M.F.F.n.n.G.F.n.n.M.F.",
"Q.W.W.Q.Q.G.Q.Q.F.M.M.F.M.W.(.(.G.H.P.U Y i.u.t.K x x x 5.K x m J z z z K 6.9.9.9.9.6.5.k k P C.J.W.F.M.n.M.Q.F.n.n.F.F.F.F.F.F.",
"W.Q.W.F.F.F.W.F.M.b.M.M.M.W.(.(.G.S.D.C.' u.y.y.x l l m m x g g k k j l l z 6.9.9.9.6.5.k H P Z.G.Q.M.M.b.M.Q.Q.F.S.S.F.F.F.W.M.",
"F.W.Q.F.M.M.F.W.M.M.M.n.F.W.!.!.W.F.S.Z.T u.k.l.y.m m =.t.m m g f g m ^ l z 5.6.6.6.5.z g H I J.~.Q.M.m.b.M.Q.Q.W.F.W.Q.G.Q.F.W.",
"W.F.W.F.b.m.F.W.W.M.M.M.F.W.Q.!.Q.F.S.H.I.,.k.x.g.g.j.g.^ ^ g.^ m =.j.h.t.x z K 5.5.z l h P Z.K.!.W.M.b.M.M.F.Q.Q.Q.W.Q.F.F.W.W.",
"Q.W.F.S.b.b.W.Q.F.F.F.F.M.F.Q.!.F.n.n.H.I.{.h.l.eXeXMXwX=.^ x.MXx.x.aXeXl.g.l l z z k H P U H.W.!.Q.F.M.W.F.M.F.F.Q.F.F.F.F.F.W.",
"Q.Q.F.F.n.M.Q.Q.F.S.F.F.M.F.W.W.F.n.n.S.U.[.u.k.VXFXVXwX=.-.MXBXBXVXAXVXl.g.g g k k J H U T.S.F.Q.Q.F.F.F.W.F.F.F.F.W.F.W.W.F.G.",
"^.(.(.Q.G.F.Q.Q.M.m.M.F.b.n.M.F.n.n.b.n.K.T.' l.VXFXVXmX*.<.BXJXAXAXAXVX0Xg.b f g j U U P.J.n.M.W.Q.G.F.S.M.F.F.B.B.Q.Q.!.W.W.W.",
"Q.Q.(.(.Q.W.W.F.M.M.M.M.b.b.F.F.n.n.b.N.K.T.=.l.VXFXZXwX3.3.BXJXHXHXAXVXeXy.c f f h / I.H.N.b.n.F.W.F.F.n.n.F.G.M.B.B.!.!.!.W.W.",
"Q.G.F.M.M.B.B.B.B.M.F.n.n.n.Q.Q.F.S.M.H.T.' ' l.sXGXSXVXwXMXFXHXHXAXAXVXl.^ c ; ; 1 P I.N.n.b.b.m.M.F.F.F.n.G.F.M.m.W.W.!.!.B.B.",
"F.F.M.M.M.M.M.B.F.F.n.S.M.F.Q.Q.F.F.D.Z.I / =.h.eXdXDXVXaXNXDXGXAXAXdXaXl.^ c 1 ; 1 D A Z.H.n.b.b.n.F.F.n.F.W.W.M.M.M.W.!.!.B.M.",
"F.F.F.M.M.n.M.M.M.M.n.F.Q.Q.Q.Q.F.H.P.A B S v ~ 0XyXsXsXyXsXdXCXCXdXaXrXy.^ m b 1 < u D I U.S.n.b.n.M.F.F.F.Q.Q.W.W.Q.Q.^.Q.W.B.",
"F.F.W.B.M.M.F.S.F.S.S.F.Q.(.Q.W.F.v.A B M u v ~ a.-XrXtXtXpXdXdXdXpXf.p.y.m m b y , q 2 D I H.F.M.M.F.W.F.F.F.W.W.Q.Q.Q.^.Q.W.B.",
"W.F.M.M.M.F.F.F.G.F.F.F.Q.Q.Q.~.J.v.N 2 u t p m i.a.s.=X1X1XtXtXf.l.9.m m b b d t w q q 2 N v.n.n.F.F.M.M.n.M.M.M.F.Q.^.(.Q.W.W.",
"F.F.M.M.W.F.F.F.F.F.M.S.Q.Q.Q.G.Z.V 2 , t a s E t.i.p.a.s.:X1X:Xe.6.l g c c c s t w q , : M C S.n.M.B.W.M.n.b.b.n.F.G.Q.(.^.Q.W.",
"M.F.F.F.Q.Q.M.m.F.F.S.F.Q.Q.(.G.v.B 2 : r a p v l t.i.i.q.i.a.i.K k ; - - y y a w w q , q > V v.v.M.W.Q.W.F.M.b.F.G.F.G.(.(.(.Q.",
"F.F.F.Q.^.F.m.b.W.F.F.F.Q.^./.D.A M 2 q r t u i c j K 7.5.y.u.y.b ; + + 0 0 a a w q q q * > N C v.M.B.Q.W.M.b.M.F.F.M.F.^.(.Q.Q.",
"Q.Q.Q.Q.G.F.n.m.W.!.W.F.Q.^.K.Z.B M q w r r t u y 1 1 b ^ g.h.=.#.9 + + 7 a a r e q q q q , 2 N v.M.W.B.M.m.b.n.F.M.n.M.W.Q.Q.Q.",
"(.(.Q.W.F.F.n.M.Q.Q.Q.Q.^.Q.D.A M : w w w w w q , = 9 s =.>.j.-.#.[ 3 O w r r 6 q q 6 5 q , : M C S.M.B.M.b.b.M.M.M.b.m.F.W.Q.Q.",
"(.(.F.M.M.F.n.M.G.Q.Q.G.Q.D.C.V > $ q w q q q 6 % 7 0 | -.j.x.3.$.o.4 O 5 q q q q q q q q * * > V v.M.B.M.M.M.m.m.b.n.M.Q.Q.Q.F.",
"(.Q.M.m.M.M.b.M.F.Q.F.G.^.D.I N : # , w q q 6 5 + 7 { ..-.3.qX4.1.X.4 O 4 , q q 5 q q 5 * * @ > Z C N.B.W.M.M.m.M.n.n.F.Q.Q.W.M.",
"Q.Q.M.m.b.b.b.v.F.F.S.F.Q.D.V N o o = w q q 6 5 4 8 { O.-.>.qX4.1.X.4 O * 5 q 5 5 q q * @ @ o > N C F.W.B.M.M.M.M.F.Q.Q.M.m.M.M.",
"Q.W.m.m.b.b.b.n.M.M.F.F.G.D.V N > : q q q 5 = 5 4 ]  .$.2.z.x.mXxXo.8 4 5 5 5 5 * 5 5 e O @ > M N C J.W.B.M.B.B.F.Q.G.F.M.b.M.M.",
"(.!.B.m.M.M.b.b.M.M.W.F.F.S.C.A B M u w = # & 3 8 [  .O.-.z.x.wXxX+.{ 8 4 & O O O 4 8 8 8 e M V C.D.F.F.F.W.W.Q.G.F.F.F.M.F.F.F.",
"Q.W.M.M.F.M.M.m.M.W.Q.Q.F.F.S.Z.C Z B 2 : : % 5 8 [  .$.-.z.qXxXxX+.X.] 8 8 & 4 = r } { { } D A L./.~.W.F.G.!.W.G.F.n.n.F.F.G.F.",
"M.M.m.M.W.Q.F.F.W.Q.!.!.Q.Q.J.M.N.N.P./ B p y s 0 [  .$.-.x.wX4.1.+.o.o.o.{ e r p | ..O.o.%.D C.K.(.!.Q.F.M.W.W.F.F.F.n.n.M.F.F.",
"n.n.M.M.F.W.G.F.Q.Q.(.Q.Q.Q.W.W.M.J.Y.P.P W Q m } [  .O.-.z.wX4.lX+.+.+.o. .#.Q =.3.2.<.O.| G v.D.(.Q.Q.F.M.M.W.F.F.M.S.n.S.F.F.",
"n.F.G.Q.F.n.F.F.Q.Q.Q.Q.^.^.Q.Q.J.W.~.K.I / h.>.n 0 [ #.-.z.wX4.1.+.+.+.@.$.-.k.eXNXwX4.$.| B C D.Q.F.F.n.n.F.F.Q.Q.n.n.S.G.Q.(.",
"S.F.Q.^.F.F.F.F.Q.Q.Q.Q.Q.^.(.(.W.F.Q.K.I / u.>.n 0 [ } *.3.x.xX1.o.+.o. .#.j.eXSXNXBX@X%.{ G C S.F.F.S.n.n.F.Q.^.Q.F.S.F.Q.^.(.",
"Q.Q.G.Q.^.^.G.G.Q.W.Q.W.W.Q.Q.Q.W.F.F.H.P./ ' ~ n 0 [ | $.2.z.3.O.+.+.o.} #.~ qXmXBXnXbXzX&.G v.N.n.n.n.b.b.M.F.(.(.G.F.G.Q.Q.^.",
"Q.^.Q.Q.(.(.Q.F.M.M.Q.Q.Q.W.Q.Q.F.F.M.H.v./ Y n | } [ | $.<.2.<.@.+.+.o.} d ' j.wXBXnXbXzX&.;.H.S.S.M.n.M.n.m.M.^.(.G.G.^.^.Q.Q.",
"(.(.(.Q.Q.Q.F.M.m.B.W.!.^.Q.W.F.F.F.F.J.H.I W s  . .[ o.lXxX$.O.@.kXkXkXo.#.>.k.wXnXvXcXzX&.V.).^.Q.F.n.B.W.m.m.W.W.M.M.G.G.Q.Q.",
"(.(.(.(.Q.F.M.b.B.B.W.!.Q.Q.F.F.F.F.S.F.J.C M s  . .[  .lXlX@.o.o.kXkXkXO.#.=.j.@X@XvXzX&.oXV.~./.Q.F.F.W.W.m.m.M.M.b.n.F.G.Q.Q.",
"Q.(.(.(.M.b.b.m.W.W.W.F.Q.G.M.n.n.M.M.F.F.H.! F } [ ] ] +.@.{ [ ] o.kXkX@.$.n b -.;.;.OXOXV.~.!.Q.Q.G.Q.Q.W.B.m.M.M.F.F.F.W.F.W.",
"W.Q.!.Q.M.b.b.m.W.Q.F.F.F.F.n.M.M.F.Q.~.~.U./ F a 8 4 8 [ [ 8 8 8 ] o.+.o.| s c n Q ;._ `.).!.!.G.F.Q.Q.W.W.m.m.M.W.F.W.F.F.W.W.",
"W.W.M.W.M.M.m.m.B.W.F.M.F.F.M.M.F.Q./._._.'./ D q O 4 7 8 4 3 O 3 8 ] [ [ 0 7 9 v ! :.[.'.Y.J.B.F.G.Q.Q.F.F.M.M.W.W.W.W.Q.W.M.B.",
"W.W.F.B.F.M.b.m.F.F.F.M.W.M.M.M.F.~._._.XX[._ D ,   & 4 4 4     O + 7 8 8 7 + % u W _  X'.).U.W.G.G.G.Q.F.F.F.F.W.W.Q.Q.Q.W.W.M.",
"M.W.W.!.W.F.M.m.M.F.F.F.G.F.m.M.S.Y.XX X X]._ D $ . & 5 5 @ .   . O + & 7 5 @ * < S _ #X X[.'.U.K.G.G.F.F.n.n.F.W.Q.Q.Q.W.B.W.W.",
"F.W.!.!.Q.F.M.M.M.M.F.G.G.J.M.N.U.T. X%X$X#X_ S $   * 6 , @ X   . . X + 5 = * * % i ) +X$X X[.'.Y.K.F.F.S.n.F.F.!.(.Q.Q.W.W.W.Q.",
"M.B.!.!.Q.F.M.W.W.W.F.F.F.F.J.U.`.[.|.$X$X:.) S $ . * * q * X     . . X * q 5 * # 2 ) ,.+X$X#X X'.Y.J.n.n.F.F.^.(.(.Q.Q.W.!.W.!.",
"M.W.Q.Q.F.M.W.W.!.!.W.F.F.M.J.U.[.|.|.$X+X:.( i o . * 5 q * @ . . . . . * q q * # < W :.+X@X$X|.[.'.J.M.n.n.Q.(.(.(.Q.F.!.W.!.W.",
"F.F.G.F.M.m.F.Q.(.(.~.W.m.M.K.T.[.$X@X:._ ( S u # @ * q 5 * @ X # % . X * q q * # , S ! :.+X+X#X[.'.K.F.n.F.G.^.^.Q.Q.Q.W.Q.W.W.",
"Q.Q.F.F.M.M.F.Q.(.(.!.G.M.m.J.'.[.+X+X:.) D i < * # * q * * X X % % % % q q q q # = u W ` +X@X#X].'.L.W.M.F.Q.^.Q.Q.Q.Q.Q.F.W.B.",
"(.(.F.F.F.M.m.B.Q.!.Q.W.M.b.J.U.].].:.) D i t w q * * * # # . . # % t t a r w q * : 2 W ` +X+X}.[.'.~.W.M.M.(.(.^.Q.^.Q.G.F.F.n.",
"(.Q.F.M.F.F.B.M.W.Q.(.!.M.M.H.`.].+X+X:.F i t r t q , * = # o X # 9 t a t r w q * , u W ` +X+X}.'.'.~.Q.W.W.(.(.^.^.^.^.Q.F.S.n.",
"Q.G.n.M.F.F.F.M.B.Q.(.(.W.M.F.U.'.].#X:.! S p i i u t 1 2 < % = = q t t r w q 6 , , S ( ` +X#X|. X).~.Q.B.W.(.(.^.G.Q.Q.Q.W.F.M.",
"G.F.M.F.F.W.F.F.M.Q.(.(.Q.W.J.U.`.].}.+X` ! W D W D W S W S S u t t q q q q , q t i D ) +X#X|. X'.Y./.Q.M.M.!.(.Q.F.Q.Q.Q.Q.F.M.",
"Q.W.F.F.W.Q.W.F.F.F.Q.Q.Q.Q.W.J.U.'.[.%X#X:._ :.` _ ` ` :.) ) ! i < 9 = = = : : S ( _ :.+X#X[.'.Y.J.G.F.m.M.W.Q.W.M.F.Q.(.^.F.b.",
"W.W.F.F.Q.W.F.F.F.M.F.F.Q.Q.W.G.N.U.'. X X X%X%X+X+X+X+X@X@X,.:.W S u 2 2 u 2 S ( _ +X].].[.`.U.K.S.n.M.m.m.M.W.M.M.F.Q.(.^.S.n.",
"m.M.W.W.M.M.M.n.b.b.b.n.F.F.W.W.J.~.Y..X.XXX X%X%X$X+X+X$X$X@X:.:.) ) ( ) ) ) _ ].].[.[.U.U.H.N.S.n.c.c.c.m.m.m.M.M.M.W.Q.Q.Q.F.",
"b.M.W.W.M.n.n.b.b.b.b.b.n.F.~.W.M.B.Q./.)..XXXXX X%X+X+X$X$X@X,.,.,.,.,.,.,.}.|. X X X[.N.b.n.n.n.b.c.c.c.m.b.m.m.M.M.M.W.Q.Q.Q."
};
