/* XPM */
static char *out[] = {
/* columns rows colors chars-per-pixel */
"64 64 245 2 ",
"   c #07090A",
".  c #0C120D",
"X  c #0C0D13",
"o  c #0D0E1B",
"O  c #0D1212",
"+  c #0F111B",
"@  c #111317",
"#  c #101614",
"$  c #141B14",
"%  c #12151D",
"&  c #1E1319",
"*  c #151B1C",
"=  c #191E1D",
"-  c #351C16",
";  c #192D0D",
":  c #1A2617",
">  c #1A221C",
",  c #222A1C",
"<  c #25361A",
"1  c #2E3219",
"2  c #141527",
"3  c #161A22",
"4  c #191E22",
"5  c #181A36",
"6  c #261C29",
"7  c #231938",
"8  c #1B2225",
"9  c #1D252A",
"0  c #1C2434",
"q  c #262925",
"w  c #22262B",
"e  c #232A2B",
"r  c #382B27",
"t  c #2A3625",
"y  c #353927",
"u  c #242638",
"i  c #372D38",
"p  c #4C2F16",
"a  c #562A13",
"s  c #593216",
"d  c #633213",
"f  c #693716",
"g  c #753D15",
"h  c #4C302A",
"j  c #463829",
"k  c #593724",
"l  c #663627",
"z  c #2B4916",
"x  c #2D4E17",
"c  c #335A17",
"v  c #34670E",
"b  c #39790C",
"n  c #376615",
"m  c #3C7614",
"M  c #2C4C2A",
"N  c #384828",
"B  c #375225",
"V  c #3B6020",
"C  c #584517",
"Z  c #505214",
"A  c #6E4E18",
"S  c #7C4315",
"D  c #764518",
"F  c #556616",
"G  c #4D7413",
"H  c #477816",
"J  c #757818",
"K  c #574828",
"L  c #50502F",
"P  c #485832",
"I  c #774727",
"U  c #764A38",
"Y  c #715132",
"T  c #506927",
"R  c #4D6435",
"E  c #55683A",
"W  c #546C39",
"Q  c #587639",
"!  c #5B733E",
"~  c #6E7434",
"^  c #1A1D45",
"/  c #221B45",
"(  c #211D50",
")  c #1C2648",
"_  c #1F2957",
"`  c #362D49",
"'  c #262858",
"]  c #303051",
"[  c #272A67",
"{  c #2A336A",
"}  c #343769",
"|  c #2C2E74",
" . c #2C3575",
".. c #2B317C",
"X. c #343978",
"o. c #41374B",
"O. c #433B55",
"+. c #2C605D",
"@. c #524B55",
"#. c #6E5447",
"$. c #5B6E4E",
"%. c #5C7942",
"&. c #74684D",
"*. c #627D42",
"=. c #776557",
"-. c #4F4F6A",
";. c #5D5D76",
":. c #6B5E60",
">. c #4A696C",
",. c #6C6162",
"<. c #747372",
"1. c #854715",
"2. c #8F5118",
"3. c #975719",
"4. c #A75B18",
"5. c #98691D",
"6. c #A9661C",
"7. c #B56A1C",
"8. c #BA741E",
"9. c #85542B",
"0. c #956628",
"q. c #8F712F",
"w. c #A56C24",
"e. c #A97527",
"r. c #B67A26",
"t. c #B37D3C",
"y. c #C0771F",
"u. c #C47D21",
"i. c #8C734D",
"p. c #977A59",
"a. c #AB785B",
"s. c #8F796B",
"d. c #AE7C62",
"f. c #2B8D00",
"g. c #3C850A",
"h. c #359400",
"j. c #3B9601",
"k. c #369A00",
"l. c #3D9A00",
"z. c #3E9309",
"x. c #3A8810",
"c. c #3EA100",
"v. c #47860A",
"b. c #438C0C",
"n. c #58890A",
"m. c #429504",
"M. c #439D00",
"N. c #4A9D03",
"B. c #43940B",
"V. c #489609",
"C. c #4C9B0B",
"Z. c #54980B",
"A. c #478812",
"S. c #548917",
"D. c #4B9616",
"F. c #559818",
"G. c #69821D",
"H. c #778B1A",
"J. c #679717",
"K. c #45A100",
"L. c #4BA301",
"P. c #4EA801",
"I. c #4CA10B",
"U. c #51A601",
"Y. c #55A706",
"T. c #53A901",
"R. c #54A217",
"E. c #578D26",
"W. c #599527",
"Q. c #5D8A36",
"!. c #4E9433",
"~. c #639626",
"^. c #648A3C",
"/. c #649638",
"(. c #789133",
"). c #69A530",
"_. c #3B8B58",
"`. c #2A8C73",
"'. c #5E8442",
"]. c #668545",
"[. c #688646",
"{. c #658943",
"}. c #6A8A46",
"|. c #628448",
" X c #7E8245",
".X c #6B9342",
"XX c #8F8C2E",
"oX c #87873A",
"OX c #B0882E",
"+X c #A4933A",
"@X c #B99839",
"#X c #C88726",
"$X c #D7972A",
"%X c #CC9232",
"&X c #C99937",
"*X c #CDA137",
"=X c #DCA536",
"-X c #E2A32C",
";X c #E5AB34",
":X c #E4AA36",
">X c #E7B13E",
",X c #EAB43D",
"<X c #968A4C",
"1X c #AD8A4C",
"2X c #938572",
"3X c #AD9074",
"4X c #B89877",
"5X c #CA9852",
"6X c #CAA946",
"7X c #D8A844",
"8X c #D2B357",
"9X c #EBBA47",
"0X c #E7B74E",
"qX c #CD9A78",
"wX c #D3AC6D",
"eX c #E6B670",
"rX c #F2C24B",
"tX c #EDC454",
"yX c #F3C754",
"uX c #F4CC5A",
"iX c #2F3585",
"pX c #333985",
"aX c #323A8C",
"sX c #333B92",
"dX c #364584",
"fX c #2D678A",
"gX c #455189",
"hX c #606D87",
"jX c #20909C",
"kX c #5B9A99",
"lX c #888989",
"zX c #919488",
"xX c #A49F97",
"cX c #AEA595",
"vX c #B4AD9C",
"bX c #ADABA4",
"nX c #B5B6AA",
"mX c #D8A986",
"MX c #D4B495",
"NX c #E6BA93",
"BX c #CFB8A1",
"VX c #DAC8B4",
"CX c #EAC7A9",
"ZX c #E7D0B1",
"AX c #E4D6C4",
/* pixels */
"T.P.P.L.L.P.T.T.U.L.N.N.N.L.L.K.M.j.j.l.L.Y.Y.R.~.~ ~ (.<X(.i.oXXXoX(.<X/.).J.Y.m.l.L.L.M.m.M.M.j.h.f.f.m.M.j.l.P.P.L.M.h.k.K.L.",
"P.P.K.K.L.P.U.U.L.K.M.M.M.N.K.M.M.j.l.V.Z.J.J.J.(.XXq.XXXX+X+X<X+X+X+X<XXX).H.J.v.V.N.L.N.M.m.j.j.h.h.h.M.M.M.M.L.P.L.l.h.j.M.L.",
"K.K.l.l.L.P.K.K.l.M.M.M.M.M.M.j.j.l.M.N.G.XXXXXXXX+X@X*X*X*X6X6X6X6X8X8X6X@XOXJ E.S.V.L.L.M.j.h.j.l.l.M.L.M.M.K.L.P.M.l.k.l.M.K.",
"K.K.l.M.L.L.M.l.l.l.M.M.M.M.j.j.m.M.Z.J.XXOX+X@X1X*X0XrX>X>X0X0XtX0XuXuX0X7X&Xe.q.J Z.C.U.N.j.h.h.l.M.K.M.M.l.c.L.N.M.l.l.l.M.l.",
"c.K.P.P.U.U.N.M.M.M.M.K.M.M.m.m.N.Z.H.XX@X*X=XrXtXtXuXyXyXrXuXuXyXyXuXuXtX9X=X&XOX5.J.S.C.K.j.h.h.j.M.L.M.M.k.k.l.K.l.l.K.K.l.M.",
"K.L.T.T.L.L.N.M.M.M.K.K.j.m.M.N.U.J.XX+X*X:X,X,XyXuXuXyXyXyXyXyXuXuXuXyXtXrX9X=X#XOXJ G.Z.N.M.j.h.j.M.N.M.l.k.c.l.l.K.K.c.l.j.j.",
"T.T.T.T.M.M.M.M.K.c.l.k.j.l.M.V.Z.H.XX&X*X=X-X;X9XrX9XrXrXrXrXrXrXrXrXrXrX,X,X;X$XOXw.H.n.C.m.l.j.M.U.U.M.M.K.K.K.K.K.l.l.l.l.j.",
"T.T.T.T.M.l.M.M.K.M.l.j.j.l.m.N.Z.XXOX*X*X$X#X$X=X;X;X>X,X,X,X9X,XrX,X,X,X>X>X-X$X#X8.5.G.Z.V.N.M.M.U.U.N.L.P.T.P.L.K.l.l.j.j.j.",
"N.U.T.T.M.m.M.j.l.K.L.N.M.j.l.V.n.J OX8.#X#X#X#X#X$X$X$X:X;X:X9X,X,X;X;X-X-X-X$X$Xu.y.6.~ S.Z.N.M.L.L.L.T.T.T.T.T.L.M.m.l.j.j.j.",
"N.N.U.T.M.M.j.M.M.L.T.T.M.M.M.V.n.J 5.5.6.6.8.8.u.%X#X$X-X:X$X=X,X;X-X-X-X$X$Xu.u.y.y.6.J F Z.U.L.M.P.P.T.T.T.T.T.P.M.M.M.l.k.k.",
"j.M.T.T.N.l.j.M.P.T.T.T.U.L.M.m.n.F A 2.3.3.5.OX&X7X%X%X:X:X#X#X-X-X-X-X-X$Xu.y.8.7.8.6.D Z n.T.L.L.P.P.T.T.U.U.L.L.P.L.L.K.j.h.",
"l.M.U.T.L.M.M.M.T.T.T.T.U.N.V.m.v.F A 1.2.5.3.6.%X%Xu.u.=X=Xt.r.$X$X$X$X$X#Xy.7.7.4.6.2.g Z n.U.L.M.P.U.L.L.K.L.M.N.P.U.L.M.l.h.",
"M.M.L.L.L.L.L.P.T.U.U.P.N.K.L.V.G F C S 6.6.2.3.w.r.7.r.$X%X7.w.8.#Xu.u.u.y.7.4.4.4.4.1.d Z v.L.M.M.K.L.K.M.M.M.M.M.L.L.M.j.j.m.",
"M.M.M.M.L.P.U.U.P.L.N.K.M.K.P.L.v.G Z S 6.e.1.1.3.3.3.w.y.y.0.2.6.7.6.6.6.7.4.4.4.4.1.g a s v.L.M.K.K.K.l.M.K.M.j.l.N.N.j.j.m.m.",
"L.K.N.M.M.L.L.L.M.m.M.l.l.M.T.U.V.G Z A 0.5.D d f S g 1.2.1.g l D S g 1.2.4.4.4.4.4.g d a Z v.K.K.K.l.l.l.M.L.K.j.h.m.M.M.M.M.M.",
"K.L.N.L.M.M.K.K.l.j.j.l.l.K.T.U.L.b.T A q.0.D l f f l g g g d a s d s d 1.1.3.4.4.3.g a p Z m.M.K.K.K.l.l.l.L.N.j.j.j.M.N.K.N.M.",
"M.K.L.M.j.j.M.K.M.l.l.j.M.K.P.P.K.B.S.~ q.i.9.Y l U l l 9.I h a l l l d g S 1.1.2.1.s p F H B.c.P.K.c.k.j.l.L.L.M.M.M.L.M.K.K.L.",
"M.K.L.M.h.j.l.K.M.l.l.l.M.K.P.P.L.V.A.E.~ i.a.2Xa.i.U U 9.9.#.#.:.9.l I g g g g 1.D s C H D.m.K.P.K.l.j.j.l.K.K.K.N.L.L.K.K.K.L.",
"L.L.M.l.h.h.K.L.M.M.l.M.l.M.L.P.M.N.V.S.Q.i.3XqXmXcXi.=.,.<.lXs.d.4Xd.a.I l f d d d C T A.V.M.M.P.P.M.l.M.K.l.M.M.N.K.M.M.M.M.M.",
"P.L.L.M.j.l.L.P.M.M.M.M.l.M.K.K.M.m.m.A.T i.4XMXCXmXs.=.<.lXxXbXMXmXqXa.U l d a s C Z G v.m.l.K.L.P.N.M.K.K.M.M.M.M.K.K.K.K.M.K.",
"U.U.T.T.L.K.P.N.M.l.l.l.j.h.l.l.z.j.h.b.T &.qXNXCXBXs.<.lXbXnXZXCXNXmXa.U l a a C Z H b.m.j.j.j.K.P.L.N.l.l.K.K.l.K.K.P.P.L.K.M.",
"L.P.P.P.L.K.K.K.l.l.M.l.h.k.l.l.j.j.j.A.F &.4XMXCXBXlXhXbXnXAXAXCXNXqXd.#.a a a Z T b.M.l.l.h.j.M.K.L.N.l.j.M.K.c.c.K.P.P.P.K.K.",
"N.K.K.c.K.l.M.K.l.M.M.j.j.j.N.L.M.l.B.A.F Y 3XmXNXBXcXcXnXVXAXAXCXNXmXa.#.h a p L T A.B.l.z.h.h.h.l.M.M.j.j.M.K.l.l.M.K.P.P.K.l.",
"M.M.l.l.k.j.l.M.M.M.M.m.l.M.P.P.V.B.b.G K Y a.qXeXNXwXqXNXCXZXCXNXmXqXa.l a p 1 y B m g.b.b.h.h.h.h.m.M.l.M.L.L.c.K.M.K.P.P.c.k.",
"M.M.l.l.k.h.l.m.l.j.m.M.N.L.P.N.B.A.c z y K 0.1X5X5X8X8XeXeXNXNXmX5Xa.w.U l l - q < z c A.A.b.j.j.j.l.M.M.M.K.L.L.K.K.L.L.L.c.l.",
"M.l.K.l.k.j.l.M.m.M.m.M.L.U.L.C.b.n z q , j 9.e.5X5X7X7X0XeXeX5X5Xa.0.9.I l h r w = = < V H b.B.j.l.l.M.l.M.K.K.K.K.L.P.P.L.c.c.",
"M.l.l.l.K.M.M.K.M.M.m.M.L.U.U.V.g.n < 9 q j 0.r.t.OX%X5X:X7X5X%X7.3.I l l h r 7 4 = $ * t B b b.j.j.l.K.l.l.l.l.l.M.L.T.T.U.K.c.",
"M.K.l.K.L.K.M.l.M.M.M.M.N.N.U.V.v x t 9 e j 9.6.w.w.r.OX%X%Xy.w.1.d l h h i 6 6 8 * # # 3 q n x.z.l.K.K.l.j.j.j.l.M.N.P.T.T.P.M.",
"K.l.M.L.L.L.l.l.N.N.M.M.M.U.Y.v.x , q e e y K D 3.3.w.e.e.e.3.g a - - r 6 w w w 9 8 * # X = z m g.j.L.L.K.l.j.l.M.K.M.K.T.T.T.U.",
"K.K.N.N.U.M.j.j.K.L.K.N.N.C.V.G < : 9 e e t y K A I 9.q.q.q.9.h - & 4 w 7 9 w w 9 8 4 # X O < c b z.K.L.K.M.j.l.M.K.l.l.U.T.U.U.",
"P.P.P.L.N.M.k.j.L.L.N.M.U.Z.H c < 8 9 e 9 9 q q r y k Y s.p.@.h 6 2 9 w w w 9 9 8 8 > * . . : < v B.m.M.l.j.j.l.M.M.j.j.M.K.L.L.",
"T.T.L.L.M.l.h.j.K.L.K.L.T.V.v < : 8 9 9 9 9 8 9 0 u i #.xX3X@.` ) 5 9 9 w 9 9 9 9 8 4 * $ . . ; v b.z.l.l.j.j.l.l.l.j.j.M.M.K.L.",
"T.P.K.l.M.l.h.k.M.L.L.L.L.v.x ; 8 8 9 8 9 9 + 5 ( ] O.,.cXcX;.] ) ) 9 8 8 8 9 8 9 8 4 * $ #   ; v b.l.c.l.l.l.l.j.j.j.l.P.U.L.M.",
"P.L.l.k.l.l.h.h.M.L.L.N.V.b < $ > 8 8 8 8 2 + 5 ' [ O.,.vXbX;.} ' ) 0 * 8 8 8 8 4 4 3 * $ + X ; c x.l.c.c.l.l.l.l.l.l.M.L.L.M.M.",
"P.M.l.k.j.l.k.j.M.L.L.M.v.v ; + + 3 8 8 9 4 X 2 [ | O.,.vXbX;.} { _ 2 # 8 9 8 3 3 % # + # 2 o : x b B.K.c.l.l.l.l.M.L.N.l.j.j.l.",
"P.L.j.k.l.j.j.j.l.K.L.N.b v z : > 8 > 8 8 % X 5 [ X.O.,.vXbX;.}  .[ 5 % 3 3 * % + o + 2 5 5 5 0 < n z.P.K.l.l.l.c.K.L.M.l.j.l.l.",
"U.L.l.j.l.l.l.j.k.k.K.L.m.b n x M t > : * % + 5 [ X.o.:.vXbX;.} iX[ ^ o 2 + + O   X o 5 _ { { _ t c g.M.M.M.K.L.N.M.M.M.M.M.M.l.",
"P.K.c.l.M.M.l.j.k.c.P.P.N.b.g.m c c z < : 8 3 5 | X.O.:.vXbX;.} dXiX_ ^ 5 2 o X X @ o 7 } X.X.] e z g.M.M.L.K.L.N.M.j.l.M.K.M.M.",
"l.l.k.j.M.K.K.l.c.K.T.T.U.N.V.B.A.x.H T Z y 6 / [ } o.,.vXbX;.} pXdXiX[ _ ( 5 2 = = 8 u { } { ] t x x.K.N.M.M.M.M.M.m.j.l.M.M.M.",
"j.j.j.l.K.K.M.l.K.L.T.T.T.P.K.M.m.C.D.E.~ K i / [ } o.,.vXbX;.} pXsXaXiXiX_ ^ 5 t t q i } -.-.] t x b.K.M.M.M.M.M.M.M.j.j.l.M.K.",
"j.M.N.L.K.M.l.M.L.L.L.K.P.T.U.L.L.I.R.J.~ #.j ` ( ` o.=.cXbX;.] dXdXsXsXiX| ( u B c y L ,.<.>.@.t z b l.l.l.l.K.P.L.M.m.M.M.N.U.",
"M.M.N.L.L.M.l.M.L.P.K.P.P.P.U.U.L.L.Z.~.<X&.Y @.o.` h :.xXxX;.}  .aXaXaXsXiX' / B P Y =.2XzX<.>.M z g.l.j.j.l.K.U.L.M.M.N.L.U.U.",
"K.L.N.L.U.U.L.M.M.K.L.K.K.L.P.L.N.M.V.F. Xp.<X=.O.o.o.@.lXxX:.O.X.iX....aXiX[ / y R <X3XBXvXkXhX+.M x.z.j.j.j.K.U.T.N.L.L.U.L.P.",
"U.P.L.L.T.T.P.M.l.M.K.L.L.K.L.L.M.M.m.F.(.2X1Xp.o.` O.-.hXhX@.O.X.......aXpX' / u L <XcXBXnXkXkX+.+.x.m.l.j.j.l.L.U.N.N.L.L.L.L.",
"T.T.L.L.N.N.M.M.l.c.L.T.P.P.L.M.l.m.N.J.oX<X1Xi.K ` } gXgXgX-.} } iXaXsXsXiX[ / 6 j p.3X3XzXjXjXjX`.D.c.I.K.j.l.M.M.M.l.M.N.L.P.",
"T.T.U.P.L.M.j.j.j.K.L.P.U.P.M.l.j.m.V.F.J q.i.~ j i X.dXdXdX-.-.{ | sXsXsX..' 7 7 h i.<Xp.kXjXjXjX`.!.R.I.K.c.l.M.M.j.l.M.M.L.L.",
"L.L.T.P.K.j.j.j.M.L.K.L.L.L.M.j.j.m.M.A.Q ~ ~ Y y u _ { iXdXgX-.{ [ aXsXiX| / 7 6 r K &.i.<.>.fX`._.!.c.L.K.k.k.l.M.l.M.M.M.N.L.",
"M.K.P.P.K.k.h.j.M.L.M.M.K.M.l.j.M.V.Z.S.^.! E P t e 0 _ _ { fXX.' ' | | [ ( 7 6 r K K L &.,.-.>._._.R.P.K.K.k.l.l.K.K.M.K.K.K.K.",
"K.K.K.K.K.j.k.k.M.L.M.M.N.M.j.m.I.R.).)..X].%.P y q 9 0 5 ) ] { ^ 5 / / 7 5 6 t L E L E $.$.$.%.!.D.R.P.N.M.j.l.M.L.K.L.K.K.M.l.",
"K.K.K.K.K.l.h.k.M.K.M.M.M.M.z.V.W.W.).(..X}.*.E y q 9 8 4 2 u 0 2 o 6 2 2 % $ t P %.%.%.W %.'.Q.c.I.P.c.M.m.j.M.N.P.P.K.K.K.l.c.",
"c.K.P.K.K.l.l.j.M.M.M.M.L.N.I.W.W..X.X.X}.[.[.E t q w w 8 4 4 %   X * 2 2 o * , P $.*.*.].^.Q.!.D.I.I.P.M.m.j.M.L.U.P.P.c.c.K.K.",
"l.c.P.P.K.c.l.l.M.M.l.M.N.C.F.!.{.}.}.}.}.}.[.E N : e e 8 8 % O     * 3 2 % # q L R *.}.}.{./.W.F.C.K.c.M.m.M.M.U.U.P.K.c.c.K.L.",
"j.K.L.P.M.M.M.K.L.K.K.l.N.Z.E.Q.Q.[.}.}.}.}.[.! z , 8 8 8 > * @     X % 3 3 % 4 t P ! {.}.[.{.Q.W.D.V.l.l.c.K.P.T.T.L.K.K.K.P.K.",
"l.l.L.P.M.M.M.K.T.P.K.l.M.V.E.Q.{.].}.}.}.}.].W N : > 4 4 8 4 O     X 2 = 3 % * > y W {.[.[.{.{./.W.V.l.l.l.L.T.T.T.L.K.P.P.P.L.",
"M.M.N.M.j.l.K.P.T.T.P.K.c.B.E.Q.{.].[.[.}.}.|.E < : = * = * * O     X * * 3 * $ : < W ].].}.}.{./.E.C.K.k.l.P.P.T.L.K.L.P.L.K.K.",
"L.L.N.M.j.l.c.K.T.T.P.K.l.z.E.Q.].[.|.[.[.|.%.P , = * 8 8 * # O     @ * = * $ $ : 1 W ].{.}.}.{.^.~.Z.K.j.l.P.P.K.L.L.L.L.K.K.c.",
"T.P.K.l.M.l.k.c.K.P.P.K.l.B.E.Q.{.|.|.|.].! R N , $ = 8 8 4 * .     * * 8 * $ : t P ! {.}.}.|.{./.~.R.M.l.l.T.T.T.P.U.L.N.N.M.j.",
"T.P.M.l.M.K.k.l.K.L.T.P.l.B.W.Q.'.|.{.'.! R B t : = 8 8 4 * # . . O * 8 * * $ : B R ! }.}.}.{.{./.W.Y.L.K.K.T.T.U.P.U.U.N.M.l.j.",
"L.N.l.m.N.L.M.l.c.K.T.T.K.z.D.Q.^.|.}.! R N y t q 8 8 = 3 % O . . . # $ $ : , y R ! |.}.[.[.|.^.W.W.I.L.c.K.U.T.L.L.U.U.L.L.K.l.",
"N.M.M.N.N.N.K.l.c.K.T.T.K.M.D.W.Q.{.}.%.R N t u 8 8 6 = % % $ $ : , , q q 1 N P ! |.|.}.].{.{.Q.W.F.U.P.l.l.P.T.N.L.L.U.P.L.M.l.",
"K.K.M.K.L.L.K.M.M.M.L.P.P.L.C.F.!./..X].E P t q > : * $ # * : < N N P L P P ! ! |.|.}.}.}.{.^.!.C.C.L.K.l.l.L.L.K.M.M.L.U.P.j.h.",
"M.c.K.K.K.K.l.M.l.l.M.M.L.L.L.C.R.W.W./.Q.W B < 1 t < t < t t B E E $.%.! ! }..X.X.X}.{.Q.W.W.D.B.l.M.l.k.j.K.K.M.M.l.K.U.U.j.j.",
"k.j.K.K.c.l.l.j.h.h.k.j.l.K.L.N.I.I.R.R./.Q.Q.Q R E R E E W E E %.].*.[.|.}.}..X/.)././.D.D.b.z.l.h.h.f.h.h.h.k.j.l.l.K.L.L.N.M.",
"h.k.K.K.l.l.j.h.h.h.h.h.k.l.K.L.K.P.I.I.).).).^.Q.! *.*.].].%.*.[.[.}.}.}..X.X/.).)./.W.B.h.h.j.h.h.f.f.f.h.h.k.k.l.l.l.K.L.L.P."
};
