/* XPM */
static char *out[] = {
/* columns rows colors chars-per-pixel */
"64 64 250 2 ",
"   c #12190F",
".  c #0D0A18",
"X  c #110E1D",
"o  c #0E1315",
"O  c #111414",
"+  c #151C14",
"@  c #13161C",
"#  c #151B1C",
"$  c #1A1918",
"%  c #181E1C",
"&  c #371E1B",
"*  c #192314",
"=  c #192614",
"-  c #1A2D10",
";  c #1B231C",
":  c #1E2B1B",
">  c #28261C",
",  c #232C1C",
"<  c #25331D",
"1  c #283919",
"2  c #323816",
"3  c #130D26",
"4  c #151423",
"5  c #171C22",
"6  c #181E22",
"7  c #14132A",
"8  c #1A192C",
"9  c #180F30",
"0  c #1A1836",
"q  c #261930",
"w  c #1A2223",
"e  c #1E2429",
"r  c #232B23",
"t  c #21262C",
"y  c #262828",
"u  c #232A2C",
"i  c #38292A",
"p  c #2A3525",
"a  c #353A28",
"s  c #292636",
"d  c #363338",
"f  c #441F0F",
"g  c #492919",
"h  c #522D11",
"j  c #593716",
"k  c #67320F",
"l  c #622E14",
"z  c #693716",
"x  c #743B13",
"c  c #793E15",
"v  c #4E332C",
"b  c #673927",
"n  c #713D2B",
"m  c #2B4718",
"M  c #314E15",
"N  c #345919",
"B  c #376A0D",
"V  c #3A740A",
"C  c #386617",
"Z  c #3C7716",
"A  c #374827",
"S  c #3C5528",
"D  c #374B30",
"F  c #3F6221",
"G  c #4D4914",
"H  c #504E16",
"J  c #7B4416",
"K  c #714F13",
"L  c #48780D",
"P  c #466C1B",
"I  c #506D12",
"U  c #467818",
"Y  c #6A7614",
"T  c #524A2F",
"R  c #43552B",
"E  c #475933",
"W  c #794829",
"Q  c #6D502D",
"!  c #784936",
"~  c #47672B",
"^  c #4B7728",
"/  c #577429",
"(  c #4C6433",
")  c #546A37",
"_  c #587937",
"`  c #5B743D",
"'  c #6F742E",
"]  c #1C1B44",
"[  c #231A43",
"{  c #1D204F",
"}  c #282845",
"|  c #332B47",
" . c #353948",
".. c #272757",
"X. c #312B5B",
"o. c #313652",
"O. c #292A67",
"+. c #293468",
"@. c #343871",
"#. c #2B4857",
"$. c #1E4F6B",
"%. c #384778",
"&. c #15617A",
"*. c #2C6A76",
"=. c #4C4E50",
"-. c #514959",
";. c #6E5750",
":. c #59684A",
">. c #5D7641",
",. c #627D44",
"<. c #726858",
"1. c #4C4C66",
"2. c #554C66",
"3. c #655A6A",
"4. c #4F6E6A",
"5. c #766B68",
"6. c #706E6C",
"7. c #813F1D",
"8. c #864817",
"9. c #944E15",
"0. c #885419",
"q. c #975719",
"w. c #A75A18",
"e. c #91711D",
"r. c #A9661C",
"t. c #B4691C",
"y. c #B5741E",
"u. c #8E5227",
"i. c #976625",
"p. c #8F6F31",
"a. c #A86B23",
"s. c #A77628",
"d. c #BA7923",
"f. c #AE7735",
"g. c #C27A1F",
"h. c #C37D21",
"j. c #885B44",
"k. c #916F50",
"l. c #A1735E",
"z. c #917865",
"x. c #837977",
"c. c #A57461",
"v. c #2B8E00",
"b. c #3A8709",
"n. c #2E9400",
"m. c #359500",
"M. c #3B9600",
"N. c #369A00",
"B. c #3D9A00",
"V. c #3C900C",
"C. c #3F8E14",
"Z. c #3EA000",
"A. c #47890A",
"S. c #448D0B",
"D. c #508F09",
"F. c #439503",
"G. c #439D00",
"H. c #499E02",
"J. c #44940B",
"K. c #499708",
"L. c #4A930C",
"P. c #4B9B0B",
"I. c #559909",
"U. c #478714",
"Y. c #55881A",
"T. c #4B9615",
"R. c #559A16",
"E. c #6C8511",
"W. c #688615",
"Q. c #659818",
"!. c #45A100",
"~. c #4BA401",
"^. c #4DA901",
"/. c #4FA10B",
"(. c #51A602",
"). c #53A901",
"_. c #56A905",
"`. c #55A216",
"'. c #56872A",
"]. c #579427",
"[. c #5B8C32",
"{. c #788D26",
"}. c #6B9030",
"|. c #649439",
" X c #67A530",
".X c #668445",
"XX c #698646",
"oX c #658A43",
"OX c #698A46",
"+X c #7E8041",
"@X c #788276",
"#X c #958B2B",
"$X c #908D35",
"%X c #BA8429",
"&X c #B29235",
"*X c #C98826",
"=X c #CE8F29",
"-X c #D39429",
";X c #DC9B2B",
":X c #CA953A",
">X c #D49E38",
",X c #E09F2A",
"<X c #DFA12E",
"1X c #CAA43B",
"2X c #D9A336",
"3X c #E2A22D",
"4X c #E3A834",
"5X c #E5AB35",
"6X c #E6B23D",
"7X c #EAB43E",
"8X c #898741",
"9X c #9B8952",
"0X c #B49145",
"qX c #938677",
"wX c #B58D71",
"eX c #CB9044",
"rX c #D2AE47",
"tX c #D9AA58",
"yX c #ECBA44",
"uX c #E0B04D",
"iX c #E7B849",
"pX c #CC9764",
"aX c #C89877",
"sX c #D5AB70",
"dX c #E4B472",
"fX c #F1C24C",
"gX c #F2C652",
"hX c #F0C654",
"jX c #F3C954",
"kX c #F5CD5A",
"lX c #2D3585",
"zX c #333982",
"xX c #3C4786",
"cX c #2091A0",
"vX c #679B98",
"bX c #958E86",
"nX c #A69889",
"mX c #A89D94",
"MX c #B4AA91",
"NX c #96B1A6",
"BX c #CA9C84",
"VX c #D8B192",
"CX c #E5B583",
"ZX c #E7BB97",
"AX c #D8BDA6",
"SX c #BAC1BD",
"DX c #E4C5A4",
"FX c #EECBAD",
"GX c #B6CAC4",
"HX c #E3DACB",
/* pixels */
").^.^.~.~.^.)._.(.~.H.H.G.!.~.~.H.B.B.B.!./._.R.R./ ' }.$X$X+X$X8X8X$X}.{.{. XQ.K.G.(.^.B.M.M.F.M.m.v.v.M.G.M.B.~.(.H.G.m.m.!.~.",
"^.^.~.!.~.~.(.(.~.!.H.H.H.G.!.G.G.B.B.G.I.`.`.Q.{.{.p.$X9X$X9X$X8X0X9X0X$X$X$X#XQ.D.I.^.H.B.M.M.M.m.v.m.G.G.G.G.~.^.H.G.m.B.!.~.",
"!.!.B.B.~.^.!.G.B.M.G.G.G.G.B.B.B.B.B.I.Q.{.#X#X$X$X0X0X1X1X2X1X1XrXrXrX1X1X&X#X' E.I.).~.H.M.M.m.M.G.G.H.G.B.!.^.~.G.M.B.B.G.!.",
"Z.!.B.G.~.^.G.B.B.G.G.G.G.G.M.B.G.G.K.I.{.#X&X&X&XrXrXiXiX6XyX7X7XyXgXgXjXyX4X&X#Xe.Q.Q.I.~.M.m.m.B.H.~.~.!.B.!.H.~.B.M.B.B.B.Z.",
"!.!.(.).).^.H.G.G.G.!.!.G.B.G.G.H.I.Q.{.&X&X1X6XuXkXhXhXhXhXfXfXfXjXkXkXkXkXiX1X%X#Xe.W.R.P.M.m.m.M.H.!.H.B.N.N.B.!.G.B.B.B.B.Z.",
"!.~.)._.^.H.H.G.H.H.H.G.M.F.G.G.H.I.{.#X=X2X5X7XhXkXkXkXjXgXjXjXjXkXkXkXkXkXfX6X;X%Xs.Y W.D.V.m.m.B.!.~.!.B.N.B.B.B.Z.!.!.Z.B.B.",
"^.(.).).H.G.G.G.G.B.B.m.M.M.G.F.I.E.#X#X-X4X3X5XiXfXfXfXfXfXfXfXjXgXfXfXjXjXfX6X<X=Xd.e.' U S.M.M.G.~.~.!.G.!.~.!.!.B.B.G.B.N.B.",
"^.^.).).G.B.B.G.!.B.B.B.M.B.B.F.D.E.#X%X1X<X,X;X2X6X6X6X7X7X7XyXfXfXyXyXyXyX7X5X;X=X*Xa.e./ D.F.G.G.~.^.~.~.).).^.!.G.B.B.B.B.m.",
"H.~.(.(.H.G.F.G.!.!.~.!.B.M.B.B.D.E.e.y.*X*X*X*X*X-X;X3X4X5XyXyX6X6X5X5X3X3X3X,X-X*X*Xy.e.Y Y I.!.Z.^.^.).)._._.).^.G.B.B.M.M.m.",
"B.~.(.(.H.G.B.M.!.~.).).H.B.B.F.D.Y 0.9.y.y.y.y.*X*X=X-X,X3X2X2X5X4X4X3X,X,X,X;Xg.g.*X*Xq.0.E.I.H.!.^.^.)._._._.(.~.!.H.G.B.M.m.",
"G.!._._.H.F.M.G.^.)._.).^.H.B.F.F.I K J q.q.q.y.:X2X*X*X;X;X=X=X<X3X3X3X,X,X-X*Xt.t.g.y.9.K Y I.H.~.^.^.).).^.(.~.~.^.^.~.G.B.m.",
"G.~.).(.!.G.G.H.).).)._.(.~.G.F.A.L G x 0.q.0.e.:X>X*Xh.;X-Xd.d.-X;X,X,X-X-X*Xg.t.t.y.w.9.K Y D.K.H.^.^.^.^.~.!.H.H.~.(.~.H.B.m.",
"G.!.!.~.^.~.~.~.(.(.(.^.!.!.!.~.S.I G z q.w.u.q.h.*Xa.f.=X=Xr.r.%X=X*X*X*X*X*Xt.t.w.w.9.x k I A.F.H.!.!.H.G.G.G.G.F.H.H.B.M.F.G.",
"G.G.H.!.~.~.^.^.^.~.H.!.G.H.^.~.L.L G K i.a.9.u.w.a.q.w.g.d.q.q.r.%Xy.y.y.y.t.t.t.w.w.9.k j L L F.!.!.Z.M.G.G.G.M.M.H.G.M.M.G.H.",
"!.~.H.G.!.H.!.H.G.F.B.B.B.!.(.(.H.U.P K i.r.J x J 8.J 8.q.u.c x K 8.8.9.9.9.w.t.w.w.9.8.k j L b.G.!.G.B.M.B.!.!.M.M.F.G.G.G.G.G.",
"~.!.!.H.G.B.H.H.B.M.B.B.B.!.).(.!.S.P Q p.i.u.z z z x n 7.7.x k k k k J J 8.q.w.w.w.9.k h G L b.G.!.G.B.B.B.~.~.M.M.M.B.H.G.H.G.",
"G.H.!.!.B.B.G.!.B.B.B.B.B.!.^.^.!.K.U.'.p.j.j.! n l b n 7.7.z l h g l z x c 8.9.w.9.J j H H L G.~.!.Z.B.M.B.!.~.G.G.H.!.!.!.!.~.",
"!.G.H.G.m.m.Z.!.!.B.B.B.!.!.~.^.~.F.P.Y.' k.z.k.j.;.j.n 7.7.Q ;.b b ! ! W J c J 9.9.k j T ~ S.H.~.!.B.M.B.G.!.~.H.H.~.!.!.!.!.!.",
"~.!.G.M.m.B.!.^.!.G.G.B.B.H.~.^.H.G.M.U.}.<.c.wXaXpXl.k.;.;.6.@X<.k.c.c.j.! z k k x k j I Y.J.!.^.^.G.G.G.!.!.G.H.H.G.G.G.G.H.G.",
"~.~.H.G.M.B.~.~.!.G.G.G.B.B.!.!.G.F.M.S.Y.k.9XBXVXBXnXz.;.3.vXvXbXBXaXwXl.! l l k k j H U Y.F.H.~.~.G.G.G.!.G.G.G.G.!.!.!.!.G.!.",
"(.(.(.^.H.!.^.!.B.B.G.B.M.m.B.B.B.m.n.b.Y.}.c.wXZXVXmX6.3.6.NXGXAXVXVXaXk.W j f h G H L A.L.M.B.H.~.H.H.B.B.!.!.B.!.!.^.~.~.!.!.",
"^.^.(.).!.!.!.H.B.B.G.M.m.m.B.B.B.m.n.b.Y.' 9XBXAXAXmXbX6.x.SXHXFXDXZXaXk.W h f f G I Y.J.G.M.m.G.H.H.F.M.M.!.!.B.Z.!.^.^.^.!.!.",
"H.H.!.!.B.Z.B.B.B.G.G.M.M.B.~.~.G.B.M.S./ p.wXBXZXAXMXnXbXmXHXHXFXFXZXpXk.Q g g g G U T.F.M.m.m.m.M.G.G.B.M.G.!.Z.B.!.!.^.~.Z.B.",
"B.G.!.B.B.B.B.B.G.B.F.B.G.!.~.~.H.G.S.A.I ' l.wXVXVXVXMXMXVXFXFXFXZXCXpXj.b j g i A ~ U.J.F.M.M.m.M.G.G.G.G.G.!.Z.Z.G.!.^.^.Z.B.",
"G.G.G.B.m.m.B.G.G.M.F.G.~.~.~.~.G.S.U C G G Q l.pXdXdXsXsXdXZXFXZXCXtXeXu.n ! v i p M B J.P.G.M.M.M.B.G.B.G.!.!.!.!.H.~.^.!.Z.B.",
"G.G.B.B.B.N.B.B.G.G.M.G.^.^.~.H.F.b.C N 2 i T p.0XtXtXtXuXdXdXCXdXpXc.f.u.7.! v y w < N U J.K.G.B.B.G.G.G.G.B.B.!.~.~.^.~.~.Z.Z.",
"!.B.B.Z.G.H.G.G.G.G.G.G.~.~.~.H.A.V m , , 2 Q p.f.&X0X1X>XuXtXtXeXg.u.u.n b v | e : = 1 N Z F.G.B.M.B.Z.B.B.B.B.B.G.~.(.(.~.!.Z.",
"G.G.B.!.!.~.G.B.G.G.F.G.H.~.(.K.L N < ; > a Q p.i.s.f.:X-X-X:X:Xg.u.n l l v v q e w # : m N b.F.M.G.!.!.B.B.M.M.B.G.!.~.).^.~.H.",
"G.G.H.H.~.!.N.N.G.G.G.G.H.~._.L.P M r w e a Q W 0.i.f.%X%X%Xf.a.8.l g g i v s s e w w ; : m V V.m.M.!.~.!.!.B.B.!.!.G.H.)._.).(.",
"H.!.!.!.^.!.m.m.B.H.G.H.H.~.(.A.N p r e e d v T H J i.s.s.s.a.8.j & & q q [ s q e e w ; # - B b.b.M.!.!.!.B.B.B.!.!.B.B.(.).).(.",
"~.~.~.^.!.G.M.B.H.~.H.~.(.(.I.L m e e e e y a 2 g h H ! p.p.! b i q # % t s u t e w w # + - N Z b.B.!.G.B.m.m.M.B.G.B.B.Z.!.^.^.",
").^.^.!.G.G.M.B.~.~.H.~.).I.A.C p w e u e e r , y > g v k.z.;.v | 0 4 4 e t t e w w w w # w m C b.B.B.B.B.m.B.M.B.M.m.B.G.!.~.~.",
").~.!.B.G.F.M.M.H.~.~.H.(.F.V M : w e e e w w w 8 8 s =.qXqX;.=.X.} w 5 w e e w w 5 w w w w : m V M.B.!.B.B.N.N.B.M.m.B.^.^.H.G.",
"^.~.B.N.B.M.m.M.G.!.H.H.H.F.M - : w e w w w 5 5 0 [ } -.qXnX5.1.@.O.0 4 w w w w w w 5 w w ; + - B v.B.!.!.B.B.B.B.M.B.G.~.~.G.M.",
"^.!.B.N.B.N.m.M.B.Z.G.F.F.L - - ; w w e w 5 o 7 ] ..X.2.nXnX5.-.1.+.7 o 5 w w w w 5 w w # #   - m V J.!.Z.N.Z.N.B.G.~.H.B.B.B.G.",
"^.^.N.N.N.B.m.m.N.Z.G.F.F.V m = w 5 w 5 5 5 . 7 ] ..X.2.bXnX5.1.xX+.7 . 4 w 5 5 w 5 4 # + + = - M V J.~.!.B.Z.Z.G.H.~.G.m.M.B.G.",
"^.~.B.B.B.B.m.m.N.Z.!.!.F.b.M 1 : = # # # @ . 7 ..O.X.2.nXnX6.1.xX@.0 X @ 4 5 4 7 7 7 X   = m C b.L.H.G.H.!.~.~.H.F.G.G.B.G.G.H.",
"^.!.B.B.G.G.B.N.B.!.~.~.H.S.V C m 1 1 - : w 5 0 ..O.X.2.nXnX6.1.xX@.] 4 @ @ 5 0 ] ] 0 7 + 1 C U.I.~.!.H.H.!.!.!.H.G.M.M.G.G.G.H.",
"G.B.m.B.G.!.B.G.!.~.).).(.H.U.U.Z C C N N A p s X.@.X.2.nXnX5.1.@.+.s 8 7 7 0 { O.O.{ } p N C.L./.(.(.~.G.G.Z.!.G.B.M.M.M.B.G.G.",
"M.M.M.B.H.!.G.G.~.^.).).).(./.P.J.C.Z Z Z F D d ..X.X.3.nXnX5.-.1.1.=.#.t 0 { O.lXlX+.o.D P L.^.).^.^.~.G.B.B.B.!.G.B.M.M.B.G.H.",
"m.B.H.~.G.G.M.H.~.^.~.^.^.).(.H.P.F.K.L.V.Z R a } X.-.5.nXnXz.;.6.x.x.z.-.o.@.lXlXzXX.=.^ T.T.~.^.~.H.G.M.B.B.G.~.!.B.M.G.H.~.~.",
"M.G.~.^.H.G.G.G.~.~.!.!.^.^.(.(.!.!.~./.F.A.R a } | 3.x.bXx.5.<.vXbXMXnX5.2.@.zXlX@.=.E Y.R./.!.!.!.G.M.M.B.B.!.).^.G.G.H.~.^.^.",
"!.H.~.H.(.).~.~.H.G.~.!.!.~.^.~.!.G.G.G.J.b.N a 8 | 5.x.x.5.3.4.vXvXMXMXz.;.X.O.{ o.D ^ L./.~.H.B.B.B.M.M.M.M.G.)._.~.!.^.~.~.H.",
"(.^.~.~.(.^.^.!.G.G.!.~.~.!.~.H.G.B.B.G.L.U m u 8 | 3.5.3.3.4.*.cXvXNXMXl.;. .[ 0 u N U I.^.H.H.B.B.F.M.B.B.B.B.(.).H.H.~.^.~.H.",
"_._.(.~.~.H.G.B.B.B.~.).^.^.~.G.B.G.G.F.S.C p 0 0 } -.2.1.%.$.cXcXcXvX6.Q T q 3 3 * C D.I.^.~.~.^.~.G.G.G.!.B.B.G.H.G.B.G.H.!.~.",
").).(.^.H.B.M.B.Z.!.!.^.^.~.G.B.M.M.M.J.U.C e 0 ] [ } | X.$.$.&.cXcX4.:.T v q 3 . + C U.H.(.^.^.).).G.G.~.!.B.m.B.G.B.B.G.H.!.~.",
"^.^.).).G.M.M.B.!.~.!.H.H.H.B.M.M.M.N.C.U.F u 0 ] [ 0 0 { O.+.$.&.&.~ R v i 0 9 .   N U L.~.(.).~.~.H.~.~.!.N.N.B.G.G.B.B.G.~.~.",
"!.!.^.~.G.m.m.N.!.!.!.G.H.G.M.B.J.P.J.T.^ S e 0 0 0 7 7 0 } d } #.#.#.a i q [ 0 .   M P U.I././.H.H.H.~.!.!.B.N.B.!.G.!.!.H.!.!.",
"!.Z.!.Z.G.B.m.M.!.~.!.G.G.B.B.M.T.`. X|.~ A w 3 3 3 4 4 O t D =. .} | } q q 0 9 . + m ~ '.[.T.P.H.B.!.!.G.G.M.B.H.!.~.~.!.!.G.B.",
"!.!.Z.G.G.B.m.N.B.!.G.G.G.G.J.J.`.]. XoXR , 5 3 4 4 @ O   , E :.D d s 0 0 9 8 4 o + r S ` [.[.Y.P.P.~.H.G.G.F.G.~.^.~.~.!.!.Z.Z.",
"G.!.~.~.H.G.B.N.B.G.G.G.!.P.P.T.[.oXoX>.p ; @ @ 5 # @ O O , T :.:.E u 6 4 4 4 4 # # ; p ( _ [.}.].`./.~.G.M.M.B.H.(.^.!.B.B.!.^.",
"B.!.^.).~.G.M.B.B.B.B.H.~.T.T.'.'._ >.E < o @ % 6 5 O O $ 2 ) ,.,.E a y 6 # @ # w w ; : A E _ _ ].R.P.H.G.B.F.H.^.(.^.!.Z.Z.!.^.",
"B.!.).).~.B.B.Z.!.!.G.G.G.T.'.^ F D S a ; o # w 6 % o O > a ) ,.,.:.E D r % O # # w # ; : 1 R ) [.].L.M.B.G.~.(.).).~.G.!.~.^.~.",
"B.!.^.^.H.B.Z.Z.^.^.!.G.G.A.^ ~ A A p p ; # 5 w 6 5 o + a R ` ,.,.,.,.( m : + o # w w #   * 2 R _ [.L.M.M.G.~.(.).).H.H.~.~.^.!.",
"G.G.H.G.B.B.!.^.).).!.G.M.b.C A < u d u w w w 5 6 #   : R ` ,.,..XXX,.` S p o o @ w w # + + * m / [.I.H.M.B.~.(.^.~.~.H.~.!.Z.!.",
"~.~.G.B.m.B.Z.~.^.^.~.G.F.b.N m < w u u w w w 5 # @ * 1 ) XX,.,..XXX+X` S p + o # w w ; # +   < ) ].`.^.M.B.~.~.~.~.^.^.~.!.!.Z.",
").(.H.G.G.B.N.Z.!.^.^.~.B.C.~ S r ; w w w w 5 # o # < A >..X.X.XXX.X,.) D p ; # w w w w ; # + 1 ) [.R.~.B.B.~.).^.^.(.(.H.G.B.B.",
").^.G.G.!.G.Z.N.Z.~.).^.B.J.'.~ A p e : ; w ; # o * a E >..X.XXXXX,.) E a y w 6 5 w w 5 # : p m ^ ].R./.!.Z.^.).).(.(.(.H.H.B.M.",
"~.H.B.G.H.H.G.B.Z.~.).).G.J.U.'.~ D p e ; + # + # : D ) >.OXOXOXXX` E a d p y w w 5 w ; # : D ~ '.`./.^.B.!.^.).~.~.^.(.~.~.G.G.",
"G.G.B.B.H.H.G.G.!.!.).).P.G.T.].'.~ D p p < < < p A E >..X.XOXOXXX>.R A p u u w ; w ; w < A ~ '.R./.~.^.B.Z.^.).~.H.H.^.^.~.G.B.",
"!.!.!.!.~.~.G.G.G.H.~.~.^.H.P.T.].'.( E E S E E E ) >..X.X.XOXOXOX>.) E a y w ; = * * < D ( '.T.L.K.~.!.B.B.~.~.!.G.G.~.(.^.F.M.",
"!.!.!.!.!.!.G.B.B.B.B.H.~.~.!.!./.].'.[._ _ ` [.` >..XoX.XOXOXOXOXoX>.:.D A a 2 p m 1 A ~ '.].T.J.B.G.B.B.N.Z.!.B.B.B.!.(.(.F.M.",
"B.B.!.!.Z.B.B.B.m.m.m.M.G.G.!.~.P.J.T.R.|.|.|.oX[..X.XoXOXOX.XOX.XOX.X.X>.) ) / ^ ^ ^ '.U.C.V.V.V.m.m.v.n.N.N.B.B.B.B.!.!.~.!.H.",
"m.N.!.!.B.B.m.m.m.m.m.m.M.G.H.!.!.!.^.^. X X X XoXoXoXoXOXOXOX.X.X.XOXOX.X.X' ' [.[.].].C.V.v.m.m.m.v.v.n.n.n.B.B.B.B.Z.!.~.~.~."
};
