/* XPM */
static char *out[] = {
/* columns rows colors chars-per-pixel */
"64 64 245 2 ",
"   c #080C0E",
".  c #0F170E",
"X  c #0A0D15",
"o  c #0E1316",
"O  c #141A14",
"+  c #13151B",
"@  c #171919",
"#  c #151C1B",
"$  c #2C191E",
"%  c #1A2414",
"&  c #1C2A17",
"*  c #1A241B",
"=  c #1D3217",
"-  c #20251B",
";  c #222C1C",
":  c #322E1A",
">  c #24321D",
",  c #263A1A",
"<  c #0F0F24",
"1  c #121424",
"2  c #161C22",
"3  c #1A1D22",
"4  c #15182C",
"5  c #171938",
"6  c #221927",
"7  c #251C3A",
"8  c #1B2224",
"9  c #1E242A",
"0  c #1F2C29",
"q  c #1A2236",
"w  c #252826",
"e  c #21262B",
"r  c #232A2C",
"t  c #352828",
"y  c #2B3823",
"u  c #333C26",
"i  c #303138",
"p  c #4D2E0D",
"a  c #582D16",
"s  c #563813",
"d  c #6C360D",
"f  c #673616",
"g  c #773D15",
"h  c #462F25",
"j  c #5A3426",
"k  c #683925",
"l  c #743C26",
"z  c #2A4717",
"x  c #2B5311",
"c  c #345A18",
"v  c #38740C",
"b  c #396817",
"n  c #3B7613",
"m  c #32442F",
"M  c #374928",
"N  c #3B5925",
"B  c #3F6425",
"V  c #4C4C12",
"C  c #664B10",
"Z  c #784216",
"A  c #467707",
"S  c #476716",
"D  c #437A16",
"F  c #547110",
"G  c #58791C",
"H  c #6B6414",
"J  c #787B1C",
"K  c #42552E",
"L  c #514635",
"P  c #435430",
"I  c #485B33",
"U  c #6C4526",
"Y  c #774226",
"T  c #6A4633",
"R  c #764A30",
"E  c #46622C",
"W  c #4D7928",
"Q  c #54772F",
"!  c #4E6435",
"~  c #556D3A",
"^  c #59753A",
"/  c #70752B",
"(  c #1C1B45",
")  c #1D1D50",
"_  c #231D4B",
"`  c #1D224A",
"'  c #1C2C55",
"]  c #272248",
"[  c #2A344A",
"{  c #343846",
"}  c #262858",
"|  c #322B58",
" . c #353151",
".. c #292B65",
"X. c #2A376C",
"o. c #393B68",
"O. c #2A3778",
"+. c #473D4E",
"@. c #215567",
"#. c #354C73",
"$. c #4A4657",
"%. c #4F4C50",
"&. c #6B594F",
"*. c #735544",
"=. c #5C7740",
"-. c #617D42",
";. c #7D6A5F",
":. c #4D4B65",
">. c #564D68",
",. c #4A4A77",
"<. c #5E6574",
"1. c #6A6566",
"2. c #716767",
"3. c #767379",
"4. c #874A14",
"5. c #944F15",
"6. c #8B561A",
"7. c #985819",
"8. c #A85B19",
"9. c #816919",
"0. c #9D631C",
"q. c #A9681D",
"w. c #B46A1C",
"e. c #B8731F",
"r. c #88532D",
"t. c #966728",
"y. c #977823",
"u. c #866D32",
"i. c #AB6F2B",
"p. c #A97725",
"a. c #B67A23",
"s. c #C37B1F",
"d. c #C27C21",
"f. c #885C45",
"g. c #906E4F",
"h. c #8E796D",
"j. c #A97C64",
"k. c #268C00",
"l. c #3A8808",
"z. c #2E9400",
"x. c #359400",
"c. c #3B9600",
"v. c #359900",
"b. c #3D9A00",
"n. c #3E940B",
"m. c #3EA100",
"M. c #458A0B",
"N. c #5B8A06",
"B. c #439404",
"V. c #4B9404",
"C. c #439D01",
"Z. c #499E02",
"A. c #44940B",
"S. c #4B930A",
"D. c #459A0A",
"F. c #4C9B0A",
"G. c #549909",
"H. c #4A8717",
"J. c #548716",
"K. c #4A9714",
"L. c #55991A",
"P. c #658E16",
"I. c #45A100",
"U. c #4BA401",
"Y. c #4EA801",
"T. c #4FA30A",
"R. c #51A502",
"E. c #53A901",
"W. c #56A708",
"Q. c #55A214",
"!. c #62A719",
"~. c #578A28",
"^. c #589626",
"/. c #5D952D",
"(. c #5E8838",
"). c #5C9331",
"_. c #6C9128",
"`. c #61863B",
"'. c #628E3C",
"]. c #659539",
"[. c #66A22F",
"{. c #658444",
"}. c #698544",
"|. c #668A42",
" X c #6B8A45",
".X c #6E8F44",
"XX c #908C33",
"oX c #AF8C31",
"OX c #C88726",
"+X c #D18E24",
"@X c #CD952C",
"#X c #D69629",
"$X c #DC9C2B",
"%X c #C79536",
"&X c #D49C33",
"*X c #E09F28",
"=X c #DEA12E",
"-X c #CBA33B",
";X c #D9A335",
":X c #E3A42C",
">X c #E5AA33",
",X c #E4AA37",
"<X c #EAB33C",
"1X c #8A8841",
"2X c #99835C",
"3X c #AF9149",
"4X c #8C877B",
"5X c #97897A",
"6X c #B59074",
"7X c #CA9547",
"8X c #D5AD49",
"9X c #D4AB5C",
"0X c #E9B743",
"qX c #F0BF48",
"wX c #E8BF53",
"eX c #C28E6A",
"rX c #DAA973",
"tX c #E4B275",
"yX c #F2C24B",
"uX c #EEC556",
"iX c #F4C956",
"pX c #2F3D86",
"aX c #3A4789",
"sX c #384695",
"dX c #495289",
"fX c #626783",
"gX c #2792A3",
"hX c #71A7A7",
"jX c #8A8D87",
"kX c #968D86",
"lX c #9E938A",
"zX c #A59888",
"xX c #90A59D",
"cX c #B1A490",
"vX c #85A5A1",
"bX c #AFB8AE",
"nX c #C39D85",
"mX c #D2B088",
"MX c #DDB79B",
"NX c #E5B691",
"BX c #D9BBA4",
"VX c #EEC59F",
"CX c #D4C5B3",
"ZX c #ECC9AB",
"AX c #D7D4C7",
/* pixels */
"E.Y.Y.U.U.Y.E.E.E.Z.Z.Z.Z.U.U.U.C.C.b.b.T.T.R.G.L._./ / XX1X1XXX1X1X1X1X1X[.[.!.A.n.Y.Y.C.c.B.c.c.x.z.x.C.C.c.c.U.Y.U.D.x.x.C.U.",
"Y.Y.I.I.U.Y.E.Y.U.C.Z.C.C.C.C.C.C.b.b.C.T.Q.!.P._._.1Xy.3XXX1X3X3X1X1X3X3XXXXX[.N.G.T.Y.C.B.C.c.c.x.x.x.C.C.C.C.U.Y.I.b.x.c.C.U.",
"I.I.b.b.U.U.I.C.C.b.C.C.C.C.C.b.c.b.Z.Z.L._.XXXXoXXX3X7X-X-X-X-X-X-X8X8X8X-XoXXXP.G G.R.U.I.b.v.c.b.v.C.C.Z.C.I.Y.U.C.b.v.v.C.I.",
"m.I.b.C.U.U.C.b.b.b.C.C.C.b.b.c.b.C.G.P._.XXoX%XoX7X8XwX8X0X<X0X<X0XuXuXuX<X@XoXy.9.P.N.G.Z.B.x.c.v.C.C.C.C.C.I.I.I.I.b.C.m.b.I.",
"I.I.Y.Y.E.Y.U.C.C.Z.U.I.C.C.C.c.Z.F.L._.XX@X-X<XyXuXiXiXuXuXyXyXiXiXiXiXiXuX0X-XoXXX9.N.G.S.B.x.x.x.C.Z.C.C.v.m.b.I.m.I.C.C.C.b.",
"I.I.E.E.U.U.Z.C.U.C.C.C.c.c.C.C.Z.G.P.XX@X;X,X<XyXuXiXiXiXiXiXiXiXiXiXiXiXiXyX,X+XoXy.J P.S.B.x.x.b.C.Z.C.b.v.m.b.m.b.I.C.C.b.b.",
"E.E.E.E.C.C.C.C.C.C.v.b.c.c.C.C.Z.N.9.XX-X:X*X:X<XqXqXyXyXqXqXyXiXyXqXqXyXyX0X<X*X+Xa.y./ H.M.B.c.C.U.E.C.C.I.I.I.I.C.b.b.b.v.v.",
"E.E.E.E.C.b.b.C.C.m.b.v.c.c.C.B.R.N.9.XX@X*X*X#X;X,X,X,X<X0X0X0XqXqX<X<X0X0X<X:X$X+XOXp./ F S.Z.C.C.R.E.U.C.Y.E.Y.I.C.b.v.b.v.c.",
"U.R.E.E.C.b.b.C.C.I.U.C.C.c.c.B.V.F 9.8.OXOXOXOX+X@X@X#X:X>X<X<X<X<X>X:X:X:X:X*X+X+Xs.e.9.F N.R.C.I.Y.Y.E.E.E.E.E.U.C.B.c.c.c.c.",
"C.R.E.E.U.C.c.B.C.U.E.E.C.C.b.B.V.F C 5.q.e.q.e.d.+XOXOX$X:X;X,X>X>X:X:X*X*X*X+Xs.s.a.e.4.H N.E.Z.I.U.Y.E.E.E.E.E.U.C.C.b.b.B.c.",
"c.Z.E.E.Z.c.c.C.U.E.E.E.E.C.C.b.B.F C g 6.0.7.q.&X&X+X+X$X;X@XoX=X:X:X:X*X*X+Xs.w.w.e.w.4.C N.V.Z.U.Y.E.E.R.Y.U.U.U.U.U.Y.I.v.c.",
"B.C.R.E.Z.C.C.C.E.E.E.E.U.U.C.C.B.A V f 4.7.5.0.%X&Xa.OX$X&Xa.p.@X*X*X*X+X+XOXe.w.q.q.q.g C F V.Z.C.E.E.U.U.U.U.C.U.Y.Y.U.C.b.x.",
"c.B.C.U.Y.Y.U.U.Y.E.Y.Y.C.Z.U.Z.V.A V C 0.q.6.7.e.a.i.e.&X@Xq.0.oXOXOXOXOXe.e.w.8.8.8.5.d p A V.C.Z.U.U.C.C.C.C.b.C.U.U.c.c.c.b.",
"C.C.C.I.U.Y.Y.Y.U.U.U.C.C.C.Y.R.V.A V C t.q.6.6.8.0.6.7.a.a.7.4.0.0.p.q.q.w.8.8.8.8.5.4.p p A B.C.C.I.C.c.C.C.C.c.c.Z.C.c.c.b.C.",
"C.U.U.I.C.Z.U.U.C.C.C.B.v.C.E.E.C.M.b H y.q.r.l Z Z g Y 4.4.g d d Z Z Z 5.7.8.8.8.8.5.g p : A V.U.I.C.b.b.b.U.I.c.x.C.C.C.C.C.C.",
"U.U.U.I.b.C.C.I.C.v.c.C.b.C.Y.E.C.A.D G u.t.r.R k f k g g d f f d d f d Z 4.5.8.8.8.4.d p V M.Z.U.I.C.v.v.b.U.U.B.c.B.C.C.C.I.C.",
"C.C.U.C.v.v.C.I.b.b.b.b.b.I.Y.Y.I.D.M.J./ g.g.f.*.k l l Y Y l k a k k Y l g g 4.5.4.g s V S M.C.U.Y.b.v.c.b.U.U.I.C.C.U.C.I.I.U.",
"B.C.U.C.c.c.I.I.I.b.b.b.I.I.Y.Y.U.C.A.J./ / j.j.h.g.g.*.R r.*.&.*.*.f.r.l g d d 4.g f s E J.B.I.U.I.C.v.v.b.C.U.U.U.U.C.I.I.I.I.",
"U.I.C.b.x.v.I.U.I.C.C.b.b.C.U.Y.U.C.B.H.G ;.2X6XnXeX6Xh.&.&.fXjXkX6XeXj.f.k f a d d s V G J.D.C.Y.Y.b.b.I.I.b.C.C.Z.C.C.C.C.C.I.",
"U.U.U.C.c.b.I.Y.I.b.b.C.b.b.I.I.C.b.x.M.G XX2X6XMXMXzXh.1.1.xXbXbXmXmXeXf.*.a a a s V S J.F.D.C.U.U.C.b.C.I.I.C.C.C.C.C.I.I.I.C.",
"Y.E.E.Y.U.Z.U.U.b.b.C.b.x.x.b.b.b.x.z.l.J./ 2X6XMXBXzXh.1.fXbXAXCXNXNXeXf.l j p p V S M.S.A.c.x.C.U.C.C.B.C.C.I.C.b.I.I.U.U.U.I.",
"Y.Y.E.Y.U.I.I.C.b.b.b.b.x.x.b.C.b.x.x.l.J._.g.6XMXCXcXjX4XjXAXAXZXNXNXeXf.k a a s V H.K.C.B.x.x.C.Z.Z.Z.b.v.I.I.m.b.m.I.Y.Y.U.I.",
"I.I.I.m.b.C.b.m.I.b.C.c.c.c.C.U.C.v.n.n.G _.2X6XmXMXcXcXcXcXZXZXZXNXNXeXf.k a : : M n D.C.c.x.x.x.v.C.C.B.b.I.C.b.b.b.I.Y.Y.I.m.",
"C.b.b.b.b.b.v.b.b.C.b.B.C.C.U.U.C.B.l.D H R g.2XrXtXmXmXrXMXVXVXVXNXrXj.r.k a p : m b M.A.B.x.x.x.x.C.C.b.b.U.U.I.m.C.I.Y.U.m.b.",
"C.C.b.b.c.x.c.c.B.C.c.C.Z.Y.U.Z.b.l.n N M u T g.3X9X9X9X9XtXNXNXNXrX7Xi.r.l k h - > z b A.F.c.c.c.c.b.I.b.C.U.Y.I.I.C.Z.Y.U.m.b.",
"I.b.I.b.b.v.b.C.C.c.B.C.U.Y.Y.C.A.n x z r t U r.oX7X7X7X8X9X9XtX7X%Xi.r.r.l j h w 8 > z H.K.D.b.c.v.C.b.C.C.C.C.C.U.U.U.U.U.m.m.",
"I.I.b.C.C.C.C.C.C.C.B.C.U.Y.Y.F.n.b , 8 9 u H t.p.oXoX%X&X7X;X7Xd.i.r.l l j h 7 8 * * , b H.n.B.B.b.b.C.b.c.b.c.b.C.U.E.E.Y.I.I.",
"b.C.b.C.I.U.C.C.C.C.C.C.Z.U.E.V.n x = 2 9 u U 6.6.t.i.oXOXOX+Xa.r.l k j h h t 7 8 8 8 0 x n l.C.c.b.I.I.C.b.c.c.b.C.I.Y.E.E.Y.I.",
"b.C.C.C.Y.U.b.v.B.C.C.C.I.Y.E.S.b z w 0 8 t j U U 6.t.p.q.q.q.6.f a $ $ 7 t i e 8 2 8 * = x v c.x.x.I.Y.I.I.v.b.C.I.C.C.E.E.E.E.",
"C.C.C.U.Y.I.v.c.C.I.C.C.U.U.G.M.x > r r 0 w t h a C 4.t.t.t.r.U h $ 6 6 $ 7 r e 9 3 8 * . = v v l.v.I.U.I.I.b.b.C.C.b.b.Y.E.E.Y.",
"Y.Y.U.U.U.C.c.v.U.Y.C.U.Y.R.S.A z & r r 0 e w t t : h T g.g.*.j 7 7 6 6 e e 7 e 9 3 3 * % = x v l.b.C.b.b.v.c.c.C.C.c.b.C.U.U.Y.",
"E.Y.Y.Z.C.C.c.c.Y.Y.U.C.Y.F.M.c , * 9 9 9 8 3 8 2 6 t +.h.5X2.$.| _ 5 3 3 0 e e 8 8 8 # O % , x l.b.b.b.v.x.v.c.c.c.c.b.C.I.U.I.",
"Y.Y.I.m.C.b.x.x.C.Y.Z.Z.Y.V.v x & * 8 8 2 8 8 8 4 7 ] $.5XlX1.$.o.} 4 # 8 9 9 8 8 8 8 8 8 8 = z v b.C.b.b.c.v.b.b.b.c.C.Y.U.C.C.",
"Y.U.b.v.b.b.x.c.C.U.C.U.Y.B.x = * # 8 8 8 8 2 4 5 _ | >.lXzX2.:.#.X.5 o 8 8 8 8 8 8 2 2 # # % z v A.C.C.C.b.b.v.v.b.b.C.U.U.C.B.",
"Y.I.b.v.v.b.c.c.C.C.Z.Z.Z.l.x % O # 8 9 9 2 o 2 ( } | >.lXzX2.$.#...< X # 8 8 2 + + + + X . = x b M.D.I.b.v.v.m.C.C.U.I.b.v.b.C.",
"Y.I.b.v.v.b.c.v.b.C.C.U.U.v x = & * * 8 8 8 + 2 _ ..| >.zXzX2.:.aXO.5 X o 2 2 2 2 1 1 < X . = x D M.Z.I.I.m.m.m.C.C.U.C.c.x.b.C.",
"E.U.m.b.C.C.c.x.b.b.I.U.C.A.v N x y = * 8 2 # 4 } ..| >.lXzX2.:.pXpX( < 1 + + 4 5 ( ( 4 o % x D S.Z.C.C.Z.U.U.I.C.C.C.C.C.C.C.Z.",
"U.I.b.v.C.C.v.c.b.I.U.U.C.B.l.n b b z z , > 0 r } ..| >.lXzX2.:.sXpX} ( 1 1 4 ( } } ) ` 0 z v V.G.R.Z.C.I.I.U.I.U.C.c.b.C.I.C.Z.",
"I.b.v.c.C.Z.c.b.C.U.E.E.R.Z.B.B.H.l.l.W W B P i  .| | >.lXzX2.:.dXpXO.} 5 5 ) ..O.pX..[ M S M.F.R.R.R.I.I.C.I.I.C.C.B.c.b.b.C.C.",
"v.b.c.c.C.C.C.C.U.Y.E.E.E.U.I.C.b.I.K.L.K.H.E u { | | >.kXzX1.:.dXsX#.,. . ...O.sXpXX.[ I J.S.U.R.R.R.U.C.b.b.b.C.C.C.c.c.b.B.C.",
"b.C.Z.Z.C.C.B.C.U.E.U.U.Y.E.Y.U.m.I.T.T.D.l.B m i ] ] $.lXzX1.$.pXdX>.2.2.1.,.dXpXO.| m W L.F.U.U.U.C.b.b.c.C.I.U.U.C.c.C.Z.U.U.",
"B.C.Z.U.Z.C.C.C.U.U.C.I.U.Y.E.Y.D.m.U.U.b.l.c m ] ] ] $.h.kX1.$.,.,.3.h.jX4X2.>.#.X.[ M H.G.T.I.U.C.b.c.c.c.C.I.Y.Y.C.C.C.U.E.E.",
"C.Z.U.E.E.E.U.Z.C.C.I.U.I.I.Y.U.C.C.m.b.A.n z r ] ] _ +.fXfX1.%.+.$.4XzXxXxXkX3.$.[ m b S.W.U.Z.C.c.B.c.c.x.v.b.E.E.Z.C.U.R.U.U.",
"U.U.U.U.E.E.U.C.b.C.U.U.I.U.U.Z.C.n.b.D.A.n , 7 _ _ ] | fXfX%.%.t h hXvXhXhX4X2.%.i N D S.R.Y.U.C.b.c.c.C.v.v.b.U.Y.C.Z.Z.U.U.U.",
"E.E.Y.U.I.I.C.C.v.C.Y.Y.Y.U.U.C.b.b.D.C.M.b r 5 ( _ _ | dXdXo.{ t { gXgXgXgX<.=.m N D L.G.R.U.U.E.U.C.c.m.I.b.b.C.C.C.b.Z.Z.U.Z.",
"E.R.Y.U.I.b.c.b.b.I.U.Y.E.Y.C.b.c.c.C.B.H.b 9 5 ( _ _ | sXaX| 7 t { @.gXgXgX#.m P D K.T.W.R.R.U.E.Y.C.C.U.I.m.v.c.c.c.b.C.Z.C.Z.",
"R.R.E.E.I.b.c.v.C.I.I.I.U.I.b.c.c.B.b.B.M.b w 4 ( _ } ..aXX.` 6 t { o.@.@.@.[ i N n K.I.Z.R.E.E.U.U.U.I.Y.I.b.v.b.C.C.C.C.C.U.U.",
"C.Z.Y.U.I.v.x.v.I.U.I.C.I.C.b.c.b.C.C.F.J.S & < ( ) ..O.O.' 5 2 t t i [ @.' q = N l.K.D.Z.Z.U.U.Z.Z.U.U.Y.I.v.v.C.C.C.I.I.I.C.I.",
"I.I.I.b.b.b.v.v.I.Y.b.b.C.b.b.b.m.U.W.Q.J.K % X 1 ) O.pX..` 8 2 @ $ 6 e q q + * N W J.K.F.T.I.m.C.I.Y.U.Z.C.b.b.C.U.I.U.U.U.m.m.",
"I.I.b.m.b.m.v.m.I.I.C.C.b.C.b.b.D.T.!.!.W S %   < ( O.O.) 5 q # + + 1 2 + + o % M K ~.^.^.K.K.m.C.C.U.U.C.C.b.C.U.U.U.U.I.U.m.b.",
"m.I.Y.I.I.b.v.b.v.b.C.C.C.C.c.b.K.Q.^.(.Q K %   X 4 ) ' 5 4 9 8 6 + + + + o O % & z E Q ).^.L.K.D.C.Z.Z.C.c.B.Z.U.U.U.U.m.I.I.I.",
"b.m.U.Y.I.b.b.b.b.C.C.Z.Z.C.A.K.L./.'.`.~ M %   o 2 5 5 1 1 3 8 $ @ # o # O # O O & M E ^ '.).L.F.C.C.C.C.B.C.Z.R.E.U.Z.I.I.I.Y.",
"b.I.Y.U.I.b.v.C.I.I.C.C.C.F.K.^.).'.`.`.~ M % . o # o o X X + o X + @ @ # # # # # * ; M =.|.'.).^.F.C.v.B.C.C.Z.E.E.U.C.I.U.U.I.",
"b.I.U.U.I.b.b.I.Y.Y.U.C.C.F.L./.'.{.{.=.! M * o # # o .   X O * . . . @ 8 3 2 8 # * % , =.{.|.(./.L.F.b.c.b.Z.U.E.E.Z.C.I.Y.I.Y.",
"C.C.Z.Z.b.b.C.Y.E.E.U.C.D.A.~.(.|.{.-.~ K M * O # # # o   O y m - O @ 6 9 8 8 3 # * w M =.{.{.|.]./.T.I.b.b.U.Y.Y.U.U.Z.I.I.I.I.",
"U.U.I.C.C.b.C.U.Y.E.Y.U.v.A.~.`.-.=.~ I M > * # 2 # # . X % M N : - - w r e 8 # # * u P =. X{.|.'./.Q.U.v.b.U.Y.U.I.Y.Y.I.m.I.m.",
"E.E.C.C.C.C.b.b.I.Y.U.I.b.A.).`.=.! P u i r 8 * 8 8 * O O ; I I , * w e r r 9 # O & M ~ -.{.|.|.'./.Q.U.b.b.Y.E.Y.Y.R.U.Z.C.C.c.",
"E.E.C.C.C.C.v.b.m.I.E.Y.C.A.~.(.~ I u r r r 8 8 8 * @ O O y ! ! > % w e e 9 8 * * y ! =.{. X|.|.]./.T.I.I.m.Y.E.E.E.E.R.U.C.b.c.",
"U.Z.C.b.C.Z.b.b.I.Y.E.E.I.n.L.~.Q N ; * w 9 * % # @ . . % y ~ ! > O O # # * % ; m N =.{.{.{.|.'./.L.W.U.b.I.Y.E.U.U.U.U.Y.C.C.b.",
"Z.Z.b.b.C.Z.I.b.I.I.E.E.U.n.K.~.W E , w y y y > > ; ; ; : M ~ ~ u ; ; w w ; > , m =.{.|. X|.'.).L.Q.U.U.b.m.Y.E.Z.Z.U.E.Y.U.C.b.",
"U.U.C.C.I.I.I.I.I.I.U.R.U.U.D.K.H.W E P I I P P P K P K P ! -.-.I P P L K P P ! {.{.|.|.|.'.).L.K.I.T.I.C.b.U.U.C.C.I.U.R.U.c.x.",
"C.I.C.C.I.I.C.b.b.b.C.C.U.U.I.C.K.H.~.Q Q ^ ^ ^ ^ ~ ~ ~ =.-.}.{.-.^ ~ ^ ~ ^ ^ ^ |.].'.'.).).K.K.b.b.b.b.v.v.C.C.C.b.m.I.E.E.B.x.",
"c.b.I.I.I.b.b.v.v.v.v.C.C.C.I.I.D.D.K.L.^./.].'.`.{.}.-.}.}.}.{.-.-.-.-.-.-.}..X].].).^.K.n.n.l.v.v.z.k.z.v.v.v.b.C.b.I.U.Y.C.C.",
"v.v.I.I.b.b.b.v.z.z.x.c.c.b.C.m.b.C.T.W.!.[.[.[.|. X X.X.X X}.}.}.}. X X.X.X.X.X].[.^.^.n.n.x.x.x.z.k.k.k.v.x.x.b.b.b.C.C.U.U.Y."
};
