/* XPM */
static char *out[] = {
/* columns rows colors chars-per-pixel */
"64 64 248 2 ",
"   c #070B0A",
".  c #090C0C",
"X  c #0C120D",
"o  c #0B0D12",
"O  c #0C0E1B",
"+  c #0E1213",
"@  c #0E101A",
"#  c #121315",
"$  c #111514",
"%  c #1A1315",
"&  c #151B15",
"*  c #11161A",
"=  c #151B1C",
"-  c #191D1C",
";  c #301D18",
":  c #13230A",
">  c #192415",
",  c #1B231B",
"<  c #1F3313",
"1  c #252C1E",
"2  c #362B15",
"3  c #25361A",
"4  c #0F1026",
"5  c #121324",
"6  c #161C21",
"7  c #1A1E21",
"8  c #17152B",
"9  c #1A1737",
"0  c #241A35",
"q  c #1C2224",
"w  c #1F2429",
"e  c #272A27",
"r  c #22252B",
"t  c #362823",
"y  c #293624",
"u  c #353A23",
"i  c #282A37",
"p  c #34343A",
"a  c #441E19",
"s  c #572B0F",
"d  c #562A18",
"f  c #4C3012",
"g  c #5A3616",
"h  c #612F16",
"j  c #683817",
"k  c #733C13",
"l  c #463A26",
"z  c #50312A",
"x  c #693626",
"c  c #1F4602",
"v  c #264909",
"b  c #2A4715",
"n  c #2E5612",
"m  c #335817",
"M  c #3A7B0B",
"N  c #396819",
"B  c #3B7012",
"V  c #334B2C",
"C  c #3A4A29",
"Z  c #3A5729",
"A  c #3C6727",
"S  c #525016",
"D  c #794617",
"F  c #704A16",
"G  c #516F12",
"H  c #467A1C",
"J  c #6D6A13",
"K  c #757A17",
"L  c #494F31",
"P  c #455833",
"I  c #764625",
"U  c #6C4838",
"Y  c #724E31",
"T  c #4D6F26",
"R  c #4D6336",
"E  c #526738",
"W  c #556C3A",
"Q  c #58753C",
"!  c #6E792D",
"~  c #1D1B46",
"^  c #211A43",
"/  c #221D4C",
"(  c #231F54",
")  c #1F255B",
"_  c #27254A",
"`  c #36324D",
"'  c #25255A",
"]  c #3A3659",
"[  c #272967",
"{  c #23306C",
"}  c #3B3866",
"|  c #292C76",
" . c #2B3277",
".. c #353777",
"X. c #453850",
"o. c #4E4658",
"O. c #6E5347",
"+. c #675758",
"@. c #567148",
"#. c #627D42",
"$. c #776754",
"%. c #534F66",
"&. c #434679",
"*. c #635B6B",
"=. c #71686F",
"-. c #7A767D",
";. c #864715",
":. c #954E15",
">. c #875917",
",. c #985618",
"<. c #A75A18",
"1. c #916419",
"2. c #A8651C",
"3. c #B56A1B",
"4. c #BB731D",
"5. c #885925",
"6. c #865434",
"7. c #956424",
"8. c #8E7224",
"9. c #836A38",
"0. c #A56B24",
"q. c #AB7826",
"w. c #AD732F",
"e. c #B87B26",
"r. c #C2791E",
"t. c #C57F20",
"y. c #865B45",
"u. c #8D6C53",
"i. c #A57154",
"p. c #A6785D",
"a. c #847261",
"s. c #987868",
"d. c #867B70",
"f. c #AD7D64",
"g. c #2C8E00",
"h. c #3C8607",
"j. c #368C0B",
"k. c #369400",
"l. c #3B9600",
"z. c #359A00",
"x. c #3D9A00",
"c. c #3F9508",
"v. c #3DA000",
"b. c #46870A",
"n. c #558B0A",
"m. c #429504",
"M. c #439D00",
"N. c #499E02",
"B. c #44940A",
"V. c #489708",
"C. c #4B9C0B",
"Z. c #54990A",
"A. c #478815",
"S. c #558919",
"D. c #4C9715",
"F. c #549819",
"G. c #668717",
"H. c #669716",
"J. c #45A100",
"K. c #4BA401",
"L. c #4EA801",
"P. c #4EA10B",
"I. c #52A601",
"U. c #53A901",
"Y. c #59AD01",
"T. c #56A40D",
"R. c #55A316",
"E. c #66A619",
"W. c #4D942C",
"Q. c #589527",
"!. c #5C8A36",
"~. c #5E9233",
"^. c #658925",
"/. c #738E2A",
"(. c #61883A",
"). c #638C3D",
"_. c #659637",
"`. c #65933B",
"'. c #56A22F",
"]. c #66A430",
"[. c #3C8F53",
"{. c #309271",
"}. c #518C4A",
"|. c #658444",
" X c #688645",
".X c #668943",
"XX c #6A8B45",
"oX c #6A9141",
"OX c #518B72",
"+X c #858837",
"@X c #949033",
"#X c #BB852D",
"$X c #B48F36",
"%X c #A2933C",
"&X c #92A03A",
"*X c #C8801F",
"=X c #C88826",
"-X c #CE912D",
";X c #D89829",
":X c #CA9733",
">X c #DBA537",
",X c #D0A339",
"<X c #E2A32D",
"1X c #E4AA36",
"2X c #E9B33D",
"3X c #8B8A40",
"4X c #968850",
"5X c #AB8B48",
"6X c #8F8273",
"7X c #938870",
"8X c #B18F72",
"9X c #B1AA77",
"0X c #C89945",
"qX c #DAAA44",
"wX c #D1AD4D",
"eX c #ECB946",
"rX c #E9B84F",
"tX c #D09C66",
"yX c #D2AE70",
"uX c #E6B674",
"iX c #F1C24D",
"pX c #EBC358",
"aX c #F3C653",
"sX c #F4C957",
"dX c #E5CB7B",
"fX c #2D3481",
"gX c #353B85",
"hX c #333A8C",
"jX c #333C93",
"kX c #394196",
"lX c #455082",
"zX c #1B9195",
"xX c #28908C",
"cX c #5B958B",
"vX c #998E89",
"bX c #A89688",
"nX c #B0AFAA",
"mX c #C59D84",
"MX c #C9AE89",
"NX c #D5A888",
"BX c #D9B897",
"VX c #E7BB93",
"CX c #CAB7A3",
"ZX c #DAC08D",
"AX c #EAC699",
"SX c #DCC3A8",
"DX c #ECCDAD",
"FX c #D4D1C4",
/* pixels */
"I.I.L.L.I.I.Y.Y.L.K.N.M.M.J.K.K.m.x.x.x.L.L.T.T.I.Z.! ! +X+X3X3X3X3X+X/.`.].+X/.A.V.K.K.x.z.M.x.x.k.g.g.m.M.l.M.K.L.K.M.l.k.J.L.",
"L.L.K.K.L.L.I.I.K.M.K.M.M.M.M.M.M.l.x.M.K.R.H.H.H.H./.+X&X5X5X%X%X%X%X&X5X&X@X+XG.n.P.P.M.x.x.m.l.k.k.k.M.M.x.M.K.L.M.M.k.l.M.K.",
"J.J.x.x.K.K.J.M.l.x.M.N.M.M.x.x.l.M.M.N.F.^./.+X@X@X#X$X,XqX,X,X,X,X0XwXwXwX$X$X8.K F.T.P.M.l.k.l.l.x.M.J.N.M.J.K.L.M.l.l.x.M.J.",
"v.J.x.v.J.K.M.x.k.x.M.M.M.M.l.l.m.M.V.Z.^./.q.$X$X0X0XqXeXeXeX2XeXeXeXpXsXpXqX:Xe.8./.G.Z.M.l.k.k.x.M.J.M.J.x.x.K.N.x.l.x.x.x.M.",
"J.M.K.K.L.L.K.N.M.M.K.J.M.M.l.l.m.N.R.E.&X@X,X,XiXpXpXpXsXsXaXaXiXiXiXsXsXsXiX,X-X#X8./.H.C.x.k.k.l.M.K.M.M.z.v.x.J.J.x.x.x.M.x.",
"J.K.I.Y.K.K.N.N.K.M.M.M.M.x.m.M.M.V.F./.@X,X>X2XiXaXsXsXsXpXpXaXsXsXsXiXsXsXiXiX>X-X#X8.G.n.m.l.k.x.M.M.J.x.z.x.v.x.v.J.v.J.x.x.",
"L.L.Y.I.M.M.M.M.M.M.x.k.l.x.x.M.J.Z.G K #X<X;X1X2XiXiXiXiXeXeXiXsXaXiXeXiXiXiX2X1X>X=Xq.J J n.M.l.M.K.K.J.M.J.J.J.J.M.x.v.x.l.l.",
"L.I.Y.I.M.l.x.M.M.M.x.x.k.l.M.M.K.Z.J 8.#X;X;X;X>X>X>X1X1X2XeXeXiXiXeX2XeX2X2X>X>X;X:Xe.>.J n.N.M.M.K.L.K.K.I.Y.L.K.M.x.x.z.l.l.",
"J.K.I.I.M.x.m.x.M.J.K.M.x.l.l.M.K.n.J >.q.*X*X*X=X-X-X;X<X1X1X2X2X2X2X2X<X<X<X;X*X*X;X*X2.J G.n.N.J.K.L.L.U.Y.Y.I.K.M.m.l.l.k.l.",
"M.N.I.I.M.m.l.M.J.K.L.L.M.M.l.M.J.n.S F 1.3.2.3.r.t.=X=X;X;X<XqX<X<X<X<X<X<X<X;X*Xt.*Xt.<.>.G.H.N.M.K.L.I.Y.Y.Y.I.K.M.M.M.x.l.k.",
"l.N.Y.Y.N.m.l.M.L.Y.Y.Y.I.N.M.m.J.b.S g >.,.,.2.e.0X:X-X=X-X:X:X:X;X<X<X<X;X;X*X4.3.r.3.<.1.J n.V.K.L.I.U.L.L.K.K.K.K.L.L.J.x.k.",
"M.M.I.I.N.M.M.M.I.Y.U.I.I.K.M.M.M.M S g D ;.,.2.w.:X#X=X=X=X=X#X=X=X*X;X*X;X*Xt.3.3.3.<.:.>.J n.V.N.L.L.L.K.J.M.M.N.I.I.K.J.z.k.",
"x.M.J.L.K.L.K.L.I.I.I.L.K.J.K.J.M.b.S F F ,.2.0.w.e.w.4.r.w.w.w.3.4.4.4.e.r.*Xr.3.<.<.<.k F G G m.M.K.J.M.M.M.M.x.M.K.K.x.l.l.x.",
"M.M.M.M.K.L.L.L.L.K.K.J.x.J.L.K.M.b.H S >.,.2.0.0.,.,.,.0.0.7.,.,.,.,.,.2.2.3.3.3.<.<.:.k s G H m.N.J.M.l.x.M.M.l.m.N.N.l.l.x.M.",
"J.K.K.K.J.K.N.K.M.x.M.x.x.v.L.I.M.m.n.G K 5.7.5.D k k k I ;.x k F k k F F >.2.3.<.<.:.:.k s G b.m.J.M.x.x.x.J.J.l.l.M.M.N.m.M.m.",
"K.J.K.K.M.x.M.J.x.x.x.x.x.J.U.I.M.M.V.S.K 9.7.6.x j x j k k h h s s j j F F :.,.<.<.:.k s S G H M.J.M.x.l.x.K.K.M.l.m.M.N.N.M.M.",
"M.M.K.K.x.x.x.J.x.x.x.l.x.K.L.L.J.x.m.n.! ! i.u.6.x U x ;.x x h a z U x j k D ;.:.:.;.k f S G V.K.N.M.l.l.x.J.L.N.K.K.M.K.J.K.M.",
"m.M.K.K.k.k.v.K.J.M.x.x.x.J.L.L.J.M.l.B.S.! s.s.u.u.u.y.;.6.6.y.x U y.u.6.k k k ;.;.k j S S b.V.I.K.x.l.l.M.M.K.K.K.K.M.J.J.K.K.",
"M.J.M.x.k.k.J.L.K.v.M.x.x.M.K.K.M.l.l.B.F./.u.i.8XmXbXs.O.U s.vXs.s.8XtXp.6.x s k k h g R H B.N.L.K.M.m.M.K.M.M.M.M.M.M.M.M.J.J.",
"J.K.J.M.l.x.K.L.J.x.M.M.x.M.J.K.M.l.l.c.D.^.9.4XNXBXCXvXO.o.bXnXmXmXBXNX8Xy.d s s s F S T F.B.M.K.I.M.M.M.M.M.M.M.M.M.M.J.J.J.J.",
"L.I.I.L.J.x.K.K.x.x.M.l.k.k.x.x.l.k.g.k.B.H.! f.BXSXCXvX+.=.nXFXFXSXVXNXf.y.x s s S S G A.V.l.m.N.L.N.N.M.M.J.M.x.v.J.K.K.K.K.K.",
"L.L.I.I.J.J.J.J.M.x.x.l.k.k.x.M.l.l.g.g.B.G.y.p.BXSXCXbX=.lXnXFXDXDXVXNXp.y.d a a f T F.B.l.k.l.M.M.N.N.l.l.M.J.v.v.J.L.L.L.K.J.",
"M.M.M.M.v.x.v.M.x.x.M.l.l.x.M.K.M.l.l.c.n.! 9.p.mXBXZXMX7XbXCXDXDXDXDXNXp.6.d ; ; 2 T A.B.m.k.j.l.x.x.M.l.x.M.J.x.x.J.K.L.L.M.x.",
"M.M.M.x.x.x.x.M.M.M.l.x.M.J.K.L.J.m.B.b.H E U u.8XyXZXMXyXMXVXAXDXVXVXtXi.6.h a 2 1 Z N M h.j.k.k.l.x.x.l.x.J.J.v.v.x.J.K.L.J.x.",
"M.x.J.v.x.x.x.M.l.l.m.M.K.K.L.J.M.B.A.H m u z Y 5XtXtXwXtXrXVXVXVXVXtX-Xw.:.x z t , 3 b b m h.c.l.l.x.M.M.M.J.J.J.J.M.K.K.J.J.x.",
"M.M.x.J.v.x.x.x.M.m.m.M.K.I.K.K.m.B.H P y e l Y w.0X0XwXqXqXrXuXuXtXi.0.6.I x x t q q , > 3 N b.B.M.M.M.x.M.M.J.v.M.K.K.K.K.v.v.",
"x.M.x.v.v.M.M.M.M.M.M.M.N.K.L.K.z.M n 3 e y l Y 7.q.w.$X:X,XqXqX-Xw.,.k x z x z e q , = $ > b N h.B.m.x.x.l.l.x.x.x.K.I.I.K.J.v.",
"M.x.x.J.J.J.x.x.M.M.x.m.M.N.L.N.j.B < > r e u S Y 7.0.q.e.#X-X=X<.6.x d z z z 0 w q 6 * X $ e V B b.M.M.x.l.l.l.x.M.J.I.Y.Y.J.J.",
"x.M.M.M.L.K.x.l.M.M.M.M.K.L.I.Z.M m < q r e u l F D 7.0.0.0.w.7.D s ; ; ; i t i w w q * + @ * y A A.P.J.J.x.x.x.J.J.M.J.Y.Y.K.J.",
"M.M.N.N.K.M.z.k.M.M.M.M.K.L.I.V.B b y q r r y t l x F >.5.5.7.5.z ; % % 8 r r r w q q = = * O > m B C.J.J.x.k.x.J.K.x.x.K.Y.L.L.",
"L.L.I.K.K.M.k.x.L.I.M.M.I.I.Z.b.n 3 < q r w r e 2 t t z Y y.y.O.X.0 O # 8 r r r w q q q = * o + 3 m j.M.z.k.k.x.x.x.x.x.M.K.K.I.",
"I.I.L.K.M.x.l.x.L.I.K.K.I.I.V.B v 1 q q q q q q 6 7 r p O.$.u.=.X.^ O # 7 r r r q q q q q * X X : v h.l.x.k.l.l.x.x.x.x.x.J.N.K.",
"U.L.M.x.x.l.l.x.K.K.K.N.I.K.G B < = q q q 6 6 6 @ 5 9 ` O.a.6Xd.&.) 4 o * q q w q q q 7 - * o X : c g.x.x.x.x.l.x.x.x.J.L.K.J.M.",
"U.K.x.z.l.l.l.l.M.K.N.N.L.J.G n : $ q q q 6 6 * @ 4 / ] +.a.6X7XlX) 4 o @ 6 q q 7 7 7 7 - * o X : c h.x.J.x.x.l.x.x.x.M.K.K.M.l.",
"L.L.x.z.x.x.k.l.x.v.m.N.K.V.B < : * q w q q 6 6 5 9 ( } +.a.6XlXlX[ 4 O * 6 6 6 7 - * * = * O + : c h.M.v.x.x.z.l.M.M.N.x.l.x.x.",
"L.J.z.z.x.z.k.k.x.x.N.N.N.m.B b < > , q w q 6 6 4 ^ [ } +.a.6XvXlX{ ~ O 4 6 * * * * * 4 8 8 8 8 : c h.J.x.x.v.x.M.M.N.K.l.k.x.x.",
"L.K.v.z.x.x.k.k.z.v.J.J.N.m.M B N b q , , , = q 9 ~ [ } +.a.6X7XlX| ~ 9 4 4 O o o O 8 ~ ~ ~ ) _ w v M M.x.M.J.L.N.N.M.M.x.x.M.J.",
"L.J.x.x.M.M.x.z.x.J.K.L.M.M.B.b.A.A n b b y 3 w 0 / [ } +.a.6XlXlX| ) ~ ~ 9 4 O o 4 ~ ( [ { { ` i n h.M.x.J.K.K.N.M.m.l.M.M.M.M.",
"x.x.l.x.J.J.M.x.J.K.I.Y.L.N.M.m.A.j.j.T H H N V 0 ^ ' } *.a.7X7XlX .{ [ { ) ~ 8 % 8 '  .hXhX .{ y n h.J.M.M.v.M.m.M.l.l.x.x.M.M.",
"l.l.l.l.M.M.M.M.K.L.I.I.I.L.K.M.x.v.D.F.F.S.A.T e ^ ( } +.s.7XlXkX .{ |  . .) ~ 0 p } &.kXhX..] p n h.J.M.x.x.x.M.M.M.l.l.x.M.K.",
"l.l.N.N.M.M.m.M.K.K.K.K.L.I.I.K.J.J.P.P.C.c.A.N e 0 / ] +.a.6X-.&.| | | hXhX[ ` z O.=.*.lX..[ ] Z B B.M.x.x.x.M.K.N.x.l.M.N.K.L.",
"l.M.K.K.N.M.M.M.K.K.M.K.K.L.I.L.J.K.K.K.x.c.M A i ^ ^ ` +.$.d.=.&.{ |  .jXjX} o.$.s.vXvX*.} ` V T A.h.l.k.l.x.J.L.I.M.M.N.K.L.I.",
"M.N.K.N.I.I.L.K.J.J.J.K.J.K.L.K.J.J.x.M.B.j.T V i ^ ^ ` X.*.=.*...| [ | hXgXo.+.8XMXBXmX7X$.o.V A j.m.l.l.k.l.M.I.I.N.N.K.L.L.L.",
"I.L.K.K.I.L.K.K.v.v.K.K.K.M.K.K.J.l.l.l.B.h.A p _ ^ ^ / } %.*.%.} | | fXhX..o.$.9XAXAXBXbX X@.A A.B.l.m.x.l.x.x.K.L.K.M.K.K.K.K.",
"I.Y.I.L.K.J.M.x.z.x.L.L.L.K.J.J.M.M.M.m.l.M V i _ / 9 / } kX} ] | | hXjXjXgXX.Y yXdXdXdX7XcXOX[.W.D.v.v.J.v.x.x.x.x.M.x.M.K.M.K.",
"I.I.Y.L.J.x.x.x.z.v.K.L.I.K.J.M.l.m.M.M.M.M V i _ ^ 9 ^ {  .` _ [ | jXkXjX..` U 8XyXpX9XcXcXxX{.'.R.C.v.K.J.x.z.x.x.x.x.M.M.N.N.",
"J.L.I.I.J.x.k.x.M.J.J.J.K.K.x.x.l.m.x.x.M.A.Z V ` ^ 8 8 ^ / ~ ~ / [ fXjXhX| 0 z y.4X7X6XcXxXzXxX[.W.C.J.L.J.z.k.l.x.x.M.M.N.K.K.",
"M.J.L.L.x.z.k.z.J.J.J.M.J.J.x.x.x.M.m.N.V.W.A V _ 9 8 4 8 8 9 9 9 / [ ..| [ 0 t L O.O.$.{.xXzX{.[.W.P.L.L.J.v.z.x.M.M.M.K.K.M.M.",
"J.J.J.v.M.x.k.x.J.J.M.M.M.M.x.x.v.K.Y.T.R.Q.T Z i 6 q 6 O O O 4 9 9 / ( ( 9 5 % 1 t p P @.{.{.[.W.P.P.L.J.M.x.x.J.J.J.K.L.L.x.x.",
"M.v.J.v.J.x.z.k.M.M.M.M.M.m.x.x.K.P.E.E.~.!.T P y , 6 6 + o o @ 8 0 9 9 8 5 * .   % 1 L @.@.}.W.D.K.L.K.M.M.M.M.J.K.K.K.J.J.x.x.",
"x.M.L.L.M.x.x.k.x.x.M.M.M.M.x.x.K.P.]._._.).Q P y = 6 = * * # = r r r 8 O o o X   X y C @.|.}.W.D.C.K.K.M.l.l.M.J.L.L.L.v.J.J.J.",
"x.x.L.L.J.x.l.x.x.M.M.N.N.M.x.M.C.F._.oXoXXX|.E V < , 6 * * # = r i r % o . + +   $ y Z @.!.`.Q.D.C.J.x.M.l.M.M.L.I.K.K.J.v.J.K.",
"x.J.I.I.M.M.x.J.J.K.J.m.M.M.C.D.Q.~.).XXXXXX X@.P C 1 % $ + . $ - r w - $ . . o . & 1 C W XX.X~.Q.D.B.x.x.x.N.L.Y.Y.K.M.K.J.J.v.",
"x.M.L.L.M.x.x.K.I.L.J.M.x.M.C.D.Q..X.X.XXXXXXX XQ R L t > $ . . - q q q & $ . . + - 3 Z Q |.XX.X~.F.V.x.x.v.K.I.I.Y.N.M.K.L.L.J.",
"v.J.K.J.l.x.J.L.U.U.K.J.z.z.B.F.!..XXXXXXXXXXXXX|.Q Q L 3 & .   * 7 q , - X     X > u P #.|..X.X~.Q.Z.J.x.z.K.I.K.K.K.K.K.K.J.J.",
"K.K.J.x.l.x.v.L.U.I.K.K.z.z.C.Q.!.|.|.XXXXXXXXXX X X#.W u & X X * 7 7 - & $     $ 3 P W |..X.X.X~.Q.P.K.x.x.K.L.K.J.L.I.N.M.M.M.",
"U.I.J.M.x.v.v.v.J.L.v.v.v.x.C.Q.!.#.#.|.XX XXXXXXXXX|.W u > & $ - 7 7 - = *     & 3 R |.|.XX.X.X~.Q.P.J.x.v.L.U.L.L.I.L.K.N.m.M.",
"Y.I.M.M.M.x.z.z.v.J.L.K.x.x.B.D.!.|.|.|. XXXXXXXXX|.|.R u , q q r - 6 = = * X : 3 C Q  XXXXXXX!.~.Q.P.K.x.J.I.Y.I.I.L.L.K.M.m.l.",
"J.J.x.l.N.K.M.x.v.L.U.U.J.c.B.D.Q.`..X|.XX XXXXX X|.Q P y w r r - 7 = - * * > 3 P W #.XX.X X X.X~.F.P.J.v.J.I.Y.I.L.K.K.K.M.M.m.",
"M.x.x.M.N.N.N.M.J.K.U.Y.K.J.B.P.Q.~..XXX.X X XXX X#.E C y q r r , = - * = 1 3 Z W |. XXX.X.X.X!.Q.R.K.J.x.J.L.I.K.N.K.K.L.K.M.l.",
"J.J.v.J.K.K.M.M.M.M.K.I.L.M.M.V.P.W._.oXXXXXXXXX|.Q E L 1 # - 1 & - - - , y P W |.|..X.X.X.X`.Q.D.N.K.K.v.v.K.K.M.M.M.K.I.K.l.k.",
"v.J.J.J.J.J.M.M.M.l.M.M.K.K.J.M.B.D.Q._._.`.XXoXXX|.W P u 1 3 3 3 y 3 u u C W |.oXoX.X).~.Q.Q.W.V.x.M.l.z.z.J.M.M.x.M.J.I.L.l.l.",
"x.J.J.J.J.x.x.x.l.k.l.x.M.M.J.M.x.c.P.R.].].].oX`. X(.Q E R R R E E E E E W #..X`.`.`.~.D.D.B.c.c.k.k.g.z.z.z.z.x.x.M.M.K.K.N.M.",
"z.x.J.J.x.x.k.k.k.k.l.l.l.x.x.J.v.v.P.T.R.E.].].oXXX X(.#.#.#.#.#.#.#.#.#.|.XX`._._._.~.c.k.k.l.k.k.g.g.g.z.k.k.k.x.x.m.K.K.K.K."
};
