/* XPM */
static char *out[] = {
/* columns rows colors chars-per-pixel */
"50 50 252 2 ",
"   c #0B1215",
".  c #19261E",
"X  c #1B3A1D",
"o  c #243D1E",
"O  c #0A1C23",
"+  c #09222C",
"@  c #162529",
"#  c #193423",
"$  c #193827",
"%  c #1B3B2B",
"&  c #0B2936",
"*  c #182D35",
"=  c #1B3C34",
"-  c #173A3B",
";  c #243C27",
":  c #2C3232",
">  c #243838",
",  c #27481A",
"<  c #2F511A",
"1  c #39591B",
"2  c #3B6319",
"3  c #1D4429",
"4  c #1A443A",
"5  c #234323",
"6  c #284626",
"7  c #2C4A23",
"8  c #2B442D",
"9  c #34482A",
"0  c #2B5326",
"q  c #385626",
"w  c #284739",
"e  c #3C4C34",
"r  c #354A38",
"t  c #285636",
"y  c #3A5538",
"u  c #3B632A",
"i  c #3C6735",
"p  c #425E1C",
"a  c #46691B",
"s  c #4F741C",
"d  c #53771C",
"f  c #445C2A",
"g  c #40483A",
"h  c #455939",
"j  c #476727",
"k  c #526D28",
"l  c #4A7429",
"z  c #567826",
"x  c #476437",
"c  c #556939",
"v  c #497738",
"b  c #597836",
"n  c #607F27",
"m  c #647A3B",
"M  c #053448",
"N  c #1B3B48",
"B  c #043C53",
"V  c #283D45",
"C  c #194A43",
"Z  c #1C4D4F",
"A  c #07435C",
"S  c #254942",
"D  c #2B4B44",
"F  c #294848",
"G  c #374A46",
"H  c #28534A",
"J  c #385745",
"K  c #34534B",
"L  c #3B554C",
"P  c #3B5B4B",
"I  c #2D5056",
"U  c #375951",
"Y  c #3D5B50",
"T  c #3A6B4B",
"R  c #3B6756",
"E  c #064964",
"W  c #16546C",
"Q  c #065678",
"!  c #325666",
"~  c #2A6476",
"^  c #465944",
"/  c #435B4D",
"(  c #4A5E4C",
")  c #465756",
"_  c #425C51",
"`  c #525950",
"'  c #486446",
"]  c #4C644C",
"[  c #566749",
"{  c #477646",
"}  c #5B7748",
"|  c #456253",
" . c #4B6354",
".. c #4B6A54",
"X. c #4C665A",
"o. c #4C6A5C",
"O. c #546554",
"+. c #586355",
"@. c #536B54",
"#. c #5A6B54",
"$. c #546B5B",
"%. c #5B6D5C",
"&. c #4B7358",
"*. c #587457",
"=. c #5C715D",
"-. c #636B4A",
";. c #647848",
":. c #646B59",
">. c #63735C",
",. c #687859",
"<. c #777D59",
"1. c #455E67",
"2. c #546D62",
"3. c #5A6A64",
"4. c #5C7462",
"5. c #577B69",
"6. c #4E6D70",
"7. c #647563",
"8. c #677767",
"9. c #657A64",
"0. c #6C7B64",
"q. c #6B756E",
"w. c #6B7D6B",
"e. c #737D64",
"r. c #727E6A",
"t. c #7A7B68",
"y. c #687A73",
"u. c #847D6A",
"i. c #5B851B",
"p. c #628B1C",
"a. c #6D991D",
"s. c #5C8529",
"d. c #5B8634",
"f. c #638826",
"g. c #689528",
"h. c #6F962D",
"j. c #678738",
"k. c #779435",
"l. c #78A526",
"z. c #57874B",
"x. c #588859",
"c. c #66834A",
"v. c #6E8E4D",
"b. c #758757",
"n. c #5A8C6F",
"m. c #6B826A",
"M. c #7A8667",
"N. c #75836C",
"B. c #7B846C",
"V. c #6E966F",
"C. c #668375",
"Z. c #6C8373",
"A. c #728573",
"S. c #758975",
"D. c #7C8B74",
"F. c #768878",
"G. c #7C8C7A",
"H. c #7C9477",
"J. c #75A474",
"K. c #84B11A",
"L. c #8DB52D",
"P. c #828B56",
"I. c #83876B",
"U. c #8B8E6D",
"Y. c #838B74",
"T. c #888B76",
"R. c #968D77",
"E. c #899375",
"W. c #84927B",
"Q. c #8B947C",
"!. c #95947B",
"~. c #98957C",
"^. c #A49279",
"/. c #95A17D",
"(. c #055E83",
"). c #09688F",
"_. c #036B96",
"`. c #31728A",
"'. c #0275A5",
"]. c #447C94",
"[. c #0483B9",
"{. c #1885B4",
"}. c #3C9FA5",
"|. c #3C94BA",
" X c #758684",
".X c #718C91",
"XX c #639E99",
"oX c #478DAC",
"OX c #0189C3",
"+X c #0492CE",
"@X c #0198D8",
"#X c #109CD9",
"$X c #27A5D9",
"%X c #019FE2",
"&X c #02A5EA",
"*X c #1DA6E1",
"=X c #01ACF5",
"-X c #04AFF7",
";X c #02B3FE",
":X c #0CB5FD",
">X c #18B7FB",
",X c #2FBBF7",
"<X c #4FAAD1",
"1X c #67B2D1",
"2X c #4FBAE8",
"3X c #66BCE0",
"4X c #37C3FF",
"5X c #54D4D5",
"6X c #5CC3EF",
"7X c #46C6FD",
"8X c #58CAFB",
"9X c #75C9ED",
"0X c #63CEFC",
"qX c #65D0FE",
"wX c #6DD2FF",
"eX c #72D4FE",
"rX c #7FD8FF",
"tX c #859582",
"yX c #8A9682",
"uX c #8D9A84",
"iX c #82928E",
"pX c #89968A",
"aX c #949B84",
"sX c #9A9C83",
"dX c #979D88",
"fX c #A79D85",
"gX c #98A389",
"hX c #9BA38B",
"jX c #9CA793",
"kX c #A3A38A",
"lX c #A8A78B",
"zX c #B5AA8F",
"xX c #A5AC95",
"cX c #ABAD95",
"vX c #A8B196",
"bX c #ACB39C",
"nX c #B2B49C",
"mX c #B8B79C",
"MX c #8DACB1",
"NX c #AEB6A1",
"BX c #B4B9A2",
"VX c #BABCA2",
"CX c #C1B69C",
"ZX c #B0C4B8",
"AX c #C3C1AA",
"SX c #8EB9C7",
"DX c #B3D3D6",
"FX c #80CDEE",
"GX c #84DAFE",
"HX c #AEDAE8",
"JX c #B3E0EE",
"KX c #B4E3F2",
/* pixels */
"a q h e ; 9 ; , 6 , 7 9 6 o 7 o o < o 9 q a.i.< s K.p.s , , , 6 9 q ; 5 9 9 8 ; u < , , 2 0 X X X 2 ",
"[ R.R.R.R.U.t.e R f I.I.e.:.q.:.:.o f <.b.s.s.} d.a.s ,.y 1 c T.I.M.0.g Y.r.e.8.#., < ' h @.] / 6 < ",
"I.fXzXlXkXcXdX( j -.fXfXR.R.T.T.u.: g sX!.;.Q.Y.M.} >.Q.Z.e e.~.U.I.e.,.Q.Y.B.r.w.8 h m.*.0.$...T > ",
"I.lXzXzXnXcXsX( k -.fXlX^.sXR.u.t.e ^ sX!.M.Y.B.N.9.S.D.m.8 >.Y.D.U.Y.D.0.t.N.w.8.8 x.m.uX@.X._ D % ",
",.~.nXNXcXcXjX[ s c fXfXR.T.I.:.g e [ dXsXD.9 ( ] h ^ =.L 6 ; ( Q.Y.B.B.>.0.7.7. .; { S.m.=...G 4 t ",
"-.T.nXnXbXvXhX#.d p.9 : : 9 9 9 q f h M.E.I.m.E.Q.D.D.S.m.9 ' Q.D.N.N.0.+.+.,.N.r 6 c.}  .| P w 4 { ",
"[ nXvXNXxXxXjXO.b CXVXmXmXVXBXvX,.} b I.Y.M.,.Y.D.D.G.A.8.r #.r.0.e.0.7.N.m.7.%.) 7 s.H.] J J &.z.v.",
"^ tXyXpXG.8.( r c AXVXVXmXmXBXVX#.j c B.N.0.Y.D.N.D.F.A.5.w J y.w.7.4.9.0.7.%.$.o.; k v.v.;.} s.a.h.",
"p 9 9 9 o 9 p p m VXmXVXZXVXnXbX#.x [ r.r.$.r.r.w.Z.C.C.5.t = S | / w +.^ ^ L K D % ,.nXsX!.Y.O.} j.",
"d P.u.u.u.I.u.m m zXBXVXNXNXNXbX] x h ( / ; 8 ; 8 t w w C t $ % % $ X ; # @ # % 4 6 <.vXkXdXuXD.S.y ",
"c.CX^.^.^.R.u.-.c bXvXbXbXbXNXxX^ j j.y x b j.p.f.d l c c b m } c f a a j f f f 1 a M.hXhXuXpXS.4.w ",
"-.CX^.^.^.^.u.g h xXhXhXgXxXjXtXt j h.k.l.P.k.k.k.p.U.mXcXnXlXmXlX:.p b.zXfX^.^.` a ,.aXdXuXtXF.F.w ",
"c fX^.R.~.R.t.g 9 ^ h ( ( ^ e r w j VXzXlXlXlXcXAX: hXxXnXzXnXbXjX:.e :.fXu.^.u.` 1 :.dXpXT. XA.Z.D ",
"^ lXR.R.T.T.t.g p j h h g g e < 1 k AXCXlXfXfXfXdX^ y.ZXDXDXDXHXDXZX3.u.^.^.u.u.+.>.8. X3.q.+.) _ 8 ",
"g u.T.I.T.D.+.e c nXmXzX~.vXgX>.1 b BXcXkXjXpXjXMXMXDXHXHXKXKXKXJXJXJXJXDXzXu.].) N E W ! ! G : G x ",
"1 g ` ` +.^ e ; c cXlXfXcXlXkX,.f f dX XiX XG V > V ! ! 6..XXXy.1.q.MXSXMX].L V oX<X>X,X2X9X1X`.@ . ",
"k k f c h c k d m E.E.bXxXxXgXI.k 7.* I N @ `.1X<X+X+XOX`.~ >     B B M M N `.9XrX0X>X:X2X2X1.: : @ ",
": fXCXlXkXfXY.f [ ^ BXvXxXgXuXS.e @ |.8XoXM 2X0X7X;X;X;X7XwXFXoXO M @X=X-X8XeXGXeX8X:X=X'.: 3.3.` w ",
"T.AXfX~.~.R.>.q I.kXB.jXgXuXuXpXV Q >X0XoXQ 8X8X:X;X;X>X8XwXGX9X<X* B @X:X8X0XGXeX2X*X).  q.7.$.J @ ",
",.lXsXaXuXQ.9.e aXkXjXtXgXtXr.V : 3X>X2XZ Z 6X>X;X;X>X8XwXGXrX0X>X$X& O '.2X0X3XV @ O   : :.].X.K C ",
"-.fXdXuXpXG.%.'  .=.J ; 2.J P / @ N E A B A A [.+X&X8X0XGXeXwX8X>X=X(.: * W 1XFX1X<X+X[._.+ ) D - C ",
"( e.uXtXG.G.$.h *.J r 2 q w y ' F _.).).OX%X[.Q M M W ].1X3X8X8X>X:X[.I SX1.V ! `.`.).Q Z _ 9 6 , < ",
"f ^ #.=.,.5.P j l.k.v.f.s k ;.>.E %X'.Z ~ '.,X>X&XOX_.Q B N ~ {.&X,X|.V HXJXSX.X3.$.$.2.>.x ;.;.m d.",
"a s d j g.c c.h.L.K.v.v.c.U.mX:.(.&XE <X5X}.~ 0X4X;X=X=X&XOXQ M M |.oX> HXJXDXZ.c b b.b.D.>.Q.Q.D.m.",
"c kXV.f.b.h.j.j.L.l./.lXgX,.kX:.(.&XE Z 5X}.N >X:X;X;X;X;X;X=X&X'.+ N . SX3.( k p.f.E.uXQ.>.S.W.W.4.",
"0.dXQ.E.c vXvXD.j lXkXhXgXN.:.q.E &X+X`.A '.%X;X;X;X;X>X4X>X;X;X&XE O   q.z z f.f.p.m.W.G.yXG.S.A.#.",
"[ W.N.' =.jXgX' N.vXhX/.m.b.!.S.- &X&X'.+X-X;X;X;X;X4XqXwXwX4X;X+XO .XG t.dXaXT.T.,.h @.9.tXS.A.Z.' ",
"e G.D.B.y ^ ,.E.,.D.m.H.,.kXsXaXG '.=X;X;X;X-X=X;X;X8XwXeXeX0X-XE ) jXjXdXdXW.G.A.%.&...4.F.m.C.Z.P ",
"r _ P r 5 7.!.Q.N.M.vXxXkXE.!.E.w.M %X;X;X=XOX_.;X;XqXeXeXeX0X#X& iXjXhXuXtXG.S.N.X.j v.;.*.*...Y x ",
"u < 9 h z b.Y.Y.M.vXvXlXhXgXY.M.0.> (.&X@X'.A %X;X;X7XeXeXwX2XQ ) tXpXpXtXG.S.w.X.r a p.k.v.v.j.d.s.",
"c kXR.E.E.c M.t.@.] gXgXgXyXD.N.t.y.O M + E @X;X;X;X;X4X7X2X).> ^ r / %.4.=.{ / y q m kXhXQ.Y.W.jX] ",
"[ !.T.sXB.h 0.0.Y.W.*.tXtXH.S.9.%.%.y.O B +X;X;X;X;X;X-X&XE > >.z p 1 1 l l.L.z i.d Q.aXW.Y.S.A.Z.G ",
"e.sXt.:.] 9 e A.N.e.0.] A.m.m.$.D % 4 ] G + B (.'.'.).E V 3.3.j } gXE.U.M.} M.m.} j N.W.W.S.N.Z.Z.K ",
",.T.Y.W.0.7 q 9.w.9.O./ / K > % X , 2 d f.;.7.) ].3.q.7.y.=.#.j W.D.M.N.0.$.tX=.] ; 0.G.G.S.Z.C.Z.K ",
":.Y.Y.A.8.e l J o.X.J w . $ o y ;.c.c.;.n b.R.-.t.0.:.3.O.@.O.w 7.r.9.9.%.( P @./ ; %.F.F.Z.Z.Z.F.U ",
">.D.S.A.%.f d.0 = = # X < f E.lXaXaX!.Q.h [ !.D.-.7.:.+.` / D ; ] 7.=.@.| 4.] Y K $ w  .o...X.K S H ",
"( 7.Z.m.[ s.f.d 0 7 x d i.b.vX!.W.W.D.w.8 c T.>.>.#.+.O.(  .D # J X.X.m.$...| ..D $ 1 < y r r 8 3 5 ",
"q e y x b f.P./.gX~.E.,.z ;.uXY.G.D.A.9.8 [ y.=.%.O.L  .X._ U % 7 K 4.$.| Y T H S % v } 9.$.| | J 7 ",
"-.xXQ.Y.H.x fXsX~.aXaXdX8 c W.H.A.Z.Z.m.8 h 4.$.O.) / w U L D w v | o.6.Y U H C 4 t z.' X. .P L H = ",
"m.yXA.w.%.y uXQ.Q.W.W.G.; ' F.A.Z.C.C.2.y q Y | _ L G D - S H Z V.n.&.R U I H C T d.} @._ P K F S % ",
"J w.4.2.^ y tXW.W.G.S.Z.; 9 o...$.2.o.P 0 x 4 U P H H 4 & 0 4 t v.V.V.n.R T i x.XXd.&.&.w D D S t 0 ",
"6 P P T ' ' G.G.G.G.Z.C.; a < 5 6 ; ; ; 2 z % 4 4 Z 4 4 t 2 i d.d.V.z.d.d.g.l.l n.z.y 3 < q 4 t u s.",
"a z m z s.z D.S.Z.Z.C.y.% ;.hXQ.Y.S.w.9.] q v 6 3 3 0 l i.s.Q.E.H.} W.W.H.m.*.@.R 0 z j.j.s.l l z s.",
">.uXjXW.x j C.5.X.C.5.U = N.B.0.%.O. ._ Y 5 x.,.V.M.m.' s ,.W.r.9.' 9.9.$.' _ L H $ >.M.N.9.N.m.5.y ",
">.dXr.8.' 1 ; > w K R 4 4 >.e.%.O. ./ Y K ; @.G.D.B.A...q h 7.:.%.%...@._ / G G D $ #.w.0.$.X.( _ > ",
"' D.7.%.J 9.x l n.T P v l ^ 7.O.) _ L H S $ ] G.D.S.Z.o., y %.$.@. .r L L K K H C 3 #.9.$..._ Y L = ",
"y ( %. .9.2.] T ' x.ZXn.v @.$.| P K D F S = ^ G.Z.Z.C._ 7 ' y ..Y K D D K D D C 3 i /  .) Y L K H 4 ",
"( $.r m.$.| Y P J &.XXXX{ ..$.P G D F S = %  .G.Z.w.C.U 0 J o.J F w V w H S H C T 5._ / Y L K K H 4 ",
"9 i i o.Y K H U R x.J.n.x.i 4 4 4 4 4 w y 0 C.o.o.2.o.H v r S S > - C C - u t T n.x.t t t S H w H 4 ",
"i.s.q 6 R 5.R T z.j.g.z.J.l , 3 $ $ # 3 0 u } 2.R R U ..d.u $ @ # $ $ % 5 p.a.s.v z.i 3 3 3 X 5 0 u "
};
