/* XPM */
static char *out[] = {
/* columns rows colors chars-per-pixel */
"50 50 251 2 ",
"   c #0E1517",
".  c #111515",
"X  c #152B1E",
"o  c #1B3A1D",
"O  c #243D1E",
"+  c #0D1E25",
"@  c #193423",
"#  c #193827",
"$  c #1B3B2A",
"%  c #082937",
"&  c #102933",
"*  c #1B3C33",
"=  c #1A393B",
"-  c #253C27",
";  c #2F3330",
":  c #243B36",
">  c #1F401D",
",  c #27481A",
"<  c #2E5219",
"1  c #39581B",
"2  c #3B6419",
"3  c #1D4429",
"4  c #1A443A",
"5  c #234324",
"6  c #284626",
"7  c #2C4A23",
"8  c #2B442D",
"9  c #34452B",
"0  c #344B29",
"q  c #2B5326",
"w  c #385626",
"e  c #284739",
"r  c #364A36",
"t  c #275736",
"y  c #3A5538",
"u  c #3C632A",
"i  c #3C6735",
"p  c #415E1B",
"a  c #45691C",
"s  c #4E721D",
"d  c #53771C",
"f  c #617E1F",
"g  c #445C2A",
"h  c #40483A",
"j  c #455939",
"k  c #476727",
"l  c #506E2C",
"z  c #4A7429",
"x  c #577927",
"c  c #486437",
"v  c #556A38",
"b  c #497738",
"n  c #597736",
"m  c #63793A",
"M  c #083649",
"N  c #143A4A",
"B  c #043A52",
"V  c #283E45",
"C  c #1A4A43",
"Z  c #1D5648",
"A  c #07435C",
"S  c #2A4747",
"D  c #254942",
"F  c #2B4B44",
"G  c #374B48",
"H  c #28534A",
"J  c #385645",
"K  c #34534B",
"L  c #3B554C",
"P  c #3B5B4B",
"I  c #274754",
"U  c #315356",
"Y  c #365756",
"T  c #3D5B50",
"R  c #3A6B4B",
"E  c #3B6756",
"W  c #0C4F6A",
"Q  c #055676",
"!  c #295467",
"~  c #365764",
"^  c #1C616C",
"/  c #306675",
"(  c #465944",
")  c #4F554B",
"_  c #435B4D",
"`  c #4A5E4C",
"'  c #425C51",
"]  c #485A58",
"[  c #486446",
"{  c #4D644C",
"}  c #56674A",
"|  c #477646",
" . c #5B7748",
".. c #456254",
"X. c #4B6354",
"o. c #4B6A54",
"O. c #4C665A",
"+. c #4C6A5C",
"@. c #546554",
"#. c #526B54",
"$. c #596855",
"%. c #546B5B",
"&. c #5A6D5C",
"*. c #4B7358",
"=. c #597456",
"-. c #5C715D",
";. c #637847",
":. c #636B59",
">. c #6B7351",
",. c #63735C",
"<. c #697859",
"1. c #485E64",
"2. c #496669",
"3. c #566A65",
"4. c #5C7462",
"5. c #587A69",
"6. c #506C72",
"7. c #616D69",
"8. c #647463",
"9. c #657A64",
"0. c #677866",
"q. c #6B7B64",
"w. c #6B7D6B",
"e. c #767C65",
"r. c #727E6A",
"t. c #677B73",
"y. c #837D6B",
"u. c #5B851B",
"i. c #628C1C",
"p. c #6D991D",
"a. c #5C8529",
"s. c #5B8634",
"d. c #638726",
"f. c #689528",
"g. c #6F962D",
"h. c #678738",
"j. c #789435",
"k. c #78A526",
"l. c #57874B",
"z. c #588859",
"x. c #678349",
"c. c #738E4E",
"v. c #648555",
"b. c #58886D",
"n. c #6B826A",
"m. c #798667",
"M. c #75836B",
"N. c #7A846C",
"B. c #6E976F",
"V. c #668375",
"C. c #6C8373",
"Z. c #728573",
"A. c #768975",
"S. c #778877",
"D. c #7C8B74",
"F. c #7C8C7A",
"G. c #7C9477",
"H. c #75A474",
"J. c #84B11A",
"K. c #8DB52D",
"L. c #82944F",
"P. c #83876B",
"I. c #86906C",
"U. c #838B74",
"Y. c #888B76",
"T. c #958D77",
"R. c #899475",
"E. c #84927C",
"W. c #8B947C",
"Q. c #94957C",
"!. c #98967B",
"~. c #A49279",
"^. c #95A17D",
"/. c #005B82",
"(. c #106A8E",
"). c #026C98",
"_. c #32748F",
"`. c #0177A8",
"'. c #017DB2",
"]. c #2C7DA0",
"[. c #647E86",
"{. c #338489",
"}. c #0784B9",
"|. c #2C84A8",
" X c #6B8587",
".X c #768E8B",
"XX c #679C98",
"oX c #4C91AE",
"OX c #74A6B8",
"+X c #0592CC",
"@X c #0993CE",
"#X c #0298D7",
"$X c #3C9FC9",
"%X c #009DE1",
"&X c #01A4E9",
"*X c #14A9E8",
"=X c #01ACF5",
"-X c #00B3FE",
";X c #0BB3FB",
":X c #19BAFF",
">X c #33B9F3",
",X c #54A2C4",
"<X c #4DABD4",
"1X c #70B8D6",
"2X c #4DBAE9",
"3X c #3FC5FF",
"4X c #51D0D2",
"5X c #5CC0EC",
"6X c #48C7FF",
"7X c #58C9F9",
"8X c #74C9EE",
"9X c #67CCF7",
"0X c #62CFFE",
"qX c #67D0FF",
"wX c #78D5FD",
"eX c #859481",
"rX c #8A9582",
"tX c #8C9A84",
"yX c #8D9A88",
"uX c #949B84",
"iX c #9A9C83",
"pX c #989C87",
"aX c #8C9C96",
"sX c #A79D85",
"dX c #99A388",
"fX c #9BA38B",
"gX c #9BA793",
"hX c #A3A48A",
"jX c #A8A78B",
"kX c #A5AB95",
"lX c #ABAD94",
"zX c #B5AB90",
"xX c #A8B196",
"cX c #ACB39C",
"vX c #B2B49C",
"bX c #BAB99D",
"nX c #ACB6A2",
"mX c #B5BAA3",
"MX c #BABCA3",
"NX c #ACBEB7",
"BX c #C1B69C",
"VX c #B6C8BA",
"CX c #C3C1AA",
"ZX c #89B4C1",
"AX c #9BC8D6",
"SX c #ABCED2",
"DX c #83D8FD",
"FX c #AAD9E7",
"GX c #AFDCE8",
"HX c #B2E4F2",
"JX c #BBEAF9",
/* pixels */
"a w g h ; 9 , 5 3 , , 9 - O 9 6 O , , 9 q p.u.< u.J.i.s , , , 7 9 w - O 9 8 8 - k < , , 2 q > o o 2 ",
";.T.T.T.T.I.e.y 2.g U.P.e.>.8.:.:.O g e.m.d.u.} s.p.s <.j < c Y.P.P.<.( Y.e.e.8.$., , [ j } ..( 6 < ",
"y.sXzXjXhXlXiX) k v sXsXT.T.T.Y.e.9 h !.Q.;.W.U.m. .,.rXM.r e.!.I.P.m.<.W.D.N.r.w.9 [ n.#.n.%.X.P * ",
"e.jXzXvXvXlXiX` l >.sXjX~.!.T.y.y.h ( !.Q.m.U.N.M.8.S.D.n.8 ,.Y.D.I.U.N.q.e.Z.r.8.- b.v.tX=.+._ H 3 ",
">.!.vXmXlXlXgX} s v sXsXT.Y.P.:.h r } pXiXP.0 ` { ( j -.L 6 - ` W.U.N.N.:.w.8.8.O.- | A.n.-.X.K D t ",
"} Y.cXcXcXxXfX$.d i.9 ; ; 9 9 w 0 g j N.R.D.n.R.R.D.D.A.n.0 [ rXN.N.M.w.$.@.<.M.r 6 x.=.X..._ e * | ",
"} mXcXnXxXkXgX@.l MXMXbXbXMXmXxXm.n  .m.P.m.n.U.D.D.F.Z.0.e $.M.w.q.w.,.M.w.8.4...6 a.m.{ J F *.l.c.",
") rXrXrXF.0.` r v CXMXbXbXbXMXmX} k v m.N.q.D.m.M.F.S.C.8.F J w.0.9.8.9.q.8.&.@.O.- x c.c.x. .a.i.f.",
"p 0 ; 0 O p p p m BXMXmXmXmXmXcX$.k @.r.r.&.r.w.w.C.n.V.5.D 3 D ' _ e @.( ) L K F 3 <.vXiX!.U.@. .h.",
"d L.L.y.y.y.y.v m BXmXmXmXnXnXcX{ c ( ` _ - - 8 8 t e 4 Z t # $ * $ - o @ X @ # 4 5 e.lXhXpXtXS.F.y ",
"m BX~.~.~.T.y.:.v cXlXcXnXcXnXxX( k h.w c n h.f i.x l v } n m  .c k g p g g g g 1 a m.fXdXyXrXA.4.e ",
"} BXsXsX~.~.y.j h kXfXfXpXxXgXeXt k j.j.k.L.j.j.j.f.Q.MXvXMXcXVXmXe.l y.zXsX~.sX) a <.uXpXtXeXA.S.e ",
"} sX~.T.T.T.y.9 w ( j ` ` ( h r e k MXzXzXsXlXvXVXSXGXJXJXJXJXJXHXFXSXNXlXsXy.y.} 0 ;.rXrXA.F.S.C.F ",
") sXT.~.T.Y.e.h p k j j h h 0 0 1 l CXBXhXhXNXSXGXFXGXFXHXHXHXAXaXOXZXAXFXSXgXy.:.1 j ) ( ] X.L T 8 ",
"; ; ; y.Y.U.@.h v vXvXzXiXlXiX:.1 n mXkXnXNX[.~ V G ~ 1.6.XX XI ! ! 1.~ ~ ~ 6.3.[.j n j 9 9 h ; q u ",
". ; ) ) @.( 9 - v zXjXsXlXjXdXv.g j 7.t.ZX1.A '.}.'.oXoX/ & % }.2X8X8X2X>X'./.B N V V L @.7.,.t.q.9 ",
"v n l j j v k s n T.R.cXkXkXdXI.l 3.~ ~ % M &X-X-X:X7XwXDX,XN A $X5X9X2X-X-X-X=X>X5X8XOXoX! % . r G ",
"x ~.BXjXjXsXY.g $.j nXlXgXdXtXP.8.V 1X2XM `.-X-X;X6X0XDXDXqX>XQ + N oX2X-X-X-X-X:X7XwXDX8X].%   .   ",
"e.BXsX!.!.T.,.g P.hXD.gXfXyXrX.X& ,XDX2XA '.-X-X;X6XqXDXwX0X7X;X].+   M #X=X-X-X;X7XwX8X2.V t.@.( ] ",
"N.jXiXuXuXE.0.w uXkXfXtXyXtXeX] ! 2X0X,XM Q =X-X:X0XwXDXqX9X6X6X2X].V 6.& `.&X-X:X7XDXoX  . 3.O.K C ",
": h rXrXW.E.&._ { -.J - 3.P ] + / (._.% W % +X=X6XqXDXqX7X>X3X7X9X8XI ZX1X~ A /.`.].U : G 1.e = = C ",
"*X_.h eX.XS.%.j =.J r 2 w 8 ..G B Q Q `.#X).M ).$X2X1X1X2X*X7XqXDXDX~ XXHXHXZX X2.3.V.=.0 o o , , < ",
"b.6.; $.<.4.[ z g.j.c.d.d l  .V #X%XQ ^ /.+X`.W M N N I N N / ,X8X5X_.6.HXJXJXJXSXz.n x.c c ;.;.;.n ",
"k l m g g.b x.g.k.J.c.c.x.P.lXN &X@X/ 4X4XQ %X&X&X#X#X#X#X@X_.I ! +X].2.JXJXGXaXm n x.<.D.,.R.E.U.w.",
"v jXm.a.c.j.h.h.K.k.^.jXdX<.aXN &X+X/ ,X4X^ '.-X-X-X-X-X-X-X>X5X].M M 1.GX X{ l i.h.I.rXrX,.m.E.U.4.",
"q.uXdXI.v xXxXB.k jXjXdXdXM.) = &X*XZ {.^ '.%X-X-X-X-X-X-X-X-X;X#X(.  1.c.f x d.i.i.n.E.F.rXG.A.Z.=.",
"{ E.M.[ -.gXdX[ q.lXdX^.n.m.R.G }.*X|._.&X-X-X-X-X-X-X-X-X-X-X=XA 1.) t.jXiXQ.E.Y.<.c %.8.eXA.Z.C.[ ",
"y F.D.M.y ( q.R.q.D.n.G.<.hX!.t.A =X;X;X-X-X=X-X-X-X-X-X-X-X-X#X% .XaXgXpXpXE.F.r.&.#.o.5.S.C.n.C.P ",
"e ] P r - 8.!.T.N.m.xXxXjXR.Q.N.& +X=X-X-X&X`.=X-X-X-X-X-X-X=X).G gXgXaXyXeXF.S.Z.O.g c.z.=.-.o.E c ",
"k < 0 y z c.U.U.m.xXxXhXgXuXE.D.3.A &X=X#X/./.-X-X-X-X-X-X-X#X% .XrXyXyXeXF.C.n.%.r a d.g.c.h.x.h.a.",
"v !.T.R.R.v e.N.#.{ dXfXdXeXD.m.w.= A A + /.=X-X-X-X:X:X-X%XA ] ( r _ &.4.%.} [ y 1 m fXhXW.U.E.gX` ",
"$.!.T.uXP.j q.q.U.E.=.eXeXF.Z.9.&.C.  % +X=X:X:X-X-X;X;X+XM L 0 x p 1 2 z k.K.z u.u.W.uXY.D.D.n.C.G ",
"q.pXN.:.{ 0 y Z.r.e.8.{ A.n.n.&.G $ F G + W |.<X*X#X`.A = [.:.k  .dXQ.I.m.;.m.v.=.k M.E.E.D.C.w.C.P ",
"<.T.U.U.q.0 g 4.w.0.#.` _ K : $ o , 2 a.v.7.) e ] 2. X[.t.8.&.k E.N.m.M.q.$.E.-.X.6 q.F.S.A.C.C.V.K ",
":.U.U.Z.q.0 k J +.O.K e X @ O y ;.x.x.x.x m.T.} e.q.7.7.@.@.X.r 8.w.9.9.-._ P #._ - 4.S.S.C.C.C.S.U ",
":.D.S.Z.=.y s.< * $ @ o < g E.hXuXuXQ.W.j } T.P.>.,.:.$.@._ e : _ 0.-.#...8.....K @ e X.+.O.+.K e H ",
"{ 0.w.C.} a.i.d q 7 u s i.c.lXrXE.E.S.w.9 v U.,.:.$.@.@.` X.S @ J @.%.n.%.o.P ..S # < < y r r 8 3 5 ",
"w r y c n d.I.^.^.uXQ.<.x ;.uXY.F.D.Z.0.8 { t.:.&.@._ X.O.] L $ 6 P 4.+...T R H D 3 b  .0.%...E J 7 ",
";.gXrXE.G.c sXdXiXuXuXpX9 v E.S.A.C.V.n.8 j 4.%.X.] _ : Y K F 4 b R +.6.T Y H C 4 t l.} #.] _ K H * ",
"w.W.M.w.&.y Q.W.W.Y.eXF.- ( S.Z.V.n.V.3.y w T ..' L G F * D H Z B.V.*.E K U H Z R s. .#.P T K F D * ",
"P 0.4.&._ y E.E.E.F.A.C.- 0 o.O.+.3.+.P q c 4 T T H F 4 # q 4 t l.B.B.5.E R i z.XXs.*.+.e H F D t q ",
"6 P P R [ [ G.F.D..XC.n.- k < 5 - 8 8 O 2 z # 4 C Z 4 4 t q u s.f.H.v.s.s.f.k.z b.l.y 6 q w 3 t u d.",
"a x  .x a.x S.A.Z.C.V.V.$ ;.fXW.U.M.w.0.{ w b 6 3 3 q z u.s.W.R.G.=.eXG.G.v.=.#.E q x h.h.a.z z z a.",
",.tXhXE.c k V.4.o.t.5.U * N.N.q.&.%...' T 8 z.v.M.m.n.c z v.E.M.9.[ 9.9.&.X.' L H $ =.m.M.<.M.C.4.y ",
",.pXr.0.` < 8 4 e P E t 4 <.w.&.@.X.' L K # } E.D.A.Z.X.q j 8.:.$.-.o.#.' _ G G H $ $.n.w.&.O.' _ : ",
"[ D.8.&.y n.c z b.H E i z ( 8.@.' _ K K S # { F.D.Z.C.+.7 r &.&.@...r _ L L K H C 5 #.0.&...' P K : ",
"( _ &.X.9.%...R | v.VXb.b  .%._ L K S F D * _ A.C.w.C.' 0 c y ..' K S F H F S C * y ( ..] T L K H 4 ",
"_ %.r n.3.X.P K P *.XXXXR o.%.T K F S D : $ o.F.C.V.V.T q P o.P S S : 4 F F H Z R z...' L L K K H 4 ",
"q y u 2.P K H U E z.H.b.z.i 4 t 4 4 4 e y q C.2.+.3.+.H b F S D : = C C * t t R XXl.t 4 t D D e H 4 ",
"u.i.u 6 E 5.*.R l.s.f.l.H.z > 3 # # @ # q u =.*.E ..P | s.w @ @ @ # # $ 3 i.p.i.s.l.u > 3 6 o 3 q i "
};
