/* XPM */
static char *out[] = {
/* columns rows colors chars-per-pixel */
"50 50 243 2 ",
"   c #050101",
".  c #0C0302",
"X  c #0E0809",
"o  c #130502",
"O  c #1B0500",
"+  c #170906",
"@  c #140A0A",
"#  c #1C0D0B",
"$  c #180F12",
"%  c #1B1316",
"&  c #1C1215",
"*  c #240401",
"=  c #2B0100",
"-  c #230801",
";  c #2C0A01",
":  c #230D0B",
">  c #2B0E0C",
",  c #3B0000",
"<  c #330C01",
"1  c #3C0D01",
"2  c #360B09",
"3  c #28110E",
"4  c #38140D",
"5  c #2B0F11",
"6  c #231414",
"7  c #281717",
"8  c #2B1B1D",
"9  c #381514",
"0  c #331B1C",
"q  c #3B1C1D",
"w  c #3C201F",
"e  c #2C1D23",
"r  c #331D23",
"t  c #341C26",
"y  c #3C1E23",
"u  c #2D2127",
"i  c #332225",
"p  c #3C2224",
"a  c #34252B",
"s  c #3B252A",
"d  c #36282C",
"f  c #3B292D",
"g  c #3D2C32",
"h  c #3F3034",
"j  c #470504",
"k  c #430F01",
"l  c #530200",
"z  c #590C03",
"x  c #431105",
"c  c #4A1203",
"v  c #46130A",
"b  c #531301",
"n  c #591401",
"m  c #52100B",
"M  c #491717",
"N  c #451A15",
"B  c #441C1B",
"V  c #4B1C1B",
"C  c #561815",
"Z  c #531D1C",
"A  c #5C1D1B",
"S  c #660300",
"D  c #780000",
"F  c #651601",
"G  c #691402",
"H  c #6A1801",
"J  c #741A01",
"K  c #771807",
"L  c #7B1B01",
"P  c #6C1511",
"I  c #641B15",
"U  c #681A17",
"Y  c #711A15",
"T  c #7C1C12",
"R  c #44221E",
"E  c #4B211E",
"W  c #54231A",
"Q  c #5B241C",
"!  c #5E2D1D",
"~  c #672308",
"^  c #66320F",
"/  c #67271B",
"(  c #63221C",
")  c #6B241B",
"_  c #74251D",
"`  c #7B2618",
"'  c #762B1C",
"]  c #77341C",
"[  c #421E21",
"{  c #491D22",
"}  c #511F21",
"|  c #442224",
" . c #4C2323",
".. c #482628",
"X. c #442A2C",
"o. c #4B2C2D",
"O. c #532423",
"+. c #5B2423",
"@. c #522926",
"#. c #5D2B24",
"$. c #532C2C",
"%. c #5A2B2A",
"&. c #4E312E",
"*. c #58312D",
"=. c #432D31",
"-. c #4C2E32",
";. c #532E30",
":. c #433235",
">. c #4B3436",
",. c #463439",
"<. c #4B3639",
"1. c #47383D",
"2. c #4C3A3D",
"3. c #543334",
"4. c #5A3433",
"5. c #5A3B36",
"6. c #533639",
"7. c #533B3D",
"8. c #5B3D3D",
"9. c #632623",
"0. c #632B25",
"q. c #672A27",
"w. c #6C2B24",
"e. c #742D24",
"r. c #7B2D22",
"t. c #6C3327",
"y. c #63322C",
"u. c #6A332D",
"i. c #793727",
"p. c #74332B",
"a. c #633432",
"s. c #6A3A37",
"d. c #6C3A34",
"f. c #633C3B",
"g. c #773A33",
"h. c #5F4B00",
"j. c #6B4900",
"k. c #66403E",
"l. c #76413A",
"z. c #4E3D42",
"x. c #523E42",
"c. c #583E40",
"v. c #623E42",
"b. c #544144",
"n. c #5A4244",
"m. c #56474A",
"M. c #56474B",
"N. c #5B4549",
"B. c #5A4A4D",
"V. c #5F5254",
"C. c #654647",
"Z. c #624A4C",
"A. c #764844",
"S. c #634E51",
"D. c #625356",
"F. c #67575B",
"G. c #735F63",
"H. c #890100",
"J. c #910300",
"K. c #9C0100",
"L. c #821C02",
"P. c #8A1C03",
"I. c #971903",
"U. c #831D13",
"Y. c #A70700",
"T. c #AA0100",
"R. c #B50300",
"E. c #B90600",
"W. c #A41C01",
"Q. c #BA1B01",
"!. c #862305",
"~. c #952505",
"^. c #9C2402",
"/. c #8A3700",
"(. c #9D3600",
"). c #882716",
"_. c #842B1C",
"`. c #982913",
"'. c #88331B",
"]. c #9A3614",
"[. c #A82808",
"{. c #B22902",
"}. c #BA2802",
"|. c #A5350A",
" X c #A83816",
".X c #B13010",
"XX c #863425",
"oX c #823429",
"OX c #923825",
"+X c #A03B20",
"@X c #C70600",
"#X c #CD0100",
"$X c #D50300",
"%X c #DB0100",
"&X c #D80C00",
"*X c #C31501",
"=X c #D71901",
"-X c #E40100",
";X c #EC0000",
":X c #F40000",
">X c #FE0000",
",X c #F40C01",
"<X c #FC0B01",
"1X c #EC1701",
"2X c #F51301",
"3X c #FA1301",
"4X c #F61B01",
"5X c #FA1D01",
"6X c #C32D03",
"7X c #CA2A02",
"8X c #D72902",
"9X c #CD3003",
"0X c #D23103",
"qX c #DC3303",
"wX c #E82702",
"eX c #F72302",
"rX c #F62E02",
"tX c #F92A02",
"yX c #E83603",
"uX c #ED3603",
"iX c #F63603",
"pX c #F83704",
"aX c #F53904",
"sX c #874200",
"dX c #965800",
"fX c #91441F",
"gX c #AF4E10",
"hX c #A9441B",
"jX c #926900",
"kX c #967100",
"lX c #B17100",
"zX c #854327",
"xX c #984726",
"cX c #86483A",
"vX c #C24F15",
"bX c #9B8600",
"nX c #B78700",
"mX c #AC9A00",
"MX c #B59D00",
"NX c #CFAA00",
"BX c #D1B600",
"VX c #EBB900",
"CX c #F4D100",
/* pixels */
"W 6.b.B.V.F.F.M.2.<.p t.l.*.,.d d u d d s a a d d f A M e f g a a  .0.<.2.b.b.b.z.z.b.7.x.,.=.f / x.",
"w.x.B.D.V.V.b.z.B.B.C.zXl.&.h f % X 7 f s s t a u e U 9 e g h s | w.g.C.F.F.M.1.h g 1.<.b.b.-. .a.m.",
"d.2.=.1.b.1.d z.b.b.5.4.X.h f i X   $ d g s -.:.a > .   % u d =.@.3.x.B.m.b.b.1.g d d f d a t w.c.>.",
"8.2.g f h 1.h z.7.6.zX'.w f d &       e g X.=.t t Q       $ e [ +.h g g g g g f g h h d a t y q.x.<.",
"6.:.:.,.1.b.b.2.8.i.gX]. .s %   + O . 7 g g s r M !   . . . 6 C e.>.f ,.<.=.=.,.2.x.b.b.2.o.U ;.2.g ",
"X.:.2.2.z.h ,.6.i.hXvX XA 8 @ O L n o 7 s X.y q Y |   o F o @ W '.( V o.3.-.6.5.*.3.3.3.%./ `.$.X.>.",
"<.1.b.2.,.h <.a.p.5.a.'.T 9 X x {.n . 8 | | [ Y r.%.+ o ~.G . $ @.p.' U ) _ t.f.d.k.8.b.b.s.].4.:.2.",
"5.1.2.g s X.$.0.+.y [ _.[.z o n {.c . 0 {  .A ).g.v.3   G 9Xk . 8 >.u.XXe.9.;.6.zXi.@.,.7.N.oXq.2.7.",
"t.t.$. .} o.;.%.U U A _..X!.* 1 ~.1 . 0 } _ _.p.A.4.0   k yX[.- X r &.a.p.q.o.@._.e.;.=.z.v.v.e.e.4.",
"] '.w.` w.=.a [ U _ e.g.xX'.v O b ; . M ).`.i.g.0.0. .o ; 0XyXJ o & @.y.d.u.O.w.q.$.=.=.z.x.c.a.'.r.",
"o.r.i.xXO.a t M U %.o.;.4.t.W : o o   v .X[.e.e.w.t.#.o O {.aX}.< o E r.r.9.O.9.%.o.-.-.=.x.z.z.#.p.",
"=._.cXcX;...A T T O.O.+.0.u.d.R @     9 _ .X).e.r.e.) : o P.aXyXL o 4 XXOXe.( +.o.....z.x.x.x.x.9.XX",
"y.y.x.z.z.c.d.OX`.` ( e.p.l.l.d.E #   @ 9 `.`.oXr.' ` 5 . L tXiX{.; $ *.s.e.) E 7 7 ..c.c.z.z.>.t.6.",
"'.y d d g z.z.4./ m 4 | a.d.l.A.u.3 . . . k ).).).).` > o L.iXaX0Xb o q #.#.N 3 . . p >.<.z.,.@.' f ",
"hX{ t t t t t t 0 o   # | y.g.oX0.: o F ;   m `.`.[.).- O [.aXaXyXL o 4 Q B + .   X q o.-.<.g ' _.p ",
"cXC.3.+.t { y { V -     7 0.e.i.! + - }.~.* o U.`.7XG   1 yXaXaXuX^.O > Z :   < ; . r $.;.o.X.p.A.7.",
"x.S.v.%.A ).) '.'.1     + E e.e.W o x 8XyXH . k }.|.- o [.aXaXaXaX{.- ; C #   - + X w 4.4.6.u.0.S.b.",
"o.x.c.s._._.E / ).x O < o > Q ' 4 . !.wXiX6XO o H ;   n yXiXaXaXaX6X< 3 W >   .   3 ..*.3.3.*.+.x.b.",
"} z.2.o.e.).M B N < x !.x o 9 N + o {.yXiXyXb   o   1 7XrXrXrXaXaX9Xc : #.W # + c A #.%. .V | O...2.",
"OXU %.o._ [.P C v O b 6XL + o o   b 0XaXaXiX{.o   O }.3X<X<X<X5XiX0Xn # B 9 X . C '._.w.q.a.4.p.XX+.",
"6.l.hX` +XcXoXT b O H qX}.1     1 {.uXaXaXpXuXn   1 4X>X>X>X>X>XeX0Xb # q #   . R OX).Q @.o.X.o.8.xX",
"d o.i. Xq.f.A.u.v O !.uXqXF . b 6XuXiXtX3X3X3X&XI.Q.>X>X>X>X>X>X<X*X1 X + . . . 7 ` ) E R | p p f o.",
"e 0  .).V  .$.| # - ^.pXiX^.; x 9XaX5X<X>X>X>X>XrX<X>X>X>X>X>X>X<X*X<     O F 1 # N I C V q w i 8 u ",
"e e B `.I  .@.q o < }.tXrX6Xk k 7X4X<X>X>X>X>X>X2X>X>X>X>X>X>X>X<X@X1   . b }.J + 4 I Z E  .p r 8 e ",
"e 7 M Y C B  .5 . c 7X5XeXpX0X8X2X>X>X>X>X>X>X>X>X>X>X>X>X>X>X>X>X&XF . < {.iX^.- + K _ W R p t 8 8 ",
"t r M U V M 9 :   n =X3X5XpXpXeX>X>X>X>X>X>X>X>X>X>X>X>X>X>X>X>X>X<XwX0XwXrXpX9Xc . 2 A V B q p r 8 ",
"e q P U.%.O.B : . G 1X<X3XrXtX<X>X>X>X>X>X>X>X>X>X>X>X>X>X>X>X>X>X>X<X<X>X<X:X2XL.O < U 9. .o.p r B ",
"p I  XQ @.@.N :   J wX<X>XeXtX<X>X>X>X>X>X>X>X>X>X>X>X>X>X>X>X>X>X>X>X>X>X>X>X<X*X1   m ( @.o.X.B T ",
"q I A ) a.d.~ v . L 4X<X>X3XtX3X>X>X>X>X>X>X>X>X>X>X>X>X>X>X>X>X>X>X>X>X>X>X>X>X,XG . > C A ..y C M ",
"M P } _ `.` fXv o L 4X>X>X>X5X<X>X>X>X>X>X>X>X>X>X>X>X>X>X>X>X>X>X>X>X>X>X>X>X>X,XI.- . y A M [ U M ",
"C `.A 0.[.Q ~ x o L 4X>X>X>X<X<X>X>X>X>X>X>X>X>X>X>X>X>X>X>X>X>X>X>X>X>X>X>X>X>X3XW.-   7 Z I Z T U.",
"P .X` ( ` E E > o L.4X>X>X>X>X>X>X>X>X>X>X>X>X>X>X>X>X>X>X>X>X>X>X>X>X>X>X>X>X>X<XQ.<   2 I P Y P. X",
".X9.V ) ( E B 3 o J 2X>X>X>X>X>X>X>X>X>X>X>X>X>X>X>X>X>X>X>X>X>X>X>X>X>X>X>X>X>X<X}.< . 4 P P.[.[.| ",
"hX[ y r [ V N 5 o G 1X>X>X>X>X>X>X>X>X>X>X>X>X>X>X>X>X>X>X>X>X>X>X>X>X>X>X>X>X>X<X*X1   9 P [.+X] i ",
"8.y y a y y [ 5 . z =X>X>X>X>X>X>X>X>X>X>X>X>X>X>X>X>X>X>X>X>X>X>X>X>X>X>X>X>X>X<XQ.<   9 U.9.3.&.i ",
"=.y a p p y p 9 . k Q.>X>X>X>X>X>X>X>X>X>X>X>X>X>X>X>X>X>X>X>X>X>X>X>X>X>X>X>X>X3X}.<   9 T { f o.r ",
"| U t s s | [ r o ; W.2X>X>X>X>X>X>X>X>X>X>X>X>X>X>X>X>X>X>X>X>X>X>X>X>X>X>X>X>X<XW.* . m U.C t ( V ",
"4.g.+.[ | p [ 9 # O L 1X>X>X>X>X>X>X;X%X$X$X;X:X>X>X>X>X>X>X>X:X>X>X>X>X>X>X>X>X1XL + - P `.Y %.l.t.",
"Z.C.s.9.Z { C C v o c 7X3X>X>X>X;XR.W.^.|.(.[.K.;X>X>X>X:X#XT.R.E.#X;X>X>X>X>X>X&Xz . y p.g.d.v.N.k.",
"b.2.7.5.%.U U.U.I : - !.wX<X>X;XI.sXlXMXNXNXnXj.J.:X>X:X#XF sXlXdX/.Y.:X>X>X>X>XT.= @ X.c.Z.C.c.2.b.",
",.=.<.<.>.+.) w.%.8 X c }.4X<X$XJ nXVXCXBXMXCXjXl :X>X:XY.h.MXMXBXnX!.%X>X>X>X$Xl - 7 p X.-.<.<.:.:.",
"s r d :.-.@.Z p X.f 6 o H 8X2X$XG jXNXCXBXMXbX^ Y.>X>X:XR.h.mXmXBXkXP.-X>X>X;XJ.= 3 @.$.&.#.{ | p u ",
"] w t g ,.{ Z y | =.i @ O L 8X,XE.W./.dXjXdXI.E.;X>X>X>X-XI./.sX/.^.@X:X>X:XT., @ =.C.8.8.f.4.] ! i ",
"xXgX[ g g Z Y q p f s 7 X O J =X,X;X$X&X&X$X-X:X>X>X>X>X>X;X$X$X$X;X>X>X:XT.j o u n.C.Z.B.B.C.d.gX] ",
"5.gXZ a q T P | f s f s 7 X o S @X:X>X;XK.H.@X;X>X>X>X>X>X>X>X>X>X>X>X-XK., + 8 >.c.Z.Z.D.G.F.Z.'.].",
">.|.V r V `.` B s f s f d 8 # o , K.-X:X$XD , l D J.E.$X-X:X:X>X>X:X$XS - @ e ,.b.b.8.7.7.Z.D.S.( |.",
" .gX' =.5.f.4.3.X.d f g =.#.W 6 X O l T.%X-XR.l , = = = , j K.-X#XH., o $ i ,.z.b.5.<.<.<.b.N.<./ vX",
" .i.8.m.B.V.B.b.>.f d p E *.>.f u 6 X o j S D D l *         * , = o # u h 2.z.b.z.z.b.c.2.:.1.h / d.",
"Q 6.m.D.D.F.D.b.b.b.4.fXl.&.:.d d d i e 6 + X .     .   . X X @ & N ) 3.n.B.m.1.1.,.2.7.n.x.X.p 0.x.",
"p.b.m.B.V.m.:.1.M.B.N.s.*.h h f a a a f s i f u u 6 T 9 e u d f O.u.C.F.F.D.B.2.h g :.:.1.<.>.0.f.b."
};
