/* XPM */
static char *out[] = {
/* columns rows colors chars-per-pixel */
"50 50 239 2 ",
"   c #040101",
".  c #0C0302",
"X  c #0B0809",
"o  c #130402",
"O  c #1B0401",
"+  c #120807",
"@  c #1B0905",
"#  c #130A0A",
"$  c #1A0C0C",
"%  c #1D1214",
"&  c #220601",
"*  c #2B0100",
"=  c #240801",
"-  c #2C0A01",
";  c #240D0A",
":  c #2B0D0A",
">  c #340200",
",  c #340B01",
"<  c #3C0D00",
"1  c #390C0A",
"2  c #27110E",
"3  c #37110F",
"4  c #261617",
"5  c #2B1313",
"6  c #2A1B1E",
"7  c #351414",
"8  c #3B1615",
"9  c #341A16",
"0  c #311B1C",
"q  c #3C1C1D",
"w  c #3D211E",
"e  c #2D1E23",
"r  c #341D23",
"t  c #3C1D23",
"y  c #381C26",
"u  c #2E2124",
"i  c #2E2229",
"p  c #342225",
"a  c #3C2225",
"s  c #34252B",
"d  c #3B252A",
"f  c #35282C",
"g  c #3A292D",
"h  c #3D2C31",
"j  c #3F3034",
"k  c #430000",
"l  c #490901",
"z  c #590700",
"x  c #4D1101",
"c  c #46140B",
"v  c #531401",
"b  c #551607",
"n  c #481717",
"m  c #431C1B",
"M  c #4C1C1C",
"N  c #571817",
"B  c #531D1C",
"V  c #5D1D1C",
"C  c #620200",
"Z  c #6A0200",
"A  c #780400",
"S  c #661501",
"D  c #6B1901",
"F  c #771604",
"G  c #751C01",
"H  c #7A1C01",
"J  c #621A15",
"K  c #6A1815",
"L  c #631C19",
"P  c #741A14",
"I  c #7C1C12",
"U  c #45211E",
"Y  c #4B211D",
"T  c #56251D",
"R  c #5B231C",
"E  c #6A2304",
"W  c #65370F",
"Q  c #662619",
"!  c #63221C",
"~  c #6B241B",
"^  c #772619",
"/  c #73241C",
"(  c #7A2B1D",
")  c #76351C",
"_  c #421E22",
"`  c #4B1D21",
"'  c #511F21",
"]  c #442224",
"[  c #4C2323",
"{  c #4F2824",
"}  c #44262A",
"|  c #4D262A",
" . c #442A2D",
".. c #4C2C2D",
"X. c #532423",
"o. c #5B2423",
"O. c #532926",
"+. c #5A2A25",
"@. c #532C2C",
"#. c #5A2C2A",
"$. c #4E312E",
"%. c #53302E",
"&. c #5B312D",
"*. c #422D31",
"=. c #4B2E32",
"-. c #542E30",
";. c #433235",
":. c #4B3436",
">. c #463539",
",. c #4B3639",
"<. c #47383D",
"1. c #4C3A3D",
"2. c #543334",
"3. c #5B3433",
"4. c #5A3836",
"5. c #533639",
"6. c #533A3D",
"7. c #5B3D3D",
"8. c #642A24",
"9. c #6C2B23",
"0. c #682824",
"q. c #622D2B",
"w. c #762E23",
"e. c #7B2D21",
"r. c #7A2E28",
"t. c #6A3125",
"y. c #63322C",
"u. c #6C312B",
"i. c #773728",
"p. c #73352D",
"a. c #7B342A",
"s. c #643432",
"d. c #6B3533",
"f. c #6C3933",
"g. c #653B39",
"h. c #763A34",
"j. c #685B00",
"k. c #6A423E",
"l. c #774138",
"z. c #4E3D42",
"x. c #523E42",
"c. c #5C3E41",
"v. c #623E41",
"b. c #544144",
"n. c #5B4244",
"m. c #56474A",
"M. c #56474B",
"N. c #5B4549",
"B. c #5A4A4D",
"V. c #5F5254",
"C. c #654647",
"Z. c #624A4C",
"A. c #7C4B46",
"S. c #634E51",
"D. c #625356",
"F. c #67575B",
"G. c #725F63",
"H. c #8A0200",
"J. c #8B0B01",
"K. c #990200",
"L. c #891B04",
"P. c #951704",
"I. c #821E13",
"U. c #A70700",
"Y. c #AB0300",
"T. c #B60500",
"R. c #BD0300",
"E. c #A51600",
"W. c #B61801",
"Q. c #882305",
"!. c #982505",
"~. c #9B3500",
"^. c #8B2514",
"/. c #862816",
"(. c #842D1B",
"). c #972812",
"_. c #83321C",
"`. c #8C351C",
"'. c #9A3917",
"]. c #A82706",
"[. c #B52A03",
"{. c #A33A08",
"}. c #A73716",
"|. c #B23511",
" X c #862E23",
".X c #853523",
"XX c #943928",
"oX c #803D32",
"OX c #A03A20",
"+X c #C20700",
"@X c #CD0200",
"#X c #D50200",
"$X c #DC0100",
"%X c #C81701",
"&X c #D61801",
"*X c #E20000",
"=X c #ED0000",
"-X c #EB0B00",
";X c #F40000",
":X c #FE0000",
">X c #F60B00",
",X c #FB0B01",
"<X c #E61701",
"1X c #F51201",
"2X c #FB1401",
"3X c #FA1C02",
"4X c #C52D03",
"5X c #D02C03",
"6X c #CC3003",
"7X c #D93303",
"8X c #E32902",
"9X c #F62702",
"0X c #F92302",
"qX c #E53503",
"wX c #EB3703",
"eX c #F53503",
"rX c #F53904",
"tX c #F83B04",
"yX c #9F4800",
"uX c #865900",
"iX c #914A10",
"pX c #AB540C",
"aX c #A9441A",
"sX c #B54212",
"dX c #876A00",
"fX c #B17C00",
"gX c #864227",
"hX c #994524",
"jX c #884939",
"kX c #C24F15",
"lX c #948100",
"zX c #AD8E00",
"xX c #B79800",
"cX c #B6A000",
"vX c #CA9400",
"bX c #D8B400",
"nX c #F8BC00",
"mX c #DFC100",
"MX c #F1CE00",
/* pixels */
"T 2.m.M.V.F.F.M.1.,.a ) ) 7.>.f f g g d d f s f g f V M e h h s f [ 8.,.1.b.m.z.1.x.b.6.x.;.*.g 0.z.",
"0.x.B.V.V.V.b.z.B.B.C.gXl.>.j g f f g  .d d y s i r I.N y f h f } ~ h.C.F.D.M.<.;.h >.,.b.x.=.X.y.m.",
"d.1.*.1.b.<.f z.b.z.4.y. .h *. .*.g d g  .} =.*.s n P.n i s s =.O.2.b.B.B.b.z.<.h f f g f s y 0.7.:.",
"7.z.h g j <.j z.z.2.gX`.U *. .$.=.} d  .*.} =.d y }.I.8 % % e _ o.j h h h h h h h j j h s s t 0.x.,.",
"6.;.;.>.<.b.z.1.4.i.sX'.' *.} } =.=.} } =.| } q N XXP.@   X 4 V e.-.g ,.:.;.h ,.1.x.b.b.6. .0.#.1.;.",
" .;.,.1.<.<.>.5.l.aXkX}.V ] a y _ =.| | | | ] ` / 3.sX:     $ 0.`.Q B ..3.$.2.3.&.-.2.&.#.~ ).|  .;.",
">.1.b.1.;.;.,.s.p.3.u.`.I.B 5 % 4 t } | X.[ ` P ^.d.'.:     X 4 y.a.^ / ~ ^ i.g.f.k.7.b.b.d.'.#.;.1.",
"4.>.1.h d  .%.8.o._ _ (.].P c . . 2 _ ` X.' L ^.oXv.#.1   & O X p 5.p. Xe.9.&.5.gX.XO.>.x.N. Xs.1.1.",
"i.y.@.M ' @.-.#.K J L  X|.[.I.-     5 M o./ (..Xl.p.q.c o v S . $ { 3.f.a.0.@.O.(.r.-.=.z.c.v.r.i.&.",
") `.9.( 0.*.s t L e.w.a.hX}.|.b .     ; P ). Xh.w.0.8.3 o L.4X, . 9 #.u.h.u.#.~ 9.| =.=.z.x.c.s.`.( ",
"..e.a.hXX.s y N L #...-.&.p.hXQ # o & o b Q.e.w.r.e.8.: = ].wXQ.o 2 ( .X X0.' 0.#.@.| =.*.x.x.z.o.a.",
"*.`.l.jX-.d V I.I.o.X.o.0.p.h.+.$ , H < o x ^ ( e.r.L @ , 7XrX6Xx O Q XXXXe.L o.#.#.| x.x.x.z.x.0.a.",
"y.&.x.z.z.c.h. X}.).(.r.a.l.l.#.$ < 4X]., o c  X( ^ N o v rXrXqXQ.O 9 p.h./ ! T &.&.3.7.5.x.z.5.t.2.",
"_.] s g h z.z.s.hX|..Xu.f.h.l.{ @ x 6XwX!.& o J /./.< . Q.tXrXrX[., $ Y 0.Y 2 9 X.&.3.2.5.x.>.X.) g ",
"aX` r y y y y t 9.`.s.s.d.u.p.q . G 7XtXwXG . , ^.!.O o 4XrXrXrX7Xv o 8 R 8 . X 9 O.#.@.=.,.h ) (.y ",
"jXC.2.o.y ` y ` N B @.f.p.u.8.; O !.wXrXrX5X- . ^.F   < qXrXrXrXqXQ.+ 5 Q 3     2 { %.&.-.=.} w.A.5.",
"x.B.c.q.V /.~ (.E @ 5 #.p.t.n + x 6XrXrXeXrXG   b ,   H rXrXrXrXrX].O : J 1 .   + w %.3.3.2.d.o.Z.n.",
"| c.c.g.(./.Y V 8   . 9 9.R 2 O !.wXrXtXtXrX].. O     [.eX9XeXrXrX[.- ; M = O - o 9 &.&.3.2.#.#.6.b.",
"' z.5.@.w.^.n 0 @     $ T Y @ v 6XrXrXrXtXrX5XO     , <X2X2X9XeXrX4Xc o @ + D D O 2 O.+.[ M ] X.} 1.",
"XXL -.@./ ].K 3 .   . o m 9 O Q.wXrXtXrXeXrXqX,     A ,X:X:X:X2X0X7Xv     - ].Q.= : Q 9.q.y.s.h..Xo.",
"5.l.aX^ }.jXa.b . = x = # o , [.eXeX0X3X2X0XwXx   O #X:X:X:X:X:X3XqXG   . S 7X[., - N o.{ @... .7.hX",
"f =.e.aXu.g.v.[ o v Q.,     x 6XeX,X:X:X:X,X5XO   J.,X:X:X:X:X:X3XqXG   - ].rX5Xx O c M U ] a a g $.",
"e r X.^.M { ..9 o D 4Xv     b 5X3X,X:X:X:X:X&XS L.;X:X:X:X:X:X:X2X4Xl o G 7X3X-XZ o : 8 m m a r e u ",
"6 e m ).J ] [ 5 o G 7XH o   G 8X,X:X:X:X:X:X3X9X>X:X:X:X:X:X:X:X,XW.l v [.9X,X;XH.O & m U [ a 0 6 e ",
"e 4 m K N M [ 2 o H wX].,   H -X:X:X:X:X:X:X:X:X:X:X:X:X:X:X:X:X:X:X-X8XeX1X:X:X@Xk o 8 U U w p 6 6 ",
"p r N K n n 7 $ . H rXqXL.< E.>X:X:X:X:X:X:X:X:X:X:X:X:X:X:X:X:X:X:X:X:X:X:X:X:X=XZ . 3 n m q p r 6 ",
"e q K I #.X.m ; . H rX0X<X8X0X,X:X:X:X:X:X:X:X:X:X:X:X:X:X:X:X:X:X:X:X:X:X:X:X:X;XJ.O : T { $.a 0 q ",
"a J }.V O.X.m = . F 9X>X,X0X0X,X:X:X:X:X:X:X:X:X:X:X:X:X:X:X:X:X:X:X:X:X:X:X:X:X;XK.& = M | ..} ` I ",
"m N ! L s.f.Q < O J.;X:X:X3X3X:X:X:X:X:X:X:X:X:X:X:X:X:X:X:X:X:X:X:X:X:X:X:X:X:X:XU.* @ B B [ a N n ",
"n P ' 9.^._.iXx & J.,X:X:X:X2X,X:X:X:X:X:X:X:X:X:X:X:X:X:X:X:X:X:X:X:X:X:X:X:X:X:XU.- X _ V n m K n ",
"N ).J 8.).R Q c O J.>X:X:X:X:X:X:X:X:X:X:X:X:X:X:X:X:X:X:X:X:X:X:X:X:X:X:X:X:X:X:XY.*   7 n J B I I.",
"P }.I Q ^ [ m , o F >X:X:X:X:X:X:X:X:X:X:X:X:X:X:X:X:X:X:X:X:X:X:X:X:X:X:X:X:X:X:X%X>   1 N P K P.}.",
"[.0.B ~ Q M m ; o F -X:X:X:X:X:X:X:X:X:X:X:X:X:X:X:X:X:X:X:X:X:X:X:X:X:X:X:X:X:X:X%X, . 1 K L.].).{ ",
"OX_ r r t M m 5 o z <X:X:X:X:X:X:X:X:X:X:X:X:X:X:X:X:X:X:X:X:X:X:X:X:X:X:X:X:X:X:XW.,   3 P ).OX( p ",
"7.p p y y _ _ 7 o x &X:X:X:X:X:X:X:X:X:X:X:X:X:X:X:X:X:X:X:X:X:X:X:X:X:X:X:X:X:X:XW.,   7 I.0.3.@.f ",
";._ p d a t t 7 X < W.,X:X:X:X:X:X:X:X:X:X:X:X:X:X:X:X:X:X:X:X:X:X:X:X:X:X:X:X:X,XW.- . n I ` t } p ",
"_ L y y f ] t 0 # = P.2X:X:X:X:X:X:X:X:X:X:X:X:X:X:X:X:X:X:X:X:X:X:X:X:X:X:X:X:X,XP.& o c I.N y L M ",
"s.oXo._ ] p _ m ; o D <X:X:X:X:X:X=X@XR.T.R.@X*X:X:X:X:X:X:X;X=X;X;X:X:X:X:X:X:X-XS o : P ).P #.h.u.",
"N.Z.d.8.' ` N N c @ < W.1X:X:X:X@XE.yXyXpXyX{.J.#X:X:X:X=XY.J.E.E.Y.#X:X:X:X:X:X&Xl . _ h.h.d.v.N.C.",
"b.1.x.4.q.K I I.~ 2 O H <X:X:X$XJ.uXvXbXmXbXbXj.A ;X:X;XR.v dXfXfXuXP.=X:X:X:X>XP.O $ *.c.B.c.c.1.b.",
">.*.,.,.:.o./ 9.#.0 + , W.>X:X#XE zXnXMXbXcXMXdXz ;X:X;XE.j.cXxXMXvXQ.#X:X:X:X@Xl = 9 a  ...5.,.;.;.",
"d r f ;.;.| B a }  .4 X x +X,X$XA uXvXbXcXcXdXE R.:X:X,X+XW lXzXxXuXL.*X:X:X*XA O 9 &.@.$.#.` a a u ",
") w e *.,._ N t } $.d $ O C @X;X#XW.!.yXyXyXE.@X;X:X:X:X-XY.Q.~.!.E.#X:X:X=XK.* $ :.C.7.b.g.3.) 8.u ",
"hXpX] h } B K t d d d 6 # o z @X;X;X$X$X&X#X=X;X:X:X:X:X:X;X$X$X$X=X:X:X=XU.> + p n.Z.Z.B.Z.n.h.pX) ",
"7.sXM i t I K ] g a g d 6 X o k T.;X:X=XK.A Y.$X;X:X:X:X:X:X:X:X:X:X;X$XJ.> + e :.n.C.Z.D.G.F.S._.{.",
"2.{.[ r M ).^ m g g g h f r ; O * H.$X;X*XH.> k C A Y.@X$X*X;X:X:X;X+Xz @ # u ,.b.n.6.6.6.B.D.Z.Q '.",
"U kX( h 2.g.3.2.} g d g h 8.T 4 X O k K.#X*X+XA k & O * * k H.#X+XA * o % f :.z.b.5.:.1.,.b.n.1.~ kX",
"U i.7.m.B.V.B.b.:.g f d Y &.:.g i 4 # O > z Z Z k O       . O > & o $ f j 1.z.b.z.z.b.b.1.;.>.;.Q f.",
"R 6.N.V.D.F.D.b.m.b.3.gXgX;.;.f f s f e 4 @ . . .   .   . X # $ % n / 2.b.B.m.z.>.,.1.1.n.b.g a 8.b.",
"p.b.m.B.V.m.j 1.M.M.n.f.&.j j g s s f g f d h i e % ^ 8 e s s f X.p.C.F.F.D.M.<.h h ;.;.,.,.:.8.g.b."
};
