/* XPM */
static char *out[] = {
/* columns rows colors chars-per-pixel */
"50 50 240 2 ",
"   c #040101",
".  c #0B0302",
"X  c #0D0909",
"o  c #130502",
"O  c #1B0601",
"+  c #130807",
"@  c #1C0805",
"#  c #160708",
"$  c #140A0A",
"%  c #1B0B0A",
"&  c #1C1213",
"*  c #220401",
"=  c #2B0300",
"-  c #230802",
";  c #2A0A00",
":  c #230D0C",
">  c #2B0E0B",
",  c #330200",
"<  c #340B01",
"1  c #3A0D02",
"2  c #380D0B",
"3  c #2A110E",
"4  c #3A140C",
"5  c #241312",
"6  c #2B1514",
"7  c #251618",
"8  c #291B1D",
"9  c #341311",
"0  c #3B1614",
"q  c #341B1B",
"w  c #3C1B1D",
"e  c #3C201F",
"r  c #2C1D23",
"t  c #2C1B24",
"y  c #351E23",
"u  c #3C1E23",
"i  c #301F2A",
"p  c #2E2227",
"a  c #342226",
"s  c #3C2225",
"d  c #3F2826",
"f  c #34252B",
"g  c #3B252A",
"h  c #36282C",
"j  c #3B292D",
"k  c #3D2C32",
"l  c #3F3134",
"z  c #430000",
"x  c #4A0000",
"c  c #430E03",
"v  c #490F01",
"b  c #580400",
"n  c #4B1102",
"m  c #4B140A",
"M  c #531301",
"N  c #5B1401",
"B  c #5F1A08",
"V  c #400F10",
"C  c #431514",
"Z  c #431914",
"A  c #4A1718",
"S  c #431D1C",
"D  c #4C1B1B",
"F  c #561716",
"G  c #531D1B",
"H  c #5C1D1B",
"J  c #660000",
"K  c #780200",
"L  c #621502",
"P  c #6B1904",
"I  c #7C1607",
"U  c #731A01",
"Y  c #7B1C01",
"T  c #631B15",
"R  c #681916",
"E  c #741B14",
"W  c #7C1C12",
"Q  c #44201E",
"!  c #4C211E",
"~  c #54251C",
"^  c #5C241C",
"/  c #6F240D",
"(  c #782B00",
")  c #64221C",
"_  c #69251A",
"`  c #68271B",
"'  c #73241C",
"]  c #782819",
"[  c #69311D",
"{  c #77341C",
"}  c #431E21",
"|  c #491E23",
" . c #521F21",
".. c #432224",
"X. c #4C2423",
"o. c #4B2727",
"O. c #42262C",
"+. c #442A2D",
"@. c #4B2C2C",
"#. c #532424",
"$. c #5B2424",
"%. c #582A26",
"&. c #532C2B",
"*. c #5A2C2A",
"=. c #4F312F",
"-. c #59302D",
";. c #422D31",
":. c #4B2D31",
">. c #522E31",
",. c #5C2E32",
"<. c #433235",
"1. c #4C3335",
"2. c #463439",
"3. c #4B363A",
"4. c #47383D",
"5. c #4C3A3D",
"6. c #543334",
"7. c #5B3434",
"8. c #553838",
"9. c #533A3C",
"0. c #5A3D3D",
"q. c #632623",
"w. c #642B25",
"e. c #6B2B24",
"r. c #662B28",
"t. c #722D23",
"y. c #742B25",
"u. c #7A2D23",
"i. c #6C3327",
"p. c #63322D",
"a. c #6C322C",
"s. c #783527",
"d. c #72332B",
"f. c #7C392C",
"g. c #633433",
"h. c #6C3634",
"j. c #683B35",
"k. c #623B3A",
"l. c #6B3D3B",
"z. c #733A34",
"x. c #793A33",
"c. c #594100",
"v. c #704A00",
"b. c #6C413A",
"n. c #77423B",
"m. c #4E3D42",
"M. c #523E42",
"N. c #613E42",
"B. c #544144",
"V. c #5A4244",
"C. c #544549",
"Z. c #5A464A",
"A. c #57484C",
"S. c #5A4A4D",
"D. c #5F5254",
"F. c #634444",
"G. c #62494B",
"H. c #684849",
"J. c #774844",
"K. c #634E51",
"L. c #625356",
"P. c #67575B",
"I. c #735F63",
"U. c #870200",
"Y. c #960300",
"T. c #881C03",
"R. c #971C0A",
"E. c #821E13",
"W. c #A70700",
"Q. c #AB0200",
"!. c #B20500",
"~. c #BA0300",
"^. c #A81B01",
"/. c #B91901",
"(. c #8C2101",
"). c #882604",
"_. c #942202",
"`. c #9B2304",
"'. c #963603",
"]. c #862917",
"[. c #962912",
"{. c #84321C",
"}. c #8A351C",
"|. c #9B3615",
" X c #A92705",
".X c #B72A04",
"XX c #AE3210",
"oX c #A73815",
"OX c #863825",
"+X c #82342A",
"@X c #973921",
"#X c #CB0600",
"$X c #D30100",
"%X c #DB0100",
"&X c #C81601",
"*X c #D51702",
"=X c #E30200",
"-X c #EC0000",
";X c #E30C00",
":X c #F50000",
">X c #FE0000",
",X c #F40B00",
"<X c #FC0B01",
"1X c #E51701",
"2X c #FB1301",
"3X c #F31901",
"4X c #FA1A01",
"5X c #C52902",
"6X c #D42A02",
"7X c #CD3003",
"8X c #D73203",
"9X c #E82802",
"0X c #FA2302",
"qX c #F52A02",
"wX c #E33503",
"eX c #EC3503",
"rX c #EE3804",
"tX c #F63303",
"yX c #F93603",
"uX c #F43904",
"iX c #914711",
"pX c #AD4F0F",
"aX c #A8451B",
"sX c #B44312",
"dX c #946D00",
"fX c #A87300",
"gX c #AE7000",
"hX c #844327",
"jX c #994426",
"kX c #884939",
"lX c #A74829",
"zX c #C65215",
"xX c #A48500",
"cX c #BC8E00",
"vX c #B59B00",
"bX c #B9A400",
"nX c #CFB300",
"mX c #ECB200",
"MX c #E6C200",
"NX c #F7D500",
/* pixels */
"~ 8.C.A.D.P.P.A.m.1.d [ v.M.2.j h h k f f i f k h h $.| t h f t p ..w.3.5.B.C.B.4.M.B.M.M.2.k k ) m.",
"e.M.S.L.D.D.B.4.S.S.H.hXz.2.k j f f j k k u u f i i E.F t 7 $   $ ~ x.H.P.D.A.4.l k 2.5.V.M.1. .g.C.",
"h.9.k 4.B.4.k m.B.m.0.-.+.k ;.k k f f j j j :.<.i 0 R.C $   o o   & B.A.A.C.B.4.j f h j j f y e.0.3.",
"8.m.;.j l 4.l 4.m.8.hX}.O.k k ;.<.k i k k k k i t aXI #   1 T.N   & p k k k k h k l 2.h f i u e.M.3.",
"9.<.<.2.4.B.m.m.0.s.sX|.| k j k ;.;.g k ;.;.g t D OXP   ;  X(.O o 8 j 2.2.l k 2.5.m.B.B.5.@.) &.4.;.",
"j <.3.5.m.2.<.8.f.aXzX|.$.g u u O.;.j ;.O.O.i u E 1.m   1 _.O $ Z G D @.6.=.6.8.-.=.6.6.*.) [.&.+.2.",
"3.5.B.5.2.<.3.g.d.8.g.].W | } u O.g u O.u u u R y.,.4   O - X h k.d.' ) ) ' i.k.b.b.B.B.B.h.|.,.2.5.",
"8.3.m.j g +.&.w.$.u } ].XXI H | | u u u O.| G E.l.F.6       % j 3.9.a.+Xt.w.6.3.hX{ =.<.m.S.+Xr.3.5.",
"s.r.&.Q  .&.>.*.R H H ].XXXXR.' F 0 6 7 } T ] d.F.-.q     . 6 ..o.=.6.k.d.q.@.o.u.y.>.;.m.K.N.y.s.*.",
"{ }.e.{.e.;.f u R ' d.+X@XoX7XoXE.>   . > ].d.b.%.*.q       9 ) ) %.-.7.h.p.o.e.e.:.;.;.;.M.M.g.}.{ ",
"+.u.f.jX .f i F R &.:.:.7.h.jXjXOXS .   . c $.r.e.p.Q   . * @ / oXiX}.u.y.G w ~ %.+.O.:.2.N.m.m.$.d.",
"+.OXf.kX>.O.H E.W #.#.$.q.d.x.l.j.&.$     . 9 w.i.r.F . ; ( o ; oXzXlXjXu.9 + 7 @.@.:.m.m.M.M.M.q.OX",
"p.p.m.m.m.M.h.}.oX[.].y.z.N.kXx.z.p.5 . 1 O . Z ` ` 2 . M 8XP O 4 hXn.b...X   X s =.8.0.m.m.m.3.t.8.",
"}.s h h k m.m.,.@XoX+Xg.h.x.N.J.x.z.9 . U Y o o F ) o o _.uX6XL o 6 %.%.Q +     5 o.=.6.8.m.<.#.[ k ",
"aX| u u i i i i r.OXg.g.g.p.z.+Xf.i.3 . T.8X( o O 1   m 8XrXuX7XL o : ~ ! %     X q &.@.:.3.k { {.} ",
"kXV.6.#.u | u | e.].N.z.h.r.d.s.s.[ : . _.eXwXM   o *  XuXuXuXuX5Xn o 3 ~ > . o . 5 @.&.:.:.O.d.J.8.",
"M.K.M.,.H ]._ }.|.u.l.h.z.e.t.u.u.G o ; 5XuXuX.Xo   P eXuXuXuXtXeX X1 @ m 2 ; c O $ d 6.8.8.p.q.K.V.",
"o.F.M.g.{.] D ^ ' q.g.a.i.e.t.u.` 3 . Y wXuXuXrX; . `.yXuXuXtX4XqXwX( O > : 1 U < + Q 6.6.6.,.$.m.M.",
" .m.3.:.y.E.0 % o 3 ! a.a.y.' [ Z . n 7XuXuXuX8XO o  X4X2X4X2X>X4XtX XO     c _.v o e %.} D ..~ O.9.",
"OXR ,.o.y. XR 9 .   $ S d.d.{ D O -  XrXyXtXtX8X* O &X>X>X>X>X>X<XqX X;     M  XM o A w.p.p.7.z.{.$.",
"8.n.aX] @XkX+XE 1     + Q i.` 3   L 8X4X4X<X4XtX^.R.,X>X>X>X>X>X>X4X6XN . . Y 7XN O C #.X.@.+.+.0.jX",
"g :.u.aXr.k.J.+X/ -     . 0 9 . ;  X3X<X>X>X>X4XeXqX>X>X>X>X>X>X>X2XeX(.o ; `.8XL o 3 S Q ..s s j @.",
"t q #.].D o.*.p._ 1         . o (.9X<X>X>X>X>X2XtX2X>X>X>X>X>X>X>X<X9XU . N 6XqXU o - 0 Q S s s r r ",
"8 t S [.T ..&.*.^ 2 O < o     N 7X2X>X>X>X>X>X>X0X<X>X>X>X>X>X>X>X<X6XU n  X3X4XY o - Z ! ..s 8 8 p ",
"t 8 C E F S X.#.D > O Y N . n 5X2X>X>X>X>X>X>X>X2X>X>X>X>X>X>X>X>X<X4XuXtX2X:X4XT.O - G ! Q s a 8 8 ",
"i y A R D A A D Z - ; `..XU  X0X>X>X>X>X>X>X>X>X>X>X>X>X>X>X>X>X>X>X>X4X0X<X>X2X/.; . 4 D w w s a 8 ",
"8 w R W *.#.~ / / o c .XuXuXuX4X>X>X>X>X>X>X>X>X>X>X>X>X>X>X>X>X>X>X>X>X>X>X>X2X/.1 . 0 ~ o.@.s q A ",
"s T oX) &.#.H E B o N 8XuXtXtX2X>X>X>X>X>X>X>X>X>X>X>X>X>X>X>X>X>X>X>X>X>X>X>X<X6Xn   c ^ %.@.O.} W ",
"S F H ) p.z.] ].m o U wX0X0X4X<X>X>X>X>X>X>X>X>X>X>X>X>X>X>X>X>X>X>X>X>X>X>X>X<X9XL . 3 $.H ..u F } ",
"A E  .' [.].aX/ % O (.tX2X<X<X>X>X>X>X>X>X>X>X>X>X>X>X>X>X>X>X>X>X>X>X>X>X>X>X>X3XT.O $ ..T A } R A ",
"F R.T e.`.^ / 1   ;  XyX<X>X>X>X>X>X>X>X>X>X>X>X>X>X>X>X>X>X>X>X>X>X>X>X>X>X>X>X2X X; X 9 A F F W E.",
"W oX] ` ] ! ! >   1 5X0X<X>X>X>X>X>X>X>X>X>X>X>X>X>X>X>X>X>X>X>X>X>X>X>X>X>X>X>X:X!.=   2 T E R R.oX",
"XX) G _ ) D S :   v 5X4X>X>X>X>X>X>X>X>X>X>X>X>X>X>X>X>X>X>X>X>X>X>X>X>X>X>X>X>X>X&X1   4 R R.^. XO.",
"oXO.y y S X.S 3   v &X<X>X>X>X>X>X>X>X>X>X>X>X>X>X>X>X>X>X>X>X>X>X>X>X>X>X>X>X>X:X/.<   9 E |.oX{ a ",
"0.g g y u S } 6 . M *X<X>X>X>X>X>X>X>X>X>X>X>X>X>X>X>X>X>X>X>X>X>X>X>X>X>X>X>X>X>X&X<   2 E.q.6.&.h ",
"<.} y O.s u u 9 o n &X<X>X>X>X>X>X>X>X>X>X>X>X>X>X>X>X>X>X>X>X>X>X>X>X>X>X>X>X>X<X/.<   V E.| g +.y ",
"} T i g O...} 8 o < ^.<X>X>X>X>X>X>X>X>X>X>X>X>X>X>X>X>X>X>X>X>X>X>X>X>X>X>X>X>X>X^.; . m E.F y ) D ",
"g.x.$.} ..u } w # * T.,X>X>X>X>X>X>X:X:X-X-X:X>X>X>X>X>X>X>X>X>X>X>X>X>X>X>X>X>X3XT.O @ E [.E &.x.e.",
"S.F.h.q. .D F F 2 o N *X>X>X>X>X:X#XQ.^.^.^.W.!.:X>X>X>X:X-X$X#X$X=X:X>X>X>X>X>X1XN o q d.x.h.N.V.H.",
"B.5.M.7.r.T W E.T % ; R.,X>X>X:XQ.).gXxXcXcXfX( Q.>X>X:X%XK ( pX'.(.~.:X>X>X>X:X!.1 # O.M.G.F.M.5.B.",
"2.<.3.3.6.$.E e.%.7 o M *X>X>X$X( fXmXNXnXbXMXdXb :X:X:X^.c.xXvXnXfX(.%X>X>X:X=XK O 5 s +.&.3.3.<.<.",
"s y h ;.<.o. .s O.d & O K ;X>X$XL fXmXNXnXbXbXv.Y.>X>X:X!.c.bXbXnXxX(.=X>X>X:XQ., & o.=.@.%.} ..a p ",
"{ e r ;.3.} H y d :.a X ; Y.;X-XQ.`.iXdXdXdX).W.=X>X>X>X%X(.v.iXiX).~.:X>X:X~.x o j F.0.0.k.g.{ [ p ",
"jXpXO.k O.G R u s g a 7 X ; U.=X-X;X#X&X&X&X%X-X:X>X>X>X:X=X#X#X*X%X:X:X:X#Xb o 8 9.H.G.G.Z.F.b.pX{ ",
"k.pXD p u I E ..j g d h & X O K %X:X:X:XY.Y.%X-X>X:X>X>X>X>X:X:X:X>X>X:X!.x o 7 <.0.G.G.L.I.P.K.OX|.",
"=.oXD a D [.W ..d j g j j 8 # o x Q.-X:X%XK , J Y.Q.$X=X-X:X>X>X>X:X%XK ; + 8 3.0.V.9.9.M.Z.L.G._ '.",
"s zX{ ;.8.k.7.6.+.g h k ;.%.~ & . * J ~.=X%XW.x , = = z x b Q.=X%XY.x o $ p 2.5.B.9.8.3.5.9.V.4._ zX",
"Q s.0.B.S.D.S.B.2.j f s ~ -.=.h r & # O x K U.U.b *       . = x = O $ p l 5.m.B.m.m.M.B.5.2.4.<.` z.",
"^ 8.Z.D.L.P.L.B.C.B.7.hXhX1.<.h f f a 8 & $ . o .   .   . X X X & C _ &.V.S.C.m.2.4.5.5.V.M.j d w.B.",
"d.B.Z.S.D.A.<.4.A.A.V.j.-.l l j f f h j g g j p t & E 0 t p h h X.d.H.P.P.L.A.5.l k <.<.3.5.3.` 7.B."
};
