/* XPM */
static char *out[] = {
/* columns rows colors chars-per-pixel */
"50 50 240 2 ",
"   c #040101",
".  c #0C0302",
"X  c #0D0809",
"o  c #130402",
"O  c #1B0401",
"+  c #190904",
"@  c #130A0B",
"#  c #1B0C0B",
"$  c #1D1213",
"%  c #220501",
"&  c #2C0100",
"*  c #250801",
"=  c #2B0900",
"-  c #250D0B",
";  c #2A0D0B",
":  c #330000",
">  c #340B01",
",  c #3B0D01",
"<  c #350B09",
"1  c #25110F",
"2  c #2B130F",
"3  c #311307",
"4  c #33110E",
"5  c #231414",
"6  c #2C1512",
"7  c #241619",
"8  c #2A1B1E",
"9  c #351513",
"0  c #3B1312",
"q  c #341916",
"w  c #321B1C",
"e  c #3C1B1B",
"r  c #3B201F",
"t  c #2D1E23",
"y  c #341D23",
"u  c #3C1D23",
"i  c #381C26",
"p  c #2E2124",
"a  c #2D2229",
"s  c #342226",
"d  c #3C2225",
"f  c #34242B",
"g  c #3B252A",
"h  c #35282C",
"j  c #3B292D",
"k  c #3D2C31",
"l  c #3F3034",
"z  c #430000",
"x  c #490A00",
"c  c #590700",
"v  c #441103",
"b  c #4A1408",
"n  c #561504",
"m  c #4A1A16",
"M  c #481619",
"N  c #431C1B",
"B  c #4B1C1C",
"V  c #571817",
"C  c #521C1C",
"Z  c #5D1D1C",
"A  c #670400",
"S  c #750500",
"D  c #7C0200",
"F  c #631601",
"G  c #6B1704",
"H  c #781903",
"J  c #6C1511",
"K  c #661A17",
"L  c #6C1C15",
"P  c #631C19",
"I  c #741B14",
"U  c #7C1B12",
"Y  c #57220E",
"T  c #44211E",
"R  c #49211F",
"E  c #59241C",
"W  c #6B2305",
"Q  c #6B350E",
"!  c #642419",
"~  c #63231C",
"^  c #6B241B",
"/  c #74251C",
"(  c #79281C",
")  c #77341C",
"_  c #431E22",
"`  c #4B1D21",
"'  c #511F21",
"]  c #442224",
"[  c #4C2423",
"{  c #44262A",
"}  c #4B2629",
"|  c #432A2D",
" . c #4B2C2D",
".. c #532423",
"X. c #5C2324",
"o. c #532926",
"O. c #5C2A24",
"+. c #532C2C",
"@. c #592C2B",
"#. c #4D312F",
"$. c #53302E",
"%. c #5B302D",
"&. c #422E31",
"*. c #4B2F32",
"=. c #542E30",
"-. c #433235",
";. c #4B3436",
":. c #463539",
">. c #4B3639",
",. c #47383D",
"<. c #4C3A3D",
"1. c #543334",
"2. c #5B3433",
"3. c #593837",
"4. c #533639",
"5. c #533A3D",
"6. c #5B3D3D",
"7. c #632A24",
"8. c #672824",
"9. c #6B2C24",
"0. c #642D2B",
"q. c #742E22",
"w. c #7A2D23",
"e. c #6A3125",
"r. c #63322C",
"t. c #6C332C",
"y. c #733226",
"u. c #73352C",
"i. c #7B342B",
"p. c #793929",
"a. c #643432",
"s. c #6B3532",
"d. c #6C3A34",
"f. c #663B39",
"g. c #743A34",
"h. c #793B35",
"j. c #685B00",
"k. c #764139",
"l. c #4E3D42",
"z. c #523E42",
"x. c #5C3E41",
"c. c #623E41",
"v. c #544144",
"b. c #5B4244",
"n. c #56474A",
"m. c #56474B",
"M. c #5B4549",
"N. c #5A4A4D",
"B. c #5F5254",
"V. c #654647",
"C. c #624A4C",
"Z. c #774843",
"A. c #634E51",
"S. c #625356",
"D. c #67575B",
"F. c #725F63",
"G. c #8A0000",
"H. c #8C0C01",
"J. c #990300",
"K. c #881604",
"L. c #851F01",
"P. c #941400",
"I. c #961E0A",
"U. c #821E13",
"Y. c #A90400",
"T. c #BD0300",
"R. c #B90800",
"E. c #A71601",
"W. c #B61501",
"Q. c #892204",
"!. c #982504",
"~. c #9B3500",
"^. c #872615",
"/. c #842C1B",
"(. c #972912",
"). c #87341B",
"_. c #993918",
"`. c #A82607",
"'. c #B72A03",
"]. c #AD350D",
"[. c #A73717",
"{. c #862E23",
"}. c #853523",
"|. c #953928",
" X c #803F32",
".X c #A03B20",
"XX c #C20600",
"oX c #CD0200",
"OX c #D50100",
"+X c #DC0100",
"@X c #D40E00",
"#X c #C11401",
"$X c #D61601",
"%X c #E20000",
"&X c #ED0000",
"*X c #EC0B00",
"=X c #F40100",
"-X c #FE0000",
";X c #F60C01",
":X c #FB0B01",
">X c #E51601",
",X c #F41401",
"<X c #FB1301",
"1X c #F11C01",
"2X c #FA1C01",
"3X c #C72B03",
"4X c #DB2D03",
"5X c #CE3103",
"6X c #D23203",
"7X c #DB3203",
"8X c #E82802",
"9X c #F92302",
"0X c #F72B02",
"qX c #E73603",
"wX c #EE3804",
"eX c #F63403",
"rX c #F83703",
"tX c #F53904",
"yX c #9F4800",
"uX c #865900",
"iX c #914A10",
"pX c #AB540C",
"aX c #A9441A",
"sX c #B54212",
"dX c #876A00",
"fX c #B17C00",
"gX c #864227",
"hX c #8E4831",
"jX c #A54424",
"kX c #C24F15",
"lX c #948100",
"zX c #AD8E00",
"xX c #B79800",
"cX c #B6A000",
"vX c #CA9400",
"bX c #C8AE00",
"nX c #D8B400",
"mX c #F8BC00",
"MX c #DFC100",
"NX c #F1CE00",
/* pixels */
"E 4.v.m.B.D.D.m.l.;.] e.) 3.:.h j h j g g g a k j f P M i j k f h } 7.;.<.v.v.l.l.z.v.5.z.:.k k ~ l.",
"8.z.N.S.B.B.v.l.N.N.V.gXk.:.-.j g h j k g g s f a y U.M a j l h ] 9.h.V.D.S.m.<.l l -.<.v.v.*...a.n.",
"s.<.-.<.v.,.h l.v.l.6.e. .k j k | g g | { | *.&.f M (.` f f j &.@.+.v.m.m.n.l.,.k h h j k f i 8.6.;.",
"6.<.&.h l ,.l l.l.1.gX).T s $ 7 i h s | &.{ *.d i [.P.M i t s _ X.l k k k k k j k l l k a i u 8.z.:.",
"<.-.-.:.,.v.v.<.6.p.sX_.[ y X   X $ i | *.} { u V |.`.V { | { K ( ;.| ;.>.&.&.:.<.z.v.z.5.&.~ %.<.&.",
"| -.>.<.l.l -.5.p.aXkX_.Z i 5       @ w } } _ B / a.].( 4.5.f.h._.~ B +.2.$.1.3.%.+.1.%.@.^ (.+.| :.",
"<.>.v.<.:.-.>.a.u.2.r._.U.C e @       @ w ` ` I ^.s.[.7. .g j 4.d.i.( / ^ ( y.f.k.f.x.b.x.s._.@.-.5.",
"5.>.<.k g | +.7.X.u _ /.`.U Z ; X % , o X 9 Z ^. Xc.^ / R # X 5 1.6.u.{.( 8.r.4.gX) $.;.l.M.{.a.<.<.",
"y.e.+.[ ' +.=.@.K K P /.].'.(.J o , `.F o # L i.h.u.9.U.V     @ R %.2.d.i.8. .o.w.w.=.l.l.x.c.u.y.@.",
") ).9.( 8.&.f u K w.w.i.jX[.].U + v 3X5Xn . 2 u.9.9.9./ n     . q E e.r.g.t...! 8.' { { l.z.x.0._.q.",
"{ w.p.jX..f i M K @.*.=.a.u.iXY o F 4XtX'.= . m w.i.8.w.3 . * . 3 )._.{.{.8.e 4 6 u } *.*.z.z.l.X.i.",
" .}.k.hX=._ Z U.U.X...X.8.s.t.2 . Q.qXeXtXH . - q.w.^.9.. % L.= * ) jX|.|.^ 4   X 6 } z.z.z.z.z.7.p.",
"%.r.l.l.l.x.g.|.[.(./.w.h.h.$.# * `.tXtXtX5X* . ! ( ^.C . , 3XH . 4 t.k.h.e.4     $ ;.3.5.l.l.>.9.3.",
").d f k k l.l.2.jX].{.s.d.d.] o n 5XtXtXtXwXF   b ^.^.4 . F wX'., X r 9.7.E 4     @ | 1.4.l.;...q.f ",
"aX` i i i i i _ 8.}.t.s.r.7.2 o Q.qXtXtXtXtX'.. + (.^.% + Q.tXqXL.o + E ! E 1     X r  .*.>.k ) ).u ",
"hXb.4.X.i ` i ` P ^ f.g.s...# > '.tXtXtXtXtX4X> . `.H . = 3XtXtX3Xv X b ! E -     . r $.+.*.{ y.Z.5.",
"z.A.c.0.Z ^.^ /.W 2 ] t.u.T + F 7XtXtX0XeXrXtXG . G F   x tX0XeXwXQ.+ ; J K * . . . w $.2.4.t.0.A.b.",
"} x.z.a.).( E ~ m . 1 O.7.q o H qXtX2X:X<X0XrX`.. * * o !.tXeXeXtX'., o Y m o v v o 6 #.4.2.@.X.5.z.",
"' l.4.*.q.U.M 9 -   @ T O.2 . P.wX9X:X-X-X<XtX7X*     = 7X0XeXeXeX7XG . # # o H H + 5 [ ] M d E { <.",
"|.K %.+.( `.J M -     6 o.2 . !.8X<X-X-X-X:XeXtX=   . L.<X:X:X:X:X,X!.o     , '.Q.+ 4 O.0.a.a.g.).X.",
"4.k.aX( .XhX}.I ,     @ 9 # + `.,X:X-X-X-X-X9X7X%   , 4X:X-X-X-X-X;XE.O   O L.qX`.= ; R o. .| } 6.jX",
"h &.w.aXe.f.Z.s.b o > O .   > W.:X-X-X-X-X-X<X5X, , XX:X-X-X-X-X-X=XR., . n 5XeX'., O e T ] d g j ;.",
"t y ..(.B [ %.o.9 * G x     v 3X:X-X-X-X-X-X:XeX6X7X:X-X-X-X-X-X-X-XR.= , `.0XeX5Xv + 0 N e d u t t ",
"8 t M ^.K [ o.[ 2 , !.Q.o . n $X:X-X-X-X-X-X-X9XtX9X:X-X-X-X-X-X-X:X$XF c +X:X,X7Xn O 9 R [ d w 7 t ",
"t 8 M I V B o.T # > `.5Xn o H 8X:X-X-X-X-X-X-X-X:X-X-X-X-X-X-X-X-X:X1X3XT.=X-X-X1XF o q T T d y 8 8 ",
"s w M L M M m 9 o v 5XtX`.H 3X9X:X-X-X-X-X-X-X-X-X-X-X-X-X-X-X-X-X:X2X2X:X-X-X-X1XH o 4 m e e d s 8 ",
"t q J U.@...B ; o c 4XtXtXrXrX9X:X-X-X-X-X-X-X-X-X-X-X-X-X-X-X-X-X-X:X-X-X-X-X-X,XK.O ; E } #.d 8 N ",
"d K [.~ o...m ; . A *X2XeXtXtX2X-X-X-X-X-X-X-X-X-X-X-X-X-X-X-X-X-X-X-X-X-X-X-X-X;XP.O + N o. .{ N U ",
"e P Z ~ a.t.! , o G.;X;X9X0XeX<X-X-X-X-X-X-X-X-X-X-X-X-X-X-X-X-X-X-X-X-X-X-X-X-X:XE.= . m Z ] d V N ",
"M J ..^ ^.).iXb + H.;X-X:X<XeX2X-X-X-X-X-X-X-X-X-X-X-X-X-X-X-X-X-X-X-X-X-X-X-X-X-XE.=   e P M N J V ",
"V I.K 7.`.E ! v + H.:X-X-X:X2X:X-X-X-X-X-X-X-X-X-X-X-X-X-X-X-X-X-X-X-X-X-X-X-X-X-XW.=   6 M P B U U ",
"U [.( ~ ( R m 4 + S ;X-X-X-X-X-X-X-X-X-X-X-X-X-X-X-X-X-X-X-X-X-X-X-X-X-X-X-X-X-X-X#X>   < K J J I.[.",
"'.7.C ^ ~ R N - o H ;X-X-X-X-X-X-X-X-X-X-X-X-X-X-X-X-X-X-X-X-X-X-X-X-X-X-X-X-X-X:X#X>   0 J I.E.[.] ",
"jXu i y u B N 2 o c >X-X-X-X-X-X-X-X-X-X-X-X-X-X-X-X-X-X-X-X-X-X-X-X-X-X-X-X-X-X-X#X,   < J [..X( s ",
"6.g s d u _ _ 9 o x $X:X-X-X-X-X-X-X-X-X-X-X-X-X-X-X-X-X-X-X-X-X-X-X-X-X-X-X-X-X-XW.:   0 U.7.1. .s ",
"&.u y g d u u w X > W.:X-X-X-X-X-X-X-X-X-X-X-X-X-X-X-X-X-X-X-X-X-X-X-X-X-X-X-X-X:XW.= . 0 U _ g  .s ",
"_ ~ i f d d u w @ * P.:X-X-X-X-X-X-X-X-X-X-X-X-X-X-X-X-X-X-X-X-X-X-X-X-X-X-X-X-X=XP.% X n U.V i P B ",
"a.i.X._ { d _ N - o G >X-X-X-X-X-X=XOXT.R.T.oX%X-X-X-X-X-X-X=X&X=X=X-X-X-X-X-X-X*XS o ; I I.I =.h.9.",
"N.V.f.X.C M V V b O , W.:X-X-X-XoXP.yXyXpXyX~.K.OX-X-X-X&XY.H.E.E.Y.OX-X-X-X-X-X@Xv . N g.h.d.c.M.V.",
"v.<.x.3.0.K U U.K 6 o H >X-X-X+XH.uXvXnXMXnXnXuXS =X-X=XT.n uXzXfXuXP.&X-X-X-X=XH.% # &.x.M.M.x.l.z.",
":.&.:.>.;.X./ 9.@.s X , E.:X-XoXW zXmXNXnXcXNXdXc =X-X=XY.j.cXxXNXxXQ.OX-X-X-XoXc O q g | *.;.>.:.-.",
"g s f &.*.} C d { | 7 o n XX:X%XS uXvXnXbXcXj.W T.-X-X=XT.j.lXzXxXuXK.&X-X-X%XD O q O.$.#.7._ ] s p ",
") d t &.:.] V u d #.g # o A oX=XoXW.!.yXyXyXE.oX=X-X-X-X&XY.Q.~.!.E.OX-X-X&XJ.& # >.V.6.x.f.a.) Q p ",
"gXpX] k | C L u d j g 8 @ o c oX=X=X+XOXXXOX&X-X-X-X-X-X-X=X%X+X%X=X=X-X&XY.: @ s b.C.C.N.C.M.d.pX) ",
"d.sXR p u U J ] j g j g 8 @ o z R.&X-X=XJ.D Y.OX=X-X-X-X-X-X-X-X-X-X-XOXG.> o t ;.b.V.C.S.F.D.C.)._.",
"1.].R s B (.U ] d j j j h w - o & G.OX-X%XG.: z A D Y.oXOX%X=X-X-X&XXXc + @ p <.v.v.6.5.x.n.S.A.! [.",
"T sX( &.3.6.2.1.| j g k &.7.E 7 X O z J.OX%XXXS z & O & & z G.OXT.D & o $ h :.l.6.<.>.>.;.v.M.:.! kX",
"[ p.6.n.N.B.N.v.;.j h d R %.;.j p 7 @ o : A A A z o       . O : % o $ f l <.v.l.l.v.v.v.<.-.,.l ! d.",
"E 6.n.S.S.D.S.v.v.v.1.gXgX#.l h h h f t 5 @ o . .   . .   X X @ $ M / 1.v.N.n.,.:.:.<.5.M.l.| d 7.v.",
"y.v.n.N.B.n.l <.N.N.M.d.2.l l h f f h j g h j a t 7 U 0 a f j h ..u.V.D.D.S.N.<.l k l -.<.:.>.~ f.v."
};
