/* XPM */
static char *out[] = {
/* columns rows colors chars-per-pixel */
"50 50 237 2 ",
"   c #040101",
".  c #0C0302",
"X  c #0E0808",
"o  c #130502",
"O  c #1B0501",
"+  c #140907",
"@  c #1A0906",
"#  c #130A0A",
"$  c #1B0B0B",
"%  c #190E13",
"&  c #1C1214",
"*  c #1C1316",
"=  c #230401",
"-  c #2C0200",
";  c #230902",
":  c #2C0A01",
">  c #240D0B",
",  c #2E0D0B",
"<  c #330200",
"1  c #340C02",
"2  c #3A0E01",
"3  c #390C0B",
"4  c #28110E",
"5  c #35130E",
"6  c #360F12",
"7  c #231313",
"8  c #2B1513",
"9  c #26191B",
"0  c #2B1B1D",
"q  c #331413",
"w  c #3C1814",
"e  c #321A1C",
"r  c #3C1C1C",
"t  c #3E201E",
"y  c #2C1E22",
"u  c #291C24",
"i  c #341E23",
"p  c #3C1E23",
"a  c #301F2A",
"s  c #2C2124",
"d  c #2F2129",
"f  c #342226",
"g  c #3C2225",
"h  c #34252B",
"j  c #3B252A",
"k  c #36282C",
"l  c #3B292D",
"z  c #3C2C32",
"x  c #3E3034",
"c  c #4C0000",
"v  c #430F01",
"b  c #430805",
"n  c #570400",
"m  c #4A1304",
"M  c #531301",
"N  c #5A1507",
"B  c #471717",
"V  c #431A15",
"C  c #441C1D",
"Z  c #4C1B1B",
"A  c #561715",
"S  c #5D1B14",
"D  c #531D1C",
"F  c #5B1C1B",
"G  c #640000",
"H  c #690000",
"J  c #7B0000",
"K  c #631601",
"L  c #6B1902",
"P  c #681B08",
"I  c #751B02",
"U  c #691814",
"Y  c #631B19",
"T  c #691D19",
"R  c #741A14",
"E  c #7D1C12",
"W  c #573800",
"Q  c #45211E",
"!  c #4B211E",
"~  c #53231D",
"^  c #5C231C",
"/  c #772609",
"(  c #67261A",
")  c #65231C",
"_  c #6A251A",
"`  c #74241C",
"'  c #782719",
"]  c #69311D",
"[  c #76341C",
"{  c #441D21",
"}  c #4A1F22",
"|  c #521F21",
" . c #442224",
".. c #4D2423",
"X. c #4A2629",
"o. c #442B2D",
"O. c #4C2C2C",
"+. c #542424",
"@. c #5C2424",
"#. c #522926",
"$. c #5E2B26",
"%. c #542C2B",
"&. c #5A2C2B",
"*. c #4F312F",
"=. c #58302D",
"-. c #422D32",
";. c #4C2E31",
":. c #522E31",
">. c #433235",
",. c #4B3335",
"<. c #463439",
"1. c #4B3639",
"2. c #47383E",
"3. c #4C3A3D",
"4. c #543334",
"5. c #5B3433",
"6. c #553838",
"7. c #533A3C",
"8. c #5B3C3D",
"9. c #642623",
"0. c #632B25",
"q. c #672B26",
"w. c #6C2C24",
"e. c #712720",
"r. c #732D24",
"t. c #7B2E23",
"y. c #6C3427",
"u. c #63322D",
"i. c #6B322C",
"p. c #743225",
"a. c #73342C",
"s. c #7A3828",
"d. c #7B392C",
"f. c #633532",
"g. c #6C3533",
"h. c #6A3B37",
"j. c #623C3B",
"k. c #733933",
"l. c #7A3B34",
"z. c #715200",
"x. c #744330",
"c. c #76423B",
"v. c #4E3D42",
"b. c #523E42",
"n. c #613E42",
"m. c #544144",
"M. c #5B4244",
"N. c #544449",
"B. c #56474B",
"V. c #5A454A",
"C. c #57484C",
"Z. c #5A4A4D",
"A. c #5F5254",
"S. c #634445",
"D. c #624A4B",
"F. c #684949",
"G. c #764844",
"H. c #634E51",
"J. c #625356",
"K. c #67575B",
"L. c #735F63",
"P. c #850200",
"I. c #890000",
"U. c #970400",
"Y. c #841F02",
"T. c #8A1B06",
"R. c #931B06",
"E. c #831E14",
"W. c #A10000",
"Q. c #AB0600",
"!. c #B40400",
"~. c #BC0600",
"^. c #AB1A01",
"/. c #B71C02",
"(. c #852104",
"). c #972405",
"_. c #8E3300",
"`. c #8A2714",
"'. c #832C1C",
"]. c #972812",
"[. c #87341C",
"{. c #993515",
"}. c #A62707",
"|. c #B72804",
" X c #A7310D",
".X c #A83916",
"XX c #B63611",
"oX c #872F26",
"OX c #873424",
"+X c #983B27",
"@X c #873F31",
"#X c #C70400",
"$X c #D50200",
"%X c #DC0100",
"&X c #C71700",
"*X c #D61901",
"=X c #E30100",
"-X c #EB0000",
";X c #E90A00",
":X c #F50000",
">X c #FE0000",
",X c #FC0B01",
"<X c #EE1A02",
"1X c #FB1301",
"2X c #FA1B01",
"3X c #CD2502",
"4X c #C72B03",
"5X c #DC2A02",
"6X c #CE3104",
"7X c #D73304",
"8X c #E92102",
"9X c #F82702",
"0X c #E83704",
"qX c #EC3604",
"wX c #F53503",
"eX c #F53904",
"rX c #FA3A04",
"tX c #914C11",
"yX c #A8461A",
"uX c #B04D10",
"iX c #8F6C00",
"pX c #986B00",
"aX c #9D7E00",
"sX c #AB6B00",
"dX c #A97700",
"fX c #B57E00",
"gX c #854327",
"hX c #994426",
"jX c #874939",
"kX c #A24729",
"lX c #C15015",
"zX c #B19100",
"xX c #BBA700",
"cX c #C89C00",
"vX c #CAB200",
"bX c #E9B500",
"nX c #F0CE00",
/* pixels */
"~ 6.N.C.A.K.K.C.3.<.g ] x.5.<.k k l k l h a h z l h B > * z z h h X.0.1.2.m.N.m.2.3.m.b.b.<.-.l 9.b.",
"w.b.Z.J.A.A.m.2.Z.Z.F.gXx.>.z l k h l z j j a h u u @   X d x k  .w.d.F.K.J.Z.2.>.x ,.3.b.N.;...f.m.",
"g.3.-.2.v.2.z 2.m.m.8.=.o.l -.z z h k l z j -.v.a         * k o.#.4.m.C.Z.N.v.<.z k k l k h h e.8.,.",
"6.v.-.l x 2.2.2.3.6.gX[.g x z -.-.z h k z j j a *   = 2   % u  .@.x z z z z z l k x x z f a p 9.b.1.",
"7.>.>.<.3.m.v.3.7.s.uX{.} -.j z z z j z z -.p u $   m (.. % j F [ ;.z >.<.>.z <.3.m.m.7.7.o.9.&.3.>.",
"l >.3.3.3.<.<.6.s.yXlX.X| j a j -.-.j z z j a e ,   L |.. % 3.k.OXY Z ;.4.,.,.1.=.;.1.4.&.( ].%.o.<.",
"3.1.m.3.<.>.3.f.a.5.f.[.E.Z p p o.p j z p j a Y 5   K 7Xo X l M.j.a.e._ ) _ w.c.x.j.7.m.N.h.{.&.<.3.",
"6.3.3.z j o.*.( @.p { '.}.R F | { p p p { p F ` g   1 6X@ + f -.,.7.f.s.r.( 4.1.x.s.*.1.b.V.oXu.1.3.",
"p.w.%. .| ;.;.&.Y Y F oXXX|.].E Y D } } } 9.' i.8.  o ).1 X e g o.*.,.j.a.$.o.O.t.r.:.-.v.n.n.r.p.=.",
"[ [.w.'.e.-.h { Y R r.d.hX.XXX].].E.T T `.].a.h.%.7 . m I @ @ Q ~ =.=.=.g.u.X.w.q.X.-.-.z b.n.f.{.r.",
"O.t.d.hX| a i A T %.;.;.4.g.hXhX+X+XoX'.XX}.w.u.0.#.. O }.I ; 1 / hXOXd.r.0.X.@.&.o.-.-.v.b.v.v.9.a.",
"o.OXd.jX:.o.F E.R }  .@.9.g.l.k.h.h.G.k._ ].` w.y.$., . (.7X/ ; m uXkXgXoXr.@.| :.:.;.v.v.b.v.b.9.s.",
"u.=.b.v.v.b.g.oX' , w 9.k.k.c.h.k.k.l.f.8 m _ p.w.( A . M eX6XP $ w 5.x.f.0.( $.=.:.6.b.b.v.v.1.w.7.",
"[. .h l z v.v.5.' 1 @ r 5.h.c.G.l.l.l.&.+   , S ' ` S . v eXeX6XP $ 7 Q ..r t #.&.&.:.4.1.v.<.+.' l ",
"yX} i a a a a p ( L o 7 %.=.k.l.d.r.s.p.$     : ` R.m . v eXwXqXXXN o $ 4 X # t #.#.%.O.,.<.z [ [.p ",
"jXS.4.+.p { p { T K o 9 =.i.a.a.a.r.t.r.5   O . 3 |.1 . L eXeXeXqX|.M . .     8 ..%.=.4.:.>. .p.G.7.",
"b.H.b.u.A '.9.[.{.v +  .i.y.w.~ V V 9.p.> . (.1 . N O o |.eXeXeXeX0X}.:       + t #.=.5.6.4.g.&.H.M.",
"X.V.b.f.'.'.Z ) ' V q &.i.w._ w + o > 4 . @ 6X}.o o   ; 7XeXeXeXwXwX7XP .     . 8 #.=.=.4.4.&.@.b.b.",
"| v.1.;.r.E.B r C , > ..i.w.w.S @         L 0X0X2     2 qXwXwX9X2X9XeX}.: . 1 ; ; ! &.%.{ C  .! X.3.",
"+XT :.%.` }.U B 8 o . r i.a.[ ~ @ : n O   |.qXrXY.    K wXwX9X>X>X,XwX|.2 O I N o N ` w.u.u.f.k.[.@.",
",.k.yXe..XjXd.E N o   > 0.s.w.5   L 4XY.M 6XeXrXY.  o }.wX,X>X>X>X>X,X&XM o Y.(.; : Y +.#.O.o.O.8.hX",
"k ;.t.yXu.j.n.@XT o   X C w.V @ ; |.eXqX0XeXwXrXv   K qX1X>X>X>X>X>X>X1XR.1 Y.4XM o , C Q  .g j l ;.",
"y i +.`.Z X.=.&.V .     8 V @ O Y.0XeXrXeXeXeXqX:   Y.9X>X>X>X>X>X>X>X,X/.m (.qX(.; @ V C r g f y s ",
"0 u r ].Y  .#...8       @ @   L 7XrXeXwXeXeXwX<X= O 3X,X>X>X>X>X>X>X>X>X9X3X7XwX7Xv o q Q Q g e 0 u ",
"u 0 C R A { +.C > O 2 ;     M 6XwXeXwXwX9X,X>X>X=X5X,X>X>X>X>X>X>X>X>X>X9X9X9X9XqXK o q Q t t f 0 9 ",
"f e B U C B C w $ ; N 2   O ).wX2X,X>X>X>X>X>X>X1X,X>X>X>X>X>X>X>X>X>X>X>X>X>X>X9X).O 5 B C e g f e ",
"y w U E.&.+.D A 1 ; I M   v 4X9X,X>X>X>X>X>X>X>X>X>X>X>X>X>X>X>X>X>X>X>X>X>X>X>X1X}.: > ~ X.*.g 0 C ",
"g Y  X9.%.+.~ N 1 ; ).).; M 3X1X>X>X>X>X>X>X>X>X>X>X>X>X>X>X>X>X>X>X>X>X>X>X>X>X1X4X1 O C #.*.g { E ",
"r Y F ) u.k.' / ; ; ).5X}.|.8X>X>X>X>X>X>X>X>X>X>X>X>X>X>X>X>X>X>X>X>X>X>X>X>X>X1X3Xv . B F  .g A C ",
"B U ~ ` ].'..XP   : }.wXwXrX2X>X>X>X>X>X>X>X>X>X>X>X>X>X>X>X>X>X>X>X>X>X>X>X>X>X,X3Xv . g F Z C U A ",
"A ].Y w.}.^ ^ m   1 /.1X2X9X1X>X>X>X>X>X>X>X>X>X>X>X>X>X>X>X>X>X>X>X>X>X>X>X>X>X1X/.:   q B Y A R E.",
"E  X' ) ' ! Q :   M *X,X,X>X>X>X>X>X>X>X>X>X>X>X>X>X>X>X>X>X>X>X>X>X>X>X>X>X>X>X1X}.:   6 A R U R..X",
"|.@.| _ ) ! C > . I <X>X>X>X>X>X>X>X>X>X>X>X>X>X>X>X>X>X>X>X>X>X>X>X>X>X>X>X>X>X1X|.1   5 U R.^.]...",
"yX{ i p { D C > . I 8X>X>X>X>X>X>X>X>X>X>X>X>X>X>X>X>X>X>X>X>X>X>X>X>X>X>X>X>X>X1X&X2   5 R ].yX[ f ",
"8.g a p p C { 4 . K 8X,X>X>X>X>X>X>X>X>X>X>X>X>X>X>X>X>X>X>X>X>X>X>X>X>X>X>X>X>X,X&X1   6 E.w.4.%.f ",
"-.{ a o.g p p e o m 3X,X>X>X>X>X>X>X>X>X>X>X>X>X>X>X>X>X>X>X>X>X>X>X>X>X>X>X>X>X>X~.1   b E } j O.f ",
" .Y a a X. .{ e . 1 |.1X>X>X>X>X>X>X>X>X>X>X>X>X>X>X>X>X>X>X>X>X>X>X>X>X>X>X>X>X>X!.- . B T.Z i ) C ",
"f.d.@.{ X.g { 6 @ ; T.9X>X>X>X>X>X>X>X:X:X:X>X>X>X>X>X>X>X>X>X>X>X>X>X>X>X>X>X>X:XU.O O R ].T &.x.u.",
"Z.S.h.9.D Z A A 3 o N *X,X>X>X>X>X$X~.Q.^.^.Q.#X>X>X>X>X>X:X%X$X%X-X>X>X>X>X>X>X-XG . e a.l.g.n.V.c.",
"m.3.b.5.u.Y E E.S @ : ^.1X>X>X:X!.R.sXsXfXdXsXI !.>X>X>X%XP.Y. X).R.#X:X>X>X>X>X#X< o o.b.F.S.b.3.m.",
"<.>.1.1.,.9.` q.%.8 o K *X>X>X$XI sXbXnXvXvXbXiXn :X>X>XQ.W aXzXcXpXR.%X>X>X>X-XJ O & g o.;.,.1.>.>.",
"g i h >.>.X.D  . .j & O T.;X:X$XK dXbXnXvXxXvXz.P.>X:X:X^.z.cXxXnXzX(.$X>X>X:XQ.< $  .%.O.$.{  .f f ",
"[ t u -.1.{ F e g o.t X < U.-X-XQ._.pXaXaXiX_.U.=X>X>X:X$X(.z.z.tX/ ~.:X>X:X#Xn @ j b.8.8.n.f.[ ] 0 ",
"tXyX .z o.D U p j l h * . - U.=X-X$X#X&X&X&X$X;X>X>X>X>X>X$X#X&X&X$X-X>X>X#Xn o 0 7.F.F.D.D.M.k.uX[ ",
"c.uXZ d r E R  .l j j j * . = J $X:X:X-XW.W.=X:X>X>X>X>X>X>X:X:X:X>X>X-X~.n o 7 >.M.S.D.J.L.K.H.[.{.",
">. X .f Z ].E  .j l l l l 9 + O n !.:X:X$XG c H U.!.$X-X:X>X>X>X>X>X%XI.< X 9 >.7.7.8.7.b.V.J.D._ {.",
" .uX' -.6.j.5.4.o.j l l o.$.~ $ . - G #X=X$XW.c < = < c c G Q.-X=XU.c O # s >.3.m.7.7.3.1.m.M.2.( lX",
" .p.c.B.Z.A.Z.m.,.l k f ~ =.,.k u * o O c P.I.I.n O       . - c < O # s x 3.m.m.v.m.m.7.3.>.2.>.( k.",
"^ 7.V.J.J.K.J.m.N.m.5.gXgX,.>.k h h f 0 & + X . .     .   X X # % B ( *.M.Z.N.3.<.<.3.7.N.b.l g 0.m.",
"a.m.N.Z.A.C.>.2.C.C.M.f.5.>.x l h h h l k g l s u 7 / 6 u d k k ..p.F.K.K.J.C.v.x z >.>.3.1.1.( j.m."
};
