/* XPM */
static char *out[] = {
/* columns rows colors chars-per-pixel */
"50 50 244 2 ",
"   c #193819",
".  c #223B1B",
"X  c #132E27",
"o  c #1C3B25",
"O  c #183728",
"+  c #183B37",
"@  c #263D29",
"#  c #263D33",
"$  c #2F580F",
"%  c #264618",
"&  c #334D1E",
"*  c #2F5414",
"=  c #365719",
"-  c #1E4427",
";  c #1A453A",
":  c #2A4728",
">  c #344828",
",  c #375629",
"<  c #284639",
"1  c #374A36",
"2  c #29563A",
"3  c #3A5539",
"4  c #3B6428",
"5  c #496C19",
"6  c #4B751B",
"7  c #52751A",
"8  c #465632",
"9  c #475839",
"0  c #486926",
"q  c #546D29",
"w  c #4A7525",
"e  c #567729",
"r  c #4B6636",
"t  c #556839",
"y  c #587638",
"u  c #657D38",
"i  c #2B234B",
"p  c #322D4F",
"a  c #332D56",
"s  c #3B335B",
"d  c #39355A",
"f  c #2F3367",
"g  c #393766",
"h  c #413B5B",
"j  c #433E66",
"k  c #1B4943",
"l  c #1A5445",
"z  c #264642",
"x  c #254A42",
"c  c #2C4B45",
"v  c #2C4C49",
"b  c #324D45",
"n  c #2D5446",
"m  c #355345",
"M  c #35534A",
"N  c #3B554C",
"B  c #3A594A",
"V  c #305353",
"C  c #3B5852",
"Z  c #376551",
"A  c #3D5069",
"S  c #394977",
"D  c #465A44",
"F  c #425B4B",
"G  c #4E5354",
"H  c #435C51",
"J  c #495C55",
"K  c #49654A",
"L  c #56664A",
"P  c #4D764C",
"I  c #4B6354",
"U  c #496657",
"Y  c #566855",
"T  c #556C5B",
"R  c #5B6C5B",
"E  c #59745A",
"W  c #67764A",
"Q  c #677056",
"!  c #62725D",
"~  c #6A765C",
"^  c #44456B",
"/  c #494868",
"(  c #524D6A",
")  c #4C546C",
"_  c #56556B",
"`  c #474B75",
"'  c #49557B",
"]  c #585977",
"[  c #4E6D6E",
"{  c #556D62",
"}  c #5C7464",
"|  c #5A637B",
" . c #676F68",
".. c #637563",
"X. c #677867",
"o. c #6A7A64",
"O. c #6B7C6B",
"+. c #767967",
"@. c #727E6B",
"#. c #676978",
"$. c #6A7A76",
"%. c #73757A",
"&. c #5A8B17",
"*. c #649018",
"=. c #71A01B",
"-. c #5D8524",
";. c #598735",
":. c #678C2D",
">. c #568453",
",. c #678445",
"<. c #6D8C51",
"1. c #5C8A6F",
"2. c #6B836A",
"3. c #788567",
"4. c #73826C",
"5. c #7A856C",
"6. c #678072",
"7. c #6C8373",
"8. c #738574",
"9. c #768877",
"0. c #7B8A73",
"q. c #7D8C7A",
"w. c #6E9874",
"e. c #7B917A",
"r. c #848B6B",
"t. c #8F9567",
"y. c #838C74",
"u. c #898A76",
"i. c #958D77",
"p. c #88927A",
"a. c #96957B",
"s. c #A3967C",
"d. c #99A27E",
"f. c #305187",
"g. c #284C92",
"h. c #2A5697",
"j. c #325B99",
"k. c #2F609E",
"l. c #376898",
"z. c #2F5BA2",
"x. c #366AA3",
"c. c #2F71AD",
"v. c #3974A7",
"b. c #475A85",
"n. c #515A83",
"m. c #4B6289",
"M. c #596989",
"N. c #59768A",
"B. c #456998",
"V. c #4F7293",
"C. c #58799A",
"Z. c #676A84",
"A. c #697689",
"S. c #767987",
"D. c #677894",
"F. c #717D92",
"G. c #446AA6",
"H. c #487AA6",
"J. c #4479B4",
"K. c #38809B",
"L. c #3688BA",
"P. c #598D94",
"I. c #798686",
"U. c #67889B",
"Y. c #768E91",
"T. c #788B98",
"R. c #7FAA8E",
"E. c #4F8BA8",
"W. c #5A87A5",
"Q. c #4786B7",
"!. c #548DB9",
"~. c #4898B9",
"^. c #599BB4",
"/. c #628AA6",
"(. c #6996AB",
"). c #7A98A7",
"_. c #6692B2",
"`. c #59A5B8",
"'. c #51ACBD",
"]. c #71A9AF",
"[. c #68A6B9",
"{. c #78A7B5",
"}. c #3791C8",
"|. c #3EA3C9",
" X c #4A98C5",
".X c #559BC6",
"XX c #51B1CC",
"oX c #5AACD4",
"OX c #58B4D6",
"+X c #6AAEC6",
"@X c #76B8C5",
"#X c #64BAD9",
"$X c #5DBAE0",
"%X c #59C5D7",
"&X c #56CFD9",
"*X c #68C6DA",
"=X c #72CCD0",
"-X c #65D3D9",
";X c #53CDE5",
":X c #59D8E9",
">X c #6AC9E3",
",X c #72CEE6",
"<X c #69D8E6",
"1X c #76DAE9",
"2X c #62DCF0",
"3X c #5BE4F2",
"4X c #7AE2ED",
"5X c #69E9F1",
"6X c #7CE6F1",
"7X c #858887",
"8X c #899685",
"9X c #939B84",
"0X c #989C88",
"qX c #858B94",
"wX c #889798",
"eX c #969696",
"rX c #A19780",
"tX c #A69C83",
"yX c #AB9F92",
"uX c #98A48C",
"iX c #9BA597",
"pX c #A8A58B",
"aX c #A6AA98",
"sX c #B2AA96",
"dX c #ACB39B",
"fX c #B4B49B",
"gX c #869BA6",
"hX c #88A6A8",
"jX c #96A6A5",
"kX c #87B1B4",
"lX c #95B8B4",
"zX c #A5A8A1",
"xX c #A7B3A8",
"cX c #B6BAA2",
"vX c #B9BAA6",
"bX c #C5BBA1",
"nX c #92C5BE",
"mX c #B3C3B2",
"MX c #C3C3A9",
"NX c #CECBB0",
"BX c #88BBC6",
"VX c #8EC4C7",
"CX c #A7E2DD",
"ZX c #91F1F2",
/* pixels */
"= 8 t t 9 @ 8 . < % % > @ . @ @ @ . * . , =.&.$ &.=.*.* % %   , 3 8 @ . > 1 1 : & % %   $ % o     5 ",
"W pXs.s.tXrX9XD m t sXtXi.u.u.5.+.@ 8 tXa.w y 3.<.*.0 uXE = ~ tXi.i.+.L 0Xy.5.8.o.. , 3.2.8.} T n % ",
"~ pXpXs.pXsX0XG 0 W tXtXs.a.i.u.+.1 9 pXa.3.p.0.3.! Q p.5.: 3.a.r.<.p.4.p.5.5.@.} : w.P L o.T I m O ",
"~ pXsXfXdXsXtXY q u sXsXs.i.i.i.r.# D pXa.r.5.5.@.Y K 0.2.: D ! 3.p.r.5.o.@.@.O.T : 2.0.e...U C < - ",
"t r.dXfXdXaXiXL 7 q Q +.Q R L 9 1 @ L p.a.y.1 ! 2.~ ~ X.3 % > 8.y.0.5.5.~ I ....H @ ,.2.} E I # l 2 ",
"L p.dXcXdXdXiXY 7 :.9 9 9 t 9 9 8 t D r.p.r.W y.p.0.0.8.O.1 K 8X5.5.@.o.R o.o.@.3 : :.W B M M ; m >.",
"9 sXaXdXaXiXuXB 8 MXMXbXbXbXMXmX+.y u r.5.3.0.p.p.e.8X8X%.1 L O.o.o.O.E 8.o.! T J   :.w.E K K >.;.<.",
"9  .@.8.o.K D 1 8 MXvXvXvXvXfXfXL 0 L r.5.o.aXfXgX@X+XxXxX{ b O.....R o.~ R R I H o q r.<.Q y e *.=.",
"5 = > > . & 8 5 q fXbXcXmXcXfXdX..0 P p.uX8X7XxX[.].@X+XjX$.iX8XB n < b 1 b b z z # u.vXa.9Xy.R 2.e ",
"5 t.s.t.i.s.s.s.t.bXfXmXvXvXjXdXR <.uXaX].].| eX[.`.@X=XqXV.`.gXiXT p.> @ # } 7XiX8XxXaXiX9X8Xe.8.2 ",
"t bXtXs.i.i.i.NXfXwX(._.T.aXS.uXuXiX].=X-X=X' wX^.'.`.(.' (.-X-X`.).iXuXu.a.zXW.!.C.qXqXeX9X8X8.E < ",
"t sXtXs.rXrXi.NXvX+XOX*X.XwXZ.S.hX'.1X=XlXjXA.N.T./.(.D.A R.jXkX=X-X].wX#.bXW.>X>X;XC.F.Y.8Xe.8.9.# ",
"9 tXrXi.i.i.u.yXiXOX*X,X,XgX| | %X=XnXiX).l.h.f.c.L.L.c.g.l.E.hXhX].-XU.%.xXQ.1X:X;XQ.D.I.8.I.0.7.< ",
"8 yXi.i.u.u.u.sXjX.X%X*XXXgXm.N.kXY.gXH.h.g.L.+X*X#X%X#X Xk.h.c.C.D.wXwX#.dX/.>X:X>X(.M.) m B < n : ",
"@ +.i.i.u.u.Q yXqXT.+X+XhXF.f.S.jXC.f.h.Q.,X4X4X4X6X6X6X4X1X#XL.h.l.gXeX#.7XqX/.^./.A.M.[ 9 8 > , 4 ",
"& > 1 1 G # 9 S.Z.Z.Z.Z.M.b.` A./.x.k.*X4X6X6X6X6X6X6X6X6X6X6X1XoXz.H.qXS.] Z.] n.] n.G.I.u.@.5.o.@ ",
"5 e q t t t q u G a p p s j Z.D.k.v.1X6X6X6X6X6X6X6X6X6X6X6X6X6X6X>Xx.v.wX%.d d i p f #.+.+.L ! T # ",
"q pXfXpXtXtX8X&  .%.( _ %.wXqXx.j.1X6X6X6X6X6X6X6X6X6X6X6X6X6X6X6X6X>Xj.W.qXI.#.A ( S X.+.R D G I # ",
"W bXs.s.9Xi.@.& +.S.U.E.wXjXH.j.,X6X6X6X6X6X6X6X6X6X6X6X6X6X6X6X6X6X4X#Xx.hXY.| v.M.'  . .R } T m X ",
"L pX0X9X8X8X7., 9XvX~.*XwXM.z. X6X6X6X6X6X6X6X6X6X6X6X6X6X6X6X6X6X6X6X1XQ.Q.Z.V.&XT.P. .R } T H v k ",
"t 0X0X9Xp.p.X.3 iXwXOX=XjXG.g.,X6X6X6X6X6X6X6X6X6X6X6X6X6X6X6X6X6X6X6X6X*Xf.wXD.-XU.U.[ # ; + X + ; ",
"8  .9X8XI.e.} , MXT.-XkXjXx. X1X6X6X6X6X6X6X6X6X6X6X6X6X6X6X6X6X6X6X6X6X1Xj.).qXXX^.A.[ %     . % = ",
"> 9 K R L T m r MXU.1XhXgXg.oX6X6X6X6X6X6X6X6X6X6X6X6X6X6X6X6X6X6X6X6X6X4XQ.{.qX'.+XA.N.9 r W W P e ",
"5 7 7 0 -.L <.:.dXP.,XhX).g.*X6X6X6X6X6X6X6X6X6X6X6X6X6X6X6X6X6X6X6X6X6X4XoX[.wX~.%XD.P.e.o.p.p.y.} ",
"r d.0.:.,.:.<.:.aX^.*XwX_.h.,X6X6X6X6X6X6X6XZX6X6X6X6X6X6X6X6X6X6X6X6X6X4X$X[.eX^.*XD.C.8X2.q.p.y.R ",
"Q 9X9X0.t uXdXuXiX^.-XwXW.h.>X6X6X6X6X6X6X6X6X6X6X6X6X6X6X6X6X6X6X6X6X6X6X#X_.wX^.%XA.E.Y.p.0.8.2.Y ",
"D 0.0.r ! iXuXE eXW.-X)._.g.>X1X6X6X6X6X6X6X6X6X6X6X6X6X6X6X6X6X6X6X6X6X1X.XkXqX^.%XA.E.I.8X8.8.7.3 ",
"1 uXp.0.B 1 L uXqXE.-XT.M.h.#XZX6X6X6X6X6X6X6X6X6X6X6X6X6X6X6X6X6X6X6X6X6XJ.{.S.~. Xm.K.I.8.7.6.6.m ",
": B 3 1 : L 9Xa.eXV.%XU.T.x. X4X6X6X6X6X6X6X6X6X6X6X6X6X6X6X6X6X6X6X6X6X1Xh.kXZ.L.'.V.7.3.} T F B r ",
", & , K 6 W y.y.eXM.%XD.S.H.J.1X6X6X6X6X6X6X6X6X6X6X6X6X6X6X6X6X6X6X6X6X*XH.jXM.XX~.m.1.e ;.;.e e -.",
"t t.r.+.+.y 5.5.7XM.%XC.A._.h.oX6X6X6X6X6X6X6X6X6X6X6X6X6X6X6X6X4X6X4X1X!.BXS.' %Xv.m.wXaXuX9X9XxX3 ",
"L p.u.a.3.8 +.o.q.Z.|.~.] #.v.z.,X6X6X6X6X6X6X6X6X6X6X6X6X6X6X6X4XZX6XoXB.Y.[ f.%Xm.' 7Xp.q.9.@.8.2 ",
"L u.L o.! > D 8X7X] H.XX| Z.{.H.z.1XZX6X6X6X6X6X6X6X6X6X6X6X6X6X6X6X,XG.VX%.( l.~.` b.I.y.0.8.2.2.v ",
"Q u.u.y.~ > , ..eXZ.] ] ] | S.{.J.G.,X6X6X6X6X6X6X6X6X6X6X6X6X6X6X1XJ.BXwX_ / ` ` S f.9.q.8.7.$.6.v ",
"Y y.y.@.O.3 6 Z %.] _ _ _ ( ] A.{.G.J.1X6X6X6X6X6X6X6X6X6X6XZX1X,XQ.(.wX#./ / / / / S N.w.7.7.6.I.n ",
"L y.9.9.! 9 ;.> C J 7X0XzX0X( ] Z.BX Xv.$X,X1X6X6X6X6X6X6X1X$X XH.VXT.( (  .%.7XS.8XjXgXA.{ T U M l ",
"D @.7.8.P e -.sX7XS.D.D.S.qX] j ] Z.kX@X Xx. X%X$X>X#X#XoXJ.B.{.lXI.] / ( aX7XA.M.M.Z.M.V : @ o o - ",
"> # 1 r ,.:.W sXS.c.>X$Xz.D.` h ' ' ] S.hX@XOX|.}.}. XXX;X[.VX{ ] ` ` ^ / aXA.}.,X}.n.' N.o.{ U n = ",
"t p.p.y.2.t sXjXA.OX:X3X XM.( a ^ ` / j j M.2XCXVXnXnXVXZX X' ^ j ^ ^ g h S.B.2XZX;Xk.b.) I H V v O ",
"o.9X9.O.Y 3 0XeXZ.$X3X:X|.M.j i a g S.jXhX*X2XZXZXZXZXZX5X3XOX].gX/ a s s S.x.<X3X;XL.S A C N v z + ",
"K 8.O...I 1 7XS.] v.OXOXL.' g p j s xXmXmXkX@X,X1X5X1X,X>X>X+XhXgXM.s j h Z.b. X;XoXm.j S v v z ; - ",
"  c x < 3 K q.] ( ` ' b.^ ^ g / Z.h #.qX%.jXxXjXlXmXBXlXjXgXqXqX#.g g n.a ] ` ` b.' j f.v : + l 4 :.",
"5 ;.<.;.-.y I._ g g g f g g f a a i j j f / ( h / ` ` j ` j s a f f i i i j g g f s f f.<.-.w 5 -.*.",
"t 3.a.5.y w 6.2.G $.$.[ +  .gX).^ G h s a s j i s j s i s a a i a d G  .G G G F v X { y.5.>.2.2.E , ",
"R aXq.o.F & < c B Z Z 2 ; E | _ _ U J H N h G _ _ ] _ G b G ( Y T Y Y T J F N m v X 0.4.O.} Y T H # ",
"D 8XX.! K 3 0 , B Z Z 2 3 L X.K J H B M c O D q.0.%.$.Y : , R Y I I B H N m v v k O 2.o.R T H N M + ",
"1 I R Y } O.{ 4 1.>.w.w.;.3 J F F M v x p O 3 9.8.7.$.{ : 3 F U U B c m M v v 2 ; : T I J H N M n + ",
"D D U T } U C M V >.hXP.Z L 8.B M v v x ; - m q.7.6.6.U : F P m z < p < v x x l 2 P { H N N M v x ; ",
": F   } { U C V l 1.R.1.>.Z ; n n 2 l < n - U 7.6.6.} n 4 U Z M z < + ; k ; l l w.>.n Z n M n v V ; ",
"6 &.w < V Z Z Z >.;.:.<.1.4 % - O X X - & 4 P C C M n Z ;., X X X X - ; - &.&.;.>.>.2     - O - 2 4 "
};
