/* XPM */
static char *out[] = {
/* columns rows colors chars-per-pixel */
"50 50 245 2 ",
"   c #193819",
".  c #223B1B",
"X  c #132E27",
"o  c #1C3B25",
"O  c #183728",
"+  c #183B37",
"@  c #263D29",
"#  c #263D33",
"$  c #2F580F",
"%  c #264618",
"&  c #334D1E",
"*  c #2F5414",
"=  c #365719",
"-  c #1E4427",
";  c #1A453A",
":  c #2A4728",
">  c #344828",
",  c #375629",
"<  c #284639",
"1  c #374A36",
"2  c #29563A",
"3  c #3A5539",
"4  c #3B6428",
"5  c #496C19",
"6  c #4B751B",
"7  c #52751A",
"8  c #465632",
"9  c #475839",
"0  c #486926",
"q  c #546D29",
"w  c #4A7525",
"e  c #567729",
"r  c #4B6636",
"t  c #556839",
"y  c #587638",
"u  c #667D38",
"i  c #2C244B",
"p  c #322E4F",
"a  c #332D56",
"s  c #3B335B",
"d  c #39355A",
"f  c #393766",
"g  c #303468",
"h  c #413B5C",
"j  c #433E66",
"k  c #1B4943",
"l  c #1A5445",
"z  c #254A42",
"x  c #294946",
"c  c #2C4B45",
"v  c #334D45",
"b  c #2D5446",
"n  c #355345",
"m  c #35534A",
"M  c #3B554C",
"N  c #3A594A",
"B  c #2B5454",
"V  c #3B5A54",
"C  c #376551",
"Z  c #3D4F69",
"A  c #394877",
"S  c #465A44",
"D  c #425B4B",
"F  c #4E5354",
"G  c #435C51",
"H  c #485B55",
"J  c #49654A",
"K  c #56664A",
"L  c #4D764C",
"P  c #4B6354",
"I  c #496657",
"U  c #566855",
"Y  c #556C5B",
"T  c #5B6D5B",
"R  c #59745A",
"E  c #67764A",
"W  c #677056",
"Q  c #62725D",
"!  c #6A765C",
"~  c #43456B",
"^  c #494768",
"/  c #524D6A",
"(  c #4C526E",
")  c #56556B",
"_  c #464B75",
"`  c #49567B",
"'  c #585977",
"]  c #60597E",
"[  c #556E62",
"{  c #5C7464",
"}  c #506F70",
"|  c #5A637B",
" . c #676F68",
".. c #637563",
"X. c #677867",
"o. c #6A7A64",
"O. c #6B7C6B",
"+. c #757966",
"@. c #737E6B",
"#. c #676978",
"$. c #697976",
"%. c #73777A",
"&. c #5A8B17",
"*. c #649018",
"=. c #71A01B",
"-. c #5D8524",
";. c #598735",
":. c #678C2D",
">. c #568453",
",. c #678445",
"<. c #6D8D50",
"1. c #5B8A6F",
"2. c #6B836A",
"3. c #788567",
"4. c #73826C",
"5. c #7A856C",
"6. c #678072",
"7. c #6C8373",
"8. c #738574",
"9. c #758877",
"0. c #7B8A73",
"q. c #7D8C7A",
"w. c #729671",
"e. c #7B917A",
"r. c #848B6B",
"t. c #8F9567",
"y. c #838C74",
"u. c #888A76",
"i. c #958D77",
"p. c #88927A",
"a. c #96957B",
"s. c #A3967C",
"d. c #99A27E",
"f. c #1F3D8E",
"g. c #1E4794",
"h. c #2D508B",
"j. c #254A95",
"k. c #295898",
"l. c #376A8F",
"z. c #376799",
"x. c #2D5AA4",
"c. c #2D63A9",
"v. c #3768A6",
"b. c #3974A9",
"n. c #2F70B2",
"m. c #3779BB",
"M. c #475B86",
"N. c #515A82",
"B. c #5A6889",
"V. c #5A7788",
"C. c #446695",
"Z. c #4E6E92",
"A. c #56799A",
"S. c #676B84",
"D. c #6A758A",
"F. c #767A87",
"G. c #667894",
"H. c #717D93",
"J. c #4679A5",
"K. c #4972A8",
"L. c #397EC1",
"P. c #38819B",
"I. c #3684BB",
"U. c #3F97B8",
"Y. c #6E8A8B",
"T. c #7B8885",
"R. c #63988F",
"E. c #66889B",
"W. c #778B99",
"Q. c #7E9299",
"!. c #5A88A4",
"~. c #548EAF",
"^. c #4388B1",
"/. c #4898B9",
"(. c #589BB6",
"). c #668FAC",
"_. c #6895AB",
"`. c #7A98A7",
"'. c #59A6B7",
"]. c #50ABBC",
"[. c #71AAAE",
"{. c #67A6B9",
"}. c #78A5B5",
"|. c #3B84C3",
" X c #3C89C8",
".X c #3E8DC9",
"XX c #3595C6",
"oX c #418ECC",
"OX c #489AC6",
"+X c #4295CF",
"@X c #539BC2",
"#X c #50B1CC",
"$X c #56B8D7",
"%X c #6DAFC4",
"&X c #78B6C5",
"*X c #65BEE0",
"=X c #57CFD9",
"-X c #5AC8D8",
";X c #74CACD",
":X c #68CAD8",
">X c #65D3D9",
",X c #53CDE5",
"<X c #59D8E9",
"1X c #66CAE4",
"2X c #6ADAE6",
"3X c #6DD1E8",
"4X c #76DAE4",
"5X c #5CE3ED",
"6X c #71E7ED",
"7X c #858888",
"8X c #899684",
"9X c #939B85",
"0X c #989D88",
"qX c #858B93",
"wX c #899898",
"eX c #959797",
"rX c #A19780",
"tX c #A69C83",
"yX c #B49E86",
"uX c #98A48C",
"iX c #8EA19D",
"pX c #9CA696",
"aX c #A8A58B",
"sX c #A5A998",
"dX c #B2AB97",
"fX c #ACB39B",
"gX c #B4B49C",
"hX c #859BA6",
"jX c #909FA5",
"kX c #88A6A8",
"lX c #96A6A6",
"zX c #8DB5B5",
"xX c #A6A8A2",
"cX c #A7B3A7",
"vX c #B6BAA2",
"bX c #B9BAA6",
"nX c #C5BBA1",
"mX c #93C5BD",
"MX c #B3C3B2",
"NX c #C3C3AA",
"BX c #CECBB0",
"VX c #8ABBC6",
"CX c #8DC4C7",
"ZX c #A7E2DD",
"AX c #92F1F1",
/* pixels */
"= 8 t t 8 @ 8 . 2 % % > : @ @ @ @ . % & , =.&.$ &.=.*.= % %   , 3 8 : . > 1 1 : & % %   * %   o   $ ",
"E aXs.s.0X9XrXS N 9 dXrXu.r.u.u.+.@ 8 s.a.6 y 3.<.*.0 uXT = E aXi.i.+.K 0Xy.5.5.O.@ = 3.2.8...Y n * ",
"! aXyXaXaXdX0XF 5 E tXyXs.i.i.u.+.# 9 aXa.3.p.0.3.Q W p.0.: +.a.r.<.p.5.u.0.5.@.T # w.L L o.Y I N O ",
"! yXdXgXfXdX0XK q E dXyXs.i.i.i.r.1 9 uXa.y.5.5.@.U J 9.2.@ J Q 3.p.r.5...@.@.O.Y : 1.0.e.X.G V < O ",
"t r.fXgXfXsXpXK 7 q +.+.W W K S 1 @ K p.a.y.1 Q 2.! o.o.3 % > 9.y.0.5.4.Q U ..{ G # ,.2.1.Y P # ; N ",
"K p.fXvXfXfXpXU 5 :.9 9 9 9 9 9 8 t 9 y.p.y.E y.y.0.0.9.O.> J 8X5.5.@.o.T o.o.4.3 & ;.R D n m < b >.",
"9 dXsXfXsXuXuXN = BXNXnXnXNXMXnX+.y ,.r.5.3.y.p.p.p.7Xe.%.1 K O.o.o.o.Q 0.X.{ Y G . *.t.T J J >.;.<.",
"9  .@.9.o.P S 1 8 NXbXbXbXbXvXfXW = t y.3.o.sXgXkX&X%XcXcX[ v O.....Y o.Q T U U P O q 3.<.W y w =.=.",
"5 = > & . & q 5 q gXgXbXbXvXvXfXQ 4 E p.uX9XT.cX%X{.;X{.xX$.pX8XD n < v 1 v 1 c < + u.bXa.9Xu.T 2.e ",
"6 t.s.i.i.s.s.s.t.nXbXNXbXbXlXfXR 3.uXfX[._.| wX{.{.{.'.Q.Z.'.kXiXY p.: @ @ Q 7XiXeXgXsXuX9X8Xe.7.2 ",
"t nXyXs.i.i.i.BXgXlX).~.wXsXF.eXuXsX[.=X>X>X| wX!.].'._.} _.>X>X].`.pXpX7Xs.xX!.~.A.qXW.wX9X7X8.{ < ",
"9 dXs.s.rXrXi.BXbX(.$X1X@XwXS.F.kX].4XCXzXlXD.S.W._._.E.A Q.iXzX;X:X[.qX#.dX!.1X<X1XA.H.qX8Xp.0.7.@ ",
"9 yXi.i.i.i.u.yXeX/.:X-X3XhXS.} ;X>XmXpX`.l.k.h.I.n.I.n.g.z.!.kXkX[.:XR.F.bX/.3X<X<XI.D.Y.9.e.9.7.2 ",
"1 tXi.i.u.u.u.dXeX@X$X:X#XhX` Z.[.Q.wXJ.k.g.x.m.I.I.I.L.n.g.g.c.A.G.wXwX#.xXE.1X1X1X).S.( v n < v : ",
"> +.i.u.u.u. .xXqXW.%X%XhXH.M.F.lXA.k.j.x. X+X+XXXXX+X+X+X.XI.c.k.l.hXwX#.qXqXG.{.).D.Z.} 9 8 , , 4 ",
"& > 1 S S 1 9 #.F.S.S.S.B.M.A D.!.z.j.I.+X+X+X+X+X+X+X+X+X+X+XXXm.j.K.qXF.' S.N.' N.N.C.T.u.+.4.o.@ ",
"7 7 t t t t q u ^ p p p d j F.G.z.j..X+X+X+X+X+X+X+X+X+X+X+X+X+X+XoXk.b.qX%.d d i a g #.+.+.K ..U < ",
"q aXgXtXrX0X9X& +.%.( ) %.wXW.v.f..X+X+X+X+X+X+X+X+X+X+X+X+X+X+X+X+X|.k.!.qX7X| B / A O.+.T F S H + ",
"E nXtXa.a.a.@.& +.F.E.!.qXlXJ.j..X+X+X+X+X+X+X+X+X+X+X+X+X+X+X+X+X+X+Xm.v.kXqX| P.| `  ...Q { U n X ",
"K aX9X9X9X8X@., 9XvX/.:XwXB.k.c.+X+X+X+X+X+X+X+X+X+X+X+X+X+X+X+X+X+X+XoXc.^.S.Z.=XE.E. .Y  .P G b k ",
"K 0X0X9X8Xp...3 pXwX#X;XxXK.f. X+X+X+X+X+X+X+X+X+X+X+X+X+X+X+X+X+X+X+X+XI.h.wXG.:X).E.| < < + O + k ",
"8 ! 9X8Xe.e.{ 1 NXW.>XzXjXv.c.+X+X+X+X+X+X+X+X+X+X+X+X+X+X+X+X+X+X+X+X+XoXj.`.qX#X'.Y.[ .       % = ",
"> 9 H T J R 3 t bXE.4XkXhXj.m.+X+X+X+X+X+X+X+X+X+X+X+X+X+X+X+X+X+X+X+X+X+Xc.}.qX/.#XD.V.r r E E K e ",
"5 7 7 6 e y 2.:.fX!.4XkX`.j.|.+X+X+X+X+X+X+X+X+X+X+X+X+X+X+X+X+X+X+X+X+X+Xm.{.eX'.-XD.A.T.o.p.p.y.R ",
"r a.3.:.<.:.<.:.sX(.:XhX_.j.oX+X+X+X+X+X+X+X+X+X+X+X+X+X+X+X+X+X+X+X+X+X+X X{.jX(.:XG.A.8Xo.0.p.y.T ",
"W 9Xd.0.t uXfXuX0X'.>XwX).j.oX+X+X+X+X+X+X+X+X+X+X+X+X+X+X+X+X+X+X+X+X+X+XL._.qX(.-XD.A.T.8Xq.4.2.R ",
"S 0.e.J { uXuXU wX!.<XQ.).j.oX+X#X+X+X+X+X+X+X+X+X+X+X+X+X+X+X+X+X+X+X+X+Xm.zXqX'.#XB.^.Y.8X9.8.6.S ",
"1 uXp.5.S < E uXqX!.>XW.B.j.m.+X+X+X+X+X+X+X+X+X+X+X+X+X+X+X+X+X+X+X+X+XoXx.}.S.(.#X} ^.Y.9.7.6.O.b ",
"< N n 1 o U 9Xa.eXZ.=XW.W.v.n.+X+X+X+X+X+X+X+X+X+X+X+X+X+X+X+X+X+X+X+X+XoXj.zXS.U.].B.Y.8.R [ N N r ",
", & , 9 6 E u.y.eXB.=XD.qXJ.v.oX+X+X+X+X+X+X+X+X+X+X+X+X+X+X+X+X+X+X+X+XI.K.kX#.OXU.C.{ e :.;.e y &.",
"q t.r.r.<.K 3.r.7XB.-XA.S.).x.m.+X+X+X+X+X+X+X+X+X+X+X+X+X+X+X+X+X+X+X.Xb.VXF.` -Xb.Z.8XsXuX9X9XpXJ ",
"H i.u.a.@.8 +.o.T.S.U./.] B.v.x..X+X+X+X+X+X+X+X+X+X+X+X+X+X+X+X+X+X+Xm.M.Y.} h.-XZ.A 7Xp.0.9.4.7.< ",
"K i.K ! Q > S p.qX| J.#X' S.}.J.f.oX+X+X+X+X+X+X+X+X+X+X+X+X+X+X+X+XoXv.CX%./ l./._ M.T.y.0.4.6.O.v ",
"W p.u.y.Q > , ..eXS.' ' ' | H.}.K.j.oX+X+X+X+X+X+X+X+X+X+X+X+X+X+XoXv.VXwX/ ( _ _ A h.9.q.9.4.6.7.v ",
"U y.0.5.O.9 w N %.' ) / ) / ] F.}.v.c.+X+XoX+X+X+X+X+X+X+X+X+XoXoXK.).qX#.^ ^ ^ ^ ^ A V.9.7.7.6.Y.b ",
"K y.9.8.Q 9 ;.: V F 8Xu.sX0X) / S.VX@Xc.oXoXoX+X+X+X+X+XoXoXoXn.K.CXW.) / #.@.7XT.7XlXhXY.[ [ I m l ",
"S @.7.7.L -.:.dX7XF.G.G.H.qX' j ' S.zX&X~.x.n.L.L. X XL.m.x.C.}.VXT.' / / sXqXD.V.B.S.B.B # # o o - ",
"> # 1 r <.e u xXF.b.1X$Xx.G.' s ` ` ' F.kX*X$X$X.X XI.#X,X{.mXM ) _ _ ~ ^ xXD.XX3XXXN.` } O.[ I b = ",
"t p.p.y.2.t sXxXD.$X5X5XOXZ.^ a ~ ~ ^ j ^ B.5XZXCXCXmXCXAXOX` ^ j A ~ s h F.C.2XAX,Xc.` ( P V M c O ",
"! uX9.O.U 8 0XeXS.*X<X5XOXB.j i a f F.kXkX:X6X4XAXAXAXAX6X5X,X_.hX^ a s s F.v.2X5X,XI.A Z V m c k + ",
"J 8.O.{ P 1 8XF.' b.$X$XI.' f a ^ s cXMXMXzX&X4X4X6X3X4X;X*X&XkXhXB.d ~ s S.` +X-X#XM.M.d b x k ; : ",
"o c < b 3 J 0.] _ j ` M.^ j g ~ S.a #.qXD.jXcXlXVXMXVXzXzXhXW.qXS.g s ' s ] ^ N.M.M.j h.Z : ; l 4 :.",
"5 ;.<.e -.y T.) j g f g g f f p a i j j s ^ / h / / _ j / j f a a g i i i h f f g g g A ,.-.5 w &.*.",
"r 3.d.0.t w 6.O.F $.$.} p  .hX`.^ F h s a s j i s h s i a a a i a d ) [ F F F V p O T 0.0.>.3.2.R 3 ",
"U sXy.@.J & < c N C C l ; R { ( ) P H H v h F ) / ] ) F v F F ) [ U Y Y H D M m z X 8.4.o.{ Y U H + ",
"S 8Xo.{ D 9 , 4 N I C 2 4 J X.P H G N m v O S 0.F.%.8.U & 2 [ U P P N D M m v c k O 4.O.{ U G M M + ",
"< P T U { O.Y 4 1.>.w.1.;.3 H G G m c x z X n 9.8.6.O.[ : 3 D P H m c n m v b z ; : U P H G m m b + ",
"S S I Y { I V V b >.kXR.C U O.D m c x z < + n e.7.6.$.I & N U n x z < < c z z l 2 L [ D V M m m x ; ",
"> D o 1.I I V B b 1.R.1.>.C ; b b k k < b - I 7.6.6.{ b 4 C I b x # k + k ; l b 1.>.C b b m b b B ; ",
"6 &.0 : V V C C >.;.=.<.1.4 % - O O O o & 4 L C V M m C ;., X X X X O ; - &.&.;.>.>., - o - O - - 4 "
};
