/* XPM */
static char *out[] = {
/* columns rows colors chars-per-pixel */
"50 50 248 2 ",
"   c #193819",
".  c #223B1B",
"X  c #132E27",
"o  c #1C3B25",
"O  c #183728",
"+  c #183B37",
"@  c #263D29",
"#  c #263D33",
"$  c #2F580F",
"%  c #264618",
"&  c #334D1E",
"*  c #2F5414",
"=  c #365719",
"-  c #1E4427",
";  c #1A453A",
":  c #2A4728",
">  c #344828",
",  c #375629",
"<  c #28463A",
"1  c #374A36",
"2  c #29563A",
"3  c #3A5639",
"4  c #3B6428",
"5  c #496C19",
"6  c #4B751B",
"7  c #52751A",
"8  c #465632",
"9  c #475839",
"0  c #486926",
"q  c #546D29",
"w  c #4A7525",
"e  c #567729",
"r  c #4B6636",
"t  c #556839",
"y  c #587638",
"u  c #657C38",
"i  c #2C244B",
"p  c #322E4F",
"a  c #332D56",
"s  c #3B335B",
"d  c #38345A",
"f  c #2F3367",
"g  c #393766",
"h  c #433D5C",
"j  c #433E66",
"k  c #1B4943",
"l  c #1A5445",
"z  c #264642",
"x  c #254A42",
"c  c #2C4B45",
"v  c #2C4C49",
"b  c #324D45",
"n  c #2D5446",
"m  c #355346",
"M  c #35534A",
"N  c #3B554C",
"B  c #3A5949",
"V  c #305353",
"C  c #3C5952",
"Z  c #376551",
"A  c #3C4D6B",
"S  c #3A4A78",
"D  c #465A44",
"F  c #425B4B",
"G  c #4B5052",
"H  c #435D51",
"J  c #485A54",
"K  c #49654A",
"L  c #56664A",
"P  c #4D764C",
"I  c #4B6354",
"U  c #496657",
"Y  c #566856",
"T  c #556C5B",
"R  c #5B6C5B",
"E  c #597559",
"W  c #67764A",
"Q  c #677056",
"!  c #62725D",
"~  c #6A765C",
"^  c #474769",
"/  c #4D516A",
"(  c #56556C",
")  c #474C76",
"_  c #49577B",
"`  c #585878",
"'  c #605D66",
"]  c #556D62",
"[  c #5C7464",
"{  c #50716F",
"}  c #5B647C",
"|  c #696F6B",
" . c #637563",
".. c #677867",
"X. c #6A7A64",
"o. c #6B7C6B",
"O. c #757966",
"+. c #727E6B",
"@. c #66687B",
"#. c #687775",
"$. c #73757B",
"%. c #5A8B17",
"&. c #649018",
"*. c #71A01B",
"=. c #5D8424",
"-. c #598735",
";. c #678C2D",
":. c #568453",
">. c #678546",
",. c #6D8D50",
"<. c #5B8C72",
"1. c #6B836A",
"2. c #788567",
"3. c #73816C",
"4. c #7A856C",
"5. c #6C8373",
"6. c #6A8276",
"7. c #738574",
"8. c #758877",
"9. c #7B8A73",
"0. c #7D8C7A",
"q. c #6E9874",
"w. c #7A917C",
"e. c #848B6B",
"r. c #8C9568",
"t. c #838C74",
"y. c #888A76",
"u. c #958D77",
"i. c #88927A",
"p. c #96957B",
"a. c #A3967C",
"s. c #99A27E",
"d. c #1F3D90",
"f. c #1E4794",
"g. c #304F8B",
"h. c #254895",
"j. c #285797",
"k. c #356187",
"l. c #35679A",
"z. c #2A5AA4",
"x. c #3058A3",
"c. c #2E63A6",
"v. c #366AA8",
"b. c #3876AA",
"n. c #2F6FB1",
"m. c #3678BB",
"M. c #495C86",
"N. c #505A83",
"B. c #4B638A",
"V. c #596888",
"C. c #456998",
"Z. c #527490",
"A. c #587998",
"S. c #676B85",
"D. c #687489",
"F. c #757A87",
"G. c #73768B",
"H. c #687994",
"J. c #476FA6",
"K. c #4778A6",
"L. c #377EC2",
"P. c #817F87",
"I. c #38809A",
"U. c #3684BB",
"Y. c #568F83",
"T. c #5B869C",
"R. c #798289",
"E. c #6E8A91",
"W. c #778B98",
"Q. c #7C9294",
"!. c #7FAA8E",
"~. c #4585AB",
"^. c #5A88A6",
"/. c #4A98B8",
"(. c #5390B0",
"). c #599DB7",
"_. c #658EAB",
"`. c #6A92AB",
"'. c #7A96A6",
"]. c #5AA5B8",
"[. c #52ACBB",
"{. c #67A1AC",
"}. c #79ACAF",
"|. c #68A4B7",
" X c #79A8B5",
".X c #3B83C3",
"XX c #3D8CC9",
"oX c #3792C8",
"OX c #3DA2CD",
"+X c #418DCB",
"@X c #4599C6",
"#X c #4295CF",
"$X c #49A6C5",
"%X c #4FB2D2",
"&X c #52B8D7",
"*X c #67B1C9",
"=X c #77B8C5",
"-X c #5CBDE2",
";X c #59C4CD",
":X c #59C6D8",
">X c #5BD4DE",
",X c #68CAD8",
"<X c #73CCD0",
"1X c #67D4DA",
"2X c #55D2E6",
"3X c #67C9E4",
"4X c #67D9E9",
"5X c #77D6E3",
"6X c #59E3F2",
"7X c #6FE8EE",
"8X c #868988",
"9X c #849383",
"0X c #8B9786",
"qX c #939B84",
"wX c #979D88",
"eX c #868B92",
"rX c #958F94",
"tX c #889798",
"yX c #949897",
"uX c #A19780",
"iX c #A69C83",
"pX c #AA9E92",
"aX c #99A48C",
"sX c #8EA09F",
"dX c #9BA596",
"fX c #A9A58B",
"gX c #A6A998",
"hX c #B2A994",
"jX c #ACB39B",
"kX c #B5B49B",
"lX c #879AA5",
"zX c #88A7A8",
"xX c #95A6A6",
"cX c #8CB4B5",
"vX c #A4A9A2",
"bX c #A8B3A8",
"nX c #B5BAA2",
"mX c #B8B9A5",
"MX c #A9BBB0",
"NX c #C5BBA1",
"BX c #91C4BD",
"VX c #B3C3B2",
"CX c #C3C3AA",
"ZX c #CECBB0",
"AX c #81BBC8",
"SX c #93BDC5",
"DX c #9CD4D1",
"FX c #90F0F1",
/* pixels */
"= 8 t t 8 @ 1 . < % . > > . @ @ @ . * . , *.%.$ 7 *.&.= % %   > 3 8 # . > 1 1 : & % %   $ %   o   5 ",
"W fXa.a.uXuXwXD N t hXiXy.y.y.4.O.@ 8 iXp.7 y 2.>.*.0 aXE = ,.fXu.u.O.L wXt.4.7.O.. , 2.5.1.[ T 2 % ",
"~ fXfXfXfXhXiXG 0 W iXa.a.p.u.y.O.8 9 fXp.2.i.t.4.! Q i.9.: X.u.e.,.i.2.i.4.4.+.R : q.P L 1.T I m O ",
"~ fXhXkXjXgXfXL q u hXhXa.u.u.u.O.# D fXqXe.4.+.+.Y K 9.o.: D ! 2.i.e.2.X.O.+.o.T : <.9.w.[ U C < O ",
"t e.kXkXjXjXaXI 7 q O.O.' Q L D 1 @ L i.p.t.3 ~ 1.X.~ X.m % > 7.i.4.4.3.~ I  .! J @ :.1.X.E I # l n ",
"L i.jXbXjXjXdXY 5 ;.9 9 9 9 9 r 8 t D e.i.e.L i.t.9.9.9.3.> L 9X4.3.3.o.R X.o.3.m & ;.P C M M < n ,.",
"8 kXgXjXgXaXaXD 0 CXZXZXNXNXCXmXO.t -.e.4.2.9.i.i.i.8X9X6.1 I O.X.X.X.! 4.X.[ T F . ;.r.E K K :.-.,.",
"8 | +.9...I D 1 , CXkXkXmXmXnXjXQ 0 L e.2.X.jXkXlX=X*XbXbX] b o... .T X. .R Y Y I O q 2.,.W y q &.*.",
"5 = > & . & q 5 q kXmXmXmXmXnXjXQ 0 W i.qXi.0XbX|.|.=X*XxX$.0X0XB n < 1 b b b < x O t.mXqXqXt.R 1.e ",
"5 r.a.u.u.u.a.p.r.NXNXVXmXmXxXgXR q.aXjX}.{.} tX].].=X*XeXZ.{.zXdXT i.1 @ D #.8XdXrXmXdXwXqX0X0.1.2 ",
"t NXiXa.u.u.a.ZXkXlX_.(.'.dXG.dXaXdX}.;X4X<X_ tX_.[.[.{.{ {.>X1X].'.aXaXP.kXvX^.(.A.tXW.yXqX0X7.[ < ",
"t hXa.a.uXuXu.ZXmX*X,X,X*XtX@.F.zX[.5X<XcXxXD.D.E._.`.E.S tXxX}.<X,X{.0X$.NXA.4X2X2XH.H.eX0Xt.8.8.# ",
"9 iXa.a.u.u.y.pXyX%X-X5X5XlX@.} ;X1XVXsX'.l.j.g.U.n.U.n.f.l.^.zXzX}.;X`.$.mX@X4X4X2XK.H.E.8.w.8.5.< ",
"8 pXP.u.y.y.y.hXvX#X-X,X%XtX_ Z.cXQ.sXb.j.d.z.m.U.U.U.m.n.f.f.n.^.D.tXtX@.hX_.3X4X3X`.Z./ b B < n : ",
"@ O.u.y.y.y.' pXeXeX*X*XlXH.M.R.xXA.j.f.z.XX#X#XoXOX#X#X#XXXm.c.j.l.lXtX@.rXP.H.|._.S.J.{ 9 8 , , 4 ",
"& > 1 9 9 1 9 $.S.S.S.S.V.M.S S.^.l.h.U.#X#X#X#X#XoX#X#X#X#X#XoXm.h.K.eXG.` S.N.` ` N.C.R.y.O.+.X.@ ",
"5 e q t t t q u G a a p s h D.H.l.j.XX#X#X#X#X#X#X#X#X#X#X#X#X#X#XU.j.K.tX@.d p p a f @.O.O.L R Y < ",
"q fXkXfXiXuX0X& | $./ ( $.tXW.v.d.XX#X#X#X#X#X#X#X#X#X#X#X#X#X#X#X#X.Xj.T.eXR.} V ( S O.O.R G L H + ",
"W NXiXp.p.i.3.& O.F.T.T.tXxXJ.h.XX#X#X#X#X#X#X#X#X#X#X#X#X#X#X#X#X#X#Xm.l.Q.R.V.I.} S |  .! [ T B X ",
"L pXqXqXqX0X3.> wXbX/.,XtXV.j.n.#X#X#X#X#X#X#X#X#X#X#X#X#X#X#X#X#X#X#X#Xc./.S.Z.>XW.T.#.Y [ T C c k ",
"t iXwX0X9Xi. .3 mXtX&X}.xXC.d.+X#X#X#X#X#X#X#X#X#X#X#X#X#X#X#X#X#X#X#X#XU.g.zXH.,XT.E./ < ; + O + ; ",
"8 ~ qX0X9X0.[ 3 CXW.4XcXxXc.c.#X#X#X#X#X#X#X#X#X#X#X#X#X#X#X#X#X#X#X#X#X+Xj.'.eX%X).E.] %       % = ",
"> D I Y L E 3 r CXT.5XzXlXh.L.#X#X#X#X#X#X#X#X#X#X#X#X#X#X#X#X#X#X#X#X#X+Xz. XeX[.*XG.Z.r 9 W W y e ",
"5 7 7 w e P ,.;.jX^.5XzX`.h..X#X#X#X#X#X#X#X#X#X#X#X#X#X#X#X#X#X#X#X#X#X#Xm. XeX[.&XD.T.8...p.i.t.[ ",
"0 p.r.y ,.;.>.;.dX|.,XtX`.h.+X#X#X#X#X#X%X#X#X#X#X#X#X#X#X#X#X#X#X#X#X#X#XL.|.lX(.,XH.T.0X2.9.i.0.R ",
"! wXqX9.y aXjXgXyX{.>XtX(.h.+X#X#X#X#X#X#X#X#X#X#X#X#X#X#X#X#X#X#X#X#X#X#Xm.`.eX/.:XD.^.Q.R.i.3.7.Y ",
"D 9.9.r ! aXaX1.tX(.>XQ.`.h.+X#X#X#X#X#X#X#X#X#X#X#X#X#X#X#X#X#X#X#X#X#X#Xn.cX8X).&XD.I.5.w.9.5.5.B ",
"1 aXi.9.B < Q aXeX^.4XW.V.h..X#X#X#X#X#X#X#X#X#X#X#X#X#X#X#X#X#X#X#X#X#X+Xx. XG.).[._ ~.6.8.5.5...n ",
": F m 1 : L qXp.yXZ.>XE.W.c.m.#X#X#X#X#X#X#X#X#X#X#X#X#X#X#X#X#X#X#X#X#X+Xh.cXD.U.[.Z.R.5.E T Z B r ",
", > , r 6 W t.t.rXV.:XD.eXK.c.XX#X#X#X#X#X#X#X#X#X#X#X#X#X#X#X#X#X#X#X#XU.K.xX} %XU.B.:.=.;.y e e &.",
"r r.e.O.,.L 2.e.8XV.:XZ.S._.z.m.#X#X#X#X#X#X#X#X#X#X#X#X#X#X#X#X#X#X#X+Xv.AX#.M.:XK.B.aXgXaXqXqXxXD ",
"L u.u.qX+.8 O...P.V.$X/.} V.J.z.XX#X#X#X#X#X#X#X#X#X#X#X#X#X#X#X#X#X#Xm.B.Q.` k.&XC.S 9Xi.0.8.3.7.< ",
"L y.L X.! > 9 R.8X} K.$X} @. XK.d.+X#X#X#X#X#X#X#X#X#X#X#X#X#X#X#X#X+Xx.cX#.( l./.) M.8X9.9.5.1.5.b ",
"Q y.y.t. .> , ..eX@.` ` } } G.|.J.h.+X#X#X#X#X#X#X#X#X#X#X#X#X#X#X+Xv.SXtX( ^ ) ) A g.8.0.7.5.5.5.c ",
"L t.t.4.o.8 w B $.( ( ( ( ( } @. XJ.n.+X#X#X#X#X#X#X#X#X#X#X#X+X+XJ. XW.( ^ ^ ^ ^ / S Z.8.6.5.5.w.v ",
"Y 9.8.7. .9 -.: F G 0XyXdXpX( ` @.SX+Xn.+X+X+X#X#X#X#X#X#X#XL.v.J.SXW.( / $.+.rXeX8XvX'.Y.] T U m l ",
"L o.6.5.E e ;.hXP.F.H.H.G.eX` j ` D.zX=X+Xc.n.L.L.XX.X.Xm.z.C. XSXF.( ^ ( gX8XD.V.V.S.V.V : # o O ; ",
"& # 1 r >.=.u bXP.b.3X&Xc.G.) j ) _ ` E.zX=X&X&XoXXX.X%X2X*XBX] ( ) ) ^ ( yXD.XX3XoXN._ S...] U n = ",
"t 0Xi.t.1.t gXdXD.&X6X>XoXV.^ a ^ ) ^ j ^ V.4XDXSXDXBXBXFX/._ ^ ^ A ^ g h F.l.4XFX2Xc._ A I C N v O ",
" .qX4.o.Y 8 wXrXS.-X6X2X%XV.j i a g F.xXzX,X6XFXFXFXFXFX7X6X&X|.'.^ a d h G.v.4X6X2XU._ A C N v x O ",
"K 7.o.[ I 1 y.F.` m.%X&XK.N.f p j s MXVXVXcX=X5X5X7X7X5X3X=X=XzX'.S.a j s S.N.+X3X%XM.) A n v z ; : ",
"o c c 2 m K y.} ) j _ M.) ^ f ^ S.h @.F.#.eXbXxXSXVXSXxXcXlXW.W.` f g ` s ` j N.M.M.j g.z ; + l 4 ;.",
"5 -.,.e =.y R./ j g j f f g g p a i j j g ^ / h ^ ) ) j ) j s a f f i i i j j g f f f S >.=.6 6 =.&.",
"r 2.s.9.t w 5.1.G #.#.{ p | lX'.^ G h s p s j i s h s i s a a i p ^ ' ] I G J F c X ' t.9.:.7.X.E , ",
"Y gXt.O.F & < c m K Z l ; T [ / ] J J J G d G ' ( ` ` G b G / ' Y Y T T J F N v c X 7.3.+.[ Y U J + ",
"D 0X..R K 9 4 , B U Z n 4 K o.I J H C M c X D 0.$.8.$.Y : , R Y Y J B F N M b v k O 1.o.R T H H M + ",
"> I R T [ ..U r <.:.q.<.-.3 J F H M v x z X 3 8.5.5.o.] : 3 F I J C c m M b x n ; : R U J H N M n + ",
"D F I T [ U C V n :.}.Y.P L 5.C N v c x ; + B 8.5.6.6.U : D P B b z + < c x l x 2 P T F C N M v k ; ",
": F O 1.U U C V l <.!.<.:.Z ; 2 n x k < n - U 6.5.6.[ x 4 K Z V z # k + k ; l n <.:.Z n n C v x V ; ",
"6 =.w : V Z Z Z :.-.;.,.<.4 % - O O X - & 4 P Z C N n Z -., X X X O O ; - %.%.-.:.:.,   o - - - 2 4 "
};
