/* XPM */
static char *out[] = {
/* columns rows colors chars-per-pixel */
"50 50 244 2 ",
"   c #193819",
".  c #223B1B",
"X  c #132E27",
"o  c #1C3B25",
"O  c #183728",
"+  c #183B37",
"@  c #263D29",
"#  c #263D33",
"$  c #2F580F",
"%  c #264618",
"&  c #334D1E",
"*  c #2F5414",
"=  c #365719",
"-  c #1E4427",
";  c #1A453A",
":  c #2A4728",
">  c #344828",
",  c #375629",
"<  c #28463A",
"1  c #374A36",
"2  c #29563A",
"3  c #3A5539",
"4  c #3B6428",
"5  c #496C19",
"6  c #4B751B",
"7  c #52751A",
"8  c #465632",
"9  c #475839",
"0  c #486926",
"q  c #546D29",
"w  c #4A7525",
"e  c #567729",
"r  c #4B6636",
"t  c #556839",
"y  c #587638",
"u  c #627B36",
"i  c #2F2A4E",
"p  c #332D56",
"a  c #3B335B",
"s  c #38345A",
"d  c #2F3367",
"f  c #393766",
"g  c #423C5C",
"h  c #433D66",
"j  c #1B4943",
"k  c #1A5445",
"l  c #264642",
"z  c #254A42",
"x  c #2C4B45",
"c  c #2C4C49",
"v  c #324D45",
"b  c #2D5446",
"n  c #355346",
"m  c #35534A",
"M  c #3B554C",
"N  c #3A594A",
"B  c #305353",
"V  c #3B5952",
"C  c #376551",
"Z  c #3C4D6B",
"A  c #394977",
"S  c #465A44",
"D  c #425B4B",
"F  c #4C5153",
"G  c #435C51",
"H  c #495C55",
"J  c #49654A",
"K  c #56664A",
"L  c #4D764C",
"P  c #4B6354",
"I  c #496657",
"U  c #566855",
"Y  c #556C5B",
"T  c #5B6C5B",
"R  c #59745A",
"E  c #67764A",
"W  c #677056",
"Q  c #62725D",
"!  c #6A765C",
"~  c #474669",
"^  c #524C69",
"/  c #4A546B",
"(  c #56556C",
")  c #474B75",
"_  c #49557B",
"`  c #585978",
"'  c #4E6D6E",
"]  c #556D62",
"[  c #5C7464",
"{  c #5A637B",
"}  c #686F6A",
"|  c #637563",
" . c #667967",
".. c #6A7A64",
"X. c #6B7C6B",
"o. c #757966",
"O. c #737D6B",
"+. c #676979",
"@. c #697776",
"#. c #73767A",
"$. c #5A8B17",
"%. c #649018",
"&. c #71A01B",
"*. c #5D8524",
"=. c #598735",
"-. c #688F28",
";. c #668539",
":. c #568453",
">. c #678446",
",. c #6D8C51",
"<. c #5B8C72",
"1. c #6A8369",
"2. c #788567",
"3. c #73826C",
"4. c #7A856C",
"5. c #6C8373",
"6. c #698375",
"7. c #738574",
"8. c #768877",
"9. c #7B8A73",
"0. c #7D8D7A",
"q. c #6E9874",
"w. c #7B917A",
"e. c #848B6B",
"r. c #8F9567",
"t. c #838C74",
"y. c #898A75",
"u. c #958D77",
"i. c #88927A",
"p. c #96957B",
"a. c #A3967C",
"s. c #99A27E",
"d. c #325187",
"f. c #284C92",
"g. c #2A5798",
"h. c #325A99",
"j. c #356086",
"k. c #366898",
"l. c #2F5CA2",
"z. c #3568A2",
"x. c #2F73AE",
"c. c #3A74A8",
"v. c #495D86",
"b. c #515983",
"n. c #4B638A",
"m. c #596889",
"M. c #4D7093",
"N. c #587898",
"B. c #666984",
"V. c #68758A",
"C. c #767A87",
"Z. c #72768B",
"A. c #687994",
"S. c #446BA6",
"D. c #4779A7",
"F. c #457BB5",
"G. c #817F87",
"H. c #38809A",
"J. c #3689BA",
"K. c #598A97",
"L. c #798687",
"P. c #6F8C94",
"I. c #778B98",
"U. c #7FAA8E",
"Y. c #4585AC",
"T. c #5887A6",
"R. c #5995A8",
"E. c #4787B8",
"W. c #558CB7",
"Q. c #4797B9",
"!. c #599CB5",
"~. c #618AA5",
"^. c #6A8FAC",
"/. c #6995AA",
"(. c #7997A7",
"). c #5AA5B8",
"_. c #51ABBA",
"`. c #70A6AD",
"'. c #69A4B8",
"]. c #79A8B5",
"[. c #3791C8",
"{. c #469AC5",
"}. c #5399C4",
"|. c #4AA5C3",
" X c #53B0CF",
".X c #58ABD3",
"XX c #56B7D6",
"oX c #69B0C5",
"OX c #77B8C5",
"+X c #63B8D8",
"@X c #5CBBE1",
"#X c #4EC2D6",
"$X c #5AC5D7",
"%X c #5BD5DE",
"&X c #68C7DA",
"*X c #73CCD0",
"=X c #67D4DA",
"-X c #58D0E7",
";X c #57D8E9",
":X c #6AC9E3",
">X c #68D8E7",
",X c #6ED1EA",
"<X c #75D9E9",
"1X c #5AE3F2",
"2X c #74E3EB",
"3X c #7AE2EF",
"4X c #6BECF3",
"5X c #7CE6F1",
"6X c #868A88",
"7X c #899685",
"8X c #939B84",
"9X c #979C88",
"0X c #868B94",
"qX c #889798",
"wX c #959798",
"eX c #A19780",
"rX c #A69C83",
"tX c #AB9F92",
"yX c #98A38C",
"uX c #9BA496",
"iX c #A9A58B",
"pX c #A5A998",
"aX c #B2A994",
"sX c #A9B397",
"dX c #ACB29C",
"fX c #B4B49B",
"gX c #859BA6",
"hX c #9099A1",
"jX c #88A6A8",
"kX c #96A6A6",
"lX c #8DB5B4",
"zX c #A5A7A1",
"xX c #A7B3A8",
"cX c #B6BAA2",
"vX c #B8B9A5",
"bX c #C5BBA1",
"nX c #91C4BE",
"mX c #B3C3B2",
"MX c #C4C3AA",
"NX c #CECBB0",
"BX c #81BBC8",
"VX c #94BDC5",
"CX c #9CD4D1",
"ZX c #90F0F1",
/* pixels */
"= 8 t t 8 @ 1 . < % % > > . > @ @ % % & , &.$.$ $.&.%.= % % % > 1 8 > . 1 1 1 : & % %   * %       5 ",
"E iXa.a.eXeX9XS N t aXrXy.y.y.#.o.@ 8 p.p.w y 2.,.%.0 yXU = ! iXu.p...K 9Xt.4.4.X.. = 2.1.7. .Y b % ",
"! iXiXiXiXaXrXF 0 E rXrXa.u.u.y.e.# 9 iXp.2.i.9.2.Q W i.9.: 1.u.e.,.t.4.t.4.9.O.Q : q.L L ..Y I n O ",
"! iXaXfXdXpXiXK q u tXaXeXu.u.u.o.# S iXp.e.4.3.O.U J 9.1.. J ! 2.i.e.4.! O.O.X.Y @ <.w.w.| H V < O ",
"t e.fXfXdXsXuXK 7 q o.o.W U K 9 8 @ K i.p.t.1 ! 1.......3 . > 7.i.4.4.3.! P | | H @ >.1.1.Y I # k 2 ",
"K i.dXdXdXsXuXU 5 -.9 9 F t 9 9 8 t S t.i.e.E t.t.4.9.8.1.1 J i.4.3.3.X.T ..X.3.v & -.R N m m < N :.",
"9 aXpXxXpXyXyXD 0 MXMXMXbXbXMXmXo.y E e.4.2.w.i.i.i.6X7XO.v K X.....X.R 9...T Y G . -.2.R J J :.=.,.",
"8  .O.9...G S 1 8 MXfXbXvXfXfXfXK 0 t e.2...pXfXgXOXoXxXxX] n X.| | T | ! T U U G o q e.,.W y w %.&.",
"5 = > > . & 8 7 q fXfXbXvXvXcXdXQ 8 L p.9X7X7XdX'.'.*X'.zX#.8X7XV b < v v 1 v l l # y.vXp.8Xt.Y 2.e ",
"5 r.a.r.u.a.a.a.r.bXfXmXvXvXkXsXT ,.yXxX`.`.{ qX).).oXOXI.M.).jXuXX.i.> @ # X.7XwX8XxXzX9X8X7Xi.6.2 ",
"t bXtXa.u.u.u.NXfXhX/.W.qXkXV.uXyXuXU.$X>X*X_ qXR._.'./.' /.=X=X).(.8XyXG.u.pXT.W.N.0XI.wX8X7X7.[ < ",
"t aXa.a.eXa.u.NXvXoX$X&X}.qX+.L.lX_.2X*XlXkXV.V.P.~./.~.A U.kX].*X&X`.U.#.vXT.:X-X-XA.P.I.7X0.8.7.@ ",
"9 rXG.a.a.u.y.tXwXXX:X>X,XgX+.{ oX=XnXuX(.k.g.d.x.J.J.x.f.k.T.gXjX].&XP.#.vXQ.,X>X-Xc.A.L.8.w.8.6.2 ",
"8 tXu.u.y.y.y.vXwX.XXX:X.XqX_ M.lXP.gXD.g.f.F..X&X+X$XXX|.l.f.x.T.V.qXqX+.zX~.:X;X,X(.m./ m N < x : ",
"@ o.u.y.y.G.W tX0X(.'.OXgXA.v.C.jXN.j.g.Q.:X<X3X5X5X5X5X3X<X+XJ.g.k.gXqX+.0X0X~.!.~.A.M.' 9 9 > , 4 ",
"& > 1 9 9 1 9 +.B.B.B.B.m.n.Z V.T.z.k.&X5X5X5X5X5X5X5X5X5X3XZX<X.Xh.D.0XG.` B.` ` ` b.S.L.y.X.O...@ ",
"7 e q t t t q u F s p p a g Z.N.k.c.<X5X5X5X5X5X5X5X5X5X5X5X5X5X5X:Xz.H.qX+.s p i p d #.o.o.K Q T < ",
"q rXfXiXrXrX7X& } +.^ ( #.0XI.z.h.<X5X5X5X5X5X5X5X5X5X5X5X5X5X5X5X5X:Xh.T.qXL.+.B ^ A } o.U F K D + ",
"E bXrXp.p.i.3.& o.G.K.K.qXkXD.h.,X5X5X5X5X5X5X5X5X5X5X5X5X5X5X5X5X5X5X.Xc.jX0Xm.c.{ _ Q Q Q [ U n X ",
"K tX9X8X8X7X3.> 8XxX_.&XqXm.h.}.ZX5X5X5X5X5X5X5X5X5X5X5X5X5X5X5X5X5X5X<XF.Y.B.M.$XI.K.@.T [ U V b j ",
"t 9X9X7X7Xt. .3 dXqXXX*XkXS.f.,X3X3X5X5X5X5X5X5X5X5X5X5X5X5X5X5X5X5X5X5X&Xd.qXP.=XT.P./ - ; + + + j ",
"8 ! 9X7Xi.0.[ 3 MXI.,XjXkXz.W.3X5X3X5X5X5X5X5X5X5X5X5X5X5X5X5X5X5X5X5X5X,Xh.(.0X X!.P.] :       % = ",
"> 9 P U J R n t MXK.<XjXgXf..X5X5X5X5X5X5X5X5X5X5X5X5X5X5X5X5X5X5X5X3X3X<XE.].0X_.oXV.N.8 r E E K e ",
"5 e 7 5 e L ,.-.dXK.<XhX^.f.:X<X5X5X5X5X5X5X5X5X5X5X5X5X5X5X5X5X5X5X5XZX3X.X'.0X_.$XV.N.0...i.i.t.R ",
"0 p.2.;.;.;.,.;.pX!.&XqX/.g.,XZX5X5X5X5X5X5X5X5X5X5X5X5X5X5X5X5X5X5X5X5X5X+X'.hX!.&XA.N.7XX.9.i.t.T ",
"Q yXyX9.y yXsXyXwX!.=XqXW.g.,X5X5X5X5X5X5X5X5X5X5X5X5X5X5X5X5X5X5X5X5X5X3X+X^.qXQ.$XV.T.L.7Xt.7.8.L ",
"S 0.0.r R yXyXE qXR.-XqX^.f.:X5X5X5X5X5X5X5X5X5X5X5X5X5X5X5X5X5X5X5X5X5X3X}.BX0X).XXm.Y.I.i.8.5.5.N ",
"1 9Xi.4.J 1 U yX0XT.=XP.m.f.+X5X5X5X5X5X5X5X5X5X5X5X5X5X5X5X5X5X5X5X5X5X<XF.gXZ.!._.{ Y.6.q.5.1. .n ",
": D n < o U 8Xu.wXM.%XP.I.k.}.5X5X5X5X5X5X5X5X5X5X5X5X5X5X5X5X5X5X5X5X5X<Xg.lXB.J._.m.P.7.[ Y C N r ",
", & , r 6 >.y.t.wXm.$XV.I.D.F.<X5X5X5X5X5X5X5X5X5X5X5X5X5X5X5X5X5X5X5X5X&XD.jX{  XJ.n.:.*.*.y e e *.",
"t r.e.2.! E 4.4.6Xm.#XN.B.^.l..X5X5X5X5X5X5X5X5X5X5X5X5X5X5X5X5X5X5X5X3XW.BXL._ $Xc.M.wXpXyX8X8XuXJ ",
"S u.y.p.2.8 o...L.B.|.Q.{ { S.l.,X5X5X5X5X5X5X5X5X5X5X5X5X5X5X5X5X5X5X.Xn.L.` j.#Xn.A 7Xi.0.8.3.7.< ",
"U u.K ! Q > S w.6X` D.|.{ B.].D.l.<X3X3X3X3X5X5X5X5X5X5X5X5X5X5X5X5X,XS.lX@.( k.Q._ j.6Xw.4.3.5.X.v ",
"W i.t.t.! > ,  .wXB.` ` ` +.Z.`.F.S.<XZX5X5X3X3X5X5X5X5X5X3X5X5X5X,XF.BXqX( ~ ) ) f d.8.w.7.5.6.5.c ",
"T t.t.4...3 w N #.` ( ^ ^ ^ ` B.'.S.F.,X5X3X3XZX5X5X5X5XZX3X5X3X:XE.(.qX` ^ ~ ~ ~ ~ A V.w.6.6.5.L.b ",
"K 9.8.7.[ 9 ;.: V H 8XwXpX9X( ` B.VX}.c.@X,X3X3X5X5X5X5X3X<X:XE.D.VXI.( ^ @.O.6X6X0XkX(.K.Y Y I m k ",
"S O.6.5.L e -.aX6XZ.A.A.C.0X` h ` V.jX*XW.z.{.XX@X:X&X+X.XF.S.].nXC.` ~ ^ pX0XZ.V.m.B.m.V : @ o o - ",
"> # 1 r >.;.E dXC.x.:XXXl.A.^ f _ _ ` Z.jXBX.X X[.[.[.|.-X'.nX' ( ) ) ~ ^ pXV.[.,X[.v._ {  .] I b = ",
"t i.i.t.,.t pXwXV.XX1X%X{.m.) p ~ ) ~ h ~ m.;XZXVXCXnXnXZX{.` ~ ~ A ~ f g C.S.>XZX-Xl._ / I V V c O ",
"..8X9.X.Y 9 9XwXB.@X1X;X Xm.f i p f C.kXjX&X>XZXZXZXZXZX4X1XXX`.qX~ p p a Z.k.>X1X-XJ.A Z G m c j + ",
"J 7. .[ P 1 i.C.` c. XXXJ._ f p ~ g xXmXxXBXOX<X,X2X,X<X<X+XOXgX(.B.p h g B.b.{.-X.Xb.d.s B c l ; : ",
"o x z 2 3 J 8.` ) ) _ v.~ ~ d ~ B.p +.0X#.kXxXhXlXmXVXlXkXgXI.0XB.d f ` p b.h ) v.) h d.c : ; k 4 -.",
"5 =.,.y *.y L.( h f f f f f f p p i h h a ~ ^ g ) ^ ) h ~ h g p p d i i i h h f d d d d.>.*.5 6 *.%.",
"r 2.s.4.y q 6.X.F @.@.' + @.gXI.~ F g a p f h i a f a i a p p i p f H } F F H M c X T t.4.:.3.1.R , ",
"U pXt.o.D & < n N C C k ; R { / ( P P G M g F ( ( ` ( F v F F ( ] U U Y H D M m c X 7.3.3.| Y Y H + ",
"S 7X..[ D 9 4 , 3 I C 2 3 K  .K H G N m x O S 8.9.8.#.Y > 2 ] U U H N D M m v c j O 1...[ P G M B + ",
"> P T U R 1.R 3 <.:.q.<.=.3 H D V M c z i O 3 9.7.6.X.' : 3 D I I N x v n v z k ; : T P G G M m b + ",
"D S I Y [ I V N B :.jXK.L J 7.N m x x l j - N 8.6.6.X.I : r Y b z i l < c z z b 2 L ] G M M m c b ; ",
"> N o  .I C V B B <.U.<.:.4 ; b z k z < b - I 6.6.6.[ 2 4 V C N < < ; ; ; ; k k <.:.k N n m b c B ; ",
"$.7 w ; B I C C :.=.-.:.q.4 - - O O O o & 4 L V B N b I =., X X X O O ; - $.$.=.:.,.2 - o - o - - 4 "
};
