/* XPM */
static char *out[] = {
/* columns rows colors chars-per-pixel */
"50 50 242 2 ",
"   c #193819",
".  c #223B1B",
"X  c #132E27",
"o  c #1C3B25",
"O  c #183728",
"+  c #183B36",
"@  c #263D29",
"#  c #263B37",
"$  c #2F580F",
"%  c #264618",
"&  c #334D1E",
"*  c #2F5414",
"=  c #365719",
"-  c #1E4427",
";  c #1A453A",
":  c #294728",
">  c #344928",
",  c #375629",
"<  c #284639",
"1  c #374A37",
"2  c #29563A",
"3  c #3A5538",
"4  c #3B6428",
"5  c #496C19",
"6  c #4B751B",
"7  c #52751A",
"8  c #465632",
"9  c #475839",
"0  c #486A27",
"q  c #546D29",
"w  c #4A7525",
"e  c #567729",
"r  c #4B6636",
"t  c #556839",
"y  c #587638",
"u  c #667D39",
"i  c #2C244B",
"p  c #302950",
"a  c #322D56",
"s  c #39345A",
"d  c #3B345C",
"f  c #2F3467",
"g  c #383766",
"h  c #433A58",
"j  c #433D65",
"k  c #1B4943",
"l  c #1A5445",
"z  c #284A45",
"x  c #2C4B45",
"c  c #334D45",
"v  c #2D5446",
"b  c #355345",
"n  c #34534A",
"m  c #3B554C",
"M  c #3A5949",
"N  c #2F5057",
"B  c #3B5A53",
"V  c #376551",
"C  c #3C4E6B",
"Z  c #3A4977",
"A  c #465A44",
"S  c #425C4C",
"D  c #4C5151",
"F  c #435D51",
"G  c #4A5A56",
"H  c #49654A",
"J  c #56664A",
"K  c #4D764C",
"L  c #4B6354",
"P  c #496657",
"I  c #566855",
"U  c #556C5B",
"Y  c #5C6D5B",
"T  c #597659",
"R  c #67764A",
"E  c #677056",
"W  c #62725D",
"Q  c #6A765C",
"!  c #44456C",
"~  c #494868",
"^  c #524D69",
"/  c #47556B",
"(  c #55556A",
")  c #474B75",
"_  c #4A567A",
"`  c #565878",
"'  c #625E7A",
"]  c #4F6F6C",
"[  c #576C63",
"{  c #5C7464",
"}  c #59637B",
"|  c #696C6D",
" . c #637563",
".. c #677867",
"X. c #6A7A64",
"o. c #6B7C6B",
"O. c #757866",
"+. c #727E6B",
"@. c #66697A",
"#. c #687772",
"$. c #73757C",
"%. c #5A8B17",
"&. c #649018",
"*. c #71A01B",
"=. c #5D8424",
"-. c #598735",
";. c #678C2D",
":. c #568453",
">. c #688546",
",. c #6D8D50",
"<. c #5B8C72",
"1. c #6B836A",
"2. c #788567",
"3. c #73816C",
"4. c #7A856C",
"5. c #678072",
"6. c #6C8373",
"7. c #738573",
"8. c #768877",
"9. c #7B8A73",
"0. c #7D8D7B",
"q. c #739578",
"w. c #80AE19",
"e. c #848B6B",
"r. c #8F9467",
"t. c #838C74",
"y. c #888976",
"u. c #958D77",
"i. c #88937A",
"p. c #96957B",
"a. c #A3967C",
"s. c #97A37D",
"d. c #203F91",
"f. c #1D4693",
"g. c #30508D",
"h. c #244894",
"j. c #275597",
"k. c #356287",
"l. c #356799",
"z. c #2C59A5",
"x. c #2D63A8",
"c. c #3568A7",
"v. c #3675AA",
"b. c #346BB4",
"n. c #2C72B0",
"m. c #377ABA",
"M. c #485B84",
"N. c #505983",
"B. c #506B8F",
"V. c #596889",
"C. c #487696",
"Z. c #577999",
"A. c #676A84",
"S. c #687589",
"D. c #777A87",
"F. c #72758C",
"G. c #667994",
"H. c #4A70A3",
"J. c #4678A8",
"K. c #397FC2",
"L. c #807F8C",
"P. c #3A839D",
"I. c #3B85BC",
"U. c #598A97",
"Y. c #788689",
"T. c #718D96",
"R. c #788A98",
"E. c #7CA896",
"W. c #5785A6",
"Q. c #5997A9",
"!. c #4B89B1",
"~. c #4898B9",
"^. c #599AB6",
"/. c #638CA5",
"(. c #6996AB",
"). c #6A96AD",
"_. c #7897A6",
"`. c #55ADB3",
"'. c #59A4B8",
"]. c #74A8AB",
"[. c #69A6B7",
"{. c #7BA9B5",
"}. c #3B83C3",
"|. c #3E8BC9",
" X c #3A96C8",
".X c #418ECB",
"XX c #4599C5",
"oX c #4295CF",
"OX c #5A9FC2",
"+X c #4AA5C3",
"@X c #4DB3D2",
"#X c #55B8D7",
"$X c #6FB6C7",
"%X c #59C7D8",
"&X c #5AD4DD",
"*X c #67CAD7",
"=X c #6FD0D4",
"-X c #51CDE6",
";X c #59D5E7",
":X c #67C8E3",
">X c #6BD8E6",
",X c #75D8E3",
"<X c #5CE7F1",
"1X c #71E8EF",
"2X c #858689",
"3X c #839382",
"4X c #8B9583",
"5X c #8C9788",
"6X c #939B85",
"7X c #989D88",
"8X c #868B93",
"9X c #958F94",
"0X c #879596",
"qX c #8B9B9A",
"wX c #959998",
"eX c #A19780",
"rX c #A69C83",
"tX c #A79E95",
"yX c #99A48C",
"uX c #99A596",
"iX c #A8A58B",
"pX c #A6AA98",
"aX c #B2A994",
"sX c #ABB39C",
"dX c #B4B49B",
"fX c #8599A4",
"gX c #9098A0",
"hX c #89A6A9",
"jX c #97A5A5",
"kX c #8CB4B3",
"lX c #A8B1A6",
"zX c #B6BAA3",
"xX c #B8B9A5",
"cX c #C5BBA1",
"vX c #95C4BD",
"bX c #B3C2B2",
"nX c #C3C3AA",
"mX c #CECBB0",
"MX c #83B8C5",
"NX c #95BDC5",
"BX c #8CCCD1",
"VX c #96F7F6",
/* pixels */
"= 8 t 9 8 > > . < % % > @ . @ @ @ % % & , *.%.$ 7 w.&.$ % % % > 3 8 @ @ > 1 1 : & % %   * % o     5 ",
"R iXa.a.a.eX6XD b t aXrXu.u.y.y.O.@ 8 p.p.6 y 2.>.&.0 yXY = R iXu.u.O.J 7Xt.4.7.O.. = 2.1.3.{ U v % ",
"Q iXiXaXiXaX7XJ 0 R rXrXa.u.u.y.O.1 9 iXp.2.i.t.4.W Y 4X9.: +.p.e.,.i.2.y.2.4.3.W : q.K K X.U L M O ",
"Q iXaXdXsXpXrXI q u aXaXa.u.u.y.e.# A iXp.t.4.+.3.I H 9.1.: A W 2.i.e.4.X.3.+.o.U @ <.q.0. .L B < - ",
"J 2.sXzXsXsXuXJ 7 q E O.E E J A 1 @ J i.p.t.8 W 3.Q X...3 % : 9.y.9.4.3.W J  .{ G @ ,.5...T L # k 2 ",
"t u.sXsXsXpXuXI 7 ;.9 9 9 9 9 9 8 q 9 t.i.t.K i.t.9.9.8.o.1 H i.2.2.+.X.Y X.o.3.c & ;.T B n n ; v :.",
"9 dXpXsXpXyX7XS 8 nXnXcXcXnXnXxXO.y ;.e.4.2.9.p.i.3X3X3X8.< L O.o.o...W 9...W Y F . ;.,.T H H :.-.,.",
"8 | +.9...L A 1 8 nXxXxXxXxXzXdXJ 8 J t.2.X.pXdX{._.$XlXlX| b o. . .U X. .Y I P F o q e.,.R y q *.*.",
"5 = > > . & 0 5 q dXdXcXzXzXsXsXW 4 K yX6X4X3XlX[.[.=X[.pX$.7XyXB v < c c 1 c c b # y.cX6X6Xt.Y 1.e ",
"6 r.a.r.u.a.a.a.r.cXxXxXzXxXjXsXW s.yXsX].[.} qX`.[.Q.$XR.C.[._.uXo.5X> @ A +.5XuX5XlXjX7X6X3Xi.1.< ",
"t cXrXa.a.u.u.mXxXgX^.^._.pXS.uXyXuX].&X,X=X_ 0XQ.`.Q.[.` `.*X>X`._.uXpXL.iXjXW.!.Z.8XR.wX6X3X7.T < ",
"t aXrXa.u.a.u.mXxXOX*X#XOX0X@.Y.kX`.,XMXkXjXA.S.T.(.(.G.C 0XuX].=X*X].0X| cXW.:X-X:XZ.Y.R.5X0.0.8.< ",
"9 rXa.u.u.u.y.aXwX@X:X:XBXhX@.} %X=XvXuX_.l.j.h.I.n.n.n.j.l.!.hXhX].%XT.F.xX~.,X<X-X!.G.Y.8.0.8.6.< ",
"1 tXu.u.y.y.2XaXgX~.*X#X@X_.N.B.kXY.fXl.j.d.x.m.I.}.}.K.x.f.f.c.W.S.0XqX@.tX/.:X;X:X).V./ b b < b : ",
"> O.u.u.y.y.E tX9XR.[.$X_.G.M.D.hXZ.j.h.x.|.|.oX X XoXoXoX.XI.z.h.l.fX9X@.9X8X/.OXG.A.B.] 9 8 > , 4 ",
"& > 1 1 D 1 9 @.A.A.A.A.V.M.g G.W.l.h.I.oXoXoXoXoX XoXoXoX X X Xm.j.J.R.D.` N.' N.` N.H.Y.y.+.3...@ ",
"5 e t t t t t ;.D a a p a ! D.G.l.j.|.oXoXoXoXoXoXoXoXoXoXoXoXoXoX}.z.v.0X$.h a i p a #.O.O.D E Y < ",
"7 iXdXrXeXeX4X& | D.( ( $.0XR.x.d..XoXoXoXoXoXoXoXoXoXoXoXoXoXoXoXoX}.j.W.2XY.@.N ` Z | O.Y J G S + ",
"R cXrXp.6Xp.+.& Q L.U.U.0XqXJ.h.|.oXoXoXoXoXoXoXoXoXoXoXoXoXoXoXoXoXoXm.l.hXR.} v.@.M. .W W { P m X ",
"J tX7X6X6Xi.3.> 7XlX'.=XqXB.j.b.oXoXoXoXoXoXoXoXoXoXoXoXoXoXoXoXoXoXoX.Xx.!.F.C.%XR.U.#.Y { I P x k ",
"t 7X7X4X3Xi. .3 xX0X#X{.jXH.d.|.oXoXoXoXoXoXoXoXoXoXoXoXoXoXoXoXoXoXoXoX}.g.qXG.*XQ.U./ < < + O + l ",
"9 O.6X4Xi.0.{ 3 nXT.,X{.gXc.x.oXoXoXoXoXoXoXoXoXoXoXoXoXoXoXoXoXoXoXoXoX|.g.(.8X@XQ.Y.[ .       % $ ",
"> A L I J T b r xXU.,XkXfXh.m.oXoXoXoXoXoXoXoXoXoXoXoXoXoXoXoXoXoXoXoXoX Xx.{.8X'.$XS.C.r r J R J q ",
"5 7 7 6 e K ,.;.aXQ.,XhX).h.}.oXoXoXoXoXoXoXoXoXoXoXoXoXoXoXoXoXoXoXoXoXoXm.[.8X'.%XG.Z.0.X.p.i.t. .",
"0 p.2.=.,.;.,.;.tX^.*XqX).h..XoXoXoXoXoX@XoXoXoXoXoXoXoXoXoXoXoXoXoXoXoXoXK.[.gXQ.*XG.W.5Xo.9.i.0.T ",
"E 7XyX9.y yXsXyXwX^.*XqX!.h..XoXoXoXoXoXoXoXoXoXoXoXoXoXoXoXoXoXoXoXoXoXoXm.).0X~.%XS.U.Y.i.0.7.3.I ",
"A 9.0.r T yXyX3.0XQ.&XR.).h..XoXoXoXoXoXoXoXoXoXoXoXoXoXoXoXoXoXoXoXoXoXoXb.kX2X^.#XV.!.Y.0.8.6.1.3 ",
"1 wXi.9.A 1 Y yX0XU.>XT.V.g.K.oXoXoXoXoXoXoXoXoXoXoXoXoXoXoXoXoXoXoXoXoX.Xz.{.F.'.~._ !.6.q.6.1.5.b ",
": A c c o J 7Xp.9XZ.&XT.R.x.m.|.oXoXoXoXoXoXoXoXoXoXoXoXoXoXoXoXoXoXoXoX|.g.kXS.+X+XZ.Y.1.{ U F v r ",
", & , r w R t.t.9XB.%XS.2XJ.b.|.oXoXoXoXoXoXoXoXoXoXoXoXoXoXoXoXoXoXoXoX}.J.hX} @XP.B.K e ;.-.e -.;.",
"t r.e.2.2.J 2.e.2XV.%XC.A.).z.b.oXoXoXoXoXoXoXoXoXoXoXoXoXoXoXoXoXoXoX.Xc.MXD._ -XJ.B.0XpXyX6X5XuX9 ",
"J i.e.p.O.8 O.X.Y.A.+X~.` } H.z..XoXoXoXoXoXoXoXoXoXoXoXoXoXoXoXoXoXoXv.H.Y.` k.@XM.Z 3Xi.9.9.7.8.< ",
"J y.J O.W > A i.2X` C.@X} A.hXJ.d.|.oXoXoXoXoXoXoXoXoXoXoXoXoXoXoXoX.Xc.kX#.^ l.!.Z k.0.t.9.1.1.1.x ",
"E y.y.9.Q > ,  .9XA.` ` ` ` D.$XH.z.|.oXoXoXoXoXoXoXoXoXoXoXoXoXoX.Xc.NX0X^ ) / ) C g.Y.0.7.6.6.6.x ",
"I t.t.4.o.3 w U #.' ( ^ ^ ^ A.F.[.H.b.oXoXoXoXoXoXoXoXoXoXoX.X.X.XJ.).qX@.~ ~ ~ ~ ~ Z S.q.6.6.6.Y.v ",
"J 9.8.8.{ 9 -.: B G 9Xt.pXtX` ^ A.NX!.c.K.oXoXoXoXoXoXoXoX.XK.b.H.BX8X^ ^ $.9.8X8X2XwX_.S.[ [ P n l ",
"A +.6.6.K e ;.aX2XD.Z.G.D.L.` j ` S.hX$XW.z.b.K.K.K.}.I.m.x.B.{.NXS.` ! ^ pX8XS.V.V.V.V.N @ # o o - ",
"& # 1 r >.=.u xXD.v.:X*Xx.G.^ g ) _ ` F.hX=X#X-XoX|. X@X;X'.BX[ ( ) ) ! ^ tXA. X$X XN._ #.<.[ P v = ",
"t p.i.0.2.t pXwXS.#X-X<XXXV.) p ! ) ! ! ^ V.>XBX].kXkX{.1XXX` ~ ~ ! ! d h D.l.>X1X-Xx._ / L B n z O ",
"X.6X8.o.U 3 7X9XA.#X;X-X@XV.! i a g Y.jXhX*X1X,XVXVXVXVX1X<X-X].fX~ a s s F.c.1X<X&XI.Z C F n x z + ",
"H 8.o.{ L 1 4XF.` b.#X%X!._ g a ~ d lXbXbXkX$X,X,X1X,X,X:X$XkXhX0XV.a ~ d A.N..X:X@XN.Z N v z z < - ",
"o < z 2 b H t.` ^ ! _ M.g ) f ~ A.d @.D.Y.0XlXjXlXNXNXhXkXfXR.R.V.g g ` d ` j N.M.) j g.s : + l 4 ;.",
"5 -.,.y =.y 3X^ j g g f f g d s a p j j d ~ ^ d ) ) ) j ! j g a a f i i i j g g f g f g.,.=.6 w =.&.",
"r 2.s.e.t w 5.1.G #.#./ p #.fXR.~ G h s p g j i d j d i d a a p a ~ ( [ I D G m N X Y t.4.:.1.1.T , ",
"Y pX9.O.S & < x M V V ; ; U } G } L S G D # D ' ( ^ ^ D m D ( ( [ I I U F S m n x X 7.3.+. .U U G + ",
"A 4XX.{ H 9 4 , M V V V 4 K ..I L S m c z X A 0.+.+.o.[ & 3 Y I L L M S m m c x k O 3...Y P F m N + ",
"1 L Y I T ..T 3 <.:.q.<.-.3 G S B m x z p O 9 8.7.6.#.] : 3 S P L V c c n x z 2 ; : U P F B m n v ; ",
"A M L U { P B B n :.E.U.K J 6.B n x z z ; ; b q.6.5.5.P : A K v z < i < x z z l 2 K [ S F m n c z ; ",
": S o 5.P P B N V ] E.<.:.V ; l v < l < b : P 5.1.#.{ v 4 L V n < ; ; + k ; l v <.:.V v v n v x v k ",
"6 %.0 : B V V V K -.*.:.<.w % - O O X - : 4 K V B n v V -., X X X O O ; - %.%.-.:.:., - o - O - - 4 "
};
