/* XPM */
static char *out[] = {
/* columns rows colors chars-per-pixel */
"64 64 238 2 ",
"   c #0E060E",
".  c #0C0C0E",
"X  c #0D120E",
"o  c #0A0C13",
"O  c #0A0B19",
"+  c #1C0F10",
"@  c #0E1313",
"#  c #0E121B",
"$  c #121414",
"%  c #1A1314",
"&  c #141B14",
"*  c #181C17",
"=  c #14151A",
"-  c #151C1C",
";  c #1A1D1D",
":  c #250D0A",
">  c #29130B",
",  c #3A180C",
"<  c #271C19",
"1  c #351B13",
"2  c #1B2315",
"3  c #1A2717",
"4  c #1B2E11",
"5  c #1A221C",
"6  c #262919",
"7  c #222B1C",
"8  c #33231E",
"9  c #25331C",
"0  c #263818",
"q  c #2B3B1D",
"w  c #37341A",
"e  c #150E25",
"r  c #0E1427",
"t  c #171727",
"y  c #151921",
"u  c #1A1E21",
"i  c #171736",
"p  c #261B23",
"a  c #251D38",
"s  c #1C2224",
"d  c #1F2428",
"f  c #232224",
"g  c #282A25",
"h  c #21262A",
"j  c #23292D",
"k  c #293522",
"l  c #2E3B23",
"z  c #272B33",
"x  c #392D31",
"c  c #451D0C",
"v  c #4B210D",
"b  c #53240D",
"n  c #5A290D",
"m  c #513414",
"M  c #632E0E",
"N  c #69320F",
"B  c #6D3711",
"V  c #743910",
"C  c #48392E",
"Z  c #2B4717",
"A  c #344B19",
"S  c #295D10",
"D  c #355619",
"F  c #36770C",
"G  c #3B6A16",
"H  c #3C7613",
"J  c #2F4122",
"K  c #374926",
"L  c #3B5425",
"P  c #534B14",
"I  c #44541A",
"U  c #7D4313",
"Y  c #6E5419",
"T  c #437D0E",
"R  c #49651B",
"E  c #556815",
"W  c #467917",
"Q  c #597B18",
"!  c #656C19",
"~  c #786618",
"^  c #6B7618",
"/  c #76781C",
"(  c #54412D",
")  c #44582C",
"_  c #534538",
"`  c #495C36",
"'  c #545738",
"]  c #685B30",
"[  c #476927",
"{  c #4C772A",
"}  c #537926",
"|  c #4D6435",
" . c #536C39",
".. c #4F7330",
"X. c #567737",
"o. c #5A733D",
"O. c #716D2B",
"+. c #756B2D",
"@. c #68772A",
"#. c #696735",
"$. c #161B45",
"%. c #231C48",
"&. c #241F51",
"*. c #2A284A",
"=. c #352B4B",
"-. c #373648",
";. c #282658",
":. c #282967",
">. c #2E3068",
",. c #2C2D73",
"<. c #2C317C",
"1. c #33357A",
"2. c #423941",
"3. c #4E4F48",
"4. c #6A594D",
"5. c #5A6F42",
"6. c #7D6441",
"7. c #617647",
"8. c #637E44",
"9. c #864514",
"0. c #944D15",
"q. c #86571A",
"w. c #9A5316",
"e. c #A55A18",
"r. c #AA5D18",
"t. c #906A1B",
"y. c #93771D",
"u. c #AD6219",
"i. c #A66C1C",
"p. c #B5691A",
"a. c #B56A1A",
"s. c #A6791E",
"d. c #BC731D",
"f. c #B8771C",
"g. c #816A26",
"h. c #956822",
"j. c #8A752D",
"k. c #8B782C",
"l. c #A87825",
"z. c #A3752D",
"x. c #B57E22",
"c. c #C2791E",
"v. c #C67E20",
"b. c #846B41",
"n. c #8D7B50",
"m. c #2A8E00",
"M. c #3C8709",
"N. c #378B08",
"B. c #359500",
"V. c #3A9601",
"C. c #369A00",
"Z. c #3D9A00",
"A. c #3E960C",
"S. c #3EA000",
"D. c #478A0B",
"F. c #548D09",
"G. c #429603",
"H. c #439D00",
"J. c #499E03",
"K. c #44940B",
"L. c #48960A",
"P. c #4B9C09",
"I. c #53980B",
"U. c #4A8A17",
"Y. c #598819",
"T. c #4B9413",
"R. c #4C9617",
"E. c #559913",
"W. c #6B8B17",
"Q. c #658618",
"!. c #45A101",
"~. c #4BA401",
"^. c #4EA901",
"/. c #4EA109",
"(. c #51A601",
"). c #53AA01",
"_. c #5AAD02",
"`. c #51A20B",
"'. c #56A116",
"]. c #4D8027",
"[. c #55852A",
"{. c #549423",
"}. c #599926",
"|. c #5C8B33",
" X c #5E9133",
".X c #6D8425",
"XX c #628C3C",
"oX c #639636",
"OX c #658344",
"+X c #688645",
"@X c #668A43",
"#X c #6B8A45",
"$X c #708D46",
"%X c #81801D",
"&X c #B7811E",
"*X c #B6832A",
"=X c #AB8738",
"-X c #C5831F",
";X c #C88724",
":X c #CD8A22",
">X c #D28E24",
",X c #CC922C",
"<X c #D49327",
"1X c #D99625",
"2X c #DD9B27",
"3X c #DB9C2C",
"4X c #D09935",
"5X c #E09F29",
"6X c #DFA12E",
"7X c #DCA436",
"8X c #E1A22C",
"9X c #E3A733",
"0X c #E5AA33",
"qX c #E6AE3B",
"wX c #EAB33C",
"eX c #968240",
"rX c #A4884D",
"tX c #BA9B59",
"yX c #A9946B",
"uX c #C29548",
"iX c #DEAD44",
"pX c #EEBA42",
"aX c #ECB945",
"sX c #F0BE46",
"dX c #C8A969",
"fX c #C6AE78",
"gX c #F2C047",
"hX c #F2C24B",
"jX c #F5CA55",
"kX c #F0C859",
"lX c #F9D564",
"zX c #2D3483",
"xX c #313587",
"cX c #333B93",
"vX c #353E9B",
"bX c #34409F",
"nX c #3641A3",
"mX c #3744A9",
/* pixels */
"(.(.^.^.~.^.).).(.~.~.J.J.~.~.~.H.H.G.H.~.(._.Y.^ ] #.O.+.6.5.' #.+.+.+.+.@..X}.T.T.~.~.H.V.Z.H.Z.B.m.m.V.H.V.Z.^.^.J.H.B.C.!.~.",
"^.^.!.~.^.(.(.(.~.H.H.H.H.J.H.H.H.Z.Z.H.~.`.E.Q @.! +.+.j.j.#.] +.+.j.k.j.+./ Q.Q D.I.~.H.Z.Z.Z.V.B.m.B.H.H.Z.H.~.(.J.H.Z.B.H.~.",
"!.!.Z.S.~.~.H.H.Z.H.H.H.H.H.H.Z.Z.Z.H.H./.E.Q ! Y q.t.s.x.l.h.h.h.i.*X*Xl.y.h.~ ! Q I.`.J.H.V.B.V.V.H.H.J.J.H.!.~.^.H.H.Z.Z.!.!.",
"!.!.Z.H.~.~.H.Z.Z.Z.H.H.H.H.Z.V.Z.A.H.~.T.Y./ +.h.i.x.;X<X,Xx.f.a.f.;X,X,X*Xz.h.g./ Q.I.`.~.Z.B.B.Z.!.~.~.J.H.!.~.J.H.G.Z.Z.Z.S.",
"S.!.^.^.~.~.H.H.H.H.!.H.H.H.Z.Z.G.H.P.'.W..X%X*X4XuXiXiXqX9X<X;X;X;X<X7X7X7X4X*Xl.y./ W.E./.H.C.B.Z.H.J.H.H.C.C.Z.S.H.H.H.!.C.S.",
"!.~._.).~.J.H.~.H.H.!.H.V.G.H.H.G.J.I.W..Xy.&X*XiXsXkXsXaX9X1X-Xv.:X<X9XqXaXqX7X;Xs.y..XW.E.G.V.B.Z.H.~.!.Z.C.C.Z.Z.!.H.S.Z.C.Z.",
"^.^._.).H.H.H.J.!.S.Z.Z.V.V.H.H.G.I.'.W.y.&X<X0XkXlXlXkXiX3X;Xc.d.v.>X3X8X0XpXwX7X,X&Xy.W.U.G.H.V.H.~.~.!.H.!.~.!.!.H.H.C.Z.Z.Z.",
"^.).).(.H.Z.H.H.!.!.Z.Z.V.V.Z.G.J.I.Q.%X&X-X5XwXlXlXlXkXpX7X;Xx.x.v.<X8X0XqXsXsXwX3X;Xs./ Q F.G.H.H.~.^.~.~.).).^.~.H.Z.Z.Z.B.V.",
"J.J.(.(.H.Z.V.H.H.!.~.H.Z.V.G.H.J.F.^ t.&X>X0XwXjXlXlXjXsXiX3X<X>X3XiXpXpXsXsXsXwX0X1Xf.t.! F.J.H.H.^.^.^.)._._.).~.H.G.Z.Z.V.B.",
"H.J.(.(.J.H.V.V.J.^.(.^.H.H.G.G.F.F.~ i.&X2X0XwXhXjXjXjXjXaXqX9X7XqXsXsXhXsXgXsXwX0X2X-Xt.~ Q.F.J.!.^.^.).)._._.(.~.J.H.H.Z.Z.B.",
"G.J._._.J.Z.V.H.~.)._.).^.J.H.D.Y./ y.f.>X2X8X0XwXwXpXsXjXjXsXsXsXsXjXjXjXgXwXwX0X8X2X>Xa.t.Q.Y.L.~.^.(.^.^.^.(.(.~.~.J.~.!.Z.B.",
"H.J.(.(.J.H.H.~.(._._.).(.^.H.F.^ g.i.x.>X1X2X5X5X8X9XaXsXsXsXsXsXsXjXsXsXwXwX0X8X2X1X:Xd.i./ Q L.J.^.^.~.J.~.~.H.J.(.(.~.H.Z.B.",
"H.H.J.~.~.(.(.(.).(.(.^.J.!.~.F.! q.s.f.v.:X1X1X>X:X1X6X9X0X0XqXqXqX0X0X0X0X5X5X8X1X:X-Xc.i.Y E D.J.J.~.H.H.J.H.H.H.~.~.V.G.H.H.",
"H.H.H.!.~.(.(.).(.~.~.H.H.H.~.F.E Y t.a.v.v.>X>Xv.v.:X>X>X1X5X8X3X3X>X>X2X2X2X1X1X:Xc.f.d.i.Y E D.H.H.H.V.H.H.H.V.V.J.J.V.V.G.H.",
"~.!.~.~.!.!.~.~.H.H.H.H.Z.!.^.I.E Y q.w.u.v.v.v.c.d.v.v.c.-X1X2X>X:Xv.v.>X1X1X1X-Xf.a.u.e.w.Y E D.!.H.Z.Z.Z.~.J.B.B.G.H.H.H.H.G.",
"H.~.~.!.H.H.H.!.Z.Z.Z.Z.Z.!.).I.Q P Y 9.e.p.c.c.p.p.d.c.d.c.-X>Xv.v.p.p.v.:X:Xc.a.u.r.w.9.Y E W G.!.Z.Z.V.Z.~.~.G.V.G.H.J.H.H.H.",
"H.H.~.!.Z.Z.Z.!.H.Z.Z.Z.H.~.^.`.Y.E m B w.u.u.a.d.p.p.p.p.p.f.f.c.c.u.u.p.c.d.p.u.w.w.9.N m E D./.~.Z.V.Z.Z.!.~.!.H.J.H.!.!.~.!.",
"H.J.H.H.B.V.!.!.!.H.Z.Z.H.~.^./.I.W P m U w.e.r.u.u.u.u.r.u.u.p.r.u.r.r.u.u.u.r.w.9.U B m P W K.(.^.Z.V.Z.Z.!.!.~.~.~.J.!.!.!.~.",
"J.~.H.H.B.V.!.~.H.H.Z.H.H.H.^.~.L.D.P m B U 9.w.e.r.r.w.w.w.e.r.r.r.r.r.r.r.e.0.9.V N n m I W K.^.~.Z.Z.H.!.!.H.H.~.H.H.H.H.H.H.",
"~.~.~.H.V.V.~.~.H.Z.H.H.V.H.!.~.L.T D m m M V U 0.0.0.9.U 9.9.0.0.0.e.r.w.0.0.9.B n v 8 m D W K./.~.H.H.!.!.Z.Z.H.H.H.H.!.!.H.!.",
"(.(.).).J.!.~.!.Z.V.Z.Z.B.B.C.G.D.W Z 6 , c b N V V B N M M B B V 9.0.0.9.9.V N n v , > 6 Z H T.J.~.!.H.H.H.H.!.H.Z.!.~.^.~.!.!.",
"~.^.^.(.~.!.~.H.Z.V.H.V.B.V.A.M.H D 6 < + > , v n n n n n n n n n N 9.9.V N M n v , > > 5 0 S T K.J.~.!.Z.Z.~.!.S.Z.!.~.).^.!.S.",
"H.J.H.Z.!.Z.S.S.H.H.H.V.V.M.D.W Z 0 3 ; + + : > c c v n n b b b b n M M M n b c , > + & - 3 9 Z H T.P.H.Z.V.H.H.Z.Z.H.~.^.^.!.C.",
"H.H.Z.Z.C.C.S.Z.H.H.G.H.H.G.D.R 0 2 5 - $ + : : > 1 c v b v b b b b b n b c c , > + & & - 5 - 9 D H K.H.V.H.H.~.Z.!.H.!.^.^.!.C.",
"H.H.Z.S.B.B.Z.V.H.H.G.H.^.L.W A 4 - ; s u y % + : > , c v b b b b b b b c c , : % & ; u u s 5 4 Z G D.G.H.H.~.~.~.!.~.~.~.~.S.C.",
"H.H.!.Z.C.Z.Z.H.G.G.G.H.`.D.D 4 5 - u s d d u = + : > 1 c v v v v v c c c 1 : + - y s h s s 5 3 0 D M.G.Z.H.H.!.!.~.~.~.~.~.!.S.",
"H.H.H.H.H.!.H.H.J.H.G.H.L.M.Z 3 5 s s s j j d d ; ; < 1 1 c 1 c c c c 1 1 < p < s s j j d d s s 3 Z H K.V.V.Z.V.Z.H.^.^.^.~.!.S.",
"H.Z.H.H.~.~.H.Z.H.H.G.G.D.F 4 * u s s s d j z j f f f p < 1 1 1 , > > 1 p f p t d d j j d d d 5 5 4 G M.A.V.V.V.Z.Z.J.^.).).~.!.",
"V.G.H.H.^.~.Z.Z.H.H.H.D.G Z 9 ; s s d d d d j j h h j f f f < < 8 p f f h h h j j j j d d d y 5 5 3 Z H A.Z.V.Z.H.H.H.H.)._.).^.",
"H.H.H.~.^.~.Z.B.H.!.G.F A 9 s s s s s d d d d j j j j h h f f p f h h h h j j j j j d d d s s - - s 9 D F V.Z.Z.!.H.Z.H.(.).(.(.",
"(.^.~.~.~.H.V.C.~.~.L.F Z 2 2 u s s s s d d d d j h j h h j f j j j j j j h j j j j d d d s s - - 3 5 0 F N.V.V.H.H.V.Z.H.~.~.^.",
").).^.J.H.H.V.Z.!./.D.G 4 & ; 5 u u s s d d d d h j j j j j j j j j j j j j j j d d d d s s s y - & & 4 S F B.Z.V.V.Z.Z.H.~.J.J.",
").^.!.!.G.H.V.Z.!.L.H D 3 & - u - s s s s s s s d j j j j j j j j z j j j j j d d s s s s s u - y - & 3 S G N.Z.A.Z.Z.H.^.`.!.H.",
"^.~.C.C.Z.V.V.V.!.K.G Z 2 @ & - - - - 5 s s s s d d d j d j j j j j d d d d h h s s s s s u u & - & @ & Z G N.C.V.Z.Z.H.~.!.H.H.",
"~.!.C.C.Z.B.B.V.S.A.M.L 2 X O $ = & - s u s s s s d s s s s s d d d d d s s f f s u s s - - & # @ X X 4 D W A.C.Z.H.~.!.V.B.V.H.",
"^.~.C.C.Z.Z.V.B.S.A.D.G 4 X # # # @ # - - y - 5 - s s y s s s s d s s u s ; < ; - - - # - # @ @ @ o X 4 G T.A.S.H.!.~.H.B.B.Z.H.",
"^.^.Z.C.Z.Z.Z.B.C.C.P.D.Z p t r O o o @ @ X @ @ - 3 r - - - - - 5 s s 5 ; - - = # @ @ o $ o O O r t 5 Z T J.~.~.J.H.H.H.Z.Z.!.~.",
"^.H.Z.Z.Z.Z.Z.Z.C.C./.D.D l z z t $ . . o o @ @ # - r r - & - - # # y r y y = = O O O       # t a z 8 A D.~.~.!.H.H.G.H.H.!.!.!.",
"Z.Z.Z.C.!.!.H.H.H.~.).F.D x 3.-.x f +   o O O # r r r r r r # # # # r r r r r r O O O     % p x -.C x D F Z.H.!.H.G.V.G.Z.Z.H.!.",
"V.V.V.Z.Z.H.H.H.H.~.).L.R ( 4.4.4._ 8 + # r r $.$.$.$.$.$.$.r r r i i $.$.$.$.$.i i e e + 8 3.4.4.4._ I M.Z.Z.Z.H.H.H.G.V.H.H.!.",
"Z.H.J.J.H.H.G.H.~.^.~.L.R ] rXyXyXn._ 8 p a ;.,.<.<.zX<.:.:.:.:.:.:.:.,.,.<.zX<.,.:.a p 8 _ n.yXyXn.] I M.Z.H.~.~.J.V.V.H.J.~.~.",
"G.H.~.~.J.H.H.H.~.^.!.D.| #.rXtXfXyXb.C C =.,.cXbXbXbXbXzX<.zXzXzXzX<.zXcXvXvXvXxX,.=.C _ 6.yXfXdXrX] [ M.V.H.H.(.(.H.H.J.~.(.(.",
"J.J.~.(.(.(.~.J.H.J.J.T.} #.eXtXfXdXrX6.2.2.1.vXbXnXbXbX<.<.bXbXbXcX<.<.cXnXmXvXvX1.=.C 6.rXdXdXuXz.O.[ M.B.Z.H.(._.J.J.~.(.^.~.",
"~.~.~.(.).).~.J.V.H.~.I.Y.@.k.rXtXtXrX6.3.2.xXvXbXbXbXbX,.,.bXbXmXvX,.:.cXnXmXnXvX1.=.C 6.rXtXtX=Xk.} { D.V.Z.!.(.(.~.J.J.(.~.~.",
"_.(.(.^.~.~.H.H.V.H.J.(.'.W..X+.n.j.] C C =.1.cXbXbXbXzX;.;.cXmXmXcX:.;.zXvXmXmXcX1.&.x ( 9.b.eXk./ U.D.S.S.C.Z.H.H.H.Z.H.~.~.~.",
").).(.^.!.Z.V.V.H.H.~.~.).E.Y.@.O.] C 8 a &.,.xXbXbXbX,.&.&.<.cXcXzX;.*.,.xXvXvXxX1.=.a x C ] O.[.[.K.Z.!.S.S.C.G.H.V.Z.H.H.~.~.",
"~.^.).(.H.Z.V.Z.H.~.~.!.~.J.T.U.Q ) 8 p %.;.:.1.bXbXzX>.*.*.>.,.:.;.*.;.>.<.cXcXxX,.&.a p w [ Q.Y.R.P.!.~.!.C.C.Z.H.H.Z.H.H.~.~.",
"!.~.^.^.Z.B.B.Z.!.^.H.H.H.G.K.T.U.G 8 p a &.&.:.<.<.:.;.-.K =.;.;.-.K -.=.:.,.,.:.;.&.%.e 8 R T.R.P.!.!.~.~.C.C.Z.H.H.!.!.H.!.!.",
"!.!.S.H.Z.Z.C.C.!.~.!.Z.Z.G.G.K.T.W D k t i %.%.&.&.i z K 3.3.3.3.3.| 3.z a $.;.%.%.i t g A H T.H.!./.~.~.H.Z.Z.H.!.!.!.~.!.S.Z.",
"!.S.S.S.!.Z.C.C.!.H.H.Z.H.H.H.L.R.U.L k u t i a a t e j ` 5.4.3.` 5.7.| j t i a i i t u k D { T.P.!.^.~.H.H.G.H.!.!.~.~.~.!.!.Z.",
"Z.!.!.~.!.H.Z.Z.Z.Z.H.H.!.!.P.R.{.} L l u t u t p u = g ` 7.7.7.7.8.OX| 7 = t t u u - 5 k L { {.E././.~.H.V.G.H.~.^.^.~.S.S.!.!.",
"Z.!.^.^.!.H.Z.Z.Z.Z.H.~.~./.R.{.|...K 7 u t u p < % $ 7 ` 8.OXOX+X#XOX| 7 @ & - u ; # 2 9 L .. X{.E.P.H.H.G.H.J.(.).^.!.!.!.~.~.",
"Z.!.^.^.H.H.C.Z.!.!.!.H.P.E.}.|.X.[ q 3 - s s u = @ X 7 ` o.OXOX+XOXOX| 7 X X & ; u y = 3 0 [ X. X{.R.A.V.G.~.^._.).~.!.!.^.!.^.",
"C.!.^.^.H.Z.Z.!.^.^.~.P.E.}.|.|.| K 3 & - y s 5 @ @ $ 7 | +XOXOX+X+X8.| 6 X X @ ; y t = & 3 K | |. X{.R.K.H.~.^._.).~.J.^.!.~.!.",
"!.H.~.H.H.V.H.~.).).~.P.}. XXX..K 9 2 @ - - s - @ X & q  .OXOXOX+X+X+Xo.q % X @ - u y ; & 3 9 L o.@X X}.A.S.^.^.~.~.~.~.!.!.!.!.",
"^.~.J.H.Z.H.!.~.^.).^.`.}.XX8.| 0 2 & @ - s s s @ @ 3 K o.+XOX+X+X+X+Xo.K 2 X @ s s s ; & & & J  .OXoX}.A.S.^.^.~.!.^.^.!.!.!.S.",
").(.~.H.!.H.C.C.!.^.~.E.}. X@X .0 * - - s d k d - ; k L 5.OXOX+X+X+X+Xo.) 9 * ; j j d 3 - & - q o.$XoX}.P.C.).).^.^.(.(.J.H.Z.Z.",
").(.H.H.H.!.C.S.S.!.^.`.}. XXX .J 2 5 5 d d z j y u l ` 5.OX+X+X+X+X+Xo.) l 5 y j z h s 5 s 3 J X.oXoX}.K.!.)._.(.(.(.(.~.H.H.V.",
"~.~.H.Z.H.~.Z.Z.S.^._._.'.}.|...K k 5 s d j z z u u l L o.+X+X+X+XOX8.o.) l p u j z d s 5 s 0 L X.oX}.'.S.!.(.).~.~.(.(.~.~.H.Z.",
"J.H.Z.H.H.H.!.H.!.!.)._./.R.}.[.[ K 9 d s d j j u g K | 8.#X#X#X+X+X8.5.` K h u j j d s s k K [ [.}.'./.A.S.^.).J.J.~.(.(.~.H.V.",
"!.!.S.!.!.~.H.H.H.H.~.^.^.`.'.}.[.[ K k 5 5 5 s f l ` 5.8.#X$X$X#XOXOX7.5.` l f s 3 - - 9 K [ ].R.R./.~.Z.Z.~.~.H.H.!.~.(.~.V.B.",
"H.!.S.!.~.!.H.Z.Z.H.H.J.!.`.`.`.{.[.[ D Z 0 0 Z J ) o.8.+X#X#X#X#X@XOXOXOXo.L J k 9 0 Z K [ ].{.T.K.H.S.B.Z.H.!.H.Z.H.!.).^.G.B.",
"C.Z.S.!.!.C.Z.V.V.V.Z.Z.H.!.!.!.P.R.R.].{ { { } ..X.8.+X#X#XOXOX#X#X#X+X+XOXX.X...{ { { ].M.U.A.A.A.B.m.B.B.B.C.Z.Z.C.!.~.~.J.H.",
"Z.Z.Z.S.C.Z.B.B.B.B.B.V.A.Z.!.!.H.P.`.'.}. XoXXXXXOX+X#X$X#X8.OX#X#X#X#X#X#X|. X|.|.|. X{.{.A.V.C.C.m.m.m.B.B.B.C.Z.Z.Z.~.~.~.^."
};
