/* XPM */
static char *out[] = {
/* columns rows colors chars-per-pixel */
"50 50 253 2 ",
"   c #070E12",
".  c #152B1E",
"X  c #1B3A1D",
"o  c #243D1E",
"O  c #0C1E25",
"+  c #162C29",
"@  c #1A3424",
"#  c #193827",
"$  c #1B3B2B",
"%  c #072A38",
"&  c #172D35",
"*  c #1B3A36",
"=  c #243C27",
"-  c #243C38",
";  c #323C34",
":  c #1F401D",
">  c #27481A",
",  c #2F501A",
"<  c #3A581C",
"1  c #3B6319",
"2  c #1E442A",
"3  c #184636",
"4  c #1D433C",
"5  c #254627",
"6  c #2A4324",
"7  c #2C4A23",
"8  c #2B442C",
"9  c #334C24",
"0  c #34452B",
"q  c #364B2C",
"w  c #2B5326",
"e  c #385626",
"r  c #294737",
"t  c #23433B",
"y  c #324A33",
"u  c #3C4D33",
"i  c #364939",
"p  c #275736",
"a  c #3A5538",
"s  c #3B6329",
"d  c #3C6735",
"f  c #435D1D",
"g  c #47691C",
"h  c #4F741C",
"j  c #52761C",
"k  c #455C2A",
"l  c #40483A",
"z  c #455839",
"x  c #476727",
"c  c #526D28",
"v  c #4A7329",
"b  c #567927",
"n  c #476437",
"m  c #556939",
"M  c #497739",
"N  c #597736",
"B  c #63793A",
"V  c #09384A",
"C  c #0F3B4D",
"Z  c #2A3C42",
"A  c #194B44",
"S  c #134854",
"D  c #254942",
"F  c #2B4B44",
"G  c #2A4947",
"H  c #344A48",
"J  c #28534A",
"K  c #3A5444",
"L  c #365845",
"P  c #34534B",
"I  c #3B554B",
"U  c #3B5B4B",
"Y  c #2C4F54",
"T  c #384D54",
"R  c #355356",
"E  c #3D5B51",
"W  c #3A6B4B",
"Q  c #3B6756",
"!  c #064B67",
"~  c #165363",
"^  c #045577",
"/  c #2C5668",
"(  c #10647D",
")  c #2C6473",
"_  c #435445",
"`  c #455B45",
"'  c #4B5B44",
"]  c #425B4C",
"[  c #4B5D4C",
"{  c #51574B",
"}  c #425C51",
"|  c #486446",
" . c #4D644C",
".. c #55674A",
"X. c #477646",
"o. c #5B7848",
"O. c #456254",
"+. c #4B6354",
"@. c #4B6857",
"#. c #4C6A5C",
"$. c #536553",
"%. c #536B54",
"&. c #596856",
"*. c #546B5B",
"=. c #5A6C5B",
"-. c #4B7358",
";. c #587358",
":. c #5C715D",
">. c #646A4B",
",. c #637949",
"<. c #646B57",
"1. c #63735B",
"2. c #697859",
"3. c #757D59",
"4. c #4B5C62",
"5. c #546C67",
"6. c #4F706B",
"7. c #5C7462",
"8. c #577B69",
"9. c #647463",
"0. c #657A64",
"q. c #667866",
"w. c #6B7B64",
"e. c #6B7D6B",
"r. c #737D64",
"t. c #797A66",
"y. c #727E6A",
"u. c #6C7771",
"i. c #667B75",
"p. c #837D69",
"a. c #5B851B",
"s. c #628B1C",
"d. c #6D991D",
"f. c #5C8529",
"g. c #5B8634",
"h. c #648726",
"j. c #689528",
"k. c #6F962D",
"l. c #678738",
"z. c #779435",
"x. c #78A526",
"c. c #57874B",
"v. c #588859",
"b. c #68834A",
"n. c #6F8F4D",
"m. c #768559",
"M. c #5A8C6F",
"N. c #6B826B",
"B. c #75836C",
"V. c #7A8768",
"C. c #7A846C",
"Z. c #6E966F",
"A. c #668375",
"S. c #6C8373",
"D. c #738573",
"F. c #768975",
"G. c #7C8B74",
"H. c #778878",
"J. c #7B8C7A",
"K. c #7C9477",
"L. c #75A474",
"P. c #84B11A",
"I. c #8DB52D",
"U. c #828C57",
"Y. c #84876B",
"T. c #93856E",
"R. c #86946A",
"E. c #91986F",
"W. c #838C74",
"Q. c #888874",
"!. c #8C8B74",
"~. c #838E7B",
"^. c #968D76",
"/. c #879575",
"(. c #8B9276",
"). c #84927C",
"_. c #8B947C",
"`. c #94947B",
"'. c #97967C",
"]. c #A49279",
"[. c #95A17D",
"{. c #095F84",
"}. c #07638A",
"|. c #0A6991",
" X c #2E7689",
".X c #077DAD",
"XX c #287EA2",
"oX c #4E7787",
"OX c #6A7F82",
"+X c #318990",
"@X c #0282B9",
"#X c #1A90BF",
"$X c #4E8B91",
"%X c #718B88",
"&X c #679EA3",
"*X c #45AEB0",
"=X c #078FC9",
"-X c #0397D6",
";X c #32A6D8",
":X c #029FE3",
">X c #04A5E9",
",X c #01A6EC",
"<X c #18AEEF",
"1X c #01ABF3",
"2X c #00AFF9",
"3X c #01B3FE",
"4X c #0CB6FE",
"5X c #15B7FB",
"6X c #26BCFC",
"7X c #36B8F0",
"8X c #44A4CE",
"9X c #6BAFCD",
"0X c #51BAE6",
"qX c #60BFE7",
"wX c #2EC0FF",
"eX c #54D2D3",
"rX c #56C9FB",
"tX c #62CCFA",
"yX c #73D1FA",
"uX c #5BE3E3",
"iX c #859482",
"pX c #8A9682",
"aX c #8D9A84",
"sX c #8C9589",
"dX c #949B84",
"fX c #979A85",
"gX c #9B9C83",
"hX c #939E8A",
"jX c #A79D85",
"kX c #98A288",
"lX c #9BA38B",
"zX c #9DA892",
"xX c #8FB29B",
"cX c #A3A48B",
"vX c #A9A589",
"bX c #A3AA8B",
"nX c #B5AA8F",
"mX c #A3AB93",
"MX c #ACAD94",
"NX c #A7AD98",
"BX c #A8B196",
"VX c #ABB39B",
"CX c #B2B49C",
"ZX c #B9B89C",
"AX c #AEB6A1",
"SX c #B5B9A2",
"DX c #BABCA2",
"FX c #C1B69C",
"GX c #B5C5B4",
"HX c #C3C1AA",
"JX c #8AB5C3",
"KX c #A5CDD9",
"LX c #83D8FC",
/* pixels */
"g q z l 0 0 6 5 5 > 7 9 = o 0 6 > > > 6 , s.a., j P.s.h > > > 6 9 e = = 9 q 8 = e , > > x , : : X 1 ",
",.^.^.^.T.Y.t.a Q k W.Y.t.<.9.<.<.= k t.V.s.f.o.l.d.h 2.a < n !.Y.t.w.l Q.y.t.9.&., 7 n z  .O.U 5 , ",
"Y.vXnXjXcXMXdX' x >.jXjX^.^.!.Q.p.; z '.E.2._.W.V.o.1.pXB.u B.'.!.R.r.2._.G.C.D.e.8 | N.;.w.*.@.U 5 ",
"3.vXnXCXCXNXgX .c >.jXjX].'.^.Q.t.i ' '.`.B.W.C.B.0.D.G.N.8 1.W.G.R.Q.G.w.t.C.e.7.8 8.n.aX%.#.] J $ ",
"<.gXCXSXMXNXlX..h m jXjX!.Q.Y.<.l i ..fXfXW.q '  .z ` :.I 5 = [ (.W.C.B.1.w.9.9.#.= X.Z.N.=.+.K A p ",
">.!.CXVXVXNXlX:.j s.0 ; 0 0 0 9 9 k z V./.W.N.(._.G.G.F.N.9 | pXG.C.B.e.&.&.2.y.r 8 b.;.$.+.] t * X.",
"..CXNXAXNXmXzX$.m DXZXZXDXDXZXBX3.g.o.Y.Y.V.2.W.G.G.J.D.q.r &.B.e.w.w.9.y.y.9.7.+.6 h.V.O.K L -.c.n.",
"' ).pXsXJ.q.[ y m HXDXDXZXZXZXGX&.x m y.B.w.K.G.B.G.F.S.0.F H e.w.q.7.q.w.9.*.*.#.= c n.n.,.o.f.s.k.",
"g 9 0 0 o 9 k f B FXDXDXGXSXCXVX&.x ..y.y.*.y.e.N.S.A.N.8.D 2 D O.U r $._ _ I I J $ 2.MXgX'.W.$.,.g.",
"j U.p.3.p.Y.p.b B ZXSXSXAXAXAXVX+.n `  .] = 8 8 8 r r 4 A p # $ $ # @ = @ @ @ $ 3 7 3.MXcXdXaXJ.J.a ",
"B FX].].].^.T.>.m AXMXAXVXVXAXNX` x b.e k N k.a.s.f.x m m N B o.m k g g x k k k < g V.kXkXhXpXF.7.i ",
">.nXnXvX].^.p.l l zXlXlXkXNXzXiXp x z.z.x.U.z.z.z.s.E.ZXMXCXbXSXvX<.f U.nXjX].].{ g 2.hXhXaXiXH.F.r ",
"..jX^.^.fX^.p.u e ' _ [ { _ u i r x DXnXvXnXvXvXGX0 cXMXMXMXCXMXlX>.0 >.jX^.p.p.{ 9 >.fXpXJ.J.D.A.F ",
"z jX^.^.!.Q.t.l f x m z u l q 9 < c HXFXvXvXcXfX'.; <.Q.V.BXVXlXhXdXq <.].T.T.p.>.< z ] K [ +.I U 8 ",
"l p.T.Q.Q.Q.$.l m CXZXvXgXMXgX1.f N SXCXcXlXlXkXdXy iXmXlXhXzXkXiXH.i >.^.T.Q.C.<.k h k u q q 0 w n ",
"9 l { $.$._ i o m MXjXvXMXbXlX2.f n NXmXzXgXhXhXsX; Q.%XH.u.iXS.q.=.= <.gX`.Q.Q.<.9 m.MXfX!.r.w.w.8 ",
"j b k z k m x h m (.(.BXBXmXlXV.g z sX9.} Z T 5.OXZ V ~ / T Z 4.iXu.8 1.dX~.~.~.<.e r.!.p.t.&.:.=.r ",
"b ].FXvXvXcXQ.k &.' SXBXzXkXhXD.6 u & XX;X-X=X% O V 1X0XqXLX0XXX& H r u { &.=._ H z 3.p.t.<._ $.+.t ",
"3.HXjXgX'.`.1.k Y.bXF.zXlXaXiXJ._ % 8XyXtX;X! % =X^ |.qXyXyXqX5X.X- n j g f < x | ,.1.2.9.=.9.*.I + ",
"<.cXfXfXdX~.0.q dXbXkXaXkXiXq.K Z % {.oX/ &  XtXqX2X! / 9XtX0X4X<X) $.k Y.MXfX`.V.x ..9.&.9.*.} P A ",
">.jXhXaXpX).=.|  .7.K = 7.L L r &...' O ) ) )  X;X3X2X.XC & C ^ XX8X- { cXgXdXpXF.e 8 a t t t $ * A ",
"..r.aXiX%XJ.*.z ;.d y e e 8 y d b l.T }.#X+XuXeX~ 2X3X,X( *X+X%   & & l lXaX_.).&.x a., > X # : > , ",
"k ' =.:.2.7.U x k.z.n.h.b c N U.E.fX& -X.X*X*XeX) 1X3X-X+X+XeXD C 4._ H hXpX).J.$.a v l.n n ,.,.l.N ",
"g c h g j.N b.k.I.P.n.n.,.R.DXvXjXH.! ,X|. X+X+XS 1X3X-X~ S  X/ =X& 4.4.iX~.J.0.c b n.2.V.1.!.(.W.N.",
"m bXV.f.n.z.l.l.I.P.`.bXlX2.vXkXgXT -X3X1X,X,X>X:X3X3X2X,X>X0X7X,X! 4.q a _ ` c h.h./.pX).1.G.).G.9.",
"2.dXdXR.o.mXBXV.n bXbXlXkXB.<.kX`.H -X3X3X3X3X3X3X3X3X3X2X3X3X3X2X|.5.c N b b h.h.h.m.).J.pXW.F.D.:.",
"$.~.B.| 7.zXhX| w.BXlXkX2.r.`./._.T -X3X3X3X3X3X2X2X1X1X@X-X3X3X2X.Xi.lXvXgX`.(.W.2.z *.0.iXF.S.S.| ",
"a G.G.B.a z N.(.w.K.2./.m.kXfX`.1.6.-X3X3X3X3X4X-X@X}.C }.,X3X3X2X|.i.zXdXhX).J.D.*.%.-.7.H.S.A.A.I ",
"y } P a = 2.`.(.V.B.BXbXbX(.`./.G.i.|.2X3X3X4X7X^ V ! @X1X3X3X3X,XC %XkXaXiXJ.F.D.@.s n.2.;.;.X.E n ",
"s , q z v m.W.W.B.BXBXbXlXdXW.C.r.9.V >X3X3X3X3X2X1XrXrX5X3X3X3X=XG sXsXK.J.F.A.%.i g s.k.n.b.l.l.f.",
"m cX^.(.R...B.C... .kXzXkXaXG.B.w.9.& .X3X3X3X3X3X4XyXyXwX3X3X>XV OX[ 5.7.7.| | a e B bXlX_.W.~.zX .",
"..`.!.fXC.z r.2.K./.;.iXiXF.F.0.&.=.6.% -X3X3X3X3X3X6XwX3X3X1X^ 4.x < < h x.I.b a.j `.dX(.W.H.S.D.F ",
"r.gXt.<...9 a D.D.r.2. .D.S.N.*.F $ 4 5.C =X6X5X3X3X3X3X3X,X^ H N.bXE.R.V.,.V.m.%.x B.).W.G.D.S.S.P ",
"2.Q.Q.~.w.9 e 7.e.q.*. .] P - $ X > 1 b %XR / 8X<X,X,X>X|.C oX7.).G.B.e.q.&.iX:.O.6 q.J.J.D.S.A.A.P ",
"1.W.~.D.w.q h L *.@.H t . @ o a ,.b.b.b.xX&XC {.S V ! V T JXKXI 9.e.w.9.7.] L %.] $ 7.H.H.S.S.S.F.P ",
"<.G.G.D.:.a N w * $ @ X , k (.bXdXhX`.pX..%X^ ,X:X-X:X=X/ KX%Xt ] q.1.*.O.7. .O.L @ i O.#.@.@.P D J ",
"[ q.u.N.o.f.s.b w 7 d j a.m.MX`._.~.G.u.i 5.{.6X6X5X5X-XZ KX} # K #.#.e.*.@.Q O.F @ < , a a y 8 2 5 ",
"e i a n N f.U.[.kX'.`.2.b ,.pX/.G.G.D.0.i &.Y tXtXrXqX|.oX6.E # 7 U 7.*.O.Q W J D $ M o.0.*.O.E L 7 ",
"o.mXpX~.G.n jXfX'.dXfXfX8 m ).F.D.S.S.e.8 n H 9XLXLX*XZ OXR G 4 M W #.6.I R J A 3 p c.| @.+.} P J $ ",
"y.iXB.e.:.a dX_._.Q.iXJ.= | F.D.A.A.A.5.a e 4./ LX9XZ i.Z J J J Z.A.#.Q P P J J W g.o.%.] E P G D * ",
"W 0.7.;.] a ).).).J.F.S.= 9 @.@.#.5.#.U q n Y - qXS O.t # w 3 p v.Z.Z.M.Q W M v.%Xc.-.-.r G J D p w ",
"8 U U U | | K.J.J.J.S.A.= x , 6 6 = 5 = 1 h = 5.C T J 3 p s d v j.Z.b.g.g.j.x.v M.c.a 5 , e 2 p s h.",
"g b o.b f.b F.D.S.A.A.A.$ ,.kX_.).B.e.7.@.e M 8   %.w v a.M [./.K.o.).K.K.2.&.%.W w b l.l.b v v v f.",
"1.pXbX).n x A.;.#.A.8.P * C.C.w.=.%.+.O.E 5 v. .; B.N.| h m.).B.q.| 0.0.*.O.} I J 2 :.D.V.0.B.S.7.a ",
"1.lXy.9.` < = t D P Q p 3 1.B.=.&.} } E H = ..D.u.H.D.$.e z 9.<.=.:.%.%.} ] I F J # &.B.e.*.%.O.} - ",
"' G.9.=.K 0.n M M.W L d v ' 9.+.} } I H D $  .G.H.D.S.#.7 y =.*.+.O.i ] I P P J A 2 %.q.*.+.} I P - ",
"_ ] =.+.0.7.O.O.X.v.GXL.M ..*.] I P F G D * ` J.D.N.i.O.7 | a +.} I G F J H J J $ d ` O.} E R I J 4 ",
"] *.i N.*.O.U L L -.&X$XW %.*.} P F G G * $  .%XS.A.i.U w K -.U G t D * G D J A W ;.O.] E I P H J 3 ",
"e a d #.E J J P Q v.L.M.v.d 3 3 4 4 4 r d w A.#.#.5.#.J M i F D - * A A * s p W M.v.p p 4 D D D J 3 ",
"a.s.s 5 Q 8.6.Q g.g.j.c.L.v : 2 # 2 X # 5 s o.6.O.Q E W g.e # + . # # * : j.j.a.M c.d w : 5 : 5 w d "
};
