/* XPM */
static char *out[] = {
/* columns rows colors chars-per-pixel */
"50 50 252 2 ",
"   c #091418",
".  c #152B1E",
"X  c #1B3A1D",
"o  c #243D1E",
"O  c #10272F",
"+  c #1A3424",
"@  c #193827",
"#  c #1B3B2B",
"$  c #1B3D33",
"%  c #1A3939",
"&  c #243C27",
"*  c #2D3730",
"=  c #223938",
"-  c #1F401D",
";  c #27481A",
":  c #2F501A",
">  c #3A581C",
",  c #37640E",
"<  c #3C631B",
"1  c #1E442A",
"2  c #1A4439",
"3  c #254627",
"4  c #2A4223",
"5  c #2C4A23",
"6  c #2B442D",
"7  c #334C24",
"8  c #34452A",
"9  c #364B2C",
"0  c #2A5226",
"q  c #385627",
"w  c #294737",
"e  c #23433B",
"r  c #3C4D33",
"t  c #354938",
"y  c #275736",
"u  c #395636",
"i  c #3B523C",
"p  c #3B6329",
"a  c #3C6735",
"s  c #435D1D",
"d  c #47691C",
"f  c #4F741C",
"g  c #52761C",
"h  c #617E1F",
"j  c #455C2A",
"k  c #40483A",
"l  c #455939",
"z  c #486727",
"x  c #526D27",
"c  c #4A7329",
"v  c #567826",
"b  c #476437",
"n  c #546939",
"m  c #497739",
"M  c #597836",
"N  c #63793A",
"B  c #093243",
"V  c #193845",
"C  c #053D55",
"Z  c #263D44",
"A  c #313F44",
"S  c #184A45",
"D  c #0A445C",
"F  c #194C53",
"G  c #254943",
"H  c #2B4B45",
"J  c #294847",
"K  c #344B48",
"L  c #28534B",
"P  c #365745",
"I  c #3B5444",
"U  c #34534B",
"Y  c #3B554B",
"T  c #3B5B4B",
"R  c #315053",
"E  c #385452",
"W  c #3D5B51",
"Q  c #3A6B4B",
"!  c #3B6756",
"~  c #064965",
"^  c #0E546B",
"/  c #04587B",
"(  c #265569",
")  c #1A6A7A",
"_  c #21656D",
"`  c #465743",
"'  c #455B45",
"]  c #425B4C",
"[  c #4B5D4C",
"{  c #51584F",
"}  c #425C51",
"|  c #455855",
" . c #486446",
".. c #4D634C",
"X. c #55674A",
"o. c #477646",
"O. c #5B7848",
"+. c #456254",
"@. c #4B6354",
"#. c #4A6857",
"$. c #4C6A5C",
"%. c #576754",
"&. c #536B54",
"*. c #546B5B",
"=. c #5A6C5B",
"-. c #4B7358",
";. c #587357",
":. c #5C715D",
">. c #646A4B",
",. c #637949",
"<. c #646B57",
"1. c #63735B",
"2. c #697859",
"3. c #757D59",
"4. c #435D66",
"5. c #4A6867",
"6. c #546B63",
"7. c #5C7462",
"8. c #597A69",
"9. c #567071",
"0. c #606E65",
"q. c #647463",
"w. c #657A64",
"e. c #6C7B64",
"r. c #677868",
"t. c #6B7D6A",
"y. c #737C64",
"u. c #797A66",
"i. c #727E6A",
"p. c #687A74",
"a. c #837D69",
"s. c #5B851B",
"d. c #628B1C",
"f. c #6D991D",
"g. c #5C8529",
"h. c #5B8634",
"j. c #648826",
"k. c #689528",
"l. c #6F962D",
"z. c #678737",
"x. c #779435",
"c. c #78A526",
"v. c #57874B",
"b. c #588859",
"n. c #67834A",
"m. c #6F8F4D",
"M. c #768559",
"N. c #5A8C6F",
"B. c #6B826A",
"V. c #75836C",
"C. c #7A8668",
"Z. c #7A846C",
"A. c #70976E",
"S. c #668375",
"D. c #6C8372",
"F. c #738573",
"G. c #768975",
"H. c #7C8B74",
"J. c #778978",
"K. c #7C8C7A",
"L. c #7C9578",
"P. c #75A474",
"I. c #84B11A",
"U. c #8DB52D",
"Y. c #828C57",
"T. c #84876B",
"R. c #93856E",
"E. c #86946A",
"W. c #91986F",
"Q. c #838C74",
"!. c #888874",
"~. c #8C8B74",
"^. c #828E7B",
"/. c #968D76",
"(. c #879575",
"). c #8B9276",
"_. c #84927C",
"`. c #8B947C",
"'. c #94947B",
"]. c #97967C",
"[. c #A49279",
"{. c #95A17D",
"}. c #035F84",
"|. c #08668B",
" X c #076D98",
".X c #2C7088",
"XX c #0377A8",
"oX c #407288",
"OX c #607F83",
"+X c #328E96",
"@X c #0383BA",
"#X c #3C9AA8",
"$X c #518B90",
"%X c #6F8985",
"&X c #669D95",
"*X c #038BC4",
"=X c #0F93CC",
"-X c #0298D8",
";X c #2B9AC9",
":X c #01A6EB",
">X c #01ABF3",
",X c #00AFF9",
"<X c #01B2FE",
"1X c #09B4FD",
"2X c #10B2F7",
"3X c #2EBAF6",
"4X c #54A8CC",
"5X c #70BADA",
"6X c #4EBEEE",
"7X c #3FC5FE",
"8X c #51CECF",
"9X c #5EC3EF",
"0X c #47C5FB",
"qX c #58CBFD",
"wX c #6ECEF8",
"eX c #72D4FF",
"rX c #7ED8FF",
"tX c #59E2E3",
"yX c #859582",
"uX c #8A9682",
"iX c #8D9A84",
"pX c #8B968B",
"aX c #8A998B",
"sX c #949B84",
"dX c #979A85",
"fX c #9B9C83",
"gX c #939E89",
"hX c #A69D85",
"jX c #98A288",
"kX c #9BA38B",
"lX c #9DA992",
"zX c #A3A48B",
"xX c #A9A589",
"cX c #A3AA8B",
"vX c #B5AA8F",
"bX c #A4AB93",
"nX c #ACAD94",
"mX c #A8AD98",
"MX c #A8B196",
"NX c #ABB39B",
"BX c #B2B49C",
"VX c #B9B89C",
"CX c #86ABB4",
"ZX c #AEB6A1",
"AX c #B5B9A2",
"SX c #BABCA2",
"DX c #C1B69C",
"FX c #B5C5B4",
"GX c #C3C1AA",
"HX c #97BDC5",
"JX c #9CC2CC",
"KX c #A9D3E1",
/* pixels */
"d 9 l k 8 8 4 3 3 ; 5 8 4 o 8 & ; ; ; 7 q d.s.: g I.d.f ; ; ; 4 7 q & 4 8 9 6 6 q : ; ; < : 1 @ - , ",
",./././.R.T.V.i ! q Q.T.u.<.q.<.<.& j u.M.j.g.O.z.f.f 2.u > n ~.T.C.e.k Q.i.u.q.%.; 5 b l &. .Y 6 : ",
"T.xXvXhXxXnXdX` z >.hXhX/./.~.!.u.t k ].'.,.`.Q.C.O.1.uXV.9 i.'.~.T.y.2.`.T.Z.i.t.6  .B.;.e.=.#.T = ",
"3.xXvXBXnXnXfX..x >.hXhX[.]./.!.a.r ' ].).C.(.Z.V.w.F.H.B.t :.Q.H.E.!.H.e.i.F.i.r.& N.m.iX&.#.T H 1 ",
"2.].BXZXNXmXkXX.f n hXhX~.!.!.>.k t X.dXfXH.r ` ..' l 1.Y 3 & [ ).Q.Z.V.1.e.q.q.@.& m A.t.7.@.P 2 y ",
">.~.BXBXNXmXkX;.g d.8 k 8 8 8 7 7 j l C.(.T.B.(.(.H.H.G.B.9  .`.H.Z.V.t.%.%.2.i.w 6 n.:.*.| +.= 2 o.",
"X.BXmXZXmXbXlX%.n VXVXVXSXSXVXMX3.M O.T.T.C.B.Q.H.H.K.D.p.w %.V.e.e.t.1.i.i.q.7.+.5 g.C...P P -.v.m.",
"[ _.uXaXK.q.[ t n GXSXSXVXVXVXFX%.z n V.V.e.H.C.V.J.G.V.8.w I p.t.q.q.w.t.q.=.*.*.& x m.m.,.O.g.s.c.",
"s 7 8 8 o 7 s s N SXSXSXFXAXZXNX=.z X.i.i.*.i.t.t.D.S.S.8.y $ G +.T w %.` ` Y U H # 2.BXjX].Q.%.O.j.",
"g Y.a.a.a.T.a.N N vXAXSXZXZXZXNX..b ` [ ] & * 6 6 y w e S y @ # # @ & + + . + # 2 3 3.nXcXdXuXK.K.I ",
"N GX[.[.[./.R.>.n ZXnXZXNXNXZXmX' z M r b h.l.s.j.g x n n M N O.n j d d j j j j > d C.kXgXgXuXJ.7.H ",
">.DX[.[.[.].a.k k bXjXjXjXmXlXyXy z x.x.U.m.x.x.x.d.W.VXnXBXcXVXxX<.s Y.vXxX[.[.{ d 2.sXsXiX_.J.J.w ",
"n hX]./.]./.a.k q ` l [ [ ` r t w z VXvXvXxXxXxXFX8 hXnXnXnXBXnXkX%.7 >.hXR.a.a.X.7 >.fX`.G.K.F.D.H ",
"` xX/./.~.!.u.k s z l l r k r ; > n GXVXxXzXzXfXdX* 2.!.C.nXNXlXgXgXr >.[.R.R.u.{ s b I I ..#.Y T 6 ",
"k a.~.!.!.!.%.8 n BXVXvXdXNXfX1.> n SXBXzXzXkXkXiX* uXbXdXgXlXgXyXH.t >././.!.!.<.j f j k 9 r 7 7 p ",
"> k { { %.` t & n nXhXxXnXxXkX3.s x mXbXkXjXgXgXjX* ^.%XJ.p.yXD.q.=.& <.fX/.!.!.<.7 M.nXdX!.e.e.e.6 ",
"g x j n l n x g N ).).NXnXbXkXA.z l gXp.R K A 5.0.| Z D ~ D V A %Xi.* <.sX`.^.^.<.q y.~.a.u.%.q.=.w ",
"v ].DXxXxXhXQ.j X.` ZXmXbXjXsXF.7 l = .X;X-X=XA     4X>X,X3X6X#X= | 6 k ` =.=.` K l y.u.u.1.k %.[ e ",
"3.GXhX].].~.1.q T.zXH.lXjXiXyXK.* O 4XwX0X:X}.O @X X}.:X1XqXKXqX4X= n g d s > z b ,.2.3.q.%.0.*.Y O ",
"<.xXfXsXsX`.w.r sXzXjXyXgXuXr.P 0.O .XoX( B / -X,X,X}.C XX3XwXqX3X|.K j T.nXdX'.H.z X.0.=.q.*.+.P S ",
">.fXgXgXuX_.=. .@.:.i 6 :.P P w r.X...O ~ }.^ ) *X,X,X@XC O J ( .X*XB { zXfXsX`.V.q 6 i w e = $ % S ",
"X.y.iXyX%XK.*.l ;.T 9 < q 6 9 a v N 0.~ *X_ tX8XS >X<X>X|.#X#XO   O B A kX`.iX^.*.j s.> ; X X o ; > ",
"j ` =.1.2.7.I b c.m.m.j.g x N M.W.zX= *X*X#X8X8X+X:X<X>X+X#X8X_ ~ R | * gXuX_.K.&.u c M b b ,.,.z.M ",
"f z f d k.M n.l.I.I.m.m.n.T.FXxXhXK.C :X@X) +X+XF :X,X>XD ^ .X) *XB | 4.yXyXK.B.x v m.3.C.;.)._.Q.w.",
"n zXE.v M.l.z.z.U.c.{.cXjX2.cXzX].p.XX>X,X:X>X:X-X,X3X3X2X:X:X>X>X|.6.8 l ` ` x d.l.(.`.`.1.H._.K.q.",
"e.sXiXE.n MXMXH.z cXcXkXjXV.>.jX].9.@X<X<X<X<X<X<X<XqXwX7X<X<X<X,X*XA x M x v j.h d.B.K.K.uXH.G.F.:.",
".._.V.o.7.lXgX .B.bXjXjX3.V.'.(.`.9.@X<X<X<X<X<X<X<X0X9X;X@X<X<X,X-X4.gXxX].uX(.!.1.b *.w.yXG.D.D. .",
"k H.H.C.i l B.(.e.K.M.(.2.kX].].1.%X X<X<X1X<X1X-X*X|.D / :X<X<X,X@X9.lXfXjX_.K.G.=.&.#.8.J.D.D.S.Y ",
"t [ T H & 2.'.).V.C.MXcXcX).'.E.Q.p.^ >X1X0XqX0X/ C C XX:X,X<X<X>X^ p.kXuXyXH.G.F.#.p m.,.;.8.#.+.b ",
"p : 9 l c M.Q.Q.V.NXMXcXlXdXQ.H.y.i.V -X0XeXrXeXqX>X,X<X,X,X<X<X-XV pXaXyXL.G.B.%.t d j.l.m.z.z.h.g.",
"n {.W.).).n C.u.X. .jXjXjXuXH.y.r.q.K  XqXeXeXeXwX<X<X<X<X<X<X>X~ 6.+.=.7.*...+.u > N cXkXiX^.^.lX] ",
">.].~.dXZ.l y.w._._.;.yXyXK.G.w.&.6.p.O ;XeXeXeXqX<X<X<X<X<X,X X= n > > c c.U.v s.g `.sX).K.Z.V.F.K ",
"y.hXi.<.[ q r F.Z.t.e...G.B.B.*.H # $ T % #XqX0X1X1X<X<X,X>X|.V D.zX(.(.C.,.M.B.O.z V.`.^.G.F.t.D.P ",
"1.!.!.^.e.7 q 7.t.r.%.] ] U = # X ; < v %X4.~ XX>X:X>X:XXXC 9.%XpXK.V.V.e.=.yX7...& w.K.K.G.D.S.S.U ",
"q.Q.K.Z.e.r f T *.#.K w . @ o u ,.n.n.n.P.CX= $XF D .XF J CXKX| q.i.e.q.:.] Y *.] & 6.G.J.D.D.D.L.R ",
"<.H.J.F.;.u M 0 $ $ + X : j ).cXsXfX'.uXX.CXR wX5X9XJX5XZ KXHXH } q.:.&.+.7...Q U @ t +.5.#.$.P e L ",
"[ q.D.B.o.j.d.g 5 5 p f s.M.nX'.`.^.J.t.i %XD 3X0XqX0X3XV JX+.# I *.*.t.6.#.+.+.H @ : > r r t 6 3 1 ",
"q r i b M h Y.jXjXfX`.3.v ,.`._.K.H.F.w.w 7.V 1X1X2X,X X4.OXW # 5 T 7.$.} ! Q L G # m O.w.*.+.! P 5 ",
";.bXuX_._.b hXfXfXsXgXdX6 n _.H.F.D.S.B.6 l R XX1X,X-X% OXE H 2 m ! $.6.T E L S 2 y v. .#.+.T U L $ ",
"y._.V.t.=.u uX`.).^.^.K.&  .G.G.S.B.S.6.u q E V 7X:XB OXZ L L L A.N.$.! U E L S Q h.O.&.] W U K G # ",
"T B.7.*.T r uX_._.K.J.F.& 7 #.#.$.=.$.T q a L A 5X^ 5.L 1 0 2 y b.A.P.8.! Q a b.&Xh.-.$.e L L G y 0 ",
"3 P T T  . .L.H.K.J.D.D.& z ; 4 & 6 6 @ < v # J V = L 2 y 0 a g.k.A.v.h.h.k.c.c N.v.u 3 : q 1 y p g.",
"d v n.v g.v G.G.D.D.S.S.$ ,.kX`.^.V.r.w...q m q   ' q c s.c ].(.L.O.`._.L.b.;.&.! 0 v z.z.g.c c v g.",
"2.`.lX_.b z S.7.$.S.8.L $ C.Z.e.=.&.#.} W 3 8.2.. Z.B.b g B.^.V.e.' r.w.=.@.} Y L @ 1.C.V.2.V.D.7.i ",
"1.jXi.q. .q & e w U ! S 2 2.V.=.%.+.} W K & &.K.p.J.i.*.7 ' 1.=.=.=.&.&.[ ] U K L @ =.i.t.=.#.| } % ",
" .K.q.=.P 2.b c N.Q L h.c l q.@.| } U K J +  .K.i.J.i.5.5 t :.=.@.@.t Y Y U K L S 3 &.w.*.+.| T U 2 ",
"` ] =.@.w.6.+. .o.b.FXN.m X.=.} Y U H H G $ ' K.F.D.p.} 9 a a #.| U H H U H L S # a ' +.| ] Y U L % ",
"] *.t B.6.+.W U P -.&X&XQ &.$.W U H H G % # #.J.D.p.S.W 0 I #.T H = G e L G L S Q ;.+.} T E U U L 2 ",
"q u a $.E R L L Q b.P.N.b.a 2 2 2 S 2 w u 0 S.5.5.$.$.H m t H e = % S S $ y y a N.b.y y e G G e L 2 ",
"s.d.p 3 ! 8.! -.v.h.c.v.P.a ; X @ @ X 1 5 z O.5.+.! ! o.g.u @ O + @ @ 1 1 d.k.k.m v.a 0 1 3 X 3 0 c "
};
