/* XPM */
static char *out[] = {
/* columns rows colors chars-per-pixel */
"64 64 235 2 ",
"   c #0B0C0E",
".  c #1B0D0E",
"X  c #0D120E",
"o  c #1A150E",
"O  c #0E0714",
"+  c #0B0C12",
"@  c #0B0D1B",
"#  c #160E17",
"$  c #0E1313",
"%  c #0D111B",
"&  c #121615",
"*  c #1B1013",
"=  c #151B14",
"-  c #1A1D16",
";  c #13151C",
":  c #151C1C",
">  c #191E1E",
",  c #250D0A",
"<  c #29120B",
"1  c #38170B",
"2  c #271C1A",
"3  c #381B13",
"4  c #18290F",
"5  c #1A2617",
"6  c #1B221C",
"7  c #1E3313",
"8  c #24281B",
"9  c #352B1C",
"0  c #26321C",
"q  c #29341E",
"w  c #273A19",
"e  c #160E29",
"r  c #0E1327",
"t  c #171626",
"y  c #191E21",
"u  c #161536",
"i  c #291B24",
"p  c #261D3A",
"a  c #1C2224",
"s  c #1F2428",
"d  c #232424",
"f  c #282824",
"g  c #21262A",
"h  c #23292D",
"j  c #382A2E",
"k  c #2C3623",
"l  c #343B25",
"z  c #272A33",
"x  c #37383A",
"c  c #461D0C",
"v  c #40240F",
"b  c #4C210D",
"n  c #53240D",
"m  c #5A290D",
"M  c #513514",
"N  c #632E0E",
"B  c #69330F",
"V  c #6C3611",
"C  c #743910",
"Z  c #493832",
"A  c #2A4615",
"S  c #314C1A",
"D  c #2D5A12",
"F  c #355618",
"G  c #306E0C",
"H  c #3A7A0D",
"J  c #3A6916",
"K  c #3D7514",
"L  c #3A4829",
"P  c #3D4B2E",
"I  c #534E16",
"U  c #45561C",
"Y  c #7C4313",
"T  c #6C5319",
"R  c #4B6A1B",
"E  c #566815",
"W  c #477B16",
"Q  c #577716",
"!  c #79671A",
"~  c #667117",
"^  c #77791C",
"/  c #4F4C2E",
"(  c #44542D",
")  c #534435",
"_  c #455631",
"`  c #4B5E34",
"'  c #6A5A32",
"]  c #4E6D24",
"[  c #4E6436",
"{  c #54663A",
"}  c #536B39",
"|  c #57753A",
" . c #5A733D",
".. c #6A672A",
"X. c #77692A",
"o. c #68772A",
"O. c #76742F",
"+. c #686734",
"@. c #181B45",
"#. c #211C4A",
"$. c #211D52",
"%. c #292448",
"&. c #362D4C",
"*. c #27235A",
"=. c #282968",
"-. c #2B2C71",
";. c #2E2F7B",
":. c #2C317D",
">. c #333479",
",. c #454A44",
"<. c #695848",
"1. c #5E7940",
"2. c #7D6441",
"3. c #627D43",
"4. c #834313",
"5. c #8B4914",
"6. c #944D15",
"7. c #87591B",
"8. c #995216",
"9. c #A45918",
"0. c #AB5D18",
"q. c #996A1A",
"w. c #8B701A",
"e. c #AC631A",
"r. c #B2641A",
"t. c #B56A1B",
"y. c #B96D1B",
"u. c #A5741C",
"i. c #BD731D",
"p. c #B8781D",
"a. c #826B27",
"s. c #966B22",
"d. c #997423",
"f. c #897632",
"g. c #A87927",
"h. c #B27D22",
"j. c #C0771E",
"k. c #C37A1E",
"l. c #C57D20",
"z. c #8A764A",
"x. c #2A8E00",
"c. c #3C8709",
"v. c #2E9500",
"b. c #359500",
"n. c #3B9601",
"m. c #359A00",
"M. c #3C9A00",
"N. c #3D950B",
"B. c #3DA100",
"V. c #478B0A",
"C. c #588D0C",
"Z. c #429604",
"A. c #439D00",
"S. c #499E02",
"D. c #44920B",
"F. c #48970A",
"G. c #4C9B0B",
"H. c #54950C",
"J. c #54990A",
"K. c #468713",
"L. c #568818",
"P. c #4B9714",
"I. c #559814",
"U. c #658616",
"Y. c #6E8C18",
"T. c #45A101",
"R. c #4BA301",
"E. c #4DA901",
"W. c #4DA109",
"Q. c #51A601",
"!. c #55A706",
"~. c #53AA01",
"^. c #56A117",
"/. c #578928",
"(. c #579825",
"). c #5D9333",
"_. c #5F9138",
"`. c #6E8926",
"'. c #61843E",
"]. c #628D3D",
"[. c #659A36",
"{. c #64923C",
"}. c #5FA526",
"|. c #68A533",
" X c #5F8040",
".X c #648444",
"XX c #688647",
"oX c #658A42",
"OX c #6A8A46",
"+X c #6A9241",
"@X c #B7811F",
"#X c #958232",
"$X c #B58127",
"%X c #B38832",
"&X c #C6821F",
"*X c #C68624",
"=X c #CB8522",
"-X c #CD8922",
";X c #D38F24",
":X c #CB922D",
">X c #D69426",
",X c #DC9B27",
"<X c #DC9C2B",
"1X c #CF9934",
"2X c #E09F29",
"3X c #DDA02E",
"4X c #DAA437",
"5X c #E2A32B",
"6X c #E3A632",
"7X c #E5AA34",
"8X c #E6AD39",
"9X c #EBB33C",
"0X c #96824B",
"qX c #A18748",
"wX c #A58A52",
"eX c #B89A58",
"rX c #A8936A",
"tX c #DEAF48",
"yX c #EDB944",
"uX c #EEBB44",
"iX c #F1BF47",
"pX c #EABF53",
"aX c #C6A96A",
"sX c #C4AE79",
"dX c #F2C24C",
"fX c #F5C955",
"gX c #F1C858",
"hX c #F9D564",
"jX c #2C3482",
"kX c #31378A",
"lX c #333B95",
"zX c #353D9A",
"xX c #36409F",
"cX c #3641A3",
"vX c #3845AB",
/* pixels */
"Q.Q.E.E.R.E.~.~.Q.R.R.A.S.S.R.R.A.n.M.M.T.E.Q.H.~ ....X.O.+.' { ' +.+.+...o.`.U.F.A.R.R.S.Z.A.M.n.b.x.x.n.M.n.A.R.E.R.A.m.n.T.R.",
"E.E.T.R.R.E.Q.Q.R.T.S.A.A.R.T.A.A.n.A.A.R.J.J.U.~ ..X.X.f.f.+.+.X.a.a.f.a.O.^ U.L.V.J.R.A.A.A.Z.n.b.b.b.A.A.M.A.E.Q.R.M.n.m.A.R.",
"T.T.M.B.R.R.A.A.M.A.A.A.A.A.M.M.n.M.A.R.G.H.Q ~ ! 7.q.g.g.h.d.s.s.d.h.g.f.f.a.X.~ Q H.W.S.A.M.b.n.n.M.A.S.S.A.A.R.E.A.M.n.n.M.T.",
"T.T.M.A.R.R.A.n.n.M.A.A.A.A.M.n.M.M.S.J.H.U.^ a.s.g.h.*X1X1Xl.p.y.p.:X:X:X%Xg.q.X.X.U.I.J.S.n.b.b.M.A.R.R.R.M.T.R.A.A.M.M.M.M.A.",
"T.T.~.E.E.R.R.A.A.A.T.T.A.A.A.M.M.A.W.H.~ w.w.$XqX4XtX8X8X4X>X=X&X&X>X2X4X4X1X:Xg.w.Y.U.H.G.b.b.b.n.A.S.S.A.m.m.M.T.T.B.T.M.A.M.",
"T.R.~.~.R.S.S.A.A.A.T.A.Z.n.A.A.A.R.^.Y.^ s.@X:XtXpXpXiXyX6X>X=X&X&X>X5X7X9X9X4X:X@Xd.^ U.F.N.b.b.n.A.R.T.M.B.M.M.M.B.T.B.A.A.M.",
"E.E.~.~.A.A.A.R.T.T.M.m.n.M.M.A.A.J.I.`.f.$X:X4XgXhXgXfX8X<Xl.l.k.k.>X2X5X7XuX9X3X:X@Xd.Y.L.Z.n.n.A.R.R.T.A.T.T.T.T.A.M.M.B.n.n.",
"R.~.~.~.A.M.A.A.T.A.M.n.n.n.Z.A.S.J.Y.Y.%X%X3XuXhXhXhXgXtX<X=Xl.k.&X,X7X5X9XuXdX9X3X*Xg.^ Q F.A.M.A.E.E.R.R.~.~.E.R.A.n.B.M.n.n.",
"S.S.!.Q.A.M.M.M.A.T.R.S.A.n.n.A.J.C.~ w.@X;X7X9XfXhXhXhXiX8X<X>X;X<X8XyXyXyXiXiX9X7X>X$Xw.~ C.S.A.A.E.E.~.~.~.~.~.R.Z.Z.n.M.m.n.",
"A.S.Q.Q.S.A.n.n.A.E.~.~.A.A.Z.F.J.U.w.q.@X,X5X9XiXfXfXfXfXyX8X7X6X8XyXpXiXiXuXuX9X7X5X&Xq.! ~ J.G.T.E.E.~.~.~.~.~.R.S.A.T.M.n.b.",
"Z.S.~.~.S.A.n.A.Q.~.~.~.Q.S.A.F.C.Y.w.p.&X,X2X7X8XyXyXiXfXfXiXuXuXiXfXfXdXiX9X9X7X5X,X-Xu.w.^ U.J.T.Q.~.~.~.Q.Q.R.R.R.S.E.T.n.m.",
"A.A.~.~.S.A.A.S.~.~.~.~.Q.S.S.F.U.Y.u.p.;X>X,X2X<X<X6XyXiXiXiXiXiXiXdXiXiX9X9X5X5X,X,X-Xp.q.w.~ F.R.R.E.E.E.R.A.A.S.Q.Q.R.A.n.m.",
"A.A.R.R.R.Q.Q.~.~.Q.Q.E.S.T.R.F.~ ! u.p.l.;X,X<Xl.l.>X3X6X7X7X8X8X8X8X7X7X6X5X2X,X,X-X=Xj.u.X.E V.S.S.R.A.A.A.A.n.M.S.R.n.n.A.A.",
"A.A.A.S.R.Q.~.~.E.R.R.A.A.A.R.C.E T q.t.k.=X>X;Xl.l.=X;X;X,X2X5X5X2X>X>X,X2X,X,X,X&Xk.i.y.e.T E V.Z.S.S.A.A.A.A.n.n.A.A.n.n.Z.A.",
"R.T.R.T.R.A.R.R.A.A.A.A.M.T.Q.J.E T 7.8.r.j.l.=Xj.y.l.l.k.k.>X,X,X;Xk.k.;X,X>X;X&Xj.t.0.q.7.T R F.T.A.M.M.M.R.T.n.n.A.A.A.Z.A.Z.",
"A.R.R.R.M.A.A.A.A.M.n.A.M.A.Q.J.Q I T 4.9.t.i.l.y.y.y.j.y.j.=X;X-Xk.y.y.k.-X=Xk.y.r.0.8.5.Y I Q H.T.M.n.n.M.R.R.Z.Z.A.A.S.S.A.A.",
"A.A.R.T.n.n.M.T.B.M.M.M.A.T.R.G.L.E M B 5.0.r.t.y.y.r.r.r.y.l.l.j.y.r.r.t.y.i.t.e.8.8.4.N M E L.F.R.M.n.n.M.T.R.S.A.A.R.T.T.T.R.",
"A.A.T.A.m.n.A.T.T.A.M.M.B.T.R.W.G.Q I M 4.8.8.e.r.r.0.0.0.0.t.t.r.r.0.0.r.r.r.9.8.5.Y V n I R P.S.R.M.n.M.M.T.T.A.R.R.A.T.A.T.R.",
"S.S.A.A.b.b.T.R.T.A.M.A.A.A.R.W.J.L.U M V Y 5.8.9.0.9.9.8.8.9.0.0.0.0.0.0.0.0.8.4.C N m M F W G.W.R.A.Z.A.T.M.T.S.R.A.Z.A.A.T.T.",
"Q.R.R.A.n.M.R.E.A.A.A.A.n.A.T.R.G.W F M M N C 4.6.6.6.5.4.4.5.6.6.6.9.9.9.8.6.4.V m b 3 Z F K.G.E.R.A.A.T.T.T.M.A.A.A.A.A.A.T.T.",
"Q.Q.~.E.R.R.R.T.M.M.A.M.b.b.M.N.V.R w 8 1 c n N C C V B B N B C C C 6.8.5.4.C B m b 1 < 8 A K F.R.R.R.S.M.M.T.A.A.M.T.T.R.E.R.R.",
"E.Q.Q.~.R.A.R.A.A.M.A.n.b.b.N.D.G F w 2 o < 1 b m m m m m m m m N B 4.5.C B N m b 1 < < = 7 D H D.S.R.T.M.M.S.T.B.M.B.T.E.E.R.A.",
"A.A.A.A.M.B.B.B.M.M.A.n.n.Z.V.W S 0 6 > . , < 1 c c b n n n n n n m B N m m n b 1 < o X : 5 7 D K D.G.A.M.M.A.R.M.M.A.T.E.E.T.M.",
"A.A.A.A.n.M.B.M.A.A.Z.M.A.D.K.J w 5 > > &   . , < 1 c b n n n b n n m m b b b 1 < o o = : y : 7 F K D.B.A.M.R.T.B.T.A.T.E.E.B.M.",
"A.A.T.M.m.m.M.n.A.A.n.A.R.F.R S 7 5 > a a 6 & * . < 1 c n n n n n n n b c c < , o = 6 : a : : 5 A J V.A.A.T.T.T.T.R.R.R.R.T.T.M.",
"A.A.T.B.n.n.M.A.Z.Z.Z.S.Q.D.D w 5 : a a s s : = . , < c v n b b c c c c c 3 < , 6 a s s a 6 a 5 w D c.Z.M.M.M.T.T.T.R.R.E.R.B.B.",
"T.T.M.M.A.T.M.A.A.A.Z.Z.G.W A 5 6 a a a h s a a > > 2 3 3 3 3 3 c c 3 3 2 y i y s s h g s a a a 5 A H D.N.M.n.M.M.A.R.Q.~.~.T.B.",
"T.M.M.A.T.R.T.T.A.A.Z.Z.c.J 7 6 a a a a s h s s d a a i 2 3 3 3 1 < 3 2 i i y g g g h h s s a a 6 7 D K.N.M.n.n.M.A.R.E.~.~.R.T.",
"M.M.A.A.R.R.M.n.A.A.A.V.J S 0 a a a a s s s z z g d a d d i 2 2 i d 2 8 2 d g g h h s s s s a : y 7 S J V.M.M.M.A.T.A.A.~.~.~.Q.",
"A.A.A.R.R.S.n.m.A.A.A.H S 0 6 6 a a a a s s z z z h g g s d d d h h d 8 f f h h h h s s s s : y : a k S c.M.n.M.R.A.M.A.E.~.Q.Q.",
"E.E.Q.Q.R.A.n.n.R.Q.F.G w 4 - : 6 a a a s s s s h h g g h h g h h h h h h h h h s s s s s a 6 : : 6 5 7 G b.b.n.A.A.n.M.A.R.R.R.",
"~.Q.R.S.S.A.b.n.E.J.V.J 7 o = 6 a a y a a a s s g h z h h h h h h h h h h h h h s s a a s a a : : 6 = 7 D H c.n.M.M.n.M.A.S.R.R.",
"Q.E.S.A.Z.A.b.m.A.D.K D 4 & : : a : a : a a a s h h h h z h h h h h h g h h h s s a a a a y a 6 : : $ 4 S J x.m.N.M.n.A.E.Q.A.A.",
"Q.R.A.m.n.n.b.m.M.N.K S 5 $ & ; : : : a a a a a s s h h s s s s h h g s s h s s a a a a a a : : : & $ 5 S K c.m.n.M.M.A.R.R.A.A.",
"R.T.m.m.n.M.m.n.M.N.W F 4 X & & $ : : a : a a : y a s s s a y a g g s s s s s a a 6 y a y : : $ $ $ X 4 F W N.M.M.A.R.S.M.n.M.M.",
"E.T.B.m.M.M.n.n.n.N.K.J 7 X $ ; $ $ % : : : : : y : s a a 6 y y d a y a a a y : > > ; = : $ $ + $ $ $ 4 J K.Z.M.A.T.R.S.M.n.M.M.",
"~.E.B.B.M.M.m.b.n.M.G.W w 2 ; % + + X X X X $ $ % : 6 a : : ; y a 6 6 a ; ; ; : $ $ & $ X     O % r > A W F.R.R.T.S.S.A.A.A.A.A.",
"R.T.B.M.A.A.n.m.n.T.Q.V.F q h t & $   + + + + % % r : r % % : : % : r : ; ; ; % % O +       O e t g f S W J.R.E.R.A.Z.A.A.R.A.M.",
"A.M.b.b.A.T.A.M.A.T.~.H.( Z x Z Z i $ O @ @ @ @ r r r r r r @ @ @ % r r r r r r @ @ @ # O * j j Z x l S c.A.A.A.A.A.Z.n.Z.M.A.n.",
"n.n.b.M.A.T.A.T.T.R.E.H.R / <.<.<.Z f # % r u @.@.@.@.@.@.@.u e r u u @.@.@.@.@.u u e # * i ,.<.<.<.) F c.A.A.A.A.A.A.n.M.Z.A.A.",
"n.Z.S.S.A.A.Z.A.R.E.R.F.R ' 0XrXrXz.Z v j p *.-.;.;.jXjX-.=.=.=.=.=.=.=.;.jXjXjX-.*.p i 3 ) z.rXrXz.' F c.M.M.T.R.R.A.n.A.S.R.R.",
"A.A.S.R.S.S.A.A.R.E.T.V.] +.wXaXsXrX' Z Z %.>.kXlXzXzXlXkXjXjXkXkXjX:.jXzXxXzXzXkX;.&.j Z z.rXsXaXqX+.U c.M.M.T.Q.R.A.A.A.R.Q.Q.",
"R.S.R.R.Q.Q.R.S.A.S.R.F.] 1.z.eXsXaXwXz.) &.>.zXxXcXcXzX;.;.lXxXxXlX:.:.zXcXvXcXzX>.&.Z z.z.aXaXeXf.+.R K.b.n.T.Q.~.S.S.R.Q.R.R.",
"Q.R.R.R.~.Q.E.A.n.A.R.G.Q o.#XqXeXeXwX2.) &.>.zXcXcXcXkX-.-.zXvXvXlX-.-.kXxXvXcXzX>.&.Z 2.qXeXeX#Xf.o.W D.n.n.M.R.Q.R.A.R.Q.R.R.",
"~.~.R.R.E.R.A.M.n.T.R.W.I.`.`.O.f.z.' Z Z &.;.lXxXcXlX;.$.=.lXvXvXlX=.$.jXzXcXvXlX>.%.j ) ' f.z.#Xo.L.F.S.B.M.M.A.A.M.T.A.R.R.R.",
"~.~.Q.E.R.A.n.n.M.T.E.E.!.I./.o.O.+.I l p %.=.jXkXkX;.=.#.@.jXzXlX:.#.#.-.kXzXxXkX>.#.p j M ' O.'.L.F.R.R.T.M.M.A.M.M.M.A.A.R.R.",
"R.Q.~.E.T.M.b.m.A.T.T.T.R.G.P.L.o.] ` P &.%.*.=.=.=.$.@.e u *.-.-.*.u u *.;.kXkX>.-.*.p i 9 R /.L.H.G.R.R.T.m.m.M.A.A.M.A.A.T.R.",
"S.R.E.E.A.m.m.n.T.R.A.A.T.S.D.D.P.L.] _ x j %.#.#.#.u e O e %.&.*.%.t r #.=.-.-.=.*.%.%.i 9 R P.J.G.R.E.T.T.B.n.M.T.A.T.T.A.R.A.",
"T.T.T.B.A.n.m.m.T.T.A.Z.A.A.Z.Z.G.P.).| L s t t p t t % + > x ,.,.x > % p #.#.@.@.#.#.z P J K.D.G.A.R.R.A.A.A.M.A.R.R.R.T.T.M.M.",
"A.T.T.B.A.M.m.m.A.T.A.A.A.Z.M.Z.^.^.|./.L 6 - = > y ; & X 5 ( { { / 8 # t s u u e t t z _ | /.P.G.T.R.T.A.A.Z.A.S.E.R.E.T.T.A.M.",
"M.A.T.E.T.T.n.m.n.A.A.A.R.R.W.P.(.).[.| w 4 = = a y ; * & 0 [ 1.3.[ k - ; t t y # ; : k [  X).(.I.G.S.A.A.Z.n.A.R.Q.E.T.B.B.T.E.",
"M.B.E.E.R.T.M.M.M.M.A.R.W.W.P.(.).].oX[ 0 = = : a a ; & $ k } .X.X1.l - & & : : & $ $ 7 [ .XoX).(.I.G.S.Z.Z.A.R.Q.Q.E.T.B.B.T.E.",
"M.T.Q.~.S.M.M.M.T.T.M.B.R.I.(.[.]. X .P 5 X & : > > & & = 0 { .X.X{ l = & & 6 : : : & 5 _ 1.1.oX).(.P.Z.Z.Z.T.Q.~.~.R.A.B.T.E.E.",
"n.T.E.Q.A.n.B.B.E.E.T.G.P.(.).]..X1.` L 5 X : 6 y > & $ = 0 { .X3.1.l > & & a a 6 ; & 6 L ` 1.1.].)./.P.N.A.R.~.~.~.S.A.E.E.T.T.",
"T.A.R.A.n.n.T.E.~.~.E.G.(.).]..X.X| ( k & $ : a s s : : = 0 [ 3.3.{ k 6 a a a a 6 : : 6 k ( 1..XOX{.[.(.N.M.E.E.~.E.R.R.R.R.T.T.",
"R.R.R.A.M.M.T.E.~.~.W.G.(._.oXXX.X} P 0 5 & : a g h s 6 4 0 [ 3..X{ k - s s a a a : & 5 L _ | .XOXoX[.(.N.B.E.E.R.S.R.E.R.T.T.B.",
"~.Q.S.A.T.M.m.B.E.E.W.^.(._.oXoX X1.P 7 6 : : s z z h a - w { .X.X{ q 8 g z h g a : = 0 (  .1..XOX+X[.(.F.B.~.~.Q.E.Q.Q.S.A.A.Z.",
"~.Q.A.A.T.T.m.M.B.E.E.!.(.).oXoX X1.` L 6 6 a s h k h d 5 l } XXOX} A 8 f h h s a : 5 k [ .X.X.XoX+X[.^.F.T.~.~.Q.Q.Q.E.R.S.A.Z.",
"E.S.A.M.A.A.M.B.B.E.~.!.W.(.).].oX1. .` L 6 5 5 k f s a q P  .OXXX .( q 0 6 a 6 : 5 0 L | .X.XoX{.[.}.^.B.T.~.~.Q.R.R.R.R.R.A.A.",
"R.A.M.A.A.R.T.T.T.T.~.~.W.P.(.).].oX.X1._ L k k k k k L L [ 3.OXXX .` L l f k k 5 0 L [  .XX.X].).(.^.W.N.B.E.~.R.R.R.R.R.R.A.n.",
"R.R.A.A.R.T.T.T.A.A.R.R.W.!.^.(.[.+XoXoX1.} _ P _ ` [ { }  .XXOXXX.X .} ` _ _ ( P P | | .XoXoX_.(.G.W.R.M.M.R.R.A.A.A.R.Q.R.n.b.",
"A.T.A.A.T.T.T.M.M.A.A.R.R.E.!.^.(.)._.[.+XoX| } |  .1.3.XXXXOXOXXXXX.X . . . .| | '.'.]._.).)./.P.N.A.M.n.m.T.T.A.A.M.T.~.E.Z.b.",
"n.M.T.T.A.n.M.n.n.n.n.M.A.A.T.W.P.P.(.}.[.[.[.+X.X1..X.XOXOXXXXXXXXXOXXXXXXX.X'.oX_.+X_.).(.P.N.N.N.b.v.v.m.b.n.M.A.M.T.R.R.S.A.",
"b.n.T.T.n.n.m.b.b.b.n.n.n.A.A.B.T.W.^.}.|.|.|.[.oX.X.X.XOXOXXXXXXXXXOXOXOXOXOX{.[.[.|.).(.N.N.b.b.b.x.x.v.v.b.b.M.A.n.M.R.R.R.E."
};
