/* XPM */
static char *out[] = {
/* columns rows colors chars-per-pixel */
"64 64 241 2 ",
"   c #0A0E0D",
".  c #1A0E0D",
"X  c #1D130D",
"o  c #0B0E14",
"O  c #0E1213",
"+  c #0E111B",
"@  c #121515",
"#  c #1A1211",
"$  c #141B14",
"%  c #191B15",
"&  c #12151B",
"*  c #151C1C",
"=  c #191D1C",
"-  c #250D0A",
";  c #29120B",
":  c #38160A",
">  c #3E1A0D",
",  c #261A19",
"<  c #341A14",
"1  c #1A2C0F",
"2  c #1B221B",
"3  c #1B2618",
"4  c #1E3314",
"5  c #24291A",
"6  c #382F1A",
"7  c #27331C",
"8  c #273819",
"9  c #0E0F24",
"0  c #0D1223",
"q  c #0D1329",
"w  c #121523",
"e  c #161B22",
"r  c #191F22",
"t  c #17182A",
"y  c #191838",
"u  c #251E25",
"i  c #221E39",
"p  c #1C2224",
"a  c #1F2529",
"s  c #1F2139",
"d  c #242224",
"f  c #282C25",
"g  c #21262B",
"h  c #23292D",
"j  c #382E29",
"k  c #2B3721",
"l  c #323A28",
"z  c #272935",
"x  c #373735",
"c  c #461D0C",
"v  c #4C210D",
"b  c #52240D",
"n  c #58270D",
"m  c #5C2A0D",
"M  c #513614",
"N  c #632E0E",
"B  c #69320F",
"V  c #71370F",
"C  c #6B3712",
"Z  c #733810",
"A  c #473429",
"S  c #493633",
"D  c #2C4818",
"F  c #324A1A",
"G  c #2B5311",
"H  c #355718",
"J  c #2F6E0C",
"K  c #39790D",
"L  c #3A6915",
"P  c #3D7614",
"I  c #384729",
"U  c #3B4E28",
"Y  c #3C4433",
"T  c #524E15",
"R  c #45551B",
"E  c #7D4313",
"W  c #6D541B",
"Q  c #566816",
"!  c #477314",
"~  c #467815",
"^  c #567A17",
"/  c #676E17",
"(  c #776518",
")  c #67761B",
"_  c #787A1E",
"`  c #445929",
"'  c #454C34",
"]  c #495834",
"[  c #535134",
"{  c #695A34",
"}  c #4F7327",
"|  c #4E6436",
" . c #546A36",
".. c #516438",
"X. c #546C3B",
"o. c #57763A",
"O. c #5A753E",
"+. c #69672A",
"@. c #786527",
"#. c #6F7131",
"$. c #171B45",
"%. c #221D47",
"&. c #231F52",
"*. c #1F2052",
"=. c #282448",
"-. c #322948",
";. c #3E3746",
":. c #262458",
">. c #282967",
",. c #31306F",
"<. c #2A2D73",
"1. c #2E2F7B",
"2. c #2E3076",
"3. c #2C317D",
"4. c #323378",
"5. c #685D49",
"6. c #5E7941",
"7. c #6F6948",
"8. c #6C7441",
"9. c #617D42",
"0. c #874614",
"q. c #954D15",
"w. c #87591B",
"e. c #995216",
"r. c #A45918",
"t. c #AA5D18",
"y. c #97681A",
"u. c #8E721C",
"i. c #AD6319",
"p. c #A36C1D",
"a. c #B1631A",
"s. c #B56A1B",
"d. c #B96D1B",
"f. c #A5781E",
"g. c #BD731D",
"h. c #B8781D",
"j. c #976C22",
"k. c #8B7129",
"l. c #877835",
"z. c #A87827",
"x. c #B47E21",
"c. c #C0771D",
"v. c #C37B1E",
"b. c #C47D21",
"n. c #8C784C",
"m. c #2A8D00",
"M. c #3B8808",
"N. c #2F9300",
"B. c #359400",
"V. c #3B9601",
"C. c #369A00",
"Z. c #3D9A00",
"A. c #3D9209",
"S. c #3EA000",
"D. c #488A0B",
"F. c #578A0B",
"G. c #429504",
"H. c #439D00",
"J. c #4A9D04",
"K. c #44930A",
"L. c #4C940A",
"P. c #47980A",
"I. c #4C9D0B",
"U. c #53980B",
"Y. c #4A8814",
"T. c #588818",
"R. c #4A9614",
"E. c #559916",
"W. c #678E15",
"Q. c #65861A",
"!. c #45A100",
"~. c #4BA301",
"^. c #4DA901",
"/. c #4DA109",
"(. c #51A601",
"). c #53A901",
"_. c #5AAC02",
"`. c #53A30A",
"'. c #56A116",
"]. c #5B8A27",
"[. c #589826",
"{. c #5B942C",
"}. c #5B8836",
"|. c #5D9333",
" X c #688D29",
".X c #688739",
"XX c #628D3C",
"oX c #669B36",
"OX c #64923B",
"+X c #5FA426",
"@X c #69A434",
"#X c #5F8141",
"$X c #648445",
"%X c #688746",
"&X c #658A42",
"*X c #6A8A45",
"=X c #708A43",
"-X c #B7811E",
";X c #8B8338",
":X c #B7832A",
">X c #C5841F",
",X c #CB8522",
"<X c #CD8A21",
"1X c #C78B29",
"2X c #D18E23",
"3X c #CD922C",
"4X c #D59224",
"5X c #D79527",
"6X c #DC9A27",
"7X c #DC9C2C",
"8X c #CE9734",
"9X c #DEA02D",
"0X c #DCA437",
"qX c #E1A32C",
"wX c #E2A632",
"eX c #E5AA33",
"rX c #E5AD3B",
"tX c #EAB33B",
"yX c #9A8447",
"uX c #9B8459",
"iX c #AD9452",
"pX c #BFA15C",
"aX c #B59C66",
"sX c #BDA572",
"dX c #DEAF48",
"fX c #EEBA43",
"gX c #EDB946",
"hX c #F0BE47",
"jX c #EABF53",
"kX c #C6A969",
"lX c #F2C046",
"zX c #F2C24B",
"xX c #F5C955",
"cX c #F1C858",
"vX c #F9D564",
"bX c #2F3381",
"nX c #313689",
"mX c #333A94",
"MX c #353E9B",
"NX c #36409F",
"BX c #3743A7",
/* pixels */
"(.(.^.^.^.~._.).(.~.~.J.!.!.!.~.G.Z.Z.Z.!./.`.E./ +.+.+.#.#.{ { { +.{ #.{ #.Q.Q.Y.L./.~.!.Z.Z.H.V.B.m.m.V.H.V.Z.~.^.!.Z.B.B.!.~.",
"^.^.!.~.~.^.(.^.~.H.H.H.!.!.~.H.H.Z.Z.H.!.`.E.Q.+.( @.@.l.l.#.@.{ @.k.l.l.k. X) ^ T.`.~.!.Z.H.Z.V.B.B.B.H.H.Z.H.^.^.!.Z.Z.Z.H.~.",
"!.!.Z.S.~.~.!.H.H.H.H.H.H.H.H.G.G.G.H.H.J.U.^ / ( @.j.z.x.:Xz.j.y.j.x.x.z.j.j.( Q } R.`.~.!.Z.B.B.Z.Z.Z.H.H.H.H.~.^.H.H.Z.Z.Z.!.",
"!.!.Z.H.~.^.H.Z.Z.Z.H.H.H.H.G.Z.H.H.H.J.U.T._ @.j.z.:X1X3X3Xx.x.h.x.1X8X8X:Xp.j.k.+.Q.W.`.~.C.B.B.Z.Z.!.!.H.Z.H.~.J.H.H.S.Z.Z.H.",
"S.H.~.~.(.(.~.H.H.H.~.!.H.G.G.Z.H.J.I.'.Q.Q.u.:X:XdX0XdXrX0X3X,X,X,X8X0X0X0X8X1Xz.u.Q.W.E.I.V.B.V.Z.H.J.H.H.Z.C.Z.!.!.Z.!.!.H.Z.",
"!.~.(.).~.~.J.H.J.!.H.H.Z.Z.G.H.J.J.U.W.Q.u.-X3XdXjXzXjXgXwX5X,Xb.,X7XwXdXtXrX0X1X-Xj.Q.W.U.G.B.V.Z.H.J.H.H.Z.Z.Z.Z.Z.H.S.Z.Z.Z.",
"^.(._.(.J.H.H.H.H.H.Z.B.V.Z.Z.H.J.I.E.Q.f.x.4XeXjXvXvXcXrX7X,Xb.g.c.<X7XqXtXfXtX9X3X:Xu.Q.T.G.G.Z.H.~.~.!.H.H.~.!.!.!.H.Z.V.Z.V.",
"^.(._.^.H.Z.Z.H.H.H.Z.Z.V.Z.H.H.J.U.T._ z.<XqXtXcXvXvXcXrX7X,Xb.g.b.5XqXeXtXhXhXtX7X,Xx._ ^ L.J.H.!.(.^.~.~.(.).^.^.H.H.Z.V.V.V.",
"J.~.(.(.H.H.Z.H.!.!.~.H.Z.V.Z.G.U.F./ u.-X4XeXtXxXvXvXxXhXrX7X4X4X7XrXfXhXhXlXzXtXeX6Xh.u./ F.(.!.!.~.^.^.(._._.).^.J.H.Z.Z.V.B.",
"H.J.(.(.J.G.V.H.!.~.^.^.H.H.H.G.F.W.( y.>X6XqXtXhXxXxXxXxXgXdXwXwXdXhXzXzXzXlXtXtXeX6X>Xy.( F.(.J.!.~.^.^._._._.).~.J.H.Z.Z.V.B.",
"H.~._.).J.Z.Z.G.^.)._.).(.~.H.L.W.W.u.h.<X6X6XqXdXfXgXhXxXhXhXhXhXzXxXxXzXlXtXtXqXqXqX<Xs.y.) F.I.~.^.(.(.(.^.~.J.~.^.~.~.!.Z.B.",
"H.H.).).J.H.H.H.(._._.).(.J.H.L.Q.Q.f.h.2X6X6X6X7X7XrXgXhXhXhXhXhXhXzXzXlXtXtXeXqX6X6X<Xc.p.) ^ L.J.^.(.^.~.!.H.H.J.~.(.~.H.Z.B.",
"G.H.J.~.~.~.(.(.(.(.(.(.J.~.!.L.) @.f.-X,X4X6X6X,X,X5X9XqXeXeXeXrXeXeXeXeXeXqX6X6X6X>X>Xc.p.( Q D.H.~.~.!.!.H.H.Z.G.~.~.H.Z.Z.Z.",
"H.H.H.H.~.(.(.(.~.~.~.H.H.H.^.F.Q W y.s.v.b.5X5Xv.c.,X2X4X6XqXqXwX7X4X4X6X6X6X6X4X<Xg.d.d.p.W Q D.H.J.H.H.Z.!.H.V.Z.J.~.G.Z.H.G.",
"~.~.!.!.H.!.~.~.H.H.Z.Z.H.~.(.U.Q W w.e.a.c.b.b.d.c.b.b.v.v.4X5X5X2Xv.c.2X6X4X4X>Xh.s.i.t.e.W Q D.!.H.Z.C.Z.~.J.V.B.H.H.H.G.G.Z.",
"~.^.!.!.H.H.H.~.Z.V.V.Z.Z.~.).U.^ T E 0.r.a.c.c.d.d.c.c.c.c.,X2X<Xv.d.s.v.<X<Xv.d.i.t.e.0.W Q ! L.!.Z.Z.B.Z.~.~.G.V.H.H.H.J.H.H.",
"J.H.!.!.Z.Z.H.!.H.H.Z.Z.Z.!.^.`.T.Q M B q.i.i.d.d.d.d.s.s.d.c.c.c.c.a.a.d.d.d.s.i.r.e.E N T ! Y.J.H.H.V.B.Z.~.~.H.H.!.!.!.!.!.~.",
"H.!.~.H.B.V.H.~.!.H.Z.Z.!.!.^./.E.! T m E q.e.i.a.s.a.t.t.i.s.s.t.a.t.t.a.a.a.t.e.0.E C b M ! P.~.~.Z.V.Z.H.!.!.~.H.!.!.S.!.!.~.",
"!.!.!.Z.B.V.H.~.!.H.Z.H.Z.H.^.`.U.^ R T C E 0.e.r.t.t.r.e.e.r.t.t.t.t.t.t.t.r.e.0.C C M M R ~ I.(.~.H.G.H.!.Z.!.H.H.H.H.H.!.H.~.",
"~.!.!.H.V.Z.~.~.H.Z.H.Z.V.Z.~.~.L.~ R M M N Z E q.q.q.0.E 0.0.q.q.q.r.r.e.q.q.0.C m v c M H Y.I./.^.H.H.H.!.S.Z.H.~.~.H.!.H.~.H.",
"^.(.(.^.H.H.~.~.Z.V.Z.Z.N.B.Z.A.D.L D 6 : c b N Z Z Z B B B C C Z E q.q.0.0.Z B N v : : 5 D K I.~.~.~.H.Z.Z.H.!.Z.!.!.^.^.~.~.H.",
"~.^.(.^.H.!.!.H.Z.V.Z.Z.N.N.A.D.P H 7 , X ; : v n m n n n n n m m V 0.0.Z B N n v > ; X $ 4 G K K.J.~.!.V.Z.!.!.Z.S.!.^.(.^.!.H.",
"J.H.!.Z.Z.S.!.!.H.H.Z.Z.B.A.R.~ F 7 2 = # . - ; c c b b b b b b n n N N m n n c : ; X @ & 3 4 G P K.P.H.Z.Z.H.!.Z.Z.!.!.^.^.!.Z.",
"H.H.Z.Z.Z.Z.Z.!.H.H.Z.Z.Z.P.~ ! 8 2 2 * $ . . - ; < c v b b b b b b n n b c c > ; X $ & * 2 p 4 H P K.J.H.H.H.H.S.Z.H.!.~.^.S.Z.",
"H.H.S.Z.Z.Z.Z.H.H.H.Z.G.~.L.! F 5 % 2 p p * $ . - ; : c v b b b b b b v c c : - X % 2 p 2 * * 3 D L D.H.H.!.!.!.!.~.~.~.~.!.S.Z.",
"H.H.Z.!.Z.Z.Z.H.H.H.H.G.(.D.H D 1 $ * r a a * & # - < < c v v v c c v c c ; - - $ 2 p p p p p 3 k G M.H.H.Z.Z.H.!.!.~.~.^.~.S.S.",
"!.Z.S.Z.Z.H.H.H.H.J.G.H.J.! D 1 2 p p p a h a p = , , < < > > > c : c < < < u t a a a a p a p p 3 D K D.G.Z.Z.Z.Z.H.~.(.(.~.!.S.",
"H.H.Z.!.!.!.H.Z.H.H.G.G.D.L 4 * p p * p a h a a a p d u < , < < : : < , u u i u h h h a a p p p * 4 L K K.H.V.V.Z.H.!.(.).).~.!.",
"H.H.H.~.~.~.Z.C.H.H.H.D.L D 5 r 2 p p a a h z h g g g g d u 5 , , u , u u u z z h h a a a p p e * 3 D L D.H.Z.Z.H.!.!.!.)._.(.(.",
"!.!.J.~.~.H.V.C.H.H.G.K F 7 5 = p e p p a a h z h g g g a d p p g h d u u z h a h h h a a p r 2 p 2 k H M.Z.V.Z.H.!.Z.H.).).).(.",
"^.~.(.~.~.H.V.Z.~.(.L.J 8 1 2 p p p p p p p g h h h g g h h a h h h z g h h h h h a a a a p e e * 3 3 4 J B.B.Z.H.H.Z.Z.H.!.J.^.",
"(.(.~.~.H.Z.B.Z.(.`.D.L 1 $ * r p p p p p p a h g g a g h h h h z h h h h h h h h a a a p p p e * * $ 1 G K M.Z.Z.Z.Z.Z.Z.H.~.J.",
"(.^.H.Z.H.Z.V.Z.!.L.~ G 1 @ & w e e e p p a a a h h a h h h h h h h h a h h g a d g a p p r e = r * $ 1 D L A.B.C.V.V.Z./.^.J.H.",
"(.^.Z.C.Z.Z.V.V.!.D.P F 1 O + & * * 2 p p p p p a a h a a h a h h h a a h g a a p p p p p * = * & &   3 F P M.C.V.Z.H.H.~.~.!.H.",
"^.~.C.C.V.V.V.V.!.K.Y.H 1     O $ & * e p * p p p a p a a p p a a a p p a a a p p p p p * * * @ O     1 H ~ A.Z.Z.H.~.H.V.B.Z.H.",
"^.!.Z.C.B.V.B.V.Z.P.Y.L 4   + & + O & * & * * * p p p t r p r r p p p r p p p r = * = = * * % % 2 3 @ 1 L Y.G.H.H.!.~.H.B.B.Z.H.",
").^.S.C.A.Z.V.B.C.S.I.D.F u t q + O O + O   O $ $ 2 0 q 9 9 + % * 2 0 0 e 2 2 $ @ @ @ @ % # < < ' ` l F ! L.J.(.J.H.H.H.Z.Z.!.H.",
"^.!.Z.Z.H.H.V.C.Z.!.~.D.H f s y 0 * 3 3 $   O O $ + 0 0 9 9 + O $ $ 0 0 0 r * & + . @ # 5 6 A [ 8.8.] R D.U.J.~.J.H.G.G.H.!.H.!.",
"Z.Z.B.Z.H.~.H.Z.S.!.(.D.H x =.$.p p I I 3 O + 0 q q q q 9 9 + o o + q q q q q 0 9 + = , A W n.n.iXyX{ ` D.J.H.G.H.G.G.Z.Z.Z.H.H.",
"Z.B.V.Z.H.!.H.!.!.^.(.D.` x ;.;.x Y ] Y g e q y $.$.$.$.$.$.y q q q y $.$.$.$.$.$.y u A [ l.iXsXiXyX#.` D.G.G.H.H.H.G.Z.Z.H.H.!.",
"V.G.J.J.H.H.G.H.~.^.~.D.` [ 5.7.5.5...' f u :.1.1.1.bXbX<.>.>.>.<.>.>.>.<.bXbX3.<.:.=.S l.n.pXpXyX;X) T.K.Z.H.H.J.J.H.Z.H.J.^.~.",
"H.H.~.~.J.H.H.J.~.^.!.D.` { n.uXuXn.{ [ j -.2.mXmXMXMXmXnXnXnXnXnXnX3.bXnXMXNXMXmX<.-.S { n.iXiX;X#.].Y.A.V.Z.H.(.^.H.H.H.J.(.(.",
"J.~.~.^.(.(.~.J.H.H.~.D.R { uXpXsXaX7.{ S -.4.MXNXNXMXnX1.1.mXMXNXmX3.3.mXBXBXBXMX2.z j [ #.8.=X X) D.K.Z.V.Z.H.).).J.H.~.(.~.~.",
"(.^.~.(.(.(.^.H.Z.H.~.L.} #.yXpXkXsXuX7.S -.4.mXMXMXnX1.>.<.mXBXBXNX<.>.nXBXBXBXMX2.=.z [  ..X XQ.T.K.G.Z.Z.Z.S.(.).~.J.~.^.~.~.",
"_.).(.^.^.~.H.H.Z.H.~.`.Q. Xl.iXpXkXn.k.S -.,.bXnXnX<.:.*.:.mXBXBXmX>.*.bXNXBXBXMX4.=.x [ o.].E.'.`.J.H.H.!.Z.Z.!.H.H.Z.H.J.~.~.",
"_.).).^.!.Z.Z.V.Z.!.~.`.+X X X;XiXpXn.5.S -.:.,.>.>.:.&.$.:.3.mXNXbX:.*.<.nXMXMXmX<.:.z Y } Y.`._.).~.J.~.!.Z.Z.H.H.Z.Z.H.H.~.~.",
"!.^.).(.H.V.B.Z.H.~.~.~.U.E.Q..X;Xl.#.[ x i =.:.%.$.%.%.y %.>.>.>.>.*.*.>.2.nXmX1.>.:.z h F ~ U.(./.~.~.~.!.C.C.Z.H.Z.H.H.H.~.~.",
"!.!.^.~.H.V.B.C.H.~.J.~.(.`.E. X.X#.O.] j i z y 9 t y i y %.-.:.=.=.=.%.:.>.2.1.>.:.:.=.g 8 ! U.J.J.~.~.!.!.S.C.Z.H.!.H.!.!.!.!.",
"!.!.S.!.S.Z.C.C.!.!.J.H.!.J.I.E.|.OX.XX.l t t p e t y y i z ;.' x x i y i %.&.&.*.$.=.z x U } R.L.I.~.~.H.H.Z.Z.H.!.!.~.^.!.!.S.",
"H.S.S.S.!.Z.C.C.!.!.H.H.H.J.R.[.|.OX.X .k = * * r r t t t f ] ] ' j t q t y i y y g h Y U 6.}.{.R.I.~.~.H.H.H.H.!.!.~.~.!.!.!.S.",
"!.!.!.^.!.Z.Z.Z.H.H.H.H.H./.E.{.}.#X| I 2 @ @ * * p r e * k | 6.] Y % o w r t e & = Y Y 6.#X$XXX{.E.`.~.!.H.Z.Z.~.^.~.~.!.S.!.!.",
"Z.!.!.^.!.Z.Z.Z.H.H.Z.H.I.E.|.|.XX6.` D %   @ * r p = * $ 7 ..6...I % o & r r * O % Y U 6.$X$X&XOXoXE./.H.H.H.!.^.(.~.H.S.!.!.!.",
"Z.S.^.^.H.H.H.H.~.~.S.P.E.|.|.$X#Xo.U k $ o & e 2 r r * $ 7 ..6...Y u 0 & & r = @ % k U 6.6.$X$X&XOX{.E.P.!.~./._._.~.H.!.!.!.!.",
"Z.!.~.^.H.H.H.~.^.^.!.P.{.|.&X$X#Xo.U k $   $ * r p p 2 $ 7 ..6...x z q & * r r * * 5 l U 6.#X$X$X&X|.[.P.Z.~.(.).).~.~.^.^.!.!.",
"!.!.~.H.Z.V.J.~.).).^.I.|.}.&X$X#X6.U 7 O   $ p r p g p 3 7  .6...Y i q 0 0 e r * * * 5 I 6.#X$X%X*X&X{.A.Z.^.^.~.~.^.~.^.!.!.!.",
"~.~.H.H.V.Z.H.!.^.)./.I.|.&X&X$X#X6.] D 3 O & * * r p p 3 7  .6...' h w w w r p r = & 2 I U 6.&X%X&X&X|.R.Z.^.^.~.~.^.^.!.!.!.S.",
").(.J.H.H.Z.Z.S.!.^.!.'.[.|.%X&X$X6.6.U g $ O O @ % * 2 p Y 6.9.9.] f & p p h a p * * p I U 6.#X*X&XOX{.P.Z.^._.^.~.(.~.J.H.H.Z.",
"_.(.H.H.!.!.C.C.S.!.^.`.[.{.XX&X$X#X6.| I 4 3 2 $ * 2 5 k ' 6.%X9...7 $ p a z h a 3 e 4 U | 6.&X&XOXoX[.P.!.(._.).(.(.(.~.H.Z.Z.",
"~.!.H.Z.H.H.H.Z.!.^.)._./.[.|.&X&X$X$X6.] U k k 7 k 8 I ] X.9.%X%XX.k $ p h z h g p e k U 6.6.XXOXoX+XE.S.S.(._.J.~.(.(.~.J.H.H.",
"~.H.Z.H.H.~.H.H.!.!._._./.'.[.|.OX%X*X&X6.| U U U U U ] o.6.%X*X%XX.I f 4 a h f a p 3 I 6.6.#XXX|.+X'./.Z.!.^.(.~.J.~.(.^.J.H.Z.",
"~.~.H.!.~.~.H.H.H.!./.(.).`.'.+X|.&X&X*X$X&XO.o.o.O.o.6.9.9.*X=X*X9.| I k 5 = = * 3 D U 6.$XXX|.E.'./.!.Z.H.~.~.!.H.!.~.(.^.Z.B.",
"H.!.!.!.J.H.H.Z.Z.Z.H.H.~.^./.'.[.{.oX&X&X&X&X&X$X$X$X$X*X*X*X=X*X9.O.] I k 7 7 7 D U o.}.}.|.[.R.P.!.Z.B.Z.Z.!.H.Z.H.!.(.(.G.B.",
"Z.Z.!.S.Z.Z.Z.Z.B.B.Z.Z.H.H.!./.R.E.[.@X@XoX@X&X&X%X%X%X*X*X%X%X*X%X$X9.X... . .} o.}.}.[.R.R.A.A.V.B.N.B.B.B.Z.Z.Z.Z.Z.~.~.H.H.",
"Z.Z.Z.S.Z.V.Z.Z.N.B.B.V.Z.H.Z.!.H./.'.+X@X@X@X@X&X%X*X*X=X=X%X%X%X*X%X%X$X9.$XXXXX|.|.|.[.A.A.A.V.B.m.m.N.N.B.C.C.Z.Z.Z.~.~.~.^."
};
