/* XPM */
static char *out[] = {
/* columns rows colors chars-per-pixel */
"50 50 254 2 ",
"   c #0A1519",
".  c #152B1E",
"X  c #1B3A1D",
"o  c #243D1E",
"O  c #061B24",
"+  c #1A3423",
"@  c #193827",
"#  c #1B3B2B",
"$  c #0D2932",
"%  c #1B3C33",
"&  c #18383A",
"*  c #243C27",
"=  c #233A37",
"-  c #313F32",
";  c #1F401D",
":  c #27481A",
">  c #2F501A",
",  c #39581C",
"<  c #37640E",
"1  c #3D641C",
"2  c #1E442A",
"3  c #1B443A",
"4  c #254627",
"5  c #2A4223",
"6  c #2D4A23",
"7  c #2B442C",
"8  c #334C24",
"9  c #34452A",
"0  c #364B2C",
"q  c #2A5226",
"w  c #385627",
"e  c #294737",
"r  c #23433B",
"t  c #324A33",
"y  c #3C4D33",
"u  c #354839",
"i  c #275736",
"p  c #3A5736",
"a  c #3C523D",
"s  c #3B6329",
"d  c #3C6735",
"f  c #435D1D",
"g  c #47691C",
"h  c #4F741C",
"j  c #52761C",
"k  c #617E1F",
"l  c #455C2A",
"z  c #40483A",
"x  c #455939",
"c  c #476727",
"v  c #526D27",
"b  c #497329",
"n  c #567826",
"m  c #476437",
"M  c #546A39",
"N  c #48783A",
"B  c #587836",
"V  c #63793A",
"C  c #073547",
"Z  c #07384D",
"A  c #173744",
"S  c #263B43",
"D  c #303F41",
"F  c #194B44",
"G  c #07435A",
"H  c #1D5252",
"J  c #254942",
"K  c #2B4B44",
"L  c #284946",
"P  c #334A46",
"I  c #28534A",
"U  c #365745",
"Y  c #3B5444",
"T  c #34534B",
"R  c #3B554B",
"E  c #3B5B4B",
"W  c #374C53",
"Q  c #2D5355",
"!  c #3C5555",
"~  c #3D5B51",
"^  c #3A6B4B",
"/  c #3B6756",
"(  c #044A67",
")  c #105068",
"_  c #055779",
"`  c #2F6D77",
"'  c #465744",
"]  c #455B45",
"[  c #425B4C",
"{  c #4B5D4C",
"}  c #545B4F",
"|  c #425C51",
" . c #465955",
".. c #486446",
"X. c #4D644C",
"o. c #55674A",
"O. c #477646",
"+. c #5B7848",
"@. c #456254",
"#. c #4B6354",
"$. c #4B6B54",
"%. c #4B665A",
"&. c #4C6A5C",
"*. c #536553",
"=. c #5A6555",
"-. c #536B54",
";. c #5A6B54",
":. c #546B5B",
">. c #5A6C5B",
",. c #4B7358",
"<. c #587357",
"1. c #5C725C",
"2. c #646A4B",
"3. c #637949",
"4. c #646B57",
"5. c #63735B",
"6. c #697859",
"7. c #757D59",
"8. c #566B64",
"9. c #5C7462",
"0. c #577A6A",
"q. c #4F6E70",
"w. c #637463",
"e. c #677767",
"r. c #657A64",
"t. c #6C7B64",
"y. c #6B7D6A",
"u. c #737C64",
"i. c #797A66",
"p. c #727E6A",
"a. c #677871",
"s. c #837D69",
"d. c #5B851B",
"f. c #628B1C",
"g. c #6D991D",
"h. c #5C8529",
"j. c #5B8634",
"k. c #638726",
"l. c #689528",
"z. c #6F962D",
"x. c #678738",
"c. c #779435",
"v. c #78A526",
"b. c #57874B",
"n. c #588859",
"m. c #678449",
"M. c #6F8F4D",
"N. c #768559",
"B. c #5A8C6F",
"V. c #6B826A",
"C. c #75836C",
"Z. c #7A8768",
"A. c #7B846C",
"S. c #6E966F",
"D. c #668375",
"F. c #6C8372",
"G. c #738573",
"H. c #768975",
"J. c #7C8B74",
"K. c #778979",
"L. c #7C8C7A",
"P. c #7C9477",
"I. c #75A474",
"U. c #84B11A",
"Y. c #8DB52D",
"T. c #828C57",
"R. c #84876B",
"E. c #93856E",
"W. c #86946A",
"Q. c #91986F",
"!. c #838C74",
"~. c #888874",
"^. c #8C8B74",
"/. c #838E7B",
"(. c #968D76",
"). c #879575",
"_. c #8B9276",
"`. c #84927C",
"'. c #8B937C",
"]. c #94947B",
"[. c #98967C",
"{. c #A49279",
"}. c #95A17D",
"|. c #035D83",
" X c #0B6B92",
".X c #33758B",
"XX c #0579A7",
"oX c #047EB1",
"OX c #607E88",
"+X c #0381B6",
"@X c #3794A1",
"#X c #6F898A",
"$X c #6F9F91",
"%X c #4990AE",
"&X c #43B0B4",
"*X c #048BC4",
"=X c #0291CD",
"-X c #0399D9",
";X c #189AD1",
":X c #22A6DE",
">X c #019FE1",
",X c #00A5EB",
"<X c #00A8EF",
"1X c #1FB0EE",
"2X c #02ABF3",
"3X c #03AFF8",
"4X c #01B2FE",
"5X c #0CB6FF",
"6X c #13B7FD",
"7X c #31B5ED",
"8X c #58ABD0",
"9X c #5EBAE2",
"0X c #2DC0FF",
"qX c #37C3FE",
"wX c #52D0D2",
"eX c #4AC7FD",
"rX c #57CAFA",
"tX c #68C5ED",
"yX c #67D1FE",
"uX c #73D4FE",
"iX c #7CD7FE",
"pX c #838D84",
"aX c #859582",
"sX c #8A9682",
"dX c #8D9A84",
"fX c #8D9A8C",
"gX c #949B84",
"hX c #979A85",
"jX c #9B9C84",
"kX c #939E89",
"lX c #A79D85",
"zX c #9BA387",
"xX c #95A18B",
"cX c #9BA38B",
"vX c #9CA793",
"bX c #A3A48B",
"nX c #A7A78A",
"mX c #B5AA8F",
"MX c #A4AB93",
"NX c #A7AD97",
"BX c #ACAD94",
"VX c #A8B196",
"CX c #ABB39C",
"ZX c #B2B49C",
"AX c #B9B89C",
"SX c #8FB2A1",
"DX c #AEB6A1",
"FX c #B5B9A2",
"GX c #BABCA2",
"HX c #C1B69C",
"JX c #B5C5B4",
"KX c #C3C1AA",
"LX c #A5CDD8",
"PX c #84D9FE",
/* pixels */
"g 0 x z - 0 5 4 2 : 6 6 * o * 5 o > : 5 > g.d.> j U.f.g : : : 6 9 w * 5 7 0 7 * s > : : 1 > ; ; X < ",
"3.(.(.(.E.R.A.y / l ~.R.i.4.i.4.4.* l i.Z.k.h.+.j.g.h 6.x , m ~.R.A.6.z !.C.i.w.;.: : ..x -.@.E e > ",
"R.nXmXnXbXBXgX' g +.lXlX{.(.^.~.i.u z [.].3.'.!.Z.+.5.sXV.y A.].^.W.u.6.'.R.A.p.e.7 m C.<.r.:.#.E * ",
"7.nXmXmXBXBXzX{ M 2.lXlX[.(.(.~.i.y ..[.].Z.!.A.C.r.G.J.V.7 5.!.!.W.!.A.t.p.G.p.w.e n.V.dX;.%.[ K 2 ",
"6.[.ZXDXZXNXcXo.h M lX{.E.~.~.4.z u o.jXjX!.0 ] X.] x 1.R 4 * { '.!.A.A.4.y.w.w.%.* N H.V.1.%.U F i ",
"2.^.ZXDXCXNXcX1.j f.9 z 9 9 8 8 8 l x Z._.J.V.).'.J.J.H.G.8 { aXJ.A.p.y.-.=.6.A.u 5 m.<.#.@.[ r % O.",
"o.ZXNXDXNXMXvX*.M GXAXAXGXGXAXVX7.B +.Z.!.Z.6.!.J.J.L.G.a.e ;.C.t.t.y.5.C.y.w.8.@.6 h.P.X.Y U ,.b.M.",
"{ /.sXdXL.e.{ t M KXGXGXFXZXAXJX;.c M A.u.t.!.J.C.J.K.G.9.e Y y.y.r.w.r.t.w.>.:.%.* v M.M.3.+.h.f.z.",
"f 8 9 9 : 8 f f M GXGXGXJXAXZXCX-.c o.p.p.>.C.y.V.F.D.D.0.I % 3 @.E t *.' ' [ P K # 7.BXjX].!.*.3.k.",
"j T.T.s.s.R.s.V V HXAXGXDXFXDXCX*.m ' { [ + 7 7 4 e 2 r I q # # # @ + * + . + @ 3 4 u.BXbXgXdXK.L.U ",
"V HX{.{.{.(.E.2.M DXVXCXCXCXDXNX] c x.p c B x.d.k.h.c M M B V +.M l g f c l l l , g Z.zXcXkXsXH.9.K ",
"2.HXlXlX{.(.s.z x vXcXcXxXNXvXaXi c c.c.v.T.c.c.c.f.Q.AXBXZXnXAXBX2.f T.mXlX{.jX' g 6.kXkXsXaXH.H.e ",
"} {.[.(.[.^.i.z 8 ' ' { { ' u u e c GXmXnXmXnXmXGX9 zXBXBXBXCXBXzX4.8 2.lX(.s.s.} 8 2.kX'.K.P.K.F.K ",
"' nX(.^.].^.i.z f c x x y z 0 > , v KXGXnXbXlXjXhX- 6./.Z.CXCXvXxXfX0 4.E.E.E.i.2., x [ Y { #.R E 7 ",
"z s.E.~.~.!.=.y M ZXAXmXjXBXjX4.f B GXBXbXbXbXcXdX- sXCXxXxXvXxX`.J.9 4.{.(.~.~.6.w h l z 0 0 8 8 s ",
", z } } } ' u * M mXlXnXBXnXzXV.f m CXNXvXvXxXxXfX- fXvXxXaXaXC.y.8.* 4.jX(.^.R.4.8 N.mXhX~.p.t.t.7 ",
"j v c x x M v j B _.Q.VXVXMXcXZ.g x vXL.e.w.w.s.a.8.S S = A D pXsXF.- 4.gX'.^./.>.w i.E.s.i.=.w.>.e ",
"n [.AXmXnXlX~.l ;.' DXVXvXzXdXH.* z $ ( .X.X|.  O ( :XtXtX1X+XC 8.P r y ' =.>.' Y p u.A.i.4.Y *.#.r ",
"7.KXlX[.[.^.5.w R.bXJ.vXvXdXaXL.u $ *X5XeXtX.XO +X$ 9XuXrX5X6X7XQ D , j g f , l ..3.3.t.5.4.w.:.Y + ",
"4.nXjXgXgX'.r.y gXbXxXdXxX`.y.Y D _ *X*XXXA ( >X3X=XA %X7X3X7XPX9X= } l W.BXhX].Z.c o.w.>.e.%.| T F ",
"2.jXhXdX'.`.>...#.9.Y * 9.U U t D P = O Z |._ +X2X3X=X_ C (  X%X8X.XW - bXjXgX'.G.8 7 U 7 r = % & F ",
"o.i.fXsX#XP.:.x <.d t w w 7 i p n V ! _ XX.XwX&X X4X4X,X_ ` H $ O ) $ } kXsX'.`.>.c d., : X X o : > ",
"l { 1.1.5.9.[ c z.c.M.k.v v V N.Q.kXA -XXXwX&XwXZ 3X2X+X@XwX8XG O  .. - dX'.`.K.*.w b B m c 3.3.m.B ",
"g g j g l.B m.z.Y.U.M.M.m.W.AXnX{.a.|.<X X&X&X&X& 3XeX@X` H @XG  XW a.=.#X/.L.V.M n M.7.J.1./.'.!.r.",
"M nXZ.h.M.c.x.x.Y.v.Q.nXzX6.nXbX].L =X3X-X=X=X+X+X6XuX9X;X-X*X=X>XC ! 8 x ' ' v k.k.).sX'.5.J.`./.5.",
"t.gXgXW.M VXVXJ.b nXMXcXzXC.;.zX^.S >X4X4X4X4X3X4X4XqXqX3X4X4X4X2XG u c k v n k.k.k.N./.L.sXJ.H.F.1.",
"o./.C...1.vXxX..6.BXzXzXV.Z.].).!.S ,X4X4X6X6X5X4X4X4X2X=X,X4X4X3X_ a.cXbXjX].'.!.6.m &.w.aXH.F.F.X.",
"a J.J.C.a x V.).V.J.V.P.6.zX[.].;.L -X4X0XyXyXeX<X-XXX|.|.<X4X4X2X) /.cXkXkX`.L.G.>.<.$.9.H.D.V.F.U ",
"e | U a 4 6.'._.C.Z.VXnXbX_.].).J. .+X5XyXuXuXtX( $ C  X,X4X4X4X<XZ fXxXdXaXL.H.C.%.c M.3.<.9.$.E m ",
"c > 0 x v N.!.!.Z.VXBXMXcXzX!.A.p.#X|.6XyXuXuXuX7X-X,X4X4X4X4X4X+XW fXsX`.L.H.V.&.u g f.z.M.M.x.x.h.",
"M jX(._.R.+.A.A.;.X.jXzXxX'.J.C.e.w.& -XrXuXuXyX6X4X4X4X4X4X4X,XC 8.| 1.9.:.X.@.p s V vXzX'././.vXX.",
"=.].^.hXA.x t.6.!._.<.$XaXP.G.r.=.8. ._ 3X0XqX6X4X4X4X4X4X5X3X|.[ M , , b v.Y.j d.j '.].'./.G.F.G.K ",
"7.jXi.4.X.0 a G.C.u.6.X.H.F.V.:.Y % I W |.3X5X4X4X4X4X4X3X1X.XD y.bX).W.Z.3.N.V.+.c C.`./.J.F.y.D.R ",
"t.~.!.`.r.8 w 9.y.r.-.[ [ T = # X : , x.%.( oX,X3X3X3X<X*X) q. .pXJ.C.C.t.:.aX9.X.* e.P.L.H.F.F.F.T ",
"5.~.J.G.t.y h U :.%.T e . + o y 3.3.m.m.SXOXC ( ( _ _ Z Q $XLXR w.y.y.w.1.{ Y $.[ * 8.K.K.F.F.F.H.T ",
"5.J.J.G.1.l B q % % + X > l _.MXgXgXgXsX$XOX X;XoXoX;X|.OXLX#Xe [ w.w.-.@.w.@.@.T + e #.&.%.%.U e H ",
"{ w.a.F.+.h.d.j 6 6 s h d.M.BX].'./.J.G.R q.%XiXrXrXuX%Xq.LX~ + a &.-.y.:.$./ @.K + > , a y e 7 2 4 ",
"w y x m B h.W.}.zXjX'.7.n 3.gX/.L.H.F.e.t @.OXPXPXPXtX` OXq.! # 6 E 9.%.@.~ ^ U J 3 b +.r.:.@.@.E 6 ",
"<.vX'.!.J.m lXjXgXgXkXhX9 M `.K.H.F.D.r.- <.A 7XuX7X;XD OX! K 3 N ^ $.q.~ ~ I F 3 i b...%.@.~ T I % ",
"u.aXG.y.1.p ].'.'././.K.* ..K.G.F.F.D.1.p p W +X5X-XC q.= I I I S.#X$./ T Q H F ^ j.+.-.[ ~ R K J # ",
"^ r.9.9.[ p sXP.`.L.H.G.* 8 %.%.:.:.&.E w m ! C <XC 0.F @ q 3 i n.S.S.B.,.^ ^ n.$Xj.,.$.e K I J i q ",
"7 U E U ....P.J.L.K.F.V.* g : 4 * 7 7 # 1 n e = XXW H i i q d j.l.S.b.j.j.l.v.b B.b.p 4 q w 2 i s h.",
"g n m.n h.n H.G.G.F.D.D.% 3.zX'.!.C.y.r.@.w N *.  -.w s d.B Q.).W.<.`.`.J.<.+.$./ q n x.x.h.b b n h.",
"5.'.bX!...c D.9.&.D.0.Q % A.A.t.1.%.@.| E 4 0.m u J.V.m j V./.p.r...r.r.<.#.| R I @ 1.H.C.6.G.V.9.Y ",
"5.xXp.w.] q 7 e J E / 3 3 6.p.>.*. .| ~ T * *.K.pXJ.G.%.q x w.5.;.>.$.:.| [ R P I # ;.V.y.>.%.| | % ",
"{ J.w.>.a V.m b B.I ^ ^ b x e.#.| [ R T L @ { L.G.G.G.%.6 t >.>.*.#.u [ R T T L F # -.e.:.#.| R R % ",
"Y ..>.#.r.:.X.^ O.n.JXB.N o.>.[ R T P L F % ] K.G.F.a.@.6 ..d #.| R L K T T K F 2 p ] #.| R R R I & ",
"{ :.u V.8.| ~ E U ,.$X$XO.$.:.~ T K L L = @ $.K.F.D.a.~ w Y %.U L S J % K K H F ^ n.@.[ ~ ! T T I 3 ",
"q p s &.~ Q T Q / n.I.B.n.d 2 3 F 3 3 e d q D.&.&.&.&.I N u J J = % F F & i i d B.n.i i 3 K J e H 3 ",
"d.f.s 7 / 0.,.^ b.j.l.b.I.b 2 X @ # X @ 4 c +.q.@./ ~ $.j.s + $ + @ @ # ; l.l.l.N b.d q 2 4 @ : q b "
};
