/* XPM */
static char *out[] = {
/* columns rows colors chars-per-pixel */
"64 64 229 2 ",
"   c #120D0C",
".  c #16110E",
"X  c #0A0B12",
"o  c #0D0C1B",
"O  c #120D18",
"+  c #0E1114",
"@  c #0F1318",
"#  c #121414",
"$  c #151B15",
"%  c #1C1A14",
"&  c #12141B",
"*  c #161C1C",
"=  c #1A1D1D",
"-  c #280D08",
";  c #26120B",
":  c #34140A",
">  c #3B1A0C",
",  c #261C16",
"<  c #371A11",
"1  c #18280F",
"2  c #1B2717",
"3  c #1B231B",
"4  c #24281A",
"5  c #253619",
"6  c #343316",
"7  c #120D23",
"8  c #131224",
"9  c #101027",
"0  c #191626",
"q  c #1A1E21",
"w  c #12152C",
"e  c #1A1537",
"r  c #211B2F",
"t  c #221D3B",
"y  c #1C2224",
"u  c #1F2528",
"i  c #222424",
"p  c #21262A",
"a  c #22292D",
"s  c #282B2B",
"d  c #2C3823",
"f  c #333C24",
"g  c #282536",
"h  c #333131",
"j  c #373636",
"k  c #431B0C",
"l  c #4A1F0C",
"z  c #4D220C",
"x  c #53250C",
"c  c #5D2B0D",
"v  c #433418",
"b  c #5C3414",
"n  c #632E0F",
"m  c #66300F",
"M  c #6B3410",
"N  c #763A11",
"B  c #473931",
"V  c #294614",
"C  c #314D17",
"Z  c #2E5612",
"A  c #345717",
"S  c #396B0F",
"D  c #376713",
"F  c #3B7712",
"G  c #384729",
"H  c #3D532A",
"J  c #3D4835",
"K  c #4D4A17",
"L  c #585819",
"P  c #6B4E19",
"I  c #774619",
"U  c #457716",
"Y  c #4E7214",
"T  c #587719",
"R  c #63681B",
"E  c #70751B",
"W  c #554F2C",
"Q  c #43592C",
"!  c #485735",
"~  c #6A5C32",
"^  c #4C6B29",
"/  c #4D6636",
"(  c #506439",
")  c #56643B",
"_  c #526A3A",
"`  c #58753A",
"'  c #6A6728",
"]  c #796727",
"[  c #677729",
"{  c #75742F",
"}  c #736733",
"|  c #1D1B47",
" . c #211A45",
".. c #231D52",
"X. c #1E255B",
"o. c #292649",
"O. c #37324F",
"+. c #272457",
"@. c #25225C",
"#. c #1E2761",
"$. c #282867",
"%. c #332F65",
"&. c #2B2D74",
"*. c #2C3376",
"=. c #2D317D",
"-. c #31337B",
";. c #463C5A",
":. c #5D5549",
">. c #675857",
",. c #516241",
"<. c #5C7642",
"1. c #5E7A41",
"2. c #617E44",
"3. c #884714",
"4. c #934D15",
"5. c #86581B",
"6. c #9B5216",
"7. c #9D591A",
"8. c #A35717",
"9. c #AC5E18",
"0. c #866A1C",
"q. c #92721E",
"w. c #AE6119",
"e. c #A66A1C",
"r. c #B2651A",
"t. c #B86C1B",
"y. c #AB761E",
"u. c #BD721C",
"i. c #B9771E",
"p. c #816E2A",
"a. c #956A22",
"s. c #917428",
"d. c #A97A28",
"f. c #B37824",
"g. c #C0771E",
"h. c #C47B1E",
"j. c #C57E21",
"k. c #887447",
"l. c #298D00",
"z. c #3D860A",
"x. c #2E9200",
"c. c #359500",
"v. c #3B9601",
"b. c #369A00",
"n. c #3C9A00",
"m. c #3EA000",
"M. c #46880A",
"N. c #588B0C",
"B. c #429504",
"V. c #439D01",
"C. c #4A9E03",
"Z. c #48950A",
"A. c #4C9D0B",
"S. c #54980B",
"D. c #498615",
"F. c #578716",
"G. c #4A9813",
"H. c #569816",
"J. c #688719",
"K. c #45A101",
"L. c #4BA301",
"P. c #4EA901",
"I. c #4DA00A",
"U. c #51A602",
"Y. c #54A901",
"T. c #5AAD01",
"R. c #53A30B",
"E. c #5CA80A",
"W. c #5AA316",
"Q. c #4E8921",
"!. c #558929",
"~. c #5B9728",
"^. c #5C8935",
"/. c #5D9133",
"(. c #678525",
"). c #639C2D",
"_. c #618D3A",
"`. c #669837",
"'. c #65933B",
"]. c #59A221",
"[. c #68A431",
"{. c #5F8143",
"}. c #658445",
"|. c #698647",
" X c #658B42",
".X c #6A8A46",
"XX c #6D8F44",
"oX c #96833E",
"OX c #AF802D",
"+X c #B98324",
"@X c #C9821F",
"#X c #CA8421",
"$X c #C68827",
"%X c #CD8A23",
"&X c #D28D23",
"*X c #CE962F",
"=X c #D59124",
"-X c #D99728",
";X c #DC9C2B",
":X c #E09E28",
">X c #DFA12D",
",X c #DEA332",
"<X c #DAA43A",
"1X c #E2A42D",
"2X c #E4A935",
"3X c #E5AA35",
"4X c #E4AC3A",
"5X c #E7B13E",
"6X c #EAB33C",
"7X c #AD9053",
"8X c #9A8769",
"9X c #B09868",
"0X c #BEA46D",
"qX c #EEBA43",
"wX c #ECB946",
"eX c #F1BE47",
"rX c #C7AA6D",
"tX c #F3C046",
"yX c #F2C34D",
"uX c #F5C955",
"iX c #F9D463",
"pX c #2B3484",
"aX c #2F378D",
"sX c #323788",
"dX c #333B94",
"fX c #333E9B",
"gX c #36409E",
"hX c #3642A5",
"jX c #3744A6",
/* pixels */
"U.U.P.P.P.L.T.Y.U.K.C.C.C.K.L.K.K.V.n.m.L.I.R.H.T ' ' ' >.{ ' W ' ' } { } { (.H.Z.B.C.L.B.v.v.v.v.c.x.c.V.V.v.v.P.P.L.V.c.c.K.P.",
"P.P.L.K.L.U.U.P.K.C.V.V.V.C.K.C.V.n.n.n.L.I.H.F.' ' ] p.s.p.} ] ' ' p.s.{ { (.J.N.M.S.L.V.V.B.v.v.c.c.v.V.V.V.V.L.P.V.V.v.v.V.K.",
"K.K.n.m.L.L.V.V.V.V.V.V.V.V.V.n.n.n.V.K.A.H.T R P 5.a.d.d.d.a.a.q.q.d.d.d.q.a.] R Y N.R.C.C.v.c.c.v.n.n.V.C.V.K.P.P.V.v.v.v.V.V.",
"K.K.m.n.L.K.V.n.v.n.V.V.V.n.v.v.v.V.V.S.H.J.' 5.a.e.f.$X*X*Xf.f.e.i.$X*X*Xf.d.0.p.' J.S.S.L.v.c.c.b.K.K.K.V.n.n.K.K.n.v.n.v.V.V.",
"n.K.L.P.P.K.V.V.n.V.K.K.V.V.v.v.B.V.A.H.J.E q.OX*X<X<X<X5X<X*Xj.j.#X*X;X,X<X*X+XOXq.E N.H.A.v.c.c.v.V.K.V.V.b.n.m.n.V.n.n.n.V.n.",
"K.L.T.Y.L.C.C.C.K.V.K.V.V.V.V.B.B.Z.H.J.oXq.+X*XwXyXuXwXwX<X-X%X#X#X-X,X4X6XwX<X$X+Xs.oXJ.G.v.c.c.v.V.C.V.V.n.n.n.K.n.V.K.n.V.n.",
"P.P.T.Y.V.V.V.C.K.n.n.n.v.v.V.V.V.Z.N.E q.+X*X4XuXiXiXwXwX*Xj.g.u.g.&X;X1X3XqX4X,X*X+Xq.E F.M.c.v.V.K.L.K.K.K.L.K.K.K.V.n.n.v.n.",
"P.Y.T.P.V.n.V.V.K.K.n.c.v.v.n.V.V.S.R E +X&X,XtXiXiXiXeXwX*Xj.h.u.j.*X1X2X4XqXqX6X1X&Xi.p.T N.B.v.V.P.P.K.K.Y.T.P.L.K.n.n.v.b.n.",
"K.K.T.Y.C.v.V.B.K.L.K.V.v.v.V.V.S.N.E a.@X-X3XtXiXiXiXuXwX4X-X%X%X=X4XwXqXqXqXqXqX3X:Xh.q.E N.C.V.K.L.P.U.Y.T.T.T.L.V.V.n.v.v.c.",
"V.C.Y.Y.K.V.v.V.K.P.P.K.V.V.B.C.N.J.0.r.@X:X3X6XtXuXuXuXeXwX2X,X,X2XwXwXeXeXqXqX6X3X;X%Xe.0.E S.C.K.P.P.U.T.T.T.Y.L.C.V.V.v.v.c.",
"V.L.T.Y.C.v.v.V.U.Y.T.Y.U.K.V.Z.J.J.q.i.=X:X1X3X6XqXeXuXuXuXtXeXeXeXeXuXuXeXeX6X3X1X:X=Xi.q.J.J.Z.C.P.U.P.P.Y.U.K.K.P.L.P.V.n.c.",
"V.C.Y.Y.C.V.B.V.Y.T.T.Y.U.L.C.M.F.0.i.@X=X:X:X:X1X1X5XwXeXuXtXtXeXeXeXuXeXeX6X3X1X:X-X&X#Xi.0.T S.C.P.P.K.C.K.K.C.C.U.U.K.V.n.c.",
"B.V.V.K.L.L.L.U.U.Y.U.P.K.K.L.N.R 0.y.@X#X=X:X;X&X=X;X2X4X6X6X6XwX5X5X5X3X3X:X:X1X-X&X@X&Xi.5.L M.V.K.P.V.V.V.V.V.V.L.L.B.v.v.V.",
"V.V.V.C.L.P.U.U.L.L.C.V.V.C.U.S.R I e.u.h.#X=X&X#Xj.&X-X-X:X1X1X1X>X;X;X>X:X:X:X-X&Xh.g.@Xe.I L Y V.V.V.n.n.V.V.v.v.C.C.v.v.n.V.",
"C.L.K.L.V.K.K.C.V.B.V.V.n.K.U.N.R P 4.e.u.@X&X%Xu.u.j.#X@X&X;X:X:X-Xj.j.=X:X:X=X&Xh.t.r.r.7.P L M.V.V.n.v.n.K.K.v.c.V.B.V.V.V.V.",
"K.K.P.K.V.V.C.V.n.v.v.v.n.K.Y.N.L P I 3.w.u.h.j.u.u.u.g.g.h.&X=X&X#Xg.g.j.=X#Xj.g.t.9.8.6.3.P L N.K.n.n.c.v.P.K.V.B.B.V.V.V.K.V.",
"C.K.L.K.n.n.n.V.V.n.v.n.n.K.P.S.T L P N 6.r.t.t.g.r.g.g.r.g.h.@Xg.g.r.r.g.g.g.g.r.9.8.4.N I L T Z.L.V.v.v.n.K.P.V.C.K.K.K.K.K.K.",
"V.V.K.V.v.c.V.K.K.n.n.n.V.K.L.R.F.T K M 3.8.9.r.r.g.9.9.9.r.t.g.t.r.9.9.r.t.r.w.8.6.3.I m K Y F.S.K.V.v.n.n.V.K.K.K.C.C.K.K.K.K.",
"C.C.V.V.c.v.K.L.K.K.n.V.n.V.L.U.S.T K b N 3.6.8.9.9.9.8.6.8.9.w.9.9.9.9.9.9.9.8.4.N M n b K U A.U.L.V.v.V.K.n.V.K.C.V.V.V.V.K.C.",
"K.L.K.V.v.n.K.P.K.n.V.V.v.V.K.L.H.Y K v m M 3.4.6.6.4.4.3.3.4.6.6.8.9.9.8.8.6.3.N m x z v C U Z.L.K.V.V.V.K.K.V.C.V.V.V.K.K.V.K.",
"P.U.Y.P.K.K.P.K.n.n.n.n.c.c.n.V.F.^ 6 4 k x m N 3.N N N M M N N N 3.6.8.6.4.I N m x l > < V F D.A.K.V.V.V.V.K.K.V.V.K.K.P.P.K.K.",
"L.P.U.P.K.K.K.V.n.v.n.n.c.c.v.M.U A 5 ; ; : l c m m m n n c n n m N 3.4.I N M n x k : ; 2 5 A F Z.C.C.V.v.v.C.K.n.n.K.L.P.P.P.K.",
"V.C.K.m.m.n.V.V.V.B.n.n.v.M.Z.U C 5 4 = .   : > l z x x x x x x x n N N m c x z z : - . $ 3 5 Z F Z.B.V.v.n.V.V.n.m.K.K.P.P.V.V.",
"V.V.n.n.n.n.n.n.V.V.n.V.V.B.U U 5 3 , = .   - - : k l z x x x x l l n n x z z z ; ; . . * * 3 5 D M.Z.V.B.n.C.V.m.V.n.K.L.P.m.n.",
"V.K.m.n.c.c.n.v.B.v.B.V.P.Z.S V 4 3 * * y *     - : k l z x x x z x x x x l k : . . 2 = = 3 3 2 V D M.C.V.V.L.K.K.K.C.K.L.K.K.n.",
"V.V.K.n.n.n.v.V.V.B.B.V.I.M.Z 5 1 3 * y u y $ . - - < > l l l z l l l l k k : ; # @ , u y q 3 3 5 V z.V.V.V.V.C.K.K.L.K.L.P.m.m.",
"K.K.n.n.V.K.V.V.V.V.V.V.Z.F V 2 3 * y u u u y q & ; , < k k k k k k k k < < , % * q u u y y y y 3 V F D.z.n.n.n.V.V.K.Y.Y.U.K.n.",
"m.V.n.n.K.K.V.n.V.C.V.B.z.Z 5 * q 3 u u a u u u q = , < < > > < : k > : , , , = y u u a u u u y 3 2 D z.v.n.v.v.v.V.L.P.Y.Y.L.K.",
"n.V.V.C.L.K.n.c.B.V.V.M.S V 2 3 y y u u u u a a p p i , , , , , , , , 4 r i i r u a a a u u y y y 2 A D Z.V.v.v.V.K.K.K.T.T.P.K.",
"V.V.C.L.L.C.b.c.V.C.C.U Z 2 3 y y y u u a a a a p p i i i i i i 4 4 i i s s a a a a a u y y y y * 3 d A z.n.v.n.K.K.n.V.P.Y.P.L.",
"P.P.L.L.K.V.v.n.P.Y.S.U 5 1 $ = y y y y u u u a a a a a g p i i i p a a a a a a a a u u y y y y * 2 * 5 F z.v.v.n.V.n.n.V.K.K.L.",
"U.U.P.C.V.V.v.n.L.S.D.D 1 $ * = * y y y u u u a a a a a a a p a a s a a g a a a a a u u y y y y * * @ 1 Z F z.v.n.n.v.n.V.V.K.L.",
"P.P.K.n.V.B.c.v.L.B.S V 2 * * q * y * y y y u u a a a a g a a a a a a a a a a a u u u y y y y * * * * 2 V S l.v.v.v.v.n.L.U.K.V.",
"Y.L.m.n.v.v.c.c.V.z.Z V 2 * * * * * * * * y u u u a a a a a a a a a p p a a a p u y y y y y * 3 * * * 2 5 Z F n.v.n.V.V.L.L.K.V.",
"P.K.b.b.n.v.c.v.V.z.Z 5 1 @ & q * * * y y y y y u u a u u u u a a a p p p u u u y y y y 3 3 3 * * * @ 1 5 Z M.B.V.V.L.K.n.v.n.n.",
"P.P.b.b.b.n.c.c.n.z.D V $ X & & * * @ * y y y y y u u u u u y u a p p u u u u y q y y y & & @ $ * @ + 1 V S M.L.V.V.L.K.v.c.n.n.",
"P.P.m.b.V.n.v.v.n.v.D.A 1 X X o + + @ @ @ @ 3 q y y y y 3 q q y y y y u q q q q * * & # +       $ #   1 S M.C.L.C.V.V.V.V.B.V.V.",
"P.K.n.b.V.V.n.n.m.A.G.F 2 @ w w o + X X + X + @ @ * * * * * * * q q * * = = = & @ + @ + % , % , , 2 , 5 Y C.P.K.V.V.v.v.V.V.V.V.",
"n.v.c.c.V.K.V.V.V.L.R.U 5 w +.@.e 9 + X X X X X @ @ @ @ o + X o @ @ @ @ @ # O o X X X . 6 v 6 v 6 6 f C M.V.V.V.V.V.B.v.v.n.V.V.",
"v.v.v.n.V.K.V.V.L.U.Y.M.6 r %.&.o.w y $ @ o o 9 w w w w w w 7 7 o 9 9 w w w w w 9 7 o = v W W W L K ^ U B.n.n.V.K.V.B.v.B.n.V.V.",
"v.V.C.C.V.B.B.V.U.U.U.M.6 s ;.;.O.j ! j i r  .+.X.#.#.X.X.|  .e e e | X.#.#.#.#.X.| e r W ~ ~ [ [ !.D.M.B.n.V.K.L.K.v.v.V.V.L.U.",
"B.V.C.U.C.V.V.V.K.L.C.U C j >.>.>.:.) ) h  .$.*.pXaXpXpX&.$.$.@.$.$.$.&.pXpXpXpXpX#.| s / [ [ T H.H.G.B.v.v.V.V.Y.U.V.V.C.L.U.U.",
"C.C.K.L.U.U.L.C.C.C.C.D.K W k.9X8X2.>.W j o.*.dXgXgXfXdXpX&.pXaXaXpX=.pXaXfXfXfXgX*.o.d T H.~.H.Z.B.B.v.v.c.b.n.Y.Y.C.C.L.U.L.L.",
"P.L.L.U.Y.Y.K.V.B.B.C.N.L ~ 0XrX0X9Xs.:.B o.sXhXjXjXgXdXpXpXfXhXjXfX=.=.fXjXjXjXgX*.o.G D.W.E.R.V.v.B.v.B.v.b.n.U.Y.C.C.L.L.L.L.",
"Y.Y.Y.P.Y.L.V.n.n.V.U.N.R ] 7XrXrXrXd.k.B +.sXgXhXhXgXaX$.&.fXjXjXfX$.$.aXjXjXjXgX-.O.G D.W.R.E.I.K.V.B.K.K.n.n.V.V.V.n.C.V.L.L.",
"Y.Y.Y.P.L.V.n.c.V.K.L.S.T ' oX7XrXrXk.k.B +.-.fXgXfXaX=.@.$.aXgXhXaX@.@.sXgXjXjXgXpX+.f ^ F.H.I.U.P.V.V.K.K.n.n.V.V.v.n.V.V.C.P.",
"C.L.Y.P.K.n.c.b.V.K.V.S.F.!.{ k.k.k.p.B B +.-.sXaXsX&.@. ...=.dXdX&...| &.fXjXjXgX-.@.o.d H Q.G.A.C.K.L.L.K.b.b.n.V.n.V.V.K.K.P.",
"V.V.P.L.K.b.c.v.K.K.V.V.S.H.{ k.k.k.B v t  .@.%.&.$...e e  .%.-.*.$.e | $.aXgXhXaX*.$.+.t G ^ Q.H.A.L.P.L.K.b.b.V.V.V.K.V.C.V.K.",
"K.K.m.K.m.n.c.b.K.K.C.C.C.G.!.` ` ) v i r t t  . . .9 7 o 0 o.+.o.t 7 w @.-.dXfXdX=.*.+.| g H ` !.~.R.P.K.V.n.n.V.K.C.K.L.K.V.V.",
"K.K.m.m.K.n.b.c.V.C.V.C.A.G.Q.` ` / d % 0 7 0 0 7 7 O O X = h j B g O 7 | $.-.sX=.*.$.X.g h J _ _.).W.R.C.V.V.V.C.L.L.P.K.K.K.n.",
"m.K.P.P.K.K.n.v.n.n.V.A.W.)._._.{./ d $ O O & = & 8 O X # 4 ! ,.! h # X e  .+.@.@.$.+.o.h G ( <. X'.).W.I.V.v.V.L.P.L.K.K.m.K.K.",
"n.m.P.P.K.n.n.n.n.V.V.A.).'..X|. X/ d $ # O & * = & # # # d ( <.) f . X 7 w e | |  .| o.J / <.1.}. X`.).G.V.V.V.U.Y.L.V.m.K.K.L.",
"n.V.U.U.K.V.V.V.K.L.V.S._._.|.|.}._ G #   + & * * & # # $ 5 / 1.( G $ X & 8 0 0 & 0 g j ! <.{.}.}. X X/.Z.V.K.U.T.T.K.K.K.K.P.L.",
"v.V.P.P.V.V.V.K.P.Y.I.G._..X|.|. X_ G 2 #   * * = * & $ 3 5 / <.( j q O @ & & & O & s j ,.1.{.|.|.|.}.^.G.K.L.Y.Y.Y.P.C.L.P.L.K.",
"V.V.K.V.n.b.V.P.T.Y.U.H.^.}.|.|.}.` Q d 1 X & * q * * * 1 f _ <.) j t e 7 & q q * $ % d / <.{. X|.|.|./.G.n.L.P.K.P.K.L.K.K.K.K.",
"L.C.C.V.n.n.V.K.P.Y.Y.S./.|.|.2.}.1.( H 4 1 * * * = 3 3 4 G ` <.( ! g w & & q y y * 3 4 H ,.{.{.|. X.X/.G.n.L.P.K.C.P.P.K.K.K.m.",
"Y.U.V.V.V.n.b.m.K.K.P.H.~.}.}.}.{.{.{.,.H V 2 2 2 2 4 s ! ) 2.2.( j q o & 0 q i 3 * * 2 d H <.{. X X'.~.G.n.P.Y.U.U.U.U.C.V.V.B.",
"Y.U.V.V.K.K.b.n.K.K.I.R.~./. X X X{.{.{.,.J G d 6 f f Q ( 2.2.2.) Q $ X & q i p y * 3 3 5 G <.{. X X`.~.V.V.Y.T.U.U.U.U.K.C.B.V.",
"U.C.v.V.V.V.n.n.m.P.Y.E.H.~._._. X X.X X{.<.,./ / _ ,._ <.2..X2._ Q , # q a s s y * * 2 d H ^. XXX'.~.W.A.V.U.T.P.K.L.L.L.K.V.V.",
"L.C.V.V.V.K.K.V.K.P.Y.T.E.H.~._. X X.X.X X}.{.1.2.2.2.2.2.2.|.|.2.! 4 * i s g s y * * 5 G / {._./.~.W.A.V.V.P.Y.C.C.K.P.U.K.V.n.",
"L.K.V.V.K.K.V.K.K.K.L.I.U.R.W.~./.XXXX X|. X}.}.}.}.}.|.2.|..X.X}._ f 3 i u a u 3 * 1 a / {. X'.~.].I.m.n.n.L.L.V.V.K.P.Y.L.B.c.",
"K.V.K.K.K.K.V.n.n.m.V.C.L.P.I.W.~./.'.XX XXX XXX}.|.|.|..X.X.X.X|.<.Q f d s s s a 5 5 C _ '././.H.G.m.n.n.b.K.V.n.n.n.K.Y.P.V.v.",
"n.n.K.K.K.n.n.c.b.b.v.n.m.K.K.I.G.].~.[.[.`.`.`. X.X|..X.X.X|.|.|.2.<./ G G V G H H / ^ !.!.].z.v.v.x.x.c.c.c.b.n.n.n.m.K.K.V.C.",
"c.v.K.K.n.n.c.c.x.x.c.v.b.n.m.m.m.G.].[.[.[.[.`.'.|..XXXXXXX|.|.|.|.}.` ! G G H Q / !./.~.Q.z.z.v.c.l.l.x.c.c.c.b.n.n.n.K.K.K.P."
};
