/* XPM */
static char *out[] = {
/* columns rows colors chars-per-pixel */
"50 50 253 2 ",
"   c #0B1418",
".  c #152B1E",
"X  c #1B3A1D",
"o  c #243D1E",
"O  c #061B23",
"+  c #193423",
"@  c #193827",
"#  c #1B3B2B",
"$  c #082835",
"%  c #102C32",
"&  c #162E36",
"*  c #1B3C34",
"=  c #1A3A3A",
"-  c #253C27",
";  c #29332C",
":  c #233A37",
">  c #1F401D",
",  c #27471A",
"<  c #2F501A",
"1  c #39581B",
"2  c #3B6419",
"3  c #1E442A",
"4  c #1A453A",
"5  c #234424",
"6  c #2A4223",
"7  c #2C4A23",
"8  c #2B442C",
"9  c #264829",
"0  c #34452B",
"q  c #354B29",
"w  c #2B5326",
"e  c #385627",
"r  c #294737",
"t  c #23433B",
"y  c #364835",
"u  c #3C4D33",
"i  c #324B3C",
"p  c #285636",
"a  c #3A5636",
"s  c #3B523C",
"d  c #3B6329",
"f  c #3C6735",
"g  c #425D1D",
"h  c #46681B",
"j  c #4F741C",
"k  c #52761C",
"l  c #617E1F",
"z  c #455C2A",
"x  c #40483A",
"c  c #455839",
"v  c #476727",
"b  c #526D27",
"n  c #497329",
"m  c #567826",
"M  c #486437",
"N  c #556939",
"B  c #48783A",
"V  c #597836",
"C  c #63793A",
"Z  c #093446",
"A  c #103442",
"S  c #063C52",
"D  c #223B44",
"F  c #194B44",
"G  c #1E5646",
"H  c #07435B",
"J  c #15465B",
"K  c #254A42",
"L  c #2B4B44",
"P  c #294946",
"I  c #344C48",
"U  c #28534A",
"Y  c #3B5344",
"T  c #365845",
"R  c #34534B",
"E  c #3B554C",
"W  c #3B5B4B",
"Q  c #2F5254",
"!  c #375754",
"~  c #3D5B51",
"^  c #37694D",
"/  c #3B6756",
"(  c #074B68",
")  c #125565",
"_  c #07597B",
"`  c #2E5667",
"'  c #146378",
"]  c #346B77",
"[  c #475744",
"{  c #455B45",
"}  c #425B4C",
"|  c #4B5D4C",
" . c #51584F",
".. c #475755",
"X. c #425C51",
"o. c #486446",
"O. c #4D644C",
"+. c #55674A",
"@. c #477646",
"#. c #5B7848",
"$. c #456254",
"%. c #4B6354",
"&. c #4B6857",
"*. c #4C6A5C",
"=. c #576755",
"-. c #526B54",
";. c #546B5B",
":. c #5A6C5B",
">. c #4B7358",
",. c #587357",
"<. c #5C715D",
"1. c #646A4B",
"2. c #637948",
"3. c #646B57",
"4. c #63735B",
"5. c #697859",
"6. c #757D59",
"7. c #4C6866",
"8. c #556A64",
"9. c #5C7462",
"0. c #58796B",
"q. c #567073",
"w. c #647463",
"e. c #677765",
"r. c #657A64",
"t. c #6B7B64",
"y. c #6B7D6B",
"u. c #737C64",
"i. c #797A66",
"p. c #727E6A",
"a. c #657973",
"s. c #707771",
"d. c #837D69",
"f. c #5B851B",
"g. c #628B1C",
"h. c #6D991D",
"j. c #5C8529",
"k. c #5B8634",
"l. c #648826",
"z. c #689528",
"x. c #6F962D",
"c. c #678738",
"v. c #779435",
"b. c #78A526",
"n. c #57874B",
"m. c #588859",
"M. c #66844A",
"N. c #72884C",
"B. c #6E914E",
"V. c #768559",
"C. c #5A8C6F",
"Z. c #6A8368",
"A. c #6C826E",
"S. c #798667",
"D. c #75836C",
"F. c #7B846C",
"G. c #6E966F",
"H. c #678377",
"J. c #6C8373",
"K. c #738573",
"L. c #768975",
"P. c #7C8A74",
"I. c #768878",
"U. c #7C8C7A",
"Y. c #7C9477",
"T. c #75A474",
"R. c #84B11A",
"E. c #8DB52D",
"W. c #828C57",
"Q. c #84876B",
"!. c #93856E",
"~. c #86946A",
"^. c #838B74",
"/. c #888874",
"(. c #8C8B74",
"). c #828E7A",
"_. c #968D76",
"`. c #879575",
"'. c #8B9276",
"]. c #84927C",
"[. c #8B947C",
"{. c #94947B",
"}. c #97967C",
"|. c #A49279",
" X c #95A17D",
".X c #015C83",
"XX c #07638A",
"oX c #0B698C",
"OX c #29748A",
"+X c #0578A9",
"@X c #257BA0",
"#X c #42768B",
"$X c #348C92",
"%X c #0184BC",
"&X c #3491B7",
"*X c #3FA2A5",
"=X c #4D8F95",
"-X c #748E88",
";X c #038BC5",
":X c #1092C9",
">X c #0396D5",
",X c #2197C8",
"<X c #15A2DE",
"1X c #02A6EC",
"2X c #01ABF3",
"3X c #00AFF9",
"4X c #01B3FE",
"5X c #0CB6FE",
"6X c #18B7FB",
"7X c #2EB0E8",
"8X c #23BCFD",
"9X c #5CB4DA",
"0X c #51BBE8",
"qX c #3FC5FF",
"wX c #52D0D1",
"eX c #4FC5F8",
"rX c #5ACBFB",
"tX c #64CCF9",
"yX c #70CFF8",
"uX c #59E2E3",
"iX c #859482",
"pX c #8A9682",
"aX c #8D9A84",
"sX c #8D9A89",
"dX c #949B84",
"fX c #979A85",
"gX c #9A9C84",
"hX c #949E89",
"jX c #A79D85",
"kX c #9BA386",
"lX c #96A18B",
"zX c #9BA38B",
"xX c #8DA593",
"cX c #9DA893",
"vX c #A3A48B",
"bX c #A7A78A",
"nX c #B5AA8F",
"mX c #A3AB93",
"MX c #A6AC97",
"NX c #ACAD94",
"BX c #A8B196",
"VX c #ABB39B",
"CX c #B2B49C",
"ZX c #B9B89C",
"AX c #87ADB8",
"SX c #AEB6A1",
"DX c #B5B9A2",
"FX c #BABCA2",
"GX c #C1B69C",
"HX c #B5C5B4",
"JX c #C3C1AA",
"KX c #A8D0DD",
"LX c #83D9FE",
/* pixels */
"h e c x 0 q 6 5 3 , < 0 6 - 0 6 - , , 7 e g.g.< k R.g.j , , , 6 0 e 8 - q 8 8 - 2 < , , 2 w > @ X 2 ",
"#._._._.!.Q.i.s / z Q.Q.i.3.3.i.3.o z u.V.j.j.#.k.h.j 5.a 1 M (.Q.i.4.c /.p.i.w.=.6 7 M c %.O.{ 9 < ",
"d.nXnXbXvXNXhX[ v 1.jXjX_._._.d.i.y x dX{.2.[.^.S.#.4.[.A.u F.}.(.~.u.5.[.P.F.K.y.8 o.Z.#.y.<.%.W : ",
"i.bXbXnXCXNXgXO.m 1.jXbX}.}.(./.i.x { }.{.S.^.F.D.r.L.P.A.8 4.^.^.~.^.F.t.i.F.y.e.8 0.B.aX-.*.} L 3 ",
"3.gXCXDXNXMXzX+.j N jX|.(./.Q.1.x u +.gXdX^.u [ O.{ c 4.Y 6 - | [.^.S.F.4.e.w.w.&.- B G.y.9.&.I 4 p ",
"1.(.CXVXVXVXzX:.k g.; x 0 0 0 q q z c S.'.^.Z.'.'.P.P.L.J.q o.pXF.F.D.y.=.+.t.u.i 9 M.,.;.X.} t 4 @.",
"+.CXVXVXMXmXcX+.N FXZXZXFXFXZXBX6.k.#.Q.F.S.5.^.F.P.U.K.e.r -.D.t.y.y.4.K.p.w.w.X.6 l.Y.O.R T >.n.B.",
"| ).pXsXU.e.| i N JXFXFXDXZXZXHX=.v N p.S.t.Y.P.D.U.L.K.0.L Y y.y.r.w.w.y.4.:.;.*.- b N.N.2.V k.g.x.",
"g < 0 0 6 q g 1 C GXZXFXHXZXDXVX,.M +.p.p.:.p.y.Z.J.H.A.0.U 3 K %.W y -.[ } Y R L 3 5.NXgX}.^.=.2.j.",
"k W.d.d.d.Q.d.C C ZXDXDXSXSXSXVX+.M [ X.} - - 8 9 r r r G 3 # # # @ . - + . + # 4 5 u.BXvXhXpXU.Y.s ",
"C GX|.|.|._.!.1.N VXBXVXVXVXSXMX[ d 2.z M V x.l l.j.v N +.V C #.c v h h z z z z 1 h S.kXzXdXpXL.<.L ",
"1.GXnX|.|._.d.x c MXzXzXlXMXcXiXi h v.v.c.E.v.v.v.g.~.ZXnXBXbXZXnX3.g W.nXnX_.|. .h 6.dXsXaX].L.I.r ",
"N jX|._.{.(.d.x q [ x  .| [ u i p v FXnXbXbXbXbXHXu vXNXNXNXVXBXzX,.q 1.jX!.d.d. .< 1.hXiXI.U.I.H.i ",
"[ jX{._.[./.i.x g v N c u x u < 1 b JXFXbXvXvXjX}.; 4./.S.BXVXcXlXsX0 1.|.!.!.d.1.1 c } Y | %.E W 8 ",
"x d.(./././.=.0 N ZXZXbXgXVXgX3.g V DXNXvXvXzXzXdXy pXMXhXhXcXdX].U.y 3._._./.Q.3.e j z u u q q e f ",
"< x  . .=.[ y - N bXbXvXNXbXkXt.g M MXvXzXzXhXhXsX..I.s.iXU.K.D.e.:.- 3.fX_.'./.3.q V.nXfX/.u.t.r.8 ",
"k b z N c N b k V '.{.BXmXmXzXS.v [ a.....I =.#X .D J ` ` A I iXiXA.8 4.dX).].).:.q V./.d.i.:.w.:.r ",
"m }.GXbXbXjX/.z +.{ VXBXmXlXhXI.[ & OX9X9X:XZ O O <X0XLXyX0X+XD 7.r 9 u  .:.3.[ Y c u.d.i.3.x =.%.t ",
"6.GXjX}.}.'.4.e Q.bXP.cXzXhXiXU.A ;X7XrX9X.X$ %XXXOXyXLXtX8X5X,X; 0 1 k g g 1 z o.#.4.6.w.=.w.;.Y + ",
"3.NXgXfXaX[.r.u dXvXzXiXhXiXs.=.A .XXX` = XX>X4X2X( J &X7X1X6XyX#X..3.h ~.bXfX{.S.v +.w.:.9.;.$.R F ",
"1.gXhXsXpXU.9.{ %.<.Y 6 9.T W 8...[   ( _ ) oX;X4X2X%XS $ S ] #X:X& =.; vXgXdX[.F.e q T : t : * % F ",
"+.u.dXpXY.L.;.c ,.W y 2 e 8 i f V 8._ ,X] uXwXJ 2X4X2X_ *XOX$   $ A I ; hXpX[.).;.z f.1 , X X o , 1 ",
"z { :.<.Z.<.W v x.v.B.l.k b 2.V.S.& >X&X*XwXwX$X1X4X2X$X=XwX' H ....; - pX[.].U.-.e n V M M 2.2.2.V ",
"j h b h z.N M.x.E.R.B.B.M.~.FXbXs.H 1X&X$X*X] ) 1X4X2X) ) OXoX:X& 8...- U.U.U.Z.V m N.5.S.,.[.'.P.Z.",
"N bXS.m B.v.c.c.E.b. XbXkX5.vXkX8.+X2X6X0XrX0X<X3X4X3X1X1X1X2X1X_ q.L , c [ [ b g.x.`.[.].4.F.].).4.",
"t.dXdX~.#.NXBXS.M bXbXkXkXZ.3.gX7.;X4X4X5X6X4X4X4X4X4X3X4X6X8X5X;XI q b m b m l.l g.Z.).U.aXU.L.L.,.",
"O.].D.@.<.cXhXo.Z.mXkXkXZ.S.'.`.q.;X4X4X4X4X4X4X4X3X1X;X,XrXrX5X;X7.hXjXbXdX{.[./.4.M *.r.iXL.J.J.o.",
"x P.P.D.s [ Z.`.6.P.Z.Y.6.kX}.}.a.+X4X4X4X4X3X>X%XXXS .X1XeXeX5X&X#XcXcXgXhX].U.K.:.,.&.9.I.J.Z.H.W ",
"i X.W i 5 5.[.'.S.D.BXbXmX'.{.'.s._ 2X3X4X4X3X_ S S +X2X4X4X5X2XS I.cXhXaXiXU.L.K.%.v B.M.,.9.>.W M ",
"v , e c b V.^.^.D.VXBXmXzXdX`.F.s.A 1X3X4X4X4X3X2X3X4X4X4X4X4X>XD iXsXpXiXU.L.Z.;.i v g.x.N.M.c.c.j.",
"N gX_.'.~.+.S.F.+.O.lXlXlX[.P.D.i.[ +X3X4X4X5X4X4X4X4X4X4X4X1XS q.y } :.9.;.O.$.a d C vXzX[.^.).cX$.",
"+.{.(.fXF.c u.5.].`.,.iXiXY.D.t.=.#X$ >X4X5XqX4X4X4X4X4X4X2XXXL m h 1 1 n b.E.k f.k [.{.).^.L.D.L.L ",
"u.gXi.4.O.q u L.D.y.t.O.L.A.A.;.I : ~ F ;X3X5X3X3XeXtX6X1X' I #.#.vX`.~.F.2.V.Z.#.v D.[.).L.K.y.J.R ",
"5.(.(.).w.q e 9.y.t.-.} { R : # X , d -XQ ( %X1X2XtXtX@XJ #XxXM U.F.S.D.e.,.iX9.O.- e.).U.L.J.J.J.R ",
"4./.P.I.y.u h T *.&.R t . + o u 2.M.V.xXAXS XXS S J S I AXKX0.i 4.y.e.r.<.} T -.} - 9.I.L.J.J.H.I.! ",
"4.P.I.K.:.z k.w * # + o < z '.mXdXdX[.xX-X` 0X0X7X7X<XD KXAXR : } e.<.;.$.w.%.$.R @ r X.*.%.*.R K G ",
"[ e.y.A.+.j.g.m < 7 a j f.N.VX{.[.].I.I.7.] yXyXtXtX0XD KX8.L + Y ;.;.A.;.&.} $.K + 1 < a u y 8 # 5 ",
"e u s M V l.W. XkX X{.6.m 2.pX`.P.I.D.y.8.P rXLXLXyX#Xq.-X..E # 6 W 9.*.X./ ^ U K 4 n #.r.;.$./ T 7 ",
",.cXpX`.Y.M jXgXdXdXfXhX8 N ].U.L.J.J.a.: ..&XyXrX,XD 8.! R P t B ^ 8.8.~ ! U F 4 p n.+.;...X.R R * ",
"u.[.K.y.:.a dX[.[.).).U.- o.L.K.J.A.H.;.s =.J 6X1X% #X[ = K U G G.C.*./ R Q U G ^ k.#.-.W ~ R L F 3 ",
"{ e.9.9.} a iX].).U.L.A.- q $.%.;.8.*.~ e #.D >XH 0.! 4 @ w 4 p B.G.G.C.>.^ f m.-Xk.>.*.r U K K p w ",
"9 W W ^ o.o.Y.L.U.U.H.A.- n < 5 - 8 6 @ d m I S = ` 4 4 p w d k.k.G.m.k.k.z.b.n C.m.a 5 < e 3 p d j.",
"h m V m j.m L.L.J.J.A.H.* 2.zX'.).D.y.r.o.e #.  A.5 w n f.k.}.`.Y.#.].Y.Y.,.,.+.^ w m c.c.j.n n m j.",
"4.pXmX^.o.v A.9.*.H.0.Q * F.F.t.:.-.$.$./ 8 0.; D.S.Z.M m m.].p.5.o.r.r.,.&...E G 3 <.L.D.5.K.J.9.s ",
"4.hXp.e.o.w - t t R / F 3 4.D.:.-.| X.! R ; { s.U.L.K.%.e c w.4.:.<.-.-...} R I U @ ,.A.y.;.*.X.~ : ",
"o.U.w.3.s Z.M n m.^ ^ B n { w.%.X.~ E I K @ o.U.I.I.J.*.7 i :.-.-...i E E R R U F # =.r.;.%.X.} R = ",
"[ } :.%.r.;.$.o.@.m.HXT.B ,.:.X.E R L P F * o.L.K.A.J.X.7 M s %.} I L L R L L F 3 a { %...X.E R L D ",
"{ -.i A.8.$.~ ! R >.-X=X^ O.;.~ I I P K : # &.I.J.H.a.~ w W *.T P P t t P K U G ^ m.$.} E ! R I U 4 ",
"e a f *.! R U Q ^ m.T.C.m.f 3 F 4 4 t r f w H.7.7.>.*.L @.i K K : = F F = w p ^ C.m.G p t K K K G 4 ",
"f.f.d 9 / 0.>.^ n.k.x.n.T.n > 3 @ @ @ @ 5 v #.7.$./ ~ @.k.e + + . # @ 3 > z.h.z.B n.d w > 9 > 5 w n "
};
