/* XPM */
static char *out[] = {
/* columns rows colors chars-per-pixel */
"64 64 233 2 ",
"   c #110F0D",
".  c #1D130D",
"X  c #0B0E18",
"o  c #0E1213",
"O  c #0F131B",
"+  c #121514",
"@  c #141B14",
"#  c #1A1914",
"$  c #12141B",
"%  c #161C1C",
"&  c #191D1C",
"*  c #250D0A",
"=  c #29130C",
"-  c #38160A",
";  c #3D1A0D",
":  c #291C19",
">  c #341A13",
",  c #1B2717",
"<  c #1B221C",
"1  c #1D3013",
"2  c #24281B",
"3  c #3B2C17",
"4  c #26321C",
"5  c #29351C",
"6  c #263A18",
"7  c #0D1224",
"8  c #0E1329",
"9  c #151B21",
"0  c #191E21",
"q  c #191928",
"w  c #161835",
"e  c #291D21",
"r  c #221D3A",
"t  c #1C2224",
"y  c #1F2428",
"u  c #232224",
"i  c #292E25",
"p  c #21262A",
"a  c #22292D",
"s  c #332C2D",
"d  c #2C3524",
"f  c #343C26",
"g  c #272738",
"h  c #373637",
"j  c #461D0C",
"k  c #4C210C",
"l  c #53240D",
"z  c #58270D",
"x  c #5B290D",
"c  c #503515",
"v  c #642E0E",
"b  c #69320F",
"n  c #6D3611",
"m  c #743910",
"M  c #42342F",
"N  c #473836",
"B  c #2C4718",
"V  c #324A1A",
"C  c #2D5A12",
"Z  c #345618",
"A  c #37770D",
"S  c #3A6A15",
"D  c #3D7713",
"F  c #394928",
"G  c #3B4F28",
"H  c #524E15",
"J  c #45571C",
"K  c #7C4313",
"L  c #6D541B",
"P  c #486F15",
"I  c #586917",
"U  c #467914",
"Y  c #577A18",
"T  c #79661A",
"R  c #677219",
"E  c #78781D",
"W  c #44562E",
"Q  c #484D35",
"!  c #475634",
"~  c #585334",
"^  c #685933",
"/  c #4A6626",
"(  c #4E7529",
")  c #4E6436",
"_  c #526638",
"`  c #546C3A",
"'  c #56753A",
"]  c #5A743D",
"[  c #69672B",
"{  c #776527",
"}  c #6E7132",
"|  c #171C45",
" . c #221B43",
".. c #221B4B",
"X. c #241E53",
"o. c #282549",
"O. c #332C4C",
"+. c #272458",
"@. c #282868",
"#. c #393667",
"$. c #2B2E74",
"%. c #2D3175",
"&. c #2C317C",
"*. c #323377",
"=. c #4B4B4B",
"-. c #5E7A42",
";. c #6D7440",
":. c #627D42",
">. c #726950",
",. c #5E5466",
"<. c #824313",
"1. c #8B4914",
"2. c #944D15",
"3. c #87591B",
"4. c #9A5216",
"5. c #A45918",
"6. c #AA5D18",
"7. c #996A1B",
"8. c #90701B",
"9. c #AE6219",
"0. c #A0691D",
"q. c #B2651A",
"w. c #B56A1B",
"e. c #B96D1B",
"r. c #A6741C",
"t. c #BC731D",
"y. c #B8781D",
"u. c #976C22",
"i. c #8A742B",
"p. c #A77827",
"a. c #B77D21",
"s. c #C17A1E",
"d. c #C67E21",
"f. c #8C7B4C",
"g. c #298D00",
"h. c #3B8808",
"j. c #2E9300",
"k. c #359500",
"l. c #3B9600",
"z. c #369A00",
"x. c #3D9A00",
"c. c #3D9409",
"v. c #3EA000",
"b. c #448C0B",
"n. c #498A0B",
"m. c #588C0C",
"M. c #439405",
"N. c #439D00",
"B. c #4A9E03",
"V. c #44930B",
"C. c #4C940B",
"Z. c #46980A",
"A. c #4C9D0A",
"S. c #52940A",
"D. c #529C0A",
"F. c #5A9B0F",
"G. c #488713",
"H. c #568A17",
"J. c #4B9913",
"K. c #559918",
"L. c #658518",
"P. c #698E1B",
"I. c #45A101",
"U. c #4BA301",
"Y. c #4DA801",
"T. c #4DA209",
"R. c #51A601",
"E. c #53A901",
"W. c #5AAD02",
"Q. c #52A30A",
"!. c #55A114",
"~. c #5A8C27",
"^. c #589826",
"/. c #5B952C",
"(. c #5C8936",
"). c #5E9235",
"_. c #698F2C",
"`. c #658B3B",
"'. c #669836",
"]. c #63923B",
"[. c #5FA426",
"{. c #69A434",
"}. c #5E8442",
"|. c #658445",
" X c #698545",
".X c #648A41",
"XX c #6B8A45",
"oX c #728D43",
"OX c #B6801D",
"+X c #8B853A",
"@X c #B7832A",
"#X c #C5831F",
"$X c #C78724",
"%X c #CD8922",
"&X c #D18D25",
"*X c #CD922C",
"=X c #D49224",
"-X c #D99827",
";X c #DB9C2B",
":X c #C89435",
">X c #E09F29",
",X c #DFA12E",
"<X c #DCA437",
"1X c #E1A22C",
"2X c #E2A632",
"3X c #E5AA34",
"4X c #E9AF37",
"5X c #E6AE3B",
"6X c #EBB43C",
"7X c #9A8547",
"8X c #998555",
"9X c #AD9452",
"0X c #BFA15C",
"qX c #9B8565",
"wX c #B59C67",
"eX c #BDA574",
"rX c #DEAE44",
"tX c #EEBA43",
"yX c #EEBD49",
"uX c #F0BE46",
"iX c #C6A969",
"pX c #F2C046",
"aX c #F2C24B",
"sX c #ECC356",
"dX c #F5CA55",
"fX c #F9D462",
"gX c #2E3482",
"hX c #313789",
"jX c #343B94",
"kX c #343E9B",
"lX c #36409F",
"zX c #3641A3",
"xX c #3845AB",
/* pixels */
"R.R.Y.Y.Y.Y.E.E.R.U.I.B.I.U.U.I.N.N.x.x.U.T.Q.K.R [ [ [ ;.} ^ ^ ^ [ ^ >.{ } P.H.C.c.U.U.N.l.N.N.l.k.j.k.N.N.x.N.U.Y.U.N.l.z.N.Y.",
"Y.Y.I.U.U.Y.R.R.Y.N.B.N.B.N.I.B.N.x.x.v.I.T.F.L.R [ { i.i.i.} { [ { i.i.i.{ E L.G.V.D.U.N.x.l.M.l.k.k.k.N.B.x.N.Y.Y.N.N.k.x.N.I.",
"I.I.x.v.U.R.I.N.N.x.N.N.N.N.N.l.x.x.x.I.T.C.Y R { 3.7.u.@X@Xp.u.7.u.p.@Xp.u.i.T R ( m.R.R.B.l.k.l.l.x.N.N.N.N.I.U.R.N.l.l.x.I.I.",
"I.I.x.N.I.Y.N.x.l.x.N.N.N.N.l.l.l.N.I.A.K.L.E { u.p.@X$X*X*Xa.a.w.a.*X*X:Xa.p.u.3.} L.P.D.T.l.j.k.x.N.I.I.I.x.v.I.I.N.l.x.x.x.I.",
"v.I.U.Y.U.U.I.N.x.N.I.I.N.x.M.l.l.M.Q.F.P.P.8.@X@XrXrXtX<X<X=X$X$X$X-X<XrX<X:X$XOXi.L.P.F.T.l.k.k.l.N.B.N.N.x.z.x.I.I.v.v.N.x.N.",
"I.U.E.E.U.B.I.B.I.N.I.N.x.M.M.N.N.B.D.P.i.p.@X*XrXyXaXsXtX2X-X%Xd.$X-X2X5X6X5X<X$XOX8.P.P.C.c.l.k.l.N.B.I.x.x.x.x.x.v.I.I.x.x.x.",
"Y.R.W.R.N.N.N.B.I.x.x.l.x.x.x.N.N.A.H.L.r.a.=X<XsXfXfXsX3X-X$Xa.e.d.&X;X2X4XtXtX2X*X@X8.L.H.M.l.l.N.I.U.I.I.I.I.I.I.I.x.x.x.l.l.",
"Y.Y.W.Y.N.x.N.N.I.I.x.z.x.x.N.N.B.S.L.E r.$X1X6XfXfXfXsX5X;X$Xa.a.d.=X2X2X6XyXtX4X1X#Xr.E Y n.M.N.N.Y.Y.I.U.E.E.Y.U.I.x.x.x.l.l.",
"B.I.R.R.N.x.l.x.N.I.I.B.x.l.M.N.A.m.R 8.y.=X3X6XdXfXfXdXyX5X;X=X&X;X5XtXuXuXpXpX6X1X-Xy.8.R m.B.N.I.Y.Y.R.E.W.W.R.Y.N.M.x.x.x.k.",
"N.B.W.R.B.N.l.N.B.Y.R.Y.N.N.M.M.S.m.T 7.#X-X1X6XaXdXdXdXsXyX5X<X<X5XyXyXaXpXpXpX6X3X1X#X7.T m.m.B.I.Y.R.R.W.W.W.E.U.B.N.N.x.x.k.",
"N.N.W.W.B.N.l.N.Y.E.W.W.R.U.N.M.H.R 8.y.=X1X1X1X4X6XtXaXdXdXpXtXuXaXdXdXdXpX6X4X1X1X-X#Xr.8.E L.S.I.Y.R.R.R.E.R.U.U.U.B.U.I.l.k.",
"M.B.R.R.B.N.N.B.R.W.E.E.R.I.B.n.Y E r.y.=X-X>X>X;X2X3X6XyXaXpXpXuXyXaXaXpX6X4X1X1X>X-X=Xy.0.T Y S.I.Y.R.U.Y.U.I.N.B.R.R.U.N.x.k.",
"N.N.I.U.U.U.R.R.R.R.R.U.I.I.I.S.I { r.a.%X&X;X;X&X&X-X;X1X3X4X4X5X5X2X3X2X2X1X>X>X-X%X#Xs.r.T I n.N.U.I.N.N.N.N.x.N.U.U.l.l.l.N.",
"N.N.N.I.U.R.R.R.R.U.I.N.N.N.U.S.R L 7.w.s.%X=X=Xd.d.%X&X=X-X;X1X,X;X=X=X-X-X-X=X=X%Xs.t.e.0.L I n.I.I.N.l.N.N.N.l.M.B.B.l.l.l.N.",
"U.I.U.I.I.I.U.Y.N.N.N.N.N.N.R.S.I L 1.4.q.s.d.d.t.t.d.d.s.#X=X-X&X&Xs.#X=X-X-X=X#Xy.e.9.6.3.L I C.I.x.x.k.x.I.I.l.l.N.N.N.N.N.M.",
"B.U.Y.I.N.N.B.N.N.l.x.N.x.N.R.F.Y H L <.5.q.e.t.e.e.t.t.t.t.%X%Xd.d.t.y.#X#X%X#Xy.q.6.4.1.K I P C.I.x.z.l.x.U.U.N.l.M.N.N.N.N.N.",
"N.N.I.B.x.x.x.I.N.x.x.x.v.I.Y.A.H.I c n 2.5.q.w.e.e.e.w.q.e.s.s.s.s.q.q.w.s.s.w.9.0.4.K x H I G.B.I.N.l.l.x.I.Y.I.B.U.B.I.I.I.I.",
"N.N.B.N.k.l.I.I.I.x.x.N.I.I.U.T.J.I H c <.4.4.9.q.q.9.6.6.6.q.w.6.6.6.6.6.9.6.6.4.2.K n l c U J.B.I.x.l.x.N.N.I.U.I.B.I.I.I.U.I.",
"B.B.N.l.k.k.I.Y.I.x.N.N.x.N.U.T.S.H.J c n K 1.4.5.6.5.5.4.4.5.6.6.6.6.6.6.6.5.4.<.n b c c J G.Z.R.U.N.N.N.I.N.N.B.B.N.N.N.I.I.I.",
"R.U.B.N.l.x.U.I.x.x.N.N.x.N.I.U.C.U J c c v m <.2.2.1.1.<.<.1.2.2.2.5.5.5.2.2.<.b z k j c Z G.T.R.U.N.N.N.N.N.N.N.N.N.N.I.I.I.I.",
"R.R.E.R.I.I.Y.I.z.k.N.N.k.l.N.M.G.P f 2 - j l v m m n b v v n n m <.2.4.1.<.m b x j - - 1 B A Z.A.U.I.B.x.x.I.B.I.x.I.U.U.U.I.I.",
"Y.R.R.R.U.I.I.N.x.l.x.l.k.l.l.c.A Z 6 # . = - j x x x z x z z z x b <.<.m b v z j j = . % 1 C D b.B.U.N.l.z.N.I.x.x.I.U.Y.Y.I.I.",
"N.B.N.N.v.v.I.I.N.N.N.M.l.M.Z.G.Z 6 2 &   * * - ; j l l l z l l l z b b v l z j - = . + % , 1 B D G.Z.B.x.l.N.N.x.v.x.U.Y.Y.v.v.",
"N.N.N.x.x.z.x.x.N.N.N.M.M.M.G.S 6 < < & @ .   * = > j k l l l l l l z z l j j - = . # + 9 9 t 4 Z h.Z.B.N.N.N.N.v.x.N.I.Y.Y.v.x.",
"l.M.N.x.x.k.x.l.N.M.l.N.U.n.P B 2 @ & 0 t t + . * = - j k l l l l l l k j - - * . @ & t % < 9 , B S b.N.N.I.N.I.I.I.I.I.R.I.I.v.",
"N.N.I.x.x.x.l.N.M.N.M.N.I.b.Z 4 , % % t y y 0 #   * > > j k k k j j j j j > * * , , t u t t t , 6 Z h.M.N.x.N.N.I.U.Y.R.U.U.v.v.",
"N.v.x.v.I.N.N.N.N.N.M.N.Z.U B , < 0 t y y a y t & # : > > j ; j j j - - : : e e t y y a y t t < , 6 A V.M.x.x.x.x.N.I.R.E.R.I.x.",
"I.I.x.v.I.I.N.x.N.N.M.M.b.S 6 # 0 t y y a a y a p 0 u 2 : > > > - - > : e e e r y a a a y y t % < 1 S U M.x.l.l.x.N.I.R.E.R.Y.I.",
"x.N.N.N.Y.I.x.x.N.I.N.h.S V 2 < & t t y y a a a p p u p u u e : u u e u u p u a a a a y y t 9 < % 1 V S b.N.l.x.N.I.I.I.E.W.R.U.",
"N.N.B.B.R.I.z.k.I.I.M.A V 5 2 & % t t y t y a a a a a a p u u u u y p p a a a a a a y y y t t 9 9 , 4 Z h.N.c.x.I.I.x.x.Y.R.R.R.",
"Y.Y.Y.U.U.N.k.x.I.I.C.A B , , < t t y y t t y a a a a p p p p p a a a a a a a a a a y y y t t 9 9 % < 6 A g.k.x.x.N.x.x.N.I.U.U.",
"R.R.U.U.B.N.l.x.U.T.b.S 1 . @ 0 t y t t t t y y p p a a a p a a a a g a p a p a a y y y t t 9 % < @ @ 1 C A h.x.x.x.l.x.N.I.B.I.",
"R.Y.I.x.N.l.l.x.I.Z.D Z 1 @ O 9 9 t % t t y y p a y a a y a y a g a a a a a a y y y y t t 9 9 % < @ @ , Z S h.z.x.x.l.x.Y.R.B.N.",
"R.I.v.x.l.l.l.x.I.V.S Z , o O O % % % t 0 t y t y y y a y y p a a a a a y a p p y t t 0 t % 9 % @ + o , V S h.z.x.x.N.N.I.U.N.M.",
"Y.I.z.z.x.x.x.z.x.Z.D Z @   o o o % % % 0 0 0 0 t y y y y y y y a a y y y u u u 0 0 t t 9 % 7 O       , Z U b.M.x.N.I.I.x.z.x.N.",
"Y.I.z.z.z.x.l.z.z.x.b.A 1   O % O O O % % % % % 0 0 t t t t t t t t t t t & 0 & % % % 9 % % % 9 , , @ 1 S G.M.B.I.I.I.I.x.x.x.N.",
"R.U.v.x.l.l.l.k.x.x.Z.U B u w q 7 X X o o o o + $ % 0 9 7 7 % % % 9 9 < % % $ $ $ + o o + + # i G W f V P S.B.R.B.N.N.N.x.N.N.N.",
"Y.I.x.x.N.N.l.l.x.I.Y.n.V s o.| w 7 X   X X   o $ $ 9 9 7 7 X o @ @ % t % % 7 7 O o   . : 3 M ~ ;.} W W U B.B.U.B.N.l.x.N.N.N.B.",
"x.x.z.z.N.I.N.N.I.U.Y.n.Z h +.@.+.| % + O X X 7 7 8 8 8 8 7 7 X o o 7 7 8 8 8 7 O $ : > c ~ >.qX9X7X~ J n.N.N.N.N.N.M.l.N.l.N.N.",
"l.l.l.x.B.I.I.N.U.Y.Y.n.J O.=.,.#.O.s , 8 8 w w | | | | | | w 8 w 8 w w | | | | | w e k ~ i.9X0XwX7X} P b.N.M.N.N.N.N.l.l.M.N.N.",
"x.N.B.B.N.N.M.N.U.R.U.b.J ~ ,.>.>.>.Q f a | +.%.&.gX&.%.$.@.@.@.@.@.@.@.$.gXgXgX$.+.o.M ^ f.0X0X7X+X} H.b.x.N.B.Y.B.N.l.N.B.U.R.",
"M.N.U.U.B.N.x.N.I.Y.U.b./ ~ f.qXqX>.>.Q s o.%.jXkXlXkXjXhXhXhXhXhXgX&.gXjXkXzXlXjX%.o.h { f.0X9X+XE H.G.c.l.N.I.R.R.N.x.B.U.R.E.",
"N.B.I.Y.R.R.I.I.N.N.U.n./ ^ 8X0XeXwXf.~ M O.*.jXkXzXzXjX&.&.jXzXlXlX&.&.kXzXzXzXjX*.r s ~ } f.`._.R n.Z.l.l.z.x.R.R.I.B.U.R.R.R.",
"U.R.R.R.E.E.U.B.N.N.I.S.P } 7XiXiXiX8X^ N O.*.jXzXzXzXjX@.$.kXxXzXlX$.@.jXzXzXzXjX*.o.s ~ ' } (.~.H.C.l.x.x.z.x.U.R.U.B.B.Y.U.U.",
"E.E.R.R.R.Y.N.M.l.N.U.Q.~._.+X9XiXiXf.i.N O.*.jXkXzXjX&.X.@.jXxXxXlX+.+.gXkXzXzXjX*.o.s ~ ] ~.F.!.D.B.B.I.v.x.x.N.N.l.x.N.I.Y.U.",
"W.E.E.R.I.B.x.x.N.N.I.Q.K.P.+X+X9X0Xf.^ N O.#.hXjXhXhX@...| &.jXlX$.+.X.$.hXlXlXjX*.+.s Q ( H.D.W.R.B.B.Y.I.v.z.x.M.x.x.N.N.I.U.",
"U.Y.E.R.N.x.k.l.B.I.I.B.Q.K._.`.i.f.} =.N O.+.@.@.$.@.+.|  .@.@.@.@.|  .@.&.hXjX&.$.+.o.p V U D.B.U.B.I.Y.I.z.z.x.N.N.N.N.N.U.U.",
"I.I.R.Y.x.l.j.z.I.Y.N.B.U.D.!._.`.} } =.h r  ...X.X.X...w r o.O.o.o. .| X.@.%.%.@.+.X.g u 6 U C.A.B.U.Y.Y.I.z.x.x.N.I.N.I.B.I.I.",
"I.I.I.I.N.x.k.z.I.I.N.x.N.A.J.K.{.'.`.` h t w w g g r w w g F =.=.h g r r  ...X... .g g h W ( J.C.T.T.U.I.N.x.x.N.I.I.U.U.I.I.x.",
"v.I.I.I.I.x.z.k.N.N.N.N.N.B.T.^.).).`._ d % $ 9 0 a y q y s =._ _ ! s y u q r w w w q s ! _ (.).K.J.T.I.N.M.x.N.I.I.I.Y.I.I.x.v.",
"x.N.I.I.I.I.x.k.x.x.N.N.U.A.^.^.(.}.( G < o + $ 0 y u q % 4 ) :.:._ d & q q 0 q $ $ $ i ) -.}.(.).K.Q.U.N.N.x.x.I.Y.Y.U.I.v.I.I.",
"x.I.Y.Y.I.x.x.x.N.N.N.B.D.J./.).}.-.G d @ o + % t 0 0 & @ d _ XXXX` 5 # @ % 9 % $ . o i _ |.|..X]./.K.D.M.N.x.N.R.R.Y.U.v.I.U.U.",
"x.N.R.R.N.N.x.I.Y.I.v.Z.^./.).}.}.-.G 4 o o % % 0 t t % @ 6 _ |.|.` d # @ % % % + + + 2 -.-.-.|.`.).^.J.c.v.U.Y.W.W.Y.I.I.Y.I.Y.",
"x.I.U.Y.N.N.I.U.Y.Y.I.J.^.)..X.X}.` G i @ o % % t 0 t < @ 4 _ |.|.` f & + + % & $ + o 2 G -.-.XX.X.X).^.J.v.U.E.E.E.I.B.Y.I.Y.I.",
"I.I.I.N.l.x.I.Y.E.E.Y.J./..X.X|.}.-.G 4 @   % % & t y y @ 5 ) :. X` f # o o 0 t & % @ < F ) }.XXXX.XoX).c.z.T.Y.Y.I.U.U.I.I.I.I.",
"Y.U.N.N.l.x.v.I.Y.E.Y.J./..X|.|.}.' W B , o % % % 9 t t , d _ |.|.` 5 @ + % t t t % % < F G -.}.XXXXoX[.J.z.U.Y.U.I.Y.R.I.N.v.v.",
"R.R.N.M.x.v.z.v.I.Y.Y.!.^.).|.|.|.-.-.G y @ o O o o % % : d -. X X` 5 # t t a a t % % , F G -.}.XXXX].^.Z.x.Y.Y.R.R.R.R.B.N.x.x.",
"E.R.N.N.N.I.x.z.v.I.Y.Q.K./..X|.}.-.-.) F , @ @ % < @ , d Q -. X|.` 5 # t a s a t t 9 4 F ) }.}..X].'.^.Z.v.Y.R.R.R.R.R.I.B.N.l.",
"R.I.N.l.N.I.N.x.v.I.W.W.Q.^.)..X|.|.|.] ) G d 4 4 4 5 F ! ` :.XXXX` f & t i a a y t < d G -.-.}.].'.[.!.I.v.R.W.U.U.R.R.R.I.N.x.",
"U.I.x.x.B.U.I.N.I.Y.E.W.Q.J.^.).`.XX|.|.' ` W G G G G ! ' -. XXXXX] F 4 , y a a y t , V -.-.}.)./.[.!.T.Z.v.Y.R.B.B.U.R.R.I.N.x.",
"I.I.I.v.U.U.I.I.I.I.U.Y.Y.Q.!.^.)..X|.XX|.(.-.' ] ' ] -.:.|.XXoX X-.! Q i < < , < , f G ' }..X).^.J.Q.U.x.v.U.U.N.N.I.U.R.U.M.k.",
"N.I.I.I.I.I.N.N.N.x.N.B.U.T.Q.!./.).]..X.XXX.X.XXX|.|.|. XXXXXXX X|.-.) F d 5 5 4 B G ' (.)./.~.J.N.I.x.x.x.N.I.N.x.I.I.R.U.M.k.",
"k.x.I.I.v.x.x.x.z.k.x.x.N.I.U.U.T.!.^.{.'.'.'.oXXXXXXXXXXXXX X X X X|.:.` ` ( ( ( ' (.(.^.J.J.c.c.l.k.j.k.k.k.x.x.N.x.I.U.U.I.N.",
"k.z.I.I.x.x.k.k.j.j.k.l.l.x.I.I.I.T.!.[.{.{.{.{.XXXXXXXXoXoX X:. X X X X:.|.`..X).).).).J.J.c.c.l.k.g.g.g.k.k.k.x.N.x.N.I.U.I.Y."
};
