/* XPM */
static char *out[] = {
/* columns rows colors chars-per-pixel */
"50 50 254 2 ",
"   c #080F12",
".  c #152B1E",
"X  c #1B3A1D",
"o  c #243D1E",
"O  c #0D1E24",
"+  c #1A3424",
"@  c #193827",
"#  c #1B3B2B",
"$  c #072936",
"%  c #142D32",
"&  c #1B3D33",
"*  c #18373B",
"=  c #243C27",
"-  c #243B37",
";  c #353D38",
":  c #1F401D",
">  c #27481A",
",  c #2F501A",
"<  c #3A581C",
"1  c #37640E",
"2  c #3C631B",
"3  c #1E442A",
"4  c #184636",
"5  c #1D433C",
"6  c #254627",
"7  c #2A4223",
"8  c #2C4A23",
"9  c #2B442D",
"0  c #34452A",
"q  c #354B29",
"w  c #2B5326",
"e  c #385527",
"r  c #294737",
"t  c #23433B",
"y  c #324A33",
"u  c #3C4D33",
"i  c #364939",
"p  c #275736",
"a  c #3A5736",
"s  c #3B523C",
"d  c #3B6329",
"f  c #3C6735",
"g  c #435D1D",
"h  c #47691C",
"j  c #4F741C",
"k  c #52761C",
"l  c #617E1F",
"z  c #455C2A",
"x  c #40483A",
"c  c #455839",
"v  c #476627",
"b  c #516D28",
"n  c #4A7329",
"m  c #567927",
"M  c #476437",
"N  c #556939",
"B  c #497739",
"V  c #597736",
"C  c #63793A",
"Z  c #09374A",
"A  c #143A4A",
"S  c #053D54",
"D  c #293C43",
"F  c #194B44",
"G  c #134C55",
"H  c #254942",
"J  c #2B4B44",
"K  c #2A4847",
"L  c #354B48",
"P  c #28534A",
"I  c #3A5444",
"U  c #365845",
"Y  c #34534B",
"T  c #3B554B",
"R  c #3B5B4B",
"E  c #2B4A57",
"W  c #325152",
"Q  c #3D5B51",
"!  c #3A5956",
"~  c #3A6B4B",
"^  c #3B6756",
"/  c #054A67",
"(  c #055577",
")  c #295263",
"_  c #2A6674",
"`  c #376578",
"'  c #435443",
"]  c #455B45",
"[  c #4A5B43",
"{  c #425B4C",
"}  c #4B5D4C",
"|  c #51574C",
" . c #435C51",
".. c #475859",
"X. c #486446",
"o. c #4D644C",
"O. c #55674A",
"+. c #477646",
"@. c #5B7848",
"#. c #456254",
"$. c #4B6354",
"%. c #4B6856",
"&. c #4C6A5C",
"*. c #576754",
"=. c #536B55",
"-. c #546B5B",
";. c #5A6C5B",
":. c #4B7358",
">. c #587458",
",. c #5C725D",
"<. c #646A4B",
"1. c #637949",
"2. c #646B57",
"3. c #63735B",
"4. c #697859",
"5. c #757D59",
"6. c #485F63",
"7. c #4D6E67",
"8. c #566C65",
"9. c #5C7462",
"0. c #577B69",
"q. c #597275",
"w. c #626D6D",
"e. c #647463",
"r. c #657A64",
"t. c #667866",
"y. c #6C7B64",
"u. c #6B7D6B",
"i. c #737D64",
"p. c #797A66",
"a. c #727E6A",
"s. c #657B76",
"d. c #837D69",
"f. c #5B851B",
"g. c #628B1C",
"h. c #6D991D",
"j. c #5C8529",
"k. c #5B8634",
"l. c #648826",
"z. c #689528",
"x. c #6F962D",
"c. c #668737",
"v. c #779435",
"b. c #78A526",
"n. c #57874B",
"m. c #588859",
"M. c #68834A",
"N. c #6F8F4D",
"B. c #768559",
"V. c #5A8C6F",
"C. c #6B8367",
"Z. c #6C826D",
"A. c #75836C",
"S. c #7A8768",
"D. c #7B846C",
"F. c #6E966F",
"G. c #668375",
"H. c #6C8373",
"J. c #738573",
"K. c #768975",
"L. c #7C8B74",
"P. c #778878",
"I. c #7B8C7A",
"U. c #7C9477",
"Y. c #75A474",
"T. c #84B11A",
"R. c #8DB52D",
"E. c #828C57",
"W. c #84876B",
"Q. c #93856E",
"!. c #86946A",
"~. c #91986F",
"^. c #838C74",
"/. c #888874",
"(. c #8C8B74",
"). c #838E7B",
"_. c #968D76",
"`. c #879575",
"'. c #8B9276",
"]. c #84927C",
"[. c #8B947C",
"{. c #94947B",
"}. c #97967C",
"|. c #A49279",
" X c #95A17D",
".X c #005E87",
"XX c #096991",
"oX c #2E768C",
"OX c #027DB1",
"+X c #4D7585",
"@X c #318990",
"#X c #0E88BC",
"$X c #228AB3",
"%X c #3FA5A7",
"&X c #738B85",
"*X c #5FA19D",
"=X c #048DC7",
"-X c #0491CC",
";X c #0297D6",
":X c #24A4DB",
">X c #05A5E8",
",X c #01A6ED",
"<X c #12A9E8",
"1X c #00ABF3",
"2X c #0CACF0",
"3X c #00AFF9",
"4X c #01B2FE",
"5X c #0CB5FD",
"6X c #19B9FD",
"7X c #2BB8F4",
"8X c #449DC1",
"9X c #4CABD3",
"0X c #65B7DB",
"qX c #55BCE8",
"wX c #54D2D3",
"eX c #51C4F5",
"rX c #5BCBFB",
"tX c #6FD0F9",
"yX c #69D1FE",
"uX c #5BE3E3",
"iX c #859482",
"pX c #8A9682",
"aX c #8D9A84",
"sX c #8D998A",
"dX c #949B84",
"fX c #979A85",
"gX c #9B9C83",
"hX c #939E89",
"jX c #A79D85",
"kX c #98A288",
"lX c #9BA38B",
"zX c #9DA892",
"xX c #90B29B",
"cX c #A3A48B",
"vX c #A9A589",
"bX c #A3AA8B",
"nX c #B5AA8F",
"mX c #A3AB93",
"MX c #ACAD94",
"NX c #A7AD98",
"BX c #A8B196",
"VX c #ABB39B",
"CX c #B2B49C",
"ZX c #B9B89C",
"AX c #81A5AA",
"SX c #AEB6A1",
"DX c #B5B9A2",
"FX c #BABCA2",
"GX c #C1B69C",
"HX c #B5C5B4",
"JX c #C3C1AA",
"KX c #89B3C2",
"LX c #A6CEDA",
"PX c #84DAFF",
/* pixels */
"h q x z ; q 7 6 3 > , 0 7 o 0 7 o > > 8 , g.f., k T.g.j > > > 7 0 e 7 o 0 9 7 = d , > > 2 w : X X 1 ",
"C }._._.Q.W.A.i ^ z ^.W.p.2.e.2.2.= z p.S.g.j.@.c.h.j 4.a < M (.W.p.4.' /.D.p.e.*.> , X.M o.o.T r , ",
"d.vXnXvXcXMXfX[ v <.jXjX_._.(./.d.; c {.~.4.[.^.S.@.3.pXA.q D.}.(.!.i.4.[.L.D.J.u.9 M C.>.y.8.$.R - ",
"p.vXnXCXMXMXlX[ b <.jXjX|.{._./.p.i c fX{.S.L.D.A.r.J.L.u.y ,.^.L.!.^.L.t.p.D.u.e.= V.C.aX=.%.} J 3 ",
"2.gXCXDXVXNXlXO.j N jXjX(./.W.<.x u O.dXgXL.u [ o.] c 3.T 6 = } [.^.D.D.2.u.e.e.$.= +.F.u.,.$.Y t p ",
"O.(.CXVXVXVXlX;.k g.0 ; 0 0 0 q q z c S.`.^.C.'.'.L.L.J.Z.q X.pXL.D.A.y.;.*.4.a.i 7 M.,.&.}  .t 4 +.",
"O.ZXNXSXNXmXzXo.N GXZXZXFXFXZXBX5.V @.W.W.S.C.^.L.J.I.J.t.r *.A.u.y.y.3.a.a.e.9.$.7 j.S.o.s p :.n.N.",
"[ [.pXsXI.y.} i N JXFXFXDXZXZXHX*.v N A.A.y.L.S.J.L.P.J.0.J I u.t.t.r.r.t.e.;.-.&.= m N.N.4.@.j.g.x.",
"g , 0 0 o g x g C GXFXFXHXDXDXVX;.v O.Z.a.-.a.a.u.J.G.r.0.F 4 r #.R y *.' { T L J # 4.MXgX{.^.*.@.c.",
"k E.E.d.d.W.d.m C ZXZXDXSXSXSXVXo.M ' o.{ = 9 9 6 r r 5 P p # # # + X + . + + @ 5 6 B.MXcXhXpXI.U.s ",
"<.GXjX|.|.Q.Q.<.N SXNXVXVXVXVXNX] v M.e z V x.f.z.k b N O.V C @.N z h g v z z z 2 h S.lXlXhXpXK.,.J ",
"N GXjXjXfX|.d.x x mXlXlXkXNXzXiXp v v.v.b.E.v.v.v.g.~.ZXnXMXbXZXMX2.g E.nXjX|.jX| h 4.dXhXpXiXK.K.9 ",
"<.jX}._.fX(.d.0 e [ ' } | ' u i r v FXnXnXvXvXvXHX0 cXMXBXMXCXMXlX<.q <.jXQ.Q.d.| , <.fX[.L.&XJ.H.J ",
"[ jX_._._./.p.x g v N c u x u 8 < b JXGXvXcXcXgX}.; 2./.S.BXBXzXhXsXq 2._.Q.Q.d.*.g c { I $.$.' R r ",
"x d.Q././.P.*.x M CXZXvXfXMXgX>.< V FXMXcXcXlXlXdX9 {.mXlXhXzXhXiXL.i <._._./.d.2.g j z u q q 0 w v ",
", x | | *.' u = N nXvXvXMXbXlX5.g M NXNXlXhXhXdXsX; &XP.P.s.iXA.t.;.= 2.fX{.)./.2.q 5.MXfX/.p.y.y.9 ",
"k b z M z N v j @.'.~.MXBXmXlXF.h z sXw.' L L w.*.D A A ) D D 6.iXs.; 2.{.'.).).;.e 5.(.d.p.*.e.-.i ",
"m |.GXvXvXjX/.z O.[ SXVXmXkX{.J.0 s $ oX0X0X=XZ O $ >XeXPXtX7XXX% ' t x } ;.;.] L c i.d.p.2.' $.#.t ",
"p.GXjX}.}.[.3.z W.cXJ.zXlXaXiXI.' % ;X7XrX0X/ $ =X.XoXtXtXrX7X5X=X; c j h < g v X.1.2.5.4.;.e.*.I % ",
"2.MXfXfXdX[.r.u dXcXkXaXhXiXu.I L $ .XXX) * oXqX5X,X/ ) 8X:X5X6XtX7.| z W.MX}.{.S.v o.e.;.9.-...U F ",
"<.cXdXaXiXI.9.{ $.9.I = ,.U I r *.| ] O ` ` _ oX9X3X,X#XS $ A ` *X#XA | lXfXdX[.D.e 6 I t r & * * 4 ",
"O.y.aXiXU.I.-.c >.f y e e 9 y f m c.| XX8XoXuXwXG 3X4X1X.X%X@X$   $ O L cXdXpX].-.v f.< > X X > > , ",
"z [ >.3.4.9.] v x.v.N.l.k b C B.~.fX% -X$XwX%XwX_ 3X4X;XoX%XwXG Z ..' D hXiX].K.=.a n C z M 1.1.1.k.",
"h v k h x.B M.x.R.T.N.N.1.!.HXvXjX&X/ ,XXX_ @X@XG 3X4X;X/ G oX) =XA 6.8.iX).I.u.b m N.4.L.3.'.).^.C.",
"N bXS.j.N.v.c.c.R.b.~.bXlX4.bXcXfX..-X3X3X,X1X>X>X3X4X1X,X<XeXeX2X/ 6.q ' ' [ m g.x.^.pX[.3.L.].).e.",
"y.dXdX!.N BXBXU.M bXbXlXkXA.<.kX[.Y ;X4X4X4X4X4X4X4X4X4X4X6XyXtX5XXX6.b m m m m l.l.B.).I.pXI.K.J.>.",
"O.).A.X.,.mXaXX.y.BXkXkXC.B.{.^.[.W ;X4X4X4X4X4X3X4X1X,X#X-X6X6X3XOXq.cXvXfXdX'.^.3.M -.e.iXP.J.H.X.",
"s L.L.A.s s C.{.5.L.C.`.5.kXgX{.2.q.-X4X4X4X4X4X-X#X.X/ .X>X4X4X3XXXs.zXgXhX].).J.;.:.%.9.P.H.u.H.Y ",
"y } R i 6 4.{.'.S.A.BXbXzX~.{.^.^.s.XX3X4X4X4X4X( S / #X,X3X4X4X1XS iXhXaXiXU.J.a.&.z N.1.>.0.+.#.M ",
"d 8 w c n B.^.^.A.BXBXbXlXkX^.D.i.e.* ,X4X4X5X7X1X,X1X4X4X4X4X4X=XL iXsXiXI.K.G.&.i h g.x.N.c.M.k.j.",
"N jX_.`.'.N D.i.O.o.kXkXkXpXL.A.t.e.- OX4X4X4X5X4X4X6X6X5X4X4X,XZ +X$.;.9.,.X.X.a e C bXlX[.).).zX} ",
"O.{.(.fXD.c i.y.].].>.iXiXU.J.r.*.-.q.$ ;X4X4X4X4X5XyXyX7X4X1X( ..v < < m h.R.m f.k [.dX[.L.D.J.H.L ",
"i.gXD.2.O.q s J.A.y.r.o.J.H.Z.-.L # 4 7.A -X3X3X3X4XrXyX6X1X( L C.lX~.!.S.1.B.C.@.v A.].).I.A.Z.H.Y ",
"4./.^.).4.q e 9.u.t.*.} { U - # + > 2 m &XE / #X2X,X2X<XXXA +X9.iX^.D.Z.y.;.iX9.o.= t.I.I.J.H.G.G.Y ",
"e.^.I.D.y.u j I -.&.L t . + o u 1.M.M.M.xX*XA .XA A / S E KXLXT e.a.t.t.9.{ I -.{ = 8.K.K.H.H.H.K.W ",
"2.L.P.J.>.a V w 4 # + X , z [.bXgXdX[.pX+.&XoXqXqX:X:X=XE LXAXr } e.9.=.#.e. .~ Y + i #.&.%.&.Y H P ",
"} e.u.Z.+.l.g.k w 8 M j f.N.MX{.[.).L.u.u q.+XtXyXyXrX9XE LX#.@ I &.&.u.-.%.#.%.J + < , a u y 9 3 6 ",
"e u s M V l !. XkX}.'.4.m 1.dX).L.I.J.r.y 8.G yXPXtXtX+Xq.s.! # 8 U 9.&. .^ ~ P H # B @.t.-. .^ U 8 ",
">.mXpX].].M lXgXgX{.dXfX0 N ].P.J.H.H.u.= M D 8XtXrX$XK &XQ K 5 B ~ %.7.R ! P F 4 p n.X.%.#. .W J & ",
"i.].A.u.;.s {.[.[.].iXP.= X.K.J.Z.G.G.8.s e 6./ 6X;XA q.A J P P F.&X&.^ Y W P F ~ k.@.=. .R Y L H # ",
"X.0.9.,.{ a ].].].I.K.H.= y %.%.-.-.&.Q w M K D ;XS ! H # w 4 p N.F.F.0.^ ~ f m.*Xk.:.&.r J P H p w ",
"6 R R R X.X.U.I.I.I.Z.G.= h , 7 = 9 6 = 2 n # s./ W P 4 p w n n j.Y.m.k.k.z.b.n V.n.a 6 w e 3 p f j.",
"h m 1.m j.m I.H.H.H.G.G.# 1.lX'.).A.u.t.o.e B 6   O.w n f.V  X`.U.@.iXU.U.C.>.=.^ e m c.c.j.n n m f.",
"3.pXbX).M v G.9.&.G.0.W & D.D.t.;.=.%...R 9 m.O.; L.C.M j C.).A.r.X.r.r.-.X. .R K # >.S.A.r.A.Z.9.I ",
"3.hXa.t.X., 9 t r T ^ 4 4 4.u.;.-.} Q T Y + O.J.w.L.J.$.e c e.,.;.;.$.=.} R Y L K @ ;.u.y.-.&.}  .& ",
"X.L.e.2.I r.M n V.~ ~ f n [ e.$. . .T P K @ o.I.L.J.J.&.8 y ,.*.=.#.i { T Y Y K F 3 =.r.-.$. .T R * ",
"I } ;.%.r.,.#.~ X.m.HXF.B O.;.} T Y L H H & ] I.J.Z.s. .8 X.a %. .L J J Y J P F 3 f ] $. . .T W J & ",
"} &.i u.-...Q U R :.*X*X~ =.&.Q Y J H H - # %.P.H.G.s.Q w U &.R K H t 5 J P P F ^ >.#. .T T Y Y P A ",
"w a f &.Q Y P W ~ m.Y.V.m.f 4 5 5 5 5 r a w K.&.7.&.&.K +.i H r - - F F * p p ~ V.m.p p 5 H p H P 4 ",
"f.g.d 6 ^ 0.7.~ n.k.z.n.F.n > 3 @ 3 X @ 6 d @.7.^ ^ Q +.k.d % . + @ @ # : g.h.z.B n.f w 3 6 @ > w n "
};
