/* XPM */
static char *out[] = {
/* columns rows colors chars-per-pixel */
"64 64 236 2 ",
"   c #0B0C0E",
".  c #1B0D0E",
"X  c #0D120E",
"o  c #19150E",
"O  c #0A0C13",
"+  c #0B0C19",
"@  c #160E15",
"#  c #0D1213",
"$  c #0C111B",
"%  c #121514",
"&  c #191715",
"*  c #141A14",
"=  c #13151B",
"-  c #151C1C",
";  c #191E1D",
":  c #250D0A",
">  c #2A130A",
",  c #36160A",
"<  c #3D1A0D",
"1  c #281D19",
"2  c #341B13",
"3  c #192A0E",
"4  c #1A2315",
"5  c #1B231C",
"6  c #1B2818",
"7  c #1E3213",
"8  c #252419",
"9  c #242C1C",
"0  c #352B1C",
"q  c #27371B",
"w  c #29341D",
"e  c #160E25",
"r  c #0E1327",
"t  c #121524",
"y  c #171926",
"u  c #191E21",
"i  c #171635",
"p  c #271B23",
"a  c #271E3A",
"s  c #1C2224",
"d  c #1F2528",
"f  c #232324",
"g  c #2A2522",
"h  c #21262A",
"j  c #23292D",
"k  c #382A2A",
"l  c #2C3625",
"z  c #343C25",
"x  c #322F36",
"c  c #471E0C",
"v  c #40240F",
"b  c #4B210C",
"n  c #52240D",
"m  c #5A290D",
"M  c #513514",
"N  c #632E0E",
"B  c #69320F",
"V  c #71370F",
"C  c #6C3611",
"Z  c #763A11",
"A  c #49392F",
"S  c #2A5D0F",
"D  c #2A4615",
"F  c #334C1A",
"G  c #345618",
"H  c #306E0C",
"J  c #3A7A0D",
"K  c #3B6916",
"L  c #3C7613",
"P  c #394828",
"I  c #3F522C",
"U  c #534D16",
"Y  c #45561B",
"T  c #734C17",
"R  c #437D0F",
"E  c #46651D",
"W  c #556816",
"Q  c #467A17",
"!  c #567917",
"~  c #656D19",
"^  c #786519",
"/  c #687519",
"(  c #77781D",
")  c #45592A",
"_  c #4E4C30",
"`  c #534435",
"'  c #475832",
"]  c #685A31",
"[  c #507025",
"{  c #4D6435",
"}  c #526737",
"|  c #546B3A",
" . c #58753B",
".. c #5A743D",
"X. c #6A662C",
"o. c #776A2A",
"O. c #67762A",
"+. c #76742F",
"@. c #686734",
"#. c #191C47",
"$. c #221C48",
"%. c #231D50",
"&. c #292346",
"*. c #372D4B",
"=. c #272359",
"-. c #272867",
";. c #2C2C73",
":. c #2D2F79",
">. c #2C317C",
",. c #34347A",
"<. c #493F48",
"1. c #505044",
"2. c #695848",
"3. c #5C7341",
"4. c #7D6441",
"5. c #637D43",
"6. c #824313",
"7. c #8B4814",
"8. c #934D15",
"9. c #88561A",
"0. c #9A5216",
"q. c #A25717",
"w. c #A65B18",
"e. c #AB5D18",
"r. c #8F691A",
"t. c #93771D",
"y. c #AE6219",
"u. c #A26D1D",
"i. c #B2641A",
"p. c #B46B1B",
"a. c #B96D1B",
"s. c #A67A1F",
"d. c #BD721D",
"f. c #B7791E",
"g. c #826C25",
"h. c #966C22",
"j. c #8F772B",
"k. c #A97926",
"l. c #B37F21",
"z. c #C37A1E",
"x. c #C67D20",
"c. c #846A40",
"v. c #8B794E",
"b. c #298D00",
"n. c #3D8609",
"m. c #2F9400",
"M. c #359500",
"N. c #3B9600",
"B. c #369A00",
"V. c #3D9A00",
"C. c #3E960B",
"Z. c #3DA100",
"A. c #488C0A",
"S. c #548D09",
"D. c #459606",
"F. c #439D00",
"G. c #4A9E03",
"H. c #44930A",
"J. c #4B930B",
"K. c #4C9B0A",
"L. c #53980B",
"P. c #488614",
"I. c #578818",
"U. c #4A9715",
"Y. c #559814",
"T. c #658617",
"R. c #6B8B17",
"E. c #45A101",
"W. c #4BA401",
"Q. c #4DA901",
"!. c #4DA109",
"~. c #51A601",
"^. c #53AA01",
"/. c #5AAD02",
"(. c #52A20B",
"). c #55A115",
"_. c #589925",
"`. c #588831",
"'. c #5D9334",
"]. c #6A8928",
"[. c #62843E",
"{. c #638C3D",
"}. c #649738",
"|. c #5FA526",
" X c #69A733",
".X c #5F8040",
"XX c #648444",
"oX c #688646",
"OX c #658943",
"+X c #6A8A45",
"@X c #689041",
"#X c #B8821F",
"$X c #8B802D",
"%X c #B5842D",
"&X c #C7811F",
"*X c #C68724",
"=X c #CA8422",
"-X c #CD8A23",
";X c #D28E24",
":X c #CA912C",
">X c #D89627",
",X c #DB9C2B",
"<X c #CF9933",
"1X c #E09F29",
"2X c #DFA12E",
"3X c #DAA439",
"4X c #E2A22B",
"5X c #E3A632",
"6X c #E5AA33",
"7X c #E8AE36",
"8X c #E5AD3B",
"9X c #EAB33C",
"0X c #96824B",
"qX c #A18748",
"wX c #A58A53",
"eX c #B89A58",
"rX c #A8936A",
"tX c #DEAF48",
"yX c #EDB945",
"uX c #EEBB44",
"iX c #F1BE47",
"pX c #EABF53",
"aX c #C6A96A",
"sX c #C4AE79",
"dX c #F1C14C",
"fX c #F5C955",
"gX c #F1C858",
"hX c #F9D564",
"jX c #2C3382",
"kX c #2F3588",
"lX c #32378A",
"zX c #333B94",
"xX c #353E9B",
"cX c #35409F",
"vX c #3641A3",
"bX c #3845AA",
/* pixels */
"~.~.Q.Q.W.Q.^.^.~.W.G.G.W.W.W.W.F.F.N.B.W.Q.(.Y.~ X.X.X.+.@.2.} X.X.@.X.X.+.].I.A.N.W.W.D.N.N.D.N.M.m.M.F.F.V.V.Q.Q.W.F.B.N.E.W.",
"Q.Q.E.W.W.Q.~.~.W.F.F.F.F.G.F.F.F.F.V.E.E.K.Y.T.O.^ o.g.j.j.@.@.o.o.g.+.g.+.( T.P.A.G.~.F.F.D.N.N.M.M.M.F.F.F.F.W.Q.E.F.N.B.E.E.",
"E.E.V.Z.W.W.F.F.V.F.F.F.F.F.V.V.N.V.F.E.K.Y.! ~ o.9.h.k.k.k.u.h.h.k.k.%X0Xj.g.^ ~ ! S.L.G.G.D.M.N.N.V.F.F.G.F.E.W.Q.F.N.N.N.F.F.",
"E.E.V.F.W.W.F.N.V.V.F.F.F.F.V.N.N.V.F.K.Y.I.( o.h.k.l.*X<X<Xx.l.a.f.*X:X%X%Xk.h.g.( R.Y.(.G.N.M.M.V.F.E.E.F.F.E.G.W.F.N.B.V.F.V.",
"Z.E.Q.~.Q.W.W.F.F.V.E.E.F.F.V.V.N.F.K.(.T.R.$X#X:X<X3XtX8X3X:X-X&X&X>X1X3X3X3X%Xk.t.( R.Y.!.V.M.M.N.F.G.F.F.B.B.B.F.E.V.E.Z.V.V.",
"E.W.^.^.W.G.G.F.F.E.E.E.D.N.F.F.F.D.Y.R.R.$X#X%XtXgXpXpXyX5X>X=X&X&X>X4X7X7X9X6X*Xl.t.R.R.Y.D.N.M.N.F.W.E.V.B.B.Z.Z.V.E.E.V.V.B.",
"Q.^.^.^.F.F.F.G.E.Z.N.N.N.V.D.F.F.L.L.R.t.f.:X6XgXhXhXgX8X,X=Xx.f.&X>X1X4X7XuX9X3X:Xl.t.R.I.D.V.N.V.Q.!.F.F.W.E.W.E.V.V.F.Z.V.N.",
"Q.^.^.^.F.V.F.F.E.F.V.N.N.N.N.F.F.L.R.$X#X&X4X9XgXhXhXgX8X,X=Xx.z.&X,X4X6X7XuXdX8X2X*Xs.( I.S.G.V.E.Q.~.W.W.^.^.Q.W.E.V.V.V.N.N.",
"G.G.~.~.F.V.N.F.F.W.W.F.V.N.D.N.F.S.~ r.#X>X4XuXfXhXhXfXiX8X2X;X;X,X8XyXuXuXiXuX9X5X>Xf.r.~ S.G.F.E.W.^.~.^././.~.W.F.F.V.N.N.N.",
"F.G.~.~.G.F.N.V.W.W.~.Q.F.F.D.D.L.T.^ u.&X>X6X9XiXfXfXfXpXyXtX5X5X8XyXiXiXiXuXuX7X6X,X*Xu.^ S.S.D.E.Q.Q.^.^././.^.W.G.F.F.V.N.M.",
"D.F././.G.N.N.V.W.^./.^.~.G.F.A.S.( t.f.-X1X1X4X9XyXuXiXfXfXiXuXiXiXgXfXdXiX9X9X4X4X,X-Xa.r./ S.K.W.Q.~.~.~.~.~.W.W.W.W.Q.F.N.M.",
"F.F.^.^.G.F.F.G.~././.^.~.W.F.J./ g.u.z.;X1X1X1X,X1X6XyXiXiXiXiXiXiXdXiXiX9X9X4X4X1X>X-Xz.h.( ! J.F.Q.~.Q.W.W.W.F.G.~.~.W.E.N.M.",
"F.F.W.W.W.~.~.~.^.~.~.Q.W.E.G.S.W ^ u.f.=X>X,X,X;X;X>X2X5X8X6X7X7X7X8X5X5X6X1X1X4X>X-Xz.z.p.o.W A.F.G.E.F.F.E.F.N.D.W.~.F.N.N.V.",
"F.F.F.F.W.~.^.^.Q.W.W.F.F.F.Q.S.W ^ h.p.z.x.;X;Xx.x.-X;X>X>X1X4X4X,X>X>X,X1X1X>X>X-Xz.d.d.u.T W A.F.F.F.V.V.F.F.N.N.G.G.D.N.F.F.",
"W.F.W.W.F.W.W.W.F.F.F.F.V.F.Q.L.W T 9.0.i.z.x.x.a.z.x.x.z.x.>X>X>X;Xz.z.;X>X>X>Xz.z.i.e.w.9.T W A.E.F.V.N.N.W.E.N.M.F.F.F.F.D.N.",
"W.W.W.W.F.F.F.F.V.V.V.V.V.E.^.L.! U T 6.q.i.a.z.i.i.z.z.z.z.x.=X-Xz.d.a.z.-X-Xz.z.y.e.0.7.T W Q J.W.E.V.M.N.W.W.F.D.F.F.G.F.F.F.",
"D.F.W.E.N.N.V.E.V.V.V.V.V.E.Q.(.I.W M B 8.e.e.i.a.a.a.i.a.a.l.x.z.a.i.i.a.a.a.p.e.q.8.6.B M W I.(.E.F.N.N.V.E.W.W.W.W.E.E.E.E.W.",
"F.F.E.F.M.N.F.E.E.V.V.V.E.E.Q.!.L.Q U m T 8.q.e.i.i.i.e.e.y.p.p.e.e.e.e.i.i.i.e.0.7.T V M M Q Y.~.W.V.N.V.V.E.W.Q.W.W.E.E.E.E.E.",
"F.G.F.F.M.M.E.W.E.E.F.N.V.F.W.Q.L.I.Y U V T 7.8.q.e.w.0.8.0.w.y.e.e.e.e.e.e.q.0.6.V N M M F Q K.Q.W.V.V.F.E.Z.F.F.G.F.V.F.F.F.F.",
"Q.W.W.F.N.V.W.Q.E.F.F.F.N.F.E.W.K.Q Y v m N V 6.8.8.8.7.6.6.7.8.8.0.q.e.q.0.8.6.V m n v 0 I P.K.Q.Q.F.V.F.E.F.V.F.F.V.F.F.W.F.E.",
"~.~.^.~.W.W.W.E.F.V.F.F.M.M.N.V.J.R q 8 , c n N V Z C B B N C C V Z 0.0.7.6.Z B m c < , 6 D L J.K.W.W.F.V.F.E.E.F.Z.E.W.Q.Q.W.E.",
"Q.~.~.^.W.F.W.F.V.V.V.V.N.M.C.A.J S 7 o . > < b m m m m m m m m N B 6.6.Z B N m c < > . * 7 S J H.G.G.F.V.N.E.E.V.V.E.Q.Q.^.W.E.",
"F.G.F.F.F.Z.Z.Z.F.V.D.F.M.H.J.Q F q 5 ; o . : , c c n n n n n n n m B B m m n c , > o o - 6 7 G L U.D.F.N.V.F.Z.Z.V.F.E.Q.Q.E.V.",
"F.F.F.V.N.B.Z.V.V.F.N.N.F.D.P.K q 5 u ; % . . : > , c b n n n n b n n n n b c < > o o % - - - 7 G L H.F.F.N.F.E.E.V.F.F.W.Q.E.B.",
"F.F.E.B.B.B.N.V.F.D.N.F.Q.J.Q D 6 - 5 s u u & . . > , c b n n n n b n n c c , : * * 5 5 u - - 6 D K A.F.F.F.E.E.E.E.F.G.Q.W.Z.B.",
"F.F.E.V.N.N.V.F.D.N.D.G.!.J.G q 6 5 s s d d u & . : > c c b b b b b b c c 2 > . 4 s s d s s s 6 q G n.D.F.V.Z.E.E.E.G.W.W.W.E.Z.",
"E.F.V.V.F.E.F.E.F.F.N.D.K.J D 6 5 s s d j d d d ; 1 p 2 , < < c c c < 2 2 1 p ; d d d j s s s 5 6 D L n.C.N.B.V.V.F.W.~.^.^.E.E.",
"Z.E.B.F.E.W.F.V.F.F.D.D.P.K 7 4 s s d d d d d d u s s p 1 2 2 2 , > 2 1 8 p s h d j j d d d d s 5 7 K R N.V.N.N.V.F.E.Q./.^.W.F.",
"F.V.F.F.W.W.N.N.F.F.D.n.K F 9 s s s d d d d j j j h h f 1 1 1 s g g p 1 h h h j j j j j d s s - 5 6 F K n.E.N.N.F.E.E.E.^./.Q.W.",
"F.F.F.G.W.W.N.N.F.F.D.J F w 5 5 s s s s d d j j j j j h f f s h h j f f h h j j j j j d d s s - - s q G n.V.V.V.F.E.B.E.W.^.~.~.",
"~.Q.W.Q.W.F.N.V.W.~.J.J D 3 4 5 5 s s s d d d j j h j j j j h h h j j j j h j j j j s s s s s - - 6 5 7 H n.N.V.F.V.V.N.F.E.W.Q.",
"^.^.Q.G.F.F.M.N.Q.G.P.K 3 * * * - s s s s s d d j j h j j j j j j j j j h j h j d d s s s s s - - - * 7 S J N.V.N.N.N.N.V.F.W.F.",
"Q.Q.E.V.F.D.M.N.E.H.L G 3 % - - u u u u s d s s d j j j j j j d j j j j j j j h h h s s s u s - t = * 3 F L m.B.V.N.N.V.Q.W.G.F.",
"Q.Q.Z.B.N.N.M.N.F.H.L P 6 % # - - u - - s s - s d d d d j j d d j j h d d j d d s s s s s u - - $ = # 3 F K n.B.V.V.F.F.W.W.F.N.",
"Q.E.B.B.M.N.N.N.V.H.n.G 3   # * - - - - u - - - s s d d d s s s h h d d d d d s u u s u u - - # # # X 3 G P.C.B.V.F.!.!.V.B.N.V.",
"Q.E.Z.B.N.N.N.M.N.C.P.K 7 X # $ # - - - - - - - - u s s s - s - s s u u u u u u - - - - - % #   # # X 3 K P.F.Z.F.F.E.E.B.B.N.V.",
"^.Q.Z.Z.V.V.N.M.M.V.K.P.D p t r # O X X X # # # - 6 - u s - - - - - - t y t - * = # $ + @     O $ t ; q R G.E.W.G.F.F.F.F.F.F.F.",
"W.E.Z.B.F.F.N.B.N.F.~.A.F l h y - O         X $ - r - r $ - - - * - $ r r t - - + + O O   O O t y j g F A.W.W.E.F.F.N.F.F.F.G.G.",
"V.V.N.N.E.E.F.V.Z.E.^.S.Y P ` x k p # O + + $ $ r r r r r r + + $ $ r r r r r r + + O @   @ g k x A A Y J V.Z.E.F.F.N.N.V.N.F.F.",
"N.N.N.F.F.E.F.E.E.W.^.S.E _ 2.2.2.` g @ = r r #.#.#.#.#.#.i i r i r i i #.#.#.#.i i e @ : p <.2.2.2.A Y n.N.V.Z.E.F.F.D.N.N.D.F.",
"N.V.G.G.F.F.D.F.W.Q.W.J.E ] 0XrXrXv.A k p a =.;.jXjXjX>.-.-.-.-.-.-.-.-.:.jXjXjX;.=.a p k ` v.rXrXv.] ) n.N.Z.E.W.W.V.N.F.F.G.~.",
"N.F.G.W.G.G.F.F.W.W.E.J.[ @.wXaXsXrXc.A A &.,.lXxXvXxXzXjXjXjXkXkXjXjXjXzXvXcXxXkX:.&.A A 4.rXsXeXqX] G n.V.V.E.~.~.F.F.G.W.~.~.",
"E.G.W.W.~.~.W.F.F.F.W.J.[ @.0XeXsXaXwXc.A *.,.xXvXvXvXzX>.jXzXvXcXzX>.>.xXvXbXvXxX,.*.A 4.wXaXaXeX$X@.[ n.N.N.E.^./.G.G.~.W.W.W.",
"Q.Q.W.W.^.^.W.F.D.F.W.K.! O.$XqXeXeXwXc.` <.lXxXbXvXvXkX;.;.zXbXbXzX;.;.lXvXbXvXxX,.*.A 4.wXeXeXqXj.O.Q H.V.N.F.~.^.G.F.W.~.W.W.",
"/.^.^.Q.~.W.F.V.B.F.W.(.(.R.].+.v.c.] A A &.,.zXvXvXvXkX=.-.zXbXbXzX=.=.jXxXbXvXxX,.*.k ` ] j.v.[.].I.J.G.F.N.V.F.F.F.V.F.W.W.W.",
"^.^.^.^.W.F.N.N.N.E.W.Q.Q.K.].O.O.] M k a =.;.lXxXcXzX:.#.%.jXzXzX>.%.%.;.kXxXxXlX;.%.a k m ] +.+.T.K.E.Q.E.B.N.N.D.N.V.F.F.E.W.",
"E.Q.^.Q.F.N.M.B.F.E.F.W.Q.G.U.! ! ) 0 1 $.=.;.,.zXzXjX-.i i -.-.-.=.i i =.jXkXzX,.;.=.a p 0 E I.I.Y.K.Q.Q.E.B.B.V.F.V.F.F.F.W.W.",
"F.F.Q.Q.F.N.M.B.E.W.F.F.F.K.H.U.P.E z p &.=.=.-.>.:.-.%.r e &.*.=.x r r %.=.;.:.;.=.=.&.a 0 Q I.L.K.G.W.Q.E.B.B.F.F.E.F.E.W.F.F.",
"E.E.Z.E.F.N.B.m.E.E.E.B.F.F.C.D.U.P.{ _ x i $.$.%.$.$.e + ; x <.<.x ; = y $.%.%.$.$.a x P ) Q P.K.F.E.W.F.F.F.D.F.W.W.W.W.E.Z.V.",
"E.F.E.Z.E.V.M.B.V.E.F.F.F.F.V.D.U.U. .{ z i p i i i i t # 8 ` 1.3._ 8 % y a i i i i y j '  .P.U.K.E.G.F.F.F.V.F.E.W.Q.W.E.E.E.V.",
"F.F.W.Q.W.F.N.M.N.V.E.F.E.E.K.U._.'.{.} l ; = t u y ; = % 9 } 5.5.{ w * u u u y = = * l { [.'._.Y.~.Q.!.F.N.N.F.W.Q.W.E.Z.Z.E.W.",
"V.Z.Q.Q.W.E.V.V.V.F.F.F.G.L.U._.'.{.[.{ 9 X % * ; ; - * * 0 } oXoX| l - % ; - - % % * q { [.{.'._.Y.L.G.D.F.V.G.~.^.W.F.Z.Z.E.Q.",
"N.F.Q.Q.F.F.V.Z.E.Q.C.F.L.)._.'.{.[. .I 3 X = - ; - % O o q } XXXX3.l * % % - - - * * 9 ' 3.3.{.'._.Y.D.F.V.E.~./.^.G.F.Z.Z.Q.Q.",
"B.E.W.W.F.V.B.E.Q.Q.E.F.Y._.'.{.OX3.{ P * X - - u u % % X q | ..XX| l ; % = - - - - o 6 P { 3.OX{.}._.U.C.V.E.^./.^.G.F.W.Q.Q.E.",
"F.F.W.G.D.V.E.Q.^.^.W.!._.'.{.OXXX3.) l 4 # - s h h ; * * q | XX..} z 4 5 u s s s - % 4 l ' 3.XXXX{.}._.D.B.Q.~.W.W.W.W.W.E.E.E.",
"Q.W.G.F.V.V.E.Q.Q.^.W.(.'.'.OXXXXX3.P q 4 # 5 s j j h ; * w } XXoX} z 5 d h d s s - % 4 D { 5.XXoX+X}._.C.B.Q.~.E.W.Q.Q.W.E.E.Z.",
"^.^.G.F.F.F.Z.Z.W.W.E.(.'.'.OXXX.X3.I q 6 - s d j x j s * q | XXoX| l 8 j l j j s - % 9 '  .5.oX+X@X}._.C.V.Q.^.~.Q.~.~.G.F.F.F.",
"^.~.F.F.F.E.B.B.Z.E.Q.(._.'.OXOX.X3.' P q 6 5 d x x j f 6 l | oXoX| z 8 j j j d s 5 4 q } 5.XXXX+X}.}._.Z.B.^./.~.~.~.W.W.G.F.D.",
"W.F.F.V.G.G.F.V.Z.W././.U._.'.{.OX.X3.{ P d 5 5 d d s f w P ..+X+X..P l 9 5 5 5 - 4 7 P | 5.XX{.@X'.|.).D.Z.^.^.~.Q.W.W.W.F.F.F.",
"F.F.V.F.G.G.F.F.E.W.^./.(.)._.'.{.OXOX3.I P l s l l l z P { [.+X+X5.' ) l w l 9 s q I ' ..XXOX{.'._.).!.Z.E.Q.^.W.G.W.W.Q.W.F.N.",
"W.E.E.F.W.W.F.F.F.F.W.Q.Q.(.).|.'.@X@XXX3.{ { I I I { ' } ..+X+X+X5...| } ' ' _ I ' { 3.XXOX{.'._.U.(.E.F.E.W.W.F.F.F.W.~.W.N.M.",
"E.E.E.E.E.E.F.V.F.V.F.E.!.Q.!.)._.'.'.@XOX[. .3.3.3.3.3.5.oX+X+X+XoXXXXXXX..| |  . .[.{.{.'.'.`.U.!.E.Z.B.B.V.E.F.V.F.E.~.~.D.M.",
"N.V.E.E.F.V.B.N.M.M.N.V.F.E.E.!.!.U.|.|.}.}.}.}.OXXXXXXX+X+XoXoX+XoX+XoXoXXXXX[.@X'.}.}._._.U.H.C.C.M.m.M.M.N.N.F.F.V.F.W.W.G.F.",
"M.B.E.E.V.V.B.B.m.m.M.N.C.F.Z.Z.C.K.).|. X X X}.{.+X+X+X+X+XoXoX+X+X+XoXoXoXoX@X}.}.}.'._.C.C.M.M.M.b.b.b.M.M.M.V.V.V.V.E.W.W.Q."
};
