/* XPM */
static char *out[] = {
/* columns rows colors chars-per-pixel */
"64 64 233 2 ",
"   c #11100E",
".  c #1B140D",
"X  c #0C0E18",
"o  c #0E1313",
"O  c #0E121A",
"+  c #131614",
"@  c #141B14",
"#  c #1A1A14",
"$  c #12151B",
"%  c #161C1D",
"&  c #191D1D",
"*  c #250D0A",
"=  c #2A130B",
"-  c #37160B",
";  c #3D1A0D",
":  c #271E1B",
">  c #351B13",
",  c #192415",
"<  c #1B221B",
"1  c #1B2719",
"2  c #1D3314",
"3  c #25271B",
"4  c #273917",
"5  c #25331C",
"6  c #29351D",
"7  c #38331B",
"8  c #0E1326",
"9  c #131421",
"0  c #161B21",
"q  c #191E21",
"w  c #16162A",
"e  c #181736",
"r  c #231D36",
"t  c #1C2224",
"y  c #1F2528",
"u  c #1E2239",
"i  c #232425",
"p  c #21262A",
"a  c #23292D",
"s  c #2C2828",
"d  c #372A2F",
"f  c #2B3722",
"g  c #353826",
"h  c #262C30",
"j  c #2A2738",
"k  c #363936",
"l  c #471D0C",
"z  c #4C210D",
"x  c #53240D",
"c  c #58270D",
"v  c #5B290D",
"b  c #503614",
"n  c #642E0E",
"m  c #69320F",
"M  c #6B3712",
"N  c #733910",
"B  c #45392F",
"V  c #2B4717",
"C  c #334B1C",
"Z  c #2C5A12",
"A  c #345519",
"S  c #366D0E",
"D  c #387B0B",
"F  c #3A6A15",
"G  c #3D7614",
"H  c #384829",
"J  c #3D4F2A",
"K  c #4D5117",
"L  c #7D4313",
"P  c #6E541B",
"I  c #45790D",
"U  c #44681A",
"Y  c #566816",
"T  c #457916",
"R  c #577B18",
"E  c #666D18",
"W  c #726D19",
"Q  c #78781E",
"!  c #4E492F",
"~  c #46582B",
"^  c #454A35",
"/  c #534B36",
"(  c #465932",
")  c #62582C",
"_  c #655838",
"`  c #745E39",
"'  c #527127",
"]  c #4C6535",
"[  c #526539",
"{  c #536B39",
"}  c #5A763B",
"|  c #5A753D",
" . c #77692A",
".. c #70702D",
"X. c #6A6935",
"o. c #171C45",
"O. c #221B4A",
"+. c #221D51",
"@. c #282549",
"#. c #37314A",
"$. c #27245B",
"%. c #272866",
"&. c #2B2D74",
"*. c #2D2F7A",
"=. c #2C317D",
"-. c #323478",
";. c #464C41",
":. c #645946",
">. c #5E7B41",
",. c #786B4A",
"<. c #627D42",
"1. c #864513",
"2. c #944D15",
"3. c #86571A",
"4. c #995216",
"5. c #A45918",
"6. c #AA5D18",
"7. c #91691B",
"8. c #92761D",
"9. c #AD6319",
"0. c #A36C1D",
"q. c #B2651A",
"w. c #B56B1B",
"e. c #B96D1B",
"r. c #A4761D",
"t. c #BD731D",
"y. c #B6791D",
"u. c #976A22",
"i. c #89732B",
"p. c #A56B24",
"a. c #A77927",
"s. c #B27F25",
"d. c #C1771D",
"f. c #C27A1E",
"g. c #C57D20",
"h. c #8C784A",
"j. c #2A8E00",
"k. c #3B8709",
"l. c #2E9500",
"z. c #359500",
"x. c #3A9601",
"c. c #359A00",
"v. c #3D9A00",
"b. c #3E9408",
"n. c #3DA100",
"m. c #468A0B",
"M. c #558C0C",
"N. c #419503",
"B. c #439D00",
"V. c #499D03",
"C. c #43940B",
"Z. c #49970A",
"A. c #4D9C0A",
"S. c #53940B",
"D. c #549A0B",
"F. c #498813",
"G. c #598918",
"H. c #4C9715",
"J. c #569916",
"K. c #668719",
"L. c #6B8B1A",
"P. c #45A101",
"I. c #4BA301",
"U. c #4DA901",
"Y. c #4DA209",
"T. c #51A601",
"R. c #53A901",
"E. c #59AC02",
"W. c #52A20A",
"Q. c #55A114",
"!. c #5B8826",
"~. c #4D9122",
"^. c #599728",
"/. c #5D8B37",
"(. c #5D9232",
"). c #6B8C28",
"_. c #688634",
"`. c #628C3D",
"'. c #639734",
"]. c #65913B",
"[. c #5EA425",
"{. c #65A331",
"}. c #5F8043",
"|. c #648545",
" X c #698646",
".X c #658A42",
"XX c #6A8A46",
"oX c #708E42",
"OX c #B6801D",
"+X c #8E8338",
"@X c #B5832A",
"#X c #C5841F",
"$X c #CA8421",
"%X c #C78927",
"&X c #CE8A22",
"*X c #D28E23",
"=X c #CC912B",
"-X c #D79425",
";X c #DC9B26",
":X c #D59329",
">X c #DB9B2A",
",X c #CC9838",
"<X c #E09F2A",
"1X c #DFA02E",
"2X c #DDA638",
"3X c #E2A22B",
"4X c #E2A633",
"5X c #E6AA34",
"6X c #E8AE36",
"7X c #E5AC3A",
"8X c #EBB43D",
"9X c #9D8549",
"0X c #98845C",
"qX c #AE9150",
"wX c #AB9456",
"eX c #BFA15D",
"rX c #AD976B",
"tX c #B59C68",
"yX c #DEAD44",
"uX c #EDB944",
"iX c #F1BE46",
"pX c #C6A96A",
"aX c #F2C24B",
"sX c #F5C954",
"dX c #F0C859",
"fX c #F9D564",
"gX c #2D3482",
"hX c #313688",
"jX c #343B94",
"kX c #353D9A",
"lX c #35409F",
"zX c #3641A3",
"xX c #3845AA",
/* pixels */
"T.T.U.U.I.U.R.E.U.I.I.V.V.I.I.I.P.v.v.v.P.Y.Q.J.E ' X. .X.X.X.X.) X. . .X...).J.C.N.I.I.B.x.B.B.x.z.j.j.B.B.x.v.I.U.I.B.z.z.V.I.",
"U.U.P.I.I.U.T.T.I.B.V.B.B.P.B.B.B.B.v.P.P.W.S.G.E  . . ...i. . . . .i.i.i.i.).K.m.m.A.T.B.v.v.v.x.z.z.z.B.B.B.B.I.I.P.B.z.z.B.I.",
"P.P.v.n.I.I.P.B.B.v.B.B.B.B.B.v.v.v.B.B.A.M.R E P 3.7.a.@X@Xp.u.7.u.s.@Xs.i.7.W E R S.D.V.B.x.z.x.x.v.B.B.V.P.P.U.I.P.v.x.v.B.P.",
"P.P.v.B.I.U.P.v.v.v.B.B.B.B.v.x.v.v.I.Y.J.G.Q  .u.p.s.%X,X=XOXs.w.s.%X=X=X@Xa.u.i.W K.J.D.P.x.c.c.x.P.I.I.P.B.P.I.P.v.v.v.v.n.P.",
"n.P.I.T.T.I.V.B.B.B.P.P.B.B.v.B.B.V.W.J.M.E 8.@X,X,XyXyXyX4X:X&X$X$X:X>X2X2X,X@Xa.8.Q L.D.A.N.z.z.x.B.V.V.B.c.c.v.n.B.P.P.B.v.n.",
"P.I.R.R.T.I.V.B.I.P.P.P.x.N.B.B.V.V.D.L.L.+XOX=XyXiXdXiXuX4X:X$X$X$X:X1X7XuXuXyX=XOX8.L.K.S.N.x.z.x.B.V.V.P.v.c.v.B.B.P.P.B.v.x.",
"U.T.E.R.B.B.B.B.B.B.x.x.x.v.v.B.B.A.G.L.8.OX=X5XdXfXfXiX7X>X$Xg.t.t.*X>X3X5XuXyX1X=Xy.8.L.G.N.N.v.B.V.I.P.B.B.P.P.P.v.v.v.v.c.x.",
"U.T.R.T.B.v.B.B.B.v.v.x.x.x.N.B.V.S.R Q y.#X3X8XfXfXfXdX7X>X$Xg.s.$X:X1X4X6X8XuX6X1X$Xr.Q R M.N.B.B.I.U.I.I.U.T.U.I.n.v.v.v.c.x.",
"V.I.T.T.B.B.x.B.P.P.P.P.v.x.x.B.Z.M.E 7.OX*X3X8XsXfXfXsXiX7X>X:X*X>X7XuXuXiXiXiX8X3X-Xy.7.E M.V.B.B.U.U.T.R.E.E.T.U.B.x.v.x.x.x.",
"B.V.T.R.B.B.N.N.P.I.T.U.B.B.N.Z.S.K.W 6.#X;X5X8XiXsXsXsXiXiXyX4X4X7XuXiXaXiXiXiX6X5X<X#X0.W M.S.V.P.U.T.T.R.E.E.R.I.V.B.B.v.x.c.",
"N.B.E.R.V.B.x.B.U.E.E.R.U.V.B.Z.M.L.8.y.*X;X3X5X8XuXiXiXsXsXiXiXiXiXdXsXsXiXuX6X5X3X<X&Xw.7.Q G.A.I.U.T.T.T.U.T.I.I.I.V.U.P.x.z.",
"N.V.T.R.V.B.B.V.T.E.E.T.T.V.B.S.K.Q r.f.*X-X;X;X>X>XyXuXiXiXiXiXiXiXiXiXiX8X6X4X3X;X-X&Xd.8.W G.Z.V.U.T.I.U.I.I.B.V.T.T.I.P.x.c.",
"N.B.B.I.I.T.I.T.T.T.T.U.V.P.V.S.E  .r.OX$X-X;X:X$X$X>X4X4X7X5X5XuX7X4X7X4X4X<X<X<X;X#X#Xf.w.P Y m.N.I.P.B.B.V.B.x.B.I.I.x.x.x.B.",
"B.B.B.V.I.T.T.T.U.I.I.P.B.P.I.S.E P 7.w.d.g.*X:Xg.g.&X:X:X:X;X<X<X>X:X:X>X:X;X;X*X&Xd.t.y.0.P Y m.B.B.B.v.v.B.B.x.x.V.V.N.z.x.B.",
"P.P.I.P.B.P.I.V.B.v.v.n.B.P.T.S.Y P 3.4.q.d.g.g.e.d.g.g.g.g.-X;X;X*Xg.g.*X:X-X-X#Xy.w.9.5.3.P Y m.P.B.B.x.x.P.I.x.x.B.B.B.N.B.N.",
"I.I.I.I.B.B.B.B.B.x.v.x.B.I.R.D.Y K P 1.5.q.d.d.e.q.d.d.d.d.g.&X$Xg.d.e.g.&X&Xf.t.9.6.4.1.P Y Y Z.I.B.v.c.x.I.I.N.N.B.P.B.V.B.B.",
"B.P.I.B.v.x.P.P.v.v.x.v.P.P.U.W.G.Y b M 2.6.9.w.w.w.q.q.w.e.g.g.d.d.q.q.e.e.e.w.9.5.2.1.n b Y F.V.V.B.x.z.b.P.U.P.B.I.I.B.P.P.P.",
"B.B.I.B.z.x.n.P.P.B.v.v.v.P.U.Y.G.T K n L 4.4.9.q.q.q.6.6.6.q.q.6.q.6.6.q.q.q.6.4.1.L M b b I C.V.I.v.x.v.v.P.P.I.V.V.B.P.P.P.I.",
"I.V.B.x.z.z.P.I.P.v.v.B.B.B.U.Y.A.R K b M L 2.2.5.6.5.5.4.4.5.6.6.6.6.6.6.6.5.2.1.M M b b K I V.U.I.v.v.P.P.n.B.B.V.B.B.B.B.B.P.",
"U.I.V.B.x.v.I.U.P.B.B.B.v.v.P.I.A.T K C b n N L 2.2.2.2.1.L 1.2.2.2.5.5.4.2.2.1.M v z z 7 A F.V.I.I.P.P.B.P.B.B.B.B.B.B.B.B.P.P.",
"T.T.T.U.I.I.I.P.B.x.B.v.z.x.n.C.m.F V 3 - l x n N N N m m m M M N 1.2.2.1.1.N m v z - = 1 V G Z.I.I.P.B.v.B.P.B.v.B.P.I.I.U.P.P.",
"I.T.T.U.I.B.P.P.v.v.v.v.z.z.b.C.G A 4 # . = - z c v c c c c c v v m 1.1.N m n c z ; = . , 2 Z G C.V.Y.B.v.x.P.P.n.v.P.I.U.U.P.P.",
"V.B.n.B.P.v.n.P.P.v.v.v.x.b.F.T C 4 1 & . . * - l l x x x x x x x c n m n c c l - = = @ @ 1 5 V G F.V.B.v.x.I.I.v.v.P.P.U.U.n.n.",
"B.B.v.v.x.c.n.v.n.P.v.v.B.N.T U 4 @ < @ @     * = - l z x x x z x x c x z l l ; = . # @ 0 0 t 5 A G C.B.B.v.B.P.P.P.P.P.U.U.n.n.",
"B.v.B.v.x.v.v.v.B.x.B.B.V.S.U V 2 , & q t & # . * * - l z x x x x x x z l l - * @ @ < t q & < 1 V F m.V.B.B.P.P.P.P.B.I.U.I.n.n.",
"B.P.P.P.v.B.B.N.N.B.N.N.T.m.A 4 < & t t p w 0 # . * = l l z z z l l z l l = * * , 1 p p t t t t f C m.N.V.B.n.P.P.P.I.U.I.I.P.n.",
"P.B.v.B.B.B.B.B.V.B.B.N.D.I V , , t t p a p q q & : : > > ; l ; l ; ; > > : w : t y h a t t t t < V D C.x.v.v.x.v.B.I.T.R.U.P.v.",
"n.B.B.B.I.I.v.B.B.B.N.N.m.S 2 % q t t p a a a y q q : r : > > : - - > : : i t p y a h a t t t t % 2 Z k.b.v.x.x.v.B.P.T.R.T.I.P.",
"B.B.B.V.I.I.c.c.B.B.B.m.S C 5 & q t y t y p a a a p y i : : : : : : : i p i p p h a y y y y t 0 % 1 C F C.B.x.v.B.P.B.P.R.R.T.T.",
"B.B.V.I.I.P.c.c.B.P.B.D Z 4 1 t q t t t y y a a a a p p i i i t s i s i a a a a h a t q y y t 1 % 1 2 A k.b.x.v.B.P.x.B.I.R.T.T.",
"I.U.I.I.I.B.x.x.P.Y.C.S 4 , , & t y y y q y p a a a a p a p p p a h p a a a a a h a t 0 t t 0 % % 1 < 4 S l.z.v.B.B.v.x.B.I.T.T.",
"R.T.I.B.V.B.z.x.I.V.m.F 2 . % t q t q t y q p p a a a a j a a h h h j a a p a a a a t t t t 1 % % @ @ 2 Z D k.v.v.v.x.v.v.B.I.I.",
"Y.I.P.n.B.B.x.x.I.Z.G Z , o % < 0 t < 0 t t t y p a a p a a h h h h a a p p h p p y t t 0 t t % % % @ , V G l.v.v.v.x.P.I.U.I.P.",
"U.I.v.c.v.v.z.x.P.C.G C , o $ $ % % % t q t q t y y p p p p p a a a p p p p y y t t t q t % % < % $ o , C F k.c.c.v.v.B.I.P.B.B.",
"U.B.c.c.x.x.z.x.v.b.T A 2 o X o o % % q q t t t q y y y y q p q p p t y t y y t 0 t & 0 % % , @ o o o , A F.b.x.b.B.P.I.x.z.x.v.",
"U.I.n.c.v.x.z.z.c.b.F.F 4 @ : 3 & @ % % % 0 % % t w q q q q q q t t t q q q q 0 % % % @ % % o o o o o 2 F F.C.n.P.P.I.B.z.l.v.v.",
"U.I.B.v.v.v.x.z.z.c.V.F.A B / ! s 3 @ + + o o @ % % 9 % $ % 0 0 < t t 0 0 % $ + X X X o O + O O 8 8 q 4 I D.I.U.I.V.B.B.B.B.B.B.",
"U.I.B.v.B.B.x.c.c.v.I.M.~ _ ,.,./ B 3 3 .   o O $ 9 9 9 8 X $ $ $ % 8 0 9 9 $ O X X X o , , $ w e u i C m.I.P.I.P.B.N.N.B.B.B.B.",
"B.v.z.x.B.P.B.v.B.I.T.S.K _ 9XqXh.,.) b 3 # o 8 8 8 8 8 8 8 X X X O 8 8 8 8 8 8 X X X 0 H H a q u j s C D B.v.n.B.B.B.x.x.v.B.B.",
"x.x.x.x.B.V.B.B.I.I.U.J.' X.9XpXtXrXi.) g t e o.o.o.o.o.o.o.e 8 8 e e o.o.o.o.o.o.e 8 i ^ ( H #.#.#.k A D v.v.P.B.B.B.N.x.B.B.I.",
"x.v.B.V.B.B.N.B.I.I.I.A.!._.+X+XpXeX9X` B j %.&.*.gXgX*.&.&.%.%.%.%.%.&.&.=.=.=.&.$.u a g / :.,.:.:.^ C D v.B.P.U.V.v.x.B.B.I.T.",
"x.P.I.T.V.V.B.B.I.I.V.A.^.).+X+XwXwX9X` B @.-.jXkXlXlXkXhXgXhXhXhXgX=.gXjXkXlXlXjX=.@.g ! _ h.0Xh.h.! C k.x.B.P.T.U.B.B.V.I.T.T.",
"P.P.I.I.R.T.I.V.P.I.P.I.Y.J.L._.oX..,./ d j &.jXlXxXzXkXgXgXjXlXlXjX=.&.jXzXzXzXlX-.k ^ _ h.rXpXpXh._ ~ D x.x.P.T.T.V.V.I.T.I.U.",
"I.I.U.U.R.R.I.B.v.B.I.U.I.A.G.G._.} ' ( d O.-.jXzXxXzXhX%.&.jXxXxXjX&.&.jXzXxXzXlX-.#.! ` 0XpXpXeXqXX.U m.v.x.B.U.T.V.P.I.I.I.I.",
"E.R.T.T.T.I.B.x.x.v.I.T.T.W.A.S.H.H.!.] k @.*.jXzXzXkXhX$.$.jXxXxXjX%.$.gXlXzXzXlX-.#.B h.h.eXpXqX+X..!.Z.B.v.n.B.P.B.v.B.B.I.U.",
"R.R.R.T.I.B.x.x.c.v.U.U.R.I.V.B.Z.F.R ( k $.-.jXlXzXkX*.o.O.=.jXjXgX+.o.&.jXlXkXhX-.#.B L h.wXqXi...L.J.Y.P.v.v.B.v.x.x.B.V.I.I.",
"I.I.R.T.P.x.c.x.P.P.I.U.I.I.v.x.N.G J H @.$.=.jXlXzXkX*.O.e %.*.&.%.e o.%.=.jXjX-.-.#.r B B h.h._.K.Q.E.I.P.c.c.x.v.B.B.B.B.I.I.",
"B.P.U.U.v.x.c.c.I.U.B.B.V.B.N.b.C.G f j @.%.-.hXkXjXhX%.e e $.#.@.@.e e o.%.&.&.%.$.O.d r b _ ,.).J.W.W.U.P.v.c.v.n.B.P.I.I.I.B.",
"P.P.P.n.n.v.c.c.I.U.B.v.B.v.N.C.H.U g r @.%.&.gXgX=.%.@.w i k ;.;.k a w e e O.+.O.O.r s g ~ } _.J.D.W.T.I.B.v.v.B.P.I.P.U.U.n.v.",
"P.n.P.n.P.v.c.c.P.P.B.v.B.V.Z.H.~.' H j j $.%.%.%.$.O.e 9 3 ( [ [ ( f 0 9 9 e e w w 9 i B ~ } (.^.Q.W.T.B.B.B.B.B.I.I.I.I.P.P.n.",
"B.P.U.P.P.B.c.v.v.B.B.I.V.A.H.^./.} { ^ j r e e e e w w + 5 ( <.<.[ 6 + 0 0 0 8 X X X @ 7 ~ } /.^.^.W.V.B.N.v.B.I.I.I.I.n.P.P.P.",
"x.B.U.U.P.v.v.x.v.B.B.B.W.J.^./.}.|.|.[ s 9 O O 9 9 9 $ + 6 { |.XX{ 6 @ % q t $ X X o , f ~ | .X].^.J.D.B.v.B.B.U.I.I.B.P.P.P.I.",
"v.B.T.T.I.v.B.B.P.P.n.Y.^.^.].`..X|.|.{ f $ $ $ 9 9 $ + @ 5 { |. X{ f + % % < % 9 $ + # f J >.|.`.].^.J.Z.P.I.U.E.R.I.P.P.P.P.U.",
"v.P.U.T.B.x.B.P.U.U.n.H.^.]..XXX|.}.>.( 1 o % t 0 : @ o   5 [  X X{ s # t t 0 t : $ o @ 2 J | }..X`.].^.C.B.U.R.E.T.I.B.U.U.P.I.",
"P.P.I.B.x.x.B.U.R.R.I.A.(..X.X|.|.>.] H 1 $ % % q & +   @ 5 ] <. X{ 6 @ t y t 0 0 @ O @ f J >.|.|..X.X^.C.v.Y.Y.I.I.I.I.I.I.P.P.",
"T.U.B.v.v.v.P.P.U.R.U.A.(..X.X|.|.| ( V < $ % t i q % + @ 4 [ |. X{ f # t t % % @ + o , f J >.|. XXX].'.b.v.U.U.P.I.I.I.B.B.B.B.",
"E.T.B.B.B.v.v.n.U.U.I.A.(.`..X.X|.| ( f < % t y a a t < , f [ |. X{ g & % @ + o o o o 1 ( >.}.|.XX].].^.C.n.T.R.T.I.T.I.V.B.B.N.",
"T.T.V.B.B.P.c.c.P.I.U.Q.^.(.`..XXX} ] H t % t y h h y t , f {  X X| ^ f 1 @ , @ + < 2 H ] >.|.|.XX].'.^.V.P.T.E.R.T.T.U.I.V.B.N.",
"U.I.B.v.B.P.v.P.n.U.R.E.A.^.(.]..X}.>.( f % < t h h t t % f { XX X<.{ ( H 4 6 6 f V J ] >.}.|..X].'.[.Q.B.P.T.E.T.U.I.I.U.B.N.N.",
"V.B.x.v.B.I.B.B.P.P.R.E.Y.J.^.(.`.}.|.| H 1 < % y a t t f H >.XX X X<.| ( ~ J J J J ] >.}.|.`.`.(.[.Q.Y.v.v.U.T.I.V.I.I.I.I.B.x.",
"I.P.v.v.P.I.B.B.B.P.I.Y.U.W.Q.[.(.`..X>.( g 1 % 1 < < 5 J >.>.XX X|. X<.} | | | }.}.}.|..X.X.X`.^.J.Y.I.v.B.I.U.B.B.B.I.R.U.v.z.",
"P.P.n.B.P.P.B.B.v.v.B.P.U.Y.W.Q.[.(./.`.} ( V 5 4 f f H ;.>.|. X|. X X XXXXXXXXX.X.X/.`..X/.(.~.H.B.B.v.c.x.v.P.B.B.v.P.T.T.B.x.",
"x.B.P.P.B.v.B.v.x.c.z.x.B.B.P.Y.Y.H.^.^.(.(.!.' ] ] { } >. X X X X XXXXXXXXXXXoX.X{.'.(.(.~.H.b.b.b.z.l.l.c.c.x.B.v.v.P.I.I.P.P.",
"x.v.P.P.v.v.x.x.z.z.z.z.x.B.n.P.P.Y.Q.[.[.{.'.]./.>.}.|. X X X|. X XXXXXXXoXoX].{.{.{.{.(.~.b.b.z.z.j.j.l.l.z.z.v.B.v.v.P.I.I.I."
};
