/* XPM */
static char *out[] = {
/* columns rows colors chars-per-pixel */
"64 64 230 2 ",
"   c #07090A",
".  c #14100D",
"X  c #15150E",
"o  c #0B0B13",
"O  c #0D0D1B",
"+  c #120F18",
"@  c #0E1214",
"#  c #0F1318",
"$  c #121414",
"%  c #1B1316",
"&  c #151A14",
"*  c #1B1C14",
"=  c #12141C",
"-  c #161C1C",
";  c #191D1D",
":  c #250D0A",
">  c #25120A",
",  c #34140A",
"<  c #3C180B",
"1  c #220F10",
"2  c #271B18",
"3  c #371A11",
"4  c #1B2617",
"5  c #1C2C12",
"6  c #1B231B",
"7  c #242818",
"8  c #263619",
"9  c #333215",
"0  c #100F24",
"q  c #121323",
"w  c #171B20",
"e  c #191E21",
"r  c #13152B",
"t  c #1A152C",
"y  c #1B1739",
"u  c #251721",
"i  c #231C3D",
"p  c #1C2224",
"a  c #1F2528",
"s  c #222224",
"d  c #21262A",
"f  c #22292D",
"g  c #282B29",
"h  c #2B3525",
"j  c #313D23",
"k  c #34392A",
"l  c #2C2839",
"z  c #372C32",
"x  c #353637",
"c  c #431C0C",
"v  c #4A1F0C",
"b  c #4D220C",
"n  c #53250C",
"m  c #5D2A0D",
"M  c #4D3417",
"N  c #632E0F",
"B  c #69320F",
"V  c #683411",
"C  c #763A11",
"Z  c #493B32",
"A  c #2A4616",
"S  c #364917",
"D  c #2D5312",
"F  c #335816",
"G  c #35680F",
"H  c #39780C",
"J  c #396714",
"K  c #3B7616",
"L  c #2C4124",
"P  c #364326",
"I  c #3A472A",
"U  c #3C5129",
"Y  c #3A4734",
"T  c #4D4C17",
"R  c #57591A",
"E  c #68451A",
"W  c #774B19",
"Q  c #556818",
"!  c #457015",
"~  c #467915",
"^  c #577718",
"/  c #67681C",
"(  c #70751A",
")  c #544E27",
"_  c #4D4E32",
"`  c #475834",
"'  c #6F5B2E",
"]  c #4A6E28",
"[  c #4E6538",
"{  c #546737",
"}  c #52633A",
"|  c #546B3A",
" . c #58753B",
".. c #66652A",
"X. c #786829",
"o. c #6E742F",
"O. c #6A6A35",
"+. c #1D1B46",
"@. c #221D4A",
"#. c #251F53",
"$. c #1F2358",
"%. c #292746",
"&. c #272356",
"*. c #24235C",
"=. c #312C50",
"-. c #232662",
";. c #282865",
":. c #2A2A6C",
">. c #2A2D74",
",. c #2D3474",
"<. c #2E317C",
"1. c #313379",
"2. c #655A45",
"3. c #5E6444",
"4. c #5C7541",
"5. c #5F7A41",
"6. c #617C42",
"7. c #884714",
"8. c #934C15",
"9. c #89561B",
"0. c #9B5316",
"q. c #995518",
"w. c #A35717",
"e. c #AB5E19",
"r. c #856B1A",
"t. c #966B1D",
"y. c #8F761D",
"u. c #AD6119",
"i. c #A56A1D",
"p. c #B2651A",
"a. c #B86C1B",
"s. c #AB761E",
"d. c #BD731C",
"f. c #B7791F",
"g. c #956822",
"h. c #8A7129",
"j. c #A97926",
"k. c #B47923",
"l. c #C0771D",
"z. c #C47C1F",
"x. c #C57E21",
"c. c #8A7549",
"v. c #2B8E00",
"b. c #3C8809",
"n. c #369500",
"m. c #3B9601",
"M. c #369A00",
"N. c #3D9A00",
"B. c #3F9508",
"V. c #3FA000",
"C. c #47880A",
"Z. c #568C0C",
"A. c #429505",
"S. c #439D01",
"D. c #499E03",
"F. c #48950B",
"G. c #4C9C0B",
"H. c #54970A",
"J. c #488813",
"K. c #568818",
"L. c #4A9614",
"P. c #579715",
"I. c #678618",
"U. c #63941F",
"Y. c #45A101",
"T. c #4BA301",
"R. c #4EA901",
"E. c #4EA10A",
"W. c #51A602",
"Q. c #53A901",
"!. c #5AAD02",
"~. c #53A40C",
"^. c #58A216",
"/. c #518B26",
"(. c #5A9729",
"). c #5C8B33",
"_. c #5E9334",
"`. c #688C28",
"'. c #618C3B",
"]. c #679936",
"[. c #64923B",
"{. c #6AA034",
"}. c #5E8340",
"|. c #648445",
" X c #688645",
".X c #658A43",
"XX c #6A8B45",
"oX c #689041",
"OX c #AF802C",
"+X c #BB8525",
"@X c #CA821F",
"#X c #C68725",
"$X c #CA8422",
"%X c #CD8A23",
"&X c #D18D23",
"*X c #CE942B",
"=X c #D59124",
"-X c #D99728",
";X c #DC9C2A",
":X c #D19833",
">X c #E09E28",
",X c #DFA12E",
"<X c #DDA333",
"1X c #DBA53A",
"2X c #E2A42D",
"3X c #E5AA35",
"4X c #E4AB38",
"5X c #EAB33C",
"6X c #AC8E50",
"7X c #A59165",
"8X c #AF9766",
"9X c #DDAA40",
"0X c #EEBA43",
"qX c #EBBA49",
"wX c #F0BE46",
"eX c #C6A86A",
"rX c #F2C046",
"tX c #F2C34C",
"yX c #EDC457",
"uX c #F5CA56",
"iX c #F9D464",
"pX c #2C3484",
"aX c #2E388C",
"sX c #323787",
"dX c #333B93",
"fX c #343E9A",
"gX c #36409E",
"hX c #3742A4",
"jX c #3844A7",
"kX c #3845AB",
/* pixels */
"W.W.R.R.W.Q.!.Q.W.T.Y.D.D.Y.T.T.Y.S.N.N.Y.~.^.P.^ ....o.O.X.O.' O.O.3.o.O.o.].U.L.F.T.T.S.m.N.S.m.m.n.n.S.S.m.S.T.R.T.S.n.m.Y.T.",
"R.R.T.T.R.R.W.R.Y.D.D.D.D.S.S.D.S.N.N.V.T.E.P.K...X.X.h.h.h.X.' X.X.h.h.h.X.`.I.K.C.H.T.Y.V.N.m.M.n.n.m.S.S.m.S.T.R.T.N.n.M.S.T.",
"T.Y.N.N.T.T.Y.N.m.N.S.D.D.S.N.N.m.V.S.T.E.P.^ / ' 9.t.j.j.j.g.g.g.g.j.OXj.t.t./ / Q Z.E.Y.S.m.n.n.n.m.A.D.D.S.S.T.R.S.N.M.M.S.D.",
"V.Y.N.V.Y.Y.Y.m.m.N.S.Y.S.N.N.m.m.S.D.D.P.^ X.9.t.i.k.+X:X*Xk.j.i.k.#X*X#Xf.j.g.X.X.K.P.G.T.m.M.n.n.S.D.Y.D.N.V.T.D.S.m.m.m.N.D.",
"N.Y.T.W.T.T.D.S.S.D.Y.Y.S.S.S.m.S.D.~.P.( r.y.j.#X:X9X9X9X1X:X$X$X#X*X<X4X1X:X+Xj.y.( I.P.G.m.n.n.n.N.D.D.S.M.M.N.Y.S.N.V.N.Y.S.",
"Y.T.Q.Q.T.D.D.D.D.Y.Y.Y.N.N.A.S.D.D.P.I.r.t.f.*X9XqXqXqXqX4X-X$X@X$X-X2X4X5X0X1X*X+Xj.y.I.L.B.n.n.m.D.D.D.S.N.M.N.N.Y.D.Y.S.N.N.",
"R.Q.Q.W.D.S.S.D.Y.N.N.m.M.m.N.S.D.H.K.I.y.+X*X4XqXiXiXyXqX<X$Xl.d.d.%X;X2X3X5X4X<X*X+Xy.( K.C.N.N.S.T.T.S.S.Y.D.T.Y.Y.S.D.N.m.M.",
"R.Q.!.Q.N.N.S.S.Y.Y.m.M.n.n.m.D.W.H.^ ( s.&X2XrXiXiXiXyXqX:X#Xl.d.x.=X2X3X3X0XqX5X2X&Xj.r.^ Z.D.D.Y.T.R.Y.T.R.R.T.T.S.S.N.N.M.n.",
"D.T.Q.W.D.S.A.S.S.Y.D.N.m.m.N.D.H.Z.( t.+X-X3XrXuXiXiXuXqX9X-X&X%X*X4X5X5XwXwXwX5X3X>X@Xt.( Z.D.D.Y.T.T.W.W.!.!.R.Y.S.A.N.N.m.n.",
"S.D.Q.Q.D.N.N.A.D.T.W.R.D.N.S.S.H.I.r.a.%X>X3X5XtXuXuXuXwXqX4X,X<X3XqXqXtXwXwX5X5X5X;X$Xi.( ( H.D.Y.T.R.R.Q.!.!.R.T.S.S.S.N.m.n.",
"m.Y.Q.!.D.m.m.S.R.!.Q.Q.W.D.S.F.Z.( s.z.&X>X2X3X5X0XwXuXuXuXwXwXwXwXuXuXuXtXwX5X3X2X2X&Xs.s.( I.H.T.R.W.R.T.W.R.T.D.T.T.T.Y.m.n.",
"m.Y.W.Q.D.S.N.D.W.Q.Q.Q.W.T.D.C.( ( s.@X=X-X>X2X>X3X5XwXwXuXwXwXwXtXtXtXwXwX5X3X2X2X-X&X@Xs.t.( C.D.T.R.T.T.Y.Y.S.D.T.W.T.Y.m.M.",
"N.S.D.T.W.T.T.R.Q.W.T.T.D.D.T.H./ X.s.z.&X=X-X>X&X=X,X3X4X5X5X5X5X5X5X4X5X3X>X>X2X-X&X@X@Xs.X.Q C.S.D.Y.D.S.S.S.m.A.T.T.N.m.m.S.",
"S.S.D.T.T.T.W.W.R.D.D.S.S.Y.R.Z./ W i.d.z.$X=X=Xx.x.&X-X-X;X2X3X3X>X;X-X;X>X>X>X-X&Xz.l.z.i.E R C.S.S.Y.N.S.Y.S.n.m.D.D.m.m.N.S.",
"T.T.T.T.D.T.T.D.S.A.S.N.m.D.W.Z.R E 7.i.d.z.&X&Xl.l.x.$X$X&X-X>X>X-Xz.z.=X>X-X=X@Xz.a.p.p.q.E R C.D.S.N.N.S.T.D.A.n.m.S.S.N.S.S.",
"Y.Y.Y.D.S.S.D.S.N.m.N.N.N.Y.Q.H.Q E W 8.p.l.x.x.a.a.l.l.l.x.&X-X&Xz.l.l.$X&X&Xx.z.a.e.w.0.7.E Q C.Y.S.N.m.N.T.T.S.m.N.S.D.D.S.D.",
"N.Y.Y.Y.N.N.S.S.S.N.m.N.Y.Y.T.H.^ R E C 0.p.a.d.l.a.a.a.a.l.x.x.l.l.p.p.l.l.l.a.p.e.w.8.C E R ^ H.T.M.M.m.N.T.T.Y.Y.D.Y.Y.Y.Y.T.",
"N.N.Y.D.M.n.Y.Y.Y.N.V.N.V.Y.T.D.K.Q T V 7.w.u.p.p.p.p.p.e.p.a.d.p.p.e.p.p.a.p.e.w.0.7.W B T Q K.E.T.m.n.m.N.S.Y.T.T.Y.D.Y.Y.Y.T.",
"D.S.D.N.n.n.Y.T.Y.N.S.S.N.S.T.E.H.^ T N W 8.0.w.e.e.e.w.q.q.u.p.p.e.e.e.u.u.e.w.7.C V N m T ~ G.T.R.S.N.S.Y.Y.N.D.D.S.S.S.Y.D.D.",
"Y.T.Y.S.m.N.T.Y.N.m.S.S.N.S.Y.T.G.~ T M N B 7.8.0.0.8.8.7.7.8.0.0.w.w.e.w.w.0.7.C B n b 9 T ~ G.T.T.D.S.Y.S.V.N.S.S.S.S.S.S.D.Y.",
"R.W.W.Q.D.D.T.Y.N.M.N.S.n.m.N.A.J.! A 3 < n B C 7.7.C B V V C C C 7.0.w.q.7.W C B n v 3 7 9 K J.~.R.T.S.m.N.Y.Y.N.S.Y.T.T.T.T.Y.",
"T.W.W.R.T.T.Y.Y.N.m.N.N.n.n.N.b.K F 7 > > < b m B B m N m m m N B C 7.8.7.C B N n v , : * 8 F K L.D.D.D.m.m.Y.Y.N.N.Y.T.R.R.T.N.",
"D.T.Y.N.V.V.V.V.N.S.N.N.m.B.F.~ F 8 7 ; . : , , v b n n n n m n n m B C B m m n c , : . & 6 8 F ! L.D.S.m.N.Y.V.V.N.S.Y.R.R.V.N.",
"D.S.N.m.m.M.N.N.S.D.N.N.N.A.~ ! 8 7 2 * X . : : , c v v n n n b n n N N n b b c , > . $ 6 6 p L F ~ F.S.N.N.V.Y.N.Y.S.Y.R.R.V.N.",
"S.S.S.m.M.M.m.N.S.N.N.S.R.F.G A 8 6 e - w = . : : , c v b n n n n n n n b v c , > X - ; e e 6 4 A G C.D.S.Y.Y.Y.T.Y.Y.T.R.T.Y.Y.",
"S.S.S.N.m.m.N.S.A.A.A.S.H.J.D 8 6 e e p p p = 1 : : , c v b b b v v v v v c , : X = e p p p e 6 5 A b.F.S.N.V.Y.V.T.T.R.T.T.Y.Y.",
"Y.V.N.V.S.S.S.D.D.A.A.A.L.~ A 4 - 6 p p a a p e % 1 2 3 c v c v v c c c 3 2 1 2 w p a a d p ; 6 6 A H F.A.N.N.m.M.N.T.Q.Q.Q.Y.S.",
"V.Y.N.S.T.T.S.S.D.D.S.A.b.J 8 6 p p p a d f d p u 1 2 2 3 3 3 3 c , , , 2 2 2 u a f f f a p p - 6 8 G b.A.S.m.m.m.N.T.R.!.Q.Y.Y.",
"N.S.N.D.T.T.M.M.N.D.D.C.G A 4 p p p p p a f f f s p s u 2 7 2 2 2 2 2 2 s s s f f f a a p p p w - 5 A K C.A.m.m.S.Y.Y.T.Q.Q.R.Y.",
"S.D.D.T.T.Y.M.M.V.Y.D.~ D 8 6 6 p p p p a a f f f d d p s s s s s s s s g f f f f f a a p p p w w 6 5 D b.B.m.N.Y.Y.N.Y.R.Q.W.T.",
"T.T.T.T.T.S.n.m.Y.R.H.! 8 & & w p p p p a f f f f f f f d d d s g f f f f f l f f f a a p p p p p 6 6 5 K b.m.N.S.S.m.m.N.Y.R.W.",
"Q.R.T.Y.D.S.n.m.T.E.J.J 5 . - 6 6 p p p a a a f f f f f f f d d f f f f f f f f f a a p p p p p w 6 & 5 F H b.m.m.m.M.m.N.D.T.T.",
"Q.R.Y.N.S.N.m.N.T.S.H A 4 - - - - p p p p a a a f f f f f f f f f l f f d d d f f a p p p w w w p - - 5 A G v.m.m.n.n.N.R.W.T.D.",
"Q.Y.N.N.N.N.m.B.Y.A.D A 4 - - 6 - - w p p a a a a f f f f f f f f f g d d d d f p p a p p p 6 w - - - 4 A D H A.m.m.N.N.T.T.S.N.",
"R.Y.M.M.m.m.n.m.S.b.D 8 4 @ 6 & - - 6 p p p p p p a a a a a f f f d s s d a d a a p p p w p - 6 - - # & 8 D b.S.S.S.T.D.N.m.N.m.",
"R.R.M.M.N.m.n.m.B.b.G A & @ & * & & - - - p p t r p p a p a a a d d s e p a p p p w w 6 w = # - - # @ 5 A J J.Y.D.D.T.D.N.m.N.N.",
"R.R.V.M.N.N.n.n.m.B.J.F 5 . X * @ . @ @ # - = w p p p p e p p p p p p p p p e e q q = # $ o + + # q # 5 J /.L.Y.D.D.S.S.D.D.S.S.",
"R.Y.N.m.Y.N.m.M.m.S.F.~ 8 5 5 > 5 * * & @ @ # # w w w w - - - w w w w p w w - = # O @ @ $ X + + r r O 8 K B.G.E.D.S.m.N.N.Y.S.D.",
"N.m.n.n.S.Y.S.N.S.T.~.Z.T S 9 9 9 M 9 9 $     o O # # # # # + + # # # # # # # o o     @ 6 6 ; t i +.q 5 K B.B.V.N.S.N.N.m.m.N.Y.",
"m.m.m.N.S.D.S.S.T.R.Q.H.J.] R R ) ) ) T - O O 0 r r r r r q 0 0 0 0 r r r r r r 0 O o $ h j g g %.l t 8 K v.M.V.D.S.N.m.m.m.S.Y.",
"m.S.D.D.D.N.N.S.T.R.T.G.G.K.I.o......._ s t +.$.-.-.-.-.$.+.+.y y +.+.$.-.-.-.$.$.+.y a _ ` _ x z Z u 8 H A.S.D.T.Y.m.m.A.S.T.T.",
"S.S.D.T.T.D.N.S.T.R.Y.T.~.^.^.U.`.o...] h i -.<.pXpXpXpX>.:.-.*.-.-.:.>.pXpXpXpX>.-.+.l } 6.3.2.2._ Z j H m.S.D.W.R.S.m.D.T.W.W.",
"D.D.T.W.Q.R.R.T.Y.Y.Y.T.T.E.~.H.Z.K.L.] L %.,.dXfXfXgXdXaXpXaXdXaXaXpX<.dXfXhXfXdX,.%.x _ 3.c.7X7Xc.) S H n.m.D.Q.Q.D.D.T.W.T.T.",
"R.T.T.T.Q.R.R.Y.S.S.T.R.T.T.R.T.G.G.L.~ L %.1.gXkXkXkXhXdXaXgXhXjXgX<.<.dXhXkXhXhXsX%.x 2.c.8XeXeX6X' T ~ B.m.S.W.Q.D.D.T.W.T.T.",
"Q.!.W.T.T.D.S.m.m.V.T.R.R.R.T.Y.N.F.L.~ L %.gXgXkXkXkXhXdXsXhXkXkXdX:.;.aXgXkXhXgXsX=.Z c.6XeXeXeX6X' R J.S.N.N.Y.T.N.m.D.D.T.T.",
"Q.Q.Q.R.D.S.m.n.m.Y.T.R.R.E.V.V.S.F.J.K x &.,.gXjXkXhXfXsXsXfXgXjXaX*.*.<.fXhXkXgX1.;.Z c.6XeXeX6Xc.X.Q C.D.N.N.N.N.m.m.S.D.T.T.",
"T.R.Q.R.Y.m.n.m.Y.Y.Y.Y.Y.Y.B.B.L./.] Y =.*.,.gXhXjXfXsX:.:.sXdXaX<.@.@.:.aXhXhXgX1.=.Z Z ' c.c.c.h.I.Z.G.Y.M.M.N.Y.N.N.S.S.T.T.",
"Y.T.R.R.Y.m.n.n.Y.T.Y.N.D.D.B.B./.] Y x =.;.,.aXhXhXsX>.#.#.:.1.,.;.y y *.>.aXdX1.,.#.i c Z 2.c.o.`.P.~.T.V.V.M.N.S.Y.S.Y.D.Y.Y.",
"Y.Y.V.S.S.N.M.M.S.Y.N.Y.S.G.L.(.] [ x %.$.:.<.dXfXfXsX;.y t @.%.=.i q q +.*.:.>.:.#.@.i u 7 _ O. .`.H.E.Y.S.N.N.S.Y.Y.T.T.Y.N.N.",
"Y.V.N.Y.S.S.M.M.N.S.N.S.G.L.(.). .` x i &.-.>.<.sXsX:.@.O + s z x x 2 + t y $.*.@.@.i t % 7 _  .'.'.P.~.F.S.S.S.D.T.T.T.Y.D.Y.V.",
"Y.Y.Y.R.Y.D.m.M.m.m.D.G.^.].'.}.4.} ` %.%.+.*.*.*.#.@.t o $ k _ { ` g + + q r t t t 0 + ; h `  . X[.].(.G.S.m.N.T.R.T.T.V.V.T.Y.",
"S.T.Y.R.Y.D.N.m.S.S.Y.~.(.[..X|.5.4.} _ l %.y y i y t 0   $ P [ 6.| 9 $ + # = q 0 O o . * j { |. X[.[.(.L.S.S.D.R.W.T.D.V.V.R.R.",
"n.N.Y.R.T.N.m.N.Y.T.T.G.]..X.X|.|.6.5.} Y f t t q t q +   X j [ 6.{ 9 & $ = - - % = o X 6 j [ 6. X X'.`.L.D.T.W.!.!.T.D.Y.T.T.Y.",
"N.N.T.T.Y.N.V.Y.R.W.T.L.).|.|.|.|.|.6.| x g p q q + + +   X P { 6.{ h * & & - - = $ @ & 8 I | |. X X'.'.L.D.T.Q.Q.Q.Y.Y.T.T.T.R.",
"Y.Y.T.D.N.m.Y.R.Q.Q.R.P._.|.|.|.|.6.| ` h 4 - - e w +     X P `  .{ j 4 * - - - = = @ & h U 4.|. X X X).L.N.R.W.T.T.T.Y.T.Y.Y.Y.",
"R.T.D.N.m.N.Y.R.Q.Q.Q.H.'.|..X|.|. .` P 7 * - e e e $     . P [ 6. .I 8 4 6 ; ; - - & 8 U 3.}.|. X'.XX).L.m.R.R.T.Y.T.T.D.S.Y.V.",
"Q.R.S.S.S.N.M.V.Y.R.R.~._.'.|.|.}.4.L h - & - 6 p p &     X P } 6.6.[ I h 4 6 6 - 6 h Y | }.|.|..X.XoX(.G.N.R.!.R.R.W.T.T.D.S.N.",
"Q.R.S.N.D.Y.M.N.V.Y.R.^.(.[..X|.}.| I 4 6 = 6 p d d - @   X _  .6. X4.3.P L h j h L U 3.5.|.|.|..XoX{.(.G.S.Q.!.W.R.W.T.D.D.S.A.",
"T.D.N.N.S.S.N.N.V.R.!.!.^.(._.|.|.4.` L 4 - p d g g a -   5 `  .6.6.6.4.| [ } | 3.[ 4.}.}..X|..X.X[.(.^.Y.Y.Q.Q.T.T.T.T.T.D.S.S.",
"D.D.N.N.D.Y.Y.S.Y.Y.!.Q.~.P.(.[..X}.| U 8 ; 6 d g h d 6 & 7 [ |. X X X|.}.|.5.|.|.|.|.|.|..X.XoX_.(.^.E.S.Y.R.Q.D.D.T.T.T.T.S.m.",
"T.Y.Y.Y.T.Y.Y.Y.S.Y.E.T.~.~.^.(._.[.}.[ 8 6 6 5 f f a a p P | XX X X X X|.|. X.X.X.X.X.X.X.XoX[.(.L.~.T.V.Y.T.T.D.S.V.T.Q.R.m.n.",
"Y.S.Y.Y.Y.Y.D.A.S.N.S.D.T.T.~.^.(._._. .U 8 A h h g f h L Y  .XX X X XXX XXXXXXXoXoX.X.X.X[._./.L.F.S.N.m.M.N.Y.N.N.V.T.R.R.m.m.",
"M.m.V.Y.V.N.m.m.n.m.m.N.N.N.R.T.E.(.(.)./.] ` U I L L Y 3.4.6. X X XXXXXXXXXXXoX[.{.[.]._././.B.B.B.n.v.n.n.M.m.m.N.N.V.T.T.D.D.",
"n.M.V.N.N.m.m.n.n.n.M.m.m.N.V.Y.Y.E.(.(._./.] [ U I Y ` 4. X X|. X XXXXXXXXXXXoX{.{.{._._.L.B.B.n.n.v.v.v.n.n.M.M.M.N.N.Y.T.T.T."
};
