/* XPM */
static char *out[] = {
/* columns rows colors chars-per-pixel */
"64 64 234 2 ",
"   c #10100D",
".  c #1E130D",
"X  c #0B0E17",
"o  c #0D1313",
"O  c #0E121A",
"+  c #131614",
"@  c #141B14",
"#  c #1A1B14",
"$  c #12151B",
"%  c #151B1C",
"&  c #191D1D",
"*  c #250D0A",
"=  c #2A130B",
"-  c #37160B",
";  c #3D1A0D",
":  c #271E1B",
">  c #351B13",
",  c #19290F",
"<  c #1A2517",
"1  c #1B221B",
"2  c #1D3314",
"3  c #25281C",
"4  c #253815",
"5  c #25331C",
"6  c #29361D",
"7  c #3F371B",
"8  c #0E1326",
"9  c #131422",
"0  c #191E21",
"q  c #161828",
"w  c #181737",
"e  c #241C36",
"r  c #1C2224",
"t  c #1F2528",
"y  c #1F203A",
"u  c #232425",
"i  c #21262A",
"p  c #23292D",
"a  c #2A2828",
"s  c #2C3622",
"d  c #373927",
"f  c #262C30",
"g  c #2C2A37",
"h  c #383335",
"j  c #471D0C",
"k  c #4C210D",
"l  c #53240D",
"z  c #58270D",
"x  c #5B290D",
"c  c #503614",
"v  c #642E0E",
"b  c #69320F",
"n  c #6B3712",
"m  c #733910",
"M  c #453730",
"N  c #2B4717",
"B  c #344B1B",
"V  c #2C5A12",
"C  c #345619",
"Z  c #37750D",
"A  c #396915",
"S  c #3D7414",
"D  c #384829",
"F  c #3D4B2F",
"G  c #4D5117",
"H  c #7D4313",
"J  c #6E541B",
"K  c #46790D",
"L  c #45681B",
"P  c #566816",
"I  c #457B15",
"U  c #577B17",
"Y  c #666D18",
"T  c #726D19",
"R  c #78781E",
"E  c #4E4A2F",
"W  c #455829",
"Q  c #464A36",
"!  c #475933",
"~  c #585537",
"^  c #62582C",
"/  c #695737",
"(  c #537727",
")  c #4C6535",
"_  c #556935",
"`  c #516539",
"'  c #536B3A",
"]  c #59773A",
"[  c #5A753D",
"{  c #77692A",
"}  c #706D2E",
"|  c #696935",
" . c #181C46",
".. c #231C49",
"X. c #231E52",
"o. c #292549",
"O. c #332B4C",
"+. c #3C3543",
"@. c #262358",
"#. c #272763",
"$. c #2C2B6D",
"%. c #2A2D74",
"&. c #2D2E78",
"*. c #2F3076",
"=. c #2D317C",
"-. c #333376",
";. c #665B47",
":. c #5C7640",
">. c #5E7B41",
",. c #756B49",
"<. c #637E43",
"1. c #864513",
"2. c #944D15",
"3. c #86571A",
"4. c #995216",
"5. c #A45918",
"6. c #AA5D18",
"7. c #886A1A",
"8. c #97681B",
"9. c #92761D",
"0. c #AD6319",
"q. c #A36C1D",
"w. c #B2651A",
"e. c #B56B1B",
"r. c #B96D1B",
"t. c #A4761D",
"y. c #BD731D",
"u. c #B6791D",
"i. c #976A22",
"p. c #89732B",
"a. c #A56B24",
"s. c #A77927",
"d. c #B27F25",
"f. c #C1771D",
"g. c #C27A1E",
"h. c #C57D20",
"j. c #8E794B",
"k. c #2A8E00",
"l. c #3C8609",
"z. c #2E9500",
"x. c #359500",
"c. c #3A9600",
"v. c #369900",
"b. c #3D9A00",
"n. c #3E9508",
"m. c #3DA100",
"M. c #46890B",
"N. c #558C0C",
"B. c #429503",
"V. c #439D00",
"C. c #499D03",
"Z. c #43940B",
"A. c #48960A",
"S. c #4D9C0A",
"D. c #54970B",
"F. c #498A13",
"G. c #598919",
"H. c #4C9715",
"J. c #539C12",
"K. c #579818",
"L. c #668718",
"P. c #6B8B1A",
"I. c #45A101",
"U. c #4BA301",
"Y. c #4DA901",
"T. c #4DA209",
"R. c #51A601",
"E. c #53A901",
"W. c #59AC02",
"Q. c #52A20A",
"!. c #55A215",
"~. c #5A8927",
"^. c #4D9122",
"/. c #599728",
"(. c #5C8A37",
"). c #5D9332",
"_. c #6B8C2B",
"`. c #678336",
"'. c #628D3D",
"]. c #649537",
"[. c #5EA425",
"{. c #64A231",
"}. c #5F8043",
"|. c #648445",
" X c #698646",
".X c #648A42",
"XX c #6F8E41",
"oX c #6A8A45",
"OX c #B6801D",
"+X c #8D8338",
"@X c #B5832A",
"#X c #C5841F",
"$X c #CA8421",
"%X c #C78927",
"&X c #CE8A22",
"*X c #D28E23",
"=X c #CC912B",
"-X c #D79425",
";X c #DC9B26",
":X c #D59329",
">X c #DB9B2A",
",X c #CC9838",
"<X c #E09F2A",
"1X c #DFA02E",
"2X c #DDA638",
"3X c #E2A22B",
"4X c #E2A633",
"5X c #E6AA34",
"6X c #E8AE36",
"7X c #E5AC3A",
"8X c #EBB43D",
"9X c #9D8549",
"0X c #98855C",
"qX c #AE9350",
"wX c #AA9457",
"eX c #BFA15D",
"rX c #AD976B",
"tX c #B59D68",
"yX c #DEAD44",
"uX c #EDB944",
"iX c #F1BE46",
"pX c #C6AA6B",
"aX c #F2C24B",
"sX c #F5C954",
"dX c #F0C859",
"fX c #F9D564",
"gX c #2F3382",
"hX c #313585",
"jX c #313689",
"kX c #33388E",
"lX c #343B94",
"zX c #343E9B",
"xX c #3641A3",
"cX c #3844AA",
/* pixels */
"R.R.Y.Y.U.Y.E.E.R.U.C.U.V.U.U.U.I.b.b.b.I.Y.Q.K.U _ Y | <.| | ^ ^ | } { } } _.K.Z.B.C.U.B.c.V.V.c.x.k.k.V.V.b.b.U.Y.I.V.x.x.V.U.",
"Y.Y.I.U.U.Y.E.R.U.I.C.V.V.C.I.V.V.V.b.I.U.S.G.G.T { { p.p.} { { { { p.p.p.} P.P.F.Z.S.R.V.b.b.b.c.x.x.x.V.V.B.V.Y.U.I.I.c.c.V.U.",
"I.I.b.m.U.U.I.V.b.b.V.V.V.V.b.b.b.b.V.U.S.N.U Y J 3.8.i.@X@Xa.8.8.a.d.@Xs.s.7.{ Y U D.D.U.V.b.v.c.c.b.V.V.V.V.I.U.U.I.b.b.c.V.I.",
"I.I.b.V.U.Y.V.V.b.V.V.V.V.V.b.b.b.V.V.S.K.G.R { i.a.d.%X=X:X@Xd.e.d.%X=X=X@Xs.i.7.R L.K.S.C.c.x.x.b.V.U.U.I.V.I.I.U.b.b.b.m.b.I.",
"m.I.U.R.R.Y.V.V.V.V.I.I.B.B.b.V.V.U.Q.J.L.P.9.OX,X,XyXyX7X4X:X&X#X$X=X1X2X2XyX@Xs.9.R P.D.S.b.x.x.c.V.U.C.V.v.m.b.I.V.I.I.m.b.b.",
"I.U.E.E.R.U.C.V.U.V.I.I.V.b.V.V.C.C.J.L.R p.OX=XyXiXdXdXuX4X:X$X$X$X:X1X7X8XyXyX=XOX9.P.L.D.B.c.v.c.V.C.U.V.b.c.b.V.V.V.V.V.b.b.",
"Y.R.E.R.V.V.V.V.V.V.c.b.c.b.b.V.V.S.G.L.9.OX-X2XdXfXfXiX7X:X$Xh.y.y.*X>X3X5XuX7X1X=Xu.9.P.G.B.B.b.V.U.C.V.V.I.V.I.I.b.m.b.b.b.v.",
"Y.R.W.R.V.b.V.V.V.b.b.c.c.c.B.V.V.D.U R OX@X;XiXfXfXfXdX7X>X&Xh.y.$X:X1X4X5XuX8X6X>X%Xt.R U N.B.B.V.U.Y.U.U.Y.Y.Y.I.m.b.b.c.v.c.",
"C.C.E.R.V.V.b.V.I.I.U.V.b.c.b.B.C.N.Y 7.u.-X3X8XsXfXfXfXiX7X>X:X:X>X7XuX8XiXaXaX8X3X;XOX7.Y N.C.V.I.Y.Y.R.E.W.W.R.Y.V.b.b.c.c.c.",
"V.C.E.E.C.B.b.B.I.U.Y.Y.V.V.V.B.D.L.T 6.#X;X5X6XiXsXsXsXiXiXyX4X4X7XuXiXaXaXaX8X6X5X;X#X8.T L.D.C.I.Y.R.R.E.W.W.E.U.C.V.V.b.c.x.",
"B.C.E.E.C.b.b.V.Y.E.W.W.Y.C.V.A.G.P.9.u.*X;X3X5X6XuXuXiXsXsXiXiXuXaXdXdXaXaX8X6X5X3X;X#Xu.8.R N.A.U.Y.R.R.E.R.Y.U.U.U.C.U.I.c.v.",
"V.V.E.E.C.V.B.C.R.W.W.R.R.U.V.N.L.R t.u.&X;X;X;X;X<XyXuXiXiXiXiXiXiXaXaXaX8X8X4X3X;X;X*Xg.8.T G.A.C.U.Y.R.U.U.U.V.C.R.R.U.I.c.x.",
"B.B.V.U.U.R.U.R.R.R.Y.Y.C.I.U.N.Y { q.u.$X*X;X:Xh.&X>X4X5X5X5X5X6X6X7X5X4X4X3X<X3X-X*X#Xf.q.J P M.V.V.U.V.V.I.V.b.B.U.U.b.c.b.b.",
"V.V.V.C.Y.R.R.R.U.U.U.I.V.V.U.D.Y J 8.e.f.$X*X:Xh.h.&X:X:X-X>X<X3X>X:X:X:X>X;X;X-X&Xg.y.y.q.J P M.C.V.V.b.b.V.V.c.c.C.U.b.c.V.B.",
"I.I.U.U.I.V.C.U.V.V.m.V.b.U.Y.D.P J 3.4.w.f.h.h.f.r.h.h.h.h.:X>X;X-Xg.h.*X>X-X*X#Xu.r.0.5.3.J P N.I.V.b.c.c.U.U.c.c.V.V.V.B.B.b.",
"U.U.U.I.V.V.V.V.b.c.c.c.V.U.E.D.U G J 1.5.w.f.h.w.w.f.f.r.f.$X&X&Xg.r.r.h.&X&Xg.r.0.5.4.1.J P P A.U.V.b.x.c.U.U.B.c.V.V.C.V.V.V.",
"V.I.U.I.b.c.V.I.V.b.c.b.V.I.Y.Q.G.P c b 2.6.0.r.r.w.w.r.w.r.f.f.f.w.w.w.r.r.r.e.0.5.2.1.v c P F.C.V.b.b.v.b.I.U.C.V.V.U.I.I.I.U.",
"I.V.V.V.c.v.m.I.I.b.b.b.m.I.Y.T.G.I G x H 2.4.0.w.w.w.6.6.6.w.w.w.w.6.6.w.w.w.6.4.1.H n c c K A.C.U.b.c.c.b.I.I.I.C.C.C.I.V.I.U.",
"U.V.V.B.x.x.I.Y.I.V.b.V.V.V.Y.T.D.F.G G n H 1.4.5.6.6.5.4.4.5.6.6.6.6.6.6.5.5.4.H m n c c G K V.Y.U.V.b.I.I.b.I.I.C.V.V.V.V.I.I.",
"Y.U.C.V.c.b.U.Y.I.b.V.V.b.b.I.U.A.I G c c v m 1.2.2.2.1.1.H 2.2.2.2.5.5.5.2.2.1.n x k j 7 C F.V.U.Y.I.b.V.I.I.b.V.V.V.V.V.V.m.I.",
"R.R.R.Y.C.V.Y.U.V.c.V.b.x.c.m.n.M.L N 3 - ; l b m m m b b b n n m H 2.4.2.H m b x k - - < N Z Z.U.U.U.V.b.V.V.I.V.m.I.U.U.U.I.I.",
"Y.R.R.Y.U.I.U.V.b.b.b.b.x.x.n.Z.Z C 4 # . = - k z x x z z z z x v b 1.1.m b v l k - = . % 2 A S Z.A.C.V.b.b.I.U.b.b.I.U.R.Y.I.I.",
"V.V.I.b.b.m.m.m.I.m.m.c.c.n.F.I B 2 < &   . * - j j k l l l l l z z v v x z l k - = . @ @ < 5 N S Z.S.V.b.b.V.I.m.b.I.I.Y.Y.m.m.",
"V.V.b.b.b.b.b.b.b.I.b.b.V.Z.I L 4 < 1 & @     * = ; j k l l l k l l l z k k j ; = * + % 0 0 0 5 C S Z.V.B.b.U.I.b.I.I.I.Y.Y.m.m.",
"V.V.I.b.b.b.b.b.b.V.b.V.C.D.L B 3 < % r 0 & + . * * j j k l l l k l l k j j - * , @ r r r % r < N A M.C.V.V.I.I.I.I.C.U.U.I.m.m.",
"V.V.b.I.b.b.B.V.B.B.B.B.R.M.V 3 < 1 r r t r & #   * - ; j j k k k j j j > - * * @ < t t r r 1 r s C Z B.V.V.I.m.I.U.U.Y.Y.U.m.m.",
"I.V.V.V.I.I.V.V.C.V.V.B.C.K N < 1 r r t p p q 0 $ : : : > j ; > j ; > > : : : q < p f p r r r t 1 N Z c.n.b.b.b.b.I.U.R.E.Y.I.V.",
"m.V.V.V.U.I.V.b.V.V.B.B.M.A 4 # % r t t p p p t u r e : : > > > - - > > : u u i p p f p r r r r % 2 A l.n.b.c.c.c.V.I.Y.E.R.U.I.",
"V.V.V.C.U.U.c.v.V.I.V.l.A C 5 & r r r t t t p p i i u u : : : : : : : : u i i i f p t r t r r r % < B A M.V.c.b.V.V.V.I.E.E.E.R.",
"V.V.C.U.U.I.v.x.I.V.B.Z V 4 1 r r r r r t t p p p i i i i i u u a u a i a p p p f f r 0 t t r % 1 1 5 C l.Z.c.b.I.I.c.V.U.E.R.R.",
"U.Y.U.U.U.V.c.v.I.C.A.Z 4 , 1 r r r r r r t p f p p p i i p i i f a f p p p p p f p r 0 t r r % % < < 4 Z k.c.b.V.V.b.c.V.U.R.R.",
"E.R.U.V.C.V.x.c.U.C.F.A , # & & 0 r r t r r t t p p p p p p p f f g p p p i p i p t 0 r r r 0 % @ % @ 2 V Z x.c.b.b.c.c.b.I.C.U.",
"R.U.I.m.V.b.x.c.V.Z.S C , + % & 0 0 r r r 0 r t p p p p p p p f f f p p p p p p r r r r r 0 r % % % o 2 N S k.v.v.v.c.b.Y.Y.C.V.",
"T.I.b.v.b.b.x.x.V.Z.S N ,   @ % % % 0 r r r r r t t t t t p t t p p p t t t t t r r r r r 0 % % % @ o @ B A l.n.v.V.n.V.U.U.V.V.",
"Y.I.m.v.c.b.c.c.b.Z.I C ,   X X $ $ 0 0 0 r 0 r r r r t t t r t t t t t r t t 0 r 1 r r 0 % @ o o o o , C F.n.b.V.V.U.I.b.c.b.V.",
"Y.I.v.v.b.b.x.v.m.b.F.A 4 + & u @ @ % % 1 9 % % 0 r 0 0 0 0 0 r r r r 0 0 0 0 0 % % $ $ $ $ o o o o o , A F.n.m.I.I.U.V.v.c.b.V.",
"R.U.m.c.b.b.x.v.v.b.A.F.G d ~ E s : + o   o o o % % % $ $ % 9 0 1 r 1 0 9 % % @ $ o O o o o O O 8 t 1 N S S.T.I.C.V.V.B.V.V.V.I.",
"Y.I.m.b.V.V.c.b.b.V.C.N.W ~ ,.,.~ D 3 < @   o o $ @ % 8 O 8 $ $ O % 8 8 9 9 $ O X X X o 1 < $ 8 w y a B l.T.U.U.I.V.b.b.V.V.C.V.",
"m.b.v.c.V.U.V.V.V.U.E.N.L / 9XwX0X,.^ c 3 & X 8 8 8 8 8 8 8 8 O X O 8 8 8 8 8 8 X X X q D D t t y g f C l.C.b.m.V.V.B.b.b.b.V.B.",
"b.b.b.b.V.I.U.V.I.U.U.D.P | 9XeXtXrXp.^ d t w w  . . . . .w w 8 8 w w  . . . . . .w 8 p F ! h +.+.+.h C l.B.b.V.V.V.B.b.b.B.V.V.",
"b.b.U.C.I.V.V.V.U.R.U.S.~.`.p.9XpXeX9X{ E h #.%.&.=.gX=.%.%.#.#.#.#.#.%.%.=.=.=.%.#.y f Q ~ ;.,.;.;.E L l.b.V.U.U.U.b.b.V.V.R.R.",
"V.V.C.U.U.C.V.V.U.U.I.T.!._.+X+XqXqX9X/ M +.-.lXlXzXzXzXjXgXgXjXjXjX=.gXkXzXxXzXkX%.@.h E ;.j.0Xj.j.~ W Z c.b.I.R.Y.V.V.C.U.R.R.",
"V.C.C.U.R.R.U.C.V.V.C.U.!.D._.`.XX,.| ~ a g -.lXxXxXcXzXjXjXlXxXxXkX=.=.lXxXxXxXzX-.O.h / j.tXpXpXj./ W M.c.v.b.R.R.C.C.U.R.R.R.",
"U.R.U.U.E.E.Y.V.b.V.U.U.U.S.K.L.~.] ] ! a o.*.lXxXcXcXzXjXjXxXcXcXlX%.$.kXxXcXxXzX-.O.M ,.j.pXpXeXqX| L M.c.v.b.U.R.U.V.U.U.U.C.",
"E.E.Y.U.U.U.V.c.b.V.U.Y.E.C.A.A.H.^.~.) h o.%.lXxXcXcXzXjXjXxXcXcXkX@.@.hXzXxXxXlX-.O.M j.j.pXpXqX+X} F.A.I.b.b.V.V.V.b.V.U.U.U.",
"E.E.Y.Y.C.V.b.c.b.V.U.Y.R.C.C.B.b.F.~.! o.@.=.lXxXcXxXlX&.%.jXlXlXgXX.X.%.jXzXzXlX-.O.M / a.qXqXp.} ~.J.T.I.b.b.b.b.b.c.V.V.U.U.",
"U.R.R.R.I.c.x.c.V.U.U.V.U.V.b.n.l.I Q h O.@.=.lXxXxXzXhXX.X.#.%.$.#. .X.#.=.kXlX-.-.O.g M M p.`._.L.J.R.Y.I.b.v.b.B.V.V.V.V.U.U.",
"C.U.Y.U.I.v.x.x.U.Y.V.V.C.V.b.c.M.S d g o.#.*.jXlXlXkX$. .w o.O.o.o.y  .X.@.%.=.$.@...e : M / `.~.K.Q.R.Y.m.m.v.V.V.V.I.I.I.V.V.",
"I.I.I.b.V.b.v.v.I.I.I.b.V.b.V.Z.H.L s e o.#.&.gXgX=.$.X.w u h Q Q F f q w w  .o.....e a d W ] ].K.D.R.U.V.V.V.b.I.I.I.U.Y.I.I.b.",
"I.V.I.m.I.b.v.v.b.V.b.b.I.C.A.H.~.( F g o.X.X.X.#.#.X.e 9 3 W ` ` ! a & 9 q w w w q 9 u d ~ ( )./.J.S.U.V.V.V.V.I.I.U.U.I.I.I.b.",
"m.I.I.I.I.I.c.c.c.b.V.C.I.S.H./.(.] :.Q f e w w w w w 0 @ 5 ! >.<.` s # $ 9 8 q O X X # d W ] (.].K.Q.R.V.B.b.V.I.Y.Y.U.m.I.I.I.",
"b.I.Y.Y.U.I.b.b.b.V.V.U.J.K./.(.}.|.>.` a 0 9 9 9 9 9 # + s ' |.<.:.6 $ # $ 0 % $ X X + s W ] .X].{.K.S.V.B.b.V.Y.R.U.V.I.m.Y.Y.",
"b.I.Y.Y.U.V.b.m.I.I.m.S.K.).'..X|.|.|.' s $ $ 0 q & + + + 6 ` |. X;.5 O % % r % & +   + 6 F ] |.`.'./.K.B.V.U.Y.W.E.U.I.I.Y.I.Y.",
"b.I.U.Y.V.b.b.I.Y.Y.I.S./.]..X|.|.}.>.! < o % % & & + +   6 ` |.<.:.s % 1 r 1 0 & $   + 5 F ] |.|..X]./.Z.V.U.E.W.R.U.I.Y.Y.I.I.",
"I.V.U.V.b.b.V.U.E.E.I.S.)..X.X|..X>.) D < $ $ r 0 & + o @ 6 ' <.|.' 6 1 t t r 1 % % X + 2 F :.|. X.X'.).Z.b.Y.E.Y.U.U.C.U.U.I.I.",
"U.U.I.V.V.b.V.U.Y.E.Y.J.)..X.X.X}.(.F s < $ % 1 r 0 + o @ 6 ` |.|.' s 1 t t 0 % % $ o @ D F :..X X XXX).n.n.U.Y.U.V.U.Y.V.I.V.m.",
"W.R.C.V.V.b.v.b.I.Y.I.!./.'..X.X|.] ! s < $ % r p p r 1 @ s ' |.|.' d 1 % $ @ o o + @ 2 F :.}..X XoX]./.Z.m.Y.E.R.Y.R.U.U.V.V.B.",
"R.R.V.V.C.m.m.m.m.I.U.!./.).'..X|.>.) D < % 1 t p f t r @ s ' |. X:.F a 1 < @ < @ 1 < D ' }.}..XoX].{./.S.I.E.W.R.R.R.U.U.C.V.B.",
"Y.U.V.b.V.I.b.b.I.Y.E.W.!./.).'.|.}.:.) 5 1 r t f f i 1 1 6 :.|. X<.:.! D s 6 6 N N F ) }.}.}..X].].[.!.m.I.R.W.R.U.U.U.U.U.V.V.",
"C.V.b.b.V.C.V.V.I.I.W.W.T.!./.)..X|.|.' D < r r i p r t 5 D :.oX X|.>.:.! W C F F F ) >.}..X.X'.]./.!.T.b.b.Y.R.U.U.U.U.U.C.V.b.",
"U.I.b.b.I.U.V.V.V.V.U.R.T.Q.!.[.)..X.X>.! d < 1 < 1 < s D ) >.oX X|.|.|.] ] ] ] }.}.}.}..X.X.X).K.J.T.I.b.b.U.U.V.V.V.U.R.Y.b.x.",
"I.V.b.I.I.I.V.V.b.V.V.V.Y.Y.T.!./.).].'.] ! B 4 4 s s D ;.<.|.oX X|. XoX X X XoX.X.X(.'.'.(.).^.H.S.T.b.c.v.I.V.V.b.b.I.R.R.B.x.",
"b.V.I.I.V.b.b.c.x.v.c.b.V.C.I.T.T.H.[./.).~.~.) ) ) ) [ |. X X|. X XoXoXoXoXoXXXXX{.).).).).^.n.n.v.z.z.z.v.v.v.b.b.b.V.U.Y.V.V.",
"c.b.I.I.b.b.b.c.x.z.x.c.b.b.m.I.m.T.!.[.{.{.].).'.>.|.|.oXoX|.|. X XoXoXoXoXXX].].{.{.)./.^.Z.v.n.x.k.k.z.z.x.v.c.c.c.b.U.U.U.U."
};
