/* XPM */
static char *out[] = {
/* columns rows colors chars-per-pixel */
"50 50 238 2 ",
"   c #050101",
".  c #0C0402",
"X  c #0E0708",
"o  c #130402",
"O  c #1B0601",
"+  c #140B0B",
"@  c #1B0C0C",
"#  c #180E10",
"$  c #1D1213",
"%  c #1E1418",
"&  c #2B0401",
"*  c #230A03",
"=  c #250806",
"-  c #2C0B02",
";  c #380403",
":  c #340C02",
">  c #3B0C01",
",  c #26110C",
"<  c #37140D",
"1  c #271416",
"2  c #251A1B",
"3  c #2B1B1E",
"4  c #361616",
"5  c #351A1D",
"6  c #3C1B1D",
"7  c #38201F",
"8  c #2C1D23",
"9  c #2C1E28",
"0  c #321924",
"q  c #331E24",
"w  c #3B1E23",
"e  c #2F2125",
"r  c #332226",
"t  c #3C2226",
"y  c #34242B",
"u  c #3B252B",
"i  c #37282D",
"p  c #3B292D",
"a  c #3C2C32",
"s  c #3F3035",
"d  c #470702",
"f  c #4C0200",
"g  c #420F01",
"h  c #550700",
"j  c #4D1101",
"k  c #471709",
"l  c #531301",
"z  c #561606",
"x  c #4A1517",
"c  c #44151A",
"v  c #441C1D",
"b  c #4C1D1D",
"n  c #541516",
"m  c #5B1C14",
"M  c #54161B",
"N  c #541C1C",
"B  c #5B1C1B",
"V  c #620300",
"C  c #780704",
"Z  c #631601",
"A  c #681909",
"S  c #731906",
"D  c #7A1D02",
"F  c #671714",
"G  c #631C1A",
"H  c #6A1D1B",
"J  c #751A14",
"K  c #7B1D14",
"L  c #4C2909",
"P  c #42221F",
"I  c #4A211E",
"U  c #55221E",
"Y  c #5B231D",
"T  c #5D281B",
"R  c #6B2406",
"E  c #772107",
"W  c #7A3802",
"Q  c #662319",
"!  c #63231D",
"~  c #6C251B",
"^  c #7A2316",
"/  c #74231B",
"(  c #752C1C",
")  c #7B2B1C",
"_  c #6B311D",
"`  c #79341D",
"'  c #431D21",
"]  c #4A1E22",
"[  c #531E20",
"{  c #442325",
"}  c #4C2423",
"|  c #452A26",
" . c #4D2927",
".. c #432529",
"X. c #4C2629",
"o. c #432A2D",
"O. c #4B2B2C",
"+. c #542524",
"@. c #5B2524",
"#. c #552926",
"$. c #5C2A26",
"%. c #502729",
"&. c #532C2C",
"*. c #5A2B2B",
"=. c #4F302F",
"-. c #5A302D",
";. c #422D31",
":. c #4C2E31",
">. c #522E31",
",. c #5D2E32",
"<. c #433135",
"1. c #4B3335",
"2. c #453539",
"3. c #4A3639",
"4. c #47383E",
"5. c #4C3A3D",
"6. c #543334",
"7. c #5B3433",
"8. c #573838",
"9. c #533B3D",
"0. c #5C3C3C",
"q. c #622A24",
"w. c #692924",
"e. c #6B2C24",
"r. c #632D29",
"t. c #762822",
"y. c #742C24",
"u. c #6A3326",
"i. c #62312C",
"p. c #743124",
"a. c #73342B",
"s. c #783828",
"d. c #633533",
"f. c #673835",
"g. c #623B3A",
"h. c #6A3C3B",
"j. c #743A34",
"k. c #783931",
"l. c #725000",
"z. c #776300",
"x. c #764228",
"c. c #6C413A",
"v. c #764438",
"b. c #4E3E42",
"n. c #523E41",
"m. c #5F3F40",
"M. c #613E42",
"N. c #544244",
"B. c #5C4245",
"V. c #554549",
"C. c #5B464A",
"Z. c #57484C",
"A. c #5A4A4D",
"S. c #5F5254",
"D. c #634344",
"F. c #674849",
"G. c #624E51",
"H. c #615356",
"J. c #67575B",
"K. c #716064",
"L. c #8B0400",
"P. c #980701",
"I. c #831E01",
"U. c #8A1905",
"Y. c #981A08",
"T. c #831D13",
"R. c #8D1914",
"E. c #A90600",
"W. c #B50600",
"Q. c #BB0900",
"!. c #A61D0C",
"~. c #872004",
"^. c #922202",
"/. c #9C2402",
"(. c #9B240E",
"). c #8E3907",
"_. c #882717",
"`. c #832C1B",
"'. c #932B13",
"]. c #9A2813",
"[. c #86341B",
"{. c #993516",
"}. c #A82705",
"|. c #B52907",
" X c #BC2C02",
".X c #B6350D",
"XX c #A33213",
"oX c #A43313",
"OX c #A83A16",
"+X c #B83A12",
"@X c #863925",
"#X c #86362E",
"$X c #963A22",
"%X c #C70700",
"&X c #D50800",
"*X c #DB0900",
"=X c #D11701",
"-X c #E20700",
";X c #E40900",
":X c #EC0900",
">X c #F30900",
",X c #FE0900",
"<X c #EF1801",
"1X c #FC1301",
"2X c #F51C00",
"3X c #FB1A01",
"4X c #C32E03",
"5X c #C82C02",
"6X c #D72502",
"7X c #C93207",
"8X c #D33203",
"9X c #DA3304",
"0X c #F92301",
"qX c #F52902",
"wX c #F92B02",
"eX c #E53403",
"rX c #EB3503",
"tX c #EE3904",
"yX c #F53503",
"uX c #F53904",
"iX c #F93804",
"pX c #864510",
"aX c #99471A",
"sX c #A7441A",
"dX c #B14C13",
"fX c #987800",
"gX c #874228",
"hX c #954526",
"jX c #864739",
"kX c #C74B15",
"lX c #C65711",
"zX c #A38300",
"xX c #B18C00",
"cX c #CAA400",
"vX c #D4AE00",
"bX c #D7B200",
"nX c #EEC400",
"mX c #F9CB00",
/* pixels */
"U 8.N.Z.S.J.J.Z.5.3.| _ x.7.2.i i p i i u y y i a y B x 9 i a y y } $.3.5.N.N.N.4.N.N.5.n.2.a a ! n.",
"w.n.A.H.S.S.N.4.A.A.F.gXx.<.a a y i i a u u y y 9 9 T.M y a ;.i { e.k.F.J.J.Z.4.2.p 3.3.N.N.:.} d.Z.",
"f.b.;.4.N.4.a b.N.b.0.-.o.a a a a y i u ..u <.s y c (.x y y i :.$.6.N.A.Z.V.N.4.i i i p i y t w.0.3.",
"8.9.a p s 5.s 4.5.1.gXgXu a a a ;.a y a a a a y 0 OXR.c 9 9 e ] @.s a a p a p p s s s a y q w w.n.3.",
"3.<.<.2.4.N.b.5.0.s.dX{.{ a i p s a y a ;.a w 0 M #X(.M ..p ..G ) 3.p 2.2.s a 2.5.b.N.N.8.o.! *.4.o.",
";.<.5.5.4.2.2.8.x.sXkX{.[ r y i a a u a u u 0 0 H :.+Xt.6.b.B.j.[.Q b O.6.=.6.9.7.O.3.6.*.! '.#.o.3.",
"3.3.N.5.2.<.3.f.a.6.d.[.K c q r u y y a 0 u 0 G t.,.{.@.;.p 2.n.0.u.~ Q Q ~ u.m.c.0.9.N.V.f.{.,.2.5.",
"8.3.5.;.r o.6.! +.t t ) }.J M ] w 0 0 9 y 0 [ t.m.D.&.H | r 8 8 y y I z I I ..a x.` =.2.5.A.#Xw.3.3.",
"p.u.&.} [ O.>.&.H B [ `.+X!.R.H M c w w t N t.7.B.1.O.F x $ X . O * O * * , , $ I T ;.s 2.Z.M.y.s.-.",
"` [.e.) w.;.i ' F / w.j.#XsX+XXX_.K B N ^ _.d.D.O...t 1 O o > Z ~.^.^.^.^.^.S j : @ 3 i 2.n.m.,.{.y.",
"O.t.s.hX[ y 0 M G X.r e <.d.hXhX#X#Xs.t.oX(.&.O.u 3 + . ; S |.eXuXyXyXwX0XwXrX8X/.l + % a V.b.b.q.a.",
":.[.jXjX,...[ K K ] 1 = M d.g.m.m.F.F.D.u.'.U 5 1   - Z |.eXyXyXwX0X1X,X,X1X3XwXyX4XS = 2 4.b.n.q.s.",
"*.i.b.b.b.n.h.$XoX_.k ; !.#XM.9.3.6.9.B.| k < X o Z }.9XyXyX0X3X,X,X,X,X,X,X,X1X3X0X6XY.: 2 s 2.e.6.",
"[.t i i a b.b.,.{.sXk & P.!.%.9 2 2 2 2 + . . g ^.8XuXyX0X1X,X,X,X,X,X,X,X,X,X,X,X,X1X<XE.: $ | ( a ",
"sX} w w 9 9 9 y $.@Xw + d C c X   . O - > Z ~. XuXyX0X1X,X,X,X,X,X,X,X,X,X,X,X,X,X,X,X,X:XL.O L ) w ",
"jXD.6.+.0 ] 0 ] q.y.3.% X = 1 @   * E }.4X9XrXuXuXyX1X,X,X,X,X,X,X,X,X,X,X,X,X*XE.E.*X,X,X:XV , F.7.",
"n.A.m.,.N `.w.[.{.e.n.o.$ . 1 5 + . > }.9XuXuXuXuXuXwX,X,X,X,X,X,X,X,X,X,X,X*XU.W pXE Q.>X,XQ.& b.N.",
"X.V.n.g.`.^ v B y.@.>.:.p 7 |  .P @   * j ~. XrXuXuXyX3X,X,X,X,X,X,X,X,X,X>X}.fXvXbXxXW Q.>X>Xd r n.",
"[ 3.3.;.e.^ 0 6 [ @.1.6.6.&.#.#.+.P @ . o O - j ~.8XtXwX,X,X,X,X,X,X,X,X>X%X).cXmXnXbXfXY.:X,XV + 3.",
"gXH 6.O./ ].F 4 ' %.:.7.d.7.*.@.U I @ o D j o   o - /.yX,X,X,X,X,X,X,X,X,XW.W cXmXcXzXfXU.;X,XC o [ ",
"8.v.sX/ $XjXk.K J H r.M.g.i.i.$.r.q.4 X j  X4X^.l l  X2X,X,X,X,X,X,X,X,X,X-XI.zXnXnXbXl.Y.:X,XL.+ gX",
"y ;.p.sX*.n.F.j.]._.*.,.7.*.$.q.u.q.U - o g }.rXrXeX2X,X,X,X,X,X,X,X,X,X,X,XQ.R z.z.L l &X,X,XW.o | ",
"8 3 .._.6 u ;.:.y.^ ] { +.+.q.q.@.Q A z o   o I.tXuXwX,X,X,X,X,X,X,X,X,X,X,X>X-XE.P.E.*X>X,X,XW.o 3 ",
"3 8 6 _.M q o.;.@.H ] } #.$.@.~ '.k .           Z iXiX0X,X,X,X,X,X,X,X,X,X,X,X,X1X>X>X1X,X,X,XE.. 1 ",
"8 2 4 H c 0 w t v Q m N *.! {.W * O > g g g g g S iXiX0X,X,X,X,X,X,X,X,X,X,X,X,X,X,X,X,X,X,X,XL.. 1 ",
"r 3 c m 5 4 3 0 I _.T.F J Y.l .   o j |.tXiXiXiXiXuXyX,X,X,X,X,X,X,X,X,X,X,X>X>X>X,X,X,X,X,X>Xh X 1 ",
"8 5 F J ;.u 6 m _.Q I I +.1 .           j 4XrXyXiX0X,X,X,X,X,X,X,X,X,X,X,X,X*XV L.>X,X,X,X,X-X; # c ",
"t G {.U u t ' F ( { } 7 , A ^ K T I v @   o U.eXuXyX,X,X,X,X,X,X,X,X,X,X,X,X>XL.d W.>X,X,X,XE.O 4 K ",
"6 m +.N 6.7.! _.q.{ I 4 O D E z m I _ T < .   l 8XyX0X,X,X,X,X,X,X,X,X,X,X,X,X&Xf f Q.>X,X>Xh o n c ",
"x F ] w.`.( sX) ..} } 6 @ g : - : X k |.7X~.-   > tXyX1X,X,X,X,X,X,X,X,X,X,X,X>XE.; ; P.:X%X& @ F x ",
"n (.m $.].I T ~ o. .#.| , X X k S -   Z  XeX Xl - 8XyXwX,X,X,X,X,X,X,X,X,X,X,X,X>XE.h f Q.C O < J K ",
"K oX^ U ~ r ] G #.O.&.#.} P P ^ .XR * . - D |.5X4XtXiXyX3X1X,X,X,X,X,X,X,X,X,X,X,X,X:X*XW.& & m Y.oX",
"|.q.] ! Y 6 w v { | &.6.-.$.q.`.|.XXJ 4 + . O z /.|.4X8XrXqX0X1X1X1X,X,X,X,X,X,X,X,X1X=Xd = S (.].} ",
"sXw q 8 q w v v [ o. .&.&.*.e._.7XoXy.h.=.r $ * O O - j I.}.5XrXwX0X0X0X3X3X3X3X3X0X6XZ o g '.OX` r ",
"0.y y q 8 0 w ' [ }  .&.&.*.t.!.OXp.r.*.f.c.7.R l O       O l ^.5XeXtXyXyXqXyXtX9X}.z o @ H #.6.>.r ",
";.w y y r 8 r t b w.&.%.@.K ].oXp.@.#.&.-.f.h.`..XF c 1 $ +   O j D ^.}.}.}.^.^.Z - o @ 4 J t y | q ",
"' ! 9 y y y q w b `.[.p.{.+XoXe.#.+.} #.&.d.h.r. XR.t.,.>.o.3 $ + . X * & * O + + @ % 8 n K v 0 Q v ",
"d.s.@.w t r w w N ^ s.$XsXaXu. . . .#.&. .>.g.d.7XR./ f.g.g.O.i 3 3 7 e 2 < L 4 1 8 8 ' K (.H >.k.u.",
"G.D.h.@.[ c x M ^ {.gX{.[.#.| o.|  .&.O.O.&.7.&.kX!.G X.6.6.....u ..<.1.<.T oX[.6 8 q :.j.j.f.D.C.F.",
"n.4.n.7.,.B J T.) s.jXjXaX` } o...O.O.>.>.:.O.G $X'.F ] ..:.X...| { | o.o.p..X+X[.Y ..3.N.Z.N.V.5.N.",
"2.s 3.3.1.@.~ q.*.3.3.0.v.s.+...| o.o.o.:...v Y 0./ C [ t ..o.:.<.......<.` OX'._.sX_ p a ;.3.3.<.<.",
"t w y <.<.X.] r ..<.2.3.B.f.#.......o.o.t Y aX} 6.t.R.[ ' ..o.:.6.9.o.o.| ` OX_.H hXk.1.<.#.{ t r e ",
"` 7 9 ;.3.{ N r y <.2.<.<.8.u.#.u t w I G '.lX} | _.|.K ] ' t u ..o.| Y `.[.` -.7.F.F.9.9.0.7.( T e ",
"aXaX{ a u N F 5 r p p i y ;.p.aX_ w t { &.f.@Xa.q.+X5X_.r.&.*.( ` `.{..XOXp.8.9.9.C.G.G.A.G.B.c.dX` ",
"c.dXI 7 t K J { i y i i i p $.aX_ r p u o.1.3.7.X.`.Y.@.O.3.:.q.) '.4X|.[.B.N.b.9.N.A.G.H.K.J.G.[.aX",
"=.oXI r x '.^ v i a y a i p ` s.o.p y p p o.o.1.1.:.T.] o.5.;.o.7.k.{._.8.5.5.n.N.N.9.3.9.A.H.G.F {.",
"7 lX( o.8.g.7.1.p i i a s _ u.1.s p p p p p ;.o.<.o.G w p a p p a 1.r.a.5.b.5.b.N.9.3.5.3.N.B.4.Q lX",
"} s.0.V.A.S.A.N.1.p y t P -.1.a p p p u p u p p o.u N 0 9 i y y u o.] n.5.5.n.n.b.n.N.N.5.<.3.<.Q j.",
"Y 8.A.S.H.J.H.N.N.N.8.gXgX1.s i i i i p p r r y y q G M 9 a <.i 9 @.) 6.m.Z.V.b.2.3.5.9.N.n.o.t q.N.",
"y.N.Z.A.A.A.s b.Z.A.B.d.-.s s p y y i a p u a a y 8 ].M y i i p %.a.F.J.J.J.V.b.a a ;.2.3.4.1.w.g.N."
};
