/* XPM */
static char *out[] = {
/* columns rows colors chars-per-pixel */
"50 50 239 2 ",
"   c #050101",
".  c #0C0303",
"X  c #0E0808",
"o  c #130402",
"O  c #1C0502",
"+  c #190805",
"@  c #140B0B",
"#  c #1B0D0D",
"$  c #1D100F",
"%  c #1C1213",
"&  c #1F1719",
"*  c #220402",
"=  c #250902",
"-  c #2A0B03",
";  c #2A0A09",
":  c #340602",
">  c #350C01",
",  c #3D0E01",
"<  c #2B110E",
"1  c #3A1409",
"2  c #250E10",
"3  c #231312",
"4  c #281618",
"5  c #251A1C",
"6  c #2B1B1D",
"7  c #381517",
"8  c #351A1D",
"9  c #3B1B1D",
"0  c #3B2510",
"q  c #2C1D23",
"w  c #2D1E28",
"e  c #321924",
"r  c #331E24",
"t  c #3B1E23",
"y  c #2F2127",
"u  c #342126",
"i  c #3C2225",
"p  c #34242B",
"a  c #3B252B",
"s  c #37282D",
"d  c #3B292D",
"f  c #3C2C32",
"g  c #3F3035",
"h  c #3F3238",
"j  c #470503",
"k  c #4B0200",
"l  c #440F00",
"z  c #570400",
"x  c #491203",
"c  c #561403",
"v  c #481715",
"b  c #44151A",
"n  c #4D151B",
"m  c #451C1D",
"M  c #4D1C1D",
"N  c #541517",
"B  c #5C1A15",
"V  c #54161B",
"C  c #541B1C",
"Z  c #5B1C1B",
"A  c #690600",
"S  c #770500",
"D  c #691801",
"F  c #761904",
"G  c #631513",
"H  c #6A1A15",
"J  c #631C1A",
"K  c #6A1C1B",
"L  c #751814",
"P  c #741C14",
"I  c #7A1D14",
"U  c #56250F",
"Y  c #5C3B00",
"T  c #48211C",
"R  c #55221E",
"E  c #5B231D",
"W  c #59291A",
"Q  c #762200",
"!  c #7B3500",
"~  c #63221C",
"^  c #6C251B",
"/  c #6B281C",
"(  c #772719",
")  c #74231C",
"_  c #7B2B1D",
"`  c #6B311D",
"'  c #78341D",
"]  c #431D21",
"[  c #4B1E22",
"{  c #521E20",
"}  c #442325",
"|  c #4D2524",
" . c #4C2827",
".. c #432629",
"X. c #4B2729",
"o. c #442A2C",
"O. c #4B2B2C",
"+. c #542424",
"@. c #5B2524",
"#. c #552A26",
"$. c #572A26",
"%. c #532C2C",
"&. c #5A2C2A",
"*. c #4F302F",
"=. c #58302D",
"-. c #432D32",
";. c #4C2E31",
":. c #522E31",
">. c #5D2E32",
",. c #433135",
"<. c #4C3335",
"1. c #453439",
"2. c #4A3639",
"3. c #47383D",
"4. c #4C3A3D",
"5. c #543334",
"6. c #5C3434",
"7. c #5A3936",
"8. c #533639",
"9. c #543B3C",
"0. c #5B3C3D",
"q. c #632A24",
"w. c #692925",
"e. c #6C2C24",
"r. c #642C29",
"t. c #762822",
"y. c #742D23",
"u. c #6A3325",
"i. c #62312C",
"p. c #743124",
"a. c #73352B",
"s. c #793928",
"d. c #633533",
"f. c #693936",
"g. c #623B3A",
"h. c #743A33",
"j. c #7B3B32",
"k. c #6D5A00",
"l. c #7B6700",
"z. c #71422F",
"x. c #774536",
"c. c #4E3E42",
"v. c #523E41",
"b. c #5B3D41",
"n. c #613E42",
"m. c #534244",
"M. c #5B4245",
"N. c #554549",
"B. c #56474B",
"V. c #5B464A",
"C. c #57484C",
"Z. c #5A4A4D",
"A. c #5F5254",
"S. c #634243",
"D. c #684849",
"F. c #734641",
"G. c #624E51",
"H. c #615356",
"J. c #67575B",
"K. c #716064",
"L. c #890400",
"P. c #970900",
"I. c #881604",
"U. c #821D01",
"Y. c #961B09",
"T. c #851C13",
"R. c #A50600",
"E. c #A90C00",
"W. c #BA0800",
"Q. c #AB1703",
"!. c #B41701",
"~. c #8B2307",
"^. c #932202",
"/. c #9B240B",
"(. c #882716",
"). c #822B1B",
"_. c #952512",
"`. c #932C14",
"'. c #9D2A13",
"]. c #853418",
"[. c #83321D",
"{. c #8B331C",
"}. c #993516",
"|. c #A82706",
" X c #AA2903",
".X c #B92A05",
"XX c #A6340F",
"oX c #B7360E",
"OX c #A32C12",
"+X c #A33314",
"@X c #A83A15",
"#X c #B83A12",
"$X c #853824",
"%X c #83372C",
"&X c #963A22",
"*X c #C80800",
"=X c #D80900",
"-X c #C51B01",
";X c #D91200",
":X c #E40900",
">X c #ED0800",
",X c #FB0700",
"<X c #F40900",
"1X c #FE0900",
"2X c #E01B01",
"3X c #FC1301",
"4X c #F51A01",
"5X c #FB1C01",
"6X c #C82D03",
"7X c #C63309",
"8X c #D73203",
"9X c #E92A02",
"0X c #F92302",
"qX c #F32C02",
"wX c #F92C02",
"eX c #E43403",
"rX c #EC3603",
"tX c #F53503",
"yX c #F83203",
"uX c #F63904",
"iX c #8A460A",
"pX c #99481A",
"aX c #A7451A",
"sX c #B34312",
"dX c #AF5114",
"fX c #997500",
"gX c #884228",
"hX c #954526",
"jX c #864738",
"kX c #C94A0F",
"lX c #C74B15",
"zX c #C65711",
"xX c #A38600",
"cX c #B89500",
"vX c #C09D00",
"bX c #D1AC00",
"nX c #D8B200",
"mX c #E3BB00",
"MX c #F7CA00",
/* pixels */
"R 5.m.Z.A.J.J.C.4.2.i ` z.=.,.s s d s s a p w f s a Z n w f d p p | q.<.c.c.N.c.c.v.v.v.v.1.-.a w.c.",
"w.m.Z.H.A.A.m.c.Z.Z.D.gXz.1.g d p p d f f p a p w w T.V w s ,.s } ` j.D.J.H.N.3.,.f ,.4.v.N.;.| d.m.",
"f.4.-.3.m.3.s c.m.m.0.6.o.g d g f s s d ..a -.,.p b _.n u p s ;.#.5.m.Z.C.N.v.1.d p s d s p p w.0.<.",
"7.c.-.s g 3.3.h c.<.gX[.i g d -.,.f p s f f f p e @XI.] y y u ] @.,.f f f f f f f h h f p u t w.v.4.",
"9.,.,.1.3.m.4.4.9.s.sX}...f s d f f a f f -.a e M %XY.N a f ..J _ <.o.1.1.h f 1.4.v.N.m.8.o.J &.4.,.",
"d ,.4.2.4.3.1.9.a.dXzX}.{ r p s f f p f a a e e K <.7Xt.5.c.b.h.{.E ] O.5.;.<.c.%.5.<.5.#./ _.%.o.,.",
"4.2.m.4.1.,.<.d.a.5.6.{.I n t r a p w f p p e G t.>.&X+.-.s 1.v.5.e.^ ~ ~ ^ i.z.z.g.v.m.N.f.}.>.,.4.",
"9.<.4.,.u o.=.q.@.t u ).OXL V ] t e w t e p { ) n.S.%.K } q 4 & & y T B U T X.,.z.s. .2.c.V.$Xr.<.9.",
"p.u.%.T { O.:.&.J G { ).#XOXY.K V b t u } C ^ d.V.5.O.H 1 @ . o O = + - - 2 # % U q.;.f 1.A.n.y.a.=.",
"p.{.w.).w.-.p ] J ) e.h.%XaX#XOX(.I Z C _ (.d.M.o...u < * - c U.^.^.^.^.^.F D l ; % q s h c.b.i.{.p.",
"O.t.j.hX{ f e n K %.f 1.<.d.hXhX%Xy.~ / +X/.#.o.u 6 @ o c |.8XyXwXwXwXwXyXyXeX.XF , @ q h N.c.c.q.a.",
"-.$XgXjX:.X.{ T.I X.[ | %.6.g.0.0.a 3 a q.`.m 4 @   O A 6XuXwX5X3X3X1X1X3X3X5X0X9X Xc + q c.c.c.q.$X",
"r.i.c.c.c.b.h.{.OX{.t.a.f.S.S.b.9.i X % 4 x 2   o j P.9XuXwX5X1X1X1X1X1X1X1X1X1X3X4X6XF - 6 1.2.e.5.",
"[.i s s f c.c.0.&X#Xy.8.9.0.S.D.S.*.#   . = > c P.-XqXuXyX3X1X1X1X1X1X1X1X1X1X1X1X1X3X2XF = & | / d ",
"aX| t p w w w e &.$X8.8.;.;.0.S.7.%.6   . F  X8XrXtXuXuXwX1X1X1X1X1X1X1X1X1X1X1X,X1X1X1X:XS o U [.t ",
"jXS.5.{ e ] t ] J y.b.b.9.:.....*.%.| %   l .XtXtXuXuXuXwX1X1X1X1X1X1X1X1X1X>X*XR.W.>X1X1X=Xk < F.9.",
"v.Z.b.>.C ).w.{.}.w.b.0.7.*.4 @ $ i *...X   x 9XtXuXuXtX0X1X1X1X1X1X1X1X1X<XE.! iX! U.=X<X1XR.* c.m.",
"X.B.v.d.).( m E t.@.;.5.*. .8 X   X # $     - rXuXuXyX0X1X1X1X1X1X1X1X1X1X*X].cXnXbXfXQ =X1X:X: u m.",
"{ c.4.-.e.(.7 e { @.;.5.5.#.| $   + , x x F .XuXuXtX3X1X1X1X1X1X1X1X1X1X>XY.fXMXMXmXbXk.E.<X<Xk % 2.",
"$XK :.o./ /.G b ] +.%.5.g.d.&.9 X o D .X8XeXuXuXuX0X1X1X1X1X1X1X1X1X1X1X>XI.fXMXMXxXcXk.Q.<X<XA o +.",
"5.x.aX) &XjXh.L L K r.g.g.d.=.R 3 . o D eXuXuXuXtX1X1X1X1X1X1X1X1X1X1X1X<XR.iXnXMXMXvXY W.1X1XS + gX",
"s <.y.aX&.b.D.h.OX{.&.:.6.#.7 $ X     : ;X0XuXuXwX1X1X1X1X1X1X1X1X1X1X1X1X:XI.Y l.k.0 S :X1X1XP.. X.",
"q 6 X.(.9 a -.:.t.) [ ] 9 @   . = > x ^.9XtXuXuXwX1X1X1X1X1X1X1X1X1X1X1X1X1X>X*XR.P.E.:X1X1X1XR.. 6 ",
"6 q 8 (.V u o.o.@.K ] 4 . . c .XeXrXuXuXuXuXuXuXyX1X1X1X1X1X1X1X1X1X1X1X1X1X1X,X<X<X1X1X1X1X<XL.. 5 ",
"q 5 7 H b q i i T C ;   = ^.eXuXuXtXuXuXuXuXuXuXyX1X1X1X1X1X1X1X1X1X1X1X1X1X1X1X1X1X1X1X,X,X,XS . 5 ",
"u q b J e 7 4 e 8 ;   , .XuXuXuXuXqXqXtXuXuXuXuXwX1X1X1X1X1X1X1X1X,X1X1X1X1X<X<X,X1X1X1X1X,X<Xj X 4 ",
"q 9 G P O.a t v 1 . l .X6X^.F F U.P.E.-X9XtXuXuX5X1X1X1X1X1X1X1X1X1X1X1X1X1XP.z *X<X1X1X1X1X*X* # b ",
"i B }.R f t 9 <   = Q c O   . .         : ~.8XrX5X1X1X1X1X1X1X1X1X1X1X1X1X1X*Xk A =X,X1X1X,XL.o 7 I ",
"9 B R @.:.7.v ;     . . @ 3 < 1 1 < 2 + o . = |.uX0X1X1X1X1X1X1X1X1X1X1X1X1X,XL.: S =X<X,X:Xj X N b ",
"n H ] ~ ).^ ` o     # 8 +.$.&.{._./ q.q.$.3 . O eXuX1X1X1X1X1X1X1X1X1X1X1X1X1X:XS * z W.<XR.O 2 G n ",
"N /.B $._.T 1 + X 4  .%.&.&.r.(.7XXXy.q.u.e.N D rXuX3X1X1X1X1X1X1X1X1X1X1X1X1X1X:XL.j A *Xk + 7 P ~.",
"I XX( E ^ u 8 7 i O.%.#.$.$.q.).#XkX(._ `.OX8XuXuXtXwX0X5X3X1X1X1X1X1X1X1X1X1X1X1X<X:X=XP.* : G ~.+X",
"oX@.[ ~ E t t 9 } X.%.6.=.&.q.)..XOX_.{.aX X.X6X7X8XeXuXuXyX0X3X1X1X1X1X1X1X1X1X1X1X<X!.: ; L |.'.| ",
"@Xt u q e t m m | X.O.%.%.&.w.(.oXOXZ 9 3 O = = - c ^. X6XeXuXwX5X3X3X3X3X3X3X5X5X9X.X, . x `.@X' u ",
"0.a u y q e t i M | O.%.%.r.) OX@X` # X # $ % - , + . * z F  X6XeX9XwXqXwXqXtX9X6X^., X 2 P $.<.;.u ",
"-.t u p u q u t M / #.X.{ I /.+X' #.7 8 X.*.7./ OXG 1 $ @ . * l F ^./. X X/.^.U.c O X % 7 I u p X.r ",
"} ~ w p p a r t M _ $Xp.}.#XXXy.#. .|  .%.6.g.r..XT.t.>.t w % @   o = - - = + @ # % 4 q N T.m r E T ",
"6.s.+.t a u t t M (.p.&XaXhXu.%. . . .%.| :.g.d.7XY.t.f.g.9.a e 3 6 6 6 5 0 U 0 q q q ] P _.K %.h.i.",
"D.M.f.@.{ b n N ( }.gX}.hX$.X...X.X.O.%.O.%.7.%.lXOXJ [ :.5.....i ..-.,.,.q.+X].9 5 r ;.h.h.f.M.V.x.",
"m.c.v.6.>.B L T._ $Xx.gXpX` ..X.X.X.O.;.5.;.O.J &X_.G [ ..;.o.......o.o.,.` oXoX].E ..3.m.Z.N.m.4.m.",
"1.-.<.2.<.@.^ r.&.<.2.0.x.a.| ....o.O.o.-.o.m R 6.K L { i o.o.,.;.o.o.o.<.' @X`.).@Xu.d s -.2.<.1.1.",
"a r s ,.,.X.M u d -.2.2.M.h.$.....o.o.o.} R pXX.:.t.Y.{ t } o.;.<.<.-.O.a ' @X(.^ hXh.;.,.$.} i u y ",
"' 9 w -.<.} C r p ,.,.,.,.5.u.%.i i u T J `.zX+.o.)..XT.{ ] i i a o...Z ].].' =.6.D.D.0.v.0.6.' W y ",
"hXdX] f f M H 9 p s s d s o.p.pX` ] i i O.a.gXr.w.#X.X`.@.:.&._ s.).}.oX@Xp.7.v.v.V.G.G.Z.G.M.f.dX' ",
"g.dXM y t I H } s s s s s s &.pX` u s a d <.8.5.X.).Y.@.-.<.;.r._ _.7X.X[.M.c.4.9.m.C.G.J.K.J.G.[.XX",
"*.XXT u M /.( m s s p f f a ' s.O.a s a d o.o.<.<.;.T.m o.4.-.o.6.a.'.(.7.c.4.v.m.m.9.9.v.V.G.G.^ XX",
"| dX( -.7.7.7.5.o.s s f f u.u.5.g s d d a o.o.-.-.-.J i s -.d f f <.r.a.4.4.4.c.m.4.<.4.2.m.V.1.~ dX",
"| ' 0.N.C.A.Z.m.1.d s u T =.<.d f d d a d d d d o.a C e w s p u d a X.v.4.4.m.m.c.v.m.m.4.,.3.,./ h.",
"E 7.C.A.H.J.H.m.m.m.7.hXz.5.,.d p s d d a u y s p u ~ V q f ,.s r @._ :.M.Z.N.c.3.1.4.9.N.9.d i q.m.",
"a.m.N.Z.G.C.h 3.Z.C.M.d.6.f f d p p s f d a ,.s p 6 _.N p s s f | a.D.J.J.J.N.4.f f ,.,.4.2.<.q.f.m."
};
