/* XPM */
static char *out[] = {
/* columns rows colors chars-per-pixel */
"50 50 239 2 ",
"   c #040101",
".  c #0C0403",
"X  c #0F0A09",
"o  c #130402",
"O  c #1A0501",
"+  c #140807",
"@  c #1E0A04",
"#  c #130A0A",
"$  c #1B0C0D",
"%  c #1F100F",
"&  c #180E10",
"*  c #1C1213",
"=  c #1A1214",
"-  c #210501",
";  c #2A0503",
":  c #230A04",
">  c #2C0B03",
",  c #370603",
"<  c #330C01",
"1  c #3E0E01",
"2  c #27110C",
"3  c #381003",
"4  c #2A1413",
"5  c #271619",
"6  c #251A1C",
"7  c #2B1B1E",
"8  c #381617",
"9  c #341B1E",
"0  c #3B1C1D",
"q  c #39201F",
"w  c #2C1D23",
"e  c #2C1E28",
"r  c #321924",
"t  c #331E24",
"y  c #3B1E23",
"u  c #2E2226",
"i  c #332125",
"p  c #3C2225",
"a  c #34242B",
"s  c #3B252B",
"d  c #37282D",
"f  c #3B292D",
"g  c #3C2C32",
"h  c #3F3035",
"j  c #4C0200",
"k  c #450902",
"l  c #560300",
"z  c #4B1706",
"x  c #581402",
"c  c #44151A",
"v  c #4C1619",
"b  c #441B1D",
"n  c #4C1D1D",
"m  c #561515",
"M  c #5C1C14",
"N  c #54161B",
"B  c #531B1D",
"V  c #5B1C1B",
"C  c #620300",
"Z  c #760400",
"A  c #681702",
"S  c #751A03",
"D  c #641713",
"F  c #6C1A15",
"G  c #631C1A",
"H  c #6A1D1B",
"J  c #741A14",
"K  c #7B1D14",
"L  c #4C2909",
"P  c #4C211D",
"I  c #55231F",
"U  c #5C231D",
"Y  c #5C2C1E",
"T  c #6E2B0E",
"R  c #783A00",
"E  c #6A2417",
"W  c #63231D",
"Q  c #6B251B",
"!  c #7A2317",
"~  c #73231C",
"^  c #752C1C",
"/  c #7B2B1D",
"(  c #79341D",
")  c #431D21",
"_  c #4B1F22",
"`  c #521E20",
"'  c #442325",
"]  c #4C2423",
"[  c #4A2927",
"{  c #432529",
"}  c #4C2629",
"|  c #442A2D",
" . c #4C2B2C",
".. c #542425",
"X. c #5B2523",
"o. c #542926",
"O. c #5B2A25",
"+. c #502729",
"@. c #532C2B",
"#. c #5A2C2B",
"$. c #4F302F",
"%. c #57312E",
"&. c #5B312E",
"*. c #422D31",
"=. c #4C2E31",
"-. c #522E31",
";. c #5D2E32",
":. c #433135",
">. c #4B3335",
",. c #453539",
"<. c #4B363A",
"1. c #47383E",
"2. c #4C3A3D",
"3. c #543334",
"4. c #5B3433",
"5. c #573838",
"6. c #543B3C",
"7. c #5B3C3D",
"8. c #682622",
"9. c #622A25",
"0. c #6B2C24",
"q. c #632C29",
"w. c #6A2D2A",
"e. c #772822",
"r. c #732C23",
"t. c #6A3326",
"y. c #63312C",
"u. c #733124",
"i. c #74342B",
"p. c #793928",
"a. c #633533",
"s. c #643935",
"d. c #6B3837",
"f. c #633C3B",
"g. c #743A33",
"h. c #783931",
"j. c #725000",
"k. c #776300",
"l. c #6F4134",
"z. c #764438",
"x. c #4E3E42",
"c. c #523E41",
"v. c #5B3D41",
"b. c #613E42",
"n. c #544244",
"m. c #5B4345",
"M. c #554549",
"N. c #56474B",
"B. c #5B464A",
"V. c #57484C",
"C. c #5A4A4D",
"Z. c #5F5254",
"A. c #634344",
"S. c #684849",
"D. c #624E51",
"F. c #615356",
"G. c #67575B",
"H. c #716064",
"J. c #890500",
"K. c #980800",
"L. c #891C04",
"P. c #981B07",
"I. c #831D13",
"U. c #8D1814",
"Y. c #A40600",
"T. c #AD0600",
"R. c #B50600",
"E. c #BA0900",
"W. c #BC0A00",
"Q. c #A41D04",
"!. c #8B2106",
"~. c #922202",
"^. c #9B2409",
"/. c #8D3F00",
"(. c #872816",
"). c #822C1B",
"_. c #952512",
"`. c #932B13",
"'. c #9E2A13",
"]. c #86341B",
"[. c #983417",
"{. c #9D3B14",
"}. c #A62706",
"|. c #AD2802",
" X c #B82907",
".X c #A6340F",
"XX c #B7360E",
"oX c #A33314",
"OX c #A93A16",
"+X c #B83B12",
"@X c #863925",
"#X c #83372C",
"$X c #963A22",
"%X c #C70700",
"&X c #D50800",
"*X c #DB0900",
"=X c #D11701",
"-X c #E20700",
";X c #E40900",
":X c #EC0900",
">X c #FE0700",
",X c #F30900",
"<X c #FE0900",
"1X c #EE1B01",
"2X c #FC1301",
"3X c #FB1B01",
"4X c #C82A02",
"5X c #D82602",
"6X c #C73206",
"7X c #DC3303",
"8X c #E72E03",
"9X c #F62201",
"0X c #FA2301",
"qX c #F52D02",
"wX c #F82C02",
"eX c #E43503",
"rX c #EC3503",
"tX c #EF3804",
"yX c #F63603",
"uX c #F83403",
"iX c #F63904",
"pX c #864510",
"aX c #99471A",
"sX c #A8441A",
"dX c #B14C13",
"fX c #987800",
"gX c #874228",
"hX c #954526",
"jX c #864739",
"kX c #CA490F",
"lX c #C74B15",
"zX c #C65711",
"xX c #A38300",
"cX c #B18C00",
"vX c #CAA400",
"bX c #D4AE00",
"nX c #D7B200",
"mX c #EEC400",
"MX c #F9CB00",
/* pixels */
"I 5.M.V.Z.G.G.V.2.<.q t.j.7.,.d d d g a a a a g a a V v w f g a a ' 9.<.2.n.M.n.2.2.n.c.c.:.*.g W n.",
"8.c.C.Z.Z.Z.n.1.C.C.S.gXg.,.h d a a d *.s s a a a r I.N e g :.s ' u.h.S.G.F.V.1.h h ,.<.n.n.=...a.M.",
"d.6.h 2.n.x.g n.n.n.7.&.*.g g *.g d a f g s { x.a ) U.N a a a =...3.n.C.V.M.n.<.f d d f g a a 8.6.<.",
"5.2.g f g x.h h x.>.gX].s g g *.:.d a g g { a a r OXU.c e e i ' X.:.g g g g f f g h h g i e y 0.6.<.",
"2.:.:.,.1.n.x.2.7.p.dX{.{ g a g g *.s g g g s r ` @XP.N ' g { G / 3.g ,.,.h h ,.2.x.M.n.2. .W #.2.h ",
"| :.2.<.x.h ,.6.l.sXlX[.B i a s g g a g s s r r H =.+Xe.3.x.m.g.].W n | $.$.>.5.%.3.>.%.@.E _.} | >.",
"<.<.n.2.,.h >.s.i.3.a.].K c y i a a a s r s r G e.;.[.#.| g :.c.7.t.E E W E t.b.l.5.n.n.n.d.[.;.,.2.",
"6.<.2.h s | %.W X.y y ( }.J N ) y r r a a r _ e.b.b.@.H { i 7 7 u u P M P P { h l.( @.,.x.B.@Xw.>.2.",
"u.t.@.] `  .-.#.G G ` ).+X}.U.H N c y i p V 8.a.B.3. .F M * X . o : @ : : > % % n U *.h x.C.b.r.u.&.",
"( ].0./ 8.*.a ) G ~ 0.g.jXOXXX'.(.K V V ! (.a.v.| | | c 3 . @ x !.~.~.~.~.!.S x > $ w a g c.v.;.[.u.",
" .e.p.hX` d r N H -.*.*.<.a.hXhX#X#Xu.r.oX_.} | p i 5 . o z ~.7XiXiXiXiXyXyXrX4X}.z $ 5 g M.x.x.9.i.",
"=.@X#XjX;.{ ` K K ` { _ @.4.f.f.7.m.2.| I x 2 4 * + o < S  XtXyXwX0X3X3X3X2X2X3X3X4XA : 6 1.x.c.9.p.",
"&.y.x.x.x.v.d.$XoX(.e.w.d.S.A.v.5.q = & X o o O < A L.|.eXiXyXwX3X>X>X<X<X>X<X>X>X2X5XP.< 5 g <.8.5.",
"].p d d g x.x.;.$XsXr.4.6.7.A.S.f.i X     o A ~. XeXrXiXiXyX0X2X<X<X<X>X<X<X<X<X>X>X<X1XQ.< = ] ^ d ",
"sX] y t e e e a 9.@X5.<.>.=.7.b.4. .p 4 X . x 7XiXiXiXiXuX0X2X>X<X<X<X<X<X<X<X<X<X<X,X<X:XJ.O L ).y ",
"jXA.3...r ) y ) H r.v.v.5.-.3.4.&.%.%.[ 0 . . A tXiXiXuX0X<X>X>X<X>X<X<X<X<X<X&XT.R.-X,X>X:XC 2 S.5.",
"c.C.v.;.V ).8.].[.w.v.v.5.%.o.%.&.&.s.l.s.8   o  XuXiXuX<X>X>X>X<X<X<X<X<X<X*XL.pXpXS E.,X<XW.; 2.n.",
"} N.c.4.( ! b W e...3.3.-. .o.o.%.%.&.4.q @   . E.wXyXuX2X>X<X<X>X<X<X<X<X,XQ.fXbXnXcXR %X,X:Xj u c.",
"` x.2.=.r.K r r ` X.-.-.3.@.] 4 $ $ $ $ o . < Q.1XyXiXuXwX<X<X<X<X<X<X<X<XW./.vXMXmXbXfXL.:X>XC $ 1.",
"@XH -. .Q '.D 8 c ..=.3.s.y.o.$     . > A ~.6XrXyXyXiXuX0X>X<X<X<X<X<X<X<XE.R vXMXvXxXfX~.;X>XZ + B ",
"5.z.sX~ $XjXh.K J H ;.f.s.a.q.b + . S 6XeXtXiXiXiXiXuX2X>X<X<X<X<X<X<X<X>X-X!.xXmXmXnXj.P.:X>XK.+ gX",
"d | u.sX#.5.S.g.oX(.@.;.4.O.O.O.b + : x !.7XiXiXiXuXwX2X>X>X<X<X>X<X<X<X>X,XE.T k.k.L x &X,X,XR.o ' ",
"7 r [ (.y a =.-.r.~ _ ] ] ..9.y.b o . . o |.tXiXiXiXuX0X>X<X<X<X<X<X<X<X<X<X,X;XT.K.Y.&X,X<X<XE.o 7 ",
"7 w 9 (.m a f | X.H _ ] O.O.X.M > o ~.|.|.eXiXiXiXiXuXwX<X<X<X<X<X<X<X<X<X<X<X<X2X,X2X<X<X<X<XY.. 5 ",
"w 6 0 G c r a y P G M B O.P < o . ~.rXtXiXiXiXiXiXiXuX2X>X<X<X<X<X<X<X<X<X<X>X>X<X<X<X<X>X>X>XJ.. 5 ",
"i r c M 9 8 9 9 P (.I.m , o   O ~.eXiXyXiXiXiXiXiXiXwX>X>X>X<X<X<X<X<X<X<X<X,X,X,X<X<X<X>X>X,Xl + 5 ",
"w 9 D J  .s 9 D (.U 0 #     > ~.4X4X5XqXqXyXiXiXiXiXiX>X>X<X<X<X<X<X<X<X<X<X*XC J.,X<X<X>X>X-X, $ c ",
"p M oXI s a b G E 5 .       o O @ O - , J.4XeXrXiXiXiX2X>X<X<X<X<X<X<X<X<X<X,XJ.k R.,X<X<X<XT.o 4 K ",
"0 M B ..5.5.E (.b       . . + : : @ # + . o x }.8XiXuX3X<X<X<X<X<X<X<X<X<X<X<X%Xj j %X:X>X,XC o m c ",
"v D _ 8.(.Q aXT $ . . % q ] X.(.!.Q Y I 8 $   . k 5XiXuX<X<X<X<X<X<X<X<X<X<X<X<XY., , K.;X%X; $ D v ",
"N ^.V O._.P W Q 9 7 '  .#.O.q.(.6X.X8.0.w.O.+   o }.uXwX<X<X<X<X<X<X<X<X<X<X>X<X,XT.l j E.Z o 8 J I.",
"J OX! U Q t _ G  . .$.o.o.O.q.(.dXkX(.~ Q < o > A eXwX3X3X2X2X2X<X>X<X>X<X<X>X>X>X>X:X-XR., ; D !..X",
" X9.n W U y 0 b ] [ @.&.&.O.9.).XX'.'.).z . > ~.6X6X6XeXrXiXyXwX3X2X<X>X<X<X<X>X>X<X<X=Xk : F ^.'.] ",
"sXy t e r ) y b ] {  .@.%.#.0.(.6X.XG 4   . 1 k 3 1 1 A ~.}. XeXiXwX3X2X<X<X2X3X0X9X4XA O k `.OX( i ",
"7.a a i w r y ) ` +. .@.#.#.K '.OXu.4       # : < - O .   o k S  XeXtXqX9X9XqXrX7X|.x + $ F Y >.-.i ",
"*.y u a i e i p n Q o.} ` K '.oXu.] % X # 4 p E ^.J m 9 5 X . . < A ~.}.}.|.~.!.A > + # 8 J p a | i ",
") E t a d a t y P (.@X^ [.+XoXr.o.] 0 q p -.f.w.4XU.e.a.;.*.w & + . + : > : : @ # & = w m I.b t U P ",
"a.h...) t a t ) n ! e.$XsXhXt.o. .] [ @. .3.s.a.6XU.~ d.f.7.*.y 7 7 q 7 6 8 L 8 5 7 e ) J _.H -.g.y.",
"B.A.d.X.` ) c m ! [.gXaXhXo.' [ [ {  .@. .o.4.@.lXQ.H } ;.-.| | { | $.,.:.W {.(.0 w i =.g.g.d.A.C.l.",
"n.2.c.5.;.D J I.).p.z.gXaX( { | [  . . .3.=. .G gX_.D _ { =.| ' { s { | | t.XXdX].W ' 1.n.V.M.n.2.n.",
",.:.>.<.<.X.Q q.#.>.<.5.z.p.} { { | | |  .[ b U 5.J J ` ' { | =.>.| { [ | p.OX`.(.sXt.s f :.>.,.:.:.",
"p i a :.*.} _ p f :.<.<.m.g.o.[ | | | | p I aX[ -.e.P.` y s | >.>.>.:.| s ( OX(.J gXg.$.:.o.' p i u ",
"( q e g <.' B 7 d :.:.:.:.3.t.o.p p p P W `.zXo.=.). XI.B ) p p { [ ' U ].].( y.4.S.S.m.6.A.&.( Y u ",
"aXaX' g | v F t i f f a s *.i.aX0.0 p '  .w.gXw.G +X X`.X.-.#.^ ( / [.XXOXu.5.2.n.B.D.B.C.C.m.l.dX( ",
"l.dXn u 0 K F ' d d d d a f O.aXt.i s s f >.>.5. ./ ^.` | >.=.q.)._.6X X].m.c.2.2.n.C.D.G.H.G.D.( OX",
"3..XP i n `.K P d d d g g f ( p.| s a s s | | >.>.=.I._ =.2.*.| 5.i.[.).5.x.2.x.n.n.6.6.n.M.D.D.E OX",
"] dX^ | 5.s.5.$.| d d d h 9.t.>.h f f f { f | *.=.*.H y f g f f g =.w.w.2.2.2.x.n.6.2.>.2.c.m.1.E dX",
"P p.7.M.C.Z.C.n.,.f d p P %.>.g f f f f f f f f *.s B r u d a a s s } v.2.2.n.n.c.c.n.c.2.:.1.h E g.",
"U 6.V.F.F.G.F.n.M.n.4.gXgX>.h d d d d f s i i d a a G N e g :.a i X./ 4.m.C.M.x.,.1.2.2.m.c.| p 9.n.",
"i.n.M.C.D.V.h 2.V.V.m.s.&.h h f a a d f s f *.d a w _.N a d d f [ i.S.G.G.F.V.2.g g :.:.<.<.>.9.s.n."
};
