/* XPM */
static char *out[] = {
/* columns rows colors chars-per-pixel */
"50 50 237 2 ",
"   c #040101",
".  c #0B0403",
"X  c #0C0508",
"o  c #0E0809",
"O  c #130402",
"+  c #1C0401",
"@  c #140807",
"#  c #1C0A06",
"$  c #130B0B",
"%  c #1A0C0B",
"&  c #160E10",
"*  c #1D1213",
"=  c #1C1318",
"-  c #240301",
";  c #240902",
":  c #270806",
">  c #2C0B02",
",  c #350402",
"<  c #340C01",
"1  c #3D0E01",
"2  c #2C120C",
"3  c #37130A",
"4  c #241415",
"5  c #27171A",
"6  c #2C1B1D",
"7  c #3A1413",
"8  c #3A161B",
"9  c #331B1C",
"0  c #3B1B1E",
"q  c #3B2000",
"w  c #3E201F",
"e  c #2C1D22",
"r  c #2A1C25",
"t  c #321924",
"y  c #331E24",
"u  c #3B1E24",
"i  c #2E2124",
"p  c #2F2028",
"a  c #332226",
"s  c #3B2225",
"d  c #34242B",
"f  c #3B252B",
"g  c #37282D",
"h  c #3B292D",
"j  c #3C2C32",
"k  c #3F3135",
"l  c #450B03",
"z  c #520600",
"x  c #5D0300",
"c  c #451305",
"v  c #4B1101",
"b  c #541201",
"n  c #5B1301",
"m  c #5B110E",
"M  c #44161A",
"N  c #4A1518",
"B  c #451B1D",
"V  c #4D1C1D",
"C  c #551617",
"Z  c #571817",
"A  c #531B1C",
"S  c #5B1D1B",
"D  c #670700",
"F  c #770400",
"G  c #671602",
"H  c #751602",
"J  c #7B1C01",
"K  c #681915",
"L  c #641B1A",
"P  c #741814",
"I  c #751C15",
"U  c #7B1D13",
"Y  c #4E2807",
"T  c #5A3100",
"R  c #49221D",
"E  c #55231D",
"W  c #5B261C",
"Q  c #772903",
"!  c #64221D",
"~  c #69261A",
"^  c #74231B",
"/  c #782718",
"(  c #7B2B1D",
")  c #703513",
"_  c #75361D",
"`  c #7D321D",
"'  c #441D21",
"]  c #4A1F23",
"[  c #531E20",
"{  c #432324",
"}  c #4B2524",
"|  c #482827",
" . c #432629",
".. c #4D2729",
"X. c #432A2D",
"o. c #4B2B2C",
"O. c #532425",
"+. c #5B2424",
"@. c #532A26",
"#. c #5B2B26",
"$. c #522C2C",
"%. c #5A2B2B",
"&. c #4E302F",
"*. c #58302E",
"=. c #432D31",
"-. c #4B2E31",
";. c #522E31",
":. c #5D2E32",
">. c #433135",
",. c #4C3335",
"<. c #453439",
"1. c #4A3639",
"2. c #47383D",
"3. c #4C3A3D",
"4. c #543334",
"5. c #5C3434",
"6. c #5B3937",
"7. c #543639",
"8. c #533B3C",
"9. c #5B3B3C",
"0. c #632A24",
"q. c #692925",
"w. c #6C2C24",
"e. c #632C29",
"r. c #762A23",
"t. c #6A3325",
"y. c #62312C",
"u. c #733124",
"i. c #73342B",
"p. c #793928",
"a. c #653634",
"s. c #663A38",
"d. c #743A33",
"f. c #783931",
"g. c #654700",
"h. c #785B00",
"j. c #6E4133",
"k. c #774536",
"l. c #4E3E42",
"z. c #523E41",
"x. c #5B3E41",
"c. c #613E42",
"v. c #4E4045",
"b. c #534244",
"n. c #5A4245",
"m. c #554549",
"M. c #5B464A",
"N. c #57484C",
"B. c #5A4A4D",
"V. c #5F4E51",
"C. c #5F5254",
"Z. c #624345",
"A. c #674849",
"S. c #624E51",
"D. c #615356",
"F. c #67575B",
"G. c #716064",
"H. c #8C0700",
"J. c #950700",
"K. c #881B07",
"L. c #961C08",
"P. c #831D13",
"I. c #8B1814",
"U. c #A80500",
"Y. c #B40600",
"T. c #BA0A00",
"R. c #A71804",
"E. c #8B2206",
"W. c #942201",
"Q. c #9A2402",
"!. c #9B250D",
"~. c #893800",
"^. c #872717",
"/. c #822C1B",
"(. c #932D14",
"). c #992812",
"_. c #83331C",
"`. c #88341A",
"'. c #993516",
"]. c #AA2707",
"[. c #B42A02",
"{. c #BB2B07",
"}. c #B5360E",
"|. c #AD2F10",
" X c #A63815",
".X c #B83A12",
"XX c #863923",
"oX c #83372C",
"OX c #953A22",
"+X c #C50800",
"@X c #D50700",
"#X c #D30900",
"$X c #DD0900",
"%X c #D01B03",
"&X c #EA0700",
"*X c #E30800",
"=X c #EE0900",
"-X c #FF0700",
";X c #F40900",
":X c #FE0900",
">X c #E81701",
",X c #FC1300",
"<X c #F61B01",
"1X c #FB1A01",
"2X c #C82802",
"3X c #CA2D02",
"4X c #D62802",
"5X c #C73309",
"6X c #D43103",
"7X c #DB3303",
"8X c #E82902",
"9X c #F92302",
"0X c #F72B02",
"qX c #F92B02",
"wX c #E43503",
"eX c #EB3603",
"rX c #EE3803",
"tX c #F63403",
"yX c #F63904",
"uX c #8A421F",
"iX c #99481A",
"pX c #A7451A",
"aX c #B34312",
"sX c #AF5114",
"dX c #956B00",
"fX c #884228",
"gX c #964524",
"hX c #85493B",
"jX c #C64A0F",
"kX c #C65711",
"lX c #A98500",
"zX c #B99600",
"xX c #CDA800",
"cX c #D8B500",
"vX c #E7BD00",
"bX c #EFC500",
"nX c #F8C900",
/* pixels */
"E 7.v.B.C.F.F.N.3.1.{ ) j.5.<.g g g g g f y d j j d [ A t j j d d | 0.1.3.z.m.l.l.z.b.8.z.>.=.j ! z.",
"q.z.B.C.C.C.v.l.B.B.A.fXj.>.k j d d h j f f d d r t P.C y j =.g | ~ f.A.F.F.N.2.k j <.1.b.m.-.} a.m.",
"d.3.>.3.v.3.j 2.v.v.6.*.| j k =.j g d h j f  .l.g ' L.N d d g -.#.4.b.B.N.b.z.<.j g g h j a u w.9.1.",
"7.3.j h k 2.2.2.l.4.fXuXs k h h >.h d j j =.d p t  XI.M d r a ' +.k j j j j j j j k k j p a u q.z.1.",
"3.>.>.<.3.v.l.3.6.p.aX'.] j g h j =.d j =.=. .t A oX!.Z u j  .L ( ,.h <.1.>.j <.3.l.b.b.8.o.L %.3.X.",
"X.>.3.1.3.<.<.6.k.pXsX X[ a d f j j d j f f t t L ,.5X^ 7.l.x.d.`.~ ' o.4.&.,.6.4.$.,.4.@.! (.$.X.<.",
"1.3.z.l.<.>.1.a.i.4.5._.U B y d f d t g t f t L r.:.OXO.g p j 3.4.! ! A E ~ y.9.j.6.b.b.m.s.'.:.<.3.",
"8.1.3.k s X.4.! +.u u ` ].P A ] u t y d d t ] ^ c.x.| 7 * o o $ * * 2 c 3 3 w j j._ @.<.z.M.oXq.1.3.",
"u.t.o.R [ ..;.$.L L [ _..X|.I.K C M u d s R ! $.2.e % . O ; < 1 v b b b v 1 ; $ c E -.j l.V.s.u.u.*.",
"` `.q./.q.=.g ' L I w.d.fX X}.).P.K M 8 M C 0 w o   O < G Q.[.3X7X7X6X7X6X2XW.G 3 $ 5 g j l.x.:.'.u.",
"-.r.p.gX[ h t C L ;.=.=.1.a.uX` W v < ; ; O   O < b J ].eXyXyXtXtXqX9X9X9X9X9X8X].b % = g m.l.l.0.i.",
"o.XXoXhX;.X.[ I.U [ { ..@.5.$.4 X     + ; < n E.[.6XeXyXyXtXqX1X,X:X:X:X:X:X:X,X<X2XJ 2 = k l.l.q.p.",
"y.y.l.l.l.x.d.oX X(.r.i.s.c.8.i o   . b Q.[.6XyXyXyXtXqX1X1X,X:X-X:X:X:X:X:X:X-X-X<X>XL.1 = j ,.w.7.",
"`.f g g j l.l.:.gX Xr.7.7.x.n.x.s $ . < ].rXyXyXyXqX9X,X:X:X-X:X:X:X:X:X:X:X:X-X-X-X,X>XJ., & } ^ g ",
"pX] u u p p p t 0.XX7.1.4.-.9.x.,.w 4 . < [.yXyXtXtXqX,X-X:X:X:X:X:X:X:X:X:X-X;X=X;X-X:X;XH.+ Y ` u ",
"hXc.4.O.t ' t ] L r.x.x.7.4.;.y 5 s R 4   < 3XyXyXyXyX,X:X:X:X:X:X:X:X:X-X;XT.H H J.#X:X;X*Xx 3 k.z.",
"z.B.x.:.A /.q./.'.q.x.9.7.o.| %   $ 4 4 .   E.rXyXyX9X:X:X:X:X:X:X:X:X-X:XT.~.dXlXdXJ Y.;X:XY.- 3.b.",
"..m.z.a._./ B S r.%.;.7.4.@.| *     . o   . W.yXyX0X:X-X:X:X:X:X:X:X:X:X*XW.lXvXnXvXlXQ #X:X*X- i z.",
"[ l.2.=.w./ 8 9 [ [ -.;.4.@.@.9 . O Q W.W.].wXyXyXqX-X:X:X:X:X:X:X:X:X-XY.g.xXnXvXlXzXg.T.-X;X, % 3.",
"OXL ;.-.~ ].K M M O.-.5.6.5.$.R %   J 7XeXyXyXyXyXqX-X:X:X:X:X:X:X:X:X:X+XQ zXnXvXzXzXg.T.-X;XD @ [ ",
"7.k.iX^ OXhXd.I P K :.9.4.| w w : . ; [.yXyXyXyXyX,X-X:X:X:X:X:X:X:X:X:X=XH.dXcXbXxXh.G $X-X;XF @ fX",
"g =.u.pX%.9.A.d.'.^.' 4 o . . .       H 7XyXyXyXyX-X:X:X:X:X:X:X:X:X:X:X-X@XH.Y T q b T.;X:X;XH.@ | ",
"6 t ..^.0 f >.o.+.3 .   ; l v v > . O Q.rXyXyXyXqX-X:X:X:X:X:X:X:X:X-X:X-X:X;X$X#X#X$X;X:X:X-XH.. 6 ",
"6 e 8 ^.C a f a @   < Q.wXeXyXeXeX7X3XrXyXyXyXyX1X-X:X:X:X:X-X:X:X:X:X:X:X:X:X-X;X:X:X:X:X:X;XF . 5 ",
"r 6 8 K M t 6 X   n 6XyXyXyXyXyXyXyXyXyXyXyXyXtX:X:X:X:X:X:X:X:X:X:X:X:X:X:X-X-X:X-X:X:X-X-X;Xz X 5 ",
"a 6 M Z 9 4 .   n 8XtXyXyXyXyXyXyXyXyXyXyXyXyXyX1X:X:X:X:X:X:X:X:X:X:X-X:X;X+X@X:X:X:X:X-X-X*X- $ 6 ",
"i 8 K I f *   v 6XyXtXtXtXtXtXyXyXyXyXyXyXyXyXyXyXtXqX,X-X:X:X:X:X:X:X:X:X*XD x +X:X:X:X:X:XU.O * M ",
"s S '.E r . < [.yXyXyX4X4X2X2X2X4XeXyXyXyXyXyXyXyXyXyXyX1X:X:X:X:X:X:X-X:X:XU., F $X:X:X-X=XD O 8 U ",
"M Z E V 4 @ H rXyX3XJ < + + + + - b L.4XwXyXyXyXyXyXyXtX,X:X:X:X:X:X:X:X:X:X=XF - F @X;X;X+X- $ C B ",
"M K ] E > > [.yX3Xn   . . @ . + ; O . + H 3XyXyXyXtXtXtX,X-X:X:X:X:X:X:X:X:X:X@XD - z Y.&XF O 5 K N ",
"Z !.Z | ; c 7X6Xn . % 9 { } } ~ !.Q 3 @   v eXyXyXqXyXtXqX:X-X-X:X:X:X-X:X:X-X:X*XJ.z J.U., : 7 P U ",
"U  X/ B ; l 7XQ.O % w o.@.O.#.( .XjX^.P n G rXyXyXyXyXyXyX1X,X:X:X:X:X:X:X:X-X-X-X;X;X$XD O c K W. X",
"}.0.V A % < [.G . 5 o.4.*.#.e./.[.].!.%X2X{.3X3X3X3X6X6X7XwX8X9X1X,X:X:X:X:X:X:X:X:X>XH + , U ].).} ",
" Xs e 6 $ + G l . w o.o.*.@.q.^.}.(.Z H n c 1 c 1 1 n n J J W.[.wXqX1X,X:X:X:X:X;X4XJ # @ m (. X_ s ",
"9.s d p = . ; # $ { X.&.-.+.I ).(.3 .   . $ * > c # o       O < W.wXeXeX8X>X>X%XR.G O o 5 I #.,.,.a ",
">.u p d r $ X $ 7 W @.@.[ ^ ). X0.2 % 4 6 | 5./ [.K M % o       > J K.W.E.J H b < # $ 5 M I s d o.9 ",
"{ ! y d d r 6 6 V /.XXr.'.aX Xw.} { { @...5.s.e.{.^.r.;.' r 4 X . @ # # # # % : 7 5 e e Z P.M t S V ",
"5.p.+.u d a y u V / r.OXpXgXt.O.| | | o.o.;.9.a.5XI.^ a.s.x.f 9 5 9 i a i R ) Y 9 e e ' P (.L ;.d.t.",
"Z.M.s.+.[ M M Z / '.fXiXuX#.|  .X.| o.o...,.4.$.jXR.L ..;.7. .f f | >.,.,.t. X`.0 e y -.d.d.s.Z.M.A.",
"b.3.x.6.%.L P I.( XXk.fXiXt. .| o.o.o.o.4.o.o.S OX(.L '  .=.X. .| s X.h =.t.}.}.`.W { 2.m.M.m.b.3.z.",
"<.=.,.2.,.+.~ y.%.,.3.9.k.p.O. .X.o.X.o.=. .B E 7.I P [ u X.o.-.=.o. . .-.p. X(.^.pXt.f h >.1.1.<.>.",
"f y g >.=...V s h >.<.1.n.s.O.X.f o.X.h f O.iX@.;./ I.[ ' f f -.,.1.=.=.h )  X^.~ OXd.-.>.@.{ s s i ",
"_ w y j 2.{ A 6 d >.>.>.>.4.t.@.d u u R L (.kX} o./.{.I [ u s d  .X.{ W `.`.u.y.6.A.A.x.l.j.5._ W a ",
"uXsX{ j f A K u s g g g g =.u.iX) u s s ..i.fXq.L .X2X(.%.$.%.( u./.'.}. Xu.6.z.8.M.S.B.B.B.n.d.sX) ",
"j.aXV p 0 U K s g d g g g h #.iXt.a g f X.,.4.7.../.!.A o.,.-.e./.).5X[.`.x.z.3.3.b.B.S.C.G.F.S.` pX",
",. XR y V ).^.B g g g j j f _ p.o.f s g h h X.,.<.,.I.] =.3.j X.7.i.'.^.6.v.3.l.b.b.8.3.v.B.S.S.K  X",
"s jX/ >.7.6.5.4.X.g g h j t.t.&.k g g h h X.=.=.=.=.! u j =.g j =.>.e.i.3.3.3.z.b.8.3.1.1.z.m.2.~ sX",
"R p.9.b.B.C.B.b.<.h g s R *.1.h h k h g f s f f =.g A 9 r g d a d  ...z.l.3.v.z.l.l.b.b.3.>.3.>.~ d.",
"W 8.B.D.D.F.F.v.b.b.5.uXfX1.<.g d g g h f s i g g y q.C t j k g y +.( :.m.B.m.l.<.1.3.3.n.b.X.s 0.b.",
"i.b.m.B.B.B.k 3.N.B.n.a.*.k k h d d g h f h j g d r !.N p g j j ..i.A.F.F.D.N.3.j j >.<.1.1.,.0.s.b."
};
