/* XPM */
static char *out[] = {
/* columns rows colors chars-per-pixel */
"50 50 238 2 ",
"   c #050201",
".  c #0B0302",
"X  c #0E0808",
"o  c #140402",
"O  c #1C0601",
"+  c #190804",
"@  c #140A0B",
"#  c #1A0D0D",
"$  c #191010",
"%  c #1C1112",
"&  c #240602",
"*  c #2C0704",
"=  c #230902",
"-  c #2B0A01",
";  c #230D0A",
":  c #3A0201",
">  c #320B01",
",  c #3B0D02",
"<  c #3C1409",
"1  c #2E0E11",
"2  c #221313",
"3  c #2B1513",
"4  c #28151B",
"5  c #26191C",
"6  c #2C1C1E",
"7  c #381615",
"8  c #341A1C",
"9  c #3B1C1D",
"0  c #3B201F",
"q  c #2C1D23",
"w  c #2C1E28",
"e  c #321924",
"r  c #331E24",
"t  c #3B1E23",
"y  c #2E2126",
"u  c #332226",
"i  c #3C2226",
"p  c #34242B",
"a  c #3B252B",
"s  c #36282D",
"d  c #3B292D",
"f  c #362B30",
"g  c #3C2C32",
"h  c #3F3135",
"j  c #440600",
"k  c #5D0300",
"l  c #4C1202",
"z  c #451708",
"x  c #531301",
"c  c #5D1501",
"v  c #581C0B",
"b  c #4D1814",
"n  c #44151A",
"m  c #4D151B",
"M  c #451B1D",
"N  c #4C1C1D",
"B  c #591715",
"V  c #54161B",
"C  c #531B1D",
"Z  c #5C1C1B",
"A  c #6C0300",
"S  c #770600",
"D  c #671907",
"F  c #7B1D01",
"G  c #721709",
"H  c #671814",
"J  c #631C1A",
"K  c #6A1D1B",
"L  c #741A14",
"P  c #7B1D13",
"I  c #5B2505",
"U  c #4B221D",
"Y  c #55231E",
"T  c #5B231D",
"R  c #5C2C1E",
"E  c #752D00",
"W  c #66241B",
"Q  c #63221C",
"!  c #6C241B",
"~  c #7C2314",
"^  c #73231B",
"/  c #782418",
"(  c #742C1C",
")  c #7B2B1C",
"_  c #713213",
"`  c #78341D",
"'  c #431D21",
"]  c #4A1E22",
"[  c #521E20",
"{  c #442325",
"}  c #4C2424",
"|  c #492826",
" . c #432529",
".. c #4B2629",
"X. c #442A2D",
"o. c #4C2B2C",
"O. c #542425",
"+. c #5B2524",
"@. c #552926",
"#. c #5C2A25",
"$. c #502729",
"%. c #532C2B",
"&. c #5B2B2B",
"*. c #4F302F",
"=. c #57312E",
"-. c #5B302D",
";. c #432D31",
":. c #4C2E31",
">. c #522E31",
",. c #5D2E32",
"<. c #433135",
"1. c #4C3335",
"2. c #453539",
"3. c #4A3639",
"4. c #47383E",
"5. c #4C3A3D",
"6. c #543334",
"7. c #5B3434",
"8. c #573838",
"9. c #533B3D",
"0. c #5B3C3C",
"q. c #632A25",
"w. c #6C2C23",
"e. c #682A26",
"r. c #762823",
"t. c #742C23",
"y. c #6B3123",
"u. c #693327",
"i. c #63312B",
"p. c #743124",
"a. c #73342B",
"s. c #793928",
"d. c #633533",
"f. c #643935",
"g. c #6B3837",
"h. c #633B3A",
"j. c #743A33",
"k. c #783931",
"l. c #594B00",
"z. c #714A00",
"x. c #7B6600",
"c. c #734127",
"v. c #6B403A",
"b. c #774536",
"n. c #4E3E42",
"m. c #523E41",
"M. c #5C3D41",
"N. c #613E42",
"B. c #544244",
"V. c #5C4245",
"C. c #554549",
"Z. c #5B464A",
"A. c #57484C",
"S. c #5A4A4D",
"D. c #5F5254",
"F. c #624344",
"G. c #674849",
"H. c #624E51",
"J. c #615356",
"K. c #67575B",
"L. c #716064",
"P. c #830400",
"I. c #950600",
"U. c #811D02",
"Y. c #8A1804",
"T. c #971D0A",
"R. c #8E1610",
"E. c #831D14",
"W. c #A70900",
"Q. c #B80600",
"!. c #AD1704",
"~. c #8C2102",
"^. c #81210F",
"/. c #922202",
"(. c #9C240B",
"). c #872817",
"_. c #8D2C14",
"`. c #822C1B",
"'. c #952512",
"]. c #932B14",
"[. c #9E2A13",
"{. c #87341C",
"}. c #993515",
"|. c #AC2802",
" X c #A92609",
".X c #B42A02",
"XX c #BA2A07",
"oX c #A6340F",
"OX c #B8360E",
"+X c #A43314",
"@X c #A83A16",
"#X c #B83A12",
"$X c #863925",
"%X c #83372C",
"&X c #963A22",
"*X c #CB0700",
"=X c #C50800",
"-X c #D90800",
";X c #E40900",
":X c #EB0800",
">X c #FF0600",
",X c #F40900",
"<X c #FE0900",
"1X c #E51401",
"2X c #FC1301",
"3X c #F51A01",
"4X c #FB1B01",
"5X c #C72C02",
"6X c #CA3206",
"7X c #D53203",
"8X c #DB3403",
"9X c #E72902",
"0X c #FA2301",
"qX c #F42A02",
"wX c #F82C02",
"eX c #E53504",
"rX c #EB3603",
"tX c #F63603",
"yX c #F83303",
"uX c #F63904",
"iX c #8C4D00",
"pX c #89411F",
"aX c #99471A",
"sX c #AE4A11",
"dX c #A8441A",
"fX c #967900",
"gX c #A47900",
"hX c #874229",
"jX c #954526",
"kX c #864739",
"lX c #C9490F",
"zX c #C74B15",
"xX c #C65711",
"cX c #B69400",
"vX c #C29D00",
"bX c #DBB500",
"nX c #EDC100",
"mX c #F5C900",
/* pixels */
"Y 8.B.S.D.K.K.A.5.3.i y.c.7.2.s s s d s p r p a f a Z m w d g p s } q.3.5.B.B.n.n.m.B.9.m.<.;.d q.m.",
"e.m.S.J.D.D.B.4.S.S.G.hXc.<.h d s p d g a a p f w w E.V u g h a { w.k.G.K.J.A.4.<.g 2.5.V.C.:.} d.B.",
"g.9.;.4.B.4.f B.B.m.0.-.X.g g g g f s d ;.a ;.;.p ' T.m u p d X.+.6.B.S.A.B.B.3.g s s d s p a w.0.2.",
"8.5.g d h 4.4.h n.1.hXpXd g g X.;.s p s g a ;.p e @XR.n u w u { +.<.f f g g f g f h h f u w t e.m.3.",
"9.<.<.2.5.B.n.5.0.s.sX}.] g s d ;.g f g g ;.a e V $XT.V t g  .J ) 6.d 2.3.h g 2.9.n.C.B.3.o.J &.9.X.",
"d <.3.5.4.2.2.8.c.dXzX}.[ p u a g g a g a a e e K >.#Xr.8.n.Z.k.{.Q } o.6.:.6.8.=.>.3.=.&.W '.$.X.2.",
"3.5.B.5.2.<.3.f.a.6.7.{.P M t u f p p a e a e J r.,.&X+.;.X.2.M.0.y.! T T ! u.M.f.f.B.B.C.g.}.,.2.5.",
"8.3.n.d a X.*.W O.t i )  XL V ' t e e e p e ] r.N.F.%.K { u y y p p U v b N X.;.c.s.o.2.5.S.$Xi.3.5.",
"p.u.%.U [ $.6.&.J Z [ `.#X XR.K V n t t ' Z w.d.Z.6.o.K B 5 @ X o + = = = ; ; ; z Y ;.h n.S.N.t.p.i.",
"p.{.e.`.e.;.p ' J ^ w.k.kX@X#X[.).P Z Z / ).d.M.o.X.a 7 , o O l F ~.~./././.E c , 2 % p g m.M.,.{.p.",
"o.r.s.jX[ a e m K :.;.<.3.d.jXjX%X%Xp.r.+X(.%.o.i 6 # . O l ~.7XuXtXyXwXyXyXwX9X.XG * % f C.n.n.+.a.",
":.$XhXkX>. .[ E.P [  .] $.8.h.0.M.M.V.V.u._.N 3 % X O x ~.7XrXwX0X4X2X2X2X2X2X2X0X9X~., % h n.m.e.$X",
"&.i.n.n.n.M.g.&X+X_.r.a.h.N.F.M.1.6 6 a 6 z ; X o l /.6XuXtXwX2X<X<X<X>X<X>X<X>X<X4X9X!.l 2 f 1.w.8.",
"{.i f f f n.n.,.&XdXt.7.9.M.G.G.1.$   .   . . x U.5XtXuXtX0X2X<X<X<X<X<X<X<X<X<X<X<X2X3X!.j % U ( s ",
"dX} t p e w w p q.$X6.3.:.:.M.N.=.0 5 $ X   . c 7XuXuXtX4X<X>X<X<X<X<X>X<X<X<X<X<X>X<X<X,XW.& z r.t ",
"kXF.6.[ e ' t ' J a.M.M.8.>.>.7.=.%.$.| 0 1 = o c rXtX0X<X<X<X<X<X<X<X<X<X<X<X,XQ.W.*X,X<X,XS ; v.8.",
"m.S.M.,.C ).Q {.}.e.M.M.8.%.%.%.=.-.f.v.f.T I   . XXtX<X<X<X<X<X<X<X<X<X<X<X,XW.~.z.E !.;X<X*X: 4.B.",
"$.C.m.h.) ) M Q r.+.:.6.6.$.| 3 % 3 8 0 7 1 = . > 8XtX>X<X<X<X<X<X<X<X>X<X<X*XiXvXbXvXz.!.:X<Xk 6 9.",
"[ n.3.;.y.^.e e [ +.1.6.6.%.{ #   o + + O - l Y.5XtXtX>X<X<X<X<X<X<X<X<X<X,XT.gXmXmXbXvXE ;X>XS # 2.",
"$XJ >.:.! [.H 7 n $.o.6.h.i.@.3   , /.|.|.7X7XrXyXtXuX>X<X<X<X<X<X<X<X>X<X,XY.gXmXnXfXcXE -X<XI.o C ",
"7.b.dXr.&XkXk.L L K ,.h.f.d.i.U @ o l .XrXuXuXuXuXuXtX<X<X<X<X>X<X<X<X<X<X,XW.iXbXmXbXfXF ;X<XW.o pX",
"d X.w.dX&.m.G.k.[.).,.>.7.#.#.#.7 X   - .XuXuXuXuXuXwX<X<X<X<X<X<X<X<X<X<X<X;XY.l.x.l.< Q.<X<X=Xo | ",
"q 6 { ).9 a ;.:.w./ ] } } O.#.y.T < .   c eXuXuXuXuX4X<X>X<X<X<X<X<X>X<X<X<X<X:X*XW.I.=X,X<X<X=Xo 5 ",
"5 q 9 ).V r X.X.#.K ] ..O.#.R W sXI .   Y.rXuXuXuXuXuXwX4X<X<X<X<X<X<X<X<X<X<X<X<X<X,X<X<X<X<XQ.o 5 ",
"q 5 7 H n e i i { J Z C #.Q }.sXz   . F eXuXuXuXuXuXuXuXuX0X<X<X<X<X<X<X<X<X>X<X<X<X<X<X>X>X>XW.. 4 ",
"u r n Z e 8 4 8 U ^.P B H G l o   > |.rXuXuXuXuXuXuXuXuXuXyX<X<X<X<X>X<X<X<X>X:X,X<X<X<X<X>X>XS . 4 ",
"q 7 H L X.i t b v ; X   . . o , (.eXuXuXuXuXuXuXuXuXuXuXyXwX<X<X<X<X<X<X<X<X<XI.A *X>X<X<X<X:Xj @ n ",
"i Z }.T d a 9 B z     . - D .X|.E c c F ~..X7XrXuXyXwX4X<X<X<X<X<X<X<X<X<X<X<X=Xj P.;X<X<X,X*XO 1 P ",
"9 B Y O.8.8.W ).U o     . - > + .     .   . . A Q.1X3X4X<X<X<X<X<X<X<X>X<X<X<X,XP.: I.:X>X,XS o b n ",
"m H ] W ).( dX( { 0 2 @ X X X > x < 3 7 7 ; X   o x |.tX0X<X<X<X<X<X<X<X<X<X>X<X-XA * S -X-Xj @ H m ",
"V (.B &.'.U T ! | $.o.o.U U O.~ OX+Xw.e.u.@.3 . o & F uXwX<X<X<X<X<X<X<X<X<X<X<X>X*XA j W.I.O 1 L E.",
"P oX/ T ! 0 M Q o.%.%.%.@.@.#.) 6XlX_.^ b + = x Y.XXrXuX0X2X<X<X>X<X<X<X<X<X<X<X>X>X:X;X*Xj * B /.oX",
"OX+.M W T 9 9 M { | %.=.-.#.q.).OX X'.H O O ~.7XeXeXeXrXyXwX0X2X2X<X<X<X<X<X<X<X<X<X,X1XG O D (.[.| ",
"@Xi u q e t ' M } | %.%.%.-.e._.6X+X+.@   l /.U.U.U.~./..X6X7X9XwX0X2X2X2X<X2X2X4X4X9XY.O : _.@X) u ",
"0.a p u q r t { ] } ..*.$.q./ [.@Xp.7 .   O o + O . . . * l D U..X7XrXqXwXqXqXtXeX5XE & + H #.2.1.u ",
";.t u p u q r t C e.@...[ P [.+X` @.8 X . % 6 7 D z < 2 # X . o - c F ~./.(.(./.F j o @ 7 L t s | r ",
"' Q r p s u u t M `.{.r.&X#XoXt.@.} 9 3 8 o.0.i.XXE.^ ,.>.X.q $ @ X X o o O ; + @ @ % 4 V E.n r T U ",
"d.k.O.i a w e t C / $X&XdXjXy.@.| ..$.o.| >.d.d.6XR.r.g.N.M.;.t 6 6 y y 6 3 z < 2 q w ' L '.K %.j.u.",
"G.V.g.+.[ n m B ~ }.hXaXpX#.| | | | %.o.o.%.7.&.zX XJ $.,.6. .X. .d :.1.<.R }.) 9 q u :.j.j.f.F.Z.v.",
"B.4.B.7.&.J L E.`.s.b.hXaXy. .X.X.o.o.o.6.:.o.T &X'.H ' ' :. . . . .X.X.;.` OXOX_.T { 2.B.S.C.C.5.B.",
"2.;.2.3.1.+.! q.=.1.3.0.b.s.$. . .X.X.X.o.X.] Z d.K G [ t X.;.:.1.X.X.X.:.s.@X].) dXy.d d <.3.2.h <.",
"i u a <.<...] u d ;.2.3.V.g.@. . .X.X.X.i Y aX} 6.`.R.[ '  .X.:.1.6.X.X.i _ @X).K jXj.o.<.#.{ i s y ",
"` 0 q ;.3.{ C u d ;.<.<.<.8.u.$.i i i U Q ].xX} X.`.XXP [ ' i i  .X...T {.{.` i.d.G.G.B.9.0.-.` R 0 ",
"aXaX{ g a C H 9 p d s s a ;.y.dXy.' t i $.a.hXu.Q #XXX'.&.%.&.( ` ) ].OX@Xp.8.9.9.S.H.Z.S.H.V.v.sX` ",
"v.sXU u i P L { s p s d p d #.aXy.u a d ;.1.6.8.o.`.T.[ o.3.:.q.`.'.6X X{.F.m.5.9.B.A.D.K.L.K.H.{.}.",
"=.oXU u b '.P 0 s d s f f d ` s.X.a s i a d ;.:.1.:.E.] ;.5.;.X.8.a.[._.8.5.5.n.B.B.9.8.m.A.H.H.W }.",
"} sX( X.8.0.7.6.X.s f f f y.y.*.f d a X.a d X.X.:.X.J t d g d g ;.;.i.a.n.5.5.n.B.5.3.5.3.m.V.5.! xX",
"} s.0.C.S.D.S.B.2.d p i U =.1.h h d d d a a g g g a [ t q s p u p  .$.m.5.5.m.B.n.m.B.B.5.<.4.h W j.",
"T 8.S.D.J.K.J.B.C.B.7.pXhX1.<.s p s s d a u u s s w W V e g ;.s p +.) >.V.S.C.n.4.3.5.5.V.m.a i q.9.",
"a.B.C.S.D.S.h 4.C.S.V.d.7.h h d s p s d d d ;.s u q [.m w s g g $.a.G.K.K.J.S.3.g g <.<.5.5.1.q.h.B."
};
