/* XPM */
static char *out[] = {
/* columns rows colors chars-per-pixel */
"50 50 255 2 ",
"   c #193819",
".  c #223B1B",
"X  c #132E27",
"o  c #193827",
"O  c #183B37",
"+  c #263D29",
"@  c #273A36",
"#  c #2F580F",
"$  c #264618",
"%  c #314F1A",
"&  c #365719",
"*  c #1E4427",
"=  c #1A453A",
"-  c #294728",
";  c #344928",
":  c #375629",
">  c #28453A",
",  c #374A37",
"<  c #29563A",
"1  c #3A5538",
"2  c #3B6428",
"3  c #496C19",
"4  c #4F751A",
"5  c #465632",
"6  c #475839",
"7  c #486A26",
"8  c #546D29",
"9  c #4A7525",
"0  c #567729",
"q  c #4B6636",
"w  c #556839",
"e  c #587638",
"r  c #637D37",
"t  c #2E274E",
"y  c #332D56",
"u  c #3A345B",
"i  c #18287E",
"p  c #2F3467",
"a  c #383766",
"s  c #423958",
"d  c #433D66",
"f  c #1B4943",
"g  c #1A5445",
"h  c #2A4A45",
"j  c #334C46",
"k  c #2D5446",
"l  c #355345",
"z  c #34534A",
"x  c #3A574A",
"c  c #2F4F57",
"v  c #3B5A52",
"b  c #376551",
"n  c #3B4B73",
"m  c #387975",
"M  c #455A47",
"N  c #4E5355",
"B  c #435D51",
"V  c #4A5C55",
"C  c #49654A",
"Z  c #56664A",
"A  c #4D764C",
"S  c #4B6354",
"D  c #496657",
"F  c #586A57",
"G  c #556C5B",
"H  c #597559",
"J  c #67764A",
"K  c #677056",
"L  c #65745D",
"P  c #474769",
"I  c #4E506A",
"U  c #55546A",
"Y  c #474B76",
"T  c #49567C",
"R  c #575877",
"E  c #605D7A",
"W  c #4D6C6D",
"Q  c #576C63",
"!  c #5C7465",
"~  c #59637B",
"^  c #637563",
"/  c #677867",
"(  c #6A7A64",
")  c #6B7C6B",
"_  c #747B68",
"`  c #67697A",
"'  c #6D7074",
"]  c #6A7674",
"[  c #5A8B17",
"{  c #649018",
"}  c #71A01B",
"|  c #5D8424",
" . c #598735",
".. c #678B2F",
"X. c #3B897C",
"o. c #568453",
"O. c #6C8A4D",
"+. c #528F70",
"@. c #6B836A",
"#. c #788567",
"$. c #73826C",
"%. c #7A856C",
"&. c #6C8373",
"*. c #698375",
"=. c #738573",
"-. c #7B8A73",
";. c #798978",
":. c #739578",
">. c #75B374",
",. c #848B6B",
"<. c #8F9467",
"1. c #838C74",
"2. c #898A75",
"3. c #958D77",
"4. c #88937A",
"5. c #96957B",
"6. c #A3967C",
"7. c #96A27C",
"8. c #192887",
"9. c #1B378F",
"0. c #21358A",
"q. c #1B3DA3",
"w. c #1C4196",
"e. c #31508F",
"r. c #284897",
"t. c #295898",
"y. c #356794",
"u. c #1A43A8",
"i. c #264DA9",
"p. c #2D5AB0",
"a. c #3768A4",
"s. c #3A6ABA",
"d. c #3270B0",
"f. c #4B5C86",
"g. c #596889",
"h. c #4E6E91",
"j. c #577999",
"k. c #666A84",
"l. c #687589",
"z. c #767986",
"x. c #71758B",
"c. c #677994",
"v. c #4578A5",
"b. c #4772AF",
"n. c #235BC1",
"m. c #1A6FCD",
"M. c #2969C6",
"N. c #2777C9",
"B. c #2875CD",
"V. c #3776C7",
"C. c #4675C1",
"Z. c #817F8C",
"A. c #3698A4",
"S. c #368ABA",
"D. c #5B8E95",
"F. c #7B8588",
"G. c #6A8E91",
"H. c #788B97",
"J. c #4DAF98",
"K. c #76A98C",
"L. c #5986A6",
"P. c #4C8FB2",
"I. c #579AB6",
"U. c #6590AA",
"Y. c #6A96A9",
"T. c #7896A4",
"R. c #53AFB4",
"E. c #5AA5B9",
"W. c #6EAEAF",
"Q. c #69A7B9",
"!. c #7AA8B5",
"~. c #7CC1AE",
"^. c #1A8ED7",
"/. c #3B86C8",
"(. c #328BD1",
"). c #2893DA",
"_. c #3897D8",
"`. c #2BA5D9",
"'. c #38A5DB",
"]. c #1996E1",
"[. c #2B99E1",
"{. c #1DA8E4",
"}. c #2BA7E4",
"|. c #26B9E7",
" X c #39B8E6",
".X c #4F8FCB",
"XX c #4498D7",
"oX c #659CCF",
"OX c #4AA7C4",
"+X c #58A5D7",
"@X c #4EB3D1",
"#X c #55B6D7",
"$X c #6DB4C7",
"%X c #75B8D9",
"&X c #53ADE7",
"*X c #49B8E7",
"=X c #6EBBE5",
"-X c #30C8D9",
";X c #2AC6EB",
":X c #36C9EA",
">X c #38DAEC",
",X c #34D4F0",
"<X c #35E4EF",
"1X c #4FC8D1",
"2X c #58C7D7",
"3X c #5AD5DC",
"4X c #67CBD8",
"5X c #70CED1",
"6X c #74E1D5",
"7X c #47C6E7",
"8X c #4FD1E8",
"9X c #57D9E6",
"0X c #67C7E5",
"qX c #76CCE7",
"wX c #6CD9E6",
"eX c #78D6E5",
"rX c #4AE3ED",
"tX c #56E6F2",
"yX c #69E7F0",
"uX c #858788",
"iX c #899585",
"pX c #939B85",
"aX c #989D88",
"sX c #878B93",
"dX c #889798",
"fX c #959897",
"gX c #A59B83",
"hX c #AA9F92",
"jX c #98A48C",
"kX c #8CAB9A",
"lX c #9AA595",
"zX c #A9A58B",
"xX c #A5A998",
"cX c #B2A994",
"vX c #ACB29B",
"bX c #B4B49B",
"nX c #859AA5",
"mX c #9099A1",
"MX c #89A7A8",
"NX c #96A6A6",
"BX c #8DB5B0",
"VX c #A8AFA5",
"CX c #B7B9A4",
"ZX c #C5BBA1",
"AX c #8EC3BC",
"SX c #B3C3B2",
"DX c #C7C6AC",
"FX c #88B8C5",
"GX c #83BEE4",
"HX c #87C7C6",
"JX c #8DD1D5",
"KX c #9CE1DD",
"LX c #88D5EC",
"PX c #83E5E8",
"IX c #92EFF1",
/* pixels */
"& 5 w 6 5 + , . > $ $ ; ; . + + + . $ % : } [ # [ } { # $ $ $ ; , 5 - . ; , , - % $ $   # $   o   3 ",
"J zX6.6.gXgXaXM x w cXgX2.2.2.2._ + 5 gX5.9 e #.O.{ q jXF & J zX3.5._ Z aX1.%.=._ + & #.@.-.! G < $ ",
"_ zXzXzXzXcXgXZ 3 J gX6.6.3.3.2._ 5 5 zX5.#.4.1.#.L H 4.-.- #.5.,.O.4.%.4.%.%.) Q + :.A A ( G S x o ",
"J zXcXbXvXcXfXZ 8 J cXhX6.3.3.2._ @ M jX5.,.%.$._ F C -.@.+ M L #.4.,.%.( _ _ ) G - @.:.;.^ V x > o ",
"Z #.bXvXvXvXlXZ 4 8 K _ K K Z M , + Z 2.5.1., L #.L ( ( 1 $ ; =.2.-.%.$.^ Z ^ ^ B + o.@.( H S > < k ",
"Z 4.vXCXvXxXlXF 3 ..w 6 6 6 6 6 5 w M ,.4.,.J 1.1.-.-.;.) , Z 4.%.$._ ( F ( ) $.1 ;  .H x l z > k o.",
"5 bXxXvXxXjXjXM 5 DXDXZXZXDXDXCX#.r ..,.,.#.-.4.4.iXiX;.=.> S ) ) ( ( H -.( G F C o { <.H C b o. .O.",
"5 ( _ -.( B M , 5 DXCXCXCXCXbXvXZ 5 Z %.%.( xXCXMX!.$XVXVX' l ) / ^ F ( ( G F G B o 8 ,.#.J e 4 { } ",
"3 & ; ; . ; 8 3 8 bXbXbXCXCXCXvXL 7 A 4.aXiXuXVXOX!.HXE.VX] lXlXC k > j j , j h z o 2.ZXaXpX1.F @.0 ",
"3 <.6.<.3.3.6.6.<.ZXCXDXCXCXNXVXF 7.jXVX!.W.~ dXE.W.Q.$XH.h.W.T.dX/ iX; + M _ pXlXfXVXNXaXpXiX4.=.< ",
"w ZXhX6.3.3.6.DXbXMXI.U.dXlXz.fXjXlXW.3XwX5XR dXU.R.$XQ.R Y.3XwXQ.T.kXxXz.3.NXL.P.j.sXH.fXpXiX=.! > ",
"w cX6.6.gXgX3.DXCXoX#X4XOXdX` F.MX@XeX~.BXNXk.c.G.U.U.j.n dXkX!.5X5XQ.dX' ZXL.0X8X0Xj.F.H.iX;.-.=.@ ",
"6 gX6.3.3.3.2.hXfX#X4XwXqXnX` ~ 5X5XAXlXT.y.t.e.S.d.d.d.t.y.L.T.MXMX4XG.' CXP.eX9X8Xb.c.F.:.;.;.*.< ",
"5 hX3.3.2.,.2.CXmXP.4X#X@XdXf.h.MXG.nXv.t.9.p..X+X+XC.9.i i w.d.v.c.dXdX' VXL.qX9XqXY.g.I j z > j - ",
"+ _ 3.3.2.z.K hXsXH.$X$XH.c.f.z.NXj.t.9.q.n.V.%X%X.XV.p.b.8.8.r.t.y.nXfX` sXZ.L.E.c.x.h.W M 5 : : 2 ",
"% ; , s 6 5 6 ` k.k.k.k.g.f.n k.L.p.9.n.M.m.^._..XB.m.XXV.i.b.4Xb.0.v.H.Z.R f.R k.R f.b.F.2._ _ ( + ",
"3 0 w w w w 8 r P u y t u d z.c.t.r.XX&X*X*X7X7X#X X X[.B.(..X%XGXs.0.b.dX` u y t y p ' _ _ N K G > ",
"4 zXbXgXgXgXiX& _ ' I U ' dXH.a.p.&XqXLX=X_.(.XX#XD.5XIX7XB._.M.i.V.s.r.L.sXuX~ c U n ' _ F Z M B @ ",
"J ZXgX5.pX3._ ; K Z.L.D.dXNXb.p.=X=XV.m.^.^.^.].[.].[.eXW.7X_.V.n.V.XXp.y.MXH.~ A.` n ( L ^ G G x X ",
"Z zXaXpXpXiX$.; aXVXE.4XdXg.t.+XLXJX(.m.^.{.|.;X:X|.|.{.4XJX7X).B.M.&XoX9.P.k.j.#XH.L.] F ^ G B h f ",
"Z hXpXpXiX;./ 1 vXdX#X~.NXv.b.LXJXY.N.].;X>XrXyX3X9X<X;X}.!.4X`.^.M.&XqXt.e.mXc.4XL.G.W O @ O O O g ",
"5 K pXiXiX:.! : DXH.wX!.NXd.oX$XQ.G.^.;XyX5X~.+.+.BXPXtX;X@XIX7Xm.B.&XLX.X0.!.sX@XI.c.H $       $ & ",
"; M S F Z H 1 q ZXD.eXBXnXt.oXT.BXm.`.rXAX-X>XrX<X<X~.HXtX|.IX7X)./.=XIX.X8.!.sXR.$Xl.h.6 q J J J 8 ",
"3 4 4 3 9 e #...VXL.eXMXT.t.p.i./.{.<XAX-X<X<X2X+.J.>XkXPX;XIX:X'.XXLXGX.X8.Q.sXE.#Xl.L.;.( 4.4.-.H ",
"8 5.#...O...O...lXQ.4XdXY.r.s.V.m.;X5X1X<XrX9X:.J.J.3XAXAX,X6X;X].XXQ.+Xd.8.Q.mXI.4Xl.L.iX@.-.4.-.G ",
"L pXjX-.w jXvXjXfXE.2XdXU.r.%X%X}.>XW.>X<XtXPXR.A.+.1XK.1X3X3X{.'.R.OX+Xb.9.U.nXP.1Xl.j.F.iX;.=.=.F ",
"M -.;.q ! jXjXF fXL.3XT.U.t.%XI. XtX@X>X<X<X5XK.<XX.m 6X>X6X;X`.4X$X&XV.oX8.MXsXE.#Xg.P.F.iX;.&.@.x ",
", jX4.-.M > J jXsXL.4XH.g.r.p.n. XyXP.;XtX<XrXD.-X<X<X3X2X;X|.:.~.*XN.=XXX8.MXx.I.R.T P.*.:.*.) / k ",
"- x l , o Z pX3.fXg.3XG.H.a.i.m.[.W.I.@X9XrX<XwXK.PX1XrX8XJ.kX6X:XN.d..Xp.0.BXk./.OXg.G.@.! G B x q ",
"2 % : 6 4 O.2.1.fXj.2Xl.uXv.q.n.[.5XD.'.7X5X>X<X8XJ.>.>.K.IXyX-XN.p.u.9.i v.kX~ @XA.f.H | .. .9 e { ",
"w ,.,.#.#.Z #.%.uXg.@XL.k.U.r.u.[.PXFX).|.2X1X,X>X,X<XrXrX-X`.^.XX%Xs.s.0.BXz.T 2Xd.h.pXxXjXpXpXlXx ",
"Z 3.2.5.#.5 _ ( ] ] '.P.` ~ b.q.(.0XI.(.).,XPXOX|.;X;X{.`.`.'.'.C..X.Xi.f.H.R y.@Xh.n iX4.-.=.=.=., ",
"Z 2.Z ( L ; x 4.uX~ v.OX~ ` !.b.i.&XFX.XB.[.:XyXFXqX X'.[.B.B.&X/.&Xs.e.AX' I y.P.e.f.;.;.-.=.) ) j ",
"K 2.2.1.^ ; 5 H sXk.R R R ` x.FXb.i.GXGXn.m.B.'.0XwXLXJXLXqX7X&X&Xs.r.!.sXU P I Y d e.;.;.=.&.*.*.h ",
"F 1.1.%.) 5 4 x ' E U I I I E x.!.b.a.%XV.p..XB.)._.*X0X0X=X&XC.r.e.Y.dXE P P I P I n j.:.*.&.*.:.k ",
"Z -.;.=.! 6  .; V V pXuXhXxXR U k.FXP.b.C.s.p.V.n.V.B.M.V.M.i.0.b.HXH.U I z._ iXiXuXdXnXl.Q G D k h ",
"M _ &.=.A 0 | cXuXz.c.c.z.sXR P R l.MX$Xj.r.9.i.M.i.i.u.u.0.f.$XBXz.R P U xXuXl.h.g.k.g.c + o o o = ",
"; @ , q O...O.VXuXd.0X#Xp.c.I u Y T R c.BX5X2X*X(.P.S.'.9XQ.AXQ R R Y P P xXk._.%X/.f.T ] *.Q G k % ",
"w 4.4.-.L w xXfXk.#X8XyXOXg.Y t P Y P d P g.9XKXBXBXBX~.PXOXR P d n P u s Z.a.wX6X7Xd.T W D v x k o ",
"L jX-.@.G 5 aXfXk.#X8X8X@Xg.a t y a F.NXMX4XyXJXIXIXIXIXyXtX7X!.nXP t u u z.a.wX9X3Xd.n n v z h f o ",
"C =./ ! S , iXz.R d.#X#XP.T a y P u VXSXCXFX$XeXeXyXeXqX0X%X$XMXT.k.u d u k.f..X2X+Xf.f.p k h h = - ",
"o h < k 1 C ;.R I P T T a Y p P k.u k.F.F.dXVXNXFXSXFXBXBXmXH.Z.k.p a R y R P Y f.n d n h - O g 2 ..",
"3  .O.e | e F.U d a a a p a u u y t d d u P I u I U Y s P d a y y p t t t d a a p p p e.O.| 7 9 | { ",
"q #.7.#.e 8 *.) V ] W W = ] nXH.P N s u t a d t u s u t u y y t y d N Q F N N v z o Q ;.#.o.@.@.H 1 ",
"F cX1.) M % > j z B b g O H ` U Q V B V N @ N E U U I N j N U F Q G G F S B z z h X =._ #.H G G V O ",
"M iX^ L B 6 : 2 x D b 2 1 Z ( S V B v j h X M ;.' _ ] Q ; < F F S G x x x z j h f o $./ Q G B x z O ",
", S F G H ) D q +.o.G.+. .1 C B v x h h t o 1 ;.&.@.] Q % 1 M S V z h j l h h k = - G S V B z z k O ",
"M M S G ! D v v z o.K.D.A S &.x z j h f f * x ;.*.*.*.D - C D l h h > > h h h g < A Q B x v z j k = ",
"- M   *.D b v c g +.K.+.o.b > k h h h = l * D &.*.*.! k 2 B b x h @ = = f = g k +.o.k x k z k h c = ",
"[ 4 7 > k D b b o. ...O.+.9 $ * o X o o % 2 H b z z k b  .: X X X X o = * [ [  .o.o.: * o * * * * 2 "
};
