/* XPM */
static char *out[] = {
/* columns rows colors chars-per-pixel */
"50 50 253 2 ",
"   c #193819",
".  c #223B1B",
"X  c #132E27",
"o  c #193827",
"O  c #183B37",
"+  c #253C29",
"@  c #253D32",
"#  c #2F580F",
"$  c #254618",
"%  c #314F1A",
"&  c #365719",
"*  c #1E4427",
"=  c #1A453A",
"-  c #294728",
";  c #344828",
":  c #375629",
">  c #294639",
",  c #374A37",
"<  c #29563A",
"1  c #3A5639",
"2  c #3B6428",
"3  c #496C19",
"4  c #4F751A",
"5  c #465632",
"6  c #475839",
"7  c #486A26",
"8  c #546D29",
"9  c #4A7525",
"0  c #567729",
"q  c #4B6636",
"w  c #556839",
"e  c #597638",
"r  c #2F2A4C",
"t  c #332D56",
"y  c #39345A",
"u  c #142A7F",
"i  c #2E3467",
"p  c #3B3966",
"a  c #403C5F",
"s  c #423D67",
"d  c #1B4943",
"f  c #1A5445",
"g  c #284A45",
"h  c #2C4B45",
"j  c #334C45",
"k  c #2D5446",
"l  c #355346",
"z  c #35534A",
"x  c #3A584A",
"c  c #2C5453",
"v  c #3C5853",
"b  c #386853",
"n  c #3D4972",
"m  c #455A46",
"M  c #4A4D51",
"N  c #435D51",
"B  c #485C57",
"V  c #49654A",
"C  c #56664A",
"Z  c #4E774C",
"A  c #4A6556",
"S  c #566855",
"D  c #556C5B",
"F  c #5B6C5B",
"G  c #597559",
"H  c #67764A",
"J  c #676F57",
"K  c #62735D",
"L  c #6A765C",
"P  c #49486A",
"I  c #4D516C",
"U  c #58566B",
"Y  c #464B76",
"T  c #49557A",
"R  c #585978",
"E  c #60587F",
"W  c #536E63",
"Q  c #4A726D",
"!  c #5C7464",
"~  c #5C647D",
"^  c #6A6F69",
"/  c #637563",
"(  c #6A7A64",
")  c #687A69",
"_  c #747B68",
"`  c #676879",
"'  c #687976",
"]  c #75777B",
"[  c #5A8B17",
"{  c #649018",
"}  c #71A01B",
"|  c #5D8424",
" . c #598735",
".. c #678C2D",
"X. c #568453",
"o. c #6D8B4E",
"O. c #5B8D74",
"+. c #6B836A",
"@. c #788567",
"#. c #73826C",
"$. c #7A856C",
"%. c #678072",
"&. c #6C8373",
"*. c #738574",
"=. c #768877",
"-. c #7B8A73",
";. c #7D8D7B",
":. c #6E9874",
">. c #7B917A",
",. c #848B6A",
"<. c #8D9669",
"1. c #838C74",
"2. c #888B76",
"3. c #958D77",
"4. c #88937A",
"5. c #97957C",
"6. c #A3967C",
"7. c #99A27E",
"8. c #182986",
"9. c #1B358D",
"0. c #223A8B",
"q. c #31518E",
"w. c #254897",
"e. c #295B99",
"r. c #366599",
"t. c #387193",
"y. c #1D4BAB",
"u. c #1A5CA9",
"i. c #274BA7",
"p. c #3058AB",
"a. c #2858B8",
"s. c #316FAF",
"d. c #3766B5",
"f. c #465B86",
"g. c #4D5C88",
"h. c #566889",
"j. c #4C6D91",
"k. c #587797",
"l. c #666B85",
"z. c #67758A",
"x. c #757985",
"c. c #73778C",
"v. c #6A7A94",
"b. c #4579A5",
"n. c #4970B1",
"m. c #4477B9",
"M. c #1D71CE",
"N. c #2869C6",
"B. c #2977CA",
"V. c #3076C8",
"C. c #447BC7",
"Z. c #817F8D",
"A. c #399FA0",
"S. c #3383B7",
"D. c #4E938F",
"F. c #5C869A",
"G. c #798789",
"H. c #6D8E94",
"J. c #788A98",
"K. c #7C9398",
"L. c #54A196",
"P. c #7FAA8E",
"I. c #5988A8",
"U. c #4998B9",
"Y. c #5493B0",
"T. c #6992AC",
"R. c #689AA9",
"E. c #7996A7",
"W. c #5BA6B7",
"Q. c #53ADB4",
"!. c #72B1AF",
"~. c #66A4BB",
"^. c #74AAB8",
"/. c #75C196",
"(. c #74C5B6",
"). c #1B8AD7",
"_. c #348CD0",
"`. c #2A93DB",
"'. c #1BA1DD",
"]. c #30A6DA",
"[. c #1997E1",
"{. c #1BABE4",
"}. c #27A7E4",
"|. c #35ABE5",
" X c #2AB5E5",
".X c #4D91CF",
"XX c #629AD0",
"oX c #4FAFD0",
"OX c #49A9DA",
"+X c #55B7D9",
"@X c #6BB2CD",
"#X c #4D9AE0",
"$X c #50A7E3",
"%X c #4AB8E3",
"&X c #58B8E7",
"*X c #6FBBE6",
"=X c #34CAD5",
"-X c #2BC9EB",
";X c #30D1EA",
":X c #36D7EB",
">X c #36E3F0",
",X c #52C9D1",
"<X c #59C9D7",
"1X c #5BD5DD",
"2X c #67C9D8",
"3X c #75CCD0",
"4X c #67D5D9",
"5X c #4ACBE9",
"6X c #5BC7E6",
"7X c #47D8ED",
"8X c #59D8E5",
"9X c #6FCCE9",
"0X c #68D9E7",
"qX c #76D7E5",
"wX c #46E5EF",
"eX c #56E4EE",
"rX c #58E5F1",
"tX c #71E7EF",
"yX c #868A86",
"uX c #8A9684",
"iX c #939B85",
"pX c #979C88",
"aX c #858B93",
"sX c #938D93",
"dX c #899898",
"fX c #959998",
"gX c #A59B83",
"hX c #A79E95",
"jX c #99A48C",
"kX c #8CA19D",
"lX c #9CA695",
"zX c #A9A58B",
"xX c #A5A998",
"cX c #B2AA94",
"vX c #ACB49C",
"bX c #B4B49A",
"nX c #889CA5",
"mX c #88A5A8",
"MX c #95A7A6",
"NX c #8BB2B3",
"BX c #A7ABA3",
"VX c #A7B5A9",
"CX c #B7BAA4",
"ZX c #C5BBA1",
"AX c #8CC3BC",
"SX c #B2C3B2",
"DX c #C8C6AC",
"FX c #8ABAC7",
"GX c #8BCBCD",
"HX c #A2C7C2",
"JX c #89D4E8",
"KX c #92ECED",
"LX c #A6F3F5",
/* pixels */
"& 5 w w 5 + + . < $ . ; ; . + + + . % . : } [ # [ } { # $ $   : 1 5 - + ; , , - & $ $   # $   o   3 ",
"H zX6.6.gXgXgXM x 6 cXgX3.2.2.$.$.+ 5 6.5.4 e @.o.{ 7 jXF & L zX3.5.( C pX1.$._ _ + & @.+.*.! D < $ ",
"L zXzXzXzXcXzXm 3 H gX6.6.3.3.2.,.@ 6 zX5.@.4.1.@.K K 4.-.- _ 5.,.o.4.@.2.$.$.*.F - :.Z C +.D N l o ",
"L zXcXbXvXxXzXS 8 H cXcX6.3.3.2._ , m zX5.-.$.@._ S V -.+.. V J @.1.1.$.( _ _ ) S @ O.-.>.! A v > o ",
"w @.vXCXvXvXjXC 4 8 J _ J J C 6 , + C 4.5.1.1 L +.( L ) 1 $ - *.4.$.$.$.K S / ! B @ X.+.) G A > = x ",
"C 5.vXvXvXxXlXS 3 ..w 6 6 m 6 6 5 8 m 2.4.,.C 4.1.-.-.*.#., C 4.$.$._ ) F ( ( #., % ..Z v l z > k X.",
"6 cXxXvXlXlXjXm 5 DXDXZXZXZXDXCX_ 0 ..,.,.#.-.4.4.>.uX;.*.> A _ ( ( ) G -.) F F A . ..<.G V V X. .o.",
"6 ^ _ -.) C m > 5 DXCXCXCXCXCXvXJ 5 C _ $.( jXbXnX~.Y.VXBXB h ) / / D ( L F F S N o 8 @.o.H e 8 } } ",
"3 & ; ; . ; 8 3 8 cXZXbXCXCXVXvXF 7 C 4.jXuXfXxX~.!.!.W.lX' uX&.x k - 6 j , h > > O 1.CXiXiX1.S +.0 ",
"4 <.6.<.3.3.6.,.<.ZXCXZXCXCXBXxX/ <.jXvX!.R.` kXW.@X@X@XJ.j.R.kXaXA ;.> X + _ yXkXsXbXBXpXiXuX;.:.> ",
"w ZXgX6.6.3.6.DXbXfXT.I.dXxXx.lXlXlX!.,X4X4XT dXW.+XW.R.R W.4X4XW.nXlXlXsXcXMXI.b.v.sXJ.dXiXuX*.G > ",
"w cXgX6.3.gX3.DXCXXX<X9XoXdXl.G.NXQ.qXGXNXMXl.c.J.I.T.v.n dXNX!.3X3X!.dX] ZXI.9X<X<XF.c.dXuX4.=.=.O ",
"6 gX3.3.3.3.2.cXnXOX2X9XqXnX` ~ 2X4XAXlXnXr.e.q.S.s.s.s.e.t.F.mXmX!.2XH.x.CXU.9X<X5XI.z.G.>.G.-.&.> ",
", hX3.3.3.,.2.CXlXXX<X2X+XnXT h.mXK.nXb.p.0.i.m.s.i.p.d.u u w.s.F.z.dXdX] xXI.2X6X9XT.h.I j x > l - ",
"; ^ 3.3.2.2.^ hXaXJ.@X@XnXv.q.G.MXk.q.e.C.#X*XJXJX9X.Xd.XX.Xr.8.e.r.nXsX` sXaXI.~.T.z.j.Q 6 5 : : : ",
"% ; , M 6 , 5 ` c.l.l.` h.g.P z.k.e.a..X.X#X&X&X9XKXXX*XV.*XXX9.8.w.b.J.x.E l.R E g.g.j.G.2._ #.( - ",
"3 0 w w w w 8 e j y t r y p c.v.s.C.XXy.y.N.N._.$XOX3X*X%XV.s.w.C.p.w.b.aX` y y r t i ' _ ^ C J F > ",
"4 zXcXgXgXpX5.& J ` P U ] dXJ.p.m.JXFXN.V.M.M.).oX_.&XJX<X`.a.i.d..Xd.q.F.aX=.~ y I n _ _ F C M N O ",
"H ZX6.gX5.4._ ; ^ Z.F.F.dXMXk.9.i.*XV..X].OX X X`.'.'.].b 4X`._.JXC.OXw.r.K.G.~ t.~ q.( K K ! S l X ",
"C zXpXiXiXuX&.; iXBXU.3XaXj.w.8.9.d.V.`.5X0XLXKXKX4X-X|.2XAX5X).OX.X$XC.9.Y.` b.<XK.F.' F ! S N k d ",
"C pXpXiXuX4.) 1 bXdX<X@XdXb.9.m.C.`.`.6X/.!.Q.6X8X0XKX:X{.mXrX].].s.&XOX9.q.kXv.4XI.v.B = d O O O = ",
"5 ( iXuX>.>.! : CXJ.4XmXaXp.0.d.#X`.tXGX%X X;XwXeX7X=XJX-XA.KX-X].B.6X&Xy.q.E.aX,XY.G.A .       $ & ",
"; 6 V S C D 1 w SXF.JXNXE.i.n.V.M.rXKX#X{.:XrX3XZ ) L.:X1X,XKX:X|.B.9X6Xu.8.^.aXoX@X` F.6 q H H e 0 ",
"3 4 4 8 0 Z o...cXY.3XmXT.a.FX.X`.8X*X[.;XwX!.Q.=X=XP.7X,XeXGX:X}.`.JX*XN.8.^.G.Y.2Xz.F.=.( 4.4.1.! ",
"q 5.@. .o...o.,.lXW.2XfXY.C.*X@X|.GX`.{.>X(.,X>XD.A.3X4XeXtX(.=X XoX3X$XV.8.^.c.Y.2Xv.D.uX) 1.4.;.F ",
"J jXjX-.e jXbXCXfX~.4XdXI.d.XX#X%X3X|.{.eX:.:X,XD.L.(.>XwXAX1X;X}.W.2X`.a.8.R.aXU.+Xz.j.*.4.;.*.&.S ",
"m -.-.q K jX7.4.aXY.1XdXI.w.d.M.|.OX[. X7X(.>X,XL.=X:X=X(.Q.>X;XOX3X%XV.a.8.NXc.Q.oXh.I.' >.=.&.&.x ",
", jX4.$.m < G vXaXI.1XJ.g.w.a.M.6XV.).{.eXAX>X:XD.< k D.3X>X:X XJX0X`.N.y.8.nXc.W.U.f.Y.%.*.&.%.) l ",
"@ N l , o C iX5.sXk.<XH.J.e.a.M.6XV.).{.wX3X;X>XwXwX,X:X>X>X=X(.tX|.B.a.d.w.NXl._.U.z.H.+.! G x z q ",
"7 % : 6 4 o.2.1.sXj.<Xz.aXn.y.N.6X_.M.[.;X0XQ.-XwXrXwXwXeXQ.(.eX XM..Xa.8.b.kXR oXU.g.X.0 .. .0 e { ",
"q ,.,.@.o.C _ ,.yXh.<Xj.l.I.w.y.&XoXM.).'.7XQ.A.>X>X>XrXtX7X;X}.M.N.V.a.0.NX' f.6Xt.j.iXxXjXiXiXlXV ",
"C 3.2.pX_ 5 _ ( 2.h.oXU.~ l.n.w.$XJXXXu.).{.:XA.A.-X X,X|.].`.).N.d.C.p.f.K.U t.%Xj.n uX4.-.=.#.&.> ",
"C 2.C L J ; m ;.] ~ b.oX~ ` ^.n.p.9XJXh.Q S.'.-X4XAXL.XXY.Y.B..XLXJXn.q.NX' I b.U.n f.4.>.-.+.+.' j ",
"J 2.2.1.( ; : / yXl.R R R ` c.~.n.C.JXJX@XO.M.[.-X5X1X3X!.GX^.JX*Xn.q.FXdXU P I Y p q.G.>.*.&.&.&.h ",
"S 1.1.$.) 1 9 x ` ` E U I U E ' XXb.n.9XGXF.u.B.#X}.}.|.|.#X#X_.i.q.E.dXR P P P P P n v.=.&.&.&.:.z ",
"C -.-.*.! 6 ..; W 2.sXpXBXhXI R l.FXI.m.@Xm.y.XX@XI.M.B.M.N.a.0.n.FXJ.R U ^ ] ] aXaXMXE.D.W W A k g ",
"B _ *.&.Z 0 | cXyXx.z.v.aXsXR s R v.mX@Xb.n.n.s.@XC.i.i.9.9.r.E.NXG.R P U xXaXz.l.l.l.h.B - @ o o = ",
"% @ , q o...o.VXc.s.*X+Xp.z.I y T T R v.NX@X+XoXS.s.S._.8X~.AXD U I Y P U fXz._.6XV.g.f.~ ) W A k & ",
"w uX4.1.L w xXhXz.+XrX4X$Xh.P t P P P s P h.rXKXGXAXAX(.tXY.I I s n P p s x.r.tXqX8Xr.f.I A N z g o ",
"( iX*.) D 1 pXsXh.6X8X8X%Xh.p r t p G.kXmX2XtX3XLXLXLXLXtXrX|.E.K.P t y a x.r.0XtX1Xs.n Q v v h g o ",
"V *.) ! B , uX] R m.oX+Xs.R p r P y vXVXSXFX@XJXqXtXqXqX9X2X@XnXE.~ t s y E Y .X8X.Xj.q.c h h g = * ",
"  h h < l V 1.E I P g.g.P Y i P l.a x.yX] MXVXMXNXHXFXNXMXnXK.aXl.p p R y R Y f.f.T s n y - O f 2 ..",
"3  .o.e | e G.I s p p p i p y t t r s s y P P y Y U R s I p y t t i r r r s p s p i i q.o.| 9 3 | { ",
"w @.7.$.e 9 %.) B ' ' Q d ^ nXE.P U y y t p s r y s y t y t t r t y U W S M B B c o K yX$.X.@.+.G 1 ",
"F xX1._ m % > h l x b f O D ' ~ U A B v M r a U U U U a r j W U W S S D B N x j g X *._ +.! D D A O ",
"m uX/ F V 6 : 2 x A b < 1 C ^ S B N x z k o 6 ;.] ] #.A - : K F A B x N x z j h d o #.) F D N x z O ",
", V F D G %.G 1 O.X.:.O. .1 B N N z h g g X 1 =.=.&.) W - 1 x A A x > l l h g f = - D A N N z z k O ",
"m m A D ! A v v k X.mXD.Z C &.x z h h g = = x =.&.%.%.A : 1 D l g r g > h g g k < Z W m v v z j g = ",
"- N   %.A b v c k O.P.O.X.b = k k d d > l * A &.&.&.! h 2 V b z > = = = d = f k O.X.k k k c k h c = ",
"[ 4 7 > c A b b X. .[ X.:.2 $   o o o o % 2 Z b c z z b  .: X X X o o = * [ [  .X.X.: * * * o * - 2 "
};
