/* XPM */
static char *out[] = {
/* columns rows colors chars-per-pixel */
"50 50 255 2 ",
"   c #193819",
".  c #223B1B",
"X  c #132E27",
"o  c #193827",
"O  c #183B37",
"+  c #253C29",
"@  c #263D33",
"#  c #2F580F",
"$  c #264618",
"%  c #324F1A",
"&  c #365719",
"*  c #1E4427",
"=  c #1A453A",
"-  c #2A4728",
";  c #344828",
":  c #375629",
">  c #284639",
",  c #374A36",
"<  c #29563A",
"1  c #3A5539",
"2  c #3B6428",
"3  c #496C19",
"4  c #4F751A",
"5  c #465632",
"6  c #475839",
"7  c #486926",
"8  c #546D29",
"9  c #4A7525",
"0  c #567729",
"q  c #4B6636",
"w  c #556839",
"e  c #587638",
"r  c #617A34",
"t  c #302A4C",
"y  c #332D56",
"u  c #39345A",
"i  c #2E3366",
"p  c #3A3865",
"a  c #433C5D",
"s  c #423D67",
"d  c #1B4943",
"f  c #1A5445",
"g  c #284A45",
"h  c #2C4B45",
"j  c #334D46",
"k  c #2D5446",
"l  c #355346",
"z  c #35534A",
"x  c #3A584A",
"c  c #355853",
"v  c #376551",
"b  c #3A4B73",
"n  c #455A47",
"m  c #4A4F50",
"M  c #435D52",
"N  c #485955",
"B  c #49654A",
"V  c #56664A",
"C  c #4D764C",
"Z  c #4A6556",
"A  c #566855",
"S  c #556C5B",
"D  c #5B6C5B",
"F  c #59745A",
"G  c #67764A",
"H  c #677056",
"J  c #62725D",
"K  c #6A765C",
"L  c #474769",
"P  c #4D506A",
"I  c #56556B",
"U  c #474B75",
"Y  c #49577B",
"T  c #585978",
"R  c #60597F",
"E  c #536E61",
"W  c #4E716D",
"Q  c #5C7464",
"!  c #5B657C",
"~  c #637563",
"^  c #6A7A64",
"/  c #687A69",
"(  c #747B68",
")  c #676879",
"_  c #6D7271",
"`  c #6A7877",
"'  c #5A8B17",
"]  c #649018",
"[  c #71A01B",
"{  c #5D8524",
"}  c #598735",
"|  c #678B2F",
" . c #568453",
".. c #6B8A4D",
"X. c #578B72",
"o. c #6A8369",
"O. c #788567",
"+. c #73826C",
"@. c #7A856C",
"#. c #6C8373",
"$. c #698678",
"%. c #778877",
"&. c #7B8A73",
"*. c #6C9677",
"=. c #7B917C",
"-. c #848B6A",
";. c #8D9568",
":. c #838C74",
">. c #888B76",
",. c #958D77",
"<. c #88927A",
"1. c #96957C",
"2. c #A3967C",
"3. c #99A27E",
"4. c #172D8A",
"5. c #1B348A",
"6. c #1B3898",
"7. c #22388C",
"8. c #233B93",
"9. c #1C4495",
"0. c #2E4D8D",
"q. c #284695",
"w. c #2A5898",
"e. c #346D8A",
"r. c #376898",
"t. c #1D47A7",
"y. c #2953AB",
"u. c #2A54AD",
"i. c #1B6CBF",
"p. c #3470AF",
"a. c #495B85",
"s. c #4A5B8A",
"d. c #596888",
"f. c #4D6E92",
"g. c #597999",
"h. c #676A84",
"j. c #697589",
"k. c #757987",
"l. c #697993",
"z. c #717B91",
"x. c #4C70A7",
"c. c #4778A6",
"v. c #4575BD",
"b. c #1A5AC4",
"n. c #1A72CD",
"m. c #2569C5",
"M. c #2D75CC",
"N. c #3779CA",
"B. c #4579C5",
"V. c #817F8C",
"C. c #388AB8",
"Z. c #36A2A1",
"A. c #538B92",
"S. c #7A8388",
"D. c #748E93",
"F. c #788B98",
"G. c #5EA897",
"H. c #73B28F",
"J. c #4E8BAC",
"K. c #5A88A7",
"L. c #4998B9",
"P. c #5B9DB9",
"I. c #618BA7",
"U. c #6997AA",
"Y. c #6997AF",
"T. c #7B98A7",
"R. c #54ADB5",
"E. c #69A5B9",
"W. c #78A7B6",
"Q. c #71AFB0",
"!. c #7AC3A6",
"~. c #1B8DD9",
"^. c #3588C9",
"/. c #2689D6",
"(. c #398AD4",
"). c #2596DB",
"_. c #3392D0",
"`. c #2CA4DA",
"'. c #37B2D1",
"]. c #1C9DE2",
"[. c #3199E4",
"{. c #1DB2E6",
"}. c #36A7E4",
"|. c #2BB3E5",
" X c #5389CA",
".X c #4793D2",
"XX c #5598D5",
"oX c #619CD4",
"OX c #57A5C7",
"+X c #4FABD2",
"@X c #48B8D7",
"#X c #57B8D6",
"$X c #69B6C5",
"%X c #7AB8C4",
"&X c #6AA8D0",
"*X c #67B7D8",
"=X c #53B0E4",
"-X c #69B3E2",
";X c #3BC8D6",
":X c #1FD6F0",
">X c #2FD2EC",
",X c #38D8EC",
"<X c #39E4EF",
"1X c #4CCBD2",
"2X c #59C7D8",
"3X c #5CD4DE",
"4X c #72CBCE",
"5X c #69CAD8",
"6X c #67D3D9",
"7X c #59C7E6",
"8X c #49D2ED",
"9X c #49DAE8",
"0X c #55D7E8",
"qX c #66C8E7",
"wX c #75CAED",
"eX c #68DAE7",
"rX c #77D9E6",
"tX c #4CE5EF",
"yX c #77E3EB",
"uX c #6CE9F2",
"iX c #868988",
"pX c #889583",
"aX c #939B85",
"sX c #989C87",
"dX c #858B93",
"fX c #899797",
"gX c #959996",
"hX c #A59B83",
"jX c #AB9F92",
"kX c #98A48C",
"lX c #8BA59B",
"zX c #9CA694",
"xX c #A8A58A",
"cX c #A5A998",
"vX c #B2A994",
"bX c #ACB39B",
"nX c #B4B49B",
"mX c #899AA4",
"MX c #88A5A8",
"NX c #96A6A5",
"BX c #8CB5B1",
"VX c #A6AFA5",
"CX c #B6BAA2",
"ZX c #B9B9A6",
"AX c #C5BBA1",
"SX c #91C5BE",
"DX c #B3C3B2",
"FX c #C3C3AA",
"GX c #CECBAF",
"HX c #88BECB",
"JX c #89CBCE",
"KX c #A2C7C1",
"LX c #8BD1E6",
"PX c #8FECEF",
"IX c #A6F6F7",
/* pixels */
"& 5 w 6 5 + 5   > $ $ ; ; . + + + . $ % : [ ' # ' [ ] & $ $   : , 5 - + ; , , - % $ $   # $ o     3 ",
"G xX2.2.2.hXsXn l w vXhX>.>.>.@.@.+ 5 hX1.4 e O...] 7 kXF & K hX,.1.^ V sX:.@.@.( + & O.o.+.Q S k $ ",
"K xXxXvXxXvXhXN 3 G hXhX2.,.,.>.( 5 6 hX1.O.<.&.+.J H <.&.- O.,.-...<.@.:.@.&.+.D - *.C V o.A M l o ",
"K xXvXnXbXcXjXV 8 G vXjX2.,.,.,.( @ n xX1.:.@.@.+.A B &.o.. B J O.<.-.@.^ ( ( / E - X.&.=.~ Z M > * ",
"w O.nXnXbXbXkXV 4 8 H ( H H V n , + V >.1.:., J o.K K o.l $ ; %.<.@.@.+.J A ~ ~ N + ..o.Q F Z > d < ",
"V <.bXCXbXcXzXA 4 | w 6 6 6 6 q 5 w n :.<.-.G :.:.&.%.%.+.; B <.@.@.+./ D ^ / ( j % } S x l z > k  .",
"6 nXcXVXzXzXkXn 5 FXFXAXAXAXFXZXO.e | -.@.O.&.<.<.=.pXS.+.> A / ^ ^ / J &.^ D E M . ] ;.F B v  .} ..",
"5 / ( &./ B n , 5 FXZXZXZXZXCXbXV 5 V -.@.^ bXnXMXW.E.VXVXN j / ~ J D ^ ~ D A A Z o 8 -.O.G e 4 [ [ ",
"3 & ; ; . ; 3 3 8 AXnXZXZXZXVXbXF 7 V :.kXpXpXVXE.E.%XE.NX` kXD.x l > j j , j > > + >.ZXsXaX:.A o.0 ",
"3 ;.2.,.,.2.2.-.;.AXZXZXZXZXNXbXD ;.zXbXT.U.! fXP.R.$X$XdXf.U.lXgXn <.; + + J pXlXfXZXNXsXaXpX<.#.> ",
"r AX2.2.,.,.,.GXnXgXI.I.fXcXk.zXzXzXQ.2XeX6XY fXU.+XR.U.T R.6X6XR.T.kXzXiXxXNXK.J.g.fXF.fXaX<.%.Q > ",
"6 vXhX2.2.2.,.GXCXoX5XqX+XfX) S.MXR.yX!.SXNXh.l.D.K.U.F.b fXMX!.4X5XQ.fX) AXK.qX7XqXl.z.dXpX=.%.%.- ",
"6 hX,.,.,.,.>.jXgX@X5XqXrXmX) ! 2X6XDXlXmXr.w.0.C.p.p.p.0.r.A.MXMXQ.5XD._ VXL.rX2X0XJ.d.S.=.=.%.$.> ",
"5 jX,.,.,.>.>.ZXzXoX2X5X+XfXY f.BXD.MXr.w.5.4.4.y..X&Xv.9.4.9.p.K.j.D.fX) cXI.qX2XqXY.d.P j l > l - ",
"+ ( ,.,.>.>._ jXdXT.&X&XW.z.0.S.MXg.w.6.t.u.m.u.J.b.B.LXJXN.t.4.q.e.mXgX) gXV.I.Y.I.z.f.W 6 5 ; : 2 ",
"% ; , m 6 @ 5 ) h.h.h.) d.s.P j.I.w.6.y.m.M.M.M.(.m.m.XXLXLX[.m.4.7.x.dXV.a.d.h.T T a.x.D.>.( ( / + ",
"3 0 8 w w w 8 r a u y t u s j.l.w.t.N.N._.}.}.[.}.).M./.M.%X#X/.b.4.9.r.fX) u u t y i h.( ( V J S > ",
"8 xXnXxXhXhXpX& K _ P I ` pXT.y.u.m.=XrXeXyXPXyXuX0X>X|.}.J.U.8X[.i.6.q.K.fXS.! c P b / ( D m V N @ ",
"G AXhX1.aX,.( ; ( V.I.A.fXNXc.9..XqXPXLX$X'.'.`.`.+XH.tX}.'.v 2X[.b.u.w.r.D.iX! r.) Y ~ ~ J Q S z X ",
"V xXsXaXpXpX( : aXVXL.5XfXd.w.p.7XqXXXn.).{.>X,X,X>X<X4XtX@XOXX.}./.HX&X9.J.h.f.3XF.A.) A ~ Z x k d ",
"w hXsXpXpX=.~ 1 vXmX#XQ.NXx.y.=X=XM./.).|.,X9X1X9X<X<X<XuX>X{.U.>X).&XOX5.0.gXl.3XI.I.Z @ > O O O d ",
"6 K sXpX<.=.Q , FXF.yXW.mXr. X.X.X/.).>XtXG.*.!.H.bXyX<XtX<X>X4X,X].m.t.v.q.T.dX#XJ.S.W $ X     $ & ",
"; n Z A V F j e FXA.rXMXmXq. XoX-Xn.`.uXPXJX<XtX<X1XBXSX<XtX>XQ.,X].i.t.g.8.W.dXR.$Xj.g.q 5 G G V 0 ",
"3 4 4 9 0 C ..| cXK.rXNXU.8. XB.XX/.9XJXQ.<XeX<XZ.1XtXlXtXtX:X$X<X~.0.Y.LXw.E.dXR.#Xl.g.%.^ <.1.:.F ",
"8 1.O.| ..| ..| zXY.6XMXI.5.u.y.p.|.yXQ.>X6X>XG.G.*.,XH.9X<X;X!.,X~.e.OXLXq.W.mXP.5Xl.g.pX/ &.<.&.F ",
"H aXkX-.w kXbXcXgXP.6XfXK.5.8.u.m.0XBX@X>XrX;X$.<XX.!.H.<X,XR.9X|.).A.JXwX8.Y.dXJ.2Xj.c.dX<.=.%.%.C ",
"n &.=.n F zXkX<.fXI.3XT.Y.5.oX-X/.eXJX`.'.eX9X$.;X;XZ.<X<X;XR.tX{.M.MXLX-X7.BXV.P.1Xj.J.$.<.%.#.` x ",
", sX<.&.B > G zXdXK.3XF.d.8.XXXX=XQ.7X~.'.yX>X4X .1X:X:XZ.JXuX>X{.n.B.-X-X4.W.k.P.L.Y J.$.$.#.o./ l ",
"> n l > o V aX,.gXf.6XD.F.r.v. X7XQ.=X).;XyX|.tXeXR.G.A.R.<X>X].~.n.XXwXB.7.BXj.C.R.d.D.o.Q S v l q ",
": % : 6 4 ..>.:.gXf.2Xj.dXc.u.B.-XBX=X`.].PXyX|.,X,X<X<X,X{.].~.n.=XwX}.6.c.NX! @XC.f. .{ | 0 e 0 ] ",
"8 ;.-.-.O.V +.@.iXd.2Xf.h.I.t.u.-XIX#X.X~.8XLXR.|.{.{.{.].`.~.^.-XqX[.t.7.%Xk.Y 2Xc.f.fXcXkXaXaXVXx ",
"N ,.-.1.O.5 ( ^ %.d.OXL.T h.f.8.oXPXXX(.M.).8XR.Q.$X#X.X_..X$XR.}.M.b.6.s.D.T w.1Xs.U iX<.&.%.+.%.> ",
"V >.V K J ; n <.k.! c.+X! ) W.x.u.LXwXXXn.n.[.=X8XLXIXuX8X8X=X/.b.N.6.q.KX` P r.L.U e.&.:.%.#./ / j ",
"H ,.>.:.~ : : ~ dXh.T ! T ) z.E.x.v.-X=XN.b.m.(././.[.[.[.M.XXOX.Xu.8.HXfXI L U U b 0.S.&.%.$.#.$.h ",
"D @.:.&./ 1 4 v _ ) I I I I R ) W.x.B.=XB.b.u.N.N.N.(..XN.N.JX-XB.0.Y.dXT L L L L L b j.%.$.#.#.%.k ",
"V &.%.%.Q 6 r ; N _ cXgXzXsXP T ) HXv.p.B.N.HXLX&Xt.u. Xu.B.oXu.x.HXF.I P _ ( S.iXfXNXmXj.E S Z l f ",
"n ( $.#.C 0 { vXiXk.l.l.z.dXR s T j.W.%Xx.q.v.-X X4.5.x.5.8.w.W.BXS.T L I cXiXj.d.h.h.d.c > - o o = ",
"% > , q ..| G nXS.p.qX*Xw.z.L s Y Y T ` BX4X#X@X^.p.p.`.7XE.KXE I U U L P jXj.(.qX^.a.a.` Q E Z k & ",
"w 1.<.&.K w cXzXj.#XeX3X_.d.L y L U L s P d.0XLXJXSXSX!.PXOXY L L b s p a k.r.eXPX0Xp.U Y Z c c g o ",
"~ sX%./ D 1 sXgXh.=XtX0X+Xd.s t y p k.NXMX5XuXPXIXIXIXPXuXtX'.T.fXL y u u k.p.6XuX0Xp.a.c x z j > O ",
"B %.o.Q Z , iXk.T p.#X#Xp.Y p t L u VXDXDXW.%XrXrXyXeXLXwX*X%XMXT.d.y s y h.Y ^.7X+Xs.a.i h h g = - ",
"o k > g 1 B %.R I U a.a.L U p L h.u h.dX` NXVXNXBXKXHXBXBXmXT.z.) p p T u h.s a.a.a.s 0.g - O f 2 | ",
"3 } ..0 { e pXL p p p p p i i u u t s s a L I u U I U s P s p y i y t t t s p s i i i b ..{ 9 9 ' ] ",
"q O.3.&.e 8 #./ N ` ` W = _ mXT.L m u u y u s t u s u t y y y t y p I D m m N N j X D iX+...o.o.F 1 ",
"A cX>.( B ; > < l Z v = O D ) ) I Z N N m u m I I R I a t m E A S Z D S M M x j g X %.( / Q S Z N O ",
"n pX^ D n 1 2 : v v v v 1 C / Z N M x z > X n &.%._ ( A ; : D A A N l M x z j h = o #./ D S M x c O ",
", B D S Q / S q X. .*.X.} 1 N M M z h g g o l &.%.$./ W - 1 x Z N c j l z l g f = - A Z M N x z k O ",
"n n Z S Q Z x z k  .lXA.C V #.x z h h g = O l %.#./ #.Z - n C l h g @ > g g g k < C S M M c z j g = ",
"- M o o.Z Z c c f X.H.X. .v = k g g g = l * Z $./ #.Q k 2 v Z z g @ = = d = f k X. .v k k z k g c = ",
"4 4 3 < c v v v  .} | ..*.2 $   o o X * % 2 C v c x z v } : X X X X o = * ' ' }  . .: * * o o * * 2 "
};
