/* XPM */
static char *out[] = {
/* columns rows colors chars-per-pixel */
"50 50 255 2 ",
"   c #193819",
".  c #223B1B",
"X  c #132E27",
"o  c #193827",
"O  c #183B37",
"+  c #253C29",
"@  c #263D33",
"#  c #2F580F",
"$  c #264618",
"%  c #324F1A",
"&  c #365719",
"*  c #1E4427",
"=  c #1A453A",
"-  c #2A4728",
";  c #344828",
":  c #375629",
">  c #28463A",
",  c #374A36",
"<  c #29563A",
"1  c #3A5539",
"2  c #3B6428",
"3  c #496C19",
"4  c #4F751A",
"5  c #465632",
"6  c #475839",
"7  c #486926",
"8  c #546D29",
"9  c #4A7525",
"0  c #567729",
"q  c #4A6736",
"w  c #556839",
"e  c #587638",
"r  c #627B35",
"t  c #302A4C",
"y  c #332D56",
"u  c #39335A",
"i  c #2E3365",
"p  c #3A3866",
"a  c #433D5C",
"s  c #433D66",
"d  c #1B4943",
"f  c #1A5445",
"g  c #284A45",
"h  c #2C4B45",
"j  c #324D44",
"k  c #2D5445",
"l  c #355346",
"z  c #35534A",
"x  c #3A584A",
"c  c #2E5352",
"v  c #3B5A53",
"b  c #376551",
"n  c #3A4B73",
"m  c #455A47",
"M  c #4D5153",
"N  c #435D51",
"B  c #485954",
"V  c #49654A",
"C  c #56664A",
"Z  c #4D764C",
"A  c #4A6556",
"S  c #566855",
"D  c #556C5B",
"F  c #5B6C5B",
"G  c #59745A",
"H  c #67764A",
"J  c #677056",
"K  c #62725D",
"L  c #6A765C",
"P  c #474669",
"I  c #4E506A",
"U  c #57556B",
"Y  c #474B75",
"T  c #49557A",
"R  c #585977",
"E  c #546D61",
"W  c #4C706B",
"Q  c #5D7564",
"!  c #5C647B",
"~  c #637563",
"^  c #667967",
"/  c #6A7A64",
"(  c #6B7C6B",
")  c #747B68",
"_  c #67687A",
"`  c #6F7275",
"'  c #697776",
"]  c #5A8B17",
"[  c #649018",
"{  c #71A01B",
"}  c #5D8524",
"|  c #598735",
" . c #678B2F",
".. c #568453",
"X. c #6B8A4D",
"o. c #588A75",
"O. c #6A8369",
"+. c #788567",
"@. c #73816C",
"#. c #7A856C",
"$. c #678072",
"%. c #6C8373",
"&. c #738574",
"*. c #758877",
"=. c #7B8A73",
"-. c #7D8C7A",
";. c #6E9874",
":. c #7C917B",
">. c #848B6B",
",. c #8D9568",
"<. c #838C74",
"1. c #888A76",
"2. c #958D77",
"3. c #88927A",
"4. c #96957B",
"5. c #A3967C",
"6. c #99A27E",
"7. c #1B318B",
"8. c #1A3897",
"9. c #21388F",
"0. c #1D4591",
"q. c #314E8D",
"w. c #254698",
"e. c #285897",
"r. c #346B95",
"t. c #366799",
"y. c #1C4EB4",
"u. c #2D51A9",
"i. c #2858B5",
"p. c #3765A8",
"a. c #3874AB",
"s. c #2B6DB1",
"d. c #3666B7",
"f. c #495D86",
"g. c #4A5B8A",
"h. c #596888",
"j. c #4C6E92",
"k. c #597998",
"l. c #676A84",
"z. c #67758A",
"x. c #757987",
"c. c #697A94",
"v. c #717C92",
"b. c #4778A7",
"n. c #4973AF",
"m. c #295FC3",
"M. c #1874CB",
"N. c #2667C5",
"B. c #2677CA",
"V. c #2F78CC",
"C. c #477AC5",
"Z. c #817F86",
"A. c #3586B8",
"S. c #3AA7A5",
"D. c #538C93",
"F. c #788388",
"G. c #778B98",
"H. c #729090",
"J. c #4FA397",
"K. c #73AE8A",
"L. c #5B88A6",
"P. c #4F92B1",
"I. c #658EA9",
"U. c #6B93AB",
"Y. c #7A98A7",
"T. c #5AA5B7",
"R. c #52B0B6",
"E. c #66A3AC",
"W. c #6AA5B8",
"Q. c #7AA8B5",
"!. c #70B5B4",
"~. c #7AC6AA",
"^. c #1D86D5",
"/. c #1B96D9",
"(. c #2786D7",
"). c #338DD0",
"_. c #3B97D5",
"`. c #34AFD4",
"'. c #1B9FE0",
"]. c #2C97E2",
"[. c #29A9E3",
"{. c #27B8E7",
"}. c #37B7E5",
"|. c #4A87C8",
" X c #4A92CF",
".X c #5A98D4",
"XX c #5A9AD8",
"oX c #4BA7C7",
"OX c #4EADD1",
"+X c #54A5D9",
"@X c #47B7D6",
"#X c #55B8D9",
"$X c #6EAFCD",
"%X c #67B5C6",
"&X c #76BAC7",
"*X c #55B4E7",
"=X c #6DB7E5",
"-X c #30C9D4",
";X c #29C9EB",
":X c #32D4ED",
">X c #37D8EA",
",X c #35E2EE",
"<X c #53C8CB",
"1X c #59C6D8",
"2X c #5AD4DB",
"3X c #6EC7C7",
"4X c #68C8D8",
"5X c #67D6DA",
"6X c #75D6D9",
"7X c #44C6E9",
"8X c #57CAE7",
"9X c #49D9E9",
"0X c #56D4E5",
"qX c #6ECAE9",
"wX c #66D9EA",
"eX c #77D9E5",
"rX c #4FE6EE",
"tX c #59E7F2",
"yX c #6DE9EF",
"uX c #868A88",
"iX c #899684",
"pX c #939B84",
"aX c #989D88",
"sX c #868B93",
"dX c #889798",
"fX c #959796",
"gX c #A59B83",
"hX c #AA9E92",
"jX c #98A48C",
"kX c #8BA39C",
"lX c #9BA497",
"zX c #A8A58B",
"xX c #A5A998",
"cX c #B2A994",
"vX c #ACB39B",
"bX c #B4B49B",
"nX c #889BA6",
"mX c #88A7A7",
"MX c #96A6A6",
"NX c #8DB6B4",
"BX c #A6A9A2",
"VX c #A7B4A8",
"CX c #B7BAA4",
"ZX c #C5BBA1",
"AX c #95C5BC",
"SX c #B3C3B2",
"DX c #C3C3AA",
"FX c #CECBB0",
"GX c #82BAC6",
"HX c #8EBCCA",
"JX c #8CCED0",
"KX c #A7DFDD",
"LX c #8BCCE6",
"PX c #87D6EB",
"IX c #8EEFF0",
/* pixels */
"& 5 w w 5 + + . > $ . ; ; . . + + . % % : { ] # ] { [ # $ $   : 1 5 + . ; , , - % $ $   # $ o     3 ",
"H zX5.5.gXgXgXM x w cXgX1.1.1.1.) + 5 gX4.4 e +.X.[ 7 jXF & L zX2.4.) C aX<.#.&.) . : +.O.&.Q D < $ ",
"L zXzXzXzXcXgXC 3 H gXgX5.4.2.1.>.@ 5 hX4.+.3.<.#.K J 3.=.- ) 4.>.X.<.#.3.#.=.) F - ;.Z C ^ D N x o ",
"L zXcXbXvXxXaXS 8 H cXhX5.2.2.1.) , m aX4.=.#.@.@.S V =.O.+ q K +.3.>.#./ ) ) ( S - o.=.:.^ V N > * ",
"C +.bXbXvXvXjXC 4 8 J ) J J C m , + C 1.4.<., K O./ L O.1 $ - =.3.=.#.@.~ C ~ ~ B + X.O.G D A @ d k ",
"w 3.vXbXvXvXlXS 4  .w 6 6 6 6 q 5 8 m 1.3.>.H <.<.=.=.=.( , C uX#.) ) ( F / ( @.1 ;  .H v l l > k ..",
"6 bXxXVXlXlXjXm 5 FXFXZXZXZXDXCX) 0  .>.#.+.=.3.3.3.iXF.%., V ( / / / G =.^ ~ S A    .;.G V V ..| X.",
"6 ^ ) =./ C m > ; DXCXCXCXCXCXvXJ 5 C #.#./ vXbXnX&XW.VXVXB j ( ^ ~ G / K F S A N o 8 >.X.H Z 0 { { ",
"3 & ; ; . % 5 3 8 bXZXCXCXCXVXbXQ 7 C 3.pXiXuXVXW.W.GX%XBX` aXdXN k > , j j , h g + 1.CXaXpX<.S O.0 ",
"3 ,.5.2.2.5.5.5.,.ZXbXSXCXCXMXxXF ,.jXVXY.E.! dXT.T.%X%XG.j.E.kXfXS 3., + + ( uXkXfXBXBXaXpXiX3.%.> ",
"w ZX5.5.5.2.2.FXbXnXU.I.sXxXx.jXjXlX!.3XyX5XT dXL.R.R.W.R E.2X5XT.Y.pXjXZ.gXMXL.P.k.dXG.fXpXiX&.Q > ",
"6 ZX5.5.2.gX2.FXCX%X1X4XoXdXl.F.NXR.6X3XNXlXl.c.H.I.U.c.n dXMX!.6X5XE.dX` ZXL.qX8XqXk.v.sXiX-.=.&.- ",
"5 gX5.2.2.2.1.cXfX+X4XwX6XnX! ! %X6XAXlXY.t.e.q.A.a.a.a.e.r.L.mXmX!.4XH.` CXP.qXwX0XP.h.F.:.:.*.%.< ",
"5 hX2.2.1.Z.1.cXlX+X1X4XOXnX! j.!.H.nXb.e.8.w.d..X Xw.|.a.w.w.s.k.z.dXdX_ BXI.qX0XqXU.h.I l l > h - ",
"+ ) 2.1.1.1.J hXsXG.$X$XnXc.q.F.mXk.e.0.8.y.y.y.&X&Xd.y.$X=X|.9.w.r.nXdX_ sXZ.I.W.I.c.j.W m 5 ; : 2 ",
"& ; , 6 6 , M _ l.l.l.l.h.g.P z.L.p.w.i.B.].'.]._.+XN.i.NX6XPX=Xu.w.b.dXx.R h.R R h.g.g.F.<.) ) ^ + ",
"3 0 w w w w 8 r M u y t u s x.c.t.u. X*X8X2X8X7X}.{.'.M.E.NXJXPX=Xi.w.a.dX_ u y t y i _ ) ) M F S > ",
"4 zXcXgXaXgXpX& ~ _ I U ' dXG.t.u.=XGX&XJXMXdXo.E.tX;X{.^.A.b.LXPX*X8.w.L.sXF.! c U n ) ) F C C V O ",
"H ZXgXgXpX2.( ; ` Z.L.D.dXMXb.p.LXKX|.B.+XOX%X-X`.S.K.9X{./.V.B.V.=Xm.8.t.H.sX! D._ q.L J K Q S z X ",
"C zXaXpXpX3.@.; pXBXT.4XdXh.u..XV.B.B._.[.{.:X,X,X:X;XAXtX;X/.M.m.PX].y.8.P.l.j.7XG.k.` S Q D N h d ",
"C gXpXpX3.3.~ 1 cXnX%X3XMXj.u.d.i.B.].;X0X<X2XrXtXrX,X;X3X0X;X/.M.eX].m.9.q.nXc.1XL.H.W O @ O O O d ",
"5 / pXiXH.:.Q : DXG.eXQ.MXt.8.d. X(.9XJX0X9XrX,X,X,XrX,X3XIX;X'.M.%X].N.u.0.Y.sX@XE.v.E         $ & ",
"; m B F V D 1 w DXD.eXmXnXw.m.m.B.}.eX#X>X,XtXH.q o.<X>X>XKX;X[./.%X[.N..X7.Q.sXR.%Xz.k.q 6 H H H 0 ",
"3 4 4 4 } e +. .BXL.6XmXU.9.m.V.].wX=X:X,XwXK.R.-XS.K.>X,XAX:X{.(.%X}.|.=Xw.W.sXP.1Xc.k.-./ 3.3.=.G ",
"7 4.+. .X. .X. .lXE.4XnXU.w.m.V.@XKX`.>X,XkXrX-XJ.J.~.,X,X~.>X{.^.4X[.P.LXu.W.fXP.4Xk.k.iX( =.3.=.F ",
"K aXjX=.w jXbXjXfXT.2XdXL.8.y.).wXPX{.;X3XJXtX<XJ.J.R.,X!.5X>X'._.8X].d..Xw.U.nXP.1Xz.D.H.iX<.*.%.S ",
"m -.-.q K jXjXO.dXI.0XG.U.8.N._.eXqX{.;X~.<XyX-Xo.`.-X3XJX9X;X/.!.0X(.V.u.7.mXZ.T.#Xh.P.F.3.*.%.O.x ",
", aX3.#.V > J jXsXL.5XG.h.w.m.+XPX@X`.;XJX6X9X>XS.k f R.tX:X{.#XJX*X).V.9.7.Q.x.oXR.T P.$.*.%.( $.l ",
"- N l , o C pX3.fXj.2XG.G.e.i.+XeX).].{.yXJX;X3X7X-XrX>X:X[.4X~.8XV. Xd.g.7.NXx.P.R.j.F.@.G D v l q ",
"5 % : 6 4 X.1.1.fXh.2Xz.sXb.y._.wX_._./.tX~.{.:X6XwX0X0XqXK.~.8X(.).i.7.7.b.nX! OXA.j.Q } | | 0 0 [ ",
"q ,.>.+.X.C ) >.uXh.#XD.l.I.u.d.*X8XV.].}.6XD.'.;X`.6XIXIXwX7X`._.N..Xw.7.GXx.T 1Xa.j.dXxXjXpXpXMXm ",
"m 2.1.aX) 5 ) / F.h.oXP.R l.j.w.*X_.a._.^.9Xo.R.].'.'./.'./.(.N.N.HXLXd.g.F.E q.7Xg.T 1.3.=.=.%.&., ",
"C 3.C L F ; m 3.uXR b.oX! _ Q.b.u.*X XLXV.M.7XW 1X*X^.$XM.(.M.y.y.=XC.g.HX` I r.P.q.f.:.=.=.O.O.' l ",
"J 2.1.<.L : : ~ sXl.R R R ! v.W.n.C..XC.y.d.B.@X3X&X+X+X+X X XC.V.m.9.HXdXU I I Y s q.F.:.&.%.%.%.h ",
"F <.<.#.( 1 4 x ` U R U I U R ` W.n.d.C.w.d.XX|.#X+XPXeXqX=X*X+Xm.q.Y.sXR P P P P P n z.*.&.%.$.*.k ",
"C =.*.&.~ 6 | - B B aXfXhXfXI R ! HXP.w.7.p.=X.XC..X=XPXLX=XC.u.n.HXG.R I ` ) uXfXuXMXY.D.E E A z f ",
"m ) %.%.Z 0 } vXuXx.c.c.v.sXR s R z.mX&Xb.w.d.n.C.u.w.d.d.9.q.Q.AX` R Y U xXuXx.z.h.l.h.v - + o o = ",
"; @ , q X. .H CXZ.s.4X=Xp.z.I u T T R F.NXGX1X@X).A.A.oX1X$XAXD U R Y P P hXz.).qX).f.T h./ E A k & ",
"w 3.3.=.L w cXfXz.#XtX2X_.h.Y y P Y P a P h.wXPXAXKXAXKXIX XT P s n s u a x.j.tXIX8Xp.T T B N z k o ",
"L jX=.( D 1 aXfXl.*X9X2XOXh.s t y p x.MXmX4XyXPXIXKXIXIXyXtX7XY.nXP y u u x.p.wXtX2Xs.f.v v z c g o ",
"V *.( ~ A , uXx.R a.OX#XP.T p y P a VXSXVXGX&XeXqXyXeXeX6X4X$XmXY.h.y s u l.g.A.8X+Xg.g.i h h g = * ",
"o > g < 1 V =.R I Y T f.p Y p P l.u _ x.` MXVXMXHXSXHXNXMXnXG.sXl.p u R u R s g.f.T s n g - O f 2  .",
"3 | X.e } e iXI s p p i i p i y y t s s u s U u P U Y s Y s u y y i t t t s p p i p i q.X.} 9 9 } [ ",
"w +.6.#.e 7 $.( B ' ' W g ` nXG.P M u u y s s t u a y y y y y t y p U F M M B B h X F -.@.X.O.O.G 1 ",
"S xX<.) m ; > k x b b f O F _ R E B B B m u M U U R U M j M M U F A S D B N x z g X *.( / Q S D B O ",
"m iX/ F V 1 2 : x A b < : Z ^ S B B v z h X m -.` =.%.U - < F S S A x N x z j h d o ) ^ E D N z z O ",
", V F D G ^ D q o...;.o.| 1 N N N z j g g X 1 *.&.%.( E - 1 m A B v > z l k g k = - S D N B z z k O ",
"m N V D Q A v x k ..kXD.Z S %.x z h g g = O l :.%.$.' A : 1 D l h @ g > g g g f < Z D N v x z z k = ",
"> m o $.A b v c c o.K.o...b = < k g f > l * A %.$.$.Q < 2 A b z g @ O d d = f b o...k k k z k g c = ",
"4 ] 2 - b A b b ..| [ X.;.2 *   o X X * % 2 Z v v z c b | : X X X X * = o ] ] | ....: * o * * * * 2 "
};
