/* XPM */
static char *out[] = {
/* columns rows colors chars-per-pixel */
"50 50 253 2 ",
"   c #193819",
".  c #223B1B",
"X  c #132E27",
"o  c #1A3827",
"O  c #183B37",
"+  c #263D29",
"@  c #263D33",
"#  c #2F580F",
"$  c #264618",
"%  c #324F1A",
"&  c #365719",
"*  c #1E4427",
"=  c #1A453A",
"-  c #294728",
";  c #344928",
":  c #375629",
">  c #294639",
",  c #374A37",
"<  c #29563A",
"1  c #3A5538",
"2  c #3B6428",
"3  c #496C19",
"4  c #4F751A",
"5  c #465632",
"6  c #475839",
"7  c #486A27",
"8  c #546D29",
"9  c #4A7525",
"0  c #567729",
"q  c #4B6636",
"w  c #556839",
"e  c #587638",
"r  c #657D39",
"t  c #2F294E",
"y  c #322D56",
"u  c #3A335B",
"i  c #2F3467",
"p  c #393765",
"a  c #443B59",
"s  c #423D66",
"d  c #1B4943",
"f  c #1A5445",
"g  c #2A4A45",
"h  c #334C46",
"j  c #2D5446",
"k  c #355345",
"l  c #34534A",
"z  c #3A574B",
"x  c #2F4F57",
"c  c #3B5A53",
"v  c #386952",
"b  c #394D75",
"n  c #455A47",
"m  c #4D5253",
"M  c #435D51",
"N  c #4A5C56",
"B  c #49654A",
"V  c #56664A",
"C  c #4D764C",
"Z  c #4A6556",
"A  c #586957",
"S  c #556C5B",
"D  c #597659",
"F  c #67764A",
"G  c #677056",
"H  c #65745D",
"J  c #474769",
"K  c #4E506A",
"L  c #55556A",
"P  c #464B75",
"I  c #4A577B",
"U  c #575878",
"Y  c #4D6F6C",
"T  c #576C63",
"R  c #5C7465",
"E  c #5A637D",
"W  c #686C6F",
"Q  c #637563",
"!  c #6A7A64",
"~  c #687A68",
"^  c #747A68",
"/  c #65677B",
"(  c #687774",
")  c #73757C",
"_  c #5A8B17",
"`  c #649018",
"'  c #71A01B",
"]  c #5D8424",
"[  c #598735",
"{  c #678C2D",
"}  c #378C7D",
"|  c #568453",
" . c #6C8A4D",
".. c #558C73",
"X. c #6B836A",
"o. c #788567",
"O. c #73826C",
"+. c #7A856C",
"@. c #6C8373",
"#. c #6B8878",
"$. c #738573",
"%. c #7B8A74",
"&. c #788A78",
"*. c #739578",
"=. c #848B6B",
"-. c #8F9467",
";. c #838C74",
":. c #888A76",
">. c #958D77",
",. c #88937A",
"<. c #96957B",
"1. c #A3967C",
"2. c #97A37D",
"3. c #192C87",
"4. c #1A348C",
"5. c #1B3999",
"6. c #23398F",
"7. c #143BA5",
"8. c #1D4D9D",
"9. c #2F4C89",
"0. c #264895",
"q. c #2A5697",
"w. c #37579C",
"e. c #376892",
"r. c #1D48AD",
"t. c #2C51A7",
"y. c #275AB7",
"u. c #3666A7",
"i. c #2F6FB1",
"p. c #3A68B9",
"a. c #475B85",
"s. c #565C82",
"d. c #586888",
"f. c #4E6990",
"g. c #497898",
"h. c #597998",
"j. c #676B85",
"k. c #677589",
"l. c #757987",
"z. c #72758B",
"x. c #677994",
"c. c #467AA5",
"v. c #4971AD",
"b. c #4777B9",
"n. c #1E5CC5",
"m. c #1670CA",
"M. c #2868C5",
"N. c #2978CA",
"B. c #2979D0",
"V. c #467BC7",
"C. c #807F86",
"Z. c #39888D",
"A. c #3D8AB6",
"S. c #3AB4B5",
"D. c #548D8F",
"F. c #79858A",
"G. c #6E8E93",
"H. c #788A97",
"J. c #52A482",
"K. c #6FB196",
"L. c #5987A6",
"P. c #4899B9",
"I. c #5392B2",
"U. c #658CA6",
"Y. c #7896A6",
"T. c #6994B0",
"R. c #58A4B8",
"E. c #4DB6B5",
"W. c #67A6A9",
"Q. c #78B2AF",
"!. c #69A7B9",
"~. c #7AA8B5",
"^. c #70C3B6",
"/. c #1A89D6",
"(. c #1C9FDF",
"). c #358ACE",
"_. c #2989D8",
"`. c #2596DA",
"'. c #3597D8",
"]. c #32A9D3",
"[. c #2C99E1",
"{. c #1CA7E3",
"}. c #25ABE6",
"|. c #28BDE8",
" X c #37B3E8",
".X c #4E8FCD",
"XX c #4A9AD7",
"oX c #4CB0CB",
"OX c #4AA9D9",
"+X c #56A5DA",
"@X c #54B6D8",
"#X c #68B3D0",
"$X c #78BAD5",
"%X c #519AE1",
"&X c #4CB3E5",
"*X c #6FB9E6",
"=X c #27C8EA",
"-X c #35C9E8",
";X c #25D9E2",
":X c #27D4EC",
">X c #38D7EC",
",X c #35E4EF",
"<X c #56CDD3",
"1X c #59C6D8",
"2X c #71C9CE",
"3X c #68CBD8",
"4X c #65D6DA",
"5X c #75D8DC",
"6X c #4BCEE6",
"7X c #59D6E7",
"8X c #67CBE5",
"9X c #77C7E9",
"0X c #6AD9E8",
"qX c #78D9E4",
"wX c #52E7F0",
"eX c #73E9EF",
"rX c #878789",
"tX c #8A9483",
"yX c #889586",
"uX c #939B85",
"iX c #989D88",
"pX c #858A93",
"aX c #948F93",
"sX c #889798",
"dX c #959A98",
"fX c #A59B83",
"gX c #AB9E91",
"hX c #99A48C",
"jX c #9AA696",
"kX c #86B39B",
"lX c #A9A58B",
"zX c #A6AA98",
"xX c #B2AA94",
"cX c #ACB39B",
"vX c #B4B49B",
"bX c #859AA4",
"nX c #89A7A9",
"mX c #97A6A5",
"MX c #8BB4B4",
"NX c #A8B1A6",
"BX c #B5BAA2",
"VX c #B8B9A5",
"CX c #C5BBA1",
"ZX c #92C5BD",
"AX c #B3C3B2",
"SX c #C3C3AA",
"DX c #CFCBB0",
"FX c #89BAC5",
"GX c #8DD1D1",
"HX c #8AE2DC",
"JX c #8BD1E7",
"KX c #91F2F5",
"LX c #A5E0E2",
/* pixels */
"& 5 w 6 5 + , . > $ $ ; ; . + + ; . $ % : ' _ # _ ' ` # $ $   ; 5 5 @ . ; , , - % $ $   & $       3 ",
"F lX1.1.fXfXiXn z w xXfX:.:.:.+.^ + 5 fX<.4 e o. .` 7 hXD & F lX>.<.^ V iX;.+.+.~ + & o.X.$.R S j $ ",
"^ lXlXlXlXxXfXV 3 F fXfX1.>.>.:.+.@ 6 iX<.o.,.;.O.H H ,.%.; O.<.=. .,.o.;.%.+.$.H + *.C V X.T Z k o ",
"F lXxXvXcXxXdXV 8 F gXxX1.>.>.>.+.; n gX<.;.o.O.^ A B %.X.- n H o.;.;.o.! ^ ^ ~ A - ..%.&.D Z c > * ",
"w ^ cXBXcXcXhXV 4 8 G ^ G G V n , + V ,.<.;., H X.! H ! 1 $ - &.;.%.+.O.H A Q Q N +  .X.~ S Z @ = j ",
"V ,.cXBXcXzXjXA 3 { w 6 6 6 6 q 5 w 6 ;.,.%.F ;.;.%.%.$.~ , V ,.+.o.O.~ A ! ! O.h % [ C c l k > j | ",
"6 vXzXcXzXjXhXn 5 DXDXCXCXCXSXVX^ 0 r =.=.O.;.,.<.,.tXtX$.> N ^ ^ ~ ~ H %.! S S M . { -.D B B | [  .",
"5 ! ^ &.Q V n > ; SXVXVXVXVXBXcXF 5 V =.o.! hXVX~.~.#XNXNXT k ~ Q Q S ! Q A S A Z o 3 =. .G e 9 ' ' ",
"3 & ; ; . ; 3 3 8 vXVXVXVXBXNXcXH 7 V hXiXyXyXNX!.!.$XR.zX) iXhXv k > h , h h g j - :.VXiXtX;.A X.0 ",
"3 -.1.>.>.>.1.1.-.CXVXVXBXVXjXNXR 2.hXzXW.W./ bXR.!.W.#XH.g.W.Y.dXX.tX; + n :.tXdXaXNXjXiXuXyX,.#.> ",
"w CX1.1.1.>.>.DXxXbXT.I.sXzXz.hXhXjXW.<XqX4XI yXL.E.!.W.E W.4X0X!.Y.jXcXrXvXmXL.P.h.sXH.dXuXyX$.R > ",
"w xXfX1.1.1.>.DXVX#X1X3X+XsX/ F.nXoX5XGXMXmXk.k.G.T.T.x.b H.mXQ.2X4X!.H.) CXL.8X6X8Xx.x.pXtX;.&.#.- ",
"6 fX>.>.>.>.:.xXdXOX3X8XqXbXE E 2X2XZXjXY.e.q.9.A.i.i.i.9.i.A.Y.nX~.3XG.) NXI.0X7X6Xb.x.F.F.*.&.#.> ",
"5 gX>.>.:.:.C.xXdXP.3X#XoXbXI h.MXG.bXe.8.4.r.y.y.r.5.r.5.i 8.e.h.k.sXsX) NXU.8X0X8XY.d.N z l > k - ",
"+ ^ >.>.:.:.G gXpXH.#X#XH.x.a.l.mXh.q.q.p..XXX%X'.B.M.M.M.y.4.4.0.e.bXsX/ pXpXL.T.U.k.f.Y 6 5 ; : 2 ",
"% ; , m 6 , 6 j.j.j.j./ d.a.P k.L.t.u.XX&X&X8XqXJXqX&X_.B.M.u.y.u.0.c.pXl.U j.U U P s.v.F.;.^ O.! + ",
"3 8 8 w w w 8 r h u y y u a l.h.q.b.%X.XOXXX).OX8XQ.3X7X[.B..Xy..Xb.0.u.sX( u y t t y / ^ ^ m H S > ",
"8 lXvXlXfXfXtX& W ) K L ) dXH.w.0..XV.*X).oXOX`./.`.6X..0X&Xm.n.y.JXt.9.L.pXF.W x U b ^ ^ A V m M @ ",
"F CXfX<.uX<.^ ; ^ C.L.D.sXmXv.3.6.r.b.N._./.{.=X-X=X=X{.D.0X XB.M.LX*X5.e.G.F.E Z.E a.W H H R S k X ",
"V lXiXuXtXtXO.; iXNXR.2XsXf.0.V.V.i.y.'.6XwXeXHX<X6X>X>X|.JXwX(.).$X*Xy.5.I.k.g.1XH.L.Q A R S N g d ",
"w fXiXuXyX&.~ 1 VXsX@XQ.mXv.w.*X#XM. X4X^.K.K.HX^.K.HX,X:X6X3X}.OX.X9X).4.9.sXG.3XU.G.Y @ O O X O f ",
"6 H uXyXtX*.R : SXH.qXQ.mXw.b..X).&X2XMX2X|.=X;XwXeXHXZX,X,X5X-XoXD.3X_.7.9.Y.pX@XI.k.Y $       $ & ",
"; n Z A B S , e BXU.qXMXY.6.V.V.OXMX8X'.|.>XGX,X;X:X>X*.wXwXeX=XOXD.@X_.r.3.~.pXoX!.F.h.6 q F F F 8 ",
"3 4 4 3 ] e X.{ zXL.qXbXU.6.p.+XGX&X'.(.<XqX-XW.v } >X^.ZX,XwX-XP.D.-X[.r.4.!.H.R.@Xx.D.&.! ,.,.%.D ",
"8 <.o.[  .{  .[ dX!.1XdXI.6..XJXJXOX(.-XGX-XW.J.E.K.<X4XGX,XwX;X].E.&XB.y.4.~.pXI.3Xk.L.sX! ;.,.%.S ",
"H iXuX%.e lXvXzXdXW.3XsXL.0.*XKXXX).[.0X0X-XQ.W.S...<XK.5XwX,X>XZ.6X|.P..X4.T.pXP.<Xk.g.&.tX&.$.$.A ",
"n %.%.q R hXhX,.sXI.4XY.T.t.*X9X+XB./.eX0X>X0XW.;X} } Q.,X,X,X].Z.=X_.JXFX3.MXrXR.oXh.L.@.&.%.@.X.z ",
", hX,.%.n , D hXpXL.4XH.d.0.#X*X.X/.`.KX2X>XwXK.S.,X,X,X,X,XS...=X}.m..X.X3.~.z.I.oXb L.#.&.#.~ ~ l ",
"- n k , o V uX>.aXh.<XH.H.u.XX%XM.B./.7XQ.{.>X7XJ.} <XwX4X*.4X,X}.m.M.r.v.0.MXj..XP.h.#.O.D S v l q ",
"2 ; : q 4  .:.;.aXf.<Xk.rXc.V.%Xy.N.'.6XZX&X|.:XwXE.K.HX5XwX,X{.).ZXQ.I.b.c.mXE oXA.f.| ] [ e 0 0 ` ",
"q =.=.^ o.V o.+.:.d.1Xg.j.L.t..Xt.M.).[.8X2X[.{.|.-X:X=X=X|.{./.f.R.$X*Xw.FXk.I 1Xu.f.uXzXhXuXuXNX1 ",
"V <.=.<.o.5 ^ ! C.d.oXP.U j.c.t.V.T.M.).[.qXqX'.(.{.{.{.(./.m.I.kXJX9Xp.f.F.K e.1Xf.b yX,.%.&.O.$.g ",
"V :.V ! H ; n ,.l.E g.oXU / ~.b.V.JXJXM.). XeX$X#X_./././.m.m.B.JXJXV.0.MXW K e.P.P a.*.,.&.O.X.( k ",
"G :.:.;.Q ; : Q rXj.U U U / z.MXb..Xv.7..XB._.&X&X8X#X#X9X9X9X*X*XV.w.FXsXL K P P p 9.F.*.&.@.@.@.g ",
"A ;.;.^ ~ 5 9 Z ) U L K L K U k.T.v.6.3.v.V.B.B.XX'.`.'.%X&X%XV.t.w.T.sXW J J K J J b k.*.#.@.@.&.j ",
"V %.&.&.Q 6 [ , M N uXrXzXgXU L / FXI.4.w.5.M.FX$XXXM.M.n.n.7.3.v.FXH.L K ) ) uXpXrXsXY.D.T T c l f ",
"n ^ #.$.C 0 { xXrXl.h.x.z.C.U s U k.MX$Xb.0.p.+X+X+X.X8.5.4.a.FXMXl.L P L gXrXk.d.d.j.d.c + + o o * ",
"% @ , q  .] { NXC.i.3X*Xu.x.P p P I U z.MXFX1X&X'.P.A.].1X#XGXT U K P J L dXj.'.3X).s.I / ~ T S j % ",
"w tX,.%.! w zXdXk.@X<X4X.Xd.J y P J J J J d.0XHXMXMXZXZXeXP.U J s J J p a C.u.0XqX6Xu.I I Z c l j O ",
"! iX$.^ A 6 iXaXd.@XwX6X6Xd.s t y u F.mXnX3XeX5XKXLXKXKXeXwX6XY.bXJ y u u z.u.0XwX4Xi.9.c M l g g X ",
"B $.~ R Z , tXl.U v.@X@Xc.s.i t J a NXAXAXMX$X2XqXeX0XqX8X$X$XnXbXs.u s u j.a..X8X+Xs.P x g g g = - ",
"o j > g 1 B :.U J P a.a.P J i J j.u j.l.F.sXNXmXFXAXFXmXmXmXx.C.s.i s P y U s a.a.P s 9.x @ O f 2 { ",
"3 [  .[ ] e F.L s p p p i p u u y t s s p J K u J K P s J p u y y i t t t s s p i i i 9. .] 9 3 _ ` ",
"q o.<.%.e 7 @.X.N ( Y Z t ( bXH.J m a p t u s t u s u y u y y t y J A G L m N z g o H &.+.| O.X.D 1 ",
"A zX:.! B % > k k c v = = S R L T N N m h a J W L K K m z m L T W V S S B M l l g X &.^ O.Q S S M O ",
"n tX! H B 1 : : z B v v 2 B ~ Z N M M l h X 6 ;.) ^ ~ S - : A A Z Z z n c l h g d o ~ ! R Z M l k O ",
", B S S R ~ T 2 ..| *...[ 1 N M M l g g g X 1 &.#.@.( T ; 1 n Z B c g k k g g j = - S Z N M z h g = ",
"n n Z S R Z c z l | kXD.v V @.c h g g g d = k &.@.@.@.Z - z C k g > t > g g g f < C T M z z l l g = ",
"- n o X.Z c c x f ..K...| 2 = j j g g d k * Z #.@.@.R g 2 c v z g = O = d = f j ..| j j j l j g x = ",
"4 0 9 - v v v v | [ {  .*.2   * o X o o % 2 C c c l j v [ : X X X X * = * _ _ [ | | 2 * o * o * < 2 "
};
