/* XPM */
static char *out[] = {
/* columns rows colors chars-per-pixel */
"50 50 243 2 ",
"   c None",
".  c #090605",
"X  c #1A0701",
"o  c #170C08",
"O  c #18100E",
"+  c #1A1613",
"@  c #280C05",
"#  c #360C02",
"$  c #3B1308",
"%  c #241A17",
"&  c #2E130E",
"*  c #1A381C",
"=  c #152C1B",
"-  c #223C1D",
";  c #29221E",
":  c #193827",
">  c #1C3B33",
",  c #183D39",
"<  c #112E27",
"1  c #2A2625",
"2  c #332A28",
"3  c #253C28",
"4  c #343934",
"5  c #470503",
"6  c #4A1608",
"7  c #571301",
"8  c #570603",
"9  c #751A02",
"0  c #6B0D02",
"q  c #732800",
"w  c #433E38",
"e  c #264718",
"r  c #37591A",
"t  c #2F4F18",
"y  c #1C442B",
"u  c #1C423C",
"i  c #194537",
"p  c #0F4031",
"a  c #294626",
"s  c #334827",
"d  c #3B542C",
"f  c #385725",
"g  c #24443D",
"h  c #294637",
"j  c #344333",
"k  c #3B4D33",
"l  c #364A39",
"z  c #245236",
"x  c #395639",
"c  c #2A5229",
"v  c #3B6326",
"b  c #3A6637",
"n  c #356935",
"m  c #295112",
"M  c #48691B",
"N  c #4F7417",
"B  c #587A1D",
"V  c #526D1F",
"C  c #425C2C",
"Z  c #44473C",
"A  c #475839",
"S  c #404C2F",
"D  c #476926",
"F  c #556E28",
"G  c #4D7725",
"H  c #557424",
"J  c #597827",
"K  c #486437",
"L  c #576A39",
"P  c #4B7436",
"I  c #597936",
"U  c #627D39",
"Y  c #56530F",
"T  c #1B4A43",
"R  c #1B5447",
"E  c #254B44",
"W  c #2B4C44",
"Q  c #2A4945",
"!  c #324C42",
"~  c #374E46",
"^  c #2A5349",
"/  c #345345",
"(  c #3A5344",
")  c #34534B",
"_  c #3A554C",
"`  c #3C5B4E",
"'  c #365A48",
"]  c #3A5C50",
"[  c #3A6455",
"{  c #3D6B4A",
"}  c #494A44",
"|  c #435B4D",
" . c #465946",
".. c #545A48",
"X. c #445D52",
"o. c #4B5C51",
"O. c #5A5952",
"+. c #514B48",
"@. c #476548",
"#. c #576748",
"$. c #57774A",
"%. c #446254",
"&. c #4C6354",
"*. c #4A6657",
"=. c #536554",
"-. c #546A55",
";. c #546B5B",
":. c #5B6D5B",
">. c #5A6756",
",. c #5C725D",
"<. c #597557",
"1. c #487553",
"2. c #65774A",
"3. c #63695A",
"4. c #64735C",
"5. c #687858",
"6. c #73765B",
"7. c #697547",
"8. c #5A7565",
"9. c #4D7061",
"0. c #696A64",
"q. c #647563",
"w. c #697562",
"e. c #657B64",
"r. c #6B7C64",
"t. c #647C6A",
"y. c #6C7D6A",
"u. c #717C64",
"i. c #737E6A",
"p. c #767867",
"a. c #657E70",
"s. c #77776B",
"d. c #634F4A",
"f. c #880701",
"g. c #960701",
"h. c #861F02",
"j. c #961800",
"k. c #A70800",
"l. c #BD0900",
"z. c #952303",
"x. c #AA2602",
"c. c #B72802",
"v. c #D50700",
"b. c #C90C00",
"n. c #EC0800",
"m. c #E40800",
"M. c #F40900",
"N. c #FE0900",
"B. c #FC1400",
"V. c #F91B01",
"C. c #C52A02",
"Z. c #D73103",
"A. c #D42E03",
"S. c #E82902",
"D. c #F92402",
"F. c #F72A02",
"G. c #E93503",
"H. c #F53503",
"J. c #F53904",
"K. c #F83203",
"L. c #8B5000",
"P. c #A07600",
"I. c #81796C",
"U. c #5B841C",
"Y. c #638F16",
"T. c #5B8424",
"R. c #598534",
"E. c #648728",
"W. c #699527",
"Q. c #6C9033",
"!. c #70A31C",
"~. c #55884E",
"^. c #6C8549",
"/. c #6E8254",
"(. c #758559",
"). c #72914A",
"_. c #59896A",
"`. c #4A8673",
"'. c #6C826B",
"]. c #748265",
"[. c #75836B",
"{. c #7B846D",
"}. c #7D8A6D",
"|. c #7A8468",
" X c #6C8372",
".X c #658273",
"XX c #738573",
"oX c #7A8573",
"OX c #758974",
"+X c #7C8A74",
"@X c #7C8D7A",
"#X c #758979",
"$X c #699A7B",
"%X c #7B9677",
"&X c #7F956D",
"*X c #B79100",
"=X c #85AE2A",
"-X c #83B21A",
";X c #DAAA00",
":X c #D8AB00",
">X c #F8C600",
",X c #858A6D",
"<X c #869569",
"1X c #838C74",
"2X c #8A8C74",
"3X c #838E7A",
"4X c #878778",
"5X c #958D77",
"6X c #85927C",
"7X c #8C937B",
"8X c #899475",
"9X c #93947C",
"0X c #97977B",
"qX c #A6957C",
"wX c #97A073",
"eX c #75A48A",
"rX c #7E9080",
"tX c #8D9582",
"yX c #8C9984",
"uX c #879683",
"iX c #939B83",
"pX c #9B9C83",
"aX c #979A87",
"sX c #8F8C82",
"dX c #A49B83",
"fX c #9AA38B",
"gX c #97A38A",
"hX c #9BA591",
"jX c #82A996",
"kX c #A7A58A",
"lX c #B1A88E",
"zX c #A4AB93",
"xX c #A5AA94",
"cX c #ABB29B",
"vX c #A8B196",
"bX c #B4B59C",
"nX c #B1AC95",
"mX c #B4BAA2",
"MX c #BABBA2",
"NX c #AFB4A1",
"BX c #C5B7A0",
"VX c #B9C1A4",
"CX c #C5C4AA",
/* pixels */
"  r A A A j k s z y e s s 3 - a 3 e e e f Y.Y.m N -XY.r m e - d S k s - k k l a m t * m e * * * m   ",
"  9XkXdXdXdXbXw.x @.,XdX0XI.4X4XI.Z K iXiXI I |.2.W.K yX@.r ,X0X8X5X>.5.pX+Xs.oX .t K '.OXe.8.X.e   ",
"  kXlXlXkXkXkXp.S F qXdXqX0X9X2X,XZ k pX0X(.7X1X|.w.+X6Xr.j 8X5X,X(.8X[.1X{.XXy._ @.1.K r.,.*.| >   ",
"  0XlXnXbXbXxXoXC F 5XBXdX0X5X5X4XZ k pXiX8X5.{.[.-.-.OX,.a ,.r.}.3XoX|.q.i.i.y.( ` /.3XOX&.X.^ ,   ",
"  6.2XNXbXcXxX7XC B ..6.3.O.=.} l j d 3X9X,X .5.{.[.XXq.j a j 6X1XoX{.|.&.q.0.:.l b /.t.8.*.( T z   ",
"  |.kXNXcXcXvXiXC E.F A A A A A C K <.+X8X,X5.7X1X,X#X#Xe.a 4.{.[.|.y.q.:.r.y.8.s D '.%.( ! W z ~.  ",
"  w.MXcXcXhXhX#Xd <XCXMXBXMXMXVX8XC L ,X{.s.w.oX>.O.>.>.>. .q.y.y.r.e.,.[.q.:.;.h M ).^.@.@.1.R.).  ",
"  -.i.oX#X:.=.l f 8XCXMXMXbXmXmX{.d K s...2 $ 6 6 6 6 $ @ O 1 +.0.q.,.+Xw.:.-.&.W f ^.(./.2.I U.W.  ",
"  M s - - s s M V 8XbXMXmXmXmXNX1Xd O.% 9 c.Z.G.S.S.S.S.c.9 # X o 1 +.0.0.;.! ! Q A kXpX9X8X4.:.L   ",
"  J qXlXqXlXlXqXF 5XbXbXNXNXNXNXtX2 $ c.S.V.N.N.N.N.N.B.B.F.G.c.z.6 @ X o o O 1 1 4 sXaXfXtXuXoX`   ",
"  ,XBXqXqX5X5X5XS 1XvXcXxXNXNXsX2 9 S.V.N.N.N.N.N.N.N.N.N.N.N.D.H.J.G.Z.C.x.9 @ . . + #XiXyX3X8._   ",
"  6.lXqXqX0X5X6.s 5.hX7XrXhXaX% g.M.M.N.N.N.N.N.N.N.N.N.N.N.N.D.H.J.J.C.9 # O 4 } Z s.tXyXuXOX#X(   ",
"  6.qX5X5X5X2XO.s d 4 j ( 4 w 0 n.N.M.l.k.v.N.N.N.N.N.N.N.N.N.F.J.G.h.X . O.I.+.} A 7XuXuXuXrX#X]   ",
"  3.pX5X9X1Xp.4.s F U #.K ..& v.N.b.q P.P.L.b.N.N.N.N.N.N.N.B.K.J.C.X . . 1 O . % D l h l ~ h Q h   ",
"  } 4X5X4XtXp...s 2XBXbX0XI.6 M.n.q ;X;X>X:Xh.M.N.N.N.N.N.N.N.D.J.J.x.7 7 0 h.# w V J K S C d D v   ",
"  e j j j j j 3 t ,XlXwXkXO.0 M.m.q *X*X>X:Xq n.N.N.N.N.N.N.N.N.F.J.J.J.G.G.9 @ 4 L bXxX7X3Xw.5.h   ",
"  N F L 7.#.L D H $.{.cXkX} f.M.M.j.Y :X;XL.k.N.N.N.N.N.N.N.N.N.D.J.J.J.J.h.X O 3.#.9X,Xp.>.0.:.~   ",
"  7.lXkXdXpX0X#.F ..p.vXhXw g.N.N.m.k.g.j.b.M.N.N.N.N.N.N.N.N.N.D.J.J.J.G.6 # # & 2 0.p.w.=.-.o.Q   ",
"  2XnXdX0X9X7X} K kXaXhXgX} f.M.N.N.M.M.M.N.N.N.N.N.N.N.N.N.N.V.F.J.H.H.K.G.Z.A.c.7 & 3.0.8.>.| >   ",
"  |.kXpXtXiX+X .#.pXaXy.uXO.8 N.N.N.N.N.M.n.N.N.N.N.N.N.N.N.N.K.J.H.H.H.J.J.K.K.H.A.7 % 0.;.X.) T   ",
"  6.fXiXyXuXoX .@.t.X.h %.0.@ v.N.N.N.M.l.0 M.N.N.N.N.N.N.N.N.B.F.K.H.H.H.Z.c.x.c.Z.C.& 4 } u , T   ",
"  ..+X7X6X@XXX` $.@.a t M 3 1 g.M.N.M.v.5 g.M.N.N.N.N.N.N.N.N.N.N.B.F.S.j.@ O O O $ z.z.o . } ~ x   ",
"  S  .-.-.-.;.A E.Q.Q.).T.F ..5 m.n.k.# 0 n.N.N.N.N.N.N.N.N.N.N.V.S.C.7 o d.4XI.I.O.% & @ . . . 3.  ",
"  N M N G H $.Q.W.=XW.).<X2.cX2 g.k.5 f.n.N.N.N.N.N.N.N.N.N.N.V.F.h.X . I.sX@X<.J ^.(.s.0.0.3.s.OX  ",
"  2.gX).R.).E.).=X=XQ.vXkX}.7X0.& l.M.N.N.N.N.N.N.N.N.N.N.N.B.B.H.A.6 . ; +.O.p.Q.^.gX7Xy.|.6X3XXX  ",
"  3XgXiX6.(.VXhX#.(.cXfXfXfXA 7X} # C.V.N.N.N.N.N.N.B.V.F.H.Z.A.A.C.c.h.# . . % 7.I 8X6X@X6XOXXXy.  ",
"  4.+X5.x gXhX}. .fXzXfX8X-.0X8X4Xw @ h.A.F.V.D.D.H.G.A.x.7 # X X X . . o % w 4XpX..;.` @X@XXX X;.  ",
"  =.gX6Xe.h x 8XgX4.+X$.(.gX0X0Xp.3Xs.2 & $ 7 9 9 7 # @ o ; w O.I.sXaXsXaXhXsXXXXX .8.*. X#X X.X%.  ",
"  h _ h y a 7X7X2X5.vXcXkX9X0X8X7Xu.|.x oX0.w 2 2 2 w 6.OXP E.U pXfXhXgXyXuXOXXX'.k T.%Xe.*.%./ b   ",
"  f f K K J 1X2X}.+XcXvXhXgX7X+X{.].=.4.r.q.=.O.o.j B Q.E.Q.W.U tXaXyXyXuX@XXXe.` c U.E.R.R.I J I   ",
"  7.2X6.<X7.].|.].@.[.gXgXyX6X].r.4.:.o.3.=. .! h > L <X2X,XL H S ( =.8.;.-. .' d D <XwX0X7X3XyX<.  ",
"  u.9X2XiX=.#.i.].6X].@XyX%XOXr.<.=.` 3 h d 3 = : - (.5X2Xp.>.r r f f C D !.T.G T.^.iXiX3X#X[.XX|   ",
"  6.6.4.{. .C | +Xi.r.8.XX X'.<.X.h , * * m t s 5.2X(.p.u.w.>.f 7.(.(./.2.).^.#.D I 7X6X+XOX'. X*.  ",
"  7X7X4X{. .D x y.r.q.o.l ;.! > : * e M N H 6.2X0X,Xp.2.w.3.$.D 1X1X|.'.q. .t.,.j  .@X@X@X X X X%.  ",
"  +X1XoX{.:.f d 9.t.:.~ > < = e r F H J Y.<XdX2.p.u.5.3.-.:.&.3 r.u.r.q.,.3 ;.*.h ( #X#X#Xa..X X%.  ",
"  [.+XoXXX| D H > > : = e t 2.fXhXkXaXhXA #.8X8X#.5.3.=.o.( W : -.q.8.=.( :.x ` g 3 %.;.8.8.[ ) ^   ",
"  e.XX#X XP U.Y.r 3 c D U.J bXfX7X6XOXy.l K oX3.5.>.>.o.o.o.> 3 | 8.=.y.8.&.1._ , a e a : * - 3 y   ",
"  s a k K Q.E.<X<X<X<X2.I J 6X8X+X@XOXy.l d y.4.4.=.| *.;.%.~ a h _ a.*.%._ ^ E i c J }.[.8.*./ c   ",
"  2.tX3X+X#.5.fX0XiXaXxX:.M +X@X@XXXXXt.l d 8.=.&.o.! ! X._ ^ 3 P [ ;.] ] ) ^ T i 1.P :.%.X._ ) g   ",
"  +X@XXXq. .4.9X7X7X3XtX~ f #XOX X.X.X;.( d &.*.X.| ~ g E Q T T %X$X[ ] ) E R R n T.@.X.X.] ) E ,   ",
"  1.XXq.8.( <.6X6X3XOXXX~ t ;.a.t.a.#X8.l v i [ ] W ^ T < c i z %X$X_.] [ [ ~._.~.$.'./ / W Q T y   ",
"  g l l / @.4.@X@X@X#X.X/ r f 3 3 3 3 : r G : , E R T p y c n P W.$X/.R.R.W.Y._.`.{ h : c y i z T.  ",
"  D I ~.I T.<.+XXXXX X.X^ f <X}.[.r.q.,.1.D M y : y c v T.R.8X<X/._.%X&X/.~.$.-.b G G H T.M D G U.  ",
"  2.5.<X^.D @. X8.8..X8.^ j aX|.r.:.=.*.%.h <.$.2.<.$.P U.'.iX[.XX/.e.'.;.*.X.` E d |.}.].5.'.,.A   ",
"  3XhX{.q.s c h ( / [ u R h 1Xq.;.&.X.` _ 3 @.aX6X@XuXX.r r.q.4.,.@.:.;.X.| ) ^ , x i.t.e.;.*.&.Q   ",
"  q.#Xq.,.l K f b ' 9.T n c oX=.o.X._ ) Q >  .@X#XoX X%.a x :.=.*.*.( | _ ) ! E u l e.q.;.%.` _ E   ",
"  l >.:.&.OX<.*.1._.$XeXb v  .X.X._ ~ Q E > A #X#Xa.t.*.e @.| &.X.) W ) / W E z g x =.&.X._ ) ) u   ",
"  ;.x | t.;.%._ ' x eXeX`.b oX%._ W Q Q , , ( #XXXa.a.[ a @.*./ Q 4 E g W E ^ i 1.@.X.| _ _ ) Q T   ",
"  x ' l _.%.] ] ^ [ eXeX1.n R z W E E g / y ,..X.X.Xa.g x { ` ^ Q u u u T z R 1.$X' ^ / ' ^ ! ^ i   ",
"  B T.f W ] [ [ { ~.W.R.eXR.e y : : : : c r $.] ' ^ ^ @.I c < < < : p , v !.v ~.~.R.e y : : y y n   "
};
