/* XPM */
static char *out[] = {
/* columns rows colors chars-per-pixel */
"50 50 248 2 ",
"   c None",
".  c #190804",
"X  c #1A1514",
"o  c #100908",
"O  c #260A03",
"+  c #360901",
"@  c #281A17",
"#  c #34150E",
"$  c #162C1A",
"%  c #19361B",
"&  c #223C1D",
"*  c #2C211D",
"=  c #132D24",
"-  c #193827",
";  c #1C3C33",
":  c #173B36",
">  c #2D2724",
",  c #362C29",
"<  c #253C29",
"1  c #353831",
"2  c #590603",
"3  c #4D1303",
"4  c #551604",
"5  c #490A07",
"6  c #681702",
"7  c #761401",
"8  c #732703",
"9  c #443631",
"0  c #7A2C21",
"q  c #264618",
"w  c #37591A",
"e  c #2F5018",
"r  c #1C442B",
"t  c #1C423C",
"y  c #194537",
"u  c #0F4031",
"i  c #294626",
"p  c #334827",
"a  c #3B542C",
"s  c #385725",
"d  c #244234",
"f  c #2B4334",
"g  c #23443D",
"h  c #2A4839",
"j  c #344333",
"k  c #3B4D34",
"l  c #354B38",
"z  c #245236",
"x  c #3A5639",
"c  c #2A5229",
"v  c #3B6326",
"b  c #3A6637",
"n  c #356935",
"m  c #295112",
"M  c #794C00",
"N  c #48691B",
"B  c #4F7417",
"V  c #587A1C",
"C  c #435C2C",
"Z  c #435A27",
"A  c #44463C",
"S  c #495939",
"D  c #4D5138",
"F  c #466826",
"G  c #556E27",
"H  c #4D7725",
"J  c #587726",
"K  c #496537",
"L  c #576A39",
"P  c #4B7436",
"I  c #597936",
"U  c #627C3B",
"Y  c #405A1E",
"T  c #1A4A43",
"R  c #1B5447",
"E  c #254B44",
"W  c #2B4C44",
"Q  c #2A4945",
"!  c #324D42",
"~  c #374E45",
"^  c #2A5349",
"/  c #345345",
"(  c #3B5344",
")  c #34534A",
"_  c #3A554C",
"`  c #3C5B4E",
"'  c #365A48",
"]  c #3A5C50",
"[  c #3A6455",
"{  c #3D6B4A",
"}  c #494C44",
"|  c #574D49",
" . c #435B4D",
".. c #4A5D4C",
"X. c #455944",
"o. c #545947",
"O. c #445D52",
"+. c #4B5E52",
"@. c #5F5955",
"#. c #644D48",
"$. c #476547",
"%. c #566747",
"&. c #57774A",
"*. c #446254",
"=. c #4C6354",
"-. c #4A6657",
";. c #546454",
":. c #546A55",
">. c #546B5B",
",. c #5B6D5B",
"<. c #596955",
"1. c #5C725D",
"2. c #587659",
"3. c #487553",
"4. c #667749",
"5. c #646B5A",
"6. c #64735C",
"7. c #687858",
"8. c #73755A",
"9. c #7C625B",
"0. c #5C7363",
"q. c #597767",
"w. c #507365",
"e. c #647562",
"r. c #6A7562",
"t. c #657A64",
"y. c #6B7B65",
"u. c #647C6A",
"i. c #6C7D6A",
"p. c #6E7268",
"a. c #717B64",
"s. c #737E69",
"d. c #767667",
"f. c #657E70",
"g. c #716D67",
"h. c #851E02",
"j. c #971901",
"k. c #8F0501",
"l. c #A71200",
"z. c #9A2302",
"x. c #8B3100",
"c. c #B82802",
"v. c #A92905",
"b. c #C80900",
"n. c #D70800",
"m. c #E80900",
"M. c #F40800",
"N. c #FE0900",
"B. c #FD1300",
"V. c #F81801",
"C. c #E61801",
"Z. c #DB3203",
"A. c #CE2E03",
"S. c #F82802",
"D. c #E93504",
"F. c #F63503",
"G. c #F73604",
"H. c #E62E02",
"J. c #D2322B",
"K. c #936F00",
"L. c #954515",
"P. c #CD4722",
"I. c #8C796F",
"U. c #966554",
"Y. c #5B841C",
"T. c #638F16",
"R. c #5B8424",
"E. c #598534",
"W. c #648628",
"Q. c #689526",
"!. c #6C9033",
"~. c #70A31C",
"^. c #55884E",
"/. c #6B8449",
"(. c #6E8254",
"). c #758658",
"_. c #72914A",
"`. c #59896A",
"'. c #4A8673",
"]. c #6C836B",
"[. c #75836B",
"{. c #7B846C",
"}. c #7D8A6D",
"|. c #778366",
" X c #6C8372",
".X c #658273",
"XX c #738573",
"oX c #7A8672",
"OX c #758975",
"+X c #7C8A74",
"@X c #7C8D79",
"#X c #758979",
"$X c #699A7B",
"%X c #7B9677",
"&X c #7F956D",
"*X c #85AE2A",
"=X c #9D9C0D",
"-X c #D8A800",
";X c #ECB900",
":X c #F3C200",
">X c #8A9C55",
",X c #85896C",
"<X c #869569",
"1X c #838B74",
"2X c #8B8C74",
"3X c #838E7A",
"4X c #888A76",
"5X c #968D77",
"6X c #8B9375",
"7X c #84927C",
"8X c #8B937C",
"9X c #879476",
"0X c #93947C",
"qX c #97977B",
"wX c #A5947C",
"eX c #B0867D",
"rX c #9DA27E",
"tX c #75A48A",
"yX c #7E9080",
"uX c #8C9984",
"iX c #899682",
"pX c #939B84",
"aX c #9B9C83",
"sX c #959E8A",
"dX c #9A9784",
"fX c #A49A83",
"gX c #B19187",
"hX c #9BA38B",
"jX c #97A38A",
"kX c #9BA591",
"lX c #82A996",
"zX c #A2A58C",
"xX c #AAA58A",
"cX c #B1A88E",
"vX c #A5AB93",
"bX c #A5AB94",
"nX c #ABB39C",
"mX c #A7B196",
"MX c #B2B59D",
"NX c #B6B49A",
"BX c #B5AB95",
"VX c #B4BAA2",
"CX c #BABAA2",
"ZX c #AFB8A0",
"AX c #C7A39B",
"SX c #D1B3A3",
"DX c #B9C1A4",
"FX c #C5C4AA",
/* pixels */
"  w S S D k k i z r q p p & i i < q q & a T.T.m B *XT.w m q & a k k i & k l l i e e q m q & % % w   ",
"  0XxXwXfXfXnXd.x $.{.xXqXI.4XI.I.k K pXpXI I |./.T.K uX$.w ,XqX5X6X<.8.sX}.s.oXX.i K y.oXt.>.*.q   ",
"  zXxXxXcXzXxXs.k G wXfXwXqX5X2X,XA k sXqX).8X1X[.7.@X7Xy.p 8X5X,X).9X[.1X|.oXs.( $.3.K ].2.-.` ;   ",
"  aXcXBXnXBXbXoXC J 5XNXfXqX0X4X4XA k aXqX9X7.|.[.:.:.OX1.i 1.y.}.3X,X[.r.s.s.t.~ $.t.@XOX=.O.) :   ",
"  8.4XVXMXnXbX8Xa V %.8.5.@.;.} k j k 9X0X9X..6.[.[.[.6.f i j 3X1XoX{.s...t.e.>.l b ].].2.-./ t h   ",
"  {.zXnXnXnXbXjXZ W.L D D S S S Z K :.}.6X}.7.6X9X+X+XOXt.i 6.oX[.s.s.t.,.p.i.0.p F ].$./ ! ^ h ^.  ",
"  7.CXnXnXvXkX#Xa <XFXFXNXDXCXDX3XC L }.}.|.|.+X{.OX@X Xq.< e.i.y.y.u.1.[.r.5.>.h N _.4.$.$.3.E._.  ",
"  <.s.oXOX<.=.l s 6XFXNXDXNXVXZX{.a K {.[.y.3X{.{.OX#X Xf.d ( t.t.e.:.[.e.,.,.-.W s /.).(.4.I Y.Q.  ",
"  N p < 1 e p Y V 6XNXDXVXVXVXZX+Xa %.r.g.p.d.g.p.g.g.f.q.g ; g ) h f ( } ~ l ; t S zXaX0X4X6.,.I   ",
"  J rXwXwXcXcXwXG 2XMXNXZXZXZXZX+Xo.} @ # 4 6 6 6 3 O @ 1 ;.- = - $ % $ $ $ - ; - S xXzXhXiXiX#X`   ",
"  ,XSXwXwX5X5X2XZ 1XnXmXbXnXnXbXg.@ h.A.D.S.S.S.F.F.Z.z.5 X , 8.S N V N F Z Z Y H 4.d.sXsXiX@Xt._   ",
"  8.cXwXqXwX5Xd.1 7.kX8XiXkXbX@.4 c.S.S.N.N.N.N.B.V.S.G.D.v.3 @ 9 5.4.BXBXwXwXg.U.0 1 iXuX7X#X#X/   ",
"  8.wX5X5X5X4Xo.i Z < j } ( > 6 C.B.N.N.N.N.N.N.N.N.N.B.S.G.D.v.+ o X , 1 9 | 9.J.2 @.iXiXiXyXyX]   ",
"  5.aX0X0X1Xs.8.p G U %.S } 2 m.N.M.m.M.N.N.N.N.N.N.N.N.N.N.S.G.D.A.z.8 4 o o #.5 X } h j ~ Q ; h   ",
"  } 4X5X4XiXa.o.p 2XSXNX5X# n.N.b.x.M 8 n.B.N.N.N.N.N.N.N.V.S.G.F.F.H.j.O X g.| > S I S C C C C v   ",
"  q 1 j j 1 j < e ,XvXqXdX5 M.n.x.-X;X;Xx.m.N.N.N.N.N.N.N.S.F.Z.v.4 O o , dX4X4Xk L NXzX8X1Xr.7.l   ",
"  V G L %.%.L G V <.{.bXg.7 M.b.K.K.:X:Xx.b.N.N.N.N.N.N.B.H.6 O O + 4 O | 8X3X3Xl K 2X,Xd.<.6.,.)   ",
"  4.cXxXxXqXdX%.G o.d.kX| k.N.m.8 K.-X=Xh.M.N.N.N.N.N.N.N.V.c.z.v.v.4 @ AX5.o.~ j %.4Xd.p.;.<...g   ",
"  2XBXqXqXqX4XX.K zXdXsXA l.N.M.b.k.j.l.m.N.N.N.N.N.N.N.N.B.F.Z.h.O o | gXAXL Z P K a.8.,.1.>. .;   ",
"  |.zXaXdXiXoX..%.hXsXp.| k.N.N.N.N.N.N.N.N.N.N.N.N.N.N.N.S.G.z.+ . O O @ #.gX5X%.C p.,.0.>.O./ T   ",
"  8.jXpXiXiXOX .$.u. .f 5.2 M.N.N.N.M.m.M.M.N.N.N.N.N.N.N.V.G.D.Z.Z.A.z.5 o X I.o.Z ( f d y - : T   ",
"  o.1XuX7X@X XX.&.$.i p U # n.N.N.N.b.2 n.N.N.N.N.N.N.N.N.N.B.G.D.c.3 . @ @ X , I.>XN w % % % & e   ",
"  k S ;.<.;.>.x W.Q.!.!.J > k.N.M.n.5 k.M.N.N.N.N.N.N.N.N.N.S.D.7 O , I.SXAXI.L.4 D /.F K L 4.4.I   ",
"  B N B H H 4._.~.*X!._.<Xo.5 n.k.+ 7 m.N.N.N.N.N.N.N.N.N.S.D.3 O h.J.P.9 9 9 O O o.7.<X6.pXpX3XoX  ",
"  4.jX).!._.W./.~.*X_.mXzX8X, 7 b.b.M.N.N.N.N.N.N.N.N.N.V.G.D.c.A.c.6 O @ I.I.I.8.,XsXiXs.[.3XiXXX  ",
"  3XjXuX7.(.DXmX%.).mXxXhXhXA @ j.V.N.N.N.N.N.N.B.B.S.F.Z.c.z.7 + o > @.,XG J V V I 9X9X@X3XOX].i.  ",
"  6.oX(.x jXjXOXX.zXcXhX9X&.qXp.@ h.Z.S.G.S.G.G.F.H.z.4 . o X , | dXCXVXNXbXvXhXpXS >.` yX@X X X>.  ",
"  ;.jX7Xy.d x 9XjX1.@X&.).jXaX0Xd.> # 4 8 j.j.7 4 O . X 9 5.,.F sXbXzXkXdXsX3XoXXXX.q.:. X X X].*.  ",
"  f _ h d i 8X6X4Xy.mXmXzX0X0X6X9Xr.oXg.A , > , 9 5.7.2.OXE.W.I sXhXjXjXuX7X@XOX].k E.&Xq.-. ./ '   ",
"  s s S P J ,X1X}.}.mXmXkXjX9X}.|.s.;.6.r.6.;.@.} f V Q.R.E.Q.E.8XsXuXuXyX@XXXt.` p Y.Q.!.E.I I R.  ",
"  4.<Xa.<X4.s.{.|.$.XXjXjXpX9X|.y.6.,.=.6.;. .l g - L <X2X2X%.J k } -.0.1.:.X.' c H <XrXpX9X3XuX2.  ",
"  a.5X4XdX<.%.a.].9X|.@XuX%XOXy.,.:. .- ; a < % - < |.2X2Xd.%.Y Y w s Z H Q.W.H V (.8X8X3XoX[.XX .  ",
"  8.r.6.}.X.C $.oXs.y.6. XXX].1.*.h - = % m q a 4.9X(.|.a.r.,.w 4.).).7.4._.E.%.F &.7X7X@XXX]. X-.  ",
"  6X6X4XoXX.Z x s.i.e.+.l w.h ; - % m N B H 8.2XdXI.d.4.r.,.:.F 9X,X{.|.u.X.s.0.j S 7X@XOX X X X*.  ",
"  1X1X1X[.,.s a w.u.1.! - - $ q s G G J T.<XfX4.d.y.6.5.;.,.;.< y.s.y.e.1.< >.:.h ( #X#X#X Xf. X*.  ",
"  [.oXOXXX..F H - : - = q e 7.sXzXzXsXkXS &.5X9X%.8.<.<.+.( ! - :.e.1.-.( >.x ' g < *.>.q.w.*.) ^   ",
"  t.#X#X].P R.Y.w q p v V W.MXpX6X3X+Xi.l K 1X6.7.<.;.;.+.O.< -  .>.;.].w.=.-.] y & q q - - & & r   ",
"  i < x K !.!.>X<X<X&X(.I J 3X9X@X@XOXy.l x p.1.6.;.O.;.-.O.! i f ` ].=.O.` ^ E t s I OX[.0.-.( c   ",
"  4.iX7XoX%.7.aXaXpXdXbX5.N @X@X#X#X Xu.j a 0.;.=. .~ ! O._ Q ; P *.w.[ ` ) ^ T y 3.P 1.=.O.] ) g   ",
"  1X@Xs.t...5.0X8X4X3XiX~ s #XOX Xi. Xw.( s *.>.O. .~ g Q Q R E tX.X[ ` ) E R R n E.$.O.O.] Q Q y   ",
"  :.XXt.0.( ,.7X7X3X@XXX~ e >.u.u.u.#Xw.l v t *.] ) W R - r y z %X$X`.] R { ^.`.^.&.]./ ) Q E T d   ",
"  d h / / $.6.@X@X@X#X X/ w s < < < ; < w H - y T R T u r c n E.E.$X).E.E.Q.Q.`.'.b d - s r y z R.  ",
"  F E.&.E.R.2.oX#XXX.Xf./ s <X}.{.i.e.1.&.F F r - r c v R.P 9X<X_.`.&X&X]./.&.:.' H H H R.N F H Y.  ",
"  /.7.<X4.F $. X0.q..Xw.^ j sX[.r.,.;.-.*.d 2.P 4.2.&.P Y.|.uX{.OX7.i.u.>.3.O.` h s }.&X].7.y.1.x   ",
"  3XkXoXe.p a h ' / [ R R h +Xe.<.=.O.] _ ; $.sX7X@XiXO.w y.e.5.2.$.2.>.O. .) W : x i.i.t.2.-.O.Q   ",
"  e.oXe.2.l b s x x w.E n c oX;.+.O._ ) W < X.3XOXOX XO.i x ,.;.;.-.(  ._ ) ~ E t l r.u.>.=.` _ Q   ",
"  x ;.,.=.OX2.-.3.`.`.tXb s X.+.] ] ~ Q Q ; x #X#X Xf.*.i $. .+.+._ Q _ / W E z g x ;.+.O._ _ ) T   ",
"  <.(  .u.>.O._ ' b lXtX'.b #XO.) ~ Q Q : : ( #X Xf.f.*.i $.$.) Q Q ; g W E ^ y 3.$.O.O._ ) ) Q t   ",
"  x ' h .X*.] ] ^ [ tXtX'.v E z ^ E E g / i w..X.X Xf.g n ` ] ^ g g t y T R y w.$Xn ' / ' ) ^ ^ t   ",
"  V R.s z ] [ [ { ^.Q.E.$XE.q r - - - - c w &.] ^ / ^ $.E.c = = = - : : v ~.H ^.^.n c - r - % r n   "
};
