/* XPM */
static char *out[] = {
/* columns rows colors chars-per-pixel */
"50 50 243 2 ",
"   c None",
".  c #0B0403",
"X  c #180804",
"o  c #1B1715",
"O  c #18110F",
"+  c #280A02",
"@  c #3A0C00",
"#  c #360A07",
"$  c #251B18",
"%  c #31140E",
"&  c #1A371C",
"*  c #152C1B",
"=  c #223C1D",
"-  c #25221C",
";  c #152D24",
":  c #193827",
">  c #1C3B33",
",  c #173B36",
"<  c #2C2624",
"1  c #362A27",
"2  c #263B29",
"3  c #323931",
"4  c #460701",
"5  c #4B1202",
"6  c #581401",
"7  c #580401",
"8  c #790501",
"9  c #691801",
"0  c #741C06",
"q  c #792A00",
"w  c #443935",
"e  c #264618",
"r  c #37591A",
"t  c #2F5018",
"y  c #1C442B",
"u  c #1B423B",
"i  c #194537",
"p  c #0F4031",
"a  c #294626",
"s  c #334827",
"d  c #3B542C",
"f  c #385725",
"g  c #23433C",
"h  c #294537",
"j  c #344333",
"k  c #3B4D33",
"l  c #364B39",
"z  c #245236",
"x  c #395639",
"c  c #2A5229",
"v  c #3B6326",
"b  c #3A6637",
"n  c #356935",
"m  c #295112",
"M  c #734700",
"N  c #48691B",
"B  c #4F7417",
"V  c #587B1D",
"C  c #425C2C",
"Z  c #44483C",
"A  c #48593A",
"S  c #404C2F",
"D  c #466926",
"F  c #556E28",
"G  c #4D7725",
"H  c #577625",
"J  c #486538",
"K  c #566A3A",
"L  c #4B7436",
"P  c #5A7936",
"I  c #627D3B",
"U  c #405A1E",
"Y  c #1A4A43",
"T  c #1B5447",
"R  c #254B44",
"E  c #2B4C44",
"W  c #2A4945",
"Q  c #334D43",
"!  c #364E45",
"~  c #2A5349",
"^  c #345244",
"/  c #3A5344",
"(  c #34534B",
")  c #3A554C",
"_  c #3C5B4E",
"`  c #365A48",
"'  c #3A5C50",
"]  c #3A6455",
"[  c #3D6B4A",
"{  c #4B4D46",
"}  c #435B4D",
"|  c #465946",
" . c #555A49",
".. c #445D52",
"X. c #4D5D53",
"o. c #595B54",
"O. c #554945",
"+. c #615753",
"@. c #476548",
"#. c #576747",
"$. c #57774A",
"%. c #446254",
"&. c #4C6354",
"*. c #4A6657",
"=. c #546555",
"-. c #546A55",
";. c #546B5B",
":. c #5B6D5B",
">. c #5A6856",
",. c #5C725D",
"<. c #597558",
"1. c #487553",
"2. c #65774A",
"3. c #656959",
"4. c #64735C",
"5. c #687858",
"6. c #73765B",
"7. c #5A7565",
"8. c #4D7061",
"9. c #647563",
"0. c #6A7562",
"q. c #657A64",
"w. c #6B7C64",
"e. c #657C6A",
"r. c #6C7D6A",
"t. c #717C64",
"y. c #737E6A",
"u. c #787868",
"i. c #657E70",
"p. c #716E66",
"a. c #871D01",
"s. c #951101",
"d. c #A41001",
"f. c #B60F01",
"g. c #962201",
"h. c #8D2B01",
"j. c #AD2802",
"k. c #B32602",
"l. c #C50701",
"z. c #D70900",
"x. c #C31B01",
"c. c #EC0800",
"v. c #E30800",
"b. c #F30800",
"n. c #FF0900",
"m. c #FC1200",
"M. c #FC1A01",
"N. c #F51C01",
"B. c #E81801",
"V. c #C82E03",
"C. c #D53103",
"Z. c #DA2F03",
"A. c #F92702",
"S. c #EB3603",
"D. c #E63503",
"F. c #F53503",
"G. c #F63904",
"H. c #F83403",
"J. c #E72B02",
"K. c #896500",
"L. c #887B6E",
"P. c #5B841C",
"I. c #638F16",
"U. c #5B8424",
"Y. c #598534",
"T. c #648728",
"R. c #689625",
"E. c #69853A",
"W. c #6E9530",
"Q. c #70A31C",
"!. c #55884E",
"~. c #6C8448",
"^. c #6E8254",
"/. c #758658",
"(. c #72914A",
"). c #59896A",
"_. c #4A8673",
"`. c #6C826B",
"'. c #748265",
"]. c #75836B",
"[. c #7B846D",
"{. c #7D8A6D",
"}. c #7A8468",
"|. c #6C8372",
" X c #658273",
".X c #738573",
"XX c #7A8573",
"oX c #7C8974",
"OX c #7C8C7A",
"+X c #758977",
"@X c #699A7B",
"#X c #7B9677",
"$X c #7F956D",
"%X c #85AE2A",
"&X c #83B21A",
"*X c #C59800",
"=X c #D7A900",
"-X c #EDBC00",
";X c #F5C300",
":X c #858A6D",
">X c #869569",
",X c #838C74",
"<X c #8A8C74",
"1X c #838D7B",
"2X c #878777",
"3X c #958D77",
"4X c #85927B",
"5X c #8C937C",
"6X c #899475",
"7X c #93947C",
"8X c #97977B",
"9X c #A6957C",
"0X c #97A073",
"qX c #75A48A",
"wX c #7E9080",
"eX c #8C9A84",
"rX c #899682",
"tX c #939B83",
"yX c #9B9C83",
"uX c #959C89",
"iX c #999A86",
"pX c #A49B84",
"aX c #BB8983",
"sX c #9BA38C",
"dX c #97A38A",
"fX c #9BA591",
"gX c #82A996",
"hX c #A2A58B",
"jX c #ABA58A",
"kX c #B1A88E",
"lX c #A4AC94",
"zX c #A6A994",
"xX c #ABB39C",
"cX c #A7B196",
"vX c #B4B59C",
"bX c #B1AC95",
"nX c #B4BAA2",
"mX c #B9BBA2",
"MX c #AFB8A0",
"NX c #CBB0A1",
"BX c #C8A29B",
"VX c #B9C1A4",
"CX c #C5C4AA",
/* pixels */
"  r A A A j k a z y e s s 2 = a s e e = s I.I.m P.Q.I.r m & e d k d j = k k k a t e e m t & & & r   ",
"  7XjX9XpXpXbXu.x J :XpX8XL.2X2Xu.Z J tXdXP P }.~.R.J eX#.r :X8X3X5X#.0.iXXXy.XX| a @.w..Xq.8...=   ",
"  hXkXkXkXhXzXy.k F 8XpXpX8X3X2X:XZ k iX8X/.5X,X}.w.oX4Xw.j 6X3X:X/.5X'.,X}.].r.) @.$.J `.<.*._ y   ",
"  8XkXbXvXbXzX[.C H 3XBX9X8X3X3X3XZ k iX8X,X5.}.'.-.-..X,.a ,.w.{.6X[.].0.].y.e./ _ ^.oXoX&...E >   ",
"  6.<XnXxXxXlX5XC V K 6.+.3. .{ l 3 d 6X7X,X| 5.{.].].9.h e j 4X,XXX[.].X.9.0.,.l b 5.q.7.-.! R z   ",
"  [.hXxXxXxXlXdXC T.K A A A A | C D -.{.6X:Xw.6X,XoXoX.X9.a 4.oX].].y.9.:.r.r.;.c D `.X.^ E W z !.  ",
"  0.mXxXxXlXfX+XS >XCXmXmXvXmXmX4XC #.:X{.}.w.2XoXXXOX.Xp.! q.y.w.w.e.,.].9.,.;.h D (.P #.[ 1.Y.(.  ",
"  #.y..XXX:.&.l f 6XCXVXmXmXnXMXXXd J '.0.o. .O.w 1 1 1 1 3 3.r.q.9.>.].4.:.>.*.W r ~.>X^.2.P P.W.  ",
"  N s 3 1 s r U H 6XvXVXnXnXnXMXXXd A o.$ 5 a.k.k.k.k.k.g.6 % < 3.^ l / | ! Q > u A hXiXtXrX3.:.K   ",
"  H 0X9X9XkXkX9XF <XvXvXMXMXMXMXoX{ $ 5 V.S.A.M.m.n.m.M.F.S.V.6 X o { { ; ; : > > A hXiXuXp.u..X_   ",
"  :XNX9X9X3X3X:Xk :XxXcXxXxXxXfXp.% g.J.A.M.n.n.n.n.n.n.n.A.H.G.V.0 + $ 1 +.3.>.>.3.p.O.$ . o.7./   ",
"  6.kXjX3X9X3Xu.s 4.lX5XwXfXzXo.% f.m.n.n.n.n.n.n.n.n.n.n.m.A.G.G.S.C.g.6 @ @ @ @ @ @ # . 3 +X+X^   ",
"  6.9X3X3X7X2X#.2 C 2 j { 2 X.% l.n.n.b.v.c.n.n.n.n.n.n.n.n.n.M.H.G.G.G.F.S.S.S.S.S.C.5 - OXwXOX'   ",
"  3.yX3X3X,Xu.6.s F I #.K >.w s.b.b.f.q M h.z.n.n.n.n.n.n.n.n.M.G.G.G.G.G.H.G.G.F.C.6 o o.! h g h   ",
"  { 2X3X5XrXt. .s :XNXvX7XzX< z.b.f.K.-X;X=Xh.c.n.n.n.n.n.n.n.M.G.G.G.G.G.G.G.S.k.@ $ 3.A C f C v   ",
"  e 3 j 3 j j 2 r :XkX0XzXiX# z.b.a.*XK.;X;XM z.n.n.n.n.n.n.n.A.D.j.j.V.C.V.g.4 O w zXkX7X2Xw.4.l   ",
"  B F K #.#.K N V >.[.xXzX2X4 c.b.d.K.=X-X*Xq c.n.n.n.n.n.n.n.M.Z.6 + X X X O w p.K 3X:Xu.>.4.:.!   ",
"  2.kXjXpXpXiX#.F  .t.zXfXwX7 c.n.v.8 q h.g.z.n.n.n.n.n.n.n.n.M.S.D.k.a.5 X X +. .#.2Xu.0.=.>.X.W   ",
"  <XkXpX9X7X4X| J hXuXfXfX2X4 b.n.n.b.v.v.b.n.n.n.n.n.n.n.n.n.n.A.G.G.S.Z.k.4 X O.3.u.6.:.9.;.} >   ",
"  }.hXiXtXtXoX| #.sXuXp.rXwX# v.n.n.n.m.n.b.n.n.n.n.n.n.n.m.M.M.F.S.V.s.9 9 5 . . 3.y.u.9.;...E Y   ",
"  6.dXtXeXrX+X| @.q.} h @.7.$ f.n.n.n.n.v.d.c.n.n.n.n.n.n.m.H.F.Z.a.+ $ < < < $ < p.u.O.7.u > , Y   ",
"   .,X5X4XOX|.} $.@.a s N 2 < 8 c.n.n.c.8 7 c.n.n.n.n.n.n.m.H.S.6 . 6 aXBXBXL.O.1 < O o 3 ; & e t   ",
"  k | -.;.-.-.A T.W.W.(.T.F #.# z.b.v.8 @ l.n.n.n.n.n.n.n.M.H.J.# . X $ $ X X X X . o p.J K 2.2.P   ",
"  B N B B H $.E.R.%XR.(.>X2.nXw 8 l.4 4 f.n.n.n.n.n.n.n.n.M.F.A.l.d.d.d.d.d.j.g.# o u.1X4.iXtX2XXX  ",
"  2.0X/.E.(.Y.E.Q.%X(.cXhX$X7XXX% f.z.c.n.n.n.n.n.n.n.n.n.M.H.F.F.F.F.S.C.j.7 X w u.uXeX].].4X4X.X  ",
"  ,XdXtX^.^.VXcX#./.vXhXdXdXZ 5Xo.# x.N.n.n.n.n.n.n.n.n.N.J.C.k.g.9 5 + X O 1 3.E.I 4X4XOX4X.X].r.  ",
"  4.oX`.x dXfX{.| sXcXsX6X>.8X>X4Xw + g.Z.H.A.m.M.B.k.0 5 + . . O $ w o.3.L.zXfXuXA <./ OXOX|.|.;.  ",
"  =.tX4Xq.h x 6XuX4.,X$.^.yXdX8X'.OXp.$ % 9 0 g.g.4 . . . O 1 L.sXhXiXuXiXeXrXy.].| 7.*. X+X X X%.  ",
"  h / h i 2 5X7X<X5.cXcXsX8X8X6X5Xt.].A u.+.1 < $ $ $ Z w.(.T.P iXsXsXdXeXrXoX.X`.x U.#X7.1.} / b   ",
"  v f | L H :X<X{.oXxXcXlXdX6XoX}.t.&.4.r.4.;.=.o.l V W.U.E.R.I rXuXuXeXwXOX.Xq._ s P.T.E.Y.P P P   ",
"  2.<X/.>X2.'.}.'.@.].dXdXeX4X'.w.4.>.&.4.=.| Q > > K :X>X:X#.H k / =.;.;.<.| ` s G >X0XtX5X1XeX<.  ",
"  u.3X,XiX=.#.y.'.4X].oXeX#X.Xw.,.-.} : > d 2 & 2 = :X<X<Xu.>.r U r f D D W.U.G P.^.tXeX,XXX]..X}   ",
"  6.6.4.XX| C | oXy.w.4.|..X`.7.} h i & & m t f 3.<X/./.t.0.>.f 2././.^.2.(.E.#.D $.4X4XOX.X|.`.*.  ",
"  4X5X2X[.| D x r.w.9.&.l 8.l > : & e N B H 6.<X8X:X}.3.9.3.$.D ,X,X[.y.9.| r.,.j A OXwXoX|.|.|.%.  ",
"  oX,XXX[.:.v d 8.e.;.! > : * = f F H H P.>X9X2.y.6.3.3.=.:.&.2 q.y.w.9.7.2 <.*.h / +X+X.X X X|.%.  ",
"  ].oXXX.X| D H > > : * e m 2.sXhXsXuXfXA $.7X,X#.6.:.-.&./ E : =.q.,.&./ ;.x _ g 2 %.;.7.7.] ( ~   ",
"  q.XX+Xi.L P.P.r a c N V P.nXiX5X4XoXy.k J XX4.5.>.>.X.X...2 2 } 7.=.`.8.&.*.` > y e e 2 = & 2 y   ",
"  s a k L E.T.>X>X>X:X5.P H 6X1XOXoX.Xe.l k r.4.:.=.} =.*.%.~ a h ) |.&.%._ ~ R i f P oX|.7.*./ c   ",
"  2.rX4XXX#.5.yX8XtXiXzX:.N OXOX+X+X|. Xj d 7.=.=.X.! E ..) W 2 L %.8.' ' ( ~ Y z @.L ,.*...) ~ g   ",
"  oX1X|.q.| 4.7X5X4X2XrX/ f +X+X|.`. X;./ d &.*.} _ ! g R ~ R Y #X@X] ) ) R T T n Y.@.} ..) ~ W ,   ",
"  *.|.9.7./ :.4X4XOX+X.X/ t ;.i.7. X+X7.x v u %.' E ~ Y : y z z #X@X).' ~ [ 1.).!.!.)./ ! E R g z   ",
"  h Q x / @.,.1XOXOX+X X^ r f 2 2 2 > 2 r G > , Y T Y i y c n L Y.@X/.Y.Y.R.R.)._.[ h : s i i z U.  ",
"  D Y.$.Y.U.<.OX+X+X X X~ f >X{.}.w.9.:.1.D N y > y c v U.G 6X$X(.).$X$X/.!.$.<.x G G V U.N D G P.  ",
"  2.5.>X2.D @.|.7.7.e.7.~ j iX].w.;.=.*...h <.L <.2.$.L U.'.tX].+X^.`.`.;.*...) g f {.{.'.5.`.<.x   ",
"  ,XfXXX9.s f g ` ~ ] Y T h ,X9.;.&.....' 2 @.dX1XOX4X&.f w.9.4.:.@.,.-...} ! ~ g x y.r.q.;.;.%.W   ",
"  q.XX9.;.x d v x ` 7.R n c [.=.X...) ( E : | OXoX.X|.%.a x :.=.&.*./ _ ) ( ! R , l 9.q.;.%._ ( R   ",
"  x -.:.&.+X,.&.$.).).qXb v | ....( ! W W > / oX.X|. X%.a J %.&...) E ) ^ E ~ z i x =.....) ) ! R   ",
"  -./ } e.;...' ~ n qXqX_.J +X%.( ( W W , , / +X|.i.i.%.a @.@.^ W W > W W R ~ i 1.@.....) ( ( ~ u   ",
"  x ` h  X*.' ' ~ ] qXqX_.v R z ~ R R u ^ a ;. X X X7.g d ] ' R g g u u Y z T 1.@X[ ~ ` ) ~ ~ ~ u   ",
"  V U.f z ' ] ] [ !.R.Y.@XY.e y : : : : c v $.' ( ~ ( 1.Y.c ; ; ; : , , v Q.n !.!.G e : y : = y n   "
};
