/* XPM */
static char *out[] = {
/* columns rows colors chars-per-pixel */
"50 50 248 2 ",
"   c None",
".  c #090605",
"X  c #170A07",
"o  c #1A1513",
"O  c #260B03",
"+  c #350902",
"@  c #29110B",
"#  c #281B18",
"$  c #351D17",
"%  c #35130A",
"&  c #172C1C",
"*  c #1A381C",
"=  c #223C1D",
"-  c #34221C",
";  c #183827",
":  c #1C3B33",
">  c #193D39",
",  c #132E24",
"<  c #342A27",
"1  c #253C29",
"2  c #273D31",
"3  c #36312D",
"4  c #461306",
"5  c #571502",
"6  c #4E0802",
"7  c #781B02",
"8  c #6C1001",
"9  c #423632",
"0  c #743500",
"q  c #264718",
"w  c #38591B",
"e  c #2F4F18",
"r  c #1C442B",
"t  c #1C423C",
"y  c #194537",
"u  c #0F4031",
"i  c #294626",
"p  c #334828",
"a  c #3B542C",
"s  c #385725",
"d  c #2B4334",
"f  c #24443D",
"g  c #2A443B",
"h  c #284737",
"j  c #344333",
"k  c #3B4D33",
"l  c #364B39",
"z  c #245236",
"x  c #395639",
"c  c #2A5229",
"v  c #3B6326",
"b  c #3A6637",
"n  c #356935",
"m  c #295112",
"M  c #415B1D",
"N  c #48691B",
"B  c #4F7317",
"V  c #577A1D",
"C  c #425B2B",
"Z  c #45473C",
"A  c #485839",
"S  c #404C2F",
"D  c #476926",
"F  c #556E28",
"G  c #4D7725",
"H  c #587627",
"J  c #496438",
"K  c #566A38",
"L  c #4B7436",
"P  c #597936",
"I  c #637C35",
"U  c #7B5600",
"Y  c #1B4A43",
"T  c #1B5447",
"R  c #254B44",
"E  c #2B4C44",
"W  c #294945",
"Q  c #324D42",
"!  c #374E44",
"~  c #2A5349",
"^  c #345345",
"/  c #3A5344",
"(  c #34534A",
")  c #3A554C",
"_  c #3C5B4E",
"`  c #365A48",
"'  c #3A5C50",
"]  c #3A6455",
"[  c #3D6B4A",
"{  c #4B4A43",
"}  c #564B47",
"|  c #435B4D",
" . c #465A46",
".. c #525C47",
"X. c #445D52",
"o. c #4D5D53",
"O. c #595D56",
"+. c #625450",
"@. c #476548",
"#. c #576648",
"$. c #57774A",
"%. c #446254",
"&. c #4C6354",
"*. c #4A6657",
"=. c #536554",
"-. c #546A55",
";. c #546B5B",
":. c #5B6D5B",
">. c #596856",
",. c #5C725D",
"<. c #597558",
"1. c #487553",
"2. c #65774A",
"3. c #646A5A",
"4. c #64735C",
"5. c #687858",
"6. c #73775C",
"7. c #78704F",
"8. c #5A7565",
"9. c #4D7061",
"0. c #647563",
"q. c #6A7562",
"w. c #657A64",
"e. c #6B7B64",
"r. c #647C6B",
"t. c #6C7D6A",
"y. c #68776A",
"u. c #717B64",
"i. c #737E6A",
"p. c #787968",
"a. c #657E70",
"s. c #75746D",
"d. c #861E01",
"f. c #980B01",
"g. c #AB0900",
"h. c #BA0901",
"j. c #B11400",
"k. c #912102",
"l. c #B82903",
"z. c #A72702",
"x. c #C50800",
"c. c #D70800",
"v. c #CB1101",
"b. c #E50900",
"n. c #F40800",
"m. c #FE0900",
"M. c #FD1401",
"N. c #F91B01",
"B. c #C82D03",
"V. c #D93203",
"C. c #D92F03",
"Z. c #FA2302",
"A. c #F72B02",
"S. c #E43303",
"D. c #ED3503",
"F. c #F53603",
"G. c #F63904",
"H. c #F83103",
"J. c #EF2302",
"K. c #854900",
"L. c #946900",
"P. c #A47700",
"I. c #877A6C",
"U. c #85746D",
"Y. c #5C841C",
"T. c #638F16",
"R. c #5B8324",
"E. c #598534",
"W. c #648728",
"Q. c #689525",
"!. c #6D9133",
"~. c #70A31C",
"^. c #55884E",
"/. c #6C8449",
"(. c #6E8254",
"). c #758658",
"_. c #72914A",
"`. c #59896A",
"'. c #4A8673",
"]. c #6C826A",
"[. c #75836B",
"{. c #7B846D",
"}. c #7D8A6D",
"|. c #778366",
" X c #6C8372",
".X c #658273",
"XX c #738573",
"oX c #7A8673",
"OX c #758975",
"+X c #7C8A74",
"@X c #7C8D7A",
"#X c #758979",
"$X c #699A7B",
"%X c #7B9677",
"&X c #7F956D",
"*X c #B88F00",
"=X c #85AE2A",
"-X c #83B21A",
";X c #EAB800",
":X c #DCAF00",
">X c #F4C300",
",X c #85896D",
"<X c #869569",
"1X c #838C74",
"2X c #8A8C74",
"3X c #838D7A",
"4X c #888878",
"5X c #958B77",
"6X c #85927C",
"7X c #8B947C",
"8X c #899475",
"9X c #93947C",
"0X c #97977B",
"qX c #A6957C",
"wX c #A5A671",
"eX c #929F6F",
"rX c #75A48A",
"tX c #7E9080",
"yX c #8B9582",
"uX c #8C9984",
"iX c #879683",
"pX c #939B84",
"aX c #9B9C83",
"sX c #959E8A",
"dX c #999884",
"fX c #8A8E81",
"gX c #A49B83",
"hX c #AA8E83",
"jX c #9AA38B",
"kX c #97A48A",
"lX c #9BA591",
"zX c #82A996",
"xX c #A3A58C",
"cX c #AAA58A",
"vX c #B1A88E",
"bX c #A5AC94",
"nX c #ABB39C",
"mX c #A7B196",
"MX c #B4B59C",
"NX c #B1AC95",
"BX c #B4BAA2",
"VX c #BABBA2",
"CX c #AFB8A0",
"ZX c #C29D95",
"AX c #CEB0A2",
"SX c #CCB199",
"DX c #B9C1A4",
"FX c #C5C4AA",
/* pixels */
"  w A A A k k i z r q p p 1 = i 1 q q q a T.T.m B -XT.w m q q k a k p = k k l i e q = m q * * & w   ",
"  9XcXqXhXgXMXq.x @.,XgX0XI.4X,XI.Z @.yXpXP P |.(.Q.J 7X@.w ,X0X9X7X>.5.dXoXi.oX .e J ].OXw.,.%.q   ",
"  xXcXvXvXxXcXi.a F dXgXqX0X5X5X,XZ k aX0X).7X,X|.e.OX6Xy.p 8X9X,X).7X[.1X{.[.t.) @.1.J ].<.&._ :   ",
"  0XvXMXMXNXbXoXC F 9XSXgX0X0X4X4XZ k aX0X8X4.[.|.&.-.oX,.i ,.e.}.2X{.|.q.i.i.t./ _ (.3XOX&.%.( y   ",
"  6.2XBXnXnXbXyXC V ..7.3.#.O.{ l j S 6X9X8X .5.}.[.[.0.d q j 6X1XoX{.i.=.0.0.,.g J `.e.,.;.! t h   ",
"  {.xXnXnXnXmXpXC W.K A A A A  .C D -.}.8X}.e.8X+X}.OXXXw.i 4.oX[.[.i.w.:.y.t.:.c D ).%.^ E ~ h ^.  ",
"  5.VXnXnXbXlX#Xa <XFXFXAXVXBXVX7XC K }.}.|.|.+X}.OX@XXX8.2 0.t.e.e.w.,.i.0.:.;.g N _.2.#.[ 1.E._.  ",
"  >.i.XXoX:.o.l s 8XDXMXBXBXBXBX{.k J {.i.4.+Xi.y.i.t.y.a.d ) y.0.0.;.[.4.:.;.*.g s _.).(.2.P Y.Q.  ",
"  N p 1 p p e M F eXMXVXBXBXBXCXoXa J s.} < 9 $ $ $ $ # 3 O.| Q _ g d { / / Q 2 t A xXaX9X8X4.:.P   ",
"  H wXqXqXvXvXqXF 2XMXVXCXCXCXCX+X..3 % d.B.C.S.S.S.S.l.5 X o Z *.& & & & & ; y r A xXxXsXyXyX#X'   ",
"  ,XAXgXqX5X5X2XS 1XmXmXnXbXCXnXs.$ 7 C.N.M.M.M.M.M.Z.A.D.B.d.O X 3 +.I M C s C B P kXjXsXyX@X8.`   ",
"  6.vXgX5XqX5Xp.3 4.xXyXfXlXnXO.4 l.N.m.m.m.m.m.m.m.m.m.M.A.F.S.z.4 X o 9 { 9 3 S F dXkXuX6X#X#X(   ",
"  6.qX5X9X5X1X#.q C 1 2 { 2 } + v.m.m.m.m.m.m.m.m.m.m.m.m.m.Z.G.G.S.k.X . X 3 } Z C uX7XfXiXtX#XX.  ",
"  3.aX5X9X1XI.3.p F I $.K ..$ x.m.n.x.g.x.n.m.m.m.m.m.m.m.m.m.Z.D.d.X 3 s.5XdXs.j D x g Q ! g g g   ",
"  { 4X5X2XdXu...p 2XAXMX0Xs.8 n.b.k.L.*XL.j.m.m.m.m.m.m.m.m.m.M.S.5 . { U.5X5XU...2.P A C C a D v   ",
"  q j j j 2 j 1 w ,XbX0XcXZ g.n.j.P.:X>X;XK.b.m.m.m.m.m.m.m.m.m.H.S.f.6 % @ @ X X } VXcX7X3Xq.5.g   ",
"  B F K #.#.K N V 3.oXNXlX# h.n.g.L.*X>X;X0 b.m.m.m.m.m.m.m.m.m.G.G.F.D.S.V.z.+ o U.9XI.p.3.3.:.(   ",
"  2.vXcXgXgXdX..F ..u.bXlX# c.m.c.7 U P.K.h.n.m.m.m.m.m.m.m.m.m.H.G.G.G.D.d.O o U.2.2Xp.q.=.=.o.g   ",
"  2XNXgXqX0X7X .J xXsXjXsX# c.m.m.c.j.j.c.n.m.m.m.m.m.m.m.m.m.N.H.G.G.G.S.+ . +.AX,Xp.q.:.,.;.| :   ",
"  |.xXdXpXuX+X| K jXsXy.fX# h.m.m.m.m.m.m.m.m.m.m.m.m.m.m.M.H.F.G.G.G.G.G.k.+ o s.hX5X5.0.;.X.( Y   ",
"  6.jXpXuXiXOX .@.r.X.d @.3 f.m.m.m.m.n.x.n.m.m.m.m.m.m.m.A.F.G.G.G.G.G.G.G.B.7 + $ } 3.{ g W W Y   ",
"  ..1X7X@X@XXX .$.@.i p N >.6 b.m.m.n.g.6 b.m.m.m.m.m.m.m.M.N.A.F.F.D.S.B.l.l.l.z.d.4 O . X o } s   ",
"  k  .-.-.-.=.x W.Q.!._.I F # h.n.n.g.+ g.m.m.m.m.m.m.m.m.m.M.Z.N.v.8 + o X O X X @ 4 O . . 9 u.P   ",
"  B N B V G 2._.Q.=XQ._.<X5.+.6 c.8 + f.n.m.m.m.m.m.m.m.m.m.Z.S.5 X . Z qXZXZXZXhXU.+.+.3.fXdXfXoX  ",
"  2.kX_.E._.W._.=X=X!.mXxX+X@X- f.x.c.m.m.m.m.m.m.m.m.m.m.m.A.F.l.d.5 @ } AXSXwX!./.pXyX[.[.8X6XXX  ",
"  3XpXkX6.(.BXbX#.).mXxXjXkXA 3.@ j.M.m.m.m.m.m.m.m.M.M.Z.F.D.V.V.B.V.z.X - 7.H W.P 6XiX@X6XoX Xt.  ",
"  4.}.w.x kXlX}. .jXbXjX8X>.0X1XO.@ d.S.A.Z.N.Z.Z.A.S.B.k.7 6 X X X X O O . } sXdXA =. .@X@X X X;.  ",
"  =.kX6Xw.d x 8XkX4.+X$.(.jX0X0Xi.s.- % 5 7 d.7 8 5 O X X # } #.4XfXI.4X{ o } @XXX .`.*. X X.X].*.  ",
"  d / g r 2 7X7X2X5.nXmXjX0X9X8X8Xe.i.3.s.3 < < < < Z p.6XP W.E.pXjXlXkXiXfXfXoX].k E.&X0.*.%.` x   ",
"  s w  .J R.,X2X}.}.nXmXbXkX6X,X[.i.=.5.t.,.>.O.o.2 V Q.W.E.Q.I 9XsXuXuXiX@XOX8._ p Y.W.E.E.P P E.  ",
"  2.2X).<X2.|.|.|.@.[.kXkXuX6X].e.4.:.&.,.=. .l 2 ; K <X,X2X#.H k / &.:.;.-./ @.a D <XeXpX7X3XuX<.  ",
"  u.0X2X9X=.#.i.].6X|.+XuX%XoXe.<.-.| ; 2 a 1 ; ; ; ,X2X2Xp.#.w M s s C G Q.R.G Y./.kXuX1XoX[.XX|   ",
"  6.5.3.{. .D  .+X[.e.4. XXX].,.X.f : * * m e p 5.2X6.).u.q.>.w 2.).).(.2._.E.$.D K 7X6XOXoX]..X*.  ",
"  7X9X4XoX .C x ].y.0.o.l 9.E : ; * e N B G 6.2X0X,Xp.5.0.4.-.D 8X1X|.i.0. .XX:.j  .@X@X@X X X X%.  ",
"  oX1X+X[.:.s a 9.r.8.( ; ; & q w F H H T.<XqX2.p.u.5.3.=.;.&.1 q.t.e.w.,.2 ,.*.g x #X#X#Xa. X X%.  ",
"  [.+X+XoX .D G ; : , & q e 2.jXxXlXpXlXA #.7X8X#.5.>.=.../ ! ; -.w.:.=.^ ,.l _ f 2 &.;.8.8.] ( ~   ",
"  y.XX#X].L Y.T.w 1 c D V W.MXpX7X6X+Xi.k J +X3.5.>.>.o.o.o.2 ; | 8.*.].;.*.1.( > i q q ; ; = = r   ",
"  i j x J !.W.<X<X<X<X5.P H 3X6X3X+XXXr.l x y.3.4.=.| ;.*.X.( i d ) ].&.%._ ( R y a H OXi.8.*.` c   ",
"  2.uX3XOX#.5.jX0XpXdXxX:.N +X6XOXOXXXr.j a ,.;.=.o.! g %.) ~ ; L %.9.] _ ~ ~ Y y 1.L :.*.X.) ( f   ",
"  +X3X].w. .3.9X7X8X6XyX! s #XOX X.X.X;.` a %.;.| ) ( f R W Y R rX.X%.' ( ~ Y T n E.@.X.X.) ~ W >   ",
"  1. Xw.8./ :.7X6X3X+XXX! e 9.r.8.r.#X8.x v t ] ' W ~ Y ; r y z %X$X`.' ~ [ 1.`.^.$.4.` ( E W R r   ",
"  h l Q ^ @.,.@X@X@X#X.X^ w p 1 1 2 2 ; w G ; > Y T Y u r c n E.Q.$X).E.E.Q.Q.`.'.b d r c r y z R.  ",
"  D E.2.E.R.<.OXOXXX.X.XQ s <X<X}.e.0.,.1.C D c : r c v R.E.8X<X(.].%X&X)./.$.<.` G G G R.D D G W.  ",
"  2.5.<X2.D @.XX8.8.a.8.~ d jX[.q.:.=.*.%.i <.L <.2.$.L Y.].uX[.].`.r.r.;.1.X.) h a &X}.|.5.e.<.x   ",
"  1XlXoX0.p a f ^ ^ ] Y T h 1X0.;.&.X.' ) 2 @.sX3X+XiXX.s e.q.3.<.@.,.;.o.| ( ~ > x t.t.,.;.*.*.W   ",
"  w.oX0.<.l a v x ` 9.~ n c oX=.o.X.) ( W :  .@X+X#XXX%.q x :.-.&.&./ | ` ( E W t l y.0.;.*._ ` R   ",
"  / =.:.&.OX,.*.$.`.`.rXn v  .X.X.) Q W R : x @X#X Xr.%.i @.| &.X.( E ) ^ E R z y A ;.o.X.) ) E 2   ",
"  -./ | r.;.%.' ~ b rXrX'.J #XX.( Q W W > : / #X Xa.a.%.i @.@.( W W f f R R ~ y 1.@.| X.) ( ( ( Y   ",
"  x ` h .X*.' ' ~ ] rXrX1.n ~ T ~ f R t ^ i <..X.X X8.f c %._ ~ 2 f t t R T T 9.$Xb ` ` ( ~ ~ ~ t   ",
"  V R.s z ' ] ] [ ^.Q.E.rXE.q * ; ; ; r c w 1.' ( ( ( 1.E.c , , , ; u u v ~.G ^.^.n i * r ; = r n   "
};
