/* XPM */
static char *out[] = {
/* columns rows colors chars-per-pixel */
"50 50 248 2 ",
"   c None",
".  c #0A0605",
"X  c #180A06",
"o  c #1C110F",
"O  c #1D1614",
"+  c #290B04",
"@  c #360A04",
"#  c #261916",
"$  c #2D110A",
"%  c #1A371C",
"&  c #152C1B",
"*  c #223C1D",
"=  c #2D231F",
"-  c #193827",
";  c #1C3B33",
":  c #173B36",
">  c #112E27",
",  c #253B29",
"<  c #3A3532",
"1  c #2E2D29",
"2  c #480802",
"3  c #481605",
"4  c #551301",
"5  c #560502",
"6  c #661901",
"7  c #791B01",
"8  c #700703",
"9  c #6B3000",
"0  c #433C36",
"q  c #512800",
"w  c #264618",
"e  c #37591A",
"r  c #2F5018",
"t  c #1C442B",
"y  c #1C423C",
"u  c #194537",
"i  c #0F4031",
"p  c #294626",
"a  c #334827",
"s  c #3B542C",
"d  c #385725",
"f  c #23433C",
"g  c #294637",
"h  c #344333",
"j  c #3B4D33",
"k  c #364B39",
"l  c #245236",
"z  c #395539",
"x  c #2A5229",
"c  c #3B6326",
"v  c #3A6637",
"b  c #356935",
"n  c #295112",
"m  c #48691B",
"M  c #4F7417",
"N  c #597B1D",
"B  c #425C2C",
"V  c #46463D",
"C  c #48593A",
"Z  c #4B5038",
"A  c #466926",
"S  c #556E28",
"D  c #4D7725",
"F  c #577626",
"G  c #496538",
"H  c #576A39",
"J  c #4B7436",
"K  c #5A7936",
"L  c #627E33",
"P  c #5E4F0F",
"I  c #1A4A43",
"U  c #1B5447",
"Y  c #254B44",
"T  c #2B4C44",
"R  c #2A4945",
"E  c #334E44",
"W  c #2A5349",
"Q  c #345344",
"!  c #3A5344",
"~  c #34534B",
"^  c #3A554C",
"/  c #3D5B4D",
"(  c #365A48",
")  c #3A5C50",
"_  c #3A6455",
"`  c #3D6B4A",
"'  c #4A4A44",
"]  c #435B4D",
"[  c #495C4D",
"{  c #455845",
"}  c #535849",
"|  c #445D52",
" . c #4B5E52",
".. c #585B53",
"X. c #574843",
"o. c #705851",
"O. c #476548",
"+. c #576747",
"@. c #57774A",
"#. c #446254",
"$. c #4C6354",
"%. c #4A6657",
"&. c #536554",
"*. c #546A55",
"=. c #546B5B",
"-. c #5B6D5B",
";. c #596856",
":. c #5C725D",
">. c #597558",
",. c #487553",
"<. c #66784A",
"1. c #64695A",
"2. c #63735C",
"3. c #687858",
"4. c #74765A",
"5. c #79615D",
"6. c #5A7565",
"7. c #4D7061",
"8. c #647563",
"9. c #6A7562",
"0. c #657B64",
"q. c #6B7B64",
"w. c #6B7D6A",
"e. c #657B6A",
"r. c #717C64",
"t. c #737E6A",
"y. c #777967",
"u. c #657E70",
"i. c #70726B",
"p. c #870702",
"a. c #970900",
"s. c #851C02",
"d. c #931901",
"f. c #B40B00",
"g. c #AF1101",
"h. c #8D2002",
"j. c #9B2402",
"k. c #A72602",
"l. c #B52902",
"z. c #D90800",
"x. c #C70700",
"c. c #EC0800",
"v. c #E60900",
"b. c #F50900",
"n. c #FE0900",
"m. c #FD1400",
"M. c #FB1B01",
"N. c #F41600",
"B. c #D83203",
"V. c #D12C03",
"C. c #F72902",
"Z. c #EA3503",
"A. c #F53503",
"S. c #F63904",
"D. c #F83103",
"F. c #8A5C00",
"G. c #8E796E",
"H. c #9D4E49",
"J. c #5B841C",
"K. c #638F16",
"L. c #5B8324",
"P. c #598534",
"I. c #658628",
"U. c #689625",
"Y. c #68863A",
"T. c #6F9530",
"R. c #70A31C",
"E. c #55884E",
"W. c #6C8448",
"Q. c #738947",
"!. c #6E8254",
"~. c #758658",
"^. c #72944B",
"/. c #59896A",
"(. c #4A8673",
"). c #6D816E",
"_. c #6C8364",
"`. c #75836B",
"'. c #7B846D",
"]. c #7D8A6D",
"[. c #778366",
"{. c #6C8372",
"}. c #658273",
"|. c #738473",
" X c #7A8672",
".X c #7C8A74",
"XX c #7C8D79",
"oX c #758977",
"OX c #699A7B",
"+X c #7B9677",
"@X c #7F956D",
"#X c #B18500",
"$X c #85AE2A",
"%X c #83B21A",
"&X c #C59A00",
"*X c #D3A800",
"=X c #E9B800",
"-X c #FAC800",
";X c #869152",
":X c #828B6E",
">X c #86896B",
",X c #869569",
"<X c #838C74",
"1X c #8A8C74",
"2X c #838E7A",
"3X c #898976",
"4X c #958D77",
"5X c #85927B",
"6X c #8B947C",
"7X c #899376",
"8X c #93947C",
"9X c #97977B",
"0X c #A6957C",
"qX c #9DA27E",
"wX c #75A48A",
"eX c #8C9A84",
"rX c #899682",
"tX c #939B83",
"yX c #9B9C83",
"uX c #989B87",
"iX c #898F81",
"pX c #A49A83",
"aX c #AE8C85",
"sX c #9AA38C",
"dX c #96A38A",
"fX c #9CA691",
"gX c #82A996",
"hX c #A2A58B",
"jX c #AAA489",
"kX c #B1A88E",
"lX c #A4AB93",
"zX c #A9AD94",
"xX c #A4A894",
"cX c #ABB39B",
"vX c #A7B196",
"bX c #B4B59C",
"nX c #B4A994",
"mX c #B4BAA2",
"MX c #BBBDA2",
"NX c #B1B4A1",
"BX c #B7B1A0",
"VX c #CDA39B",
"CX c #E7BAB1",
"ZX c #C5B7A0",
"AX c #B9C1A4",
"SX c #C5C4AA",
"DX c #F7C6BD",
"FX c #FBC9C0",
/* pixels */
"  e Z C C j j , l t w a a , w p , w w w a K.K.n M %XK.e n w * s j j p * j j k a r r % n w % % & e   ",
"  8XjX0XpXpXbXy.z O.>XpX9XG.3XG.y.' C eXdXK K ].!.K.G eXO.e >X9X8X6X+.9.uX:Xt. X{ w O._.oXe.>._ w   ",
"  hXkXjXjXhXjXt.s S 0XpX0X9X4X3X].V j sX9X~.6X:X[.q..X5Xq.a 7X8X>X~.7X[.3X'.`.w.{ O.@.G _.:.%./ ;   ",
"  9XkXbXbXbXlX XB S 4XBXyX9X8X4X3XV j yX9X<X3.'.`.*.*.|.:., 2.q.].7X X`.9.t.t.e.E ` 2.XX].$.| ~ u   ",
"  4.1XNXbXcXlXrXs N } 4.o.;.} { k h B 2X8X:X{ 2.].[.`.2.h p h 5X<X X'.`...8.8.-.E s _.).:.%.Q y l   ",
"  ].hXNXcXvXvXtXB I.L Z C C C C s S *.].7X:Xr.7X2X.X.X|.0.p 2. X'.|.w.9.-.w.e.:.s A _.#.Q T g g E.  ",
"  3.mXzXcXfXfXoXs ,XSXAXMXbXAXAX5XC H ].<X'.q.1.....V 0 0 < < ' ..w.w.:.`.8.-.=.g A T.<.+.` ,.E.^.  ",
"  ;.|. XoX-...k d 7XSXbXMXMXmXmX'.s G [.r...= 3 6 s.h.h.h.s.2 + X < 1.`.0.-.&.&.R e !.~.!.W.K J.U.  ",
"  m a , a a a e N 4XbXMXmXAXmXmX Xj +.y.1 3 k.Z.D.C.C.M.D.S.A.V.p.+ X V i.[ E g y C hXyX8XiX8.6.H   ",
"  F qX0X0XnXkX0XS 1XbXbXNXNXNXcX.Xz t.# s.B.C.M.n.n.n.n.m.C.S.D.A.B.h.+ X # < ' 1.y.uXuXiXiX1.i./   ",
"  4.ZX0X0X4X4X1XB <XvXvXcXvXcXNXiX..$ g.N.n.n.n.n.n.n.n.n.M.D.D.S.S.S.Z.l.s.4 + + o o o o X . ' !   ",
"  G.kXjX4X0X4X4., 3.fX6XiXfXfXy.1.+ f.b.n.n.n.n.n.n.n.n.n.n.n.m.M.D.S.S.S.S.Z.Z.B.V.l.l.s.X = y.~   ",
"  4.0X4X4X4X3X..a B , h ' , , k < p.n.n.v.d.7 a.b.n.n.n.n.n.n.n.n.M.S.S.A.A.S.D.S.S.Z.k.+ = i.wX|   ",
"  1.pX8X8X<Xt.4.* S K +.H ;.C } @ z.b.f.P *X*X#Xa.n.n.n.n.n.n.n.n.n.m.C.S.A.C.M.A.V.6 X 1 } E ; g   ",
"  ' 3X7X3XiXr.} Z >XZXbX9XzXpXi.5 c.c.6 #X*X-X=X9 v.n.n.n.n.n.n.n.n.n.n.C.B.V.k.7 + = 1.C B d B c   ",
"  w h < h h h , r >XkXqXzXzXxX} 8 b.N.6 #X*X-X=Xq c.n.n.n.n.n.n.n.n.n.m.l.+ + X $ o.VXjX6X3Xq.9.g   ",
"  M S H +.+.H M M 2.].vXzXxXsX' 8 b.m.f.q F.#XF.f.b.n.n.n.n.n.n.n.n.n.m.Z.l.h.4 3 5.pXG.y.1.2.-.~   ",
"  W.kXjXpXpXuX} S } r.lXlXfXeX' p.b.n.b.x.f.f.z.b.n.n.n.n.n.n.n.n.n.M.D.B.6 @ + # 5.nXy.9.&.&.[ f   ",
"  1XnXpX0X9X5X{ H sXuXfXfXuXeX' 8 b.n.n.n.n.n.n.n.n.n.n.n.n.n.n.n.C.C.j.@ . 0 G.VXCXCXG.2.:.=.] ;   ",
"  [.hXyXtXrX.X[ +.yXuXw.eXrXw.[ 2 c.n.n.n.n.c.z.n.n.n.n.n.n.n.n.m.Z.j.X X H.CXDXFXFXDX3Xe.*.] T I   ",
"  4.dXtXeXrXoX{ O.e.] g #.] z { $ x.n.n.n.b.f.5 n.n.n.n.n.n.n.n.M.Z.2 . 5 H.VXVXaXaXG.5.1.; : : I   ",
"  } .XeX5XXX|./ @.O.p x m - g O.0 8 b.n.b.x.2 p.n.n.n.n.n.n.n.n.m.Z.h.+ + X o X . . X V < - % w r   ",
"  j C *.=.*.*.C I.T.T.Y.L.F F W.i.@ z.c.a.@ 8 c.n.n.n.n.n.n.n.n.n.m.D.Z.B.l.d.X . O G.3.H H <.<.K   ",
"  M m M M D <.Y.U.$XT.^.,X<.MXkXuX0 8 f.5 a.c.n.n.n.n.n.n.n.n.n.n.M.C.Z.V.s.+ o o.8X[.:X2.eXtX5XXX  ",
"  <.dXQ.Y.^.I.Q.R.$X^.vXjX@X6XhXpXt.$ g.b.n.n.n.n.n.n.n.n.n.m.M.C.B.k.4 X X 0 ;X;X!.tXrX`.`.5X5Xt.  ",
"  3XdXtX3.!.AXvX+.~.vXjXdXdXV 8XuXuX..$ k.C.m.m.n.n.n.b.M.C.S.V.7 @ . O X.y.Q.N J.L 5X5XXX5X.X).w.  ",
"  2..X_.z dXdX|.{ hXzXsX7X*.9X,XtX6X3X} + 6 V.Z.C.D.C.C.Z.V.7 + . = i.pXbXzXxXdX9XC *.] XXXX|.{.=.  ",
"  &.tX5X_.g z 7XdX2..X@.~.uXdX9X[.5X X8.i.< # @ 3 4 6 4 + X o = ..uXuXuXtXuX2XXX{.{ /.%.{.{.{.}.%.  ",
"  g ! k t , 6X6X1X3.cXvXfX9X9X7X7Xr.`.C q.9.1.i.' < < 0 Z 1.Y.K uXsXsXdXeX5XXX|.).s P.@X6.%.O.! (   ",
"  d d { G L.<X3X]..XcXlXfXdX7X.X'.r.$.2.q.2.&. .[ h F T.I.Y.T.L rXuXeXeXrXXX|.6./ a J.I.Y.P.K J L.  ",
"  <.>X~.,X<.[.[.[.O.[.dXdXdX5X[.r.2.;.$.2.&.{ E ; ; H ,X4X>X+.S k E $.-.=.>.( { s A ,XqXtX7X2XeX>.  ",
"  y.8X3XtX;.+.r._.5X`..XrX+X|.q.>.*.] - ; s , % , * ~.4X>Xy.;.e m e d B D U.L.D J.W.dX6X2X X`.|.]   ",
"  3.4.2.'.{ G [ .X`.q.3.{.{.).:.] g : & % n r a 3.1X~.[.9.9.-.d W.~.~.3.<.^.W.H A @.rX5XoX X).w.%.  ",
"  5X4X3X].} e z ).0.8. .k 6.g ; - % r m M D 4.>X9X>X~.1.9.2.+.A <X<X'.[.0.{ w.:.k C 2X2XoX|.}.{.#.  ",
"  .X<X X|.;.A s 7.e.6.Q ; > % * e S S N K.,XhX<.y.9.2.1.&.-.$., 8.`.q.8.:., =.%.; ! oXoXoX}.{.{.#.  ",
"  `..XoX).[ A D - ; > & w r <.sXxXfXuXfXC +.4X7X+.4.;.;. .! E - *.8.:.$.! =.z / f , $.7.6.6._ ~ W   ",
"  0.|.oX).J J.J.e p p m J.N NXsX6X5XoXw.k G .X2.3.;.&. . . ., - ] 6.%.).:.#.,.^ ; t w p - , % * t   ",
"  a h z J Y.I.,X,X,X,X!.K F 5X3X2X.X Xe.k s i.1.2.&.[ &.%.| Q p p / ).$.#./ W Y u d F .Xt.6.%.( x   ",
"  <.rX5X'.+.3.yXtXtXtXxX1.A XXXXoX|.|.e.k s 6.*.$.[ E T | ) R ; @.#.7._ / ~ W I y ,.J -.%.| ^ ~ f   ",
"  .X2Xw.8.{ 2.8X6X5X5XiX! e oXoX|.}.}.7.! d #.=.| ] E R R R I Y OX}.#.) ~ Y U U b L.O.| | ^ W Y :   ",
"  ,.|.8.6.! -.5X2X2XXX|.E r =.u.6.}.oX6.z c y _ ) E W I - t l l +XOX/.) _ _ ` /.E.E./.! ~ T R y t   ",
"  f k k ( O.:.5XXXXXoX}.Q e a , , , , - d D - : I U I u t x b J U.OX_.P.P.U.R./.(.O.g - a u y l L.  ",
"  A K E.K L.>.oX|.{.}.u.W d ,X:X'.w.2.6.@.c m t ; t x c L.J 7X,X^._.+X,X!.E.@.>.z D D M L.m A D J.  ",
"  <.3.,XW.A O.{.6.e.u.6.W a sX[.9.-.&.%.#.f >.K >.<.@.J J._.eX`.oX>.0.).=.%.| ^ f s ].@X_.3._.>.C   ",
"  2XfX'.8.a s g ( Q _ y U g `.8.;.$.| ) ^ , O.uX2X.XrX#.e q.9.2.=.O.:.=.[ ] E R : z w.w._.=.%.$.R   ",
"  8. X8.=.z c s v ( 7.Y b z  X&. .| ^ ~ R ; { XXoX X{.#.p z -.*.%.$.! / ^ ~ ~ R : z i.8.=.#.) ^ R   ",
"  z *.=.$.|.-.,.@././.wXv c { #.| ^ E R Y ; { oXoX{.w.#.w { ] $.| ~ E ~ E W Y l y z =. .| ^ ^ ~ :   ",
"  ;.! ] u.=.| ) W z gXwX(.v oX| ~ ~ R R : ; ! oX{.u.u._ x O.$.Q E R f f Y Y W l ,.O.] | ^ ~ ~ R I   ",
"  ! ( g }.#.) ) W _ wXwX(.c W Y W Y Y u Q p >.u.}.}.u.f z ` ) W f f f y Y U u 7.OXb W ( ( W W W y   ",
"  J.L.d l ) _ _ ` E.U.P.OXP.w % - - - t x e ,.) ( ~ W O.P.p > > > > i i c R.D E.E.J t * t - * t b   "
};
