/* XPM */
static char *out[] = {
/* columns rows colors chars-per-pixel */
"50 50 245 2 ",
"   c None",
".  c #1A0806",
"X  c #1A1616",
"o  c #180F0D",
"O  c #260805",
"+  c #3A0803",
"@  c #37140A",
"#  c #291A17",
"$  c #331612",
"%  c #162C1A",
"&  c #19351C",
"*  c #2B211D",
"=  c #223C1D",
"-  c #352210",
";  c #142E24",
":  c #193828",
">  c #1B3C33",
",  c #173B36",
"<  c #372A26",
"1  c #253B28",
"2  c #2F362F",
"3  c #460B02",
"4  c #530905",
"5  c #49140A",
"6  c #571405",
"7  c #5F1B1A",
"8  c #6F0E01",
"9  c #4C250E",
"0  c #733900",
"q  c #473430",
"w  c #264718",
"e  c #37591A",
"r  c #2F5117",
"t  c #3A6315",
"y  c #1C442A",
"u  c #1C423B",
"i  c #194436",
"p  c #0F4031",
"a  c #2D4A23",
"s  c #284528",
"d  c #324424",
"f  c #344929",
"g  c #395422",
"h  c #385628",
"j  c #2B4434",
"k  c #23443D",
"l  c #2A443A",
"z  c #284737",
"x  c #334334",
"c  c #3B4E33",
"v  c #364B39",
"b  c #245236",
"n  c #3B533A",
"m  c #395638",
"M  c #2A5229",
"N  c #3B6326",
"B  c #3A6637",
"V  c #356935",
"C  c #1E4015",
"Z  c #435C1E",
"A  c #496A1B",
"S  c #4F7317",
"D  c #5A7B1D",
"F  c #516B1F",
"G  c #435C2C",
"H  c #435828",
"J  c #46493A",
"K  c #48583A",
"L  c #404C2F",
"P  c #466826",
"I  c #546D28",
"U  c #4D7725",
"Y  c #557323",
"T  c #597828",
"R  c #496538",
"E  c #576939",
"W  c #4B7436",
"Q  c #5A7936",
"!  c #66601D",
"~  c #1A4A43",
"^  c #1B5447",
"/  c #254B44",
"(  c #2B4C44",
")  c #2A4945",
"_  c #334D43",
"`  c #364E45",
"'  c #295349",
"]  c #345345",
"[  c #3B5344",
"{  c #34534A",
"}  c #3A554C",
"|  c #3C5B4E",
" . c #365A48",
".. c #3A5C50",
"X. c #3A6455",
"o. c #3D6B4A",
"O. c #484B45",
"+. c #445544",
"@. c #435B4D",
"#. c #465A47",
"$. c #545A4A",
"%. c #445D52",
"&. c #4B5E52",
"*. c #565C54",
"=. c #554B48",
"-. c #665A55",
";. c #476547",
":. c #566747",
">. c #58764A",
",. c #446254",
"<. c #4C6354",
"1. c #4A6758",
"2. c #536554",
"3. c #546A55",
"4. c #5C6B54",
"5. c #546B5B",
"6. c #5B6D5B",
"7. c #586557",
"8. c #5C725D",
"9. c #587558",
"0. c #49754F",
"q. c #657849",
"w. c #64695A",
"e. c #64735C",
"r. c #687858",
"t. c #737459",
"y. c #546E62",
"u. c #5C7363",
"i. c #597767",
"p. c #427862",
"a. c #647563",
"s. c #6B7562",
"d. c #657A64",
"f. c #6B7B65",
"g. c #647C6A",
"h. c #6C7D6A",
"j. c #717C64",
"k. c #737E6A",
"l. c #767765",
"z. c #657E70",
"x. c #736C63",
"c. c #911401",
"v. c #AA1601",
"b. c #B41004",
"n. c #982F00",
"m. c #B82500",
"M. c #A42000",
"N. c #C91300",
"B. c #E71901",
"V. c #FC1700",
"C. c #D82900",
"Z. c #C32701",
"A. c #EB2D00",
"S. c #E42900",
"D. c #FF2800",
"F. c #E93100",
"G. c #F33200",
"H. c #FE3300",
"J. c #FE3B00",
"K. c #8B5000",
"L. c #A27300",
"P. c #FF4300",
"I. c #FF4900",
"U. c #827B6C",
"Y. c #867D71",
"T. c #805D49",
"R. c #C44744",
"E. c #5B841C",
"W. c #639113",
"Q. c #5B8324",
"!. c #598534",
"~. c #658827",
"^. c #689627",
"/. c #6C9034",
"(. c #70A31C",
"). c #55884E",
"_. c #6B8448",
"`. c #6E8254",
"'. c #758658",
"]. c #72914A",
"[. c #59896A",
"{. c #4A8673",
"}. c #6B826B",
"|. c #748365",
" X c #75836B",
".X c #7B846C",
"XX c #7D8A6D",
"oX c #7A8467",
"OX c #6C8372",
"+X c #658273",
"@X c #738573",
"#X c #7A8573",
"$X c #758975",
"%X c #7B8A74",
"&X c #7D8D7A",
"*X c #758979",
"=X c #699A7B",
"-X c #7B9677",
";X c #7F956D",
":X c #85AE2A",
">X c #83B21A",
",X c #CFA900",
"<X c #E1B000",
"1X c #86896D",
"2X c #869569",
"3X c #838C74",
"4X c #8B8C74",
"5X c #848E7A",
"6X c #888875",
"7X c #978E77",
"8X c #85927C",
"9X c #8B937C",
"0X c #899375",
"qX c #93947C",
"wX c #98967B",
"eX c #94856D",
"rX c #A5957C",
"tX c #97A073",
"yX c #75A48A",
"uX c #7E9080",
"iX c #8C9984",
"pX c #899683",
"aX c #939B84",
"sX c #9B9C83",
"dX c #959E89",
"fX c #979884",
"gX c #A59B85",
"hX c #9BA38B",
"jX c #98A48B",
"kX c #9BA592",
"lX c #82A996",
"zX c #A2A58B",
"xX c #AAA58A",
"cX c #B1A88E",
"vX c #A5AB93",
"bX c #A7AA94",
"nX c #AAB299",
"mX c #B4B49B",
"MX c #B8AE97",
"NX c #B5BAA2",
"BX c #BABBA2",
"VX c #AFB8A0",
"CX c #C5B7A0",
"ZX c #B9C1A4",
"AX c #C5C4AA",
/* pixels */
"  e K K K x f d b y w d d 1 = d 1 w w w f W.W.r S >XW.t C C w h c c 1 = c c x a r w C r w & & & t   ",
"  qXxXrXgXgXmXl.m ;.1XxXrXl.6X6XU.J K iXaXQ Q oX`.W.R 9X:.g 1XsX7X9Xw.r.dXXX.X#X+.a R }.&Xg.9.,.=   ",
"  zXcXxXcXxXbXl.L I wXgXgXwXqX6X1Xn c hXwX'.9X3X Xd.%X8Xh.f 0X9X2X'.9X X6XoX Xh.+.;.0.R d.8.1.| >   ",
"  wXcXmXnXnXbX#XH I 7XCXrXwXqX4X6XJ c sXsX3Xr..X X3.3.$X8.1 e.f.XX3XXX|.s.k.k.g.` o.r.&X$X2.%.( >   ",
"  t.6XVXmXnXbXiXg D :.t.-.w.$.O.v 2 h 0XqX3X#.r.XX X Xa.j w x 5X3X#X.Xk.2.a.a.6._ G r.}.u.5.] / b   ",
"  .XzXVXnXnXnXaXH ~.E K K K K K H E 3.1X0X3X|.9X%X%X%X@Xd.s e.%X X Xk.d.6.f.h.6.M P }.;.] ( ( b ).  ",
"  s.BXnXnXkXkX*Xh 0XAXAXmXZXBXAX0XR 4.oX1X6XY.l.l.k.&X@Xa.j a.h.f.f.f.8.k.a.6.y.l P /.>.;.;.0.!.].  ",
"  4.k.#X$X6.2.x g 0XAXmXBXmXNXNX5XJ q * O @ 5 7 5 9 -.k.z.> [ g.a.a.5. Xe.6.6.1.( g ].1X`.q.Q E.^.  ",
"  A d d 2 r L Z S 0XmXZXNXNXNXnX-.. - ! 0 n.F.F.m.n.@ * w.l : / { l 2 ` +.` v > u K zXsXqX9Xe.8.E   ",
"  Y rXgXrXcXcXrXI 4XmXmXVXNXVX=.@ 9 <X<X,X0 F.C.,X,XL.c.@ J ; ; : % & % % % ; > y K zXzXfXiXpX*X|   ",
"  1XCXrXrX7XeXeXc 3XmXnXbXbXk.5 C.m.n.K.0 m.H.F.0 0 n.F.Z.@ x.q.E A S S P H H H S I hXjXdXpX5Xu.[   ",
"  t.cXxXwXsX7Xl.d r.kX9X5XfX< Z.H.J.H.A.G.H.H.H.D.D.J.H.H.v.< cXwX$.Z xXMXrXrXl.c I aXjXiX8X@X*X{   ",
"  t.gX7X7X4X1X*.d h 2 x +.-.8 G.H.H.G.c.v.m.C.F.H.H.H.H.H.A.6 x.9X7.d 7X7XeXU.x.c G fXpXpXpXuX*X%.  ",
"  4.gX7XqX6Xk.t.d I Q :.E * m.G.H.H.H.F.M.6 3 5 8 H.H.H.H.H.b.< 5Xf.1 rXeXeX1Xl.f P ] 2 x ` ) k z   ",
"  O.6X4X6XiXj.$.d 4XAXMX7X# C.H.H.H.H.H.H.G.G.G.H.H.H.H.J.J.C.@ k.#X1 7X7X7X6Xl.K A T K G G G G N   ",
"  w 2 c x 2 x 1 e 1XcXwXxXO B.G.H.H.H.H.H.H.H.H.H.H.H.H.H.J.S.5 w.x 1 qXwX0X5X0Xc E mXxX9X3Xs.r.l   ",
"  S I E :.:.E F D w.1XbXgXO C.H.H.H.H.H.H.H.H.H.H.H.H.H.H.P.G.6 x.@.1 pX5X9X5X5Xc R 7X1Xl.7.e.6.{   ",
"  _.cXxXgXsXfX:.I #.l.bXbXo N.H.H.H.H.H.H.H.H.H.H.H.H.H.H.P.F.6 O.' & K +.#.+.+.x R 6Xl.s.2.7.&.l   ",
"  4XMXsXrXqX5X+.R zXfXhXfX# b.H.P.H.H.H.H.H.H.H.H.H.H.H.H.J.F.6 O.a A A H H H H W R j.s.4.a.3.@.>   ",
"  oXzXfXaXqX3X#.:.dXdXz.pX* b.J.P.H.H.H.H.H.H.H.H.J.J.H.C.m.S.5 U.XXK Y xXzXqX9X:.G f.w.u.5.%.' ~   ",
"  t.hXaXiXpX@X@.;.g.@.j ;.# v.J.H.H.H.P.J.H.J.H.J.I.J.H.c.3 C.5 x.3X:.K sXfXfX8X+.e  .j z i : , ~   ",
"  $.%X9X8X&XOX@.>.;.s a A < c.G.D.V.J.I.I.H.G.G.P.I.J.G.6 + Z.$ 7.;.x +.pXiXiX$Xn ~.t e & & & = r   ",
"  c #.3.6.3.1.J ~.^./.].~.J 4 A.V.V.H.P.I.C.4 C.J.I.H.m.O O c.$ k.y.s n 5X5X5Xh.n P _.P P :.q.q.Q   ",
"  S A S S U q.].(.:X^.].2Xw.O m.c.B.H.P.J.m.O C.P.D.S.3 < < 3 =.s.1.: v 5X5X&X>.Y _._.XXe.fXaX9X#X  ",
"  q.jX]./.].~.].(.:X].vXzX;X# 8 . c.G.P.A.c.+ B.J.B.8 X k.-.X y.1.' : g v } R Q.~._.aXiXk. X8X8X@X  ",
"  3XiXjXr.r.ZXvX:.'.nXxXhXhXO.. . 3 A.J.S.4 + B.A.$ X *.pXk.q y.> y w Y T F T D E.!.8X8X&X8X%XOXh.  ",
"  e.%Xr.m jXkXXX#.hXvXhX0X4.3XX -.# b.G.N.O . N.v.q ) a.g.` 2 =.c j.nXNXmXbXkXhXfXK 5.#.uX&XOXOX5.  ",
"  2.jX8Xd.z n 0XjXe.&X>.'.jXwX$.h.=.+ B.N.. 2 3 4 *.> , , ` < -.dXzXkXjXsXdX8X%X@X#.i.1.OXOXOX}.1.  ",
"  j [ z y s 9X9X6Xr.nXnXhXqXqX0XpXs.# b.b.o *.O.o 4.:.9.+X:.* R.gXkXkXjXiX8X&X@Xh.c !.;Xd.1.;.[  .  ",
"  G e K R T 3X4X1XXXnXvXvXjX0X%Xk.l.g.7 b.o 7.*.*.[ D ^.~.q.-.t.fXdXiXiXuX&X@Xd.| f E.~.!.!.Q W Q.  ",
"  q.0Xj.0Xq.|.oX|.;. XjXjXiX0X|.f.a.y.q 7 $ O.n z : Q 1X1X4XE Y c [ <.8.9.5.#. .h P 2XtXaX9X8XiX6.  ",
"  j.7X3XfX:.:.k.}.8X|.&XiX-X$Xd.6.7.%.) # @ 2 : : : oX4X4X|.4.e Z g g G U ^.E.U T _.jXiX6X%X}.@X@.  ",
"  r.t.e..X#.G ;.%X Xf.e.OXOX}.9.,.z > : < 5 < L t.4X'.oXk.s.4.g q.'.'.`._.].q.E P >.8X8X%X$X}.OX1.  ",
"  9X9X6XXX#.H m h.f.a.&.v y._ > : & w A L 4 * 6XqX.Xl.q.e.w.>.P 3X3X.X}.g.+.}.8.j K &XpX*XOXOXOX,.  ",
"  %X6X#X#X7.h h y.g.y.{ , : % w g I I Y 2 O < q.j.l.r.w.2.6.<.1 f.h.f.a.8.1 6.<.l ` @X*X@X+Xz.OX,.  ",
"   X%X%X X<.P Y : , : % w r q.hXvXzXdXkX7.o w.0X:.e.w.2.&.[ _ : 7.a.8.2.] 5.m | l s 1.1.u.u.X.{ '   ",
"  d.@X*X}.W E.E.e 1 M P D T NXsX9X8X%Xh.v w.#Xe.r.4.7.&.&.&.> 1 @.u.2.}.y.,.1...> s w w 1 & = 1 y   ",
"  a s n R /.~.2X2X2X2Xq.T T 5X0X&X&X@Xh.v m s.e.w.2.%.5.1.%.` s j  .}.<.,.|  ./ u M T $XOXu.1. .M   ",
"  r.9X5X#X:.r.sXwXaXfXvX4.P &X&X%X@XOXg.x h y.7.<.%.[ ` %.} ) : W ,.y.X.| { ^ ~ b o.W 8.1.%.} ' k   ",
"  %X5X}.g.#.r.qX9X9X5XpX[ g *X*X@X+X+X5. .h 1.5.%.@.` > / ) ^ / yX+XX...{ ' ~ ^ V !.;.%.%.} { ) ,   ",
"  1.OXa.u.[ 8.9X8X-X*X@X` r y.g.g.g.*Xi.v N u X...( ' ~ : y b b =X=X[...X.o.0.[.).>.i. .{ ' ( k y   ",
"  z v v  .;.8.&X&X&X*Xz.] e g 1 1 1 > 1 e U : u ~ ^ ~ i y M V W /.=X'.!.!.^.^.[.{.;.s s f i i b Q.  ",
"  P Q ).!.T 4.*X@X*XOXz.' g 2XXX.Xf.a.8.0.P A y > y M N Q.W 0X2X].}.;X;X`.).>.0.B U U U Q.S P U E.  ",
"  _.r.2X_.P ;.OXu.i.z.i.' x hX Xs.6.1.1.,.j 9.W 9.q.>.W E.|.iX X$X9.h.h.5.1.%.} / h |.%X}.r.d.9.K   ",
"  5XkX#Xd.f M l ] ] X.~ ^ j %Xs.7.<.%...} > ;.dX0X&XpX%.g f.a.e.4.;.8.5.%.@.{ { ~ n h.k.d.6.1.<.)   ",
"  a.#Xa.6.v G N B ' i.' V M @X7.&.%.} { ( 1 +.&X$X@XOX,.a n 6.7.1.<.[ | } [ ( ) , n s.a.5.,.} } /   ",
"  n 2.6.<.$X8.<.0.[.[.yXV N +.<.%.} ` ( / > n &X*XOXz.,.s B @.<.&.} ( [ { ( / b u m 1.&.%.} } { ~   ",
"  3.[ @.}.1.,.|  .m yXyX{.R @X,.{ { ) ( , , [ *XOXz.z.,.a ;.<.` ) ) > / ( / ' i 0.;.%.%.} { { ) u   ",
"  n  .z +X,.....' X.yXyXp.V ' b ' ( / k ] y 9.g.+XOXz.k V | ..' k k u p / ^ b p.[.o. . . .{ { ' ~   ",
"  E.Q.h b ..X.X.o.).^.!.=X!.w y : : : : a N >...' { ' ;.!.M ; ; ; : , , N (.N ).).!.y : : : C y V   "
};
