/* XPM */
static char *out[] = {
/* columns rows colors chars-per-pixel */
"50 50 247 2 ",
"   c None",
".  c #070303",
"X  c #190907",
"o  c #1A1413",
"O  c #1A1109",
"+  c #270906",
"@  c #370C07",
"#  c #27120D",
"$  c #391208",
"%  c #251816",
"&  c #351C1B",
"*  c #162C1A",
"=  c #19351B",
"-  c #233C1E",
";  c #332413",
":  c #132E24",
">  c #193827",
",  c #1C3C33",
"<  c #173B36",
"1  c #282724",
"2  c #362926",
"3  c #253C28",
"4  c #2E3A32",
"5  c #450A04",
"6  c #481609",
"7  c #541403",
"8  c #55110C",
"9  c #780804",
"0  c #661501",
"q  c #711206",
"w  c #562808",
"e  c #703100",
"r  c #4B312E",
"t  c #612726",
"y  c #274618",
"u  c #365A19",
"i  c #2F5018",
"p  c #3A6315",
"a  c #1C442A",
"s  c #1C423C",
"d  c #194537",
"f  c #0F4031",
"g  c #294627",
"h  c #324424",
"j  c #344A2A",
"k  c #395422",
"l  c #395727",
"z  c #2C4434",
"x  c #23443D",
"c  c #2A443A",
"v  c #274637",
"b  c #344233",
"n  c #3B4E33",
"m  c #374B38",
"M  c #245236",
"N  c #3B533A",
"B  c #395638",
"V  c #2A5229",
"C  c #3B6326",
"Z  c #3A6637",
"A  c #356935",
"S  c #1E4015",
"D  c #435C1E",
"F  c #734800",
"G  c #4A691B",
"H  c #4F7317",
"J  c #5B7B1D",
"K  c #516B1F",
"L  c #435C2C",
"P  c #435828",
"I  c #45453C",
"U  c #48583A",
"Y  c #4E4639",
"T  c #466826",
"R  c #556D2A",
"E  c #4D7725",
"W  c #587627",
"Q  c #496538",
"!  c #576A39",
"~  c #4B7436",
"^  c #597936",
"/  c #627E39",
"(  c #1A4A43",
")  c #1B5447",
"_  c #254B44",
"`  c #2B4C44",
"'  c #2A4945",
"]  c #354E44",
"[  c #2A5349",
"{  c #345345",
"}  c #3B5344",
"|  c #34534A",
" . c #3A554C",
".. c #3C5B4E",
"X. c #365A48",
"o. c #3A5C50",
"O. c #3A6455",
"+. c #3D6B4A",
"@. c #494943",
"#. c #445545",
"$. c #425B4C",
"%. c #475946",
"&. c #545949",
"*. c #445D52",
"=. c #4C5A51",
"-. c #575953",
";. c #594D48",
":. c #486547",
">. c #566648",
",. c #58764A",
"<. c #446254",
"1. c #4C6354",
"2. c #4B6658",
"3. c #546A55",
"4. c #546B5B",
"5. c #5B6D5B",
"6. c #576756",
"7. c #5C725D",
"8. c #587658",
"9. c #487553",
"0. c #657749",
"q. c #65685A",
"w. c #63735C",
"e. c #687858",
"r. c #73765B",
"t. c #706753",
"y. c #546D61",
"u. c #5C7463",
"i. c #597767",
"p. c #427862",
"a. c #666A61",
"s. c #647563",
"d. c #6A7562",
"f. c #657A64",
"g. c #6B7C65",
"h. c #647C6A",
"j. c #6C7D6A",
"k. c #737F69",
"l. c #767966",
"z. c #667E71",
"x. c #7A756B",
"c. c #951D00",
"v. c #941209",
"b. c #AD0801",
"n. c #972101",
"m. c #A42500",
"M. c #BC2800",
"N. c #AF2A26",
"B. c #CE1005",
"V. c #E60C01",
"C. c #E81701",
"Z. c #F81804",
"A. c #C52900",
"S. c #DA2A00",
"D. c #E72D00",
"F. c #FD2C00",
"G. c #F82300",
"H. c #E93200",
"J. c #F43100",
"K. c #FE3300",
"L. c #FE3B00",
"P. c #F43E00",
"I. c #996900",
"U. c #9F5813",
"Y. c #FF4500",
"T. c #FF4900",
"R. c #847C6C",
"E. c #8B7971",
"W. c #B86E67",
"Q. c #C15750",
"!. c #5B841C",
"~. c #639113",
"^. c #5B8323",
"/. c #598534",
"(. c #658827",
"). c #6B932F",
"_. c #70A31C",
"`. c #55884E",
"'. c #6B8448",
"]. c #748B48",
"[. c #6E8254",
"{. c #758758",
"}. c #72944D",
"|. c #59896A",
" X c #4A8673",
".X c #6C826B",
"XX c #75836B",
"oX c #7B846D",
"OX c #788669",
"+X c #6C8372",
"@X c #658273",
"#X c #738573",
"$X c #7A8573",
"%X c #758975",
"&X c #7C8974",
"*X c #7C8D79",
"=X c #758979",
"-X c #699A7B",
";X c #7B9677",
":X c #7F956D",
">X c #B39400",
",X c #85AE2A",
"<X c #83B21A",
"1X c #CE9B00",
"2X c #D2AC00",
"3X c #E6B400",
"4X c #85876E",
"5X c #86946A",
"6X c #838C74",
"7X c #8B8C73",
"8X c #848E7A",
"9X c #888877",
"0X c #978D78",
"qX c #85927C",
"wX c #8C947C",
"eX c #8A9475",
"rX c #93947C",
"tX c #98957B",
"yX c #94856D",
"uX c #A5957C",
"iX c #97A073",
"pX c #75A48A",
"aX c #7E9080",
"sX c #8D9582",
"dX c #8C9984",
"fX c #879684",
"gX c #939B84",
"hX c #9B9C84",
"jX c #979C87",
"kX c #9A8C80",
"lX c #A49B85",
"zX c #9CA38B",
"xX c #96A289",
"cX c #9CA792",
"vX c #82A996",
"bX c #A2A58B",
"nX c #AAA58A",
"mX c #B1A88E",
"MX c #A6AB94",
"NX c #ACB39B",
"BX c #A5B194",
"VX c #B3B49C",
"CX c #B8AE97",
"ZX c #B8BAA2",
"AX c #C5B7A0",
"SX c #B9C1A5",
"DX c #C8C7AD",
/* pixels */
"  u U U U I j h M a y h g 3 - h h y S y j ~.~.i H <X~.p S y S l n l 4 - n n m g i y S i y = = = p   ",
"  rXnXuXlXlXVXd.B :.4XnXuXR.7X9Xx.I :.gXxX^ ^ OX[.~.Q wX>.l 4XhX0XeX6.r.jX&Xx.$X#.i Q .X%Xf.7.<.-   ",
"  bXnXnXnXnXMXl.n R uXlXuXtXtX9X4XI n xXtX{.wX4XXXf.&XqXd.j eXrX4X{.wXXX4XOXXXj. .:.9.Q .X8.1...,   ",
"  hXmXCXVXNXMXoXP W 0XCXhXtX0X9X7XI n hXtXqXe.OXXX3.3.#X7.g 7.g.&XeXoXXXg.k.k.j.] +.[.*X%X1.<.| <   ",
"  r.9XZXVXNXMXfXk J >.r.t.>.-.@.m b l 8XrXeX%.w.OXXXXXs.z g b 8X6X&XXXk.=.s.s.5.] B .X.X7.2.{ s M   ",
"  oXbXNXNXNXBXdXP (.! U U U U U L T 5.6XwX4Xj.wX6X&X&X#Xf.g w.&XXXXXk.d.w.g.j.y.j T .X=.{ ` v z `.  ",
"  e.ZXNXNXcXcX=Xn 5XDXSXAXZXZXZXwX>.t.E.R.R.x.9XoX&X=X#Xi.3 w.j.g.g.g.w.k.f.5.4.v T ).`.>.+.9.`.}.  ",
"  6.k.$X%Xq.1.m k tXSXVXZXZXZXjXa.2 % # $ 6 6 6 6 ;.x.#Xz.v | f.f.u.6.XXw.4.4.3.m k ].{.[.'.^ !.).  ",
"  G h h h h k D W 7XVXZXZXZXkX1 O ; w w M.H.H.A.m.w % &.+Xv , x X.c z } #.} m , s U bXhXrXeXw.5.^   ",
"  W uXlXuXmXmXuXR 5XZXZXNXkXo + I.3X3X1Xe J.H.F 1X>X0 5 2 >.> * : * * * * * > , a U bXzXjXfXfX=X .  ",
"  4XAXuXuX0XyXyXP &XBXMXmX% c.n.U.1X>XF n.J.S.e >XI.m.B.5 r 0.0.! T H K P P P D H W zXzXjXdX*Xu.}   ",
"  r.mXnXtXkX0Xl.4 w.MXsXY q J.K.S.M.M.S.K.K.K.H.A.S.J.F.B.@ t.CXiX&.D nXAXuX0Xx.P Q gXxXdXqX=X=X{   ",
"  r.uX0XtX0X9X>.3 P 4 x.+ D.K.K.J.J.D.K.K.K.K.F.K.K.K.K.Z.b.& hXwX6.h 0XuXE.E.r.n L sXwXfXfXaXaXo.  ",
"  6.hX0XwX4Xk.r.h R ! ;.0 F.K.K.K.A.0 0 q c.m.A.K.K.K.K.K.C.8 a.wXk.h 0XyXyX4Xx.b T N c b ] ' 4 c   ",
"  @.9X0X9XsXl.&.h 4XnX# B.Z.K.K.K.F.H.A.c.0 0 c.K.K.K.K.K.F.v.& qXz.3 0XyXeX9Xl.U G R Q L L L l C   ",
"  y b b b 4 b 3 D 4XkX+ V.G.K.K.K.K.K.F.J.J.J.J.K.K.K.K.K.F.B.# #.b - rXtXrX6X9Xn ! VXmXwX6Xg.d.m   ",
"  H R ! >.>.! K J q.t.+ V.K.K.K.K.K.K.K.K.K.K.K.K.K.K.K.L.Y.S.@ $X1.3 sX9XqXqX9Xn T rX4Xl.-.w.8.|   ",
"  '.mXnXlXhXgX>.R &.a.+ V.K.K.K.K.K.K.K.K.K.K.K.K.K.K.K.Y.Y.D.@ -.[ - U #.#.#.} z >.9Xl.r.6.3.=.c   ",
"  7XCXtXuXtX8X%.Q bXE.+ V.L.Y.L.K.K.K.K.K.K.K.K.K.K.K.L.Y.T.H.$ ;.h p G P P P P ~ Q l.d.5.s.4.$.,   ",
"  OXbXhXgXwX6X$.>.hX0XO b.L.T.Y.K.K.K.K.K.K.K.K.K.K.K.K.Y.Y.H.$ q.&XQ W nXbXrXwX>.l g.q.u.4.*.{ (   ",
"  r.zXrXdXfX#X#.:.h.1.2 5 Y.T.L.K.K.K.K.K.K.K.K.L.K.K.K.Y.Y.H.$ q.6X=.U hXjXsXsX%.u } v v d > < (   ",
"  &.6XdXqX*X#X$.,.:.b q.X A.Y.J.K.K.K.K.K.K.K.K.Y.Y.L.K.K.Y.H.@ ;.:.b U sXsXdX$XN (.p u = = = - i   ",
"  n %.3.3.3.3.B (.).).].2 5 D.c.m.J.K.Y.Y.K.K.L.T.T.L.F.G.K.D.@ -.4.z n qXwX*Xj.U T '.T Q ! 0.0.^   ",
"  H G H H W ,.]._.,X).{.wX# 7 . 7 G.L.T.Y.K.K.L.T.Y.K.Z.Z.F.S.@ -.2.> n *X*X$X,.E '.'.OXe.sXjXqX$X  ",
"  0.xX].).]./.]._.,X}.BXbXI . . 7 G.L.T.K.A.m.H.Y.L.F.B.N.V.S.+ 2.[ > i } #.Q (.(.].xXwXXXXXqXqX#X  ",
"  6XgXxXe.[.SXBX>.{.NXnXxX4X1 % 9 G.L.Y.H.7 . q K.K.V.5 + B.b.& z a i R W T W J !.^ qXqX*XqX%X.Xj.  ",
"  s.%Xf.B xXcXOX%.zXBXzXzXq.R.@.9 Z.L.Y.H.@ . @ D.Z.9 o + v.9 t b l.MXZXVXMXMXzXgXU 3.$.*X*X#X+X5.  ",
"  >.xXqXg.v N eXxXw.&X>.1 O -.-.9 G.L.L.M.O a.% b.V.+ ;.@.t 8 E.zXcXbXcXjXjX8X%X#X#.i.2.@X=X+X@X<.  ",
"  z  .c v g wXwX7Xe.BXxX1 q r x.q Z.L.H.7 4 a.@.@ b.X 5.y.o # 0.jXMXxXxXdXfX&X#X@Xj /.:Xs.4.:.} X.  ",
"  l u U Q W 4X6X4XoXNXMXa.& y.9X8 V.H.c.2 a.-.q.X 0 o {.r.1 + t.dXjXdXdXaX*X#Xf.$.j !.(././.^ ~ ^.  ",
"  0.5XOX5X0..XOXXX:.#XxXjXx.8Xk.r B.D.8 -.y.#.] I . o 4X7Xx.I R n } 1.5.4.8.%.X.j E 5XiXgXqX8XdX8.  ",
"  l.rX7XkX>.>.XXj.qXk.aXfXfX#Xg.;.v.C.7 @.L 3 : m I o 4X7Xk.d.u D u k P E ).^.E ^.'.xXdX6X$XXX#X*.  ",
"  w.l.w.oX%.T $.&XXXg.w.+X+X.Xi.=.t V.9 I h y k q.rXY @.d.d.5.u 0.{.{.e.'.}./ >.T ^ fXqX&X#XXX@X2.  ",
"  eX7X9X&X%.P B j.g.s.1.m y.m , 4 r B.v.1 R r.0XtX4XW.# a.q.6.T eX6XoXk.f.#.z.u.b %.*X8X%X+X+X+X<.  ",
"  6X6X6X#X5.u B y..Xy.] > < * S n U t B.& sXlX0.k.k.Q.@ =.5.1.3 g.j.g.s.u.3 4.3.c N =X=X=Xz.@X+X<.  ",
"  XX&X#XXX=.T R > < > * y i 0.zXMXsX1 v.8 d.rX8X>.j.N.# &.} ] > 6.s.5.3.{ 4.B ..x 3 <.y.u.u.O.| [   ",
"  f.#X=X.X~ !.~.u g g T !.J ZXjXwX8Xa.% # -.&Xw.r.5.r 4 =.=., 3 $.u.3.j.y.2.2.X.s S y y > > - 3 a   ",
"  h g N Q ).(.5X5X5X5X'.^ W qX8X8X&X#Xs.2 4 j.a.5.6.=.4.2.*.| g z ..+X1.<...[ _ s B W %XXXu.1.X.V   ",
"  0.sX8X$X>.e.hXrXgXsXMX5.T *X*X=X#X#Xh. .%.u.4.1.=.] ] <. .' , ~ <.y.o...| [ ( d 9.~ 7.2.*. .[ x   ",
"  &X*X#Xh.#.w.rXsXeX8XsX} k %X%X#X@X@Xy.N l =.3.*.$.] x _ ' ( _ -X-XO. .| _ ) ) A ^.:.$.*. .| ' <   ",
"  2.#Xf.u.} 7.wX8X8X=X#X} k y.h.f.z.=Xu.B C d O. .| ` ( > a ) M ;X-X|.o.[ +.p.`.`.`.h.{  .` ' ( a   ",
"  v m { { :.7.*X*X=X#X@X{ u k > 3 3 , > u E a f ( ) ( d a V A E /.-X[././.)._.|. X+.g a V a s M ^.  ",
"  T /.,./.^.8.%X%X%X@Xz.` u 5X4XoXj.s.7.,.L G a > d M C E /.eX:X}..X:X:X.X'.,.8.B E E W ^.G T E !.  ",
"  0.e.5X0.T :.+Xu.i.z.i.[ z zXXXs.5.3.2.o.v 8.,.e.,.,.R ^.{.gXXX=X`..X@X4.:.*. .x l OX&XOXe.g.7.U   ",
"  6XcX$Xs.j j x X.B O.s ) v oXs.4.1.*... .3 :.jXqX&XfX<.k g.s.w.5.:.5.4.*.$.| ' , N k.z.i.8.2.1.'   ",
"  f.$Xs.4.B T l B X.i.) A B XX3.=.*. .| ' , %.8X&X#X.X<.g B 5.3.3.2.} .. .| | ' s m h.f.4.<. . .'   ",
"  N 3.5.1.%X7.1.9.|.|.pXA l #.*.*. .` ' _ , N =X=X+X@X<.g Q $.*.=. .` | ] ` [ M d B 3.=.*. . .| <   ",
"  4.N ..h.4.<...[ Z vXpX XQ =X<.| ] ` ' s < } =X+Xz.z.<.g :.1.| ' x _ c ` _ [ d 9.:.$.*. .| | ' (   ",
"  N X.v @X<.o.o.[ O.pXpXp.A [ M ` _ _ x { g y.@X@X@Xz.x B +.o.[ x x s ( _ M ) p.|.+.X.X.X.[ { [ s   ",
"  !.^.l M o.O.O.+.`.)./.-X/.V S > > > > V u ,.o.X.[ [ :./.V : : : : f f l _.E `.`.~ g = > > a a A   "
};
