/* XPM */
static char *out[] = {
/* columns rows colors chars-per-pixel */
"50 50 248 2 ",
"   c None",
".  c #090403",
"X  c #190705",
"o  c #171412",
"O  c #260A08",
"+  c #380B05",
"@  c #28130B",
"#  c #3B1308",
"$  c #261A18",
"%  c #331915",
"&  c #172D1B",
"*  c #19351C",
"=  c #223C1D",
"-  c #332118",
";  c #183828",
":  c #1C3C33",
">  c #173B36",
",  c #132E24",
"<  c #2C2624",
"1  c #312925",
"2  c #253B28",
"3  c #38312B",
"4  c #3C3634",
"5  c #243C32",
"6  c #460705",
"7  c #451A17",
"8  c #540E05",
"9  c #770805",
"0  c #681500",
"q  c #791901",
"w  c #680704",
"e  c #592C00",
"r  c #782400",
"t  c #463A38",
"y  c #4D2B28",
"u  c #663332",
"i  c #264618",
"p  c #375A1A",
"a  c #2F5117",
"s  c #396413",
"d  c #1C442B",
"f  c #1C423C",
"g  c #194537",
"h  c #0F4031",
"j  c #294627",
"k  c #344728",
"l  c #395627",
"z  c #2B4334",
"x  c #24443D",
"c  c #284638",
"v  c #344333",
"b  c #3B4E33",
"n  c #374B38",
"m  c #245236",
"M  c #3B533A",
"N  c #395739",
"B  c #2A5229",
"V  c #3B6326",
"C  c #3A6637",
"Z  c #356935",
"A  c #1E4015",
"S  c #496A1B",
"D  c #4F7317",
"F  c #5C7C1D",
"G  c #526B1F",
"H  c #435C2C",
"J  c #445729",
"K  c #45493C",
"L  c #48573A",
"P  c #404C2F",
"I  c #476826",
"U  c #546D2A",
"Y  c #4D7725",
"T  c #587626",
"R  c #496537",
"E  c #566A3A",
"W  c #4B7436",
"Q  c #5A7936",
"!  c #5F611D",
"~  c #1A4A43",
"^  c #1B5447",
"/  c #254B44",
"(  c #2B4C44",
")  c #2A4945",
"_  c #344D44",
"`  c #2A5349",
"'  c #345345",
"]  c #3B5344",
"[  c #34534B",
"{  c #3A554D",
"}  c #3C5B4E",
"|  c #365A48",
" . c #3A5C50",
".. c #3A6455",
"X. c #3D6B4A",
"o. c #494B44",
"O. c #435B4D",
"+. c #465946",
"@. c #555848",
"#. c #445D52",
"$. c #4B5E52",
"%. c #5A5B55",
"&. c #534745",
"*. c #655B50",
"=. c #476548",
"-. c #566647",
";. c #58764A",
":. c #446254",
">. c #4B6354",
",. c #4A6757",
"<. c #546A55",
"1. c #546B5C",
"2. c #5B6D5A",
"3. c #576656",
"4. c #5C725D",
"5. c #597558",
"6. c #487553",
"7. c #657849",
"8. c #676959",
"9. c #63745C",
"0. c #687858",
"q. c #6D7252",
"w. c #546E61",
"e. c #5C7363",
"r. c #587767",
"t. c #427862",
"y. c #756C63",
"u. c #647563",
"i. c #6A7562",
"p. c #657A64",
"a. c #6B7C64",
"s. c #6C7D6A",
"d. c #657B6A",
"f. c #717B64",
"g. c #737E6A",
"h. c #787767",
"j. c #657E70",
"k. c #71766B",
"l. c #990704",
"z. c #8D1808",
"x. c #AE1405",
"c. c #952500",
"v. c #AC2301",
"b. c #BA2700",
"n. c #962B2A",
"m. c #D01003",
"M. c #F81A02",
"N. c #E81002",
"B. c #C82700",
"V. c #DD2C00",
"C. c #D32A00",
"Z. c #E92C00",
"A. c #FC2C00",
"S. c #F72600",
"D. c #F53200",
"F. c #FE3300",
"G. c #FD3C00",
"H. c #E73900",
"J. c #946C00",
"K. c #975A00",
"L. c #FE4400",
"P. c #FF4800",
"I. c #847B71",
"U. c #857D68",
"Y. c #5B841C",
"T. c #639113",
"R. c #5D8422",
"E. c #588228",
"W. c #598534",
"Q. c #658726",
"!. c #6B932F",
"~. c #70A31C",
"^. c #55884E",
"/. c #6B8548",
"(. c #6E8254",
"). c #758658",
"_. c #72914A",
"`. c #59896A",
"'. c #4A8673",
"]. c #6C826B",
"[. c #75836B",
"{. c #7B846D",
"}. c #7D8A6D",
"|. c #778366",
" X c #6C8372",
".X c #658273",
"XX c #738573",
"oX c #7A8573",
"OX c #758975",
"+X c #7C8A74",
"@X c #7C8D79",
"#X c #758979",
"$X c #699A7B",
"%X c #7B9677",
"&X c #7F956D",
"*X c #B28A00",
"=X c #85AE2A",
"-X c #83B21A",
";X c #CA9600",
":X c #D2AA00",
">X c #E7BD00",
",X c #85886D",
"<X c #869569",
"1X c #838B74",
"2X c #8B8C74",
"3X c #838E7A",
"4X c #888976",
"5X c #968D77",
"6X c #85927C",
"7X c #8C947C",
"8X c #899375",
"9X c #93947C",
"0X c #98977B",
"qX c #94856D",
"wX c #A5957C",
"eX c #A08E78",
"rX c #97A073",
"tX c #75A48A",
"yX c #7E9080",
"uX c #8C9984",
"iX c #899683",
"pX c #939B83",
"aX c #9B9C83",
"sX c #959D89",
"dX c #969782",
"fX c #A59A84",
"gX c #A58D81",
"hX c #9AA38B",
"jX c #98A48A",
"kX c #9BA591",
"lX c #82A996",
"zX c #A2A58B",
"xX c #AAA58A",
"cX c #B1A88E",
"vX c #A4AC93",
"bX c #A9AC94",
"nX c #A3A994",
"mX c #ABB39B",
"MX c #A7B196",
"NX c #B4B59C",
"BX c #B8AE97",
"VX c #B4BAA2",
"CX c #BBBDA2",
"ZX c #B1B4A1",
"AX c #AFB8A0",
"SX c #C5B7A0",
"DX c #B9C1A4",
"FX c #C5C4AA",
/* pixels */
"  p L L L v b k m j A j k 2 i j 2 i i i l T.T.a D -XT.s i A i k P b j = b b n k a a * a a * * * s   ",
"  9XxXwXfXfXNXi.N =.,XxX0XU.4XI.I.K L uXpXQ Q [./.Q.R uX-.l ,XaX9X2X2.0.sX,Xg.oXK B =.(.OXd.1.:.=   ",
"  zXcXxXcXzXxXg.l U 0XwXfX0X5X5X,XK b hX0X).7X}.[.p.+X6Xi.k 8X9X,X).7X|.,X{.XXs.] =.6.R ].1.,.} :   ",
"  0XcXNXmXBXnXoXJ T 5XSXfX0X5X4X4XK b aXdX8X0.{.|.<.<.[.e.j 4.a.}.3X}.{.i.g.g.d.] } (.@X}.>.:.[ :   ",
"  f.2XZXNXmXvX7Xl F -.y.8.8.-.o.n v b 8X7X<X+.0.}.[.[.u.z j v 6X1X}.{.g.>.u.e.e.n C `.0.u.<._ f m   ",
"  {.zXNXmXmXMXsXJ Q.E L L L L L J R 2.}.8X+Xf.7X8X1X@XXXu.j 9.}.[.[.s.u.8.i.a.2.B I |.+.' ( ` c ^.  ",
"  0.VXmXmXnXkX#Xb <XFXNXNXCXCXCX8XL E }.1XI.h.I.I.h.,Xg.k.5 u.s.s.a.d.4.[.u.e.1.c I !.;.-.X.6.W._.  ",
"  3.g.XXoX2.>.n l 8XFXCXCXNXVXVX{.l E h.K - @ @ # 7 6 7 y *.3.s.p.9.<.[.u.2.3.,.( p ).,X(.7.Q Y.!.  ",
"  S k 3 k k k p F 2XNXDXVXVXVXAX1XL @.o @ e e c.V.Z.H.b.c.# - y.$.( 4 ] ] _ n 5 g L zXaX9X6X9.2.Q   ",
"  T rXwXwXcXcXwXU <XNXCXAXAXAXAXdXK X # ;X>X:XJ.b.F.c.J.;X! q O *.& * & & & ; : d L zXzXaXuXiX#X{   ",
"  ,XFXwXwX5XqXqXb ,XbXmXmXMXZXmXy.7 B.r J.:XJ.e V.F.c.J.*Xc.C.x.O q.F S J J J p D U hXhXsXiX3Xe.]   ",
"  h.cXwXgXdX5Xh.k 0.kXiX6XkXnXI.% B.G.H.B.B.B.Z.F.F.F.C.B.Z.A.S.l.$ 7.xXSXwXeXh.P U pXjXuX6X#X#X'   ",
"  q.wX5X9X5X2X-.2 J 2 v o.2 @.t q F.F.F.F.Z.D.F.F.A.F.F.L.G.F.F.N.w &.gXeXU.qXy.n J uXiXiXiXyX#X .  ",
"  8.fX9X9X1Xh.9.k U E 7.E 2.8.@ B.A.F.F.D.z.0 0 z.v.v.V.G.D.F.F.A.x.% qXqXqX,Xh.b I M z n _ ) c c   ",
"  o.4X2X4X7Xf.@.k ,XSXNX0XbX*.6 N.A.F.F.F.D.V.v.0 0 0 B.F.F.F.F.F.Z.6 y.5X2X1Xh.L S U R H H l H I   ",
"  i v 4 v v v 2 p ,XcX0XbXxX&.w M.A.F.F.F.F.F.D.D.D.D.F.F.F.F.F.F.D.9 t 0X9X4X4XM E BXxX2X3Xi.u.x   ",
"  D U E -.-.E S D 8.}.mXbXnXt 9 M.F.F.F.F.F.F.F.F.F.F.F.F.F.F.G.G.G.z.t 4X7X3X1Xn R 2X,Xh.3.i.2.[   ",
"  /.xXcXxXaXdX@.T @.f.bXnXaX3 9 S.F.F.F.F.F.F.F.F.F.F.F.F.F.F.G.L.L.x.3 $.o.+.+.v E 1Xh.q.3.3.$.x   ",
"  2XBXaX0X0X6X@.R zXdXhXnXsXt 9 S.G.L.G.F.F.F.F.F.F.F.F.F.F.F.G.L.L.b.1 J J J l W R f.i.2.e.<.} 5   ",
"  |.zXpXdX9X1X+.-.sXsXs.uXiXo.6 Z.P.P.F.F.F.F.F.F.F.F.F.F.F.F.L.L.L.v.$ zXfXdX7X-.H a.8.e.1.#.' ~   ",
"  q.hXaXiX6XXXO.=.d.O.z :.O.%.X v.P.L.F.F.F.F.F.F.F.F.F.F.G.F.G.L.L.v.$ dXdXdX6X+.p ] c c c > > ~   ",
"  @.1XuX6X@XXXO.;.=.j B S * +.3 8 H.G.F.F.F.F.F.F.F.F.G.P.L.F.F.G.G.v.$ 4XiXuXoXM Q.s p * & * i a   ",
"  b +.<.3.<.1.K Q.~.!._.Q.T Q q.o v.C.q C.F.G.L.G.F.F.L.P.L.F.A.A.F.v.$ 3X3X3Xs.M I W.I R E 7.7.Q   ",
"  D S S Y Y 7.!.!.=X!._.<X7.CXxX*.+ # X v.F.L.P.G.F.F.L.P.F.S.M.M.S.v.$ oX@X#X;.T /.(.,X9.7XaX6XoX  ",
"  7.rX).W._.Q._.=X=X!.MXzX}.uXzXoXo . . x.F.L.L.D.c.b.D.G.F.M.x.m.M.z.< o.{ R Q.Q./.pX7X[.[.6X6XXX  ",
"  8XjXpX0.).DXvX-.).bXvXhXjXK 9XdX4 4 O x.F.L.L.C.. X B.F.S.x.X w m.8 *.T U T F Q.W.6X6X@X6XOX].s.  ",
"  u.OX].N jXjXOX+.hXbXhX8X2.0X2XdXk.I.% m.A.L.G.b.. . z.S.m.+ < O m.+ gXBXbXnXhXpXL <.} @X@XXX X1.  ",
"  -.sX6Xp.z M 8XjX9.+X;.].rX0Xi.o < h.- m.A.L.D.0 < %.+ N.l.$ 8.< n.7 xXsXsX3XOXXX+.r.<..X#X X.X,.  ",
"  z ' n c j 6X2X2X0.mXMXzX7X9X%.y 8 k.t x.A.G.B.X 8.7.$ l.8 - U 3 o y sXiXiXOXXXs.b E.%Xp.,.=.] |   ",
"  l p +.R E.,X2X{.+XmXMXkXjX8XoXt 1 8.&.l.S.H.+ o.5 F v + O K 7.%.o u sX%X@XoXp.} k Y.Q.W.W.Q W E.  ",
"  7.2X).8X;.|.[.|.=.[.jXjXpX3Xg.i.u.w.&.w N.B.$ _ > E ,X< . t T K K %.e.w.<.=.| l I <XrXpX7X6XuX2.  ",
"  f.9X4X0X-.-.|.a.6X|.%XuX@XXXs.2.%.#._ 7 m.B.- 2 2 |.2Xk.1 4 l p J E I Y !.R.Y T /.jXuX1XoX[.XXO.  ",
"  0.y.9.oX+.H =.+Xg.a.9. X X].e.O.c > ; 1 x.m.% h.7X).{.f.y.$ +./.).).0.7._.W.-.I Q iX6X+XXX]..X,.  ",
"  7X7X2X}.+.J N g.a.u.>.n w.c : ; * a S -.u N.6 y.h.f.q.i.y.n.1 iX+X{.[.p.+.g.e.v +.@X@X@X X X X:.  ",
"  +X1X+XoX3.J l w.d.w._ > ; * i p U T T Q.y n.l.%.i.0.8.3.y.n.o g.s.a.u.4.5 1.,.c ] #X#XXX.Xj. X:.  ",
"  [.+XoXXX=.I Y ; > ; & i a 7.sXzXnXpXkXL L 7 l.1 i.3.3.$.@.9 < d.u.4.<.] 4.n } x 2 >.1.r.r.:.[ `   ",
"  p.XXOX].W Y.Y.p j j I F F ZXaX7X6XOXs.n L t O o 8.3.%.$.%.$ %.$.w.<.].w.,.6.{ f i i j 2 ; = = d   ",
"  k z M R !.Q.<X<X<X&X(.Q T 6X8X3X@XoXd.n N k.o.o 3.#.3.,.w.o.j z } s.>.#.} ` / f B T {.].e.,.| B   ",
"  7.uX3XoX-.0.dX0XdXdXnX2.S @X@X#XXX Xj.v l w.1.e.$._ )  .{ ` 5 W :.w... .[ ` ~ g 6.W e.1.#.{ [ x   ",
"  +X3Xs.d.+.0.dX7X6X4XiX] l #X#X X]..X1.| l $.1.#.#._ x / ) ~ / tX.X..} [ / ^ ^ Z E.=.} #.{ ( / >   ",
"  6. Xu.e.] 2.6X6X3X#XXX] a w.d.d.j.#Xr.n V f ..{ [ ` ~ ; d ~ m %X$X`. .` X.6.`.^.^.p.| [ ( ) x j   ",
"  c n n ' =.9.@X@XOXOX.X' p k 2 2 2 : ; l D d g ~ ^ ~ h d B Z E.!.$X).W.W.Q.~.`.'.=.z d B d g m R.  ",
"  I Q ^.E.E.5.+XOXOX.Xj.' l <X<X}.a.u.4.;.V S d : d B V Y E.8X&X(.`.&X&X].^.;.5.N Y Y Y R.S I Y R.  ",
"  7.0.<X(.I =. Xe.r.j.r./ v sX[.u.2.<.,.:.z 5.W 0.;.;.W R.|.pX[.OX5.a.].2.6.#.{ x l }.}.].0.].4.N   ",
"  3XkXoXu.k B c ' N ..~ ^ c }.9.2.>.#.{ { 5 =.hX6X@X@X>.l a.i.4.5.=.4.<.#.O._ ( f M s.s.p.1.<.:.)   ",
"  p.oXu.1.N R l N ` r.` Z N oX,.$.#.{ [ ( : +.3XOXoX X:.i N 2.3.<.>.' } { [ [ / g n d.u.1.:.} [ )   ",
"  M 3.2.>.OX5.,.6.`.`.tXC V +.O.#.[ _ ) x : M #XXX X.X:.j =.O.>.#.[ _ { ' ( / m g L 3.>.#.{ { [ /   ",
"  2.M } d.1.#.} [ C tXtX'.R #X:.{ ( ( ) f > ] #X Xj.j.:.j =.=.[ ) ) x x / / ` g 6.=.O.#.{ [ [ ) ~   ",
"  M | c .X:. . .` ..tX$X'.V ` m ( / / f ' j 1..X.X.Xr.c l .. .` 5 x ~ > / ^ g t.$XC ' | | [ ` ` ~   ",
"  Y.E.l m  .....X.^.!.W.$XW.a d ; ; ; ; B V ;. .[ ` [ 6.W.j , , , ; h > V ~.Y ^.^.W d ; d ; A d B   "
};
