/* XPM */
static char *out[] = {
/* columns rows colors chars-per-pixel */
"50 50 246 2 ",
"   c None",
".  c #090101",
"X  c #160805",
"o  c #1C1715",
"O  c #11120F",
"+  c #2A0B05",
"@  c #380B04",
"#  c #381209",
"$  c #2B1913",
"%  c #172A1B",
"&  c #19351C",
"*  c #282F18",
"=  c #193827",
"-  c #1C3C33",
";  c #173B36",
":  c #132E24",
">  c #342B27",
",  c #253C28",
"<  c #37332D",
"1  c #2F352E",
"2  c #450902",
"3  c #560902",
"4  c #481407",
"5  c #581506",
"6  c #6A0502",
"7  c #771902",
"8  c #621705",
"9  c #592800",
"0  c #6A3200",
"q  c #45352F",
"w  c #264718",
"e  c #37591A",
"r  c #2F5117",
"t  c #396413",
"y  c #1C442B",
"u  c #1C423C",
"i  c #194537",
"p  c #0F4031",
"a  c #294626",
"s  c #344728",
"d  c #395422",
"f  c #385728",
"g  c #2B4434",
"h  c #24443D",
"j  c #29443A",
"k  c #284737",
"l  c #344333",
"z  c #3B4D34",
"x  c #364B38",
"c  c #245236",
"v  c #3B533A",
"b  c #395638",
"n  c #2A5229",
"m  c #3B6326",
"M  c #3A6637",
"N  c #356935",
"B  c #1E4015",
"V  c #435C1E",
"C  c #774700",
"Z  c #496A1B",
"A  c #4F7317",
"S  c #5B7B1D",
"D  c #516B1F",
"F  c #435C2C",
"G  c #435828",
"H  c #42493B",
"J  c #49583A",
"K  c #404C2F",
"L  c #466826",
"P  c #546D28",
"I  c #4D7626",
"U  c #557323",
"Y  c #597828",
"T  c #496537",
"R  c #576A3A",
"E  c #4B7436",
"W  c #5A7936",
"Q  c #637E3C",
"!  c #1A4A43",
"~  c #1B5447",
"^  c #254B44",
"/  c #2B4C44",
"(  c #2A4945",
")  c #334D43",
"_  c #374E45",
"`  c #2A5349",
"'  c #345345",
"]  c #3B5344",
"[  c #34534A",
"{  c #3A554C",
"}  c #3C5B4D",
"|  c #365A48",
" . c #3A5C50",
".. c #3A6455",
"X. c #3D6B4A",
"o. c #4B4943",
"O. c #534945",
"+. c #445544",
"@. c #435B4D",
"#. c #475947",
"$. c #555947",
"%. c #445D52",
"&. c #4C5C53",
"*. c #595A54",
"=. c #476548",
"-. c #576747",
";. c #58764A",
":. c #446254",
">. c #4C6354",
",. c #4A6657",
"<. c #536554",
"1. c #546A55",
"2. c #546B5B",
"3. c #5B6D5B",
"4. c #596956",
"5. c #5C725D",
"6. c #597558",
"7. c #487553",
"8. c #65774A",
"9. c #656858",
"0. c #64735C",
"q. c #687858",
"w. c #6F705A",
"e. c #5C7363",
"r. c #587767",
"t. c #4D7061",
"y. c #647562",
"u. c #6A7562",
"i. c #657A64",
"p. c #6B7B65",
"a. c #647C6A",
"s. c #6C7D6A",
"d. c #687469",
"f. c #717C64",
"g. c #737E6A",
"h. c #787866",
"j. c #657E70",
"k. c #706F67",
"l. c #635F56",
"z. c #8F1001",
"x. c #AA1B01",
"c. c #AD0500",
"v. c #982601",
"b. c #8C2801",
"n. c #BB2801",
"m. c #AB2101",
"M. c #CD1200",
"N. c #F31300",
"B. c #CA2700",
"V. c #D92A00",
"C. c #D83100",
"Z. c #E42D00",
"A. c #E92B00",
"S. c #F92900",
"D. c #ED3100",
"F. c #E33300",
"G. c #F33200",
"H. c #FE3300",
"J. c #FD3D00",
"K. c #905F00",
"L. c #FE4500",
"P. c #FF4900",
"I. c #857D68",
"U. c #80514A",
"Y. c #5B841C",
"T. c #639113",
"R. c #5D8422",
"E. c #5A8428",
"W. c #598534",
"Q. c #658826",
"!. c #689525",
"~. c #729929",
"^. c #698C39",
"/. c #70A31C",
"(. c #55884E",
"). c #6B8448",
"_. c #6E8254",
"`. c #758659",
"'. c #72914A",
"]. c #59896A",
"[. c #4A8673",
"{. c #6C826B",
"}. c #748265",
"|. c #75836B",
" X c #7B846C",
".X c #7B876A",
"XX c #6C8372",
"oX c #658273",
"OX c #738573",
"+X c #7A8673",
"@X c #758975",
"#X c #7B8A74",
"$X c #7C8D79",
"%X c #758979",
"&X c #699A7B",
"*X c #7B9677",
"=X c #7F956D",
"-X c #85AE2A",
";X c #83B21A",
":X c #D2A500",
">X c #D5AD00",
",X c #86886E",
"<X c #869569",
"1X c #838B74",
"2X c #8B8C74",
"3X c #848E7A",
"4X c #898977",
"5X c #978D77",
"6X c #85927C",
"7X c #8C947C",
"8X c #899375",
"9X c #93947C",
"0X c #98977B",
"qX c #94856D",
"wX c #A5957C",
"eX c #97A073",
"rX c #75A48A",
"tX c #7E9080",
"yX c #8C9984",
"uX c #899683",
"iX c #939B84",
"pX c #9B9C83",
"aX c #959E8A",
"sX c #989983",
"dX c #908980",
"fX c #A59A83",
"gX c #9BA38B",
"hX c #97A38A",
"jX c #9BA591",
"kX c #82A996",
"lX c #A2A58B",
"zX c #AAA58A",
"xX c #B1A88E",
"cX c #A4AB92",
"vX c #A9AD94",
"bX c #A5A994",
"nX c #ABB29B",
"mX c #A7B196",
"MX c #B4B59B",
"NX c #B8AE97",
"BX c #B4BAA2",
"VX c #BABBA2",
"CX c #AFB8A0",
"ZX c #C5B7A0",
"AX c #B9C1A4",
"SX c #C5C4AA",
/* pixels */
"  e J J J l z , c y w s s , , a , w w , s T.T.r A ;XT.t B w & f H z s , z z l n r r & r r & & & t   ",
"  9XzXwXfXfXMXh.| T ,XfXwXh.4X,XI.H T 9XhXW W .X_.T.T yX<.e <XfX2X9X-.q.aX X X+XH n =._.@Xa.2.:.&   ",
"  lXxXzXzXzXzXg.z P wXfXwX0X5X2X,XH z hX0X`.7X,X|.i.@X8Xp.l 3X5X<X`.7X|.1X XOXs.@.=.;.T {.2.>.@.k   ",
"  0XxXMXMXnXvX XF P 5XZXlX0X5X2X2XH z pX0X3Xq. X}.1.1.+X5.a 5.p..X3X+X}.u.}.g.d._ =.6.$X+X>.%.` ;   ",
"  h.2XCXMXnXbXuXd S -.w.9.9.$.o.l l z 8X9X<X#.0..X|.|.d.g w l 6X1X X X}.&.y.d.3.) M 6.{.e.2.' ^ k   ",
"   XlXCXnXnXmXyXG Q.R J J J J #.K P 1.,X2X1Xf.7X3X$X#X%Xy.a 0.#X|. X}.d.0.p.s.2.s L }.=.' ) / c (.  ",
"  q.BXnXnXbXjX%Xf 8XSXMXMXZXBXVX8XT R <Xh.9.9.w.w.w.g.g.a.1 y.s.a.p.a.5.s.u.3.2.k L ^.;.=.=.7.W.'.  ",
"  4.g.+X@X4.<.x f 8XSXAXVXMXBXBX#X#.9.> $ + # 5 8 5 5 q 9.x { a.y.y.1.|.0.3.2.2.j d '.<X_.8.W Y.!.  ",
"  Z s , < s d e S 8XMXAXBXBXBXCX2XK O # C 0 b.D.G.B.b.9 # > *.( ] k l ] +._ x - u v zX0X0X3X0.3.W   ",
"  U wXwXwXxXxXwXP 2XMXVXCXCXCXnXq # 9 :X>X:XC V.G.C :X:X0 7 $ *.= % & % % % : - y T lXzXaXyXuX@X .  ",
"  ,XSXwXwX5XqXqXK ,XmXmXbXnXNX*.8 V.v.K.K.C v.G.S.v.C C n.Z.7 > l.D A D L G G V A P hXgXaXuX$Xe.{   ",
"  h.xXwX0XsX5Xh.s 0.jXuXdXaXdX4 V.H.J.D.F.D.G.H.H.H.J.G.H.S.A.3 H $.V xXNXwXwXh.H P aXaXyX6X@X%X'   ",
"  w.wX5X5X7X2X-., G 1 l ] 1 > z.S.H.H.G.n.V.G.G.G.H.H.H.H.H.H.M.# *.s 5X5XqXI.h.z G 7XuXuXuXtX%X .  ",
"  9.fX9X5X1Xh.u.s P W ;.T w.@ V.S.H.H.G.m.5 2 2 3 7 Z.H.H.H.H.S.8 < l 5XqXqXI.h.z L v j x _ ( j j   ",
"  +.4X5X4XyXf.$.s ,XZXMX0Xk.2 N.H.H.H.H.G.G.Z.V.C.V.H.H.H.H.H.G.m.> $.5X5X5X1Xh.J Z Y J K F f L L   ",
"  w < l l 1 l , e ,XxXwXxXO.6 N.H.H.H.H.H.H.H.H.H.G.H.H.H.H.H.J.C.+ *.9X0X7X2X3Xz R MXzX7X3Xu.0.j   ",
"  A P R -.-.R D U 8. XnXnXq 6 S.H.H.H.H.H.H.H.H.H.H.H.H.H.H.J.L.F.# 9.7X3X7X3X3Xz T 9X,Xh.4.u.3.[   ",
"  8.xXzXfX0XsX-.P $.f.vXbXq 6 S.L.J.H.H.H.H.H.H.H.H.H.H.H.H.J.L.D.4 $.+.+.+.+.+.l T 1Xh.u.<.4.&.j   ",
"  2XNXpXwX0X3X#.T lXpXjXjXO.2 D.L.J.H.H.H.H.H.H.H.H.H.H.H.H.H.J.G.4 J Z G G G G R T h.w.9.e.2.@.-   ",
"  ,XlXpXiXyX$X#.-.aXaXd.yXk.+ B.L.H.H.H.H.H.H.H.H.H.H.H.H.H.S.H.G.2 K Y zXlX0X7X-.F p.3.2.2.%.` !   ",
"  q.hXiXyXuXOX#.=.a.@.g :.k.O v.L.D.F.H.H.H.H.H.H.H.H.H.H.S.M.A.V.# O.J fXsXuXuX+.e | g k u ; = !   ",
"  $.1XyX6X$XXX@.;.=.a n Z , q b.G.v.3 A.H.J.H.H.H.H.L.L.L.D.2 z.B.+ *.H uXuXyX+Xx !.t r & & & w r   ",
"  z +.1.1.1.<.v Q.~.~.'.Q.I $.7 Z.2 @ Z.L.P.J.H.G.G.L.P.L.V.@ z.x.O o.v 6X6X3Xs.v L ).L T R 8.8.W   ",
"  A Z A U I 8.^.!.-X~._.<X8.dX4 x.X @ F.P.P.L.V.2 B.J.L.J.M.+ z.3 < 1 z $X3X%X;.U ).).=X0.9XiX7X#X  ",
"  8.hX'.^.'.Y '.~.;X'.mXzX=Xg.X @ X + C.P.P.G.x.. c.S.J.H.z.. X X o.= d x { T R.Q.).iXyXg. X3X6Xg.  ",
"  1XiXhXq.`.AXvX-.`.mXcXgXhXO.% O h.q C.P.P.D.3 . c.N.H.V.# $.&.o x r P U P Y S Y.Q 6X6X$X6X@XXXj.  ",
"  0.@Xq.b hXjX.XJ jXmXgX<X6.0Xo.o.dXq n.L.J.n.X . z.N.S.b.> [ ) U.5XmXVXMXvXbXgXaXJ <.] $X$XXXXX2.  ",
"  <.hX6Xi.g b 8XhX0.1X4.}.0X0Xg.l.4XO.b.J.G.7 o < 2 N.N.# 3.b F pXbXjXhXsXaX3X+XOX+.].>.XX%XXXoX,.  ",
"  k { j k , 8X7X8Xq.mXmXjXeX9X7X7Xf.l.5 S.V.@ o.k.X c.M.$ P Q.W aXgXgXaXyX6X@X@X{.z E.*X5.,.=.' |   ",
"  f e J T E.<X1X,X@XnXmXjXhX8X,X|.g.h.$ B.x.o d.&.o 3 c.$ Q !.Q 7XaXhXyXtX$X@Xi.} s Y.!.^.W.W W E.  ",
"  8.<Xh.<X8.f. X}.=.|.hXhXhX6X{.p.y.3.> z.z.o _ - *.O 2 $ I.-.U x ] >.3.2.6.#.| f L <XeXiX7X3XyX1.  ",
"  f.5X2XsX<.-.g.}.6X}.@XyX$X+Xi.5.2.%.O.@ 3 % = = , 9.> % h.4.e V d d L L ~.R.I S _.iXyX1X@X|.OX%.  ",
"  w.f.0. X#.F =.#X|.p.0.XX|.XX6.%.k - : % X 1 b q.2X_.h.h.d.1.e ).`.`.q.8.'.).R L ;.7X6X@X@X{.XX,.  ",
"  7X7X,X#X#.G b s.p.y.>.x t.) - = & r Z F O q 2X0X,X}.q.y.0.4.L 1X1X X}.i.+.{.5.g J $X$X$XOXoXXX:.  ",
"  ,X1X+XOX4.G f t.a.e._ = = % & e P U U Q.$.< 8.h.f.0.9.<.4.>., p.s.a.u.e., 2.1.j x %X%XXXoXXXXX:.  ",
"  |.$X+XOX=.L U = - : : w r 8.lXbXlXaXjXJ -.k.7X-.q.9.<.&.] ) = 4.y.3.1.] 2.b } h g :.2.r.e...[ `   ",
"  i.OX%Xs.E Y.Y.e a a L R.S CXpX7X3X#Xg.x T 1X0.q.4.<.&.&.%., , @.e.<.oX2.,.,.| u w w a , = & , y   ",
"  a a v I ).Q.<X<X<X<X_.W Y 6X6X1X$XOXa.x b d.0.0.<.&.<.,.:.` a g { XX,.:.} ` ^ u n Y +X{.y.,.| n   ",
"  8.uX3X+X-.8.pX0XiXiXbX9.L $X$X%X%X%Xa.l f e.<.>.&._ / :.{ ` , E X.t. .} [ ^ ! i 7.E 5.<.%.{ [ h   ",
"  $X3Xg.d.@.0.iX7X6X3XuX_ e %X@XXXj.oX2.] f >.,.@.@.) h ^ ( ^ ! rXoX:. .[ ` ~ ~ N E.=.@.%.{ ` ^ ;   ",
"  ,.XXi.e.] 0.6X6X3X%XOX] r 2.a.r.j.%Xr.b m u :. ./ ` ! = y c c *X&X]. .` ..(.].(.(.{.' [ / ( u y   ",
"  k x b ' =.3.$X$X@X%XoX' e s , , , , = e I = - ! ~ ! i y n N E ^.&X`.W.W.!.T.].[.X.k y n y i c R.  ",
"  L W.;.E.E.6.@XOX@XXXj.` e <X=X.Xp.y.5.1.m Z y = y n m E.I 8X<X'.{.<X=X}.(.-.6.b I U A R.Z L I Y.  ",
"  8.q.<Xq.L =.XXe.r.j.r.` l gX|.d.3.<.,.:.g ].E ;.q.;.E E.}.yX|.%X(.a.a.3.7.%. .h f .X#X}.q.{.5.J   ",
"  3XjX Xu.s n k | b ..! ~ g .Xy.3.>.%. .{ , =.aX6X$X6X%.e p.u.0.2.=.3.2.%.@.[ / ; v s.s.r.6.,.:.(   ",
"  i.OXu.2.b T f b | t.^ N x OX1.&.%.{ [ ` - +.3X#X%XOX:.s b 3.1.,.,.] @.{ ' [ ^ u v a.y.2.>.%.{ ^   ",
"  v 1.3.>.@X6.,.7.].].rXM m +.>.%.[ ) ( ^ - v %X%XXXj.:.a | =.>.&.{ / [ [ / ^ c i J <.&.%.{ [ [ ^   ",
"  4.] } a.2.%.{ [ M kXrX[.M %X%.{ ) ( ( ; ; ] %XXXj.j.:.a =.=.' ( - ^ j ^ ^ ` i 7.=.%.%.{ [ [ / !   ",
"  v | k oX:. . .` ..rXrX7.N ` c ` ^ ^ h | a 6.oXoXXXj.h N }  .` ( h ! ; ` c ~ 7.&XX.` | [ [ ` ` !   ",
"  Y.E.f c  .....X.(.!.W.rXW.y B : = = = n e 7. .[ [ ` =.W n : : : : p p f /.m (.(.W.B = y = B y n   "
};
