/* XPM */
static char *out[] = {
/* columns rows colors chars-per-pixel */
"50 50 246 2 ",
"   c None",
".  c #090605",
"X  c #190808",
"o  c #1B1917",
"O  c #270905",
"+  c #390A05",
"@  c #26130B",
"#  c #271815",
"$  c #36170E",
"%  c #162C1A",
"&  c #19351C",
"*  c #292C1D",
"=  c #193827",
"-  c #1C3C33",
";  c #173B36",
":  c #132E24",
">  c #2A2926",
",  c #263C28",
"<  c #383531",
"1  c #480A03",
"2  c #571404",
"3  c #4D1408",
"4  c #690903",
"5  c #760E02",
"6  c #4D2D0D",
"7  c #713100",
"8  c #463C39",
"9  c #264718",
"0  c #37591A",
"q  c #2F5117",
"w  c #396413",
"e  c #1C442B",
"r  c #1C423C",
"t  c #194537",
"y  c #0F4031",
"u  c #294626",
"i  c #324424",
"p  c #344A29",
"a  c #3B542C",
"s  c #385625",
"d  c #2C4434",
"f  c #24433D",
"g  c #2A443A",
"h  c #284737",
"j  c #344333",
"k  c #3B4D34",
"l  c #374A38",
"z  c #245236",
"x  c #3B533A",
"c  c #395638",
"v  c #2A5229",
"b  c #3B6326",
"n  c #3A6637",
"m  c #356935",
"M  c #1E4015",
"N  c #435C1E",
"B  c #775000",
"V  c #48691B",
"C  c #4F7317",
"Z  c #597A1D",
"A  c #516B1F",
"S  c #435C2C",
"D  c #435828",
"F  c #44483C",
"G  c #48583A",
"H  c #404C2F",
"J  c #466826",
"K  c #546D28",
"L  c #4D7725",
"P  c #587627",
"I  c #496538",
"U  c #566839",
"Y  c #4B7436",
"T  c #5A7936",
"R  c #637E3C",
"E  c #1A4A43",
"W  c #1B5447",
"Q  c #254B44",
"!  c #2B4C44",
"~  c #2E4E49",
"^  c #264642",
"/  c #324D43",
"(  c #364E45",
")  c #2A5349",
"_  c #345345",
"`  c #3B5344",
"'  c #34534A",
"]  c #3A554C",
"[  c #3C5B4E",
"{  c #365A48",
"}  c #3A5C50",
"|  c #3A6455",
" . c #3D6B4A",
".. c #524A43",
"X. c #445544",
"o. c #435B4D",
"O. c #475A47",
"+. c #54584A",
"@. c #445D52",
"#. c #4D5E51",
"$. c #555A54",
"%. c #474D42",
"&. c #486547",
"*. c #576747",
"=. c #58764A",
"-. c #446254",
";. c #4C6354",
":. c #4A6657",
">. c #536554",
",. c #546A55",
"<. c #546B5B",
"1. c #5B6D5B",
"2. c #586855",
"3. c #5C725D",
"4. c #597558",
"5. c #487553",
"6. c #65784A",
"7. c #646A5A",
"8. c #64735C",
"9. c #687858",
"0. c #6F725A",
"q. c #5C7363",
"w. c #587767",
"e. c #4D7061",
"r. c #646A62",
"t. c #736B61",
"y. c #647562",
"u. c #6B7562",
"i. c #657A64",
"p. c #6B7B65",
"a. c #647C6A",
"s. c #6C7D6A",
"d. c #6C736A",
"f. c #717C64",
"g. c #727F6A",
"h. c #787866",
"j. c #657E70",
"k. c #685D53",
"l. c #8A1502",
"z. c #961602",
"x. c #900A01",
"c. c #B10B01",
"v. c #892C00",
"b. c #B02600",
"n. c #D30800",
"m. c #D51500",
"M. c #C80E00",
"N. c #F41800",
"B. c #E21B00",
"V. c #C92800",
"C. c #DB2D00",
"Z. c #D42A00",
"A. c #E92D00",
"S. c #F92800",
"D. c #F53100",
"F. c #FE3300",
"G. c #FF3B00",
"H. c #F43A00",
"J. c #E63000",
"K. c #865E00",
"L. c #AA7200",
"P. c #FF4400",
"I. c #FF4800",
"U. c #EE4000",
"Y. c #837A6B",
"T. c #847C7A",
"R. c #5B841C",
"E. c #639113",
"W. c #5B8424",
"Q. c #598534",
"!. c #658826",
"~. c #689525",
"^. c #6C9133",
"/. c #70A31C",
"(. c #55884E",
"). c #6B8448",
"_. c #6E8254",
"`. c #758659",
"'. c #72914A",
"]. c #59896A",
"[. c #4A8673",
"{. c #6C826B",
"}. c #748265",
"|. c #75836B",
" X c #7B856C",
".X c #7B886B",
"XX c #6C8372",
"oX c #658273",
"OX c #738573",
"+X c #7A8673",
"@X c #758975",
"#X c #7C8A74",
"$X c #7C8D79",
"%X c #758979",
"&X c #699A7B",
"*X c #7B9677",
"=X c #7F956D",
"-X c #BB8E00",
";X c #85AE2A",
":X c #83B21A",
">X c #D0AE00",
",X c #EBBC00",
"<X c #85886E",
"1X c #869569",
"2X c #838B74",
"3X c #8B8C74",
"4X c #848E7A",
"5X c #888977",
"6X c #978E77",
"7X c #85927C",
"8X c #8C947C",
"9X c #899375",
"0X c #93937C",
"qX c #98967B",
"wX c #94856D",
"eX c #A5957C",
"rX c #97A073",
"tX c #75A48A",
"yX c #7E9080",
"uX c #8C9682",
"iX c #8C9984",
"pX c #879684",
"aX c #939B84",
"sX c #9B9C84",
"dX c #959E8A",
"fX c #999986",
"gX c #A49B84",
"hX c #A79E91",
"jX c #9BA38B",
"kX c #97A38A",
"lX c #9BA591",
"zX c #82A996",
"xX c #A2A58B",
"cX c #AAA58A",
"vX c #B1A88E",
"bX c #A4AB93",
"nX c #A7AA94",
"mX c #AAB299",
"MX c #B4B49B",
"NX c #B8AE97",
"BX c #B5BAA2",
"VX c #BABBA2",
"CX c #AFB7A0",
"ZX c #C5B7A0",
"AX c #B9C1A4",
"SX c #C5C4AA",
/* pixels */
"  0 G G G k p , z e 9 i p , , 9 i 9 9 , p E.E.q C :XE.w M 9 9 p k a , , p k j v q q & q q & & & w   ",
"  0XcXeXgXgXMXh.c &.<XgXeXh.3XT.h.%.I 8XaXT T .X6.~.I iX*.s <XsX0X9X7.8.fX<X|.+XG u &._.#Xi.<.-.,   ",
"  xXcXcXcXxXnXh.a K eXeXgXqX6X3X<XF k jXqX`.8X2X.X9.#X7Xp.p 9X9X<X`.8X}.2X X|.s.X.&.5.I {.<.-.o.=   ",
"  sXvXNXMXMXnX Xa P qXNXgXqX0X3X3XF k sXqX9X9. X{.,.,.@X3., 8.p..X9X<X|.i.|.g.d.`  .9.$X@X>.@.) t   ",
"  0.3XCXMXmXnXiXs Z *.t.7.k.+.%.l j H 9X8X9XG 8. X|.|.y.j u j 4X2X+X Xg.;.y.y.<./ c _.a.q.<._ ^ z   ",
"   XhXCXmXmXbXdXa !.U U G G G G S J ,.<X9X2X}.9X9X#X#XOXi.u 8.+X|.|.g.y.8.p.s.q.p J {.-.' ! ! z (.  ",
"  9.BXmXmXbXlX%Xa 9XSXZXMXVXVXSX4XG U <X0.t.t.t.t.7.$X%Xy.d q.{.p.p.i.3.g.y.r.<.l V '.=.&.&.5.Q.'.  ",
"  2.g.+X@X1.;.l s 0XAXMXVXVXBXBX5X7...* @ O 3 3 2 2 3 +.d.d ] i.y.y.<.|.8.1.2.>.g s '.'._.6.T R.~.  ",
"  V i i , i H N C 6XMXAXBXBXBXCX<Xo @ 6 7 7 b.D.D.b.v.3 # ..g Q ' g d ( X.( / - r c xXsX0X8X8.3.U   ",
"  P eXgXeXvXvXeXK 1XMXMXCXCXCXh.@ 2 L.,X>X-Xv.D.b.-X>XK.v.O 8 = : % & % % % & t e G cXxXfXuXpX%X[   ",
"  <XZXeXeX6XwXwXa <XmXmXmXmXhX# b.V.7 L.B 7 V.F.C.7 K.v.C.V.$ k.U V C A J D D D C T kXkXkXpX4Xq.]   ",
"  0.vXcXgXfX3Xh.i 8.lXuX4XdX8 l.S.F.D.J.J.H.F.F.G.H.H.F.F.F.c.@ Y.+.N vXNXeXeXt.H K aXdXiX7X%X%X_   ",
"  0.gX6X6X3X<X*., S , l %.t.+ B.F.F.F.Z.V.J.D.F.D.D.F.F.F.F.D.4 8 2.i 6X6XwXY.t.k D aXuXpXpXyX%X@.  ",
"  7.gXqX0X5X X0.i K U 6.*.< x.N.F.F.F.C.5 3 1 3 2 b.F.F.F.F.F.m.$ r.i 6XwXwXwXh.p J F - l / g g g   ",
"  %.5X3X5XuXp.+.p <XZXNX6X# c.N.F.F.F.F.S.A.Z.Z.Z.A.F.F.F.F.G.A.+ +., 6X6X3X5Xh.G V P I G D a S b   ",
"  9 < j j < j , s <XvXrXhX@ n.N.F.F.F.F.F.F.F.F.F.F.F.F.F.G.P.H.4 8 i 8XqX0X5X4XH U MXnX9X4X9.u.h   ",
"  C K U *.*.U A P 6. XmXhXX n.N.F.F.F.F.F.F.F.F.F.F.F.F.F.G.P.D.x..., 8X4X7X4X4Xk I 9X<Xh.2.8.1.(   ",
"  6.vXcXcXsXsX+.K +.f.nXhX@ n.S.F.F.F.F.F.F.F.F.F.F.F.F.F.F.P.D.c.8 , G %.X.X.` j U 5Xh.u.>.2.#.^   ",
"  6XvXsXqXqX7XO.I xXfXkXxXo c.F.G.G.F.F.F.F.F.F.F.F.F.F.F.F.G.F.z.< V A D D D S Y U h.0.1.y.<.[ -   ",
"  }.xXsXaX0X#XO.*.fXfXd.uX< z.G.P.P.G.F.F.F.F.F.F.F.F.F.F.F.F.D.l.F O.P cXxX0X0XU S a.1.q.>.@._ E   ",
"  0.jXkXiXpX@XX.&.a.o.h &.+.4 D.P.I.G.F.F.F.F.F.F.F.G.F.D.b.A.S.4 %.#.G fXfXuXpXX.s c l h t = ; E   ",
"  +.#X8X7X$XOXo.=.&.u v V h.+ A.U.V.F.F.P.P.F.F.F.P.I.P.C.O 4 B.1 $.g %.uXuXiX+Xx !.w 0 & % & 9 q   ",
"  x G ,.<.,.>.k !.^.^.^.W.T @ Z.v.O m.F.I.I.G.F.F.P.I.I.C.+ X c.1 $.d k 8X7X4Xs.x J Q.I J *.6.6.T   ",
"  C V C C L 6.'./.;X~.`.1X*.> z.+ X M.S.P.P.H.C.V.G.P.G.C.O . + O $.= k $X4X%X6.P )._..Xy.aXaX4X+X  ",
"  6.kX_.^.'.!.'./.;X'.bXxX1X> O # > c.S.G.G.V.O 1 D.G.G.V.O < . . ) = s x X.&.R.!.).aXiXs.|.9X7XOX  ",
"  2XdXdX9._.AXlX*.`.mXcXkXbX> . t.h.4 N.F.S.x.. + F.G.F.b.# T.o o l q K P J Z Z R.R 7X7X$XpX@X{.s.  ",
"  8.+X_.c kXlX.XO.jXbXjX9X=.> o uXY.@ n.F.A.1 . O N.F.F.z.> f > 8 |.mXBXMXnXbXjXaXG ,.{ $X$XXXXX<.  ",
"  >.kX7Xi.h c 9XkX8.2X=.}.kX%.o t.pXF x.S.M.O $.. n.S.D.4 > c .XdXbXjXjXfXdX4X@XOXO.w.,.XX%XXXoX-.  ",
"  h { g h u 7X8X9X9.mXmXxX0X$.8 5Xf.d.3 V.5 > >.# 4 N.S.+ G !.P dXjXjXkXiXyX$XOXs.k Q.=Xy.:.&._ {   ",
"  J s G I P <X3X<X#XmXbXbXjXd.2.g.f.;.< 4 O ..#.r.X n.n.$ *.^.Q.8XdXdXpXpX$XOXq.[ p R.!.Q.Q.T T W.  ",
"  6.1Xh.9X6.}.}.}.&.|.kXkXiX4Xg.p.8.1.$.. o $./ < o x.c.$ <X*.Z k ( #.q.<.,.` &.a J 1XrXaX8X4XiX4.  ",
"  f.0X3X0X>.*.}.{.9X{.$XiX$X@Xi.1.>.o.= > > , = = o.O 4 > t.2.N N s a J J /.W.L R.).kXiX4X+X|.OXo.  ",
"  0.f.0.+XO.S &.+X|.p.8.XXOX{.q.-.h - = k , a a 0.0X8 X o r.4.0 6.`.`.9.6.'.).U J =.pX7X+XOX{.XX:.  ",
"  4X9X2X XO.D c {.p.y.#.l e.g - = & q w Z *.3X3X0X Xg.F o $.2.J 9X2X X}.i.X.s.3.h G $X$X$XXXXXXX-.  ",
"  2X5X+X|.1.b a e.a.q.~ = = & , s K K Z !.1XeX6.h.h.0.7.r.7.;., p.s.p.y.q., <.,.g ( @X%XXXXXoXXX-.  ",
"  |.#X@XOXO.J P = - = % 9 q 6.jXxXlXfXlXG *.0X9X*.8.1.>.;.` ! & <.y.1.,.` <.c [ f u ;.<.w.q.| ' )   ",
"  i.OX%Xs.Y R.R.0 , v J R.Z CXfX8X4X#Xg.k &.+X8.9.2.>.;.#.@.- , O.q.,.{.e.;.:.{ r M 9 9 , = & , e   ",
"  i u x I ^.!.1X1X1X1X9.T P 7X9X$X$X@Xa.l a p.r.8.>.#.>.:.@._ u d { XX;.-.[ ) Q r s T @Xs.q.,.{ v   ",
"  6.uX4X+X*.9.sXqXaXfXxX1.V $X$X@XOXXXa.j a q.>.;.#.( ! @.] ~ - Y -.e.} [ ' ) E t 5.Y 3.>.@.] ) r   ",
"  #X4XXXa.O.8.0X8X8X4XuX` s %X@XXXXXXXe.` s ;.<.@.] ( f Q ~ E Q tXoX| [ ' Q W W m Q.&.o.@.} ~ Q r   ",
"  :.OXi.q.` 4.7X7X$X%X@X( q <.j.w.j.%Xw.l b - | } ~ ) E = e t z *X&X].| )  .5.].(.=.{.c ~ ! ! r e   ",
"  h l _ _ &.8.$X$X#X%XXX` 0 p , , , , - 0 L = ; E W E t e v m Q.~.&X_.Q.Q.~.~.].[. .h , v t r z W.  ",
"  J Q.=.Q.W.4.#X@X@XXXoX! s 1X=X.Xs.y.3.=.J b e = e v b W.Y 9X1X_.{.*X1X`.(.=.4.n L L L W.V J L R.  ",
"  6.9.1X6.J &.oXw.w.w.w.) p jXg.u.1.>.:.| , ].T 6.4.=.Y R.}.iX|.%X(.i.{.<.,.@.} f s .X.X}.9.{.4.G   ",
"  7XlX Xy.p p h { _ | W W h .Xy.<.;.@.[ ] , &.dX7X$XpXo.s p.8.8.<.;.<.<.@.O.( ~ r x g.s.i.<.:.;.^   ",
"  y.+Xy.<.c I s c c e.Q m l |.,.#.@.] ' ~ - X.4X@X@XOX-.u x 1.2.>.;.` [ ] ' ~ Q ; x d.y.<.-.[ ] ^   ",
"  x ,.1.;.@X3.;.5.].].tXn s X.;.@.] / ! ^ - x %X%XXXj.-.u n &.;.@.' / ` ' ! Q z t c >.-.@.[ ] ~ ^   ",
"  2.` [ a.<.@.} { n zXtX[.n %X-.' ~ ! ^ r ; ` %XXXj.j.-.u &.;.' ! ^ ^ f ) Q ) t 5.&.o.o.] ' ' ~ r   ",
"  x { h oX-.} } ) | tXtX[.b Q z ) Q Q ^ _ e 4.oXoXXXj.f c  .| Q ^ - r r E z W e.]. .) { ' ) ) ) E   ",
"  R.W.s z } | |  .(.~.Q.&XQ.9 e = = = = v 0 =.} ) ' ) &.T v : : = = y ; b /.b (.(.Q.v & = e M e m   "
};
