/* XPM */
static char *out[] = {
/* columns rows colors chars-per-pixel */
"50 50 249 2 ",
"   c #182D17",
".  c #1A371A",
"X  c #22371F",
"o  c #223B1C",
"O  c #142D25",
"+  c #193727",
"@  c #15342B",
"#  c #1B3C2B",
"$  c #1C3E33",
"%  c #193B37",
"&  c #223D26",
"*  c #283A27",
"=  c #223D2B",
"-  c #313D2F",
";  c #283D33",
":  c #284619",
">  c #2C4B1B",
",  c #2C4F19",
"<  c #37561C",
"1  c #37640E",
"2  c #3E6017",
"3  c #3C621E",
"4  c #1C432C",
"5  c #1E4829",
"6  c #0F4437",
"7  c #1B4738",
"8  c #1C443E",
"9  c #2B4423",
"0  c #2A4826",
"q  c #24442B",
"w  c #2A442C",
"e  c #334C24",
"r  c #344B2C",
"t  c #384B29",
"y  c #2C5428",
"u  c #395827",
"i  c #254332",
"p  c #2B4333",
"a  c #264C36",
"s  c #24443C",
"d  c #2B453B",
"f  c #2C4B3D",
"g  c #364435",
"h  c #334C34",
"j  c #3C4D34",
"k  c #344C3C",
"l  c #3C4D3B",
"z  c #29563A",
"x  c #3A5636",
"c  c #34523C",
"v  c #2C602E",
"b  c #3C6327",
"n  c #3B6338",
"m  c #435C1D",
"M  c #45661A",
"N  c #4B6C1B",
"B  c #556D1E",
"V  c #497015",
"C  c #54781B",
"Z  c #455B28",
"A  c #445C2C",
"S  c #475938",
"D  c #4B5838",
"F  c #476826",
"G  c #4C6B2A",
"H  c #516929",
"J  c #4B7427",
"K  c #547A23",
"L  c #56772A",
"P  c #4B6333",
"I  c #486639",
"U  c #556938",
"Y  c #487735",
"T  c #577637",
"R  c #627939",
"E  c #1A4942",
"W  c #1A5245",
"Q  c #254A44",
"!  c #294A45",
"~  c #2C4C45",
"^  c #324E44",
"/  c #354E47",
"(  c #295448",
")  c #345344",
"_  c #3C5443",
"`  c #35544B",
"'  c #3B564C",
"]  c #385A48",
"[  c #3D5A4C",
"{  c #365951",
"}  c #3B5B51",
"|  c #36644B",
" . c #396454",
".. c #425443",
"X. c #495647",
"o. c #445B44",
"O. c #4B5C43",
"+. c #435C4C",
"@. c #4A5C4C",
"#. c #545B47",
"$. c #435D51",
"%. c #4A5E52",
"&. c #49674A",
"*. c #4B634C",
"=. c #54644B",
"-. c #586949",
";. c #487A4E",
":. c #5A7744",
">. c #446354",
",. c #4C6354",
"<. c #4B6B57",
"1. c #4C6659",
"2. c #526554",
"3. c #586656",
"4. c #546A54",
"5. c #5C6B55",
"6. c #546C5B",
"7. c #5C6D5B",
"8. c #4A7A58",
"9. c #5C725B",
"0. c #597758",
"q. c #616A4B",
"w. c #64744C",
"e. c #677948",
"r. c #636C57",
"t. c #616E5B",
"y. c #637154",
"u. c #6B7C54",
"i. c #63725D",
"p. c #6A745C",
"a. c #687A5C",
"s. c #737B5B",
"d. c #567466",
"f. c #5C7362",
"g. c #5A7667",
"h. c #637563",
"j. c #6A7562",
"k. c #647964",
"l. c #6C7B64",
"z. c #657768",
"x. c #647C6B",
"c. c #6C7D6B",
"v. c #737C64",
"b. c #787A67",
"n. c #7B7C64",
"m. c #727E6B",
"M. c #687F71",
"N. c #847E69",
"B. c #5A851B",
"V. c #658B1C",
"C. c #6E9C1B",
"Z. c #7BA918",
"A. c #5B8324",
"S. c #5B8839",
"D. c #648729",
"F. c #6C9328",
"G. c #658534",
"H. c #6C8D39",
"J. c #6F9634",
"K. c #79A425",
"L. c #57864D",
"P. c #578459",
"I. c #68874A",
"U. c #6E9149",
"Y. c #6A8659",
"T. c #768558",
"R. c #779355",
"E. c #57856A",
"W. c #568D74",
"Q. c #688765",
"!. c #6B816C",
"~. c #738165",
"^. c #7A8264",
"/. c #788A65",
"(. c #74836B",
"). c #7A846C",
"_. c #7B8A6C",
"`. c #6A956D",
"'. c #668273",
"]. c #6C8372",
"[. c #738573",
"{. c #7A8671",
"}. c #758975",
"|. c #7C8A74",
" X c #738A79",
".X c #7C8C79",
"XX c #7C947B",
"oX c #7EA372",
"OX c #91BD2B",
"+X c #849055",
"@X c #839656",
"#X c #8EA058",
"$X c #92A258",
"%X c #86876D",
"&X c #938C6D",
"*X c #869269",
"=X c #838D74",
"-X c #898975",
";X c #8B8B75",
":X c #838F7A",
">X c #958D76",
",X c #859475",
"<X c #8B9276",
"1X c #84927C",
"2X c #8C947D",
"3X c #92957D",
"4X c #989779",
"5X c #94997D",
"6X c #A4937C",
"7X c #94A373",
"8X c #679884",
"9X c #6A9D87",
"0X c #869581",
"qX c #8B9681",
"wX c #8D9A84",
"eX c #979A84",
"rX c #949C84",
"tX c #9A9C83",
"yX c #959E8A",
"uX c #A49A82",
"iX c #A89C84",
"pX c #B39F87",
"aX c #9DA286",
"sX c #97A588",
"dX c #94A28C",
"fX c #9BA48C",
"gX c #90A891",
"hX c #9CA892",
"jX c #A3A285",
"kX c #A3A48C",
"lX c #ACA58C",
"zX c #A7AA8C",
"xX c #B4A98F",
"cX c #A6A590",
"vX c #A4AC93",
"bX c #AAAD94",
"nX c #A5AF99",
"mX c #B2AD91",
"MX c #A7B396",
"NX c #ACB39C",
"BX c #B4B599",
"VX c #B3B59C",
"CX c #8AB1A3",
"ZX c #AEB9A4",
"AX c #B4BAA2",
"SX c #B8B9A2",
"DX c #C3BDA6",
"FX c #BFC2A8",
"GX c #C3C4AB",
/* pixels */
"M #.q.q.#.S l w ( y t S j * g g r : : j A C.B.< B.Z.V.2 : > : D #.D S . ..X.X.j u > : o < y & # . 1 ",
"^.lXiXiXuXtXqXS n q.lXiX>X%X-X-Xb.* S tXrXL e./.u.A.A wX9.u u.kX<X2Xv.S eX=X{.m.j.* u Q.-.!.f.6.] 9 ",
"%XlXlXmXlXbXeXX.H T.iXiXuX>X>X-Xn.- -.kX5X^.:X=X(.l.(.1X(.h p.3X%X@X<X|.=X).).m.9.g 0.P.0.j.6.>.] # ",
"^.lXmXBXNXvXfX#.H e.iXpX4X>X-XN.b.- y.kX4X).a.l.l.6.4.(.k.w O.h.l.<X=X).5.m.c.l.3.d 8.1XXXa.,.[ Q @ ",
"q.n.AXZXNXnXfXO.B H r.p.q.3.#.h g * y.2X5X_.S 5.~.(.).0.h 9 9 |.=X_.).m.i.2.i.f.*.i T c.f.6.,.s s z ",
"p.eXNXNXMXnXhX=.K G.U D D I I U P I.i.2X,X_.a.=X|._.).}.k.h *.1X(.(.m.l.3.:X.X.X_ u S.&.) ~ ~ i ) `.",
"=.VXvXvXfXdXyXo.U GXDXSXVXSXFXGXy.:.U.^._.~._.|.).}. X].h.f *.m.l.c.j.i.m.c.i.6.,.9 A.R.Q.a.8.P.S.U.",
"S 3.t.i.r.2.l w U SXSXSXSXSXAXVX@.F e.).v.(.|.(.(. X[.].g.` ^ 6.f.f.4.z.h.7.3.2.>.& G 7X*XT.e.U V.F.",
"M m Z Z Z Z Z B R VXSXSXAXAXZXNX@.I y.[.l...7.7.6.f.d.d.d.W @ 8 ) d = _ l g d d s 4 s.VXeXeX<Xt.Y.T ",
"L 4X>XN.&X>X>X#.U mXVXSXZXNXNXNXo.T 9.o.k * 0 r e y q p z y 9 q & + o . . . O * 4 0 ^.cXfXyXqX.X'.) ",
"w.DXpX6X6X>XN.X.D nXvXnXnXNXnXvX[ M D.J L I.J.V.F.D.L e.u.T.e.T.w.P V B U U U U Z C u.dXyXrX0X[.g.k ",
"q.pXiX6X6X>XN.S S qX:X:X.XhX1Xc.~ M @X$X$X$X$X#X@XD.4XBXmXmXbXSXkXr.< &XxX6X&X>X#.< y.rXwXqX:X X Xd ",
"#.iX>XeX>X-Xb.g e j g l l p - - q A DXmXxXcXlXcXNXS rXbXzXbXBXvXrXp.X N.6XN.N.N.#.e -.qX{. X.X[.'.) ",
"#.uX>X>X-X-Xb.S m T -.U D -.S u M G VXSXcXuXtXtX-X_ -.=Xa.MXnXfXwX0X* %X&X>XN.N.r.t P g ; d ^ ; f w ",
"S N.%X-X-XqXX.g U DXDXxXkXkXjXy.> P bXcXfXcXfXfX0X..yXnXvXwXfXwX:X.XX N.6X&X-X{.p.e N H D A A u u b ",
"o - g g - g - o -.uXjXjXcXzXdX5.< t SXbXnXcXhXdXwX- qXZXhXdXz.z.%./   b.eX>X<X<Xp.e ^.GXcX3Xb.l.a.i ",
"V B P D U D H C T p.eXbXcXfXyX,X< t nXvXgXdXdX:X#.l 0.dXgXyX1.:XXX}.+ p.eX:X-X:Xh.t w.%Xn.b.3.7.7.! ",
"R xXxXlXiXtXv.Z D =.dXbXvXdXqXXX9 r k.k. XgX8X3.2.- k s Q % ; $.+.s + j _ ......d j y.n.b.t.t.2.+.; ",
"s.VXuX4X3X2X5.A %XkXqXhXfXwX0X].= P./ f f i p 6.,.: F u r r 9 : : 9 < V m m Z F F T -.v.j.t.f.6.' % ",
"a.lXeXeXeX1Xz.A <XyXwX[.wXXX0.f = `.MXXXY.Q.R.E.<.w.jXBXkXeX;XS aX3Xt.M &XkXtXeX{.A O.i.3.f.%.$.~ 8 ",
"q.aXrXqXqX.X3.*.6.6.d w 6.) [ q n U.#X`.H.A.L *XQ.4XDXjX>X<Xv.s._.:X~.e eXeXeX2Xc.e y _ = $ # @ % 6 ",
"#.v.qX0XXX}.1.I 0.n r M u q x n A.H.@X<XfX4.v.T G.zXBX>X).5.2X<X_.&.@.9 :X2XqX:Xf.u B.< > . . . : < ",
"t S 4.i.Q.c.o.G F.J.U.G.C G e.T.5XmXjX4X5X*.(.y.M p.:X).,X2X2X|.(.f.c X {.2X1X X3.u F R.P P e.e.T G.",
"N N V J A.:.R.D.OXK.J.I.e.5XGXjXuX5X7XeX<X~.).t.< j p.sXwXwX1X[.c.6.$ o [..X.Xc.U K R.w.l.i.2X1X-X~.",
"U zX*XG.U.J.R G.OXK.*XaXaX5.jXuX4XaXrXwXn.).b.r.X =.wXwXwX1X|.x.d.( 7 , r l o.L F.G.,XwX1Xi.{.2X.Xh.",
"~.sX5X/.I MXMX/.P zXsXaXsX|.5.jX5XaXrX2Xv.b.v.p.- r 0X0XXX X!.~ @ + y J D.L L F.D.D.p.:X:X0X|.[.[.9.",
"2.:X_.x 9.sXsX&._.vXsXsX~.i.5X~.5X2X<X|.p.v.v.p.2.0 / g.'.( 7 4 q =.fXtXjX5X2X;X=Xv.I 3.h.8X X].'.*.",
".. X|.(.) o.~.:Xi.!.l._.T.tX4X5Xa.1X=Xc.l.p.j.r.@.: ; $ a 4 z u =XvXvXfXrXhX:X|.[.i.&.,.h.|.].!.M.[ ",
"k %.o.c & h.3X;X(./.vXvXjX,X>X=Xv.a.m.5.5.i.3.2.X.& I &.8.:.A.S.rXhXfXyXwX0X.X X!.3.u U.Y.g.g.<.] ] ",
"u < h x N T.=X=X~.MXMXzXfXrX,X_.~.v.j c.j.t.2.@.X.i J F.D.G.V.G.v.hXwXwX0X.X[.!.6.k 3 F.D.T L J J A.",
"U +Xs.s.s.:.n.).=.4.sXdXdX1X|.(.l.i.4.4.5.2.+.c d @ G *X4X>Xy.N X.l 3.x.k.f.6.o.x u L 5XzXwX2X2XfX*.",
"r.eX;XeX^.S l.j.|.1Xa.wX0X|.(.0.7.1.$.; = e + O + o ^.;X<X).y.e N > > > < A.K.J K C 5XrX2X=X[.m.[./ ",
"#.p.-.-Xj.t @.(.(.l.j.0.].].!.9._ 7 @ . . : o e w.4XT.^.m.j.5.x T /.T.u.e.T I.P P N m.2X=X{.[.c.M.$.",
"b.<X-X{.h.> e k.c.z.4.+.9.>.d @ + . , V C N s.&X;X%Xn.:.j.7.5.J ^.=X).m.z.,.m.h.@.* j.-X.X}.].'.'.{ ",
"j.=X|.[.j.r N ] x.h.%.s O @   9 F K K K V.*X;Xw.v.b.p.5.=.7.6.h 7.c.c.j.i.+.+.6.[ = 7.8X X X].].].} ",
"t.|.{.[.h.x T 9 % @ O . : < ,XfXfXtXeXqXA y.;X2Xq.t.r.3.@./ / + *.j.f.7._ f.o.] ] # ^ 1.g.g.d.} ~ ( ",
"5.[.}.].&.A.B.V : 9 u V B.e.VX3X1X=X|.c.x D =Xt.p.5.3.1.%.%.d # k x.<.!.f.<.>.>.~ # > 9 0 w & & + 5 ",
"e p l I L A.R.7X*X/./.e.L e.wX=X.X|.[.c.h *.j.7.7.2.X.1.1.%.' # 0 ^ ].6.,.+.} ( 7 7 b J l.f.<.+.c y ",
"-.|.=X|.Y.L fXeXrXrXyX3Xt U 1X.X X[.].x.r I x.3.2.@.' d } { ~ ; Y | d.<.[ { ( E W a :.n 6.,.$.` ~ $ ",
"~.wX(.c.7.S qXeX2X:X0X{.h &..X[.].!.x.d.x x ,.1.+.' / d Q ~ ! E P. X>.{ ` ( ( W z Y :.*.$.$.{ ~ Q % ",
"4.[.x.g.,.j 1X1X:X.X.Xz.p u x.d.g.g.6.1.x n Q } { ~ Q Q @ 5 8 7 `.`.XX . .| | ;.W.S.E.9.p ) ( Q f 5 ",
"q ) ] ) c I |..X.X X].g.i F h w h p d q b J @ 8 Q ( W 7 4 y v Y S.oX`.I.S.S.K.L.8XP.c a 9 a 4 8 v K ",
"b S.Y.T A.T  X X[.[.'.d.i G ^.a.i.5.2.2.I N b 4 6 4 5 y J J I.Y.U.;./.Q.Y.T Y I | n A.N K K b b J V.",
"U y./.u.G G  X!.f.'.x.d.f t.=Xv.i.5.1.1.' p 8.Y n I I G B.e.rX).].I c.x.f.,.%.$.( q I XX|.:.a.Y.-.x ",
"(.hX{.l.&.u i ] ] ) ( W W *.(.h.3.%.$.} ' = 4.wX=X|..X4.< 0.l.h.7.4.9.0.%.$.' / ! $ 9.(.!.h.6.4.%.Q ",
"5.1Xz.i.*.t b u c >. .z n O.m.2.%.$.' ` ~ + =..X{.}.].1.0 x 7.3.2.1.k $.' ' / ~ 8 7 3.j.h.d.$.' ' % ",
"l 2.7.2.0.f.<.I P.P.W.XXY 0 %.%.$.` ^ ! Q @ X.}.}.'.M.>.0 x +.2.%.+.^ ] / / ( Q 7 a o.6.%.$.' ' ` % ",
"@.@.+.1.f.>.[ { ] E.CXW.8.*. X$./ ^ ! ! E % +.}.].M.x.>.0 x &.] ^ ! ! % ~ ! Q a z ;.%.$.{ ' ` ` ~ 8 ",
"c o.a '.1.$.{ { ( W.9XW.;.z ( ~ ~ ~ Q f f 5 f.'.'.].x.~ y _ >.] s s 8 E E E W W W.E.( ] ] ` ` ( ( E ",
"V K b a {  .{  .;.S.J.`.W.b . 5 @ # @ 4 y b 0.} { ` (  .Y u @ @ O @ % % # B.A.Y P.L.y 4 # = # 4 7 y "
};
