/* XPM */
static char *out[] = {
/* columns rows colors chars-per-pixel */
"64 64 19 1 ",
"  c #228700",
". c #268900",
"X c #2D8E00",
"o c #348E00",
"O c #2E9100",
"+ c #359400",
"@ c #3B9600",
"# c #369900",
"$ c #3D9A00",
"% c #409700",
"& c #439C00",
"* c #499F00",
"= c #45A100",
"- c #4BA300",
"; c #4DA900",
": c #52A501",
"> c #53A901",
", c #59AD01",
"< c #5CB101",
/* pixels */
">>;;;>,>:-***---&&$$;;;;;=#$;-$o%&*=$=;=@+*-%$&&@OO+%&%$-;-&+#&;",
";;;;;:::-&-&&&&&%$$$=;;;;=$=--$@%&--&$==@$*-=&&%@++#&*%%=;=&##&-",
"==#$--=&$%&&&%%$$$&$$=;;==;=--=$%&:*$$$$$&&-=&$+@@$&-*&&--=$#$==",
"==$$===%$$%&&%$$$#=$$$=;=====-==***:=###%&&=-&$o+$&--&&=-=$$$$$&",
"$=*:;;-*&&&=&&%$$&-===-;=$==$==;:*::=&##$&&$==##+@&**&##$&&&*&$$",
"=;:>----&&==&%%%&&=;--===$=$#$;;::*-*&@#$&$===####&*&&$$$&&--&@#",
";>,>&%&&=$$#@%&-==$$====$$#$#$;;-*-&-=$#$%====$#$&-*&&=-===&&&@@",
":>,:&$%&==$@@$&&=$##=&&&$$#$$=;;--&&&&&$$&&====$&&;---::;-&%%%@#",
"*:>:&&%%$&=&$$&&;=OO#$%%=$==&&&---&%&%%%&&&$$=;-=&;;;>,,>=&%@@@@",
"&*,:-%$%=-::&%&&==#O+#&&==;;=&&&*--&%%&%&&$==-;;-=;;>>,,:-&&&@@@",
"$=>>*$@$;>,,-*&%&&@+#$-:=->>=&&&&*:;%@&%#$==--::--;>;;;:-::--*#+",
"$&>,*%%&:>,>:-*&&%@$#%-:--,>-&**%&:-%@&&$$=--:-:*:;----=**:;-&@+",
"$&--::-:>>:-*-==&%$$$&--&*:>===&%%:*$@*-=$&=::--*&-==&=&%%*-%@%&",
"%&*--:::**&&%=;;=%$#$%&=&-:;=&&&$%**#@--&=&-:>--*&=&&&&&@@&&@@&&",
"=-------*%%$$&>>*$@+++@#&---#$%%+@&&$$*-=--->:;--==$$%-*@o%&&&&&",
"-=--&%*&%$$$$=;>*%@o#@#$--;-=&&&%%%&$%&*&&*-;;-=--&$@$-;%%%&*&*&",
"&=-;##%&&$$$%=;;=&@@%&&*:>>>>>:***-*&%&%%%**==$===$#$%--==-&===-",
"&&==##&=&%$$&=;;-%%@&***>,,><,>:::**-&-*&%&&&$$&;;$$%&=----====-",
"&&=&+@--*&&&&&-;-&$@&*&*,,,,<,;-:*%&->>,;-&&%%$=;;&%&=$=&*&==&&&",
"&&-&@$-:&&&&$$==&$o@&*&*>>>>>>-***$#=>,,>;&$%%$&=-*&&==$&&=&&&=&",
"-:>;&=-=$#=%+#$$%@o+&****&&&*::-**%%&-;;;-$$%$@@=;:*$$&=#$=-;---",
":-;;=&==$##$+@$%$$o+&**&&%@#&*--*%%*&==--=$$%$##$=**$#=&#$=;::-=",
"&&$=$$===$%$$$*-&%@%*-*%%%o@&---%$*:--==-&$$%%+o#%**%%%&$$&=;;&$",
"&%$$$$$&&%%%&&::*%%&::*&&%@$&*-&$$**-==&&&$$&%%+o@%*&&&&$$==;;$$",
"&&&$##$%%%%&-;;-&&---*&===$@%&&*&&&***&%@o$$&*&$@@$&&*=*==--;;$$",
"&&=$$#%%&%%&-;--&&-:-===-=$@$$&*&%%%%&%$+o@%&-=%#@&&&&&*=--:;-$$",
"&%=&=&&&*&&&---=&&;;==-;;=$+#@&$$@&&%+#@$$%%&*&&@#$=%%%$$&;:>:=$",
"&&&=--&%&*%&*-;-&&--==&-;-%$##&$+#&*%+#@$%&*-*&%$$==&$+$$&-:>>;=",
"&&&*:-%$&*&&*->>;-;-$$&;::=$$===@o**&%%&$%*-::*%@#-;-&@$&&%=>,:-",
"==**-&##--&&*:>>;-;=$#%*::-=$===@%*:***&$&-::-&$#@=--&#$-=$%:>>:",
";;-:*&#$-:&&;;--*&&%#@$&-::=$#==&*:**%&%%&==$$##@#&=##@$&%$@&=::",
">>-*&%#@-:**;:==&&$@#$%*:>:-$#$$**--%$&*-&==#++#@$%$@#@$$$@$$*-*",
">:=$%%@@&;**:>*&$$%$@$&*>:;-$@$$%&==#$=;:-$#@@#+@%&&&$$$$$+%;:**",
">;$#%%o@&-&-:>-&%$&&%&-:::-=####$$%%@#=;:-$#++@%%%&&%&&$@$%&--&%",
">-$#$#++&=&-:>--&&&&&-:>:*$##$#+#+++$%=&&%=&oo&**-;*$#$$$&**%@$$",
";;$#$$+@$=&*--**&*%&--;:>:&#$$$#+@@$%%*&$#=&oo**-:-*=$$$&&**@#$$",
";;$#$$#@#$=-&&%@&&%%===-:;%&=-&$$&=&&&&&@#$%++$-::-&&==;*&*%&&&&",
";=$$&%##$=-;*%@@%%%&$===;:-&--==&&;;=&&%#++@@#$=::==&*--**%%&&&*",
"#@##&=$&=->>-&&$$$&&&$&*>>;&%&&---::*&$o+X+@&===>>;--&=&%%%@$#%&",
"#@$%-&&&-;>>;--&%%*-$#$*>>;-&%-*&*:::&@+ooo#=;=-;;-=&%&&*&%$$$&*",
"@%***%&&-;;-:::-&*:*$@$&->---**&&=;;>-&$oo@%=-==:-*&%%==**%%&:::",
"&&*:**&*;;=-::>:-*:*$$&&---*-**%$$=;;;&$+@%%*-==**%%$$&=::&%*:::",
"**-:::**===&&*;-*&&*=&&&&-***&%@$&==$$=$o@o%*:-&$@$@@##$::-**::*",
"*-:;>>-*&%----*-&%&&&==--&**&&@@%-&&##$$@o@%-:-&%$$$@###::***--:",
">>>;;-&&$=-;;;-%$&==&&;>>>;-*%@%-:*%##$$o+&;::>;;*&%==##&=&%**--",
">>>>*%%$$$;;;-&%$$&&%&;>>>==*%o@*:*&$$=$++-:::;;::*&==##$%$$&&*;",
"-->>&@+$====-=$$$$%&&&&===$$&%o@%*::;-&%+$&*-:;:----;=##$&&%&&--",
"&-:;%#+@=-&&=$$$%&&=--$#$$#$%%+$&-:>>-=&%&&***--**--;=$$$=&=&==&",
"&===&$##=-&&&&$$&;,,:%##$&&$&&%*;:>>;---**&%&&&%%----&&$=----=%$",
"====&$@#&&&&&%$$=:<<;%@@%%&&%%&-:>;;--&-:****&$$&&--&&&&-;;-;=&$",
"==;==&$#$$&&&&$$==-;*&%$%%&$@%%*::-=&$$%**-*&&%&&&-*&%%%&---$===",
"$$;;-&&$$&&**&$$$&=;-**%%%&$$@$&**==&#%****--&&&&&*&%%&*;---=$;;",
"#&>>=%&&==&&%%%&$=;;>>;&&%&%%%@@%=-=%&****%&=*%%%$$#%&*:>:-&=;;=",
"$&:;&&&&;;-&%%$$$$=;>>:--&**&%o+%=--&**:*&%%&-&&%%#@$&-:>:-*;==-",
"&&-&#$&;>>;&$@$$$$$$-;;::>,>*%+o%&&-**:>---=&==-*&*&@$-;-------=",
"**&%#$=->>:&$#@@$##$*;>:>>,>:%++$&&-***-;-=-====--:-$$;:-*-:*&*&",
">-=&&%$&-;;=$#$@++#&-:;;;;>;==#@%&%*****--=--*$$=;;=$&>>>::***&%",
">:&%*&$$=-;-$#$@o+$&*------==&%$&&%%%%%%=-&&-&##$=;;$&>,>:::**&%",
":*&$&&%&&-,>&$@%$$$$%&----==#$=&&$$@%%&&====%$$===;===>>:*-;-*&&",
"-*&%&-=&&=>>*&%%$$==&%=====$$&=-&$+@%&&*;===$$$$$&==$$;>***-;-&%",
"--==;==&&=-;:-&$#$=;=;$===$$$&;-=$$%*---;;$$&&&##%&*@$--&===::%+",
"&===-=&$$%%&--=%#$=;;;=$$==$=---=$&*---;;-=$%$@@#$$$@#&&&$$=>;%@",
"##==%%%$@###&&=&$#$=;;;$=$=;;:=%$&*---;;;==%@+o+$@XX++###$$=--**",
"##==$@%+#+++@&$=$$==;;;;$$=;,>%#&&::-;>;==*%+ooo%+. X+###$$$=-;-"
};
