/* XPM */
static char *out[] = {
/* columns rows colors chars-per-pixel */
"50 50 229 2 ",
"   c #25171E",
".  c #2A1A1F",
"X  c #36151B",
"o  c #3B161C",
"O  c #34191D",
"+  c #3B1A1E",
"@  c #3E211F",
"#  c #2C1D23",
"$  c #2A1B25",
"%  c #341721",
"&  c #331E23",
"*  c #3A1E23",
"=  c #2E2125",
"-  c #2E2129",
";  c #332226",
":  c #3B2225",
">  c #34252B",
",  c #3B252A",
"<  c #37292D",
"1  c #3B2A2D",
"2  c #372730",
"3  c #382730",
"4  c #372A30",
"5  c #3C2D31",
"6  c #3F3034",
"7  c #4E1416",
"8  c #43161B",
"9  c #4C151B",
"0  c #441A1E",
"q  c #4C1C1C",
"w  c #5B1415",
"e  c #571917",
"r  c #52151A",
"t  c #531B1C",
"y  c #5C1C1B",
"u  c #651412",
"i  c #6A1713",
"p  c #631917",
"a  c #6A1B16",
"s  c #641B1A",
"d  c #6B1C1A",
"f  c #741C15",
"g  c #7B1C13",
"h  c #781A17",
"j  c #711D1A",
"k  c #46221F",
"l  c #4A221E",
"z  c #54221E",
"x  c #5B231C",
"c  c #5B2B1E",
"v  c #642017",
"b  c #64221C",
"n  c #6A241C",
"m  c #64281D",
"M  c #6D2C1C",
"N  c #742115",
"B  c #7D2317",
"V  c #7C2A16",
"C  c #74231C",
"Z  c #742C1D",
"A  c #7C2C1C",
"S  c #69321D",
"D  c #74321D",
"F  c #7D301D",
"G  c #77391C",
"H  c #431E21",
"J  c #4B1E22",
"K  c #551D20",
"L  c #432325",
"P  c #4C2425",
"I  c #4D2A25",
"U  c #43252A",
"Y  c #4B2629",
"T  c #432B2E",
"R  c #4A2B2C",
"E  c #532324",
"W  c #5A2424",
"Q  c #532B24",
"!  c #5D2B24",
"~  c #512528",
"^  c #59262A",
"/  c #532B2C",
"(  c #592A2B",
")  c #4F312F",
"_  c #55312E",
"`  c #5C322D",
"'  c #422E31",
"]  c #4C2D31",
"[  c #512E31",
"{  c #5D2D30",
"}  c #433235",
"|  c #4B3335",
" . c #453539",
".. c #4A363A",
"X. c #47383C",
"o. c #4C3A3D",
"O. c #543334",
"+. c #5B3434",
"@. c #593737",
"#. c #5E3C35",
"$. c #52363A",
"%. c #533B3C",
"&. c #5B3D3C",
"*. c #632523",
"=. c #6C2623",
"-. c #632A24",
";. c #6C2B24",
":. c #622C29",
">. c #6B2E28",
",. c #722522",
"<. c #752C23",
"1. c #762A26",
"2. c #7A2D22",
"3. c #633224",
"4. c #6C3123",
"5. c #6C3A27",
"6. c #64322C",
"7. c #6C332A",
"8. c #733224",
"9. c #7C3524",
"0. c #7A3927",
"q. c #73332B",
"w. c #703A2B",
"e. c #7B392B",
"r. c #643533",
"t. c #6A3533",
"y. c #6B3A35",
"u. c #623B3B",
"i. c #693A38",
"p. c #723A33",
"a. c #763A34",
"s. c #7D442B",
"d. c #764A2A",
"f. c #694237",
"g. c #774537",
"h. c #4D3D42",
"j. c #523E42",
"k. c #593E41",
"l. c #613E42",
"z. c #4E4045",
"x. c #534245",
"c. c #5A4345",
"v. c #554549",
"b. c #5A4649",
"n. c #57494C",
"m. c #5A4A4D",
"M. c #5C4D51",
"N. c #5E5154",
"B. c #634345",
"V. c #684847",
"C. c #634B4B",
"Z. c #774B43",
"A. c #624E51",
"S. c #615356",
"D. c #645659",
"F. c #68575B",
"G. c #69595C",
"H. c #716064",
"J. c #8A1A0D",
"K. c #901F0D",
"L. c #9B1E0C",
"P. c #861912",
"I. c #821D13",
"U. c #81210F",
"Y. c #95230E",
"T. c #9B230E",
"R. c #852515",
"E. c #8E2B15",
"W. c #882718",
"Q. c #822C1A",
"!. c #932412",
"~. c #922C13",
"^. c #9B2B12",
"/. c #972B18",
"(. c #853618",
"). c #83331C",
"_. c #89331B",
"`. c #8C391A",
"'. c #9D3616",
"]. c #9C3A14",
"[. c #953519",
"{. c #973719",
"}. c #A7270E",
"|. c #B52A0B",
" X c #BC2B09",
".X c #A6340F",
"XX c #B6350E",
"oX c #A32A13",
"OX c #A43316",
"+X c #AC3612",
"@X c #A83B14",
"#X c #A43E1C",
"$X c #B63A12",
"%X c #B23C12",
"&X c #862F26",
"*X c #833523",
"=X c #833D25",
"-X c #8D3A26",
";X c #843C2D",
":X c #953922",
">X c #803D32",
",X c #C0320B",
"<X c #C33A0D",
"1X c #89451B",
"2X c #98461A",
"3X c #924B1C",
"4X c #BC4D0F",
"5X c #AB4314",
"6X c #A4441B",
"7X c #A6461A",
"8X c #B54413",
"9X c #BE4614",
"0X c #A95618",
"qX c #B95415",
"wX c #844224",
"eX c #83422D",
"rX c #8A442A",
"tX c #8C492F",
"yX c #954624",
"uX c #834939",
"iX c #955332",
"pX c #A75429",
"aX c #C44C0E",
"sX c #D6480C",
"dX c #C44D16",
"fX c #C45112",
"gX c #CC6918",
"hX c #D57313",
"jX c #87544B",
/* pixels */
"z @.v.m.N.G.D.n.o...L S G #. .1 < 1 4 > , ; > 3 1 > y 9 $ 1 5 > > Y -...o.j.v.h.h.%.x.j.j.} ' 1 *.j.",
"=.j.m.S.N.N.z.X.m.m.V.rXf.6 5 3 > > 1 ' , 1 ; 2 > # I.r > 4 6 < L S e.V.F.D.n.X.} 5 } ..x.x.] E 6.v.",
"t.%.} X.h.X.5 X.z.z.&.6.R 6 1 ' 3 2 > 1 3 1 } 6 & 8 L.9 > - > ] ^ O.x.m.n.v.j.X.5 < 1 3 1 > > =.k.| ",
"%.o.5 1 6 X. .z.o.%.wX(., 5 5 5 } 4 > 2 5 3 5 & $ 6XJ.8 - $ > L W 6 5 5 3 5 5 3 5 6 6 5 - > * ;.j...",
"%.' } ..o.z.h.%.&.0.8X{.U 5 > 1 5 5 2 2 3 5 1 $ 9 rXT.9 * 5 1 s A | 1 } X.6 6 } o.h.x.x.$.T s ( o.6 ",
"T } ..o.o. .| %.e.7XqX'.K ; > > 3 5 2 2 2 2 # O d ] $XC $.o.c.p.-Xx 8 ] O.) O.$._ [ O.O./ n ~./ T | ",
"..X.x.o.} } ..r.w.O.` _.g 8 & > 3 2 - 2 2 - $ y ,.[ yXE 5 1  .v.u.q.n n b M 7.u.f.#.x.x.c.i.'.{ } o.",
"%...o.5 , T / -.W * ; F }.f r H * $ $ - $ - H ,.c.b.R s L > < 6 ..X.r.9.;.! | X.s.0.) } h.m.&X:...%.",
"8.3./ P t R O.^ p y t F %X}.P.d 9 0 & - : P =.@.v. .] d Q.L < , < } } $.t.^ T Y 8.1...6 h.M.l.1.8._ ",
"F _.;.F =.' > H p C 4.p.rX#X$X^.R.j t q Z R.$.j.1 ' } -.4X).c x P R ] $.u.{ T ! -.' 3 5 3 j.k.{ [.<.",
"R 2.e.yX^ > * r d R 5 }  .#.rXtXeX>Xq.=.'.Y.R ' 5 } T 6.tXtXeX{.#X2X*X1.;.~ , P ' 1 3 5 h.j.h.h.W q.",
"R *X;XuX[ T K P.g P L Y / @.u.j.j.b.n.b.6.E.E ' ' 5 Y &.h. .c.jXdXgXiXg.a.:.J L ' ' 5 h.h.h.h.j.-.*X",
":.` h.h.h.k.t.&XOXE.<.:.u.b.v.j.h.j.b.D.X.).1.} < < ~ ..} 6  .&.tXiXS.x.X._ Q R ..} ..h.h.h.h...8.$.",
"_., 2 2 3 h.h.O.yX5X8.$.h.j.b.M.b.o.x.m.X.A 1.~ L L P 5 < 1 < } %.B.o.6 1 1 , 1 ' ' }  . .h. .R Z 3 ",
"5XJ * 2 $ $ - 2 ! *Xo.X.} } h.x.X.}  .h.x.;.h *.^ f K Y U < 1 I | } < > > > = > < 1 5 5 } X.3 D ).* ",
"uXB.$.K * H % H s >.x.j.o.} } o.} } 5 }  .~ !.,.,.}.P.d *.Q Q Z l : ; ; ; = @ > < 1 } } } ' 1 8.Z.%.",
"j.m.c.( z V *._.[.:.j.h...' 1 }  . .o.v.j.Y dX/.OXsX$X/.1.;.*Xg.y.n t K E y a z < 1 6 X.X.o.6.:.A.c.",
"Y b.j.u.).V + c <.~  .X.} 5 1 ' } }  .X.} J <X}.^.8X9.Z.&./ +.$.C.r.@.k.l.u.p.;.P 1 6 } } ..[ W %.j.",
"K h.o.T ;.B X . H ~ } }  .6 1 < 1 > > > > q dX9XC ` c.c.} 1 | O.L R z.M.M.m.C.l.M ~ T 5 ; + : z Y o.",
"-Xs [ T =.T.w X o Y 6 ..X.X.6 > - - > < } =.iXjXV.$.j.' ' X.X.& @ 1  .z.b.v.v.j.6.2.;./ ) +.+.f.).W ",
"@.g.6XC :XjXq.C i y [ h.z...} 5 5 5 1 ' b qXg.H.v.j.h.< > 5 > - < > 6 n.N.n.z.n.b.;X;., > ' 1 T &.yX",
"> ' 8.7X_ j.b.p.[.Q.' } 6 6 < 1 ' 5 ; Z qXhX&.F.} 5 ' > - > 2 6 h.z.z.n.m.n.z.z.j.7.t @ = = = < 1 ) ",
"= . L W.+ > 6 } ;.=.> - - > 1 } > l y N !.+XR j.* , 2 2 4 5 5 h.z.n.v.n.n.n.v.z.o.U 9 O . . @ . # = ",
". # O R.9 - < 4 I K & > < 1 > q 0X2X#.&.=.L.Q.:.* 3 $  .5 5 h.v.n.M.M.n.M.N.n.z.X.1 9 O ; ; = = . = ",
". . X p 8 . > - @ l 0 * 5 L 1XhX2Xu.$.} ] d }.o 2 $ % J , 6 v.M.N.N.n.z.v.n.z.5 < > n W ; = = = .   ",
"; . 8 e .       @ V f 7 w K.aXhXd.} } } ..R d j $ 9 j ' 2 2 6 v.n.z.6 > - 4 < < 5 , r r O . . ; @ . ",
"= O u f 1 < # l G l @ ; 1 1 W #X5.] X...] ' } E y P.Y } 5 6 5 4 < = = > - - - < < P C ,.Q , } ; . 8 ",
", e ].z 1 > + e m = = < 5 } R Q.:.1 X.o...} 1 | 1 a 8 } 6 5 4 > = > > > > - - > , ! ! N z 1 5 < * B ",
"+ e z E | @.c V Q ; > 1 5 } } 0.! 1 } 1 1 5 1 T } [ i % 5 } 3 1 1 6 6 } }  .} U Z 5.+.r.^ H : ; e 8 ",
"9 i L m Q.M 2XD > ; < 1 1 1 5 D V I 1 1 } ..$.L R d OXr * 3 ' 1 } } } } } ' | 2.{.g.A.h.' q o O u 7 ",
"e Y.e ( Y.k x m < 1 5 } } 5 T M XX`.I } ..[ [ W.R.OX1.,.h u s *.6 } | } } } m Q.y.n.v. .> o e 8 g U.",
"g +XN z n ; : z T 5 ' 1 1 1 1 m 8XqXM Q <.I.oX/.2.q.k.[ { 2..X@Xc R } } } / <.7.x.x. .> + 7 u u K.@X",
"|.x l b z O ; ; : < ' } | T T S oX^.R.;XpX%X!.P.!.j.m.c./ 1.OXqX`.d E Y Y b -.x.n...1 : o w J.}.^.L ",
"6X* - $ # * + + L 1 1 5 6 6 R A %X{.+.b.b.b.r.<X,X] } } o.k.r.{ 6.;X9.n B R.! j.o.6 > O + u ^.#XF > ",
"&.> ; - $ - & : q U 1 ' ' T s ~.2X3.' } o.m.x.8XsXL < } } ..o.o.x.b.&.=X%XXXM } 6 ; - # + f c | / ; ",
"} * > - - # = ; L b R 1 P n !.[.3.1 < 1 } h.x.9.,Xp P T } } j.b.x.h.x.u.2XfXG 1 < = # # 8 f : > T & ",
"H v & > > - ; = k A G 4._.5X{.-.1 , > 1 5 X.x.O.|.I.=.k.h.j.v.x.x.x.x.x.f.0X1X1 < ; # # e g 8 & b q ",
"r.e.W * ; - & & 0 N 9.-X7X3X3.1 < < 1 1 < } X.X.XXP.*.&.j.j.} 5 } h.b.M.m.d.2XQ & # # H f !.d [ p.;.",
"b.B.i.^ K 8 9 r N [.wXyX1X) , < < 1 1 6 4 6  .] dXL.r 3 | X.> 1 < 1  .j.x.3.@X(.+ $ # R p.a.i.B.b.V.",
"x.o.j.@.{ y f I.A s.g.tX3XS , 1 < 1 5 6 6 5 < z rX!.w & 2 3 3 > 1 > 1 1 6 S XX%X(.x U  .v.n.v.x.o.j.",
" .5 | ..| W n :./ | ..%.g.w.U 1 < 1 1 4 5 < @ l ..b u H > 3 1 6 } 1 1 1 } 5.@X~.Q.5X4.1 5 }  .| } } ",
", : > } } Y q > 1 }  .X.v.i.Q 1 < 1 5 < > I 3XU } Z K.9 & > 1 6 } } } 5 , D @XR.n rXw.R } ^ L : , ; ",
"G @ ; 5 | L t = > } } } } O.6.I > ; & L y E.fXL T A |.N 0 * ; > 1 1 , x (.(.G ` +.V.C.c.h.f.+.D m . ",
"2X0XL 3 U q a O : < 4 > < ' 8.2XS & : : R t.eX3.x $X XE.^ [ / Z 8.).[.XX+X8.%.o.%.b.A.m.M.b.B.f.0XG ",
"u.8Xq ; * g a L 1 > 4 < < < ! 2XS > > < 1 } ..O.R A T.z T ..] 6.A ~.,X|.*Xk.x.o.%.x.b.m.D.H.F.C.).].",
"R .Xl ; q !.I.k < < > 1 4 1 G w.' < > < 1 1 } } } | I.H 5 h.5 1 @.q./.W.@.h.X.j.x.x.x.%.h.n.A.A.n ].",
"U 4XZ ' @.u.+.O.T < < 5 6 3.4.| 6 < 1 , 1 U T ' } ' s : < 5 < 1 5 | :.1.o.o.o.h.x.o.o.| o.j.b.o.n 4X",
"k *X&.v.m.M.M.x.} 1 > : l ` | 1 1 1 1 1 , < 1 1 1 > t % - < > > > , R j.o.o.x.x.h.j.x.j.o.} X.6 n w.",
"x $.m.N.D.G.S.x.x.x.+.1XwX..} 3 < < 1 1 , > & > > > s r & 3 } > > x Z [ c.m.v.X. . .%.%.v.%.T * -.x.",
"8.v.v.m.M.n.} X.m.n.c.y.+.5 5 3 > > > 5 1 , ' 3 > $ ^.9 - 4 3 1 E w.V.F.G.D.m.X.} 5 6 } o...| -.u.x."
};