/* XPM */
static char *aa2d1108c0dc49bcdace0cf128c92330KS5mpx9lpJ7879LI[] = {
/* columns rows colors chars-per-pixel */
"50 50 210 2 ",
"   c #4A647A",
".  c #3F6884",
"X  c #2B6890",
"o  c #326E90",
"O  c #3A789B",
"+  c #357AA2",
"@  c #4B6C85",
"#  c #476D88",
"$  c #536D84",
"%  c #4E728B",
"&  c #54748C",
"*  c #5A758C",
"=  c #5D798E",
"-  c #487896",
";  c #437C9A",
":  c #537792",
">  c #537A94",
",  c #5D7C94",
"<  c #547D9A",
"1  c #637689",
"2  c #637A8D",
"3  c #6A7E8F",
"4  c #647E92",
"5  c #687E91",
"6  c #3D87A9",
"7  c #388AB0",
"8  c #54819C",
"9  c #5B839D",
"0  c #658196",
"q  c #6B8295",
"w  c #64849C",
"e  c #6B869A",
"r  c #66899D",
"t  c #6A899E",
"y  c #718595",
"u  c #768997",
"i  c #798997",
"p  c #738A9C",
"a  c #7A8D9C",
"s  c #7D909E",
"d  c #4688A9",
"f  c #5784A3",
"g  c #5C86A1",
"h  c #5B89A5",
"j  c #5C8CAA",
"k  c #4A90AF",
"l  c #5690AF",
"z  c #5E92AC",
"x  c #458DB2",
"c  c #4596B6",
"v  c #5493B1",
"b  c #5B97B3",
"n  c #559AB9",
"m  c #658BA3",
"M  c #658BA4",
"N  c #6B8CA3",
"B  c #638EA8",
"V  c #738EA2",
"C  c #798FA1",
"Z  c #6E90A7",
"A  c #6492AC",
"S  c #6B94AC",
"D  c #6F9AAF",
"F  c #7491A6",
"G  c #7C92A3",
"H  c #7395AB",
"J  c #7A96A9",
"K  c #7598AE",
"L  c #7C99AD",
"P  c #6395B1",
"I  c #6999B3",
"U  c #649CB9",
"Y  c #759BB2",
"T  c #7C9DB2",
"R  c #719FBA",
"E  c #56A4BE",
"W  c #65A2B7",
"Q  c #7DA0B5",
"!  c #73A2BB",
"~  c #7CA5BB",
"^  c #7AAABF",
"/  c #48A0C2",
"(  c #59A7C6",
")  c #64A5C4",
"_  c #68ABC8",
"`  c #74ACC7",
"'  c #7BACC3",
"]  c #67B2CD",
"[  c #73B3CE",
"{  c #79B6CD",
"}  c #6AB8D4",
"|  c #6CBBD5",
" . c #5EC6DC",
".. c #6CC3DD",
"X. c #7DC1D8",
"o. c #77CCE4",
"O. c #7CDCEC",
"+. c #84939F",
"@. c #8395A3",
"#. c #8598A6",
"$. c #8C9CA6",
"%. c #8297A8",
"&. c #849BAB",
"*. c #8B9EAB",
"=. c #919FA8",
"-. c #839EB1",
";. c #85A0AF",
":. c #8DA1AE",
">. c #93A2AD",
",. c #99A6AE",
"<. c #84A1B4",
"1. c #8CA4B3",
"2. c #83A5B9",
"3. c #8BA7B9",
"4. c #82A9BD",
"5. c #8CAABC",
"6. c #94A6B2",
"7. c #99A7B1",
"8. c #94A9B6",
"9. c #9CAAB4",
"0. c #94ACBB",
"q. c #9CAEBA",
"w. c #94B0BF",
"e. c #9DB1BD",
"r. c #A1ADB5",
"t. c #A1AFB9",
"y. c #A6B0B7",
"u. c #A9B1B7",
"i. c #A4B2BC",
"p. c #AAB5BC",
"a. c #ADB8BF",
"s. c #B2BABF",
"d. c #83ACC2",
"f. c #8BAEC1",
"g. c #88B3C7",
"h. c #8CBBCD",
"j. c #95B3C3",
"k. c #9DB4C2",
"l. c #95B8C7",
"z. c #9EB8C7",
"x. c #93B7CA",
"c. c #9BBBCB",
"v. c #8BBBD2",
"b. c #90BED0",
"n. c #A4B6C1",
"m. c #A8B7C1",
"M. c #A5B9C5",
"N. c #ACBBC4",
"B. c #A4BCCA",
"V. c #ACBEC9",
"C. c #B2BEC5",
"Z. c #B1BFC8",
"A. c #8CC0D3",
"S. c #96C6D8",
"D. c #ADC1CC",
"F. c #B4C0C7",
"G. c #BBC3C6",
"H. c #B4C3CB",
"J. c #BAC5CC",
"K. c #BDC9CE",
"L. c #A4C3D3",
"P. c #AEC4D1",
"I. c #A7CAD8",
"U. c #B4C6D1",
"Y. c #B5CAD5",
"T. c #BCCAD2",
"R. c #BACDD9",
"E. c #BED1DA",
"W. c #BDD5E0",
"Q. c #C1C7CB",
"!. c #C2CACE",
"~. c #C8CDCE",
"^. c #C3CED3",
"/. c #C9CFD0",
"(. c #C6D1D6",
"). c #CBD2D5",
"_. c #C4D1D9",
"`. c #CCD5DA",
"'. c #CFD8DC",
"]. c #D1D5D6",
"[. c #D5D8D7",
"{. c #D8D8D6",
"}. c #D1D7D9",
"|. c #D4DADC",
" X c #DADDDD",
".X c #E0DFDD",
"XX c #DEE1DF",
"oX c #E2E2DF",
"OX c #CDDAE1",
"+X c #D3DDE1",
"@X c #DADFE1",
"#X c #DDE1E2",
"$X c #DEE5E9",
"%X c #E3E5E3",
"&X c #E8E7E3",
"*X c #E7E8E6",
"=X c #EAEAE6",
"-X c #E0E7E9",
";X c #E5E9EA",
":X c #EEEDE9",
">X c #ECEDEA",
",X c #F0ECE6",
"<X c #F0EEEA",
"1X c #EFF0EE",
"2X c #F2F2ED",
"3X c #EEF1F1",
"4X c #F4F4F1",
"5X c #F5F5F1",
"6X c #F8F7F1",
"7X c #FAFAF5",
/* pixels */
"3X7X5X1X%X%X+XJ.|.J.|.).G.K.=X7X5X>X%X#XT.H.m.C.H.J.#X5X2X>X XJ.H.T.`.K.|.`.m.K.|.F.Z.#X5X5X5X5X;XD.",
"5X>X X^.J.M.0.J :.u 6.p.C.[.2X=X%X XH.5.t 0 a >.i.^.*X=X X^.H.^.&.&.&.p #.a #.>.9.J.[.XX*X#X X`.U.S.",
"%X XK.i.8.G , = 2 3 p.%X>X%X#X|.).V.L * * p >.9.C.%X%X|.T.q.{.|.p.e p #.@.@.@.>.!.2X<X|.K.F.i.9.<.] ",
"%X).m.:.#.@.s $.*.a.&X<X%X X).T.V.5.w @ y >.7.i.C.).).^.m.G 9.0.B.r @.9.r.9.i.). X&X X^.q.1.a e 9 E ",
"|.K.8.e y +.$.,.9.{.,XoX|.}.J.k.3.w @ q *.*.i.|.#X#X^.e.&.= @ # > & $.r.a.p.C.{.XX X^.n.%.p y 3 & 8 ",
"J.i.V $ u $.,.9.G.&X.X).Q.J.q.L t e 0 #.9.C.XX>X#X).V.L , 5 G q y @.9.u.r.p.).].].^.N.<., q i y a e.",
"i.G $ 2 $.7.9.r.].|.).K.q.&.J C p G a ,.p. X%X}.T.n.-.4 = G #.*.t.i.i.i.p.).|.G.a.m.1.N & q i y =.0.",
"*X&.  p i.].{.].].G.N.q.J 0 u e G *.@.>.N.].^.J.k.T w * q #.,.i.N.Q.^.).Q.K.^.p.q.-.< # * a 7.,.s.5.",
"e., 1 *.].6X6X<X{.m.-.V w e ^.&.a >.G 9.Q.^.M.j.H F , p p *.i.p.^.5X6X>X#X(.F.9.1.: $ 3 p Q.>X=X).l.",
"5 $ G i./.=X=X@X^.0., 2 u G J , $.u.G.=X2X%Xj.m 0 a @.6.6.p.C.J.|.2X=X X(.V.<.J p 5 #.6.8.).=X#XH.{ ",
",.>.C.%X<X>X@X^.V.~ : a *.7.@.a r.p.Q.>X#X_.~ w G *.9.t.p.G.^.;X>X>X@X(.D.Q 0 e e a :.C.}.XX=X).M.| ",
"a.9.%X2X=X@X(.H.j.A & G 9.i.a.a.a.C.J.^.P.g.9 G 9.p.p.p.J.%X>X2X*X@X).H.5.w u @.*.:.q. X5X>X|.J.j.} ",
"[.C. X#X}.(.H.k.2.M , *.i.C.C.C.G.|.K.5.M 8 0 6.m.C.C.N.K.@X#X#X+X(.T.z.S 0 #.9.r.9.t.@X%X|.T.M.^ | ",
"2XoXQ.^.T.V.j.0.Y 9 0 >.p.G.G.G.|.|.F.1.J &.8.p.C.H.K.`.|.#X|.'.(.U.B.4.g V >.9.i.p.C.^.`.T.m.5.R _ ",
"%XXX).F.n.0.T K N % p 7.a.Q.^.|.|.^.M.e.i.m.C.F.J.K.).%X|.|.(.H.V.f.! P w %.6.9.p.oX>X).U.n.3.K P ( ",
"XX).N.0.L F 9 : w 4 &.9.C.^.|.].Q.H.0.n.F.H.J.K.T.^.+X|.`.^.H.k.2.S j < w &.9.i.K.#X|.F.T.w.H & - n ",
" XF.-.F > @ @ & w , &.m.K.T.Q.C.m.q.T e.D.T.H.V.H.K.J.T.T.V.j.~ B.F g < t :.9.m.F.T.U.n.e.Y # $ 9.4.",
"!.8.0 @ * q G $.6.*.C.J.T.F.m.i.p.e.1.m.n._.c.3.F.N.N.V.M.T H m 0.0 0 e 1.q.m.C.N.N.F.3.w &   @.B.[ ",
"9.t @ 2 #.,.9.y.p.i.F.J.F.N.C.F.F.F.m.N.N.0.K 0.H.H.F.N.1.&.:.:.G C 6.8.m.N.(.>X*X(.<.F a @.+.u : ( ",
"#.4 2 a >.y.u.a.C.m.F.F.C.F.K.Q.J.H.m.F.J.H.V.F.T.T.T.F.q.n.i.9.9.p.a.i.C.F.#X>X#XY.I %.9.9.,.$.a W ",
"p.1.y *.y.a.a.a.C.N.F.C.F.K.Q.Q.K.H.N.H.^.^.^.^.^.T.H.F.M.V.N.N.C.C.C.m.C.J.#X+XT.h.B *.t.6.,.,.&.W ",
"8.4 s r.a.s.a.a.N.i.N.C.F.J.K.K.K.J.M.F.T.^.^.^._.|.'.`.B.M.N.C.F.J.J.N.V.V.^.U.l.' t 9.9.>.7.7.6.c.",
"p.>.9.u.p.a.C.a.p.q.N.F.F.J.K.J.J.J.m.H.T.^.T.^.#X5X>X+XL.c.N.F.F.F.J.V.T.`.+XH.w.S G 9.r.r.9.G.^.I.",
"[.G.i.p.a.p.p.p.m.q.m.F.F.F.J.J.H.H.M.H.T._._.-X6X2X;XOXS.g.M.F.J.J.F.N.'.@X'.H.z.L %.r.i.i.G. X(.b.",
" XK.F.p.i.t.i.i.i.8.p.m.N.T.^.V.H.D.k.V.U.R._.5X5X;X$XW.X.{ B.F.J.H.(.#X1X#XV.j.~ K &.9.9.q.|.#X`.S.",
").).J.q.6.>.6.6.8.L 8.e.n.#X+X5.k.n.<.z.P.R.$X3X>X$X`.I.[ ) 5.n.D.T.2X1X%X|.x.R m w J 8.1.i.%X#X^.h.",
"%X*X).q.9.9.i.i.p.0.i.N.F.E.I.D e.F.i.U.E.>X5X>X$XOXR.S.) ! k.V.F.N.$XOX`.R.' , e &.q.e.8.K.*X[.V.{ ",
"#X|.H.-.&.9.N.m.m.q.m.F.m.Q j N m.F.F.U.`.3X>X-XOXE.L.{ A 2.V.J.T.T.U.c.d.! 9 p 6.9.q.q.i.^.^.H.j.| ",
"|.H.2.N &.i.m.T.K.q.N.C.F.q.&.i.F.H.T.T.;X>X$X+XE.L.v.[ S 0.V.J.^.|.B.I M N G 8.i.q.9.N. X|.J.n.4.| ",
").e.N G q.N.N.).U.<.m.N.J.F.F.J.J.H.H.+X;X$XOX_.P.c.{ P L q.N.J.^.T.z.2.8.q.i.m.m.C.C.|.|.T.M.5.~ } ",
"F.:.G 6.m.C.m.F.z.F i.C.F.H.H.H.T.@X@X$X+XOXR.P.c.g.` M <.e.D.T.T.H.M.q.m.m.N.m.i.F.#X=X|.D.Q N B _ ",
"y.Q.).q.m.C.m.8.L %.i.C.F.J.^.T.`.#X#X(.T.U.Y.h.` U 4.T 3.0.D.H.H.F.N.e.N.F.N.m.K.=X*X X).V.L p N ) ",
"&X2X%XD.q.a.p.9.9.6.i.C.N.(.5X2X#X|.|.T.z.d.' n j B U.5.T k.D.H.F.F.N.i.V.N.m.).>X*X X^.H.k.J a 8.` ",
"&X#X^.f.F 9.9.9.7.:.i.N.F.#X2X=X|.U.U.B.T B B M L <.T K 5.B.M.N.N.N.k.M.V.m.C.%X*X X(.V.e.Q p p.).A.",
"].F.w.g 4 #.$.#.9.*.q.m.).>X%X|.T.c.Q K <.<.1.1.0.e.e.q.0.q.1.i.N.N.M.D.N.m. X>X#X).F.5.A 9 5 9.f.] ",
"!.1.m & i $.>.9.u.i.p.m.`.#X'.T.c.D w 1.q.1.q.m.m.N.C.N.n.e.0.p.C.F.F.H.^.%X2X%X`.J.f.g 0 G s 3 & b ",
"Q.G.>.q @.>.r.u.p.C.C.^.#X|.H.l.Y N J e.m.m.N.C.F.J.J.C.m.m.N.N.F.F.N.U.#X2X;X|.^.l.A , G *.>.>.a S ",
">X%X`.J s >.r.i.p.N.|.#X(.P.4.Z J 8.1.q.m.N.C.F.F.F.F.N.p.N.N.N.N.N.H.`.>X>X#X`.T.~ g e &.>.,.=.G e.",
").^.5.% a 7.r.r.i.].>X#XB.H N J 9.i.6.q.N.N.N.C.J.N.m.i.q.p.p.N.m.(.>X2X=X#X`.^.V.! > V *.,.>.$.6.D.",
"1.3.w   G 7.9.9.G.%X|.J.-.V *.9.p.i.6.i.m.^.^.^.`.m.i.9.6.p.C.^.`.;X>X%X@X`.T.B.d.U < C *.,.,.>.9.V.",
"i.=   5 *.9.i.i.G.^.K.k.%.>.r.p.i.i.q.p.K.|.^.H.e.1.q.9.6.p.#X>X#X%X+X`.^.H.M.5.U k 8 G *.9.9.>.!.B.",
" XG $ G N.%X=X*X}.H.q.J e $.6.6.>.m.H.*X%X`.V.T V G %.*.&.q.#X#X[.`.^.T.N.5.Y P k O : p #.).%X{.Q.f.",
"q   y 9.).2X<X%X`.n.N 5 #.>.9.9.i.^.].#X).V.T e #.>.6.9.m.).).Q.J.D.B.z.Q g 8 . # # 0 &.q.%X>X%XT.h.",
"@.y ,.Q.|.=X#X`.F.Q , G :.6.p.N.C.).|.^.m.-.V :.9.9.i.N.).[.).H.m.0.T N > & & * 5 q @.m.J.|.%X).B.X.",
"C.r.|.6X2X%X(.H.5.B e >.9.i.a.G.|. X^.e.&.F *.9.i.u.Q.*X*X^.N.N.m.1.J w 4 s @.G G G q.=X2X>X|.J.x...",
"G.u.%X*X|.^.H.k.Q : 2 >.p.N.a.~.|.Q.p.&.G G >.i.p.p.^.*X|.F.0.8.6.6.&.C #.>.*.*.*.G Q.>X;X|.T.N.d...",
"=X).).).J.m.0.T N , y 6.).Q.^.>X%XF.;.&.C :.p.C.K.#X X^.V.5.8.%.1.6.&.$.>.>.i.|.|.Q.Q.+X`.T.M.5.R o.",
">X XJ.V.q.L Z N & 5 C.^.[.).|.[.J.8.3.0.e p.).}. X%X).k.L 1.8.&.H.%.C @.*.>.~.=X=X XK.F.V.q.<.K U o.",
"K.F.0.L m f - % & , i.m.n.f.5.3.T D - . G T.M.M.H.M.4.S w &.F Z N % u :.m.C.J.J.N.F.N.3.L A h f ( O.",
"q 9 k 6 + O X o ; O m z n x O 6 6 7 O - A R v v l v c 6 ; d d d ; ; z S d.^ b h z P W E d x x /  .W "
};