/* XPM */
static char *out[] = {
/* columns rows colors chars-per-pixel */
"100 100 36 1 ",
"  c #040100",
". c #0C0401",
"X c #120701",
"o c #160801",
"O c #1B0A01",
"+ c #230D02",
"@ c #290F02",
"# c #2D1102",
"$ c #341303",
"% c #3D1703",
"& c #3F1803",
"* c #421903",
"= c #4C1D04",
"- c #521F05",
"; c #562005",
": c #5B2205",
"> c #632606",
", c #682706",
"< c #6D2906",
"1 c #732C07",
"2 c #7B2E07",
"3 c #7E3007",
"4 c #833107",
"5 c #883307",
"6 c #833108",
"7 c #8A3408",
"8 c #913708",
"9 c #953908",
"0 c #9C3B09",
"q c #A53E09",
"w c #AB410A",
"e c #B4440A",
"r c #BA470B",
"t c #BF480B",
"y c #C54B0C",
"u c #C84C0C",
/* pixels */
"uuuuuuuue+$ruuuuuuuuurOOuuuuuuuuuur@Oruuuuuuuuyy$otyuuuuuuuut%+euuuuuuuuuy&oryuuuuuuuut=+wyuuuuuuuuu",
"uuuuuyuue+$tuuuuuuuuutOOuuuuuuuuuur@+ruuuyuuuuyt#Xtyuuuuuuuut%+wuuuuuuuuuu&oryuuuuuuuut=+wuuuuuuuuuu",
"rrrrrrrrw+#wrrrrrrrrrwOXrrrrrrrrrrwOOwrrrerrrrre@Xerrrerererw$Owrrererrrrr$owerrrrerrte*+0rrererrrre",
"O+++++++O  +O+++O+++++ .+++O++O++O+. ++O++++++++. +++++++++++. +++++++O+O+. +++++++++++..O+@++++++++",
"$$O.#$$$$$$$$$$+.+$$$$$$$$$$+ +$$$$$$$$$$+.O$$$$$$$$$$+.+$$%$$$$$$$#.O$$$$$$$$$$#.O$$$$$$$$$$#.o$$$$",
"ty1.7rttttttttr2X2tttttttttt3.2rtttyttttt7.<tttyttttyt8.1rttttttttt0X,trtyttttytw.1rtttttttttwo>rttt",
"uu2X7uuuuuuuuuy3X3uuuuuuuuuu6.3yuuuuuuuuy7o1uuuuyuuuuu9.1tuuuuuuuuuqo<uuuuuuuuuue.1tuuyuuuuuueO>yuuu",
"uu2.8uuuuuuuuuy6o3uuuuuuuuuu3.3uuuuuuuuuy7o1uuyyyuuuuu9X3tuuuuuuuuuwo<uuuuuuuuuueo2tuuuuuuuuueO>tuuu",
"yy2X7yyyuyyyyyr3X2yuyyyyyyyy3X3yuyyyyyyyt7o1yyyyututut9X1tttutuuyyyqX<yyyyuyyyyyw.1tyyyyyyyyywO>ttyy",
"77; :6777777777:.;7676577776: -6777777776:.-7767777777> -7777777777<.=77577755772.;67776776772.=7777",
"oooXooooX..oooXXXXooOX..ooOoXXoooo...ooOoo.ooooo..XoooXXooooo..ooooXXXooooX XooooX.ooooX.oooooXXooOo",
"777777772O+37777777776XX77776777776Oo37777777777+.67777777773@o27777777775@.37777777776$o17777777777",
"yuuuuuuue+$tuuuuuuuuytOOyuuuuuuuuur++euuyyuuuuyy#Xtuuuuuuuuut%+wuuuuuuuuyy%Oryyuuuuuuuy=+wuuuuuuuuuu",
"uuuuuuuue+$ruuuuuuuuyt+Oyuuuuuuuuur@+ryyyyuyuuyt#Xtuuuuuuuuut&+euuuuuuuuuy%oruuuuuuyuut=+wuuuuuuuuuu",
"uuuuuuyye+$ruuuuuuuuutOOyuuuuuuuuut@+eyyuyuyuyyy$Xtuuuuuuuuur&+euuuuuuuuuy%oryuuuuuyuyy=+wyyuyyuuuuu",
"eeeeeeeew+@weeeeeeeeewooeeeeeeeeeewOoweereerrerw@Xweeeeeeeeew$+0eereeeeeee$oqeereeeeree&O0eerereeeee",
"$$$$$$$$#.o$$$$$$$$$$$..%$$$$$$$$$#X.$$$$$$$$$$$X $$$$$$$$$%$X.#$$$$$$%$$$o $$$$$$$$$$$o.#$$$$$$$%$%",
"#$o +##$#######O.O######@@@$O O@########@+ O##########+ O##########@ o#@@$###@$@@ O@$#####$@$@ X@###",
"tt1.7rrtttttttr3.2ttttttytry3.2tytttttttt6X<tttttttttt9.1rtttttttty0X,ytttytryryqo1eryttyrryrwo>rttt",
"uu2X8uuuuuuuuuy3o3uuuuuuuuuu6.3yuuuuuuuuy7o1uuuuuuuuuu9.2tuuuuuuuuuqo<yuuuuyuuuueo2ruyuuuuuuyrO>yyuu",
"uu2X8uuuuuuuuuy6o3uuuuuuuuuu6X2yuuuuuuuuy7X1yuuuuuuuuu9.2tuuuuuuuuuqo<uuuuyyuuyuqX1yyyuuuuuuueO>yuuu",
"yt2.7yyyyyyyyyt3X2yyuuyyyyyy2.2tyyuyuutyy7X1yyyytutuuu9.1rutuuutyyy0X,yyyyyyyyyyeo1eyyyyyyyyuwO>tyyy",
"w0,.20w0w00ww00<.,q0qqqqqqqq< ,q0ww0w0qqq1.:qqqqwqqqqq3.>qwqqqwqqqq7.:qqqqqqqqqq9 >qqqqqqqqqq8X;0ww0",
"                                                                                                    ",
"999999997O+79999999997oo99999999997OO79999999998+.89999999997#O69999999998#X79999999998$O38999999999",
"uuuuuuuue+$tuuuuuuuuutOOyuuuuuuuyyr@+euyuuuuuuyy#Xtyuuuuuuuut%+euuuuuuuuuy%oeyuuuuuuuuy=+wuuuuuuuuuu",
"uuuuuuuue@$ruuuuuuuuutOOyuuuuuuuuur@+ruuuuuuuuut$Xtyuuuuuuuut%+euuuuuuuuuu*oryuuuuuuuuy=+wuyuuuuuuuu",
"uuuuuuuue+$ruuuuuuuuutOOyuuuuuuuuur@Oruuuuuyuuuy#Xyuuuyyuuuut%+wuuuuuuuuuy%oruuyuuuuuyy=+wuyuuuuuuuu",
"ttrrttttw+@ertttttttreOottttttrrtre+Owttttrttrye#Xrrtttttttte%+wtrtttrtttr%Xertttrtrtrr=+qttrryrtttt",
"$$$$$$$$#..$$$$$$$$$$$. $$$$$$$$$$#..#$$$$$$$$$#. #$$$$$$$$$#. @$$$$$$$$$$. #$$$$$$$$$$X @$$$$$$#$$$",
"##O.+########$@O O##########O +##########+.O###$######+ O@#########@.o#$########@ O#####$#@$$+ O####",
"rr1.6rrrrrrrrre2X1rterrrrrrr1.1rrrrrrrrrr3.<rrrrrrrrrr7.1ertrrrrrrr0.,rrrrrrrrrrw.<errrrrrrrrqo>etrr",
"uu2.8yuuuuuuuyt4X4uuuuuuuuuu4X2yuuuuuuuuy7X1yuuuuuuuuu8.2yuuuuuuuuuqo<uuuuuuuuuueX1yyuuuuuuuueO>yuuu",
"uu2X8yuuuuuuuyy4o2uuuuuuuuuu4.2yuuuuuuuuy7o1uuuuuuuuuu0X1yuuuuuuuuuqo<uuuuuuuuuueX1yyuuuuuuuueO>yuuu",
"uy2X7yuuuyuuuyy6X2uuyuyuuyyu2.2yuuuyuuyuy7X1uuuuuuuuuu8X1yyuuuyuyyyqo1uyuyyuuyyuwo1ryyuuyuuuyeO>yyuu",
"q0,.<000q000q00,.>00q00qq00q< >0000w000001.:0000q000002.>00000q0q005.-0q00q000q08 >00q000q0008X-0000",
"oo..oooOX.XoOXoX.ooooo..ooooX.XOooXXXooooX.XooooX.ooooX.XooooX.oOooX..ooOoX.ooOoo.XoOooXXXoooo.Xoooo",
"644444442oO34444444444XX44444444662oX26666666663O.26666666662@o14444446544@.26444444444#o24444446666",
"yyuyuyyye+$ryuyyuyuyurOOyuyyyuyyuur++euuyyuuuuyt#Xtuyyuyuuyyr%+euyyyuuyyyy%oeyuyyyuyyuy=+qyuyyuyuyuu",
"uuuuuuuye+$tuuuuuuuuurOOyuuuuuuuuur++ruuuuuuuuut$Xtuuuuuuuuur%+euuuuuuuuuy%oryuuuuuuuur=+quuuuuuuuuu",
"uuyuuuuuq@%yuuuuuuuuurOOuuuuuuuuuur@+euuuuuuuuuy#Xtuuuuuuuuut%+euuuuuuuuuy%oruuyuuuuuuy=+quuuuuuuuuu",
"trrtrrtrq+@qrtrrrrrrreOOrrrrrrrrrrw+Owrrrrrrrrre#Xerrrrrrrrre$Oqrtrrrrrtre%oqrrtrrrrrre*+qrrrrrrrrrt",
"********%XX***********..**********%X.%******=***X.*****&*****oX%**********O ***********O.%**********",
"++o O++@++@@@++O O++++++++@+O o++@++@+@@@O X+++++++@++O o+++++++@++O X++++@+++@++ o+@++@++@+++ .+++@",
"rr1X5rrrrrrrree2X1rrrrrrrrrr2.1rrrrrrrrre6X,errrrrrrrt7.1errrrrrrrr0X,rrtrrrrrrrqX<eererrrtrrqo>rrrr",
"uy2.7yuuuuuuuyy6X4uuuuuuuuuu4.2yuuuuuuuuu7X1uuuuuuuuuu9X2yuuuuuuuuyqo<uuuuuuuuuueX2ruuuuuuuuueO>yuuu",
"uu2X8yuuuuuuuuy2X2uuuuuuuuuu4.2yuuuuuuuuy7X1uuuuuuuuuu9X2tuuuuuuuuyqo<uuuuuuuuuuwX1yuuuuuuuuueO>yyuu",
"yy2X7yyyuyyyuyy4o2yyuyuuuyyy6.2yuuyyyyyyy7X1uyyyyuyyyu8.1tyuyyuyuyyqo<yuyuyyyuyuwo1ruuyuyuyyyeO>yyyy",
"qq,.1qqqqqqqqqq,.,qqqqqqqqqq, ,qqqqqqqqqq1.:qqqqqqqqqq3.>0qqqqqqqqq7X:qqqqqqqqqq8.>qqqqqqqqqq8o-qqqq",
"                                                         .                                          ",
"333333331OO23333424442XX24422424621Oo12626266222O.23263332332+o12444333322@X23333333632#o,6363422626",
"yyuyyuyye@#tyyuyyyyyyrOOyyuyyuyyuyr++euyyyuyuuyy#Xtyyuyyuuuyr%+wyyyyyyyyuy%oeyyyyyyyuyt=@qyyyyyyyyyy",
"uuuuuuuue@$tuuuuyyuuurOOyuuuuuuuuur@+euuuuuuuuur$Xtuuuuuuuuur%+euuuuuuyyuy*oryuuyuuuuuy=@wuuuuuuuuuu",
"uuuyuuuye@#tuuuuyyuuuyOOyuuyuuuyuur@+ruuuuuuuuuy#otuuuuyuuuuy%+wyyuuuuuyuy%oryuuuuuuuyy=+quuuyuuuuuu",
"yyyyyyyyw+@ryyyyyyyyyeOOyyyyyyyyyye@+wyyyyyyyyyr#oryyyyytyyyr%+wyyyyyyyyyy%oeyyyyyyyyyt=+qyyyyyyyyyy",
"%*%%%%%%% .%%*%%%%%*%%. %%%%%%%%%%% .$%%%%%%%%%%. %%%%%%%%%%%o.$%%%%%*%*%%o $%%%%%%%%%%O $%%%%%*%%%%",
"++o +@@@+++++++o O++++++++++O O@+++++++++O.X++++++++++O o++++O++@+++.X+++@++++++O O++++++++@++.X++++",
"ee1.6qrqeeeeeeq2X<eeeeeeqeee1X<qeeeeeerqw6.,eereeeeeee7.<wereeeeeeq0X,eeqrqeeeeeqX<qeeeeeeqrqqO-eeee",
"uu2X7yuuyuuuuuy4X6uuuuuuuuuu6.2yuuuuuuuuu7X1uuuuuuuuuu9X2tuuuuuuuuyqX<uuuuuuuuuueX1tuuyuuuuuueO,yyuu",
"uu2X8yuuuuuuuuy4X3uuuuuuuuuy6X2yuuuuuuuuu7X1uuuuuuuuuu8X2yuuuuuuuuuqX<uuuuuuuuuyeX1tuuuuuuuuurO>yuuu",
"uy2.8uuyyyuuuyy6o2uyuuuuuuuu6.3yyyuuuuuuy7X1uuuuuuuuuu8.1yuuuuuuyyyqo<yyuuuuyuuyqo1tuyuuyuuuuqO>yyuu",
"00>.,9000009008>.>000900q000>.>9000000000<.-90000900001.:80009000002X-00q00000008X-90000000907X-9000",
"OO. oOoOoXoOOOoX.XOOooXXOOooo XOoooXXOoOO..XXOOXXXXXooX.XooOooXoOOOo XoOooXXOoOOo.XoOOXXXoOOOo..oooo",
"<<<<<<,,>oO,,<,,<,,<,,X.,<<,<<,<<,>XX,,,<<,<<<<,O.,<<<<<<<<<,O.><,,<<,<<<<+.,,,<<,<<,,,@X>,<<,<<<<<<",
"yyyyyyyre+#rttyytytytrOOtyytytyyyye++eyttytytutt#Xrtuttutttur%+wttutyytyyt&Xeyyyyyyyyyr=Oqyyyyytyyyy",
"yyuuyyuue@$ruuuuuuuuutOOyuuuuuuuuur++euuuuuuuuut$Xtuuuuuuuuur&+euuuuuuuuuy&oryuuyyyyuuy=+wuuyuuyuuyy",
"uuuuuyuue+$ruuuuuuuuutOOyuuuuuuuuur+Oryuuuuuuuut#Xtuuuuuuuuut&+wuuuuuyuuuy&oryuuuyuuuuy=+wyuyyuuyyuy",
"tttttyryw+#ettttttttteOOtttttttttye+Oeyrtttttttr#Xrttttttttte$+wtttttytttr&Xwtttyyryryr=+qrtytyttytt",
"========&XX==========&..==========*XX&==========X.&=========*OX&==========o.&===&==&==&+.&========*=",
"XX  .XXXXXXXXXX. .XoXXooXXXo. .XXXXXXXXXX. .XXXXXXXXXX.  XXXXXXXXXX...X.XXXXXXXo...XXoXoXXXXX...XXoX",
"er1.3rerereeeew2X1eeeeeeeeee2.<eeeeeereee3.,eeeererere7.<eeerereeee0X>eereereeeeq.<weeereeeeeqX:wrer",
"yy2X7yyyuuuuuyy6X3yuuuuuuyuu3.3tuuuuuuuuu7X1yyuuuuuuuu9.3tuuuuuuuyyqX1uyuuyuuuuuwo2tuuuuuuuuueO>yuuu",
"uu2X8uuuuuuuuuy6o3uyuuuyuuyu6.3tuuuuuuuuy7X1uuuyuuuuuu9.2tuuuuuuuuuqX1tuuuuuuuuuwo1tuuuuuuuuueo>yyyu",
"yu3.7yuuuuyuuut3X3yyyuuyuyyy6X3tuuuuuyuyy7X1yuyyuuuuyu9X2tuuuuutyuyqX1uuutuuyyyueo1tuuyyuuyyueO>yuyu",
"qq>.1qqq0ww0w00<X,qqwqqqqqq0,.,qqqqqqqqq01X:qqqqq00qq02.>0wqqqqq0qq6.;qqqqqqqqqq8.:0qqqqqqqq08o;qqqq",
"     . .. .  ..  . . . .....  .. . . .. .   ... .... .. ..  .  ............... .  .............. . .",
">>>>>>:>:Xo:>>>:>,>>>>..>>>>>>>>>>:X.:>>>>>>>>>>o.>>>>>>>>>>>O.:>>>>>>>>>>+.:>>>>>>>>>>+X;>>>>>>>>>:",
"yyyytyyyw+#ryyyyttytyrOOtytytyytyyr++eyyyyytyyyr#Xttttyyttutr%+wytytyytytr&oetutytyytyr=+qyyyyytyyyy",
"uuuuuuuur+$tuuuuuuuuutOOuuuuuuuuuur++euuuuyyuuyt#Xtuuuuuuuuur%+euuuuyuuuuu&oruuuuuuuuut=+wuuuuyyuuuu",
"uuuuuuuue+$ruuuuuuuuutOOyuuuuuuuuur++euuuuuuuuuy#Xtuuuuuuuuur%+euuuuuuuuut&ortuuuuuuuuy=+wuuuuuuuuuu",
"uuuuuuuue@$ruuuuyuyuyrOOtuuuuuuuyur++euyuuyuuuyy#Xtyuuuuuyuyr%+euuuuuuuuut&oeuuuuuuuuut-+wuuuuutyuyu",
"&**&*&*&$.X&&*&******&X.&*&&&**&**%X.%*********%X.%***&*****%XX$&&&&&&&&&&o %&&&&&&&&&&O.$&&&==&****",
"Xo..XXXoXX.oooX..XooXXXXoooo. XoXoXXXXXoXX..XooXXXXoXoX XXXooXXXooXXX.oXooXXooooo ooXooXXXXXoX..Oooo",
"ww<.2wwwwwwwwww1.<wwwwwwwwww1.<wwwwwwwwww2.>wwwwwwwwww3.,qwwwwwwwww8X:wwwwwwwwww0X>qwwwwwwwww0X:qwqq",
"uu2.8yyuuuuuuut3X3uuyuuuyuuu3.3yuuuuuuuuy7X1yuuuyyuuuu9X2tuuyuuuuuuwo<uuuuuuuuuuwo1tuuuuuuuuteO>yuuu",
"uu2X8yuuuuuuuuy6X3uuuuuuuuuu3X3yuuuuuuuuy7X1uuuuuuuuuu9X2tuuuuuuuutqo<uuuuuuuuuuwX1tuuuuuuuuueO>yuuu",
"uu2.8yuuuuuuuuy3X3yyuuuuuuuu3.3tuuuuuuuuy7X1uuuuuuuuuu8X2yuuuuuuuyuwo<uuuuuuuuuueX1tuuuuuuuuueO>uuuu",
"00>.<0000000009>X>0000000000>.>0000000000<X;00000000001.:90000000003X;00000000008.:90000000007o-0000",
"OO..oOOOooOOOOOo.XOOOOOoOOOOX oOOOOooOoOoo.XOOOOooOOOOX.XoOOOooOoOOo..OOOOOoOOOOo..oOOOoOOOOOo..OOOo",
"::::::::-Xo;:::::::::;..:::::::::;;X.;::::;;::::X.;::::;::::;OX-::::::::::O.;::::::>::;+X=::::::::::",
"ttttttttw+#ettttttttteOOttttttttyte++wytytyttttr#Xetttttyttyr$+qtttttttttt%oerttttttttr=Oqttttttyrry",
"uuuuuuuue+$tuuuuuuuuytOOyuuuuuuyuyr@+eyuuuuuyyyt#Xyuuuuuuyyyt%+euuuuuuuuut%oeuuuuuuuuyt=+wuuyuuuuuuy",
"uuuuuuuue+$tuuuuuuuuutOOuuuuuuuuyur@+euyuyuuyuuy#Xtuuyuuyuuyt%+euuuuuuuuuu&oruuuuuuuuut-+wuuuuuuuuuy",
"tyyyyttye+#etytytyyttrOOttytyttyyye+Oeyyytyyyyyr#Xrtyytyyyyyr$+wtytyyttytt&oettttttuttt=Owtttttyyuty",
"==-==-==&Xo=-======--=.X-=-===-=-=*oo*=-========o.===========OX*-====--===O.==-==-----=OX&--=----===",
"..  ........X... ............ .........X.  ...X.....XX.  .X....XX...  X..........  ...........  ....",
"ww,.2qwqqwqqqwq<X,qqqqwqqqwq<.>qqqqqqqqqq6.:qqqqqqqqeq3.>0qqqqqqwww6.:wwwwwwwwww8.>qwqwwqwqww9X;qwqq",
"uu2.7yuuuuuuuuy6X3uuuuuuuuuu6.3yuuuuuuuuy8X1uuuuuuuuuu9X2yuuuuuuyyywo<yyyyuuyyyteX1tyyuuyyyyyeo,yyuu",
"uu2X8uuuuuuuuuy3X3uuuuuuuuuu6.3uuuuuuuuuy7o1uuuuuuuuuu0.2yuuuuuuuuywo<uuyuuuuuyyeX1tuuuuuuuuueO>uuuu",
"uu2.7uuuuuuuuuy6X2uuuuuuuuuu6.3uuuuuuuuuy7o1uuuuuuuuuu9X1uuuuuuuuyy0o1uuyuuuuuuueX1yuuuuuuuuyrO>yuuu"
};
