/* XPM */
static char *out[] = {
/* columns rows colors chars-per-pixel */
"50 50 217 2 ",
"   c #170400",
".  c #180500",
"X  c #381C0F",
"o  c #2A1917",
"O  c #2A1A1E",
"+  c #331A18",
"@  c #341C1B",
"#  c #3B191D",
"$  c #37211B",
"%  c #3A231E",
"&  c #2B1822",
"*  c #2C1E23",
"=  c #341721",
"-  c #321E24",
";  c #3B1E24",
":  c #2E2125",
">  c #2F2229",
",  c #332226",
"<  c #3C2423",
"1  c #3E2A23",
"2  c #34242B",
"3  c #3A252A",
"4  c #36282D",
"5  c #3A2A2D",
"6  c #3F3129",
"7  c #382830",
"8  c #3C2C32",
"9  c #3F3034",
"0  c #451E0C",
"q  c #481F0B",
"w  c #43161A",
"e  c #4A181B",
"r  c #541B1C",
"t  c #581818",
"y  c #661917",
"u  c #771C15",
"i  c #48200B",
"p  c #49231F",
"a  c #53221E",
"s  c #5B271D",
"d  c #63221D",
"f  c #6A261B",
"g  c #78291A",
"h  c #69311D",
"j  c #77341D",
"k  c #481D21",
"l  c #551E20",
"z  c #432225",
"x  c #4B2526",
"c  c #442A24",
"v  c #432C2E",
"b  c #4A2B2D",
"n  c #522323",
"m  c #5B2424",
"M  c #5B2A25",
"N  c #532C2B",
"B  c #592B2B",
"V  c #4B3324",
"C  c #4C342D",
"Z  c #59362D",
"A  c #422D32",
"S  c #4B2D31",
"D  c #512E31",
"F  c #5D2D30",
"G  c #433235",
"H  c #4C3435",
"J  c #443837",
"K  c #4A3B35",
"L  c #453539",
"P  c #4A3639",
"I  c #4C3A3D",
"U  c #533433",
"Y  c #5B3434",
"T  c #513932",
"R  c #533B3C",
"E  c #583938",
"W  c #5B3C3C",
"Q  c #622A24",
"!  c #682924",
"~  c #762E25",
"^  c #6A3226",
"/  c #62312C",
"(  c #773727",
")  c #653632",
"_  c #683A38",
"`  c #763C34",
"'  c #554239",
"]  c #5C443B",
"[  c #69432E",
"{  c #7C492A",
"}  c #6A4937",
"|  c #764836",
" . c #785136",
".. c #4D3D42",
"X. c #523E42",
"o. c #613E42",
"O. c #4E4045",
"+. c #534244",
"@. c #5A4346",
"#. c #544449",
"$. c #5B4648",
"%. c #57484B",
"&. c #5A4A4D",
"*. c #5F5254",
"=. c #634546",
"-. c #684946",
";. c #764A48",
":. c #6C554E",
">. c #634E51",
",. c #615255",
"<. c #68585B",
"1. c #755B57",
"2. c #766058",
"3. c #7A645C",
"4. c #796565",
"5. c #7D6B6B",
"6. c #7D7070",
"7. c #8B1C0D",
"8. c #81210F",
"9. c #99240E",
"0. c #842818",
"q. c #972A12",
"w. c #85351C",
"e. c #9B3717",
"r. c #A92D0D",
"t. c #A83A16",
"y. c #833624",
"u. c #84362D",
"i. c #933C24",
"p. c #91441F",
"a. c #A6441A",
"s. c #B84314",
"d. c #AF5114",
"f. c #854628",
"g. c #984D23",
"h. c #89542E",
"j. c #965023",
"k. c #995225",
"l. c #98582A",
"z. c #864839",
"x. c #865532",
"c. c #935A33",
"v. c #AE4F29",
"b. c #A85C27",
"n. c #A45D2B",
"m. c #A9612C",
"M. c #B76428",
"N. c #AA6133",
"B. c #C35218",
"V. c #C0562C",
"C. c #C46723",
"Z. c #C66923",
"A. c #CD6D26",
"S. c #C46C2C",
"D. c #CF6F28",
"F. c #D26F25",
"G. c #D67124",
"H. c #DB7425",
"J. c #D27029",
"K. c #D97428",
"L. c #CA7538",
"P. c #E17626",
"I. c #E27826",
"U. c #92544D",
"Y. c #A85C47",
"T. c #886458",
"R. c #9C6558",
"E. c #A86856",
"W. c #886D66",
"Q. c #976D67",
"!. c #8A726D",
"~. c #93756C",
"^. c #897573",
"/. c #8D7974",
"(. c #937B74",
"). c #9D7D77",
"_. c #A57366",
"`. c #C37949",
"'. c #97817B",
"]. c #9D837A",
"[. c #A7887E",
"{. c #B68A7F",
"}. c #CE9675",
"|. c #958481",
" X c #A58C83",
".X c #AC8E83",
"XX c #AB948B",
"oX c #B4968B",
"OX c #B69D95",
"+X c #B5A099",
"@X c #BBA39A",
"#X c #C99B8A",
"$X c #C49D92",
"%X c #C7A69B",
"&X c #D6AD9A",
"*X c #C6ADA3",
"=X c #CCADA2",
"-X c #CEB3A8",
";X c #D3B5AA",
":X c #D4B7AB",
">X c #D5B9AE",
",X c #CDBCB5",
"<X c #D5BCB2",
"1X c #D8BEB3",
"2X c #DBC1B6",
"3X c #D6C2BA",
"4X c #DDC5BB",
"5X c #E1C9BF",
"6X c #DCCCC4",
"7X c #E3CDC3",
"8X c #E5D0C6",
"9X c #E6D3CA",
"0X c #E8D5CB",
"qX c #EDDCD3",
"wX c #EFE0D6",
"eX c #EFE0D8",
"rX c #F0E2D9",
/* pixels */
"a E O.&.*.<.<.%.I H z ^ j E L 7 4 5 7 4 2 ; 2 7 7 2 l e = 7 7 2 3 x Q H I X.#.....X.+.R X.L A 7 Q X.",
"! X.&.,.*.*.O...&.&.-.f.[ G A 7 2 2 4 v v 3 2 2 2 * 8.t - 7 A 5 z ! ` -.<.,.%.I G 8 L I #.X.S n ) #.",
") I A I O...8 I +.X.] Z b 8 8 8 8 7 2 5 7 5 S G > w 9.e 2 > 7 A B U X.&.&.#...P 8 4 3 4 7 2 ; ! W H ",
"W R 8 5 9 J 9 ..I H f.y.3 A 8 A G 7 2 7 8 7 7 2 & a.7.w > * , k m G 7 8 8 8 8 7 8 9 9 8 2 - ; ! X.P ",
"R G G P J ..X.I ] ( s.e.b 9 G G L 8 7 7 8 8 7 & l u.9.l A L S d ~ D 3 L L 9 8 L I ..@.X.I b d B P A ",
"5 G P I ..L L E ( a.B.a._ 5./.^.5...7 7 7 7 - ; y D s.U.).|.|.U.i.m k b U D D I D D P U B ! q.D 8 H ",
"P I +.I L G P ) z.3.Q.E.{.7XqXqX1X5.&.,.&.....o.U.o.v.1XqX9XqX*XQ.R.z.Q d f ^ } } ) ' +.X.) e.F H I ",
"E P I 8 3 b B ) Q.,X7X-X;X0XrXrX8X,X,X6X3XXX+X6X7X2X[.;XeXeXqX6X1X9X&XY.~ Q H I { ( b L X.&.y.! P I ",
"~ ^ N p l S U 1.>XqX8X=X=X9XrXrX9X9XqXrXrX5X>XwXrXeX$X1XrXrXeX7X<XrXqX*X;.m 5 x ~ ^ P G L >.o.~ ~ D ",
"~ w.! w.! A ..|.qXqX5X=X=X9XrXwX5X5XqXrXwX5X:XqXrX9X$X1XeXeXqX1X2XeXrX6X).Y v s Q b A A L X.X.F e.~ ",
"b ~ ( g.l 7 ..+X7X7X-X$X%X2X8X7X>X1X0XqX0X2X%X9XqX4X$X=X4X4X1X>X;X7X8X5X.X) F ( f.{ f.[ I %.....m ( ",
"b y.u.z.D ..(.;X1X>X;X$X.X.XoXoX[..XOX@X@X.X[.OX%XOX)..XoX.X.X.X}.}.}.}.`.N.b.M.S.D.C.n.X.X...X.Q y.",
"/ / ......^.7X0X9X9X7XoX-.H T T C C T H T C H T T T c H B U U } L.L.J.G.G.H.H.G.G.F.Z.k.] ....P ^ R ",
"w.; 7 7 ..|.eXeXrXrX9X X1 . . . . . . . . . . . . . . . . . . q J.H.K.K.A.K.H.D.F.F.Z.k.R ..G N g 7 ",
"a.k ; 7 > 6.0XqXqXqX9X X% . . . . . . . . . . . . . . . . . . q J.K.G.G.A.G.J.A.S.M.b.{ P L 7 j y.; ",
"z.o.E l ; U.,X<X5X7X1X).% . . . . . . . . . . . . . . . . . . q L.M.M.m.h.x. .}  .} ' 6 8 G 3 ~ ;.E ",
"X.>.X.B l i.R.=X4X4X1X(.$ . . . . . . . . . . . . . . . . . . + } } ] ' ' J 6 J ' ' V V H P ) M >.@.",
"x $.X.W ~ g =.,XqXqX0X X% . . . . . . . . . . . . . . . . .   o Z [  .h.l.l.m.b.b.M.b.h.T P N B R X.",
"l ..I b ~ g >.6XrXwX8X X1   . . . . . . . . . . . . . . . .   X m.M.Z.G.A.A.G.A.I.G.Z.j.c # < p b I ",
"i.y D b f 9.u.<XqX9X4X].1   . . . . . . . . . . . . . . . . . q D.G.G.G.G.K.G.G.H.G.Z.j.Z E Y ` y.l ",
"U | a.! i.z.;.oX:X=X%X~.$   . . . . . . . . . . . . . . . . . q A.G.G.H.G.G.H.F.H.G.Z.j.V V 5 v _ g.",
"2 G ~ t.Y 1.-X4X7X4X>X).$   . . . . . . . . . . . . . . . . . q F.G.H.I.G.H.H.F.I.H.Z.j.1 : : 1 4 C ",
": * x 0.z 5.qXeXwXwX7X].%   . . . . . . . . . . . . . . . . . q A.G.H.I.G.H.H.G.I.G.Z.j.1 O : : * * ",
"O & @ 0.a 6.wXrXeXeX0X X1 . . . . . . . . . . . . . . . . . . q G.H.H.H.G.H.H.G.H.H.Z.j.V $ : : & & ",
"O O + y e 1.8XrXrXwX2X).% . . . . . . . . . . . . . . . . .   q J.H.G.I.H.H.H.G.I.H.Z.j.c : : : O O ",
", O # t - @.*X:X>X>X&XW.+ . . . . . . . . . . . . . . . . .   q J.G.H.H.H.P.H.G.I.H.Z.j.p O O , , O ",
": @ y u 8 2 P OX9X8X4X].% . . . . . . . . . . . . . . . . .   q G.H.H.H.K.H.H.G.H.H.C.j.N 1 G , O w ",
"< t e.a 4 2 #.,XrXwXwXXX1 . . . . . . . . . . . . . . . . . . q G.H.H.I.G.H.I.H.I.H.Z.j.M 5 5 5 k u ",
"# t l r R T } <XrXrX0X X< . . . . . . . . . . . . . . . . .   q F.G.G.H.G.I.H.G.I.H.C.j.Q e , , t e ",
"w y k Q g g N.&X0XqX5X[.% . . . . . . . . . . . . . . . . .   i F.G.H.I.G.H.H.H.I.H.C.j.D e w , y e ",
"t 9.t M q.U R.#X>X2X-XW.+   . . . . . . . . . . . . . . . .   q F.G.H.I.H.H.I.H.I.H.Z.j.z w t e u 8.",
"u t.g m h <.6X0XqXwX8X].%   . . . . . . . . . . . . . . . .   i F.G.H.I.H.I.P.H.I.H.Z.j.e q y y 7.t.",
"r.s e d M W.qXqXrXrX0X X< . . . . . . . . . . . . . . . . .   i D.G.H.I.H.H.I.H.I.H.Z.j.i t 7.9.q.x ",
"s.; : * 2 W.qXqXqXqX9X.X< . . . . . . . . . . . . . . . . .   i D.G.H.P.H.I.H.H.I.H.C.j.a y q.t.j , ",
"W , > > > ,.*X<X6X>X-X~.@ . . . . . . . . . . . . . . . . . . i G.G.H.P.G.H.H.G.I.H.C.j.n u s T D , ",
"G ; 2 > > G 4.OX<X>X=XW.+ . . . . . . . . . . . . . . . . .   i A.G.H.P.G.H.H.G.I.H.C.j.s u < 4 b , ",
"z y - > 7 > %.,XqXqX7X[.% . . . . . . . . . . . . . . . . . . i G.F.G.H.G.H.H.G.P.H.Z.j.y u e : t e ",
") ( n k 2 2 >.8XeXeXqXXX1 . . . . . . . . . . . . . . . . . . X m.M.S.G.D.H.K.F.P.G.Z.j.0.9.y N ` ^ ",
">.$._ m l k =.<XqXqX0X X< . . . . . . . . . . . . . . . . . . o ' }  . .x.x.c.h.m.m.m.f.` ` _ =.%.-.",
"+.I R E B t z.$X<X<X-X~.+ . . . . . . . . . . . . . . . . . . X  .} ] ' ' 6 J ' ' ] ] C +.%.#.#.I ' ",
"P A L L P o.$X<X2X4X<X(.$       . . . . . . . . . . . . . . . 0 C.M.M.m.l.l.h.x.{ } [ 1 4 G J K J G ",
"3 = 7 G ..W.9XqXqXqXqXXX1   . .     . . . . . . . . . . . . . i F.G.G.H.F.F.F.A.A.M.b.f.V N k < , : ",
"j < - A X.4.9XqXqXrXeXOX1                     . . . . . .   . i F.F.G.P.G.P.H.K.H.H.C.k.] _ Y j s $ ",
"g.d.k 7 v 1.>X4X7XqX0X@XW.1.:.:.2.3.3.3.3.:.1.3.3.2.2.2.1.@.3.T.`.S.J.G.F.P.P.G.H.H.C.k.-.>.X.} d.j ",
") d.e , < y.U.W./.'.|.(.!.!.~.Q.~././.(.(.!./.'.(./._.Q./.!.!.W.R.Y.V.s.g.c.c.n.S.G.C.l.:.4.<.>.w.t.",
"S r.e , e 9.0.b G L L J J L f.{ I J L L I H I X.+.' y.D I %.P P W ` e.y.R ' #.] -.-.| [ +.%.>.&.y t.",
"z s.j A E W Y U A 2 4 5 G Q ^ H 9 5 4 5 3 5 A v A A y = 7 8 4 8 8 S Q ~ I I I O.+.I R H I X.@.P f d.",
"x ( ] #.&.*.&.+.P 5 2 < x Z H 5 5 5 5 3 5 3 5 5 5 7 l = * 4 2 2 7 3 b X.I I O.+...' +.X.I G I 9 d ` ",
"s E %.,.,.<.,.+.#.#.Y p.{ H G 7 2 7 5 5 3 , , 2 2 , ! t - 7 9 2 - n ~ D @.&.#...L J R R #.X.v ; Q X.",
"~ +.#.&.*.%.9 I %.%.@.) Z G A 4 2 2 2 8 3 3 A 8 2 & 9.e * 7 8 7 x ( ;.<.<.,.#...9 7 9 G P I H Q _ #."
};
