/* XPM */
static char *out[] = {
/* columns rows colors chars-per-pixel */
"64 64 229 2 ",
"   c #120200",
".  c #1A0502",
"X  c #1E0905",
"o  c #210B05",
"O  c #260F08",
"+  c #2D1105",
"@  c #31160A",
"#  c #311D13",
"$  c #382115",
"%  c #3E2A20",
"&  c #482B18",
"*  c #572F15",
"=  c #67310E",
"-  c #68320E",
";  c #693817",
":  c #442C25",
">  c #482F28",
",  c #4B332C",
"<  c #553B2E",
"1  c #7A4219",
"2  c #5E4937",
"3  c #69452C",
"4  c #6E492E",
"5  c #724A2C",
"6  c #7C4E2C",
"7  c #624531",
"8  c #684730",
"9  c #6C4A31",
"0  c #764E31",
"q  c #775336",
"w  c #707538",
"e  c #685946",
"r  c #765944",
"t  c #767E43",
"y  c #8C4B1A",
"u  c #974D16",
"i  c #984D16",
"p  c #904B18",
"a  c #B15F1F",
"s  c #92771E",
"d  c #B7601D",
"f  c #BD631D",
"g  c #A27E1A",
"h  c #814D27",
"j  c #84522D",
"k  c #8A572B",
"l  c #8B552C",
"z  c #955728",
"x  c #9B5C2B",
"c  c #915B33",
"v  c #A55E27",
"b  c #9D6124",
"n  c #AD6125",
"m  c #A6602A",
"M  c #AC6229",
"N  c #B26324",
"B  c #BA6624",
"V  c #B86827",
"C  c #B06F3A",
"Z  c #CF6D1F",
"A  c #D36E1F",
"S  c #D6701F",
"D  c #C46A23",
"F  c #CC6D22",
"G  c #C16D2B",
"H  c #D16F20",
"J  c #C57624",
"K  c #CB7424",
"L  c #D57221",
"P  c #DB7421",
"I  c #D37829",
"U  c #C47936",
"Y  c #D57C34",
"T  c #DB7D34",
"R  c #D57E3A",
"E  c #E17721",
"W  c #E27821",
"Q  c #93694E",
"!  c #886E64",
"~  c #857660",
"^  c #93766A",
"/  c #977B72",
"(  c #A97E62",
")  c #2D8E00",
"_  c #328F01",
"`  c #359400",
"'  c #3A9601",
"]  c #369C00",
"[  c #3D9B00",
"{  c #3EA000",
"}  c #439702",
"|  c #439D01",
" . c #4A9E03",
".. c #459A09",
"X. c #4B9D0D",
"o. c #4C9B15",
"O. c #559310",
"+. c #569B1A",
"@. c #6C930A",
"#. c #6C940B",
"$. c #6A9918",
"%. c #45A100",
"&. c #4BA301",
"*. c #4EA901",
"=. c #4EA10D",
"-. c #51A502",
";. c #53A901",
":. c #5AAC01",
">. c #52A50D",
",. c #54A40C",
"<. c #59A80D",
"1. c #56A417",
"2. c #5AA614",
"3. c #5BA31C",
"4. c #63B00F",
"5. c #62A61D",
"6. c #63AB19",
"7. c #559D21",
"8. c #649B24",
"9. c #5DA521",
"0. c #5BA126",
"q. c #62A524",
"w. c #65AB23",
"e. c #6CAC24",
"r. c #64A52B",
"t. c #6AA72A",
"y. c #72AD2D",
"u. c #6BA634",
"i. c #76AA3A",
"p. c #76B231",
"a. c #788248",
"s. c #7AAA47",
"d. c #7FB142",
"f. c #A7811C",
"g. c #A0882E",
"h. c #C2813F",
"j. c #DA813B",
"k. c #969450",
"l. c #82AD49",
"z. c #85B24A",
"x. c #83AD53",
"c. c #8AAD58",
"v. c #88B354",
"b. c #8CB35B",
"n. c #94B65D",
"m. c #959F66",
"M. c #9D837A",
"N. c #B3896E",
"B. c #A5887D",
"V. c #8EAF62",
"C. c #94AE64",
"Z. c #93B363",
"A. c #98B666",
"S. c #99BA6A",
"D. c #9CB373",
"F. c #A2B36D",
"G. c #A7B878",
"H. c #CA8655",
"J. c #D08753",
"K. c #D38952",
"L. c #D38A56",
"P. c #D28C5A",
"I. c #C89168",
"U. c #D79667",
"Y. c #CC9674",
"T. c #CE9B7C",
"R. c #D29C7B",
"E. c #D7A17E",
"W. c #A9C179",
"Q. c #AB9187",
"!. c #AD9788",
"~. c #B89B8D",
"^. c #ADBB82",
"/. c #A9BA86",
"(. c #B6BA8A",
"). c #B4BC8C",
"_. c #B9BC93",
"`. c #C79E86",
"'. c #CCA58A",
"]. c #D4A383",
"[. c #D9A989",
"{. c #C5A69A",
"}. c #CDAB9C",
"|. c #D4AE98",
" X c #C4B89B",
".X c #D9B298",
"XX c #C6ABA1",
"oX c #CAAEA3",
"OX c #CBB9A5",
"+X c #CDB4AA",
"@X c #D6B7A9",
"#X c #D3B9AD",
"$X c #D5BCB2",
"%X c #D9BEB3",
"&X c #AEC187",
"*X c #B6C58A",
"=X c #B4C28C",
"-X c #BBC494",
";X c #BBC597",
":X c #C1C59C",
">X c #CBC7A7",
",X c #D1C6AD",
"<X c #CFD1AD",
"1X c #D5C4B2",
"2X c #DBC1B5",
"3X c #D5CBB4",
"4X c #D8C8B7",
"5X c #DCC6BB",
"6X c #DECABD",
"7X c #D6D2B6",
"8X c #DAD3BC",
"9X c #E2C4B3",
"0X c #E4CBBC",
"qX c #E8CEBE",
"wX c #DFCAC0",
"eX c #DED4C1",
"rX c #DED9C2",
"tX c #E2CDC3",
"yX c #E4D1C6",
"uX c #E2D7C4",
"iX c #E6D4CA",
"pX c #E8D6CC",
"aX c #E6DACB",
"sX c #E9D9CE",
"dX c #EDDDD4",
"fX c #EFE0D7",
"gX c #EFE0D8",
"hX c #F0E0D7",
"jX c #F0E1D8",
/* pixels */
";.*.&.%.&.*.;.;.&.| | | %. .&.%.{ ] %.%.| %.*.*.*.%.{ { *.%.] ' ' } &.%.[ { &.%.] [ &.*.%.| &.%.} [ ` ` } | ' [ &.*.| [ ` ` { %.",
"*.*.%.%.&.&.*.&.| | | } | | &.| ' ` { %.| %.*.*.&.%.] { *.&.[ ] [ | | &.| [ | | ] { &.*.%.| | } } ' ] ' | | [ [ &.&.%.[ ' ] { &.",
"&.%.{ [ &.&.%.[ } [ [ [ [ [ } ' ` ` ] [ | %.*.*.{ { { { *.&.%.{ } | &.%.%.[ ' ] { { %.{ ..] ' ` ' ' [ | &.-.| %.*.&.[ ' ' ' %.%.",
"{ %.| | &.&.%.[ [ [ [ [ ' ' } ' ` ' X.1.9.9.9.6.1.=.%.{ %.%.%.{ %.&.&.&.%.{ [ ..o.0.9.7.1.o.' ` ' [ |  .-.&.%.[ &.%.[ [ [ [ %.%.",
"%.%.&.;.-.-. .| | | %.%.| } } } } X.q.i.v.Z.n.v.s.q.=.{ [ { *.*.-. .-. .&.&.o.0.s.b.V.b.s.r..._ ' | %.%. .%.[ { ] %.&.| %.| | [ ",
"| &.-.;.-.&.&.| ..| %.%. .=.+.q.8.u.l.A.=X:X;X*XS.l.u.0.0.1.1.4.6.6.5.5.w.9.r.s./.;X;X_./.c.u.7.3.1.,.=.| | [ ] [ | | %.&.| [ ] ",
"&.;.;.;.| | | | [ [ ] =.o.w.z.Z.b.A.G.-X7XrXtX3X:XG.b.s.s.s.z.d.i.z.x.v.l.c.V.D.>XrXrXeXOX).D.V.b.d.w.<.&.&.%.%.%.{ | [ | | [ ' ",
"&.;.;.*.| [ | [ [ [ [ >.u.b.W.-X(.(.OX1XaXfXhXpX2XOX).&X=X&XW.W.F.G.^.=X^.G./._.eXdXdXsXwX$X>X_.=XG.v.e.2.;.;.&.&.%.[ [ [ [ ' ' ",
"&.&.;.-.%.[ [ | | |  .w.S.:X<X7X+XoX+X%XpXjXjXsX0X4X7X8X8X8X,X>X:X>X4X8X3X>X XoXyXhXhXdXyXtX%X1XrX<X*Xv.4.:.:.:.*.&.| | | [ ' ` ",
"%.&.;.:.&.} } } %.=.4.z.-X8XaXqX%XoX@X%XpXjXhXpXtXtXsXhXhXdXiX0X9X5XdXfXiX0X+X@XyXhXfXdXyXtX0XtXaXrX<X&Xp.4.4.:.:.&.&.%.%.| ' _ ",
"] %.:.:. .[ ' } &.4.p.n.>XaXaXqX@X}.@X%XpXhXdXpX0X5XpXhXhXdXyX0X%X2XpXdXiX0X}.@XyXsXfXsXtX0XtXtXfXaXrX:Xv.4.<.;.;.;.*.&.*.&.' ` ",
"[ %.;.:.&.} [ } ;.e.z.G.<XyXyX4XoX}.oX%XtXpXiX5X$X$X2XqXqXqX9X9X.X@X0XqX9X@X}.|.1X0XtX0X2X%X%XtXaXaXfX<XS.p.2.&.&.&.*.;.&.&.' ` ",
"| | &.&.&.&.&. .:.e.n.(.,X5X%X+X{.{.{.oX%X%X%X@XXX{.'.[.[.[.E.E.T.]..X.X.X[.`.`.'..X|.oX}.}.}.@X3X6X5X>XG.x.5. .| }  .&.[ | [ [ ",
"| %. .&.;.&.&.,.5.l.G.OX2X9X%X#XoX~.B./ Q./ Q./ / ^ ( ( L.L.L.L.J.P.U.U.E.U.I.I.Y.Y.Y.Y.Y.].'.|.1X6X5X$X;XG.d.3...[ } | [ [ | | ",
"&.&.&.&.&.-.&.2.l.F.<XuXiXpXpXtX#XQ.e , > > > > > < h v U Y Y Y Y R R K.j.j.j.R R K.Y j.K.K.R..X0XdXpXaXrX>XS.s.o.' } | | | | | ",
"%.&.&.&.&.&.&.6.n.*XrXdXhXhXhXpX$XQ.< O X . . . o @ - i f K S S L L P P W W S P P P L L S j.U.[.qXjXdXdXjX8X;Xb.3.| } |  .| %.| ",
"| | &.%.[ [ %.w.n.;XrXjXjXfXdXiX#XB., O .         + = u f S S H H H P P P L L L L P S P P T P.].0XdXdXgXfXrX;XZ.w.&.&.&.&.&.&.&.",
"| &.&.%.` ' %.6.v.=X7XdXsXfXdXtX+X/ > o .         + * y a B D f D D D K F F D F K L K I P R J.].9XdXdXdXdX7X=Xb.w.*.&.&.&.%.&.&.",
"&.&.&.} ' ' &.2.d.D.OXwXyXyXyX5XoX/ > o           O & ; h x x v v v v M M V M V B B V G K R H.`.%XtXyXtX6XOXG.s.2.&.%.{ %.%.%.&.",
"&.&.&. .[ ] &.2.t.x./.>X4XtXtX2XXX/ > . .         o $ < 3 0 6 j 6 j l l l l l z x x x x m C ( `.#XtXtX4XOX(.c.u.1.%.{ | { { &.&.",
"-.;.:.;.&.%.&.%.=.u.Z._.4XtXtX%X{./ > X           . # & < 7 7 7 7 7 7 7 7 7 7 7 8 8 8 4 4 r ^ Q.#XtXtX3X_.A.i.1.=.%.&.&.%.%.&.*.",
"&.;.;.,.&.%.{ %.%.9.b.=X3XiXyX5XXX/ , X           X $ * 3 5 5 5 4 4 9 9 9 4 4 4 5 4 8 4 3 r ^ Q.$XtXaX4X=XV.t.,.%.%.&.*.&.%.%.%.",
" . .&.%.%.[ ] %.&.r.S.;XeXdXdXtX+XM., o           O * 1 u v d N a v v M M v n v M M v v v C ( `.5XdXdXeX;XS.w.%.[ { %.%.&.*.{ { ",
"| | | | ] ] ' | %.w.S.:XeXdXdXtX+XM., X         . + - u d Z S S F F F F F F Z F Z F D D F U ( `.0XdXdXeX:XS.w.%.{ [ { %.*.%.{ ] ",
"| [ %.{ [ ' ' | | q.Z.;XeXdXiX5XoX/ , X           + = u f A S S H H A A L P H S P P L L P Y H.Y.%XsXsXeX;XS.w.*.%.| %.%.;.*.%.{ ",
"| | %.%.[ [ } } ..q.Z.=X4XyXwX$X{.^ > X           O - i f S E E L H A A S P P E W W E P E Y J.Y.@XwXyX3X=XZ.t.o.| | %.&.;.*.&.%.",
"| | [ %.%.%...=.o.u.C._.+X1X$XXX~.! :             + - i f A E P P L A S P P P P W W E P P Y J.Y.|.%X$XOX).V.0.[ [ | &.:.;.-.&.{ ",
"| | | | &.&.%.=.0.s./.OX1X%X1X+X~.! : .           + - i D A P E S H A A S P P P E E P P P R J.Y.}.%X1X$X X/.s.7.....&.,.:.-.&.%.",
"| | | %.&.&.%.o.s.W.<XeXiXpXpX5XXX/ > X           + = u B L P E S A A S E E S P E W E P P R L.R.9XiXpXiXeX>XD.s.1.| %.&.-.;.&.&.",
"%.%.%.&.&.&.] 7.x.&X8XfXfXgXdXtX+X/ , o           + = u f H P E S A A S P E P P E E P L I R L.].qXhXhXhXdXeX/.s.9.| ' [ &.*.;.;.",
"&.&.&.&.&.| [ +.s.&X7XdXgXdXdXtXXX/ , X           + = u f A E P S A A A P E P P W E P L E R L.].0XhXhXhXgXeX/.c.+.' [ ' [ %.&.&.",
"*.*.&.%. .| ' o.s.G.<XaXaXdXpX5XXX/ , X .         + = u f L P P S A A S E E P E E E P P E T L.].9XsXsXsXaX7X/.s.+.' ' ' [ %.%.&.",
";.&.%.%.| } ' o.u.Z._.1X6XtXtX%X~.^ , X           + = i f H L L S A H S E E P P E W P P W T J.R.@XtXtXqX4X:XA.i.O.' ' } &.*.%.| ",
"-.&.] [ [ [ ' ..q.s.G.>X2XtXtX%XXX^ > X           + = u d F V B f Z F P E E P S E E P P W T K.R.@XtXtX2X>XG.z.t.X.' [ | &.&.| | ",
"&.&.] ] ] [ ` ' X.r.V.=X8XsXpX0X+X/ , X           + = i f B l l v f F L P E P S E E P P W j.U.[.9XpXpX4X;XS.p.<. .| &. .' ' ' ] ",
"*.&.{ ] [ ' ` ' [ 9.b.=X8XdXsXyX+XM., X           + = u f n 6 9 h v D H P E P P E E P P P j.P.[.qXdXdX8X*Xb.w.*. .} &.| ' ` ] | ",
"*.*.{ { | [ ' ' [ 0.b.=X8XhXhXyX#XM., X           + = p d v 5 < 5 z D S P P S P W W P L P T U.[.qXdXdXqX*Xn.e.;. . .| | %.| | | ",
"&.&.{ { | | [ [ | 9.c.=X8XdXsXyX+XM., X           + = u d a 6 5 h z D S P P S P W W P I P T P.[.qXdXdX8X=Xb.w.&. .} } } | %. .| ",
"| ' ` ` %.%.| | -.5.c.G.3XiXiX5XXX/ , X           + = u f B v c v v Z S S P P P W P P P I T P.].9XpXiX3XG.x.3.| } } } [ } [ } } ",
"' ` ` ' } &.|  .+.y.n.*X4XiXtX2XXX/ , .           + = i B D M m M B A S E E P P W P P P P T J.].@XyXqX4X_.n.u.,.&.| } ' [ } | | ",
"` [  . .} } | ,.t.v.=X,X0XuXyX5XXX^ , X           + = i D D M m v V H P E E E S E E S S P T L.R.%XtXiXeX,X_.b.u.2.&.} [ | &.-.-.",
"[ | -.-. . .} 1.i.F.>XyXiXiXaX5XXX/ , X .         + = i f F V V N B H P W E S E E E S E E T P.].9XpXpXaXuX<XG.l.6.&.| | &.&.-.:.",
"&.&.&.-.;.&.&.3.v.).4XdXdXdXdXyX+XM., o           + = i f A H F F F H E E E P S E E E S E T U.[.0XdXdXdXdX8X;XZ.e.-. .| &.-.-.-.",
"&.&.&.&.;.-. .9.c.=X8XdXfXdXdXyX#XM., X           + = i f A P P L H P P E E P P E W E S W T P.[.qXdXfXfXdXeX_.C.e.-.} | &.&.&.&.",
":.;.;.-.&.&.| 3.x./.,XpXsXdXpXwX+XM., X           + = i D S P E P L E E E E P E W W S E W T P.].9XiXsXdXpX3X).c.5. .| | %.&.&.&.",
";.;.;.&. .} | o.i.C._.4XwXtXwX$XXX/ , .           + = i f S P E P P S E E E P P E E W S P W J.R.@X0XyXtX1XOXD.s.3.%.[ ] | %.&.&.",
"%.&.;.&.| [ [ ..+.i.F._.#X$X$XXX!.! % .           + = u f S P E P S P S P P S P E W E S W T J.Y.{.$X2X,X_.D.s.q.X.| { %.{ %.&.&.",
"| %.&.%.| ' ' } X.t.C.(.OX2X$XoX~.! % .         . + = u D A P P P L S L P P S S E E S E P j.J.Y.}.$X4X#X(.V.r.o. . .%.%.%.&.%.%.",
"' ] | %.%.| ] [ -.t.S.:X8XaXaX6XXX/ , X           O ; y f H P P P S S S P P S L W P S L P K.P.R.9XiXpX8X;XA.0...%.&.&.&.*.&.| ' ",
"] %.[ %.%.%.] [ &.y.S.;XaXjXdXiX$XM.,             # = h d D K K F D D D D F D J F D D V V U H.'.0XfXhXuX>XS.r.%... .&.&.*.&.{ ' ",
"{ %.*.*.&.| ' [ } q.S.>XrXdXgXpX$XQ., X         . O * y v n M V M M v m m v x x x c c c c Q N.~.wXdXhXuX:XS.r. . . .&.&.&.%.%.{ ",
"{ &.:.;.%.| ' [ } q.Z.;XeXsXsXtX+XQ., X           O : ; h k c c l j l j j q 6 0 6 6 0 9 q c ^ ~.4XdXsX8X-XA.q. .&. .&.| %.%.%.&.",
"{ %.;.;.&.[ ' [  .5.v.^.>X5XwX#XXX! > X           . # & 7 7 7 7 7 7 7 7 7 7 7 3 4 4 3 4 5 j ~ B.+X5X5X>X/.x.q.-.&.&.| | *.*.{ *.",
"] %.-.*.| [ [ %.1.y.A.).#XwXwX#XXXt > .           X # & 7 7 3 3 9 5 5 5 4 5 5 1 h h h h k c ( N.+X5X6XOX(.C.u.4.,.&.| | %.*.&.%.",
"&.%. .} ' ] %.<.y.n.;X4XwXiXiXwXXXQ., X           o & ; y v m M n n n n n n N N N B d N f C H.[.2XpXiXtX4X-Xn.e.<.%.&.&.&.%.%.{ ",
"&.&.| ' ' ' | 1.p.W.<XsXaXsXdXiXwXQ., O           + = y a D Z S S F Z S H H H S S S A S Z j.U.[.qXdXdXdXdX<XW.l.2.&.-.&.&.| | { ",
";.&.| | [ [ ' 1.z.W.7XsXdXdXhXpX6X!.< o .         + - u d A L P S S S S S I S S P P S S P j.U.[.yXhXhXhXdX8XG.l.3.-.-.&. .} [ ' ",
"-.&.| } ..} ' o.d.G.>XqXpXaXpXaX3X!.e % % # # # $ & 1 i f L P P S K Z S I S j.S P I I I I K.U.:XqXsXaXiXaX<XG.l.6.-.-.-.&.| [ ' ",
"&.&.} [ | | } o.i.C._.,X,X4X8X7XOX!.~ e e 2 2 2 e r k b V J P I J J J J j.K f f.J U U U h.H.I.[.3X8X2X,X>X_.A.i.6.-.;.-.&.&.| | ",
"&.%.[ [ | &.%.=.w.d.n.G.G.G.*X*XG.m.k.a.t t t w t u.w s f.f.g g f.g f.f.f.f.f.f.g.g.g.g.g.k.k.F.G.*X^.G.F.C.l.t.,.&.-.&.-.&.| [ ",
"&.&.[ [ %.%.%.%.,.3.e.y.y.y.l.p.u.8.8.8.8.+.+.O.8.O.O.@.@.@.@.@.@.@.@.@.#.#.#.#.$.$.$.$.$.8.8.8.u.u.u.y.r.q.3.,.&.%.%.&.;.&.' ` ",
"%.| { | %.&.%.{ |  .-.-.-.,.:.;.....X.,.,.X...| O.} } O. . .-.-.} }  .-.*.&.-.-.-.=.&.&.X...} } ........' [ | | | [ | %.*.&.[ ` ",
"[ } %.%.| [ ] ' ' ' } } | |  .&.%.[ | %.-.-.*.&.| | }  .-.-.| } }  . .&. .&.&.;.;.*. .} ' ' ' ' ' ' ` _ ` ` ` ] ' [ [ %.%.&.&.&.",
"' [ %.%.{ ' ' ` _ _ ` ' } }  .&.[ [ ] [ &.&.*.&.%.[  .-.:.;.| [ } } &.&. .&.*.*.;.;.| } _ _ _ ` [ ` _ ) ) ) ` ] ' [ [ { %.&.&.-."
};
