/* XPM */
static char *out[] = {
/* columns rows colors chars-per-pixel */
"50 50 231 2 ",
"   c #170500",
".  c #180500",
"X  c #2E180F",
"o  c #291817",
"O  c #2A1A1E",
"+  c #341919",
"@  c #341C1B",
"#  c #3B1A1D",
"$  c #39211C",
"%  c #2C1D23",
"&  c #2D1D27",
"*  c #331E24",
"=  c #3B1D23",
"-  c #2E2125",
";  c #2E2429",
":  c #332225",
">  c #3C2522",
",  c #3D2923",
"<  c #34242A",
"1  c #3A252A",
"2  c #36282D",
"3  c #3A292E",
"4  c #3C332E",
"5  c #352731",
"6  c #3C2C32",
"7  c #3E3333",
"8  c #393837",
"9  c #431F0D",
"0  c #43151A",
"q  c #4A181B",
"w  c #581919",
"e  c #661815",
"r  c #771C14",
"t  c #4B230F",
"y  c #4D2511",
"u  c #48211F",
"i  c #56261B",
"p  c #63221C",
"a  c #69251B",
"s  c #782819",
"d  c #69311D",
"f  c #77341C",
"g  c #431D22",
"h  c #4C1D22",
"j  c #511D22",
"k  c #432325",
"l  c #4A2627",
"z  c #432C2E",
"x  c #4A2B2D",
"c  c #532323",
"v  c #5A2524",
"b  c #5A2827",
"n  c #542B2B",
"m  c #5A2C2D",
"M  c #45352D",
"N  c #4B322D",
"B  c #58392B",
"V  c #422E32",
"C  c #4A2E32",
"Z  c #522E31",
"A  c #5D2D30",
"S  c #433235",
"D  c #4C3435",
"F  c #463A37",
"G  c #453539",
"H  c #4A3639",
"J  c #4C3A3D",
"K  c #543435",
"L  c #5B3433",
"P  c #563838",
"I  c #533A3C",
"U  c #5C3C3C",
"Y  c #672924",
"T  c #772C23",
"R  c #62312C",
"E  c #693728",
"W  c #773628",
"Q  c #663936",
"!  c #743A33",
"~  c #534136",
"^  c #58463B",
"/  c #774929",
"(  c #674939",
")  c #734936",
"_  c #744E34",
"`  c #4C3D42",
"'  c #523E42",
"]  c #613E42",
"[  c #4C4043",
"{  c #534245",
"}  c #5A4346",
"|  c #554549",
" . c #59474A",
".. c #5A4A4D",
"X. c #5F4F51",
"o. c #5F5254",
"O. c #654849",
"+. c #794B45",
"@. c #634E51",
"#. c #694F50",
"$. c #635355",
"%. c #675759",
"&. c #6A5A5C",
"*. c #745C5A",
"=. c #796766",
"-. c #7F726D",
";. c #8B1B0D",
":. c #90240F",
">. c #832817",
",. c #982B13",
"<. c #85351C",
"1. c #9A3615",
"2. c #A92D0D",
"3. c #A83A16",
"4. c #893524",
"5. c #89392C",
"6. c #96461B",
"7. c #944A1E",
"8. c #A6441A",
"9. c #B74813",
"0. c #A95316",
"q. c #A5551D",
"w. c #864328",
"e. c #954729",
"r. c #975729",
"t. c #864837",
"y. c #934934",
"u. c #845635",
"i. c #955B32",
"p. c #A24B2B",
"a. c #AB5D25",
"s. c #A55C28",
"d. c #B25C24",
"f. c #AA622E",
"g. c #B56429",
"h. c #A96435",
"j. c #B96B34",
"k. c #C15110",
"l. c #CE6A1F",
"z. c #D16C1F",
"x. c #CD6B22",
"c. c #C36B2A",
"v. c #C66B28",
"b. c #D26E23",
"n. c #CE702A",
"m. c #D57125",
"M. c #DA7325",
"N. c #D4722A",
"B. c #DD7529",
"V. c #DF782A",
"C. c #C67437",
"Z. c #D17634",
"A. c #E17727",
"S. c #E47926",
"D. c #E67927",
"F. c #E27828",
"G. c #8A5550",
"H. c #886559",
"J. c #9F735A",
"K. c #AF7153",
"L. c #886B66",
"P. c #8D6F6D",
"I. c #83706D",
"U. c #95746D",
"Y. c #987D76",
"T. c #B37C67",
"R. c #A67D77",
"E. c #CC7C43",
"W. c #D87E52",
"Q. c #9A817A",
"!. c #A4857C",
"~. c #B38872",
"^. c #CF824F",
"/. c #CD8757",
"(. c #D68A58",
"). c #D58C5A",
"_. c #D9915E",
"`. c #C88C69",
"'. c #DC9767",
"]. c #CD9372",
"[. c #E29D6B",
"{. c #998685",
"}. c #A48A82",
"|. c #A78B85",
" X c #BC8E86",
".X c #A7908A",
"XX c #AB938B",
"oX c #B4958B",
"OX c #AB9995",
"+X c #B49B93",
"@X c #BC9E95",
"#X c #BEA49B",
"$X c #C49D8D",
"%X c #CE9D8D",
"&X c #C5A296",
"*X c #C6A69A",
"=X c #CAAA9E",
"-X c #D7B09C",
";X c #C4ACA2",
":X c #CCADA2",
">X c #CDB0A5",
",X c #CCB3AA",
"<X c #C9B4AB",
"1X c #D2B2A5",
"2X c #D2B6AB",
"3X c #D5BAAE",
"4X c #D9BBAC",
"5X c #CEB9B1",
"6X c #D4BCB2",
"7X c #D9BEB3",
"8X c #E1BCA7",
"9X c #DCC1B5",
"0X c #D3C1B9",
"qX c #DDC5BB",
"wX c #DEC9BE",
"eX c #E1C0AE",
"rX c #E1C7BA",
"tX c #E2CABE",
"yX c #DECDC4",
"uX c #E3CDC3",
"iX c #E5D1C6",
"pX c #E9D2C4",
"aX c #E6D3CA",
"sX c #E9D5CC",
"dX c #EBD9CF",
"fX c #EDDCD3",
"gX c #EFDFD8",
"hX c #F1DED6",
"jX c #EFE0D7",
"kX c #F0E0D7",
"lX c #F1E2D9",
/* pixels */
"i K [ ..o.&.%.| J H k d / L G 5 3 5 3 1 2 1 < 5 3 1 w q & 5 6 2 2 l Y D J { | ` J ' { ' ' D V 3 Y ` ",
"Y ' ..$.o.o.` ` ....O.w.W S 6 6 < < 3 6 1 1 * 5 & & ;.w < < 4 3 k Y ! O.%.$...J S 6 G H ' | C c Q { ",
"! J V J ` J 6 ` { [ U R z 6 V V 6 5 3 3 6 1 S 6 < 0 ;.q & ; 2 C m K { .. .| { G 5 2 2 3 5 < * T U H ",
"I ` V 2 7 J 7 ` J D w.<.3 6 G $.=.&.$.{ 6 6 6 < & 8.;.0 < < 5 O.H.&.$.{ 6 6 6 3 6 7 S 5 ; < = Y I H ",
"I S S H ` ` ` J U W 9.p.' | I.6XsXsXiX+X..` G 5 v 5.,.v C G &.yXaXiXuX+X%...` J I ' { ' I x e Z H z ",
"3 S H H J G H P W d.W.-X6X*X>XaXlXlXgX,X.X.XOX{.U.L.%X$X.XQ..XuXjXjXgX0X>X0XOX*.L K D K m p ,.l z G ",
"H H ' ` G 6 H Q ! L.7XhXaX:X=XuXlXlXlX7XsXhXgXgX7X=XgXgXhXuX&XyXlXlXfX9X7XfXfX,XH.^ { { { Q 3.A G J ",
"I H J V 1 z n Y +.+XgXhXuX=X:XiXlXlXgX7XsXgXlXlXpX*XhXhXfX7X*XiXlXjXjXqX7XfXjXfX].t.n G `  .4.A H J ",
"W E n q j n Z A G.7XhXsX7X*X=XuXjXdXsX4XpXkXkXkXuX&XhXhXdX1X&XuXfXfXaX9X6XfXjXjX7XG.H G ` ..] T W m ",
"T <.Y <.p V 5 C U.uXuX7X:X$X&X3XtXqX9X*XeX-X8XeX-X%X7XuXrX%X$X1X3X3X2X:X:XqXwXtXuX=.G 5 6 ' ] A 1.T ",
"x T W e.j 5 V =.@X7X2X2X1X$XY.!.XX!.!.U.J.h.C.E.E.E.W.'.[.`.`.`.`.`.].].%X4X3X9X7X+X-.` ` ` ` ` v W ",
"C 4.5.t.A 5 +.5XfXsXdXdXpXoX^ M N N M $ E q.n.z.z.z.n.B.S.b.b.M.Z.n.C.Z.].tXdXdXdXhX0X&.` ` ` ` Y W ",
"m R ' ` ` ' L.aXgXlXgXlXaX}.k   . . . . t q.b.x.z.x.m.M.S.b.b.M.B.m.M.F.'.rXlXlXgXlXdX-.` ` ` H T H ",
"<.1 5 5 V ` =.uXgXgXgXgXuX!.> . . .   . t q.x.b.m.x.m.M.M.b.b.M.B.m.M.F.).rXgXgXgXlXyX=.` ` 8 n f 5 ",
"8.h = 5 & & ' >XuXuXiXaXrXQ.> . . . .   $ / i.f.f.f.j.c.v.g.v.n.B.x.m.F.).7XaXaXuXuX<X$.G G 5 f <.= ",
"t.( K j = g H L. X,X3X2X:XL.X . . . . . o 4 ^ ~ ( ^ ^ ( _ ( ) _ _ _ u.u.J.&X2X3X2XXXI.' V V z T +.P ",
"' ..' A w >.Y y.].uXiXuXwXQ.$ . . . .   X N ~ ~ B M M ~ 4 4 4 8 7 8 F F -.0XiXpXiXQ.[ F H H R m @.} ",
"n } ' Q f s # R  XgXlXlXdX.X, . . . .   9 7.d.k.l.a.a.f.a.q.f.f.f.r.i.i.~.uXlXjXjX{.` 8 G H Z b I { ",
"j ` J z Y >.# 1 Y.gXlXfXqX!., . . . .   t q.z.z.S.l.z.m.A.b.z.M.B.b.m.N./.eXfXlXhX{.` 6 * = > c k ` ",
"5.e Z x a ,.w = I.sXsXuX7XQ., . . . .   t q.m.m.S.l.m.z.A.m.m.S.S.m.M.A.).2XiXaXdXR.! m Z K L ! <.v ",
"K ) 8.T 5.t.! T G.>X:X*X&XL.+ . . . .   y s.b.M.D.l.m.l.S.b.m.V.A.M.M.F.^.$X=X=X:XK.T 1 < V 3 M U e.",
"2 M T 3.m ' *.oX7XiXuXrX4XY.$ . . . .   t q.z.m.D.l.m.l.S.m.M.S.S.m.M.S.).4XwXuXiX7X}.D & ; : : 2 Z ",
"* O k s # < %.yXlXlXhXgXtXQ., . . . .   t q.m.M.D.m.m.l.S.M.M.V.S.m.B.S.).9XjXjXhXgXuX..% % : - % % ",
"O % # >.q ; $.uXlXlXlXhXaX!.> . . . . . t q.m.m.D.b.m.l.S.z.m.A.S.m.M.D._.tXlXlXgXgXiX$.: : : O O % ",
"% O # e # & ..6XhXhXlXdX7XR., .         t q.m.m.D.z.m.l.S.M.M.V.A.m.B.F.).4XdXkXlXgXuX*.: - - - O O ",
": O 0 w O o G ;XuXrXuXpX3XU.$           t q.m.z.D.m.m.b.S.m.m.V.A.m.M.S.^.1XiXiXuX7X;X] # O O : : o ",
"% @ e e 6 1 * Q T.2X:X;X*X*.X   . .     t q.m.b.j.b.M.b.S.M.M.M.B.b.M.F.^.$X=X>X:XU.5.T l 1 7 : O 0 ",
"> w 1.i < < @ Y T.fXlXjXdX|.,   . .     t q.z./ 8 _ m.b.S.m.M.V.F.m.M.F.'.pXlXjXfXR.R s i 3 7 1 g r ",
"0 w i u H P i 5.~.gXlXlXjXXX, . . . .   t q.m.~ ~ ~ m.m.S.z.M.M.A.b.B.F.[.iXlXlXfX{.] Q b q : : w 0 ",
"q e g Y >.d 6.4.P.aXjXjXiX!., . . .     t q.m._ 4 B j.M.S.z.M.D.F.N.M.F.'.uXgXgXaX}.&.` V q 0 : e w ",
"w :.w c ,.u i T I.wXsXpX9XQ.$ . . . .   t q.m.i.g.j.g.M.S.m.m.D.F.b.B.F.(.7XaXsXyXY...` : # w 0 r ;.",
"r 3.s i a O z G.Q.,X9X4X=X=.o . . .     t q.m.g.j.f.j.M.S.M.m.D.F.b.N.F.W.&X6X6X,X|.=.V + q e e ;.3.",
"2.p u p w : } <XdXfXjXjXwXQ.,   . .     y a.b.m.i.i.b.M.S.M.M.D.M.m.m.S._.eXkXjXjXdX0X#.# w ;.:.2.k ",
"3.k - % * : #.yXlXjXlXjXpX!., . . .     t q.m.m.V.b.m.V.S.M.m.D.S.m.m.S.[.tXlXlXlXlXsX*.k e ,.3.f : ",
"U : < ; & & @.yXjXjXjXfXpX!.$ . . . . . y q.m.m.S.b.m.A.D.M.m.D.S.m.M.S.'.tXjXjXlXkXiX%.= r i K x : ",
"V = ; < ; & } ;XqXiXyX9X3XQ., . .     . y q.m.m.D.z.m.M.D.m.M.M.S.m.M.S.).1XqXiXpXwX>X .q r > 1 x : ",
"g p * 5 < < V =.|.3X4X1X&XL.$ .   .     y q.b.b.D.z.m.M.S.z.M.S.S.m.M.S./.$X1X9X5X}.L.V w r q : p q ",
"Q W c g 1 & * z I.yXiXuX3XU.$ .         y q.m.b.D.z.m.m.S.m.m.S.S.m.m.V.).1XtXpXyX-.6 g r :.e Z ! Y ",
"O.} Q v h 0 q Y }.hXlXlXaX}., .         y a.m.m.D.z.m.z.S.z.M.M.V.x.m.V.'.tXlXlXgX{.G C ! ! Q O...O.",
"{ J ' U m w r 4.$XgXlXlXdX.X, .         y q.c.n.V.v.j.g.j.f.f.f.f.i.i.i.~.tXlXlXhX|.I G | | | } J { ",
"H S H H D b e Q R.uXsXfXuX!.>   . . .   + ~ _ ( _ _ ( ( ( ~ { ~ ~ ~ ~ M -.0XfXdXsX].E 2 5 C H G 7 S ",
": * < V V n j ' Y.;X2X2X:XL.+   . . . . o , 4 4 4 4 4 ~ ~ B ^ / _ _ / u.J.&X1X2X:X`.G.C V m g 1 , - ",
"f $ & V H g Q Y.5X7XqXqX9XY.@   . . .   X d r.r.f.q.f.a.g.d.g.v.v.g.x.n./.>X9XwX7X7XXX@.` ( L f d @ ",
"e.0.g 6 6 j 5.5XfXfXhXfXdX.X>   . . .   t q.l.x.M.x.m.M.M.z.m.B.M.m.m.S.[.tXkXkXgXhX7X=.....} ! 0.f ",
"Q 9.u : = r y.7XlXlXlXlXjXOX, .   . .   t q.m.m.V.b.m.M.S.m.m.V.M.b.M.S.[.pXlXlXlXgXqX-.%.=.%.@.<.1.",
"Z 2.u : q ,.y.:XuXuXfXlXdX+XO., > X , M / q.m.m.D.z.m.V.D.N.M.V.B.x.n.n.].iXlXfXiXuX<X*.'  .@...a 1.",
"> 9.s M K Q O.Q.oX@X<X5X,X@XoXoX+X.XoX+XU.s.c.c.n.g.j.j.j.h.h.K.K.~.~.$X$X3XwX5X#XoX!.@.J ' | H a 9.",
"k 4.^ | ..$.@...' H G D Q ( | ~ { [ ~ I D M N D B N b k 3 D S S H K U @.....$.X... . .{ J V ` V a ! ",
"i P | o.%.&.o.[ [ ' L 4.w.D G 2 < 2 3 3 1 < < < < < e w & 5 S < > c f K } | | ` G H J I } ' 3 1 Y ' ",
"T } } X.o.| 7 ` ......Q L 7 7 3 < < 2 6 3 k V 5 < % ,.q < 5 3 3 c W O.&.&.$.| ` 7 6 S S H H D Y Q { "
};
