/* XPM */
static char *out[] = {
/* columns rows colors chars-per-pixel */
"64 64 228 2 ",
"   c #110100",
".  c #190501",
"X  c #1E0804",
"o  c #210E07",
"O  c #220E08",
"+  c #291209",
"@  c #381707",
"#  c #361708",
"$  c #2E1814",
"%  c #301A16",
"&  c #331D19",
"*  c #3A231E",
"=  c #3D2620",
"-  c #4B2814",
";  c #58331B",
":  c #703C19",
">  c #443624",
",  c #4F3329",
"<  c #5C571D",
"1  c #49720E",
"2  c #587C0B",
"3  c #746A16",
"4  c #5A4C25",
"5  c #5C453C",
"6  c #66462B",
"7  c #6C4A2E",
"8  c #684D2D",
"9  c #734C2E",
"0  c #784A28",
"q  c #7E502E",
"w  c #744D30",
"e  c #604740",
"r  c #644B44",
"t  c #675048",
"y  c #6B534C",
"u  c #71564F",
"i  c #765D54",
"p  c #7C645C",
"a  c #777651",
"s  c #7C7C55",
"d  c #854416",
"f  c #A5591F",
"g  c #B55F1F",
"h  c #946D15",
"j  c #9A6E14",
"k  c #887015",
"l  c #9C7013",
"z  c #9B7514",
"x  c #B6611E",
"c  c #B8631D",
"v  c #B5691A",
"b  c #B46F1C",
"n  c #BB681B",
"m  c #A87B17",
"M  c #854B21",
"N  c #895329",
"B  c #95592B",
"V  c #9A5B28",
"C  c #A35C24",
"Z  c #A65F27",
"A  c #8E622F",
"S  c #AB6125",
"D  c #A96127",
"F  c #B46425",
"G  c #BA6724",
"H  c #BE6824",
"J  c #B5722F",
"K  c #C76D1E",
"L  c #CC6D1F",
"P  c #D06E1F",
"I  c #CC721E",
"U  c #C5781D",
"Y  c #D2721E",
"T  c #C56B22",
"R  c #CC6E21",
"E  c #D16F21",
"W  c #C87924",
"Q  c #D47221",
"!  c #DC7520",
"~  c #D2772C",
"^  c #D17732",
"/  c #E07721",
"(  c #83705A",
")  c #B17A58",
"_  c #806860",
"`  c #8A7267",
"'  c #91776D",
"]  c #957B72",
"[  c #2D8E00",
"{  c #398E01",
"}  c #2E9000",
"|  c #359500",
" . c #3B9600",
".. c #379800",
"X. c #3C9A00",
"o. c #438B03",
"O. c #4A8D03",
"+. c #598708",
"@. c #429501",
"#. c #4C9403",
"$. c #439D00",
"%. c #4A9D02",
"&. c #499B0A",
"*. c #539403",
"=. c #539B03",
"-. c #5A9B06",
";. c #4B9A16",
":. c #569E18",
">. c #559C1B",
",. c #668609",
"<. c #6C8409",
"1. c #738A0A",
"2. c #78890B",
"3. c #669907",
"4. c #719212",
"5. c #45A100",
"6. c #4BA401",
"7. c #4CA901",
"8. c #4DA20A",
"9. c #52A501",
"0. c #58A606",
"q. c #53AA01",
"w. c #5AAD01",
"e. c #53A30A",
"r. c #5BB101",
"t. c #4EA011",
"y. c #54A214",
"u. c #5CA314",
"i. c #5BA914",
"p. c #54A21B",
"a. c #5BA31C",
"s. c #5CAA1A",
"d. c #62AA19",
"f. c #6BB01B",
"g. c #4E9C23",
"h. c #549E23",
"j. c #75992F",
"k. c #5DA424",
"l. c #66A827",
"z. c #6CAD2A",
"x. c #6CA934",
"c. c #75AD39",
"v. c #76AC38",
"b. c #79B339",
"n. c #7D9850",
"m. c #78AC44",
"M. c #7DB145",
"N. c #838D0F",
"B. c #978616",
"V. c #A38418",
"C. c #B38018",
"Z. c #978F33",
"A. c #9C9837",
"S. c #C88238",
"D. c #8D9549",
"F. c #838051",
"G. c #808059",
"H. c #829D52",
"J. c #BC954C",
"K. c #87A355",
"L. c #87AD58",
"P. c #8DB651",
"I. c #8BB354",
"U. c #8BB357",
"Y. c #929269",
"T. c #9C847A",
"R. c #9D847B",
"E. c #AD8D7E",
"W. c #8FB562",
"Q. c #92B565",
"!. c #94BA63",
"~. c #99B869",
"^. c #9EBA75",
"/. c #A9B074",
"(. c #A5B977",
"). c #CF8650",
"_. c #CB9A77",
"`. c #D6A07C",
"'. c #A5C277",
"]. c #A38B81",
"[. c #AB8E82",
"{. c #AA9689",
"}. c #AC948A",
"|. c #B2968C",
" X c #B49C92",
".X c #AEBB84",
"XX c #B1BB88",
"oX c #BEA399",
"OX c #BABD92",
"+X c #C5A89C",
"@X c #C3BA9B",
"#X c #D0BD96",
"$X c #C5ACA1",
"%X c #CCB8A6",
"&X c #CBB5AA",
"*X c #D4B7AA",
"=X c #D3BAAE",
"-X c #CFBCB1",
";X c #D3BDB2",
":X c #D8BFB3",
">X c #B5C38C",
",X c #BBC594",
"<X c #BBC797",
"1X c #C1C99B",
"2X c #CAC8A6",
"3X c #D1C4AD",
"4X c #D1C9AC",
"5X c #CED0AE",
"6X c #D3C2B4",
"7X c #DAC2B6",
"8X c #D5CEB5",
"9X c #D6C5B9",
"0X c #DCC5BA",
"qX c #DDCABC",
"wX c #D3D1B3",
"eX c #D7D2B8",
"rX c #DBD3BC",
"tX c #E2C3AF",
"yX c #E1C9BB",
"uX c #DFD6C1",
"iX c #E2CEC2",
"pX c #E3D2C5",
"aX c #E7D5CA",
"sX c #E8D7CC",
"dX c #E5D9C9",
"fX c #E9D9CE",
"gX c #EBDDD2",
"hX c #EEE0D6",
/* pixels */
"w.q.7.6.6.7.w.w.9.$.@.$.$.5.5.$.X.X...5.5.5.7.7.5.X...X.5.$.{ { { | X.$.X.5.7.q.$. .9.q.6.%.5.$... . ...X.$. .X.7.7.5.X.....X.5.",
"q.7.6.6.6.9.w.q.6.$.$.@.X.$.5.X.X...X.X.5.5.7.7.5.5...5.5.$. . . .X.$.$.X.5.7.7.$.X.6.9.6.$.$.$..... .X.X.$. .$.6.7.$. .....X.5.",
"5.5.$.5.6.6.$.$.@. .@. .X.X.......X...X.5.5.7.7.5...5.5.6.5.5.$.$.$.6.6.5.X.X.X.X.X.5.5.%.$.$...X... .$.%.6.X.$.7.7.X. .....$.5.",
"5.$.$.5.7.7.$. . .X.$.$. .X.......X.X.5.5.5.7.7.5.5.5.5.$.5.6.5.%.%.9.7.5.$.....$.5.5.5.5.$. .....X.@.$.6.7.X.$.6.6.$.X...X.X.$.",
"$.5.6.9.7.7.6.$.5.5.$.5.$.$.@.@...X.5.5.7.7.7.6.7.5.5.....X.5.7.$.%.7.7.7.7.....X.5.5.5.5.X...| ..X.@.$.$.$.X...X.5.6.6.$. .X. .",
"5.5.q.q.7.5.$.$.5.5.$.$.$.$.%.&.t.t.p.s.d.i.6.$.7.7.5.......5.5.%.%.e.i.i.s.p.t.8.6.5.5.5.X...| ..$.$.$.$.$.X.X.$.$.7.6.$.X... .",
"7.6.q.7.$.X. .X.X....... .@.&.:.l.c.m.I.P.z.=.$.7.7.5.......5.5.%.8.k.z.M.M.m.x.p.8.7.7.5.X.....X.$.5.%.6.6.5.5.5.7.$.$.$.X.X...",
"7.7.9.7.X. . . .X.X.X.;.h.h.l.v.I.~.'.'.^.I.x.l.s.l.s.s.p.p.k.l.k.l.m.U.^.'..XW.m.x.z.s.p.7.X.X.X.X.5.5.9.q.q.q.q.7.$.$.X.$.X...",
"$.6.9.7.$. . .@.$.t.i.b.!.(.^./.OX2X8XwX2X>X~.Q.!.!.I.P.L.L.!.!.I.U./.OX2X8X8X2X.X/.(.!.z.i.7.7.6.$.5.5.9.w.r.w.q.7.$.$.X.X.....",
"$.$.9.9.$.@.@.@.8.s.b.'.,X1X@X%X7XiXgXgXdXeX1X,X1X1X>X>X(.XX,X,X.X.X@X6XaXgXfXrX%X@X2X,X!.b.d.e.6.5.5.6.q.w.w.w.q.7.#.$.$..... .",
"$.5.0.q.$.X.@.#.y.b.'.2XeXeX2X%X0XpXgXhXgXdXeXeXrXrXrXwX3X3XrXrX4X%X%X7XsXhXgXaX=X=XeXeX<X'.b.i.8.5.6.6.6.6.q.q.q.q.9.6.5.$...| ",
"$.%.q.q.$.$.$.e.d.P.1XrXpXyX%X%X0XpXgXgXfXfXdXsXhXhXfXpX0XyXfXsXyX7X=X7XsXgXfXiX:X;XaXdXrX<XI.f.8.$.%.6.=.=.=.=.9.9.6.6.6.$.....",
"X.$.6.7.6.9.9.u.P.~.2XpXyX7X#X$X:XyXsXsXaXiXpXsXgXgXfXpX9X0XdXsX0X*X*X=XiXiXiXyX*X=XiXsXpX2X!.b.:.%.=.-.3.3.-.,.#.@.$.$.$.$.X. .",
"$.5.%.%.9.q.0.z.P.(.4XyXyX*X+X+X$X&X:X:X;X-X=X;X0XqX9X=X$X&X6X9X%X+XoX+X&X&X*X$X+X$XtXtXtX#X~.A.4.,.1.2.2.N.2.2 +.o.@.@.@.$.$.$.",
"5.6.5.5.6.e.i.v.~.#X;X0X7X*X+X|.[.[.|.|.}.[.}.|. X X X}.R.].{.oX}.E.] R.].[.[.E._._.|.`.`._.J.S.V.V.V.m m m l k 2 { @.@.%.$.$. .",
"6.5.5.5.X.8.l.P.OX%XyXiXyX=X X] ` i i _ i i i p _ _ p p i p p p p i u u i i i _ ) ) ).).).).S.C.W U U I K U v j 2 O.@.$.6.6.$.@.",
"$.$.5.X...;.m.~.2XpXdXfXfX6X}.p , > = = = * = = = = = = * * = = = * * & * = = ; B J ^ ^ ^ ~ E ~ W Q Y Y P K n h <.*.%.6.5.6.$.$.",
"$.5.5.$...;.m.'.8XgXgXhXgX6X].u = O X X   X .       . . . . . . . . . . . . . @ d g R E Q E R R Q Q E W K G S h <.*.%.6.6.5.%.6.",
"5.5.$.X...;.m.'.4XsXfXfXfX-X].y & .     .                         .   .       @ d g T E E R T T H H G F S j V 3 +.O.@.X.$.5.$.5.",
"7.6.6.$.X.8.x.!.<XeXpXpXpX&X] t &                                             $ : V F F F Z Z C V B B B B N 0 < 2 o.$.X.X.$.5.5.",
"7.q.q.6.6.8.s.c.(.$X6X9X:XoX' r %                                             + ; M N N q w w 7 7 7 7 7 8 6 6 4 1 o.%.5.5.$.5.7.",
"7.9.9.7.6.6.8.l.Q.OX3XiXiX$X] e %                                             + ; 0 w w w w 7 w 7 w 7 9 w 7 7 4 1 o.%.7.5.5.5.5.",
"$.6.5.$.$.$.$.l.Q.1XiXfXaX-X].t &                                             + - 0 N N B Z Z Z D D D S D Z C k 2 o.X.5.5.5.X.$.",
"X.$.$.$.$.$.X.k.~.1XuXgXgX-X].u & .                                           + ; M B D F G T T R R T R E T n h 2 O.X.X.7.7.5.X.",
"X.$.5.5.$. .X.h.Q.<XuXsXaX&XT.t & .                                           + d f c T E R R E Q Y Y ! Y L n j 1.*.%.5.7.7.5.5.",
"X.X.5.$.X.X.$.l.Q.,X9XiXiX&X] r %                                             @ d g E Q Q ! Q Q ! ! ! Y Y P n j 2 *.=.9.q.7.5.5.",
"X...$.$.$.&.8.l.~.OX3X:X:X X' , $ .                                           @ d c Q Y ! ! ! ! ! ! Y ! ! Y n j <.*.9.q.q.7.5.$.",
"X.$.$.%.5.8.s.M.(.2X6X9X:XoX' e $                                             @ d g P ! ! ! ! ! ! ! ! ! Y Y n j 3 =.q.q.9.6.5.5.",
"$.$.%.%.7.i.x.Q.2XpXdXfXaX&X] r %                                             @ d g P ! ! ! ! ! ! ! ! ! / Y K j 1.*.%.6.6.6.9.9.",
"6.6.$.6.6.s.M.^.wXfXhXhXgX-X].t % .                                           @ d g P Y / ! ! Y ! ! ! ! Y Y n j 1.*.%.%.5.6.9.q.",
"q.7.5.5.6.s.m.^.5XgXhXhXgX-X] t & .                                           @ d g L ! / / ! ! ! ! ! ! / Y K j <.*.@.$.X.5.6.7.",
"q.7.6.5.$.y.x.Q.1XpXfXfXpX&X] t %                                             @ d g P Y / / ! ! ! ! ! ! Y L n j <.O.@.X.$.$.6.$.",
"q.7.5.$.@.;.h.m.(.2X9X9X9XoX' e $                                             + d c P Y / / Y / / ! ! ! / P n j 2 O.{  .7.6.%.$.",
"7.7.5.$. .{ ;.x.Q.OX6XiX9X$X] r $                                             @ d c P ! Y / / / / / ! ! / Y n j 2 O.{ $.6.6.$. .",
"7.6.$... . . .h.W.OXuXaXsX-X].y &                                             # d g P / / Y / Y ! / ! Y Y Y n j 2.*.#.$.$.X.X.X.",
"7.5.X... . .| ;.n.XXuXgXgX:X].u &                                             @ d g P ! / / / / / / / / Y L n j 2.+.%.#. .....X.",
"q.6.$... . .X.>.L.>XwXhXgX;X].y &                                             # d g P ! / / ! ! ! ! ! ! Y P n j 1.*.O. .X.X.$.$.",
"6.5.$.X.$.$.$.k.L.>XwXuXpX-X].r &                                             # d g L Y ! / ! ! ! ! ! ! ! P K j 1.*.{  . .$.$.$.",
"X.....X.5.6.7.l.U.(.2X9X:XoX` 5 % .                                           @ d g R ! / / ! / / / ! ! Y Y K j <.O.o. . . .$.$.",
"| ....X.%.e.i.b.^.OX6XiX:XoX` 5 %                                             @ d g T Q ! / ! / / / ! ! / Y c j <.*.{  . .$.$.%.",
".. .$.$.$.y.x.W.,XeXpXdXsX-XT.r %                                             # d g K Y ! / / / / / Y / Y P n j 1.*.o...$.%.6.9.",
"X.X.$.%.#.y.m.^.5XdXhXhXgX-X].t &                                             # d x K Y / / / / / / / / / P n j 2.-.@.@.$.6.9.q.",
"%.=.6.9.q.i.M.^.5XdXgXgXdX-XR.t &                                             # d g L ! ! / ! / / / / Y / Y n m 2.3.=.6.6.9.6.9.",
"9.9.q.q.q.d.v.!.<X8XpXpXiX&XT.r &                                             # d g R ! / / ! ! / / / Y Y Y n l 2.-.%.6.6.7.6.7.",
"w.0.9.9.q.e.l.M.^.OX-X9X=XoX' e $                                             # d g R ! ! / ! ! / / Y / ! Y n l 1.*.$.$.6.6.7.9.",
"w.w.q.7.7.5.&.l.L..X2X:X:XoX' e $                                             # d g T ! ! / ! ! / / / / ! Y n l <.O.$.$.6.6.9.6.",
"9.9.7.8.$... .k.W.<X8XpXiX&XT.t &                                             # d g R E Q ! ! ! / Y Y / Y Y n j <.*.$.$.$.6.7.6.",
"$.%.7.5.X.} | g.~.1XuXfXdX;X].y *                                             O : C g H T T T T E Q E P Q T x h <.*.$.$.6.6.6.5.",
"$.5.5.5.....[ g.Q.2XrXfXfX-X].y &                                             + ; 0 N B Z Z D D F F F H H G D k 2 #.%.6.6.5.$.X.",
"$.$.5.$.X. .| h.W.,X9XpXpX&XR.y &                                             O ; 6 w N N A N N B B B B V B N 3 +.#.%.7.6.5.$.$.",
"5.$.5.5.$.$.X.k.L..X3X9X9X$X] r &                                             + ; 0 0 M w w w w w w 7 7 7 6 6 < 2 *.e.9.7.5.5.5.",
"$.5.5.5.5.&.p.x.Q.OX3XiXqX$X] r &                                             $ : M M B N N q q q q w w 9 6 6 < 2 *.9.9.5.5.5.5.",
" .$.6.6.$.e.z.I.XXwXpXaXsX-X].y &                                             # : C g T T H F F F Z D D D V N 3 ,.-.=.7.7.5.$.$.",
" .$.6.6.$.;.x.~.2XdXgXgXgX9X].i = o   . . . . . .     o   o   o     o   . .   # d g R E Q Q E E E E R R T v Z h ,.-.9.6.5.7.$.5.",
"5.5.$.$...;.c.~.2XdXfXgXdXiX{.p = O O O o o + O O O O O o O O O o o o o O O X - M F R Q ! ! Q Q ! Y Q Q E K v h 2 -.9.9.6.$.5.6.",
"5.5.$.$.X.&.z.I.>X5X5X5XuX3X{.s 5 > > = 4 = > > > > > > > > > > > > > > = > = 4 A J J W C.W b W I I Y Y Q I v h 2 -.q.9.6.$.5.5.",
"q.7.5.5.$.8.:.x.M.^.(..X>XXX/.Y.G.s s s s s ( G.G.G.G.s n.( G.s n.a s s a a a ( F.D.A.Z.V.V.z B.V.C.C.U I I v z 2.-.=.9.6.$.$.$.",
"q.q.5.5.6.6.%.y.x.m.I.I.U.L.H.n.H.H.n.K.H.H.K.K.K.K.K.K.H.K.K.K.n.n.n.n.n.n.n.H.m.Z.Z.j.j.4.1.4.N.B.V.V.V.m z B.<.*.9.9.6.$.@.@.",
"6.%.5.$.%.$.$.&.t.i.f.f.l.>.h.g.>.>.p.p.>.>.>.>.k.a.a.a.l.:.a.a.k.g.;.g.;.;.:.y.a.u.u.-.O.&.#.=.0.3.3.3.3.,.2.3.-.=.9.9.7.$.$.@.",
"%.%.$.$.$.#.$.5.$.5.r.r.6.$. . .X.$.5.5.$.$.$.X.$.5.5.5.5.%.5.5.5.X. . . .X.$.X.5.6.5.$. . .X.5.6.7.6.6.@.@.=.0.9.9.6.7.6.5.$. .",
"5.$.X.5.7.6.X.X.$.7.q.q.7.$.$.$...5.7.5.5.5.....X.5.X.X.$.$.7.6.$.$.@.$.$.5.5.6.6.5.5.5. .X.X.X.....$.$.$.$.6.9.6.5.5.7.9.5. .| ",
"$.$.X.$.5.7.5...X.$.9.7.6.$.$.$.X.5.5.7.7.7.X...X.5.5.5.$.%.6.6.$.$.6.6.6.6.6.6.7.5.5.$.$.X..... ...X.X. .X.$.$.$.X.$.5.7.6.$. .",
"....$.5.5.X.X. .| | $.$.$.$.$.X.....X.7.7.7.5...5.5.7.7.q.6.$. .$.5.7.9.6.6.5.5.5.7.$. . .{  . .X. .| } [ | ..X...X.X.$.$.6.6.7.",
"| ..$.$.X.X.X. .[ }  .@. .$.5.X.......5.5.7.5.5.X.5.q.r.w.6. .| X.5.q.9.6.5.5.5.7.7.$. .| } |  .X.X.[ [ [ [ ....X.X.X.$.$.$.7.7."
};
