/* XPM */
static char *out[] = {
/* columns rows colors chars-per-pixel */
"50 50 254 2 ",
"   c None",
".  c #0C0706",
"X  c #160A07",
"o  c #1A1514",
"O  c #280B04",
"+  c #3C0C08",
"@  c #2C110B",
"#  c #251614",
"$  c #351814",
"%  c #371309",
"&  c #162C1A",
"*  c #19351B",
"=  c #28201E",
"-  c #29311D",
";  c #193827",
":  c #1C3C33",
">  c #173B36",
",  c #132E24",
"<  c #2D2523",
"1  c #242421",
"2  c #382A27",
"3  c #263C28",
"4  c #343A32",
"5  c #420A03",
"6  c #481405",
"7  c #571705",
"8  c #500909",
"9  c #6C1A04",
"0  c #7A1A02",
"q  c #6F0807",
"w  c #483A37",
"e  c #6C2E1D",
"r  c #264618",
"t  c #36591B",
"y  c #30501B",
"u  c #396413",
"i  c #1C442B",
"p  c #1C423C",
"a  c #194537",
"s  c #0F4031",
"d  c #294626",
"f  c #324424",
"g  c #344A29",
"h  c #3A5522",
"j  c #385628",
"k  c #2C4434",
"l  c #24443C",
"z  c #284638",
"x  c #344334",
"c  c #3B4D33",
"v  c #374B38",
"b  c #245236",
"n  c #3B533A",
"m  c #395638",
"M  c #2A5229",
"N  c #3B6326",
"B  c #3A6637",
"V  c #356935",
"C  c #1E4015",
"Z  c #435C1E",
"A  c #49691B",
"S  c #4F7219",
"D  c #5B7B1D",
"F  c #516B1F",
"G  c #435C2C",
"H  c #435828",
"J  c #46463A",
"K  c #48583A",
"L  c #404C2F",
"P  c #466826",
"I  c #546D28",
"U  c #4D7725",
"Y  c #587626",
"T  c #496537",
"R  c #56693A",
"E  c #4B7436",
"W  c #597936",
"Q  c #627E39",
"!  c #1A4A43",
"~  c #1B5447",
"^  c #254B44",
"/  c #2B4C44",
"(  c #2A4945",
")  c #354E44",
"_  c #2A5349",
"`  c #345345",
"'  c #3B5344",
"]  c #34534A",
"[  c #3A554C",
"{  c #3C5B4E",
"}  c #365A48",
"|  c #3A5C50",
" . c #3A6455",
".. c #3D6B4A",
"X. c #4A4C44",
"o. c #445544",
"O. c #435B4D",
"+. c #475A47",
"@. c #555A48",
"#. c #445D52",
"$. c #4B5E52",
"%. c #59514D",
"&. c #675B56",
"*. c #6F504A",
"=. c #476547",
"-. c #576748",
";. c #58764A",
":. c #446254",
">. c #4C6354",
",. c #4A6657",
"<. c #536554",
"1. c #556A55",
"2. c #546B5B",
"3. c #5B6D5B",
"4. c #596656",
"5. c #5C725D",
"6. c #587658",
"7. c #487553",
"8. c #647849",
"9. c #64695A",
"0. c #63735C",
"q. c #6B745C",
"w. c #687A57",
"e. c #736F59",
"r. c #5C7363",
"t. c #587767",
"y. c #4D7061",
"u. c #6C6B63",
"i. c #647562",
"p. c #6B7562",
"a. c #657A64",
"s. c #6B7B65",
"d. c #647C6A",
"f. c #6C7D6A",
"g. c #607768",
"h. c #727C65",
"j. c #767A67",
"k. c #657E70",
"l. c #766F68",
"z. c #911102",
"x. c #A80602",
"c. c #B70501",
"v. c #A61501",
"b. c #B21600",
"n. c #992303",
"m. c #862D0D",
"M. c #AC2703",
"N. c #8A3924",
"B. c #C70400",
"V. c #DA0300",
"C. c #D41500",
"Z. c #EB0100",
"A. c #E30500",
"S. c #F40200",
"D. c #FE0000",
"F. c #F50B00",
"G. c #FA0B00",
"H. c #ED1701",
"J. c #C92B02",
"K. c #D42F06",
"L. c #F42501",
"P. c #E73503",
"I. c #F43704",
"U. c #EA2602",
"Y. c #9A5400",
"T. c #904000",
"R. c #995C1A",
"E. c #EA4415",
"W. c #887C6C",
"Q. c #8B635B",
"!. c #5B841C",
"~. c #659117",
"^. c #5B8323",
"/. c #598534",
"(. c #668827",
"). c #6B932F",
"_. c #70A31C",
"`. c #55884E",
"'. c #6B8549",
"]. c #728B44",
"[. c #6E8254",
"{. c #758759",
"}. c #72944D",
"|. c #59896A",
" X c #4A8673",
".X c #6C826B",
"XX c #75826C",
"oX c #7B856D",
"OX c #7D8A6D",
"+X c #768466",
"@X c #6C8372",
"#X c #658273",
"$X c #738573",
"%X c #7A8673",
"&X c #768975",
"*X c #7B8974",
"=X c #7C8D79",
"-X c #75897A",
";X c #699A7B",
":X c #7B9677",
">X c #7F956D",
",X c #AD9100",
"<X c #85AE29",
"1X c #CC9500",
"2X c #D1A500",
"3X c #EAC800",
"4X c #85886E",
"5X c #869469",
"6X c #848C74",
"7X c #8B8C74",
"8X c #848E7A",
"9X c #878876",
"0X c #978E78",
"qX c #85927C",
"wX c #8C937C",
"eX c #8A9375",
"rX c #93947C",
"tX c #98967B",
"yX c #94856D",
"uX c #A5957C",
"iX c #AC877C",
"pX c #97A073",
"aX c #75A48A",
"sX c #7E9080",
"dX c #8C9984",
"fX c #899683",
"gX c #939B84",
"hX c #9B9C84",
"jX c #959E8A",
"kX c #979883",
"lX c #8F8E83",
"zX c #A49A84",
"xX c #B48F87",
"cX c #9BA28B",
"vX c #98A38A",
"bX c #9BA591",
"nX c #82A996",
"mX c #A3A48B",
"MX c #AAA58A",
"NX c #B1A88E",
"BX c #A5AB93",
"VX c #A6AB94",
"CX c #B8AA97",
"ZX c #ADB29B",
"AX c #A7B195",
"SX c #B4B49C",
"DX c #B8BAA2",
"FX c #D2A296",
"GX c #CDB5A5",
"HX c #EEBBB0",
"JX c #D69C90",
"KX c #B9C1A4",
"LX c #C5C4AA",
"PX c #F1C2B6",
/* pixels */
"  t K K K c g 4 b d C f k 3 d d 3 r C r g ~.~.K 4 <X~.u * r r c L c k - c n v d y y C r r * * * u   ",
"  rXMXuXzXzXSXh.m B 4XMXtXW.9XW.W.J T gXvXW R o X ].T dX-.t 4XtXeXeX-.p.jXOXj.%XK d =.{.&Xg.5.:.3   ",
"  mXNXMXMXMXMXh.L W tXuXuXtX0X7X6XJ c jXtX[.9.O O i.%XqXs.g wXeX4X{.wXXX6XoXXXf.+.=.7.T .X6.,.{ :   ",
"  tXNXSXSXZXVX%Xj Y 0XGXzXtXrX7X7XJ c hXtX4Xw 6 6 9.1.%X3.d 0.s.OXeX4XXXp.h.XXd.` { [.=XOX,.#.` ;   ",
"  h.9XDXZXZXVXfXh D -.e.9.9.@.X.v 4 c eXwXeX%.6 9 4..Xi.k d x 8X6XOXoXj.>.i.g.3.v B [.d.r.2.) p b   ",
"  OXbXZXZXZXAXdXH (.R K K o.K O.G T 1.4XeXOX9.$ e &.%X-Xa.d 0.*XXXXXf.i.9.s.f.3.g P .X:.` / / M `.  ",
"  q.DXZXAXBXbX-Xj eXLXSXSXGXDXGXeXG -.OX4XoXj.< m.$ l.$Xt.3 0.f.f.s.a.5.XXi.3.3.z P ).8.-.=.7.`.}.  ",
"  4.j.$X%X3.<.v j eXLXKXSXZXZXDXoXj T eX7XNXGX&.7 n.2 j.d.z [ a.i.r.6.XX0.3.<.,.( t {.{.[.;.W !.).  ",
"  A f f f f f u Y eXSXDXDXu.lXZX%XH w.iX%.FXHXiX$ P.N.X.sX^ : ( ` z k ' o.) z l p m mXhXrX7X0.5.W   ",
"  Y uXzXuXNXNXuXI eXSXDXDXN.< VX8XW.PXJXo w JXiX@ P.E.e w u.X.; ; & & & & & ; : i T mXmXcXdXfX-X[   ",
"  4XLXuXuX0X0XyXc 4XZXAXVXiX< bXGXPXHXJX$ X *.*.+ I.I.K.% o o l.R P S F P G H Z F Y cXcXjXfX=Xr.'   ",
"  e.NXuXuXhXyXl.f q.bXdXsX9Xu.CXHXl.%.Q.@ 0 O # e I.I.I.m.X . &.tX@.Z MXFXtXuXl.L I gXjXdXqX%X-X`   ",
"  e.uX0X0XrX9X-.3 H 3 x o.l.Q.HXHX*.o . 5 J.7 . M.I.L.L.K.@ @ < 7X4.f 0XiXW.W.l.c G rXfXfXfXsX-X|   ",
"  9.hX0XrX9Xj.q.f I R 8.R w < GXHX*.7 5 0 P.0 X J.L.G.G.P.6 9 $ l.f.f 0XyXyX4Xj.c H n z x ) ( l z   ",
"  o.9X0X7XwXs.@.g yXLXSXrX4 X xXxX< M.K.K.P.9 5 U.D.D.D.F.z.0 9 w XX3 0X0X5X9Xj.K A Y T G G G j P   ",
"  r 4 x x 4 x 3 t 4XMXtXmX2 . l.w 9 P.I.I.P.7 9 G.D.D.D.F.b.n.M.$ X.3 rXtXtX9X8Xc R SXMXwX6Xs.p.z   ",
"  S I R -.-.R F D 3.OXCXmX# O o 6 K.I.I.L.F.v.C.D.D.D.D.D.L.U.P.6 $.4 lX8XwX8X8Xv P wX4Xj.9.0.3.]   ",
"  ].NXMXMXzXkX@.I @.h.VXcXo 7 . 0 L.G.G.D.D.G.D.D.D.D.D.D.D.D.H.9 %.d ' o.o.o.K x -.7Xl.p.<.4.+.(   ",
"  7XCXtXtXtX8X+.T mXjXjXjX# n.O M.F.D.D.D.D.D.D.D.D.D.D.D.D.D.F.n.w A F H H H j R T j.q.3.i.2.{ :   ",
"  +XmXhXgXwX*X+.-.hXjXf.zXX M.n.C.D.D.D.D.D.D.D.D.D.D.D.D.D.D.F.n.2 K I MXmXtXwX-.N s.9.r.<.O.) !   ",
"  q.cXtXdXfX$X+.=.d.O.k W.X C.L.L.D.D.D.D.D.D.D.D.D.D.D.D.D.D.F.n.< O.T hXkXkX8Xo.h } k z : > > !   ",
"  @.6XdXqX=X@XO.;.=.d M %.O H.G.D.D.D.D.D.D.D.D.D.D.D.D.D.D.D.F.0 < x o.lXdXdX&Xn ~.u t * * * r y   ",
"  m o.1.1.<.2.K (.).).].e.5 F.D.D.D.D.D.D.D.D.D.D.D.D.D.D.D.D.F.z.1 +.n qXqX8Xf.n P '.P T R 8.8.W   ",
"  S A S S Y 6.).).<X_.[.W.% H.D.D.D.D.D.D.D.D.D.D.D.D.D.D.D.D.S.z.# X.c =X8X-X;.U '.'.>X0.gXgX8X%X  ",
"  8.vX[.).]./.]._.<X}.BXtX% H.D.D.D.D.D.D.D.D.D.D.D.D.D.D.D.D.S.z.= 4 g n o.T (.(.].vXwXh.XX8XqX$X  ",
"  6XjXjXw.[.KXAX-.{.AXMXtX# J.D.D.D.D.D.D.D.D.D.D.D.G.D.D.D.D.S.q 4 g Y Y F Y D !.W qXqX=XqX&X@Xf.  ",
"  0.%X[.m vXbX+X+.bXAXcX6X< n.S.D.D.V.b.b.B.Z.D.D.Z.A.A.D.D.D.Z.8 u.CXDXSXVXMXcXgXK 1.{ sX=X$X@X2.  ",
"  <.vXqXa.z n eXhX5.6X;.w.4.6 H.S.B.Y.2X2XY.x.S.A.7 Y.m.B.D.D.B.$ 9XbXbXjXjX8X-X$X+.t.,.@X-X@X#X:.  ",
"  z ] v z d qXwX7Xs.AXAXmXwX= x.Z.v.1X3X,X,Xz.S.V.,X,X1Xb.S.Z.q X.cXcXjXdXqX=X$Xf.c /.>Xa.2.:.m m   ",
"  j t K T ^.4X9XOXOXZXBXbXvXu.@ B.V.M.Y.Y.v.A.D.Z.n.T.n.A.S.c.$ 9XjXjXfXsX=X$Xr.{ g !.(././.W E /.  ",
"  8.5Xj.eX8.+X+X+X=.XXvXvXdXlXX.5 B.A.V.c.V.S.S.S.Z.A.Z.S.c.+ @.n ' >.5.2.6.} =.m U 5XpXgXeX8XdX6.  ",
"  j.rX7XrX<.-.h..XeX.X=XdXqX$Xg.X.5 x.V.x.q z.c.B.V.S.A.x.6 %.h Z t h H U ).^.U D '.rXdX6X%XXX$XO.  ",
"  q.q.q.OX+.G =.%XXXs.0.@X$X.Xr.$.X.2 q x.z.5 X O + z.q 2 &.1.h '.{.{.w.8.}./.-.P 8.fX8X%X%X.X@X,.  ",
"  wXeX9XOXo.H m f.s.i.>.v y.v : ; i y 8.w < < = # 1 4 4.p.0.1.P 6X6XXX+Xa.o.j.r.k K 8X:X-X@X@X#X:.  ",
"  *X9X*X%X3.G j y.d.2.) ; ; & r h I I Y (.5XuX8.j.h.u.9.<.3.>.3 s.f.s.i.r.3 2.,.z ) -X-X$X@X@X#X:.  ",
"  XX*X%X$X+.P U : > ; & r y 6.cXmXmXgXbXK -.wXeX-.u.3.<.$.' ) ; 1.i.5.<.' 2.n { l 3 ,.2.t.r. .] _   ",
"  a.$X&Xf.E !.!.t 3 M P D !.DXkXqX8X*Xf.x R %X9.q.4.4.$.$.$.3 ; O.r.,.f.2.,.7.| a d r d ; ; * 3 i   ",
"  f k n T ).(.5X5X5X5X[.W Y 8XqX8X*X&Xf.v m s.i.0.<.O.<.,.#.` d k [ @X,.:.{ _ ^ p M Y OXXXr.<.} M   ",
"  8.dXqX%X-.w.hXtXtXgXmX3.P =X=X&X&X$Xd.k m r.<.>.$.) ) :.| ( : E :.y.#.[ ] _ a a 7.E 5.,.#.[ ] l   ",
"  *X8Xf.a.+.0.rXwXqX8XlX' h &X&X@X#X@Xy.n j ,.2.#.[ ) l ^ ( ! ^ ;X;X:.[ | ^ ~ ~ V ^.=.#.#.| / ^ >   ",
"  7.$Xg.r.' 9.qXqX:X&X$X) y 2.d.t.k.-Xt.v N p  .| ] / ! ; i b b :X;X|. . ...7.|.`.;..X` ` / ( ^ d   ",
"  l v ) ` =.5.8X=X=X-X#X' t j 3 3 3 3 : t U ; a ! ~ ! a i M V E /.;X{././.).~.|. X..z ; M i a b ^.  ",
"  P W /./.^.;.-X$X&X@Xk.` t 5XOXoXs.i.0.;.N A i ; i b N ^.E eX>X}..X>X>X[.`.;.6.m U U U ^.P P U !.  ",
"  8.w.5Xw.P =.@Xt.t.k.t._ k cXXXa.3.<.,.:.k 6.E 8.6.;.U !.+XgXXX&X6.a..X2.,.#.{ l j OX>X+Xw.s.6.m   ",
"  8XbXoXi.g j z } _  .! ~ z OXi.2.>.#.[ [ : =.jX8X=XqX>.t s.p.0.6.=.5.1.#.O.] / > n f.f.a.6.,.:.(   ",
"  a.%Xi.2.m m N m m t.p V v oX,.$.#.[ ] / : K 8X-X&X@X:.d m 3.<.>.,.' O.[ ] / ( > n s.g.,.>.#.[ ^   ",
"  n 4.2.>.&X5.,.;.|.;XaXV j o.:.#.[ / ( ( : ' &X%X#Xk.:.r =.O.>.#.[ / ' ` ( _ b l m <.$.#.[ ] / ^   ",
"  2.' O.d.2.#.| _ V aXaX XT -X:.[ ] / ( : > ' -X@Xk.k.:.d =.>.] ( ( : ^ / ^ _ a 7.=.#.#.[ [ ] / p   ",
"  n } k #X:.| | _  .aX;X XV _ b _ / ^ l ` i 6.k.#X#Xk.l j  .| _ l l p a ! ~ a y.;XV _ ` _ ] _ _ a   ",
"  !.^.j b |  . ...`.)./.;X^.r i ; ; ; ; M N ;.| ] _ _ =./.M , , , ; > > N _.U `.`.E d i * i i i V   "
};
