/* XPM */
static char *out[] = {
/* columns rows colors chars-per-pixel */
"50 50 248 2 ",
"   c None",
".  c #160906",
"X  c #141312",
"o  c #2A0C05",
"O  c #360C03",
"+  c #27130E",
"@  c #37130A",
"#  c #291B18",
"$  c #351813",
"%  c #162C1A",
"&  c #19351C",
"*  c #233C1E",
"=  c #2F211D",
"-  c #193828",
";  c #1C3C33",
":  c #173B36",
">  c #132E24",
",  c #392926",
"<  c #253C28",
"1  c #31312B",
"2  c #470A04",
"3  c #570C06",
"4  c #491306",
"5  c #53180E",
"6  c #6A1904",
"7  c #781D03",
"8  c #6C0604",
"9  c #55231A",
"0  c #463935",
"q  c #48312C",
"w  c #70301F",
"e  c #264618",
"r  c #36591A",
"t  c #2E5117",
"y  c #396413",
"u  c #1C442B",
"i  c #1C423C",
"p  c #194537",
"a  c #0F4031",
"s  c #294627",
"d  c #324424",
"f  c #344A29",
"g  c #395422",
"h  c #385727",
"j  c #2C4434",
"k  c #24443C",
"l  c #284638",
"z  c #344333",
"x  c #3B4D33",
"c  c #364A39",
"v  c #245236",
"b  c #3B533A",
"n  c #395639",
"m  c #2A5229",
"M  c #3B6326",
"N  c #3A6637",
"B  c #356935",
"V  c #1E4015",
"C  c #435C1E",
"Z  c #49691B",
"A  c #4E7318",
"S  c #5A7B1D",
"D  c #516B1F",
"F  c #435C2C",
"G  c #435827",
"H  c #444A3C",
"J  c #47573A",
"K  c #404C2F",
"L  c #466825",
"P  c #546D28",
"I  c #4D7725",
"U  c #587726",
"Y  c #496538",
"T  c #586B39",
"R  c #4B7436",
"E  c #5A7936",
"W  c #65623B",
"Q  c #1A4A43",
"!  c #1B5447",
"~  c #254B44",
"^  c #2B4C44",
"/  c #2A4945",
"(  c #354E44",
")  c #2A5349",
"_  c #345345",
"`  c #3B5344",
"'  c #34534B",
"]  c #3A554C",
"[  c #3D5B4E",
"{  c #365A48",
"}  c #3A5C50",
"|  c #3A6455",
" . c #3D6B4A",
".. c #445544",
"X. c #435B4D",
"o. c #475A46",
"O. c #56574A",
"+. c #445D52",
"@. c #4C5E53",
"#. c #564D48",
"$. c #6C5854",
"%. c #486547",
"&. c #566647",
"*. c #58764A",
"=. c #446254",
"-. c #4C6354",
";. c #4A6758",
":. c #536554",
">. c #546A55",
",. c #546B5B",
"<. c #5B6D5B",
"1. c #596856",
"2. c #5C725D",
"3. c #587658",
"4. c #487553",
"5. c #65774A",
"6. c #646959",
"7. c #64735C",
"8. c #687859",
"9. c #75775B",
"0. c #5C7363",
"q. c #597767",
"w. c #4F7364",
"e. c #647562",
"r. c #6A7562",
"t. c #657A64",
"y. c #6B7B65",
"u. c #647D6A",
"i. c #6C7D6A",
"p. c #727B64",
"a. c #727F6A",
"s. c #787867",
"d. c #657E70",
"f. c #746660",
"g. c #9C0900",
"h. c #910C01",
"j. c #B90501",
"k. c #AD1401",
"l. c #922802",
"z. c #BC2C03",
"x. c #AA2C08",
"c. c #CA0501",
"v. c #D90400",
"b. c #CB1300",
"n. c #DA1701",
"m. c #E30300",
"M. c #EC0300",
"N. c #E50A00",
"B. c #F40100",
"V. c #FE0000",
"C. c #FB0900",
"Z. c #F30B00",
"A. c #E71700",
"S. c #F71400",
"D. c #CB2C02",
"F. c #DB2A02",
"G. c #D93404",
"H. c #E93503",
"J. c #F43402",
"K. c #F72801",
"L. c #914F00",
"P. c #9D6F00",
"I. c #88786E",
"U. c #A7776D",
"Y. c #5B841C",
"T. c #638F16",
"R. c #5B8323",
"E. c #598534",
"W. c #658827",
"Q. c #6B932F",
"!. c #70A31C",
"~. c #55884E",
"^. c #6B8549",
"/. c #6E8254",
"(. c #758659",
"). c #72914A",
"_. c #59896A",
"`. c #4A8673",
"'. c #6C826B",
"]. c #75836B",
"[. c #7B856D",
"{. c #798669",
"}. c #6C8372",
"|. c #658273",
" X c #738573",
".X c #7A8573",
"XX c #758975",
"oX c #7C8A74",
"OX c #7C8D79",
"+X c #758879",
"@X c #699A7B",
"#X c #7B9677",
"$X c #7F956D",
"%X c #B59100",
"&X c #85AE2A",
"*X c #83B21A",
"=X c #CA8B00",
"-X c #CFAB00",
";X c #EBC300",
":X c #85886E",
">X c #869469",
",X c #838C74",
"<X c #8B8C74",
"1X c #848E7A",
"2X c #878976",
"3X c #978D78",
"4X c #85927C",
"5X c #8C937C",
"6X c #8A9475",
"7X c #93937C",
"8X c #98967B",
"9X c #94856D",
"0X c #A5957C",
"qX c #97A073",
"wX c #75A48A",
"eX c #7E9080",
"rX c #8C9984",
"tX c #899683",
"yX c #939B83",
"uX c #9B9C84",
"iX c #959E8A",
"pX c #999984",
"aX c #9D8E82",
"sX c #A59B85",
"dX c #B99B91",
"fX c #9BA38B",
"gX c #96A38B",
"hX c #9BA591",
"jX c #82A996",
"kX c #A3A58B",
"lX c #AAA58A",
"zX c #B1A88E",
"xX c #A5AB93",
"cX c #A7AB94",
"vX c #ABB39C",
"bX c #A7B196",
"nX c #B2B59D",
"mX c #B7B49A",
"MX c #B9AD98",
"NX c #B4BAA2",
"BX c #BABBA2",
"VX c #AFB8A0",
"CX c #CEA593",
"ZX c #D4B3A4",
"AX c #D59F93",
"SX c #B9C1A4",
"DX c #C5C4AA",
"FX c #F2C0B4",
/* pixels */
"  r J J J z f d v u e d f < * d < e V e f T.T.t A *XT.y V e e x K x s * x x c d t e V t t & & & y   ",
"  7XlX0XsXsXnXp.n %.:XsX8XI.2X:XI.H Y yXyXE E {./.T.Y rX&.r :XuX7X6X1.8.iX:Xa..X..t %.'.oXt.,.=.*   ",
"  kXzXzXlXkXcXs.x P 8XsX0X8X7X<X:XH x iX8X(.5X[.{.8.oX4Xu.f 6X6X,X(.5X{.:X[.].i...%.*.Y '.3.-.X.;   ",
"  8XzXmXmXvXcX[.G U 6XZX0XuX7X<X3X..K iXuX6X8.{.'.>.>.XX<.d <.y.[.6X[.].r.a.a.u.`  .8.+XXX-.=.) :   ",
"  9.<XNXnXvXcXtXh S O.9.6.&.O.O.#.1 o.4X5X6Xo.8.[.].].e.j d z 1X,X.X[.p.@.t.e.0.^ n /.u.0.;.( i v   ",
"  [.kXvXvXvXbXrXG W.T J J J J o.:.X = r.6X[.y.6X,XoXoX Xt.s 2..X].].].e.7.y.y.<.f L '.=._ ( ^ m ~.  ",
"  r.NXvXvXxXhX+Xh >XDXSXZXSXBXBXiX1 + = s.[.].oX1XO..X Xq.< e.'.y.y.y.2.a.e.2.,.l A ).^.%.%.4.~.).  ",
"  &.a..X X6.@.c h 6XDXmXNXnXNXNX1X$.3 7 q aXMXpXI.X 6.}.u.j ] i.e.e.,.].e.1.:.-.l h ^.(./.5.E Y.Q.  ",
"  Z d d d d g C P 6XmXSXNXNXNXVXsXH l.G.9 $.FXFX$.. = +Xq.l i.1.[ l j ` ..( c i p J kXuX7X5X7.2.T   ",
"  U 0XsX0XzXzX0XP <XnXnXVXVXVXVXcX1 x.H.x.9 AXZX, l.o I.;.] 1 X z % % % % % > : u J kXkXuXrXtX X]   ",
"  (.ZX0X0X3X3X9Xx :XvXbXcXvXvXvXaX@ G.J.H.5 U.AXX z.7 , ZXCX0 X G Z A Z F F G C A E fXfXiXtXOXq.{   ",
"  9.lXkX8XuX9Xs.d 7.xX5XtXhXcXhX$.6 H.J.H.6 w U.o F.G.o U.ZX0 X f.O.C lXCXsX0Xs.K L yXiXrX4X+X+X_   ",
"  9.sX3X3X<X<XO.d h 1 c ..O.I.dXq x.J.K.J.x., #.2 J.J.6 #.dX$ . f.6.d 0X3X9XI.9.x G yX4XtXtXeXOX+.  ",
"  6.sX3X7X2Xs.9.d P E &.O.1 $.dX= z.K.V.S.D.o o l.J.J.z.+ #.$ 3 #.r.< 3X9X9X:Xs.x L c l c ` / ; l   ",
"  ..2X3X<XtXp...f <XZXmX7X1 # I.+ D.C.V.C.F.O o A.C.C.A.o . 6 h.#.i.< 3X3X9X2Xs.H Z U Y K F h L M   ",
"  e 1 z z z z < r :XxXqXlX= . # O n.V.V.C.n.2 g.C.V.V.M.2 O D.l.0 o.< 7X8X5X1X<Xb T MXzXtX,Xr.r.c   ",
"  A P T 5.&.T L S 6..XMXkX= 7 . 2 A.V.V.V.S.F.Z.V.V.V.B.3 h.A.D.q @.< 5X1X5X<X1Xb Y <X:Xs.1.7.<.(   ",
"  5.zXzXsX8XpX&.P o.p.cXfX# D.4 6 Z.V.V.V.C.S.C.V.V.V.C.z.v.V.D.$ X.* H ........j T 2Xs.p.:.1.o./   ",
"  <XzXuX8X7X<Xo.Y kXpXiXsXo F.D.D.S.V.V.V.V.V.V.V.V.V.C.S.V.V.n.@ J Z Z G G G h R Y p.r.<.7.,.] ;   ",
"  {.sXpXpXyXoXo.&.iXhXr.I.O A.J.J.C.V.V.V.V.V.V.V.V.V.V.V.V.V.N.O 6.o.U lXsXyX5X&.F r.6.0.,.X._ Q   ",
"  8.fXuXrXtX XX.%.u.X.j f.3 C.S.K.C.V.V.V.V.V.V.V.V.V.V.V.V.V.M.2 #.:.J pXaXyX5X..r { c l u : : Q   ",
"  O.oX5X4XOX XX.*.%.s f f.2 B.V.S.V.V.V.V.V.V.V.V.V.V.V.V.V.V.M.5 #.( H tXyXrX+Xb W.y r & % % e t   ",
"  x o.>.>.>.,.H W.!.Q.).9.O B.V.V.V.V.V.V.V.V.V.V.V.V.V.V.V.V.M.3 O.z b 1X4X,Xd.b L ^.L Y T 5.5.E   ",
"  A Z A A U 3.Q.Q.&XQ.^.:Xo N.V.V.V.V.V.V.V.V.V.V.V.V.V.V.V.V.M.2 #.- x OX1XOX*.U ^.^.{.7.yXyX4X.X  ",
"  5.gX).E.).W.).!.&X).bX8X+ n.V.V.V.V.V.V.V.V.V.V.V.V.V.V.V.V.M.2 ( < t ` ..Y R.W.^.gX5X].].1X4X X  ",
"  ,XiXiX8.(.NXxX&.(.bXlX8X= k.C.V.V.B.M.M.B.V.V.V.V.V.V.V.V.V.v.O ..d P P P S U Y.E 4X4XOX4XoX'.i.  ",
"  7..X/.n gXhX{.o.fXbXfX$X0 6 M.V.m.k.L.L.l.v.V.M.g.k.j.B.V.V.b.$ 2XcXNXmXcXkXfXyXJ ,.[ eXOX}.}.,.  ",
"  :.gX4Xu.l b 6XiX7.,X*.'.5X+ b.C.g.=X;X-X=Xg.B.j.P.-XP.c.V.M.3 O.hXkXhXuXiX4XXX Xo.q.:.|. X}.|.=.  ",
"  j ] l j s 6X5X6X8.bXbXkX7X#.3 m.j.L.-X%Xl.c.B.j.L.%Xl.m.B.j.$ 2XkXhXiXtXtXoX X'.n R.#Xt.;.=.{ n   ",
"  M r J Y U ,X,X[.[.nXxXhXiX1X1 8 m.A.b.b.m.B.C.Z.b.b.v.B.c.@ $.tXiXrXrXeXOX X0.] f Y.W.E.E.E U E.  ",
"  5.>Xs.>X5.(.[.{.%.{.gXgXyXtX6., 8 v.M.h.g.c.M.M.B.V.B.c.2 #.P b ` -.2.,.3.{ %.x I >XqXyX5X1XrX3.  ",
"  s.3X2XpX:.&.a.'.6X'.OXrXOX Xu.<.0 3 g.j.8 2 2 3 h.c.h.$ O.O.r C r g G I Q.R.I S ^.yXyX,X.X]. XX.  ",
"  8.p.7.[.o.F %.oXa.y.7.}.].'.2.=.l ` 1 9 5 @ X X # q 0 r.r.<.r 5.(.(./.5.).E.&.L 5.4X4XoXXX'.}.;.  ",
"  <X5X2XoXo.G n i.y.e.@.c w.^ ; - & t D S 8.p.I.tXI.s.<.7.7.1.L ,X,X[.p.u...a.0.j J 4XOX+X}.}.}.=.  ",
"  oX2X.X.X1.G h w.u.0.' - - % e g P U U W.>XsX5.s.p.7.<.:.1.-.< y.i.y.e.0.< ,.-.l ` +X+X X}.d.}.=.  ",
"  ]..X.X X%.L I - : > % e t 5.fXkXkXyXhXJ T 7X6X&.7.6.:.@.` ( - >.e.2.:.` ,.b  .k < =.,.q.0.| ' )   ",
"  t. X X'.R Y.Y.r < m L U Y.NXuX5X4XoXi.c Y 2X7.8.1.1.@.@.+.; < X.0.:.'.w.-.;.' p u e s - & * < u   ",
"  d j b Y Q.W.>X>X>X>X5.E U 4X1X4XoX Xu.c n e.<.7.:.@.;.;.+.) s j ] }.-.+.[ { / p h U [. X0.;.{ m   ",
"  5.rX1X.X&.8.uXuXyXyXxX6.L oXOXXX X}.'.z x 0.,.:.@.` ( +.} / < R =.w.} } ' ! Q p 4.R 0.;.+.] ) k   ",
"  oXOX].u.o.7.7X5X6X1XtX` r +X+X}.}.|.,.` h +.,.X.] ( ; / / Q ~ wX|. .} ' ) Q ! B R.%.X.+.' ' / :   ",
"  >.}.u.q.` 2.4X4X1X+X X` g ,.u.q.d.+Xq.n M i | } / ) Q - u p v @X@X_.{ !  .~._.~.*.t.` ' ( ~ k u   ",
"  l l l _ %.2.OXOX+X+X}._ r g - < < ; < t I - p Q ! Q p u m B E.Q.@X(.E.E.Q.T._.`.%.p s m p p v R.  ",
"  L E ^.E R.*.OX X}.}.|.) r >X:X{.i.e.2.*.M L s ; u m M R.R 6X>X).'.#X$X{.~.*.>.N I I I R.A L I W.  ",
"  ^.8.>X^.L %.|.q.u.q.q.) j fX].r.<.:.;.=.j 3.R *.8.*.I Y.'.rX].XX3.'.'.>.>.+.} ~ h {.[.'.8.t.2.n   ",
"  ,XhX.Xe.f f l _ _ | i ! l [.e.,.:.+.} ] ; %.gX1XOXtX+.g u.7.7.<.%.2.,.+.X.( / : b i.i.t.,.,.=./   ",
"  t..Xe.3.c Y h n { w.Q B x .X:.@.+.] ' ^ ; J OXoX X}.=.s n <.1.-.-.` [ ] ' ' / : b y.e.,.=.] ] /   ",
"  b :.,.-.XX2.-.*._.@XwXB M ..=.+.' ( ^ / ; ..XX.Xd.}.=.s Y %.-.X.' ^ ] ' / ~ v i n :.-.+.] ] ' i   ",
"  1.` X.u.,.=.} ) B wXwX`.Y  X=.' ( / / : : ` +X}.d.d.| s %.=._ / / k k / ~ ) v 4.%.+.X.] ' ' / i   ",
"  b { l |.=.} } ) | wX@X`.B ) v ) ~ ~ k { s w.|.|.}.d.k B [ } ) / ; ; Q / ! p w.@XN { { ' ' ) ) Q   ",
"  Y.R.h v } | |  .~.Q.E.@XW.e u > - - - m r *.[ ' ) ) %.E m > > > - a a M !.I ~.~.B m & u - V u B   "
};
