/* XPM */
static char *out[] = {
/* columns rows colors chars-per-pixel */
"50 50 251 2 ",
"   c None",
".  c #0D0B0B",
"X  c #170906",
"o  c #17120F",
"O  c #270D07",
"+  c #390B02",
"@  c #2A120C",
"#  c #381208",
"$  c #271A15",
"%  c #351813",
"&  c #162C1A",
"*  c #19351B",
"=  c #233C1E",
"-  c #2C211D",
";  c #132E24",
":  c #193828",
">  c #1A3C35",
",  c #372A26",
"<  c #263C28",
"1  c #233D32",
"2  c #312D2A",
"3  c #591605",
"4  c #4B100A",
"5  c #720907",
"6  c #691803",
"7  c #761702",
"8  c #630000",
"9  c #6D2800",
"0  c #4A3430",
"q  c #264618",
"w  c #37591A",
"e  c #2F5117",
"r  c #3A6315",
"t  c #1C442A",
"y  c #1C423C",
"u  c #194537",
"i  c #0F4031",
"p  c #2C4424",
"a  c #294727",
"s  c #324424",
"d  c #344A29",
"f  c #395422",
"g  c #385727",
"h  c #2C4434",
"j  c #23443D",
"k  c #284638",
"l  c #334333",
"z  c #3B4D34",
"x  c #364B38",
"c  c #245236",
"v  c #3B533A",
"b  c #395638",
"n  c #2A5229",
"m  c #3B6326",
"M  c #3A6637",
"N  c #356935",
"B  c #1E4015",
"V  c #435C1E",
"C  c #4A691B",
"Z  c #4F7317",
"A  c #5B7B1D",
"S  c #516B1F",
"D  c #435C2C",
"F  c #425828",
"G  c #454639",
"H  c #47583A",
"J  c #484C34",
"K  c #466826",
"L  c #546D28",
"P  c #4D7725",
"I  c #587626",
"U  c #496538",
"Y  c #566A39",
"T  c #4B7436",
"R  c #597936",
"E  c #667E3B",
"W  c #657B2B",
"Q  c #1A4A43",
"!  c #1B5447",
"~  c #254B44",
"^  c #2B4C44",
"/  c #2A4945",
"(  c #344E44",
")  c #295349",
"_  c #345345",
"`  c #3B5344",
"'  c #34534A",
"]  c #3A554C",
"[  c #3C5B4E",
"{  c #365A48",
"}  c #3A5C50",
"|  c #3A6455",
" . c #3D6B4A",
".. c #445444",
"X. c #435B4C",
"o. c #475A48",
"O. c #545749",
"+. c #445D52",
"@. c #4A5D53",
"#. c #514D47",
"$. c #6D5550",
"%. c #486547",
"&. c #576747",
"*. c #58764A",
"=. c #446254",
"-. c #4C6354",
";. c #4A6758",
":. c #536554",
">. c #546A56",
",. c #546B5B",
"<. c #5B6D5B",
"1. c #596757",
"2. c #5C725D",
"3. c #587658",
"4. c #487553",
"5. c #65774A",
"6. c #646B59",
"7. c #63735C",
"8. c #687859",
"9. c #73795C",
"0. c #746A5D",
"q. c #5C7363",
"w. c #597767",
"e. c #4D7061",
"r. c #647562",
"t. c #6A7562",
"y. c #657A65",
"u. c #6B7B65",
"i. c #637C6B",
"p. c #6C7D6A",
"a. c #64726B",
"s. c #727C64",
"d. c #727F6A",
"f. c #787866",
"g. c #657E70",
"h. c #6D7066",
"j. c #920F03",
"k. c #A80301",
"l. c #B60A00",
"z. c #B21701",
"x. c #972A04",
"c. c #BB2502",
"v. c #AC2F0C",
"b. c #C40401",
"n. c #D80500",
"m. c #D81701",
"M. c #CD1301",
"N. c #E80400",
"B. c #F30100",
"V. c #FE0000",
"C. c #FA0B00",
"Z. c #FA1300",
"A. c #F81C01",
"S. c #E91701",
"D. c #D73203",
"F. c #CE2B02",
"G. c #F42801",
"H. c #F43603",
"J. c #E73102",
"K. c #964900",
"L. c #A36B00",
"P. c #986500",
"I. c #EC4415",
"U. c #877A6C",
"Y. c #5B841C",
"T. c #639113",
"R. c #5B8323",
"E. c #598534",
"W. c #678927",
"Q. c #69932D",
"!. c #70A31C",
"~. c #55884E",
"^. c #6B8448",
"/. c #6E8254",
"(. c #768658",
"). c #72914B",
"_. c #59896A",
"`. c #4A8673",
"'. c #6C826A",
"]. c #75836C",
"[. c #7B846D",
"{. c #7D8B6C",
"}. c #768466",
"|. c #6C8372",
" X c #658273",
".X c #738573",
"XX c #7A8672",
"oX c #758975",
"OX c #7B8974",
"+X c #758A79",
"@X c #7C8C79",
"#X c #758778",
"$X c #699A7B",
"%X c #7A9876",
"&X c #7F956D",
"*X c #85AD2B",
"=X c #969809",
"-X c #CE9400",
";X c #CDAA00",
":X c #E6C300",
">X c #85876E",
",X c #87946A",
"<X c #838B74",
"1X c #8B8C74",
"2X c #848E7A",
"3X c #888875",
"4X c #978E77",
"5X c #85927C",
"6X c #8C937C",
"7X c #8A9374",
"8X c #93937C",
"9X c #97967B",
"0X c #94856D",
"qX c #A5957C",
"wX c #B1867D",
"eX c #97A073",
"rX c #75A48A",
"tX c #7E9080",
"yX c #8C9682",
"uX c #8C9984",
"iX c #879684",
"pX c #939B84",
"aX c #9B9C83",
"sX c #959E89",
"dX c #999986",
"fX c #9C8D83",
"gX c #A49A83",
"hX c #B38B82",
"jX c #9BA28B",
"kX c #94A28A",
"lX c #9BA691",
"zX c #82A996",
"xX c #A3A58C",
"cX c #A9A58B",
"vX c #B1A88E",
"bX c #A5AA94",
"nX c #ABB39B",
"mX c #A6B195",
"MX c #B3B59D",
"NX c #B7B59B",
"BX c #B9A996",
"VX c #B4BAA2",
"CX c #BBBDA2",
"ZX c #B1B6A0",
"AX c #AFB8A0",
"SX c #CEA49A",
"DX c #CBB4A3",
"FX c #EAB9AC",
"GX c #B4C2A3",
"HX c #F5C5B9",
"JX c #C8C7AD",
/* pixels */
"  w J H H J d p c t q p s < = s p = q = f T.T.e Z *XT.r = q * g z z s = z z x p e e B q q * * * r   ",
"  8XcXqXgXgXMXd.b %.>XcX9XU.3X3Xf...U pXkXR R ].*.T.U uX&.w >XgX8X7X1.8.pX<XXXd...p U '.oXy.3.=.=   ",
"  xXvXcXcXcXbXf.z I 9XqXqX9X8X1X<XG z aX9X9.p.- o t.XX5Xy.l 7X7X>X(.6X].<X}.d.d.[ %.*.%.'.3.;.X.>   ",
"  9XvXMXMXnXbXXXg I 9XDXgX9X4X1X1XG z aXdXXX$ 6 O o.>..X2.p 7.u.{.7X[.}.t.d.d.p.` { /.@XOX-.=.^ >   ",
"  9.3XZXMXnXbX6Xf A &.0.6.6.O...x l z 7X7XO.4 6 2 oX].7.h q l 5X<X[.[.].-.r.a.<.x M /.i.q.,._ ~ c   ",
"  [.xXZXnXnXmXuXF W.Y H J H H H H K >.>X<X#.X - [.{.OX.Xy.p 7.OX].].'.r.<.u.p.<.d K '.=._ ^ c h ~.  ",
"  8.VXnXnXbXlX#Xg 7XJXNXDXGXCXCX6X&.&.{.}.#.o G [.oX+X.Xi.1 r.p.p.u.u.2.].r.<.,.k K Q.^.%.%.4.~.).  ",
"  1.d.XX.X<.:.x g 6XCXCXCXNXVXZX#.- 5.[.[.O.. #.].@X#X|.i.1 ` i.r.r.>.].7.<.,.,.j f (.(./.5.R Y.Q.  ",
"  C s < < s F V S 7XNXCXVXVXVXAX0.. - SXDX0.X $ 3Xg.g.p.a.> > j _ k h ....( x > y v xXaX8X6X7.2.R   ",
"  I qXqXqXvXvXqXL ,XZXCXAXAXVXAXfXX O #.SX$.3 x.$ @.x 2 2 l : ; : & & & & & ; > t U xXxXkXuXyX#X]   ",
"  >XJXqXqX4X0X0XJ <XmXnXnXnXVXHXSX$ v.# $.0 v.H.6 , (.0 o #.Y 5.U K Z S F F F V Z I jXjXpXyX@Xq.]   ",
"  9.vXqX9XdX4Xf.s 7.lX6XiXlXHXHXhX# D.x.o 3 I.H.J.# U.$.X 2 9XNXpXO.C cXDXqXqX9.J Y pXsXuX5XOX#X_   ",
"  0.qX4X4X8X1X&.< F x ....U.HXFX#.6 J.D.# x.H.H.G.c.- 0 3 - jXmX6X&.s 4XqXU.U.f.d D pXyXiXiXtX#X[   ",
"  6.gX4X8X<Xf.8.s L &.2 f.FXHXhX% F.H.F.+ z.Z.A.C.J.O . 7 % dXjXyXu.s 4X0X0X>Xf.d K ` 1 l ( / j k   ",
"  #.<X1X3XfXs.O.s 1XNX2 o hXFX0 6 G.A.J.7 n.V.V.V.G.+ X x.4 fXsX5X|.< 8X4X0X<Xf.J C L U H F g K m   ",
"  q l l l 1 l < w >XcX0.. o $.O c.C.V.C.G.C.V.V.V.A.6 + c.4 f.r.o.l < 8X9X7X<X5XJ Y NXcX6X<Xt.t.x   ",
"  Z L Y &.&.Y L I 5.U.gXX X . 7 S.V.V.V.A.V.V.V.V.Z.3 j.m.4 $.@XoX .< yX2X2X2X2Xz U 1X>Xf.1.8.<.'   ",
"  5.vXvXcXaX9XO.L O.t.fXX 7 4 m.V.V.V.V.V.V.V.V.V.C.J.S.S.6 2 :._ ) = H ........l Y <Xf.h.:.1.o.j   ",
"  7XvXaX9X9X2Xo.U xXaXU.O D.D.Z.V.V.V.V.V.V.V.V.V.V.Z.V.V.7 $ d d p r C F F F F T U s.h.6.q.,.X.1   ",
"  }.xXaXpX8X<Xo.U jXjX$.6 H.G.C.V.V.V.V.V.V.V.V.V.V.V.V.C.x.$ 1.9X<XH I cXxX9X6X&.D u.6.q.;.+.) Q   ",
"  9.jX9XuXiX.X..-.'.<., x.A.C.V.V.V.V.V.V.V.V.V.V.V.V.V.V.z.% >X<X<X&.H dXdXyXyXH f { h k u : > Q   ",
"  O.OXuX5X@X.XX.*.%.l X c.C.V.V.V.V.V.V.V.V.V.V.V.V.V.V.V.M.@ 3X8.-.l ..yXyXuX#Xb W.r e * * * q e   ",
"  z o.>.>.:.:.v W.Q.R O D.C.V.V.V.V.V.V.V.V.V.V.V.V.V.V.V.n.O 0.d.,.1 v 2X6X<Xp.v K ^.K K &.5.5.R   ",
"  Z C Z P P 5.Q.Q.*XW O m.V.V.V.V.V.V.V.V.V.V.V.V.V.V.V.V.n.O 6.y.>.: v @X<X@X*.I ^.^.{.7.pXpX6XXX  ",
"  5.kX(.W.).W.^.*X*XQ.% m.V.V.V.V.V.V.V.V.V.V.V.V.V.V.V.V.m.@ 6.;.) : n x ..U R.W.).kX6X].].2X2X.X  ",
"  <XsXkX8.(.GXmX&.(.lX, c.V.V.V.V.V.V.V.V.V.V.V.V.V.V.V.V.M.@ @.: t e P I S I A A R 5X5X@X5XOX|.p.  ",
"  7.XX/.b kXlX].o.jXjX$.6 V.V.V.n.l.l.n.B.V.V.N.N.B.V.V.V.z.$ > h }.nXVXNXbXbXjXpXH >.X.@XtX.X|.,.  ",
"  :.kX5Xy.k b 7XkX2.@X7.O n.V.l.K.-X;XL.l.B.b.9 P.7 N.V.N.5 G H sXxXjXjXdXsX2XOX.Xo.w.;.|.|.|.g.;.  ",
"  h ' x k < 6X6X1X8.nXxX, 7 V.j.-X:X=XL.l.B.z.=X;XP.N.B.b.% E.E pXjXjXkXiXiXOX.X'.z R.%Xy.>.=.{ {   ",
"  g f H U R.>X<X{.XXnXmXdX$ k.N.c.x.K.z.N.V.N.x.x.l.B.N.8 J W.5.yXsXsXuX%X@X.Xr.[ d Y.W.E.E.R P R.  ",
"  5.,X}.,X5.}.}.s.%.[.sXsXh.@ k.N.n.k.N.B.V.V.B.N.B.N.5 0 >XY I x ` -.q.,.,.{ %.x P ,XeXpX6X5XuX<.  ",
"  s.8X<XfX:.&.}.}.5X].#XiXtX1.% j.n.k.8 5 j.k.n.N.b.3 0 f.f.1.w V f f D L !.R.P A ^.pXuX<X.X]..XX.  ",
"  8.9.6.[.o.D o.OX].u.7.|..X'.,.2 3 j.j.+ . X 4 5 , O.U.u.t.<.w 5.(.(./.5.).E.&.K *.6X5XOXoX'.|.;.  ",
"  6X6X3X[.o.K v p.y.r.@.x e.^ 1 : v h.#.G 2 #.1.h.f.f.6.t.6.>.K 7X<X[.u.r...d.r.l H @X5X+X|.|.|.=.  ",
"  OX3XOXXX1.g g e.i.q.( : : & = f L I I Q.7XgX5.f.s.7.6.:.<.-.< u.p.u.r.2.1 ,.>.k v .X#X#X|.g.|.=.  ",
"  ].OXoX.X%.K I : > : & q e 5.jXbXxXsXjXH &.8X7X&.7.<.:.@.` ( * ,.r.2.:.{ ,.b { j 1 -.e.w.q.| ' )   ",
"  y..X#X|.T Y.Y.w q a K I Y.MXpXyX5XOXp.z U <X6.8.<.:.@.@.@.1 : o.q.;.'.,.-.;.} > q q q : * * < t   ",
"  s p v U Q.W.,X,X,X&X/.R W 2X5X<X@X.Xi.x b a.q.6.:.@.>.;.+._ a h ] |.-.=.} { ~ Q g R oX].q.;.{ n   ",
"  5.yX2XXX&.8.aXpXdXpXxX<.K @X@X#X.X+Xi.l g q.:.-.X.( ( +.] / 1 T =.e.=.[ ) ) Q u %.T 2.,.+.} ' j   ",
"  OX2X|.y.o.6.pX6X6X2XyX` f OXoX.Xg. X,.` g -.,.+.X.( j ~ ) ~ Q rX X| { ' ) Q ! N E.%.[ +.] ^ ~ >   ",
"  >..Xy.q.` 2.5X2X@X@X.X( e ,.g.y.i.+Xw.x m y | } ) ) Q ; t Q c %X$X_.} ) | ~._.~.~.w.` ' ' ~ y t   ",
"  u x _ _ %.7.@X@X@X+X|._ w f < < 1 1 : w P : y Q ! Q u t n N E.Q.$X/.E.E.Q.T._.`. .k a n t u c R.  ",
"  K E.*.E.R.3.OX.X#X|. X^ w ,XOX[.u.r.2.*.m C t > t n m R.E.7X,X/._.,X&X'.~.*.>.b P I P R.C K P W.  ",
"  5.8.,X5.K %.|.q.w.w.w.) l jX].t.,.>.;.=.k 3.T 3.5.*.K Y.'.uX].+X/.p.u.3.4.@.[ j g }.{.}.8.'.2.b   ",
"  <XlXXXr.d d j { _ | Q ! k [.r.<.-.+.] ] 1 %.sX2X2X5X+.w u.r.7.,.%.2.,.@.X.' ^ 1 v d.p.w.3.;.-./   ",
"  y.XXr.,.b K g b { e.) N b ].:.@.+.] ' ^ : o.@XOX.X|.=.p b <.:.;.;.` [ ] ' ^ ~ Q x y.y.>.=.[ ] ~   ",
"  v >.<.-.oX2.;.*._._.rXN m o.=.+.] ' / / > H #X#Xg.|.=.q %.X.-.@.` ^ ' ' ^ ~ c u v :.@.@.] ] ' 1   ",
"  ,.` X.i.,.+.} ) M rXrX`.U #X+.] ^ / / > > ` #X.Xg.g.| a %.;.' / / j j / ~ ) u 4.%.+.} ] ' ' / Q   ",
"  v { h  X=.} } ) | rXrX~.N c ~ ) ~ Q j _ a e. X X|.g.j b  .} ) j j > Q ~ ! c e._. .{ { ' ) ^ ) y   ",
"  Y.R.g c } | |  .~.Q.E.rXE.t * : : : : n r *.[ ) ' ) %.E.a ; ; ; ; u i g !.m ~.~.E.t B : t t t N   "
};
