/* XPM */
static char *out[] = {
/* columns rows colors chars-per-pixel */
"50 50 251 2 ",
"   c None",
".  c #150805",
"X  c #1A1716",
"o  c #0C0606",
"O  c #280703",
"+  c #330D04",
"@  c #29120B",
"#  c #37130A",
"$  c #2C1B17",
"%  c #341B16",
"&  c #162C1A",
"*  c #19351C",
"=  c #292C1D",
"-  c #183827",
";  c #1D3C33",
":  c #173B36",
">  c #132E24",
",  c #332623",
"<  c #382A27",
"1  c #253B29",
"2  c #32342D",
"3  c #581706",
"4  c #4D1308",
"5  c #670605",
"6  c #790303",
"7  c #701804",
"8  c #7C2E02",
"9  c #463632",
"0  c #264618",
"q  c #375A1A",
"w  c #2F5117",
"e  c #396413",
"r  c #1C442B",
"t  c #1C423C",
"y  c #194537",
"u  c #0F4031",
"i  c #294626",
"p  c #334827",
"a  c #3C552D",
"s  c #385725",
"d  c #2C4434",
"f  c #23443D",
"g  c #284638",
"h  c #344333",
"j  c #3B4D33",
"k  c #364B38",
"l  c #245236",
"z  c #3B533A",
"x  c #395738",
"c  c #2A5229",
"v  c #3B6326",
"b  c #3A6637",
"n  c #356935",
"m  c #1E4015",
"M  c #435C1E",
"N  c #4A6B1B",
"B  c #4F7317",
"V  c #5A7B1D",
"C  c #516B1F",
"Z  c #435C2C",
"A  c #435828",
"S  c #44473B",
"D  c #485839",
"F  c #404C2F",
"G  c #476826",
"H  c #546D2A",
"J  c #4D7725",
"K  c #587626",
"L  c #496537",
"P  c #576939",
"I  c #4B7436",
"U  c #5A7936",
"Y  c #637A39",
"T  c #68453E",
"R  c #1A4A43",
"E  c #1B5447",
"W  c #254B44",
"Q  c #2B4C44",
"!  c #2A4945",
"~  c #344E44",
"^  c #2A5349",
"/  c #345345",
"(  c #3B5344",
")  c #34534A",
"_  c #3A554C",
"`  c #3C5B4E",
"'  c #365A48",
"]  c #3A5C50",
"[  c #3A6455",
"{  c #3D6B4A",
"}  c #4A4943",
"|  c #445544",
" . c #435B4D",
".. c #475947",
"X. c #545949",
"o. c #445D52",
"O. c #4A5F53",
"+. c #57514A",
"@. c #476548",
"#. c #576747",
"$. c #58764A",
"%. c #446254",
"&. c #4B6354",
"*. c #4A6657",
"=. c #536454",
"-. c #546A55",
";. c #546B5B",
":. c #5B6D5B",
">. c #586855",
",. c #5C725C",
"<. c #587658",
"1. c #487553",
"2. c #65774A",
"3. c #656A5B",
"4. c #63735C",
"5. c #6B745C",
"6. c #677B57",
"7. c #73765B",
"8. c #5C7363",
"9. c #587767",
"0. c #4D7061",
"q. c #637562",
"w. c #6B7462",
"e. c #657B64",
"r. c #6B7B65",
"t. c #647C6A",
"y. c #6C7D6A",
"u. c #727B65",
"i. c #727F6A",
"p. c #787865",
"a. c #657E70",
"s. c #716D65",
"d. c #6B5C56",
"f. c #8A1C02",
"g. c #991701",
"h. c #900707",
"j. c #A70801",
"k. c #B90C00",
"l. c #AF1401",
"z. c #902603",
"x. c #A52703",
"c. c #C70500",
"v. c #D80200",
"b. c #D71601",
"n. c #C41700",
"m. c #E30300",
"M. c #EB0100",
"N. c #E90C00",
"B. c #F40200",
"V. c #FE0000",
"C. c #FA0900",
"Z. c #E71901",
"A. c #F61600",
"S. c #C52C02",
"D. c #D93203",
"F. c #E83503",
"G. c #F43703",
"H. c #F12701",
"J. c #954A00",
"K. c #A56800",
"L. c #A65900",
"P. c #83635C",
"I. c #87786B",
"U. c #A27C76",
"Y. c #80544B",
"T. c #5B841C",
"R. c #638F16",
"E. c #5B8323",
"W. c #598534",
"Q. c #658827",
"!. c #6B932F",
"~. c #70A31C",
"^. c #55884E",
"/. c #6B8549",
"(. c #6E8254",
"). c #758659",
"_. c #72914A",
"`. c #59896A",
"'. c #4A8673",
"]. c #6C816E",
"[. c #6D8364",
"{. c #75826C",
"}. c #7B856D",
"|. c #798669",
" X c #6C8372",
".X c #658273",
"XX c #738573",
"oX c #7A8673",
"OX c #758975",
"+X c #7C8A74",
"@X c #7C8D79",
"#X c #758979",
"$X c #699A7B",
"%X c #7B9677",
"&X c #7F956D",
"*X c #B29000",
"=X c #85AE2A",
"-X c #83B21A",
";X c #D2B500",
":X c #D59F00",
">X c #87905E",
",X c #85886E",
"<X c #869569",
"1X c #838B74",
"2X c #8B8C74",
"3X c #848E7A",
"4X c #888876",
"5X c #978E77",
"6X c #85927C",
"7X c #8C937C",
"8X c #899375",
"9X c #93947C",
"0X c #98977B",
"qX c #958B6B",
"wX c #A5957C",
"eX c #A3837D",
"rX c #9DA27E",
"tX c #75A48A",
"yX c #7E9080",
"uX c #8C9A84",
"iX c #899683",
"pX c #939B84",
"aX c #9B9C84",
"sX c #959E8A",
"dX c #979984",
"fX c #928980",
"gX c #A49B83",
"hX c #B19689",
"jX c #9AA38B",
"kX c #97A48A",
"lX c #9CA691",
"zX c #82A996",
"xX c #A2A58B",
"cX c #AAA58A",
"vX c #B3A78E",
"bX c #A5AB93",
"nX c #A9AD94",
"mX c #A4A894",
"MX c #ABB39C",
"NX c #A7B197",
"BX c #B4B59C",
"VX c #B8AE97",
"CX c #B4BAA2",
"ZX c #BABBA2",
"AX c #AFB8A0",
"SX c #CEB2A2",
"DX c #F2BCB0",
"FX c #D79D8F",
"GX c #B9C1A4",
"HX c #C5C4AA",
"JX c #F5C4B8",
/* pixels */
"  q D D D h j p l i m p p 1 1 p 1 0 0 0 s R.R.w B -XR.e * 0 m j F F h * a j h i w w m 0 0 m * * e   ",
"  9XcXwXgXgXBXw./ L ,XxX0XI.4X4XI.F L iXpXU U {.(.R.L uX#.M ,X0X8X2X>.5.sX1XoX+X| 0 @.[.@Xt.;.%.*   ",
"  xXvXcXcXcXcXi.a H 0XhXwX0X5X4X,XS j aX0X).7X1X{.6.OX6Xr.p 8X9X<X).7X{.4X{.}.y.| @.$.L [.;.*.` f   ",
"  0XvXBXBXMXcXoXA K 0XVXgX0X9X4X2XS j aX0X8X6.|.{.-.-.OX,.i ,.r.}.8X}.|.w.i.i.w.~ @.`.@XoX&.o.~ ;   ",
"  7.4XCXAXMXmXiXA V X.3.d.3.X.| k 2 a 3X9X<X..4.oXy.} 8.d i h 3X1X}.}.i.&.q.q.8.k a [.].,.*.~ R l   ",
"  }.xXAXMXMXNXpXA Q.P P D D D D Z I :.+X2X+X5.7X1X8.X +.q.i 4.+X{.{.y.e.3.r.y.;.c G [.@./ ~ l d ^.  ",
"  5.ZXMXMXlXlX#Xa <XHXZXBXGXZXGX2XD 3.s.1X{.[.+XXXs.. $ q.1 4.y.r.r.e.,.{.q.:.:.g N _.2.@.@.1.^._.  ",
"  >.i.oX#X:.X.k s 8XHXZXZXBXCXCXoXa s.X s.,XaXgXdX4X@ # S d _ e.e.q.;.{.4.:.=.;.Q s /.).(./.U T.!.  ",
"  N p 1 p 0 p M C 8XBXGXCXCXCXAX#XZ >X& @ I.DXJXDXhX4 x.$ +.; W ' g d ( | ~ ~ ; t D xXaX9X2X4.:.U   ",
"  K rXwXwXvXvXwXK 8XBXBXAXAXAXAX+XF y.< 3 @ U.DXDXs.8 F.3 +.2 > - & * & & & > ; r D xXxXjXiXiX#X_   ",
"  ,XSXwXeXwX5XqXj ,XMXNXMXNXMXMX+Xa qX< x.f., FXFX< l.F.x.9 vXhXI.G B C A A A M B K jXjXsXuX@Xq.(   ",
"  7.vXwX5XgX4Xp.p 4.xXuX6XlXlXy.&.I.FX% x.D.3 T FX+ D.G.D.4 hXfX, X.M cXSXwX5Xp.F L pXkXuX@X+X#X/   ",
"  7.gX5X5X2X4X#.1 A 2 g | 1 } } 4XDXI.5 F.G.x.% Y.+ F.G.F.3 P.d.. } p 5XwXI.I.p.j Z dXiX3XiXyX#X]   ",
"  3.gX5X9X4Xp.5.p H U P D >.3.X s.SX9 x.G.G.D.O . 3 H.G.F.7 9 9 + S F 5XqXqX,Xp.j N z ; ~ ~ Q f g   ",
"  | 4X5X2XiXu.X.p qXSXBXwXnXd.o < U.# D.G.G.F.+ o k.C.A.H.f.. O z.$ X.5X5X2X1Xp.D N H L Z Z A v G   ",
"  0 2 h h h h 1 q ,XbXrXnXnX} + # < 3 H.A.A.Z.3 O M.V.V.A.x.. 7 S.@ S 2XdX5X4X4Xj P BXvX2X3Xw.w.g   ",
"  B H P #.#.P H K 2.}.nXnXmX2 f.4 . f.A.V.V.N.3 j.V.V.V.A.g.O S.Z.# +.dX3XiX6X3Xk L 2X,Xp.>.5.:.)   ",
"  2.vXcXgXaXdX#.H X.u.nXmXlX9 z.f.. g.C.V.V.C.Z.B.V.V.V.C.j.f.H.M.5 9 | | | | z h #.,Xp.w.=.>.O.f   ",
"  2XVXaXwX9X2X| L xXsXjXlXsX< z.S.4 n.C.V.V.V.V.V.V.V.V.V.B.N.C.V.j., U A A A A L L p.w.:.q.>...;   ",
"  ,XxXaXpX7X+X| #.sXsXr.uXiX< z.H.b.A.V.V.V.V.V.V.V.V.V.V.V.V.V.V.c.@ I.vXxX9X7X#.G r.3.8.*.o.^ R   ",
"  6.aXpXuXiXXX .@.t. .d &. ., j.B.A.A.V.V.V.V.V.V.V.V.V.V.V.V.V.V.v.@ fXaXdXfXiX| s ` d g y : : R   ",
"  X.1XuX6X@XXX .$.@.i c N 1 , j.V.V.C.V.V.V.V.V.V.V.V.V.V.V.V.V.V.v.@ I.dXuXuXoXz R.e w * & * 0 w   ",
"  Z | -.-.-.=.D R.!.!._.Q.H 2 j.B.V.V.V.V.V.V.V.V.V.V.V.V.V.V.V.V.N.O 3.3X6X3Xy.z G /.G L P 2.2.U   ",
"  B N N B K <.!.!.=X!._.<X2.2 g.B.V.V.V.V.V.V.V.V.V.V.V.V.V.V.V.V.N.+ d.@X@X#X$.K /./.&X4.9XpX7X+X  ",
"  2.kX_.W._.Q._.~.=X_.NXxX<X2 7 B.V.V.V.V.V.V.V.V.V.V.V.V.V.V.V.V.N.# +.(  .L Q.Q._.kX7X{.{.6X6Xi.  ",
"  1XkXuX7.(.BXbX#.).NXcXjXkX} 4 N.V.V.V.V.V.V.V.V.V.V.V.V.V.V.V.V.b.@ 5.K G K V V U 6X6X@X6XXX].y.  ",
"  4.oX[.x kXlX|...jXnXjX8X>.4X# b.C.V.B.v.k.c.m.V.V.B.M.M.B.V.V.V.l.$ mXVXnXxXsXpXD -.` @X@XXX X;.  ",
"  =.kX6Xe.d x 7XkX4.1X$.(.kX9X< f.B.M.g.K.:X*X8 M.V.j.8 J.g.B.V.B.6 } sXaXsXiXOXXX..9.*. X#X X.X*.  ",
"  d ) k g 1 6X7X8X5.NXNXxX9X9X3.4 b.M.8 :X;X*XL.v.B.8 *X;XL.m.V.v.# i.sXuX6X@XXX].a W.&Xe.;.%.' '   ",
"  s q ( L E.<X3X}.OXMXNXlXjX7X+XS 5 m.j.J.K.L.k.B.B.k.z.z.x.B.M.5 } sXuXyX@XXX8.` p T.Q.W.W.U H E.  ",
"  2.qX).8X2.u.}.[.#.{.kXkXuX6X[.s., 6 v.v.c.c.M.V.V.B.M.M.M.M.h., } &.,.;.<.( @.x G <XrXpX8X3XuX,.  ",
"  u.9X4XdX#.#.u.[.7X[.+XuX6XOXe.,.:.< 5 c.v.6 6 j.c.v.M.B.v.5 , P s s A J !.E.J T._.7X7X+X+X{.XX .  ",
"  5.7.5.}...Z ..OX{.r.4.]. X].,.@.g Q 2 4 h.j.5 O . O 6 h.4 9 Z (.).).6.2._.W.#.G $.iX6X+XXX]. X*.  ",
"  7X7X,X}...G z i.r.q.&.k 0.Q ; - * w N Y 3.9 % $ $ X , } 3.;.G 3X1X}.[.e...i.8.k D @X@X@X]. X X%.  ",
"  1X1X+XoX:.s x 0.y.8.) - - * * s H K K Q.<XgX2.p.u.w.q.>.:.&.1 r.y.r.w.,.1 ;.*.d ~ #X#X X X.X X%.  ",
"  i.+XOXXX..G J - : > & 0 w 2.xXxXlXpXjXD $.8X8X#.w.3.=.O.( ~ - >.q.,.=.( ;.x ` f 1 &.;.9.8.[ ) ^   ",
"  t.XXOXy.I T.R.q 1 c v T.V CXaXiX6XoXi.j X.+X3.4.:.=.=.O.O.; 1  .8.-.].;.*.*.' ; i 0 i 1 - * 1 r   ",
"  i d z L !.Q.>X<X<X<X(.U K 7X3X1X@XOXt.k a r.8.3.=. .=.*.o.^ i d _ ].*.%.] ' W t c E.}.].8.-.' c   ",
"  2.iX6XoX#.6.jX0X0XuXmX>.N @X@XOXXX Xt.d a 8.=.&.O.~ ~ o._ ! 1 I %.0.` ` ^ ^ R y 1.I ,.&.o._ ^ f   ",
"  1X3Xy.t...3.9X7X8XfXiX( s #XOX X X.X;.' s O.;. .` ~ f W ! R W tX.X[ ] ) W E E n E.@. .o.` ^ ! :   ",
"  -.XX8.9.( :.8XiX@X@XXX~ w ;.a.9.a.#X9.z v t [ ] ~ ^ R - r y l %X$X`.] ^ { ^.`.^.$.[./ ) Q ! f r   ",
"  y k Q / @.4.@X@X#X#X X( q p 1 1 1 1 ; q J - y R E R y r c n W.!.$X[.W.W.!.R.`.'.{ d - c y y l E.  ",
"  G U /.W.K <.oXOX X X.X^ q <X&X}.r.4.q.$.v G r - r c v E.I 8X&X_.[.%X<X[./.$.;.' J J J E.G G J Q.  ",
"  /.6.<X2.J @. X8.t.9.9.^ h jX{.e.:.=.*.] d <.U <.6.$.I T.[.pX{.OX<.t.t.;.1.o._ g s |.&X[.6.[.<.x   ",
"  3XlXoXq.p c g ' ^ [ R E d }.e.;.&.o._ _ 1 @.sX3X@X6X%.q r.w.4.<.@.;.;.o.| ) ! : z y.y.e.:.*.&.!   ",
"  q.oXq.:.x L s x x 9.t n k {.=.O.o._ ) ^ ; | 3XoXOXXX%.i x :.=.*.*.(  ._ _ ) W R z w.q.;.%.` _ W   ",
"  z =.:.&.OX,.*.1.`.$XtXn s ..%.o._ ~ ! W ; z #X#X Xt.%.0 @...&.O.) Q ) ) ! W l t x ;.O.o._ ) ) f   ",
"  -.(  .t.*.%.` / b tXtX'.L #X%._ Q ! ! ; : ( #X Xa.a.%.i @.&./ ! f W g ! l ^ y 1.@. .o._ ) ) Q t   ",
"  z ' g .X%.] ] ^ [ tX$X'.n ^ l ^ W W f / i 0..X.X Xa.f x { [ ^ f f : R W W l 0.`.{ ^ ' ^ ^ ^ ^ R   ",
"  T.E.s l ] [ [ { ^.!.W.$XQ.0 r - - - - c q $.` ^ ) ^ @.I c > > > > y u s ~.J ^.^.I c * r r m r n   "
};
