/* XPM */
static char *out[] = {
/* columns rows colors chars-per-pixel */
"50 50 251 2 ",
"   c None",
".  c #120B09",
"X  c #191715",
"o  c #17110F",
"O  c #371209",
"+  c #271A17",
"@  c #361B14",
"#  c #2F0F08",
"$  c #162C1A",
"%  c #19351B",
"&  c #38231D",
"*  c #233C1E",
"=  c #2A211E",
"-  c #132E24",
";  c #193827",
":  c #1C3C33",
">  c #173B36",
",  c #382825",
"<  c #253C28",
"1  c #30312B",
"2  c #471406",
"3  c #581605",
"4  c #4C0E0A",
"5  c #691A05",
"6  c #751904",
"7  c #6F0B05",
"8  c #762A03",
"9  c #453B36",
"0  c #4F302B",
"q  c #264618",
"w  c #36591A",
"e  c #2F5117",
"r  c #3A6315",
"t  c #1C442A",
"y  c #1C423C",
"u  c #1A4436",
"i  c #174938",
"p  c #294626",
"a  c #324424",
"s  c #344A2A",
"d  c #395422",
"f  c #385727",
"g  c #244234",
"h  c #2C4434",
"j  c #23443D",
"k  c #2A4839",
"l  c #344334",
"z  c #3B4D34",
"x  c #364B39",
"c  c #245236",
"v  c #3B533A",
"b  c #395639",
"n  c #2A5229",
"m  c #3B6326",
"M  c #3A6637",
"N  c #356935",
"B  c #1E4015",
"V  c #435C1E",
"C  c #4A691B",
"Z  c #4F7317",
"A  c #5A7B1D",
"S  c #516B1F",
"D  c #435C2C",
"F  c #435827",
"G  c #47463C",
"H  c #475739",
"J  c #404C2F",
"K  c #466825",
"L  c #546D28",
"P  c #4D7725",
"I  c #587626",
"U  c #496538",
"Y  c #576839",
"T  c #4B7436",
"R  c #5A7936",
"E  c #62793A",
"W  c #1A4A43",
"Q  c #1B5447",
"!  c #254B44",
"~  c #2B4C44",
"^  c #2A4945",
"/  c #354D44",
"(  c #295349",
")  c #345345",
"_  c #3B5344",
"`  c #34534A",
"'  c #3A554C",
"]  c #3C5B4E",
"[  c #365A48",
"{  c #3A5C50",
"}  c #3A6455",
"|  c #3D6B4A",
" . c #4A4941",
".. c #554A45",
"X. c #445544",
"o. c #435B4C",
"O. c #475A47",
"+. c #555949",
"@. c #445D52",
"#. c #4B5E52",
"$. c #585651",
"%. c #635953",
"&. c #6F5550",
"*. c #476547",
"=. c #576747",
"-. c #58764A",
";. c #446254",
":. c #4C6354",
">. c #4A6758",
",. c #536554",
"<. c #546A55",
"1. c #546B5B",
"2. c #5B6D5B",
"3. c #586955",
"4. c #5C725D",
"5. c #587658",
"6. c #487553",
"7. c #65774A",
"8. c #646C59",
"9. c #63735C",
"0. c #687859",
"q. c #73775C",
"w. c #5C7362",
"e. c #597768",
"r. c #4D7061",
"t. c #647563",
"y. c #6A7562",
"u. c #657A65",
"i. c #6B7B65",
"p. c #647C6B",
"a. c #6C7D6A",
"s. c #727C64",
"d. c #737E6A",
"f. c #787867",
"g. c #657E70",
"h. c #6F6B62",
"j. c #920F02",
"k. c #B70601",
"l. c #BB1B01",
"z. c #A90902",
"x. c #982600",
"c. c #933101",
"v. c #AB2502",
"b. c #C70400",
"n. c #DA0500",
"m. c #CE1400",
"M. c #E90300",
"N. c #F30200",
"B. c #FE0000",
"V. c #F80B00",
"C. c #E71801",
"Z. c #F61700",
"A. c #CA2E03",
"S. c #DA3103",
"D. c #EA3503",
"F. c #F43503",
"G. c #F12A01",
"H. c #8C4C00",
"J. c #A87100",
"K. c #857A6B",
"L. c #957069",
"P. c #AE796D",
"I. c #85625B",
"U. c #5B841C",
"Y. c #638F16",
"T. c #5B8323",
"R. c #598534",
"E. c #668827",
"W. c #6B932F",
"Q. c #70A31C",
"!. c #55884E",
"~. c #6B8448",
"^. c #6E8254",
"/. c #758659",
"(. c #73914B",
"). c #59896A",
"_. c #4A8673",
"`. c #6C826B",
"'. c #75826B",
"]. c #7B846D",
"[. c #7D8A6C",
"{. c #768467",
"}. c #6C8372",
"|. c #658273",
" X c #738573",
".X c #7A8673",
"XX c #758975",
"oX c #7B8974",
"OX c #758A79",
"+X c #7C8C79",
"@X c #758778",
"#X c #699A7B",
"$X c #7B9677",
"%X c #7F956D",
"&X c #85AE2A",
"*X c #969909",
"=X c #C69200",
"-X c #DEB800",
";X c #85886E",
":X c #869469",
">X c #838C74",
",X c #8B8C74",
"<X c #848E7A",
"1X c #8B8C7A",
"2X c #858572",
"3X c #978D77",
"4X c #85927C",
"5X c #8C947C",
"6X c #8A9475",
"7X c #93947C",
"8X c #98967B",
"9X c #94856D",
"0X c #A5957C",
"qX c #AA897D",
"wX c #97A073",
"eX c #CF8A7B",
"rX c #75A48A",
"tX c #7E9080",
"yX c #8C9682",
"uX c #8C9984",
"iX c #879684",
"pX c #939B84",
"aX c #9B9C84",
"sX c #959E89",
"dX c #979986",
"fX c #938A80",
"gX c #A39A82",
"hX c #AB9F89",
"jX c #BC8F85",
"kX c #9BA38B",
"lX c #96A289",
"zX c #9BA591",
"xX c #82A996",
"cX c #A2A58C",
"vX c #AAA58A",
"bX c #B1A78E",
"nX c #A4AB93",
"mX c #A6AB94",
"MX c #ABB39B",
"NX c #A7B196",
"BX c #B3B49C",
"VX c #B7B39A",
"CX c #B8AE97",
"ZX c #B4BAA2",
"AX c #BABBA2",
"SX c #AFB8A0",
"DX c #EEB7AB",
"FX c #D2A99A",
"GX c #B4C2A3",
"HX c #C5C4AA",
"JX c #FDC4B8",
/* pixels */
"  w H H H J z < c t q a p < < p p q B q d Y.Y.e Z &XY.r * B q s z z a * z z l p e q B e q % % % r   ",
"  7XvX0XgXgXBXf.b *.;XvX8XK.2X2XK.G U pXpXR R {.~.Y.T 5X=.w ;XaX7X5X=.i.sX].]..XX.e *.`.XXu.4.;.*   ",
"  cXbXvXbXcXmXf.z L 0XhX0X0X7X,X].G z sX8X/.5XoX{.u.oX4Xy.s 6X7X;X/.6X{.2X].'.a.o.*.-.U `.5.>.] :   ",
"  8XbXBXBXMXmX].F I 3XCXgX8X3X,X1XG z aXpX6X0.'.'.<.<. X4.p 4.i.[.,X.X'.i.d.d.a._ *.5.XX[.>.@.~ >   ",
"  q.,XZXBXMXmX5Xf A =.q.8.8.$. . .$.J 4X7X6XH 8.[.{.'.9.h p l <X>X].].d.#.u.t.2.k U ^.p.w.1.) ! c   ",
"  ;XkXMXMXNXNXsXF E.Y H H H H  .v X O.;X6X'.1 $.$XoXoX Xu.p 9..X'.'.'.u.2.y.a.2.n K `.*.) ~ k h !.  ",
"  0.AXMXMXnXzX@Xz :XHXAXVXAXAXMX1 + ..[.[.d.o + s..XOX Xe.< t.i.i.i.u.4.'.y.w.1.k K (.7.=.*.6.!.(.  ",
"  3.d. X.X2.:.x d 6XHXAXAXVXZXd.2 8 %.'.'.f.= 5 + @XXX}.g.g ' u.t.t.1.'.t.2.<.1.k d ~./.^.-.R.U.W.  ",
"  C a < a a d V L ,XAXAXZXZXZXd.3 5 h.d.d.,.9 6 2 $.p.g.e.: ; j ) k h / X./ k : y b cXaX7X1X9.2.R   ",
"  I 0X0X0XbXbX0XI :XBXZXSXSXZXfX@ 4 h.$.f.%.&.5 A.o x g Q t ; - - $ % $ $ $ ; : t H vXkXkXyXyX@X'   ",
"  ;XHX0XqX3X9X9XJ 2XNXNXMXmXMXMX%.o G DXJXDXqX4 D.2 +.Y 7.Y L 7.Y C Z S F K F F Z R kXkXsXyX+Xe._   ",
"  q.bX0X8XdX3Xf.a 9.zXyXiXdXzXd.fX .+ L.DXDXqXO D.v.0 VXCXh.f.BXlX+.V vXFX0X3Xf.J L pXlXuX4X.X+X)   ",
"  q.gX3X3X3X,X=.a f < l X.+  .1XDX..2 + qXDXP.3 D.D., FX&.o %.mX6X3.a 3X3X9XK.f.z D pX1XiXiXtX+X{   ",
"  8.aX3X7X>Xf.q.a L R =.=.= X jXDX0 v.6 0 eX0 j.F.D.@ L.+ # $.dXyXa.a 3X9X9XK.f.s K v k k / ^ : k   ",
"   .2X3X1XuXs.O.s ,XHXVX7X, O &.jX@ A.A.# @ 2 D.F.F.4 I.+ = fXdXiXa.< 3X3X3X2Xf.H Z L H D D f D m   ",
"  q l l l 1 l < w ;XvX0XbX# v.# , 4 D.D.4 # l.V.Z.F.3 &., ..d.w.*.l * 5X8X7X>X<Xz Y BXbX3X<Xi.0.k   ",
"  Z L Y =.=.Y S A 8.;XmX0XO S.2 2 A.G.G.m.7 N.B.B.Z.4 0 . 1 .X+X$Xo.< 1X<X5X<X<Xx U ,X2Xf.3.9.2.`   ",
"  ~.bXvXvXaXpX+.L O.s.mXK.2 F.x.3 G.V.B.N.Z.B.B.V.N.2 . 3 @ t.,.) ! q X.X.O.X.X.l Y 2Xf.h.,.3.#.j   ",
"  ,XbXgX8X8X1XO.U cXdXdX..7 Z.S.l.V.B.B.B.B.B.B.B.B.7 4 A.3 ..a a p C C F F F F Y U s.y.3.t.1.o.:   ",
"  {.cXaXpX7XoXO.Y kXsXy., x.V.F.Z.B.B.B.B.B.B.B.B.B.C.C.Z.x.= +.pX[.H I cXcX7X5X=.K i.8.w.1.@.( W   ",
"  q.kX7XyX4X.Xo.*.p.@.x + v.N.Z.V.B.B.B.B.B.B.B.B.B.B.B.B.m.@ f.>X>X:.H aXdXyX5X_ w [ h g u ; > W   ",
"  +.oXuXiXOX Xo.-.*.p z + v.B.V.Z.B.B.B.B.B.B.B.B.B.B.B.B.M.3 %.9.*.l H yXyXsX.Xb E.r w % % % q e   ",
"  z O.<.2.<.,.v E.W.W.(.+ l.B.B.B.B.B.B.B.B.B.B.B.B.B.B.B.N.7  .d.1.< v <X5X<Xa.v K ~.K U Y 7.7.R   ",
"  Z C Z Z P 7.(.Q.&XW./.0 v.N.B.B.B.B.B.B.B.B.B.B.B.B.B.B.N.6 9 a.>.; z +X+X@X-.I ~.~.[.0.pXpX4X+X  ",
"  7.lX/.W.(.R W.Q.&X(.vX+.j.B.B.B.B.B.B.B.B.B.B.B.B.B.B.B.V.6 G >.( ; a v _ U T.E.~.pXuXd.'.4X4Xd.  ",
"  >XlXuX0.^.GXNX=./.NXcXK.3 V.B.B.B.B.B.B.B.B.B.B.B.B.B.B.N.5 ..: t e P I L I A U.E 4X4X+X4XoX}.a.  ",
"  9.oX^.b lXzXoXO.kXNXkX>XO C.B.B.M.b.b.n.B.B.B.N.M.B.B.B.M.2 $.s i.MXZXVXmXnXkXpXH <.[ +X+X}.}.1.  ",
"  ,.lX4Xu.h v 6XaX9.+X-.i.= v.V.n.c.=X=XH.b.N.k.8 H.k.N.B.b.= f kXcXkXzXpXsX<XoX XO.e.<.|.OX}.|.>.  ",
"  h ' k g < yX7X,X0.NXNXcXf.2 C.b.J.-X*XJ.k.N.x.*X-Xx.N.M.7 ..I dXkXkXlXuXiXOX'.}.z T.$Xu.>.*.) [   ",
"  f d H U T.;X>X;X[.MXNXnXsXx 6 C.l.c.c.k.N.B.n.x.x.n.N.z.& E.~.yXsXuXuXiX$X Xu.[ s U.E.R.R.R R T.  ",
"  7.:X{.:X7.{.{.s.*.{.kXzXiX.X, 7 M.N.z.k.M.N.B.B.N.M.z.2 q.=.S z _ :.w.1.<.O.[ n P :XwX8X5X4XuX2.  ",
"  s.7X,XfX3.=.d.`.4X'.+XiXtX.Xy.9 4 k.k.7 7 7 j.b.n.j., h.f.3.w V d d D K Q.E.P I ~.7XlX>X.X}. Xo.  ",
"  0.q.8.].X.D *.+Xd.i.t.}.}.`.4.#.G , 5 7 O . X 2 0 ..f.f.t.3.w 7././.^.7.(.R.=.K -.yX4XoX X'.}.>.  ",
"  5X5X,X>XO.F b a.i.t.#.k w.x : ; ; w R E +.h.2XiXf.s.2.t.8.<.K 6X>X'.s.u.X.d.w.x H +X+XOX}.}.}.;.  ",
"  >X>X.X X3.K f r.p.w./ ; > $ q w L I I E.:X0X7.f.y.0.8.3.3.:.< y.a.i.u.w.< 1.<.h _ @XOX}.}.|.}.;.  ",
"  d.+XoX X*.D P ; : ; $ q q 7.kXnXkXdXzXH =.6X6X=.q.3.,.#._ / ; <.u.4.,.) 1.b { j < ;.1.e.w.} ` (   ",
"  u. X@X}.T U.U.w < n K U.A ZXaX5X<XoXa.x U 2X8.0.3.,.,.#.@.: < o.w.,.a.1.>.>.[ > * q q ; ; * < t   ",
"  a p v U W.E.:X:X:X:X7.R I 4X4X<X+X Xp.x b u.w.8.3.#.:.:.@.( p h ' }.:.;.] [ ! y f R. X'.w.>.[ n   ",
"  7.yX4X.X=.0.aX8XpXpXnX3.K +X+XOX X Xg.l f w.,.:.#./ / @.{ ^ < T ;.r.} ] ( ( W i 6.T 4.>.@.' ( j   ",
"  +X+Xd.u.O.8.7X5X5X1XyX_ d XXXX Xg.|.1._ f #.1.@.] / j ! ^ W ! rX|.} ] ` ( W Q N T.*.@.@.' / ^ >   ",
"  6. Xu.w._ 2.yX4X4X+X X/ e 1.g.e.g.OXe.v m u } { ~ ^ W ; t i c $X#X).{ } } 6.).!.-.`.) ` ~ ^ W t   ",
"  g x ) ) *.4.+X+XOX@X}._ w s < < < < ; w P ; > W Q W i t n N R.W.#X/.R.R.Y.Q.)._.| g < e u u k T.  ",
"  K R.-.R.T.5.oXXXXX|.|.( d :X%X[.i.y.w.<.m C p t t n m T.T 6X:X(.).$X%X`.!.-.5.M P P P T.C K P U.  ",
"  7.0.:X7.K *.}.w.e.e.e.( s kXd.y.1.<.>.;.g ).T 7.5.-.T U.{.uX]. X5.i.`.1.*.@.' ! f ].[.{.0.`.5.H   ",
"  <XzX.Xy.s n k [ ~ } i Q h [.t.1.>.@.' ' : O.zX<X+XiX@.d i.y.2.2.*.5.1.@.o.` ^ > v a.a.e.5.>.:.^   ",
"  u..Xt.5.x D f b [ e.! N x .X,.#.@.' ` ~ : H +X@X.X}.;.p v 2.3.,.>._ o.' ` / ! > v u.t.1.;.] ' ^   ",
"  v ,.2.:.XX5.>.-.).).rXM m _ :.@.' / ^ ! : H OX@X}.a.;.p M *.:.#.' ~ ` / ~ ( c j b 1.#.@.' ' / >   ",
"  3._ o.p.1.@.] ( M xXrX_.M @X;.` / ^ ^ : > _ OX}.g.g.} p *.:.) ^ j j j ~ ! ( i 6.*.@.@.' ` ` ^ W   ",
"  v [ k p.>.{ { ( } rXrX6.N ( ( ( j W j ) p 5.|.|.|.g.j N ] { ( j j > W W c Q r.).| [ [ ` ` ( ( W   ",
"  U.T.f c { } } | !.W.R.#XR.q t ; ; ; t n w 6.{ ` ) ( *.R n - - - ; > > m Q.m !.!.R.t % ; t B t N   "
};
