/* XPM */
static char *out[] = {
/* columns rows colors chars-per-pixel */
"64 64 248 2 ",
"   c #0B0E0D",
".  c #15190E",
"X  c #0C0D13",
"o  c #0D0B18",
"O  c #0E1114",
"+  c #0D111C",
"@  c #121515",
"#  c #141A15",
"$  c #1A1917",
"%  c #12151C",
"&  c #151B1B",
"*  c #181E1D",
"=  c #321E18",
"-  c #1A2E0B",
";  c #1B2516",
":  c #1B231B",
">  c #25261C",
",  c #222C1C",
"<  c #35271A",
"1  c #27371A",
"2  c #343B14",
"3  c #100F22",
"4  c #131422",
"5  c #161C22",
"6  c #181F22",
"7  c #16162A",
"8  c #191737",
"9  c #24182A",
"0  c #301F29",
"q  c #241A3B",
"w  c #1C2223",
"e  c #1E2529",
"r  c #1D2738",
"t  c #242C23",
"y  c #27282A",
"u  c #24292C",
"i  c #362929",
"p  c #2A3624",
"a  c #343728",
"s  c #282936",
"d  c #322F38",
"f  c #373937",
"g  c #4A1D15",
"h  c #4C2D15",
"j  c #562B16",
"k  c #593314",
"l  c #663310",
"z  c #683615",
"x  c #743E15",
"c  c #473424",
"v  c #48312C",
"b  c #563826",
"n  c #693925",
"m  c #6D3C2A",
"M  c #294315",
"N  c #2E4E13",
"B  c #365719",
"V  c #316F09",
"C  c #397A08",
"Z  c #396614",
"A  c #3A7214",
"S  c #364527",
"D  c #3C4B2B",
"F  c #394D2D",
"G  c #4F4C14",
"H  c #694E13",
"J  c #794416",
"K  c #447908",
"L  c #4F6E16",
"P  c #497717",
"I  c #6F6C1A",
"U  c #544B2E",
"Y  c #45572D",
"T  c #475933",
"R  c #6E4F2E",
"E  c #75452A",
"W  c #49692A",
"Q  c #556728",
"!  c #497725",
"~  c #547727",
"^  c #4E6636",
"/  c #536737",
"(  c #546C3B",
")  c #597738",
"_  c #5B733D",
"`  c #6D7131",
"'  c #667A3B",
"]  c #1D1B46",
"[  c #241B43",
"{  c #281E41",
"}  c #241D4B",
"|  c #231E53",
" . c #1A2147",
".. c #1C2154",
"X. c #292646",
"o. c #30334F",
"O. c #262358",
"+. c #292968",
"@. c #36396A",
"#. c #2D2D76",
"$. c #2D337A",
"%. c #32357B",
"&. c #483C48",
"*. c #4A3F55",
"=. c #374F52",
"-. c #3A426E",
";. c #206569",
":. c #4B4856",
">. c #574D52",
",. c #69584B",
"<. c #4F774A",
"1. c #5D7842",
"2. c #627D43",
"3. c #777246",
"4. c #6C6156",
"5. c #52546D",
"6. c #5B5F70",
"7. c #706C6C",
"8. c #777678",
"9. c #864915",
"0. c #8C5319",
"q. c #995719",
"w. c #A85B18",
"e. c #9B651D",
"r. c #887217",
"t. c #A7661D",
"y. c #B56A1C",
"u. c #A5721E",
"i. c #BA741E",
"p. c #925729",
"a. c #916D2D",
"s. c #A66B23",
"d. c #AA7428",
"f. c #B77926",
"g. c #B07437",
"h. c #C37B20",
"j. c #825849",
"k. c #8D704D",
"l. c #A4704C",
"z. c #8D7767",
"x. c #3C8809",
"c. c #2C9200",
"v. c #359500",
"b. c #3B9601",
"n. c #369900",
"m. c #3D9A00",
"M. c #3E940B",
"N. c #3EA100",
"B. c #46880C",
"V. c #439504",
"C. c #439D00",
"Z. c #499E02",
"A. c #44960D",
"S. c #499509",
"D. c #4B9B0B",
"F. c #559B0C",
"G. c #498513",
"H. c #568816",
"J. c #4B9713",
"K. c #569818",
"L. c #698618",
"P. c #6C9218",
"I. c #45A100",
"U. c #4BA301",
"Y. c #4EA901",
"T. c #4BA20A",
"R. c #51A602",
"E. c #55A706",
"W. c #53A901",
"Q. c #55A218",
"!. c #558A29",
"~. c #50942E",
"^. c #5A9728",
"/. c #668828",
"(. c #718F2A",
"). c #638A3B",
"_. c #768938",
"`. c #659836",
"'. c #65943A",
"]. c #5CA123",
"[. c #64A52B",
"{. c #3A935B",
"}. c #2F8976",
"|. c #438B54",
" X c #658445",
".X c #688646",
"XX c #668B42",
"oX c #6A8C44",
"OX c #6E8A48",
"+X c #719143",
"@X c #638175",
"#X c #94862C",
"$X c #87853A",
"%X c #938F32",
"&X c #AF8A31",
"*X c #B8963A",
"=X c #C98726",
"-X c #CC8F2F",
";X c #D99829",
":X c #D59A32",
">X c #DEA12E",
",X c #CDA338",
"<X c #DAA537",
"1X c #E2A32C",
"2X c #E4AB36",
"3X c #EBB43D",
"4X c #978C4A",
"5X c #B29949",
"6X c #988768",
"7X c #8E857B",
"8X c #998373",
"9X c #9B927A",
"0X c #B49475",
"qX c #BAA976",
"wX c #C78D48",
"eX c #D3AC4F",
"rX c #EAB945",
"tX c #E9B84C",
"yX c #CC9769",
"uX c #D1AB6A",
"iX c #E3B26B",
"pX c #F2C34C",
"aX c #ECC456",
"sX c #F4CA56",
"dX c #EECB63",
"fX c #2E3684",
"gX c #323887",
"hX c #333B94",
"jX c #3A4783",
"kX c #5F7183",
"lX c #198993",
"zX c #219198",
"xX c #6B8A8B",
"cX c #91938D",
"vX c #9A9588",
"bX c #AF9A83",
"nX c #B5A68D",
"mX c #A6A79B",
"MX c #AFB9AF",
"NX c #C39E83",
"BX c #D4B18F",
"VX c #E5B785",
"CX c #E8BD9A",
"ZX c #D4BDA2",
"AX c #DCCAB4",
"SX c #EFCCAF",
"DX c #BDCAC8",
"FX c #DED8CB",
/* pixels */
"R.R.Y.Y.Y.R.W.W.R.U.Z.Z.Z.Z.U.U.C.m.m.m.Y.Y.W.E.F.P.(._.$X4X_.$X$X4X$X$X_.'._.!.G.S.F.R.C.m.m.m.n.v.c.v.m.C.b.m.U.R.U.C.n.n.C.Y.",
"Y.Y.U.U.U.U.R.R.U.C.Z.C.C.I.I.C.C.C.m.m.C.U.F.E.P.P.%X%X%X4X5X%X%X%X5X4X%X%Xa.(.H.F.P.E.D.C.I.m.n.n.v.b.C.C.m.C.Y.Y.I.C.b.b.C.U.",
"U.N.n.N.U.U.C.C.m.m.C.C.C.C.C.b.b.m.C.C.m.D.K.(.(.%X5XeXeXuXeX<X,X,X,X,XeX*X&X#X#X#X#XP.F.Y.I.n.b.n.b.C.C.C.m.I.U.U.C.m.m.m.C.I.",
"I.I.m.I.U.U.C.b.b.C.C.C.C.C.b.b.b.V.C.Z.Z.H.(.a.#X&XeXaXdXsXpX3XrX3X3XrXtXeXwX*X,X&X%X%XP.P.D.m.n.m.C.C.I.C.C.I.U.U.m.m.m.n.m.I.",
"m.U.R.W.Y.U.Z.C.C.C.U.I.C.C.b.V.C.C.U.F.H.P.r.&X;X<XpXsXdXsXpXpXpXpXpXaXsXsXaXaXrX,X,X&X#XP.F.V.v.n.C.C.C.C.m.m.m.C.I.m.m.C.m.C.",
"I.U.W.W.Y.C.C.Z.Z.C.I.C.C.m.m.C.V.Z.Z.F.L.r.i.;X2XrXpXsXsXsXsXpXsXsXsXpXsXdXdXaXpXrXrX,X&X#XL.B.b.m.C.Z.I.C.m.m.N.N.m.C.I.m.m.b.",
"Y.Y.W.W.C.C.C.Z.I.I.n.m.b.m.C.C.Z.Z.Z.P.r.y.=X;X2X3XpXpXsXpXpXpXpXpXpXpXpXpXpXpX3X<X2X>X,X&X#XB.V.C.T.U.C.C.I.U.U.I.C.C.m.m.b.b.",
"Y.Y.W.W.C.V.C.C.I.C.m.b.b.b.b.C.Z.S.F.L.e.i.=X;X2X2X3X3XpXpXpXpXpXpXrX3X2X3X3X<X>X,X>X>X;X,XL.I S.C.Y.R.U.U.Y.R.Y.U.I.m.m.n.b.b.",
"C.U.R.R.Z.C.V.C.C.C.U.Z.m.b.b.C.Z.F.L I u.h.=X=X;X1X1X1X2X3X3X3X3X3X2X1X1X;X;X-X=Xh.-X=X=X&XL.H.S.C.Y.Y.W.W.W.W.R.U.C.V.m.m.n.b.",
"C.Z.R.W.Z.C.m.V.C.Y.W.W.C.C.b.V.Z.B.L J u.h.i.h.h.;X1X1X1X1X3X2X2X2X2X1X;X=X=X=Xf.f.i.i.i.u.r.H.S.I.Y.Y.W.W.W.W.W.U.C.C.C.m.b.v.",
"C.C.W.W.Z.V.b.C.Y.W.W.W.R.C.C.m.C.K G J y.h.y.y.h.;X;X1X1X1X3X2X-X-X2X2X-X-X:X-Xf.s.q.q.q.0.I I S.Z.Y.W.W.W.Y.U.U.U.R.Y.Y.C.b.v.",
"V.C.R.W.Z.C.C.C.R.W.W.W.R.Y.C.m.C.B.G l e.y.y.y.y.h.h.;X;X;X2XwX&X=X<X<X-Xh.-X-Xs.q.q.0.9.H I H.S.U.R.R.U.Z.U.U.C.Z.R.R.U.C.m.n.",
"C.C.U.U.U.U.U.U.R.R.Y.Y.U.C.I.I.V.K h l 9.w.w.w.y.y.h.h.h.h.-Xh.u.u.;X:Xh.f.f.f.q.q.w.p.9.H G P S.Z.Z.U.C.C.C.C.C.C.U.U.b.b.C.C.",
"C.C.I.C.U.R.R.R.U.U.Z.I.C.I.U.U.V.K N j 9.w.w.w.w.w.y.h.y.y.y.w.q.e.&X&Xs.e.s.q.9.0.s.s.x H L K V.Z.I.C.C.V.C.C.b.b.Z.Z.b.b.V.C.",
"C.U.U.U.I.I.U.U.C.C.m.m.C.U.W.R.B.L g j x 9.w.w.w.w.w.w.9.9.9.x J J 0.0.0.J J x z J t.e.x H K B.Z.I.C.m.b.m.U.U.b.v.V.C.V.C.C.V.",
"U.U.U.I.C.C.Z.C.m.b.b.m.m.U.R.R.B.K G l l 9.9.w.w.w.q.9.z l l l k l z J x x z l z J e.e.x G K V.U.I.m.m.n.m.U.U.b.b.C.C.C.C.C.C.",
"C.C.U.I.m.m.N.I.C.m.b.b.C.U.Y.U.S.H.L G k z 9.w.9.9.9.x j j l l j b m m l l l n n E g.a.z N C M.C.I.m.b.b.m.U.U.U.Z.I.I.I.I.I.I.",
"V.C.C.C.n.b.C.I.I.m.m.m.n.I.Y.Y.U.S.H.L G k J 9.9.J 9.x m m m m m m m m m m m j.j.k.l.l.U G C C.U.I.m.b.m.C.C.U.U.U.U.U.I.I.I.U.",
"U.C.C.C.v.v.I.Y.I.C.m.C.C.C.Y.Y.Z.V.A.P G k l x x l m m j.z.l.l.l.l.z.8.,.,.j.z.l.NXnX6X,.L B.C.U.U.C.b.C.C.C.C.Z.Z.C.m.m.C.C.I.",
"Y.U.U.C.b.b.U.U.I.m.C.C.m.C.I.U.C.V.A.B.L G z l j l z j.8XnXNXNXyX0XmXcXkXj.z.8XBXCXNX9X2.~ B.C.Y.U.C.C.Z.C.C.C.C.C.m.I.I.I.I.C.",
"Y.W.W.R.Z.U.U.I.n.m.m.b.v.b.m.m.V.b.b.x.K L Q k j l l E z.NXBXVXCXAXFXMXxX7.8.vXZXZXNXz.3.P M.M.C.U.C.C.C.C.C.I.C.m.C.I.Y.Y.I.I.",
"U.R.R.W.U.I.I.I.m.m.b.b.v.n.m.C.C.b.v.M.S.H.Q U j g j m z.NXVXCXSXFXFXDXcXkX7XcXZXCXNXz.' ! x.M.C.U.U.Z.m.b.I.I.m.m.I.Y.Y.Y.U.m.",
"Z.C.C.C.N.m.N.I.C.C.m.b.b.m.C.U.C.m.m.Z.E.K.Q c g g g m l.yXVXCXSXSXFXFXmXcXvXmXCXCXBXz.U B A x.M.b.C.Z.b.b.C.C.N.m.m.Y.Y.Y.N.n.",
"C.C.m.m.m.m.N.n.U.C.b.m.m.C.U.U.C.C.C.Z.F.B.G c g g g m p.g.yXVXCXSXFXAXZXNXnXNXVXBXbXz.U a B A x.b.C.C.C.b.C.m.m.I.C.I.Y.Y.I.m.",
"C.C.I.n.n.n.b.b.C.V.b.C.U.U.Y.U.C.m.U.D.G.Z 2 > > = j m p.l.wXyXVXCXSXCXVXiXiXiXiXeXz.,.v y M N C V.C.I.C.m.C.I.I.U.U.U.U.I.N.n.",
"C.C.N.I.n.m.m.C.V.C.V.C.U.Y.U.I.C.C.D.B.Z M ; : : y b m p.p.h.wXyXiXVXVXiXtXiXyXeX5Xk.U i y ; 1 Z x.M.C.m.I.m.C.I.I.U.Y.Y.U.I.N.",
"I.C.m.m.C.I.C.C.C.C.m.C.U.Y.U.Z.C.V.G.L 1 ; : : u y v v m E p.a.h.wXtXiX2XeXwXwX*Xg.a.U i * * 1 N A M.m.m.m.b.m.m.C.U.R.W.W.I.m.",
"C.C.m.C.I.U.C.m.Z.C.V.C.Z.U.Y.R.Z.B.Z 1 # @ & w 6 y i v v b n J p.g.h.:X>XwXh.g.d.e.a.R a t u : M Z B.I.N.m.b.n.m.m.Z.Y.W.W.Y.I.",
"m.C.C.Z.U.U.m.m.C.U.C.C.Z.Y.W.W.S.C - . . . * 6 u u s s i i < j z J y.&Xh.h.-Xg.a.0.E E a e u e ; N x.Y.U.C.m.b.C.C.C.C.W.W.W.R.",
"C.C.Z.U.U.C.b.n.C.U.C.C.Z.Y.W.R.B.Z -   O $ * w w 9 u u u t = = < k p.g.g.d.a.p.J z H c i e u u ; 1 A S.D.C.m.m.I.C.b.C.Y.W.R.R.",
"Y.Y.R.U.U.C.b.m.U.U.Z.Z.Y.Y.U.S.K B .   # * w w w e e e e e % $ 9 0 b R a.k.R n j h < > e w e t w 1 B A c.n.m.m.C.C.b.b.C.U.U.U.",
"R.R.Y.Z.C.m.n.b.U.U.U.Z.R.R.Z.B.Z M .   $ * w w w w w w e 6 % o 8 q v R j.j.b c = = t w w w w e w t 1 B C v.b.b.b.b.b.m.C.Z.U.U.",
"R.Y.U.C.C.b.n.b.C.U.Z.U.W.T.T.P N -   X $ * 6 * 6 e 5 e 8 7 o 3 } o.:.,.6Xz.:.q 9 3 7 4 5 6 w w w : ; M V v.b.b.b.m.b.m.T.R.U.C.",
"R.U.C.n.b.b.v.v.C.U.C.U.Y.E.K.P 1 O + + 5 & % % 5 5 5 5 5 3 o 7 +.%.:.4.9X7X*.q ] 3 3 3 5 6 6 w * & - - V b.b.b.n.m.C.C.U.U.C.C.",
"Y.U.n.n.m.b.b.b.C.I.C.U.Y.E.K.Z ; 4 8 8 3 + X X O + 5 5 5 5 3 8 @.-.:.4.9X7X*.[ } ] 3 o & 6 5 * & - ; N V M.m.n.C.C.U.C.b.v.m.C.",
"Y.I.n.n.n.m.v.b.m.I.C.C.U.S.! F u  .....8 3 X   O O + 5 5 5 7  .$.jX:.4.9X7X*.} | } 3 o % & % $ - - N N x.C.C.N.C.C.U.C.v.n.m.C.",
"W.I.N.N.m.m.m.b.m.m.I.I.D.B.Z F o.+.+.+...8 o o + + + 4 3 7 8 ..jXjX:.4.9Xz.*.} | | 8 3 o X   ; N Z P x.V.V.I.I.Z.C.C.C.b.C.C.Z.",
"Y.U.n.n.C.C.m.m.m.I.U.U.C.C B f O.#.$.+.O.8 % @ + 4 7 8 8 ] ..+.jX-.:.4.9XcX*.} O.| ] 3 $ . . - Y ! G.S.Z.Z.U.U.C.C.b.b.C.C.Z.C.",
"m.m.n.b.C.I.C.C.I.U.Y.T.U.x.N u X.+.+...X.s y t 9 8  ...+.+.+.#.jXjX:.,.9X7X*.| O.| [ 9 = < < c Q !.F.Z.C.C.C.C.C.C.C.b.b.m.C.C.",
"b.b.b.b.C.C.C.C.U.Y.Y.R.Q.x.S r X.X. .X.d a S S u [ O.+.fXfX%.%.hXjX5.z.vX7X*.} | | 8 0 b G U Q ` !.S.Z.C.m.m.m.C.C.m.V.b.V.C.C.",
"b.V.Z.Z.C.C.V.C.U.Y.I.T.^.~.;.o.X.f d f Y Y Z B u [ O.#.%.fX%.#.fXjX7XvXbX7X:.} } [ 9 i H a.z.6Xa.~ B.C.m.m.m.C.U.U.b.b.V.C.U.R.",
"C.C.U.U.Z.C.C.C.U.Y.I.J.~.|.;.;.=.>.,.` / Q ! Z p ] +.#.$.fXfX%.#.5.cXnXnX7Xo.{ } [ 9 c R 4XuX5X4X` G.V.m.m.m.C.R.R.C.V.Z.U.R.R.",
"U.Z.Z.U.R.R.U.Z.T.I.N.J.{.}.lXlX6.xXbX9X3.Q G.Z p q O.#.#.fXgXgX@.5.mXMXbX7.&.q } q 9 h I &XuXyX3.' G.V.m.b.b.C.W.W.Z.Z.U.R.U.Y.",
"Y.U.U.U.R.W.U.C.N.N.T.~.{.lXzXzXxXxXMXqXk./ x.V i { +.#.#.fXgXgX=.7.mXZXvX4.o.q [ [ s v R #X5XeXa.~ B.V.b.m.b.C.R.W.Z.Z.U.U.U.U.",
"W.W.Y.U.Y.I.C.C.m.N.T.].|.}.zXzXxX9XuX0X,.Y K A y [ +.#.fXfXfX-.5.8.mXmX8.:.X.{ | } { i v R 4X4X' ~ B.V.C.C.m.b.I.I.m.I.C.U.U.U.",
"W.R.Y.Y.I.m.m.m.N.N.T.Q.~.{.}.6.@X6X0Xz.,.Y P P i [ +.%.gXgX#.@.4.8.cXxX5.o.X.8 | } { q i k ` a./.!.B.V.U.C.b.m.m.I.m.m.C.C.U.U.",
"R.W.W.Y.I.m.n.m.I.Y.Y.T.J.~.) <.k.k.k.` / Y L W d } +.fXhXgX#.@.>.7.6.6.:.X.e 7 [ } } X.i U ` _.H.K.Z.C.U.I.n.n.m.C.C.m.C.I.C.Y.",
"U.Y.Y.Y.m.b.n.n.I.Y.N.N.I.J.!.' ' ' ` R / ^ ~ F 0 [ O.#.hXfXO.o.&.:.-.-.o.r 4 4 8 [ [ X.D T ` (.^.F.D.Z.I.I.N.n.m.I.C.I.C.Z.C.I.",
"C.I.I.N.C.n.n.n.U.U.I.m.I.D.B.H.).'._.'.' _ ( F d q X.+.#.+.} s s s X.r r 6 4 3 8 8 s d ^ _ ).'.^.K.F.Z.C.C.m.C.I.U.U.U.I.I.C.m.",
"C.C.I.N.N.N.n.n.m.N.m.C.C.C.S.J.^.`.`.4XXX X( T t 8 8 ] | | 8 7 e e 5 4 5 5 4 7 9 s s F <.XXXX'.^.K.Q.F.V.C.C.C.Z.Y.U.U.U.C.I.m.",
"I.I.I.I.U.m.m.b.m.m.C.C.U.U.A.K.^.'.+X+XXX2._ T t % 7 7 8 7 % % t t O X & * w e X.s y S (  X.XXX).^.K.Q.C.C.V.Z.U.Y.Y.U.C.N.I.U.",
"m.N.Y.Y.I.m.m.m.m.C.C.U.U.D.J.^.`.`.oXoXoX).( D : % 4 3 4 % O # p 1 ; . & w w e X.d t S ( .X.X.X).).[.Q.D.C.V.Z.R.R.U.C.I.N.I.U.",
"m.m.Y.Y.C.C.m.C.U.I.m.C.Z.D.^.^.).XXoXoX+X) D , : & & 5 5 % O ; S D M , : & * e u s 1 S ( .X.X.X.XoX`.^.D.C.Z.Z.W.W.U.I.U.I.Y.I.",
"m.C.U.Y.C.C.C.I.Y.Y.I.m.C.S.^.). X XoXoXoX( 1 # # # & w w w % : F ^ F a ; O * w e t , S (  X.X.X.XoX`.^.A.m.Z.R.W.W.U.C.U.I.I.Y.",
"I.Z.U.C.b.b.C.Y.Y.W.Y.I.m.A.!.). X XXX XXX^ ,   % : * w w w * t T / ^ S ; O & w w w ; M ^ 2. X X.XXX'.^.A.C.Z.R.R.Y.U.U.I.I.I.I.",
"Y.U.Z.C.b.V.C.Y.Y.W.T.I.m.M.!.).XX X2. X X^ ;   O & * w w e w p Y T T S ; O & w w w w p D <.1. X.XoX'.^.A.C.Y.Y.U.Z.Y.Y.I.I.I.N.",
"W.W.Z.C.C.C.n.N.Y.Y.U.I.m.A.!.). X X X X X<.t     O & * w w e t p S Y S * X & 6 w : : w p F ^ 1.XXXX'.~.A.C.Y.W.Y.R.R.U.Z.C.m.b.",
"W.R.C.C.C.I.n.n.m.Y.Y.Y.m.A.!.). XXX X X X( S : . @ $ : * 6 w e > p Y D : @ * 6 w w 5 w t S T (  XXX`.].D.m.Y.W.R.R.R.R.Z.Z.C.b.",
"U.U.C.b.Z.C.C.m.I.U.W.W.I.M.!.).XXXX X X X<.T D p 1 $ * # & w w $ , D D > $ % % 5 w e e y a F T ) ).^.Q.N.I.Y.W.U.U.R.R.Y.I.C.C.",
"Z.C.m.C.C.Z.C.C.I.U.W.W.U.T.J.^.'.XXXXXX X X1.( U Y a 1 , t t u t p T F p $ & & & w w r s a D W ~ ^.].Q.D.m.Y.R.Z.Z.U.Y.U.U.C.b.",
"U.Z.C.C.U.U.C.C.C.C.U.R.Y.T.T.Q.[.[.XXXXoX.X X2.1.^ T T Y Y T U T T ( ^ S , : & & : : e e S T ( ~.K.Q.U.m.m.I.Y.C.C.I.U.W.Y.b.v.",
"C.U.I.C.I.C.C.m.m.C.C.C.U.U.T.T.Q.Q.].`.'.'.XX). X)._ _ _ _ 1.1._ _ 2._ Y S p p p 1 p M M F W !.^.A.A.m.n.n.C.C.C.C.n.U.R.R.b.b.",
"n.m.I.I.C.b.m.b.b.n.b.m.C.C.U.T.I.T.Q.Q.[.[.[.`.'.'.). X.X.X2.2.2.2..X)._ / ( / ^ ^ W ! W ! x.G.A.V.n.c.n.n.v.m.m.C.m.I.U.U.Z.C.",
"v.m.I.C.b.n.m.n.v.n.b.b.b.m.N.N.N.I.T.Q.Q.].[.[.`.'.oXoX+XOX2.2..XOXoXXX X2.2. X X X).~.~.~.M.b.V.M.c.c.c.n.c.m.m.m.m.m.I.U.Y.U."
};
