/* XPM */
static char *out[] = {
/* columns rows colors chars-per-pixel */
"64 64 248 2 ",
"   c #0D0A17",
".  c #0E1314",
"X  c #101312",
"o  c #111613",
"O  c #151B14",
"+  c #16191A",
"@  c #161C1C",
"#  c #191D1D",
"$  c #331813",
"%  c #192A0E",
"&  c #1B2816",
"*  c #1A231C",
"=  c #28231B",
"-  c #232C1D",
";  c #392A16",
":  c #25331D",
">  c #28381A",
",  c #140D28",
"<  c #141424",
"1  c #161C22",
"2  c #181E22",
"3  c #16182B",
"4  c #1A1433",
"5  c #191838",
"6  c #281B26",
"7  c #271B38",
"8  c #1A2224",
"9  c #1F2B27",
"0  c #1E2529",
"q  c #1E2532",
"w  c #232B24",
"e  c #21262B",
"r  c #252928",
"t  c #392828",
"y  c #2B3725",
"u  c #343826",
"i  c #272637",
"p  c #2C3536",
"a  c #31303A",
"s  c #421712",
"d  c #4A2615",
"f  c #592D17",
"g  c #593715",
"h  c #602F12",
"j  c #683616",
"k  c #733C14",
"l  c #492B25",
"z  c #51352C",
"x  c #663727",
"c  c #6A3425",
"v  c #2D4C15",
"b  c #2C4718",
"n  c #35581A",
"m  c #376C0C",
"M  c #36780A",
"N  c #3A6717",
"B  c #3B7414",
"V  c #374728",
"C  c #3A5624",
"Z  c #394B34",
"A  c #534515",
"S  c #4C5A16",
"D  c #545717",
"F  c #674417",
"G  c #7C4313",
"H  c #784618",
"J  c #71591A",
"K  c #476719",
"L  c #4C7212",
"P  c #467A18",
"I  c #577819",
"U  c #636715",
"Y  c #70791B",
"T  c #564B2F",
"R  c #42562C",
"E  c #485A33",
"W  c #664529",
"Q  c #72552B",
"!  c #6E4837",
"~  c #744635",
"^  c #49682C",
"/  c #4B7529",
"(  c #517629",
")  c #4C6733",
"_  c #556A3A",
"`  c #59753B",
"'  c #6D7331",
"]  c #1B1B44",
"[  c #1F2251",
"{  c #282646",
"}  c #2F334D",
"|  c #262856",
" . c #332E5C",
".. c #292B66",
"X. c #29366B",
"o. c #34376D",
"O. c #41374F",
"+. c #2F4451",
"@. c #195B78",
"#. c #344673",
"$. c #2D6976",
"%. c #514F4E",
"&. c #4B4959",
"*. c #6F564C",
"=. c #526240",
"-. c #5D7541",
";. c #637D43",
":. c #716952",
">. c #4B4767",
",. c #59526A",
"<. c #645C66",
"1. c #506869",
"2. c #716861",
"3. c #75706E",
"4. c #864A16",
"5. c #924E16",
"6. c #895619",
"7. c #975619",
"8. c #A85B18",
"9. c #866C19",
"0. c #9B611D",
"q. c #A8661C",
"w. c #B46A1B",
"e. c #A6741D",
"r. c #B7721D",
"t. c #8F552A",
"y. c #916F2A",
"u. c #A46B26",
"i. c #AB7626",
"p. c #B77B26",
"a. c #B37638",
"s. c #C27A1F",
"d. c #C57E20",
"f. c #92684E",
"g. c #95775A",
"h. c #A67554",
"j. c #897A70",
"k. c #A77661",
"l. c #2A8E00",
"z. c #3D880A",
"x. c #359400",
"c. c #329405",
"v. c #3B9600",
"b. c #359A00",
"n. c #3D9A00",
"m. c #3E900A",
"M. c #3EA100",
"N. c #448C0B",
"B. c #49890A",
"V. c #558D0A",
"C. c #429603",
"Z. c #439C00",
"A. c #499E01",
"S. c #44930A",
"D. c #4A960A",
"F. c #4C9B0A",
"G. c #53990A",
"H. c #498717",
"J. c #578815",
"K. c #4A9614",
"L. c #569718",
"P. c #678717",
"I. c #73891C",
"U. c #6D9B19",
"Y. c #45A100",
"T. c #4BA301",
"R. c #4EA801",
"E. c #4FA10A",
"W. c #51A602",
"Q. c #53A901",
"!. c #58AA05",
"~. c #58A116",
"^. c #54882A",
"/. c #539027",
"(. c #559424",
"). c #5B8436",
"_. c #6A942F",
"`. c #628B38",
"'. c #669836",
"]. c #68A229",
"[. c #668345",
"{. c #688546",
"}. c #658942",
"|. c #6B8946",
" X c #679040",
".X c #7E8371",
"XX c #888629",
"oX c #89883D",
"OX c #978D31",
"+X c #B18F33",
"@X c #BA8839",
"#X c #C98725",
"$X c #D79628",
"%X c #D0952F",
"&X c #DB9C2C",
"*X c #CA9637",
"=X c #E09F2A",
"-X c #CAA239",
";X c #DCA334",
":X c #E2A42E",
">X c #E5AB36",
",X c #E9B33D",
"<X c #8F834E",
"1X c #BE8549",
"2X c #A29441",
"3X c #948A7B",
"4X c #AB8768",
"5X c #BA9278",
"6X c #AAA27F",
"7X c #CC9248",
"8X c #D3AA4D",
"9X c #EDB944",
"0X c #E6B64F",
"qX c #E7B848",
"wX c #F1BE46",
"eX c #CE9768",
"rX c #C89679",
"tX c #D7AD72",
"yX c #E7B670",
"uX c #F2C34D",
"iX c #EDC251",
"pX c #F3C854",
"aX c #F4CC5A",
"sX c #2E3785",
"dX c #303A8F",
"fX c #3C4682",
"gX c #187488",
"hX c #2191A0",
"jX c #639A94",
"kX c #938F88",
"lX c #A79D8B",
"zX c #BB9E87",
"xX c #A39A91",
"cX c #A9A08C",
"vX c #B1A992",
"bX c #9BB0A4",
"nX c #C99D82",
"mX c #D3AC8A",
"MX c #DDB696",
"NX c #E5B586",
"BX c #E5B998",
"VX c #DCBDA4",
"CX c #B8C0BE",
"ZX c #ECC29A",
"AX c #D6C4B3",
"SX c #EECCAF",
"DX c #CFD3C9",
"FX c #ECDAC7",
/* pixels */
"Q.R.R.T.T.R.Q.Q.W.T.T.A.A.A.T.A.C.v.n.Y.Y.E.!.U.XXXXoXoXXXXXoX<XoXoXoX_.|._.~.E.n.n.E.Y.M.M.n.Z.v.x.l.l.n.Z.v.n.R.R.T.Z.b.v.Z.T.",
"R.R.Y.Y.T.R.W.W.T.T.Z.Z.Z.A.Y.Z.Z.v.n.C.G.L.U.U.OXOX2X2XOXOXOX2X2X2X2XoXoX_.U.U.V.F.E.R.M.M.n.n.v.b.c.x.n.Z.n.Z.T.R.Y.Z.v.b.Z.T.",
"Y.Y.n.n.T.T.Y.Z.n.Z.Z.Z.Z.Z.Z.n.v.n.Z.G.J.P.Y OX2X8X8X0X-X-X-X-X8X8X-X-X2XOXOXOX9.I.V.!.E.Z.n.b.v.n.n.Z.Z.A.Z.T.W.R.C.n.n.n.Y.Y.",
"Y.Y.n.Z.T.R.Y.n.v.n.Z.Z.Z.Z.n.v.C.C.F.V.Y y.i.+X8X0XaXpXqX,X,X,X0X0XiXqX8X+X-X+X+XOXI.G.E.A.b.x.b.n.Z.A.A.Z.Z.Y.A.A.Z.n.n.n.n.M.",
"M.Y.Y.R.R.R.A.Z.Z.Z.T.Z.C.v.Z.Z.C.V.J.I.y.p.%X,XiXpXaXaXuXuXuXuXiXpXaXpXiX0X8X8X-X+XOXU.L.F.b.x.x.x.Z.A.Z.Z.b.b.M.Z.M.n.n.n.n.M.",
"Y.T.Q.Q.R.T.T.Z.T.Z.Y.Z.v.Z.Z.C.A.V.I.y.+X#X>X,XuXaXaXaXpXuXpXpXaXpXaXaXpXpXuXiX>X-X+XXXI.K.c.b.b.v.Z.A.Y.n.n.b.n.n.Z.Y.Y.M.n.n.",
"Q.Q.!.Q.Z.Z.Z.Z.Z.Y.n.b.v.n.Z.C.V.P.Y e.#X$X:X,XuXuXuXuXuXuXuXuXuXuXuXuXiXiX,X>X;X;X%X+XI.( S.b.v.Z.T.R.Y.Z.Y.T.Y.Y.Z.n.Z.n.n.b.",
"Q.Q.!.Q.Z.n.C.Z.Y.Z.n.v.v.v.n.D.V.I.9.r.#X$X:X:X,XuXuX,XuXwXwXwX9X,X,X>X>X>X=X$X&X$X%X@XY I N.n.v.Z.T.W.T.T.Q.Q.R.Y.n.n.Z.n.v.v.",
"A.W.!.Q.Z.C.Z.C.Z.Z.Y.Z.Z.v.C.B.I 9.OXs.#X$X=X=X:X:X>X>X,X,X,X,X>X>X:X&X%X#X#X#X#X#Xd.i.9.U V.T.Y.Y.T.R.Q.Q.!.!.Q.T.Z.v.C.n.v.v.",
"Z.T.Q.Q.T.Z.v.v.Z.T.Q.Q.Z.n.Z.B.U Y r.s.#X#X#X#X:X:X:X:X>X>X:X;X:X:X$X#X#X#Xd.p.s.r.u.0.J U V.R.Y.Y.T.R.R.!.!.!.W.T.A.C.C.Z.x.b.",
"C.A.Q.Q.Z.C.v.Z.R.Q.!.Q.W.A.Z.B.U 6.w.s.s.s.s.d.$X=X=X=X>X:X#X#X;X;X#X#X*X*X@Xi.q.7.4.H J ( G.W.T.T.R.R.R.R.W.W.W.T.T.R.T.T.v.x.",
"Z.C.W.Q.A.Z.Z.A.Q.Q.!.Q.W.A.A.B.U H q.w.w.w.w.s.#X$X$X$X&X#Xr.+X-X;Xp.+X*X*Xp.i.q.5.G F J I G.T.T.Z.R.R.T.T.Y.T.Z.A.W.Q.T.Z.v.v.",
"v.C.T.T.T.R.T.A.W.W.W.T.C.A.T.V.D H 7.w.8.w.8.w.s.#X#X#X#Xp.0.u.%X%Xi.0.+Xp.u.0.e.q.G F U I G.T.Z.T.T.T.Z.C.A.Z.Z.Z.T.T.C.v.n.n.",
"C.Z.Z.T.T.R.W.W.T.T.T.Z.Z.C.T.V.D g 4.7.8.8.8.w.w.r.w.w.q.7.6.7.i.i.0.7.7.q.6.7.r.q.G F U J.F.Y.Y.Z.Y.Z.n.v.Y.Z.v.n.A.A.v.v.n.Z.",
"T.Z.T.Z.Y.T.T.T.Z.Z.Z.Z.n.Z.R.V.D h k 5.8.8.8.8.8.5.4.4.G H k k 6.7.4.G 4.G G 4.q.u.6.J J.G.W.Y.Y.Y.Z.n.b.v.Y.T.v.x.C.Z.Z.Z.Z.Z.",
"Z.T.T.T.Z.Z.Y.Z.Z.v.v.n.n.Y.R.V.D A h k 5.8.8.5.5.4.k h h h h h k k k k j j j H u.u.J U J.E.E.Y.T.T.n.b.x.n.T.T.Z.C.Z.Z.C.T.Z.Z.",
"C.Z.T.Z.n.n.n.Y.Y.n.n.n.n.Y.T.G.I D g h 5.5.5.4.G k c c f f c c c j j f f z x c h.h.Q D B.C.Z.Z.T.T.M.b.b.n.Y.R.T.A.T.Y.Y.Z.T.T.",
"C.Z.Y.Z.b.v.Y.Y.Y.Z.n.n.Z.Y.T.G.J.I A h G 4.G k k c c c ~ x x x ! ! x f ! x f.f.h.4XQ D B.C.C.Z.R.T.n.b.n.Z.Z.T.T.T.T.Y.Y.Y.Y.Y.",
"T.A.Z.Z.x.n.Y.R.Y.Z.n.Z.n.Z.T.E.G.L A g h k h j c c f.k.k.k.h.g.j.3.*.~ f.g.5XrXrX4X' ( B.C.Z.Z.R.T.n.n.Z.Y.n.Y.A.A.Z.n.Z.Z.Z.Y.",
"R.R.T.Z.v.n.Y.T.Z.n.Z.n.n.Z.T.T.F.J.S g g h h h c ~ k.rXnXnXrXzXbXkX<.*.j.zXmXMXrX4X;.( B.v.Z.C.R.T.Z.Z.Z.Y.M.n.Z.Z.Z.n.Z.Y.Y.Z.",
"W.Q.Q.W.Y.T.T.Y.n.b.n.Z.x.v.n.n.C.C.L K D g h h c c k.nXtXNXBXAXDXbX3.<..XxXVXMX5X<X;.( B.v.b.n.Z.T.A.A.Z.n.Y.Y.n.M.Y.Y.R.T.T.T.",
"R.W.W.Q.T.Y.Y.Z.n.n.n.n.x.b.n.Y.C.C.x.P S A d d s c k.rXNXBXSXSXDXCXkX3.kXvXVXMXrX<X' H.B.v.x.x.Z.T.T.Z.C.v.Y.Y.n.M.T.R.Q.R.T.Z.",
"Z.A.Z.Z.Z.n.n.Y.n.Z.Z.v.v.C.Y.Y.Z.Z.v.N.L S d $ s c f.eXmXBXSXSXFXDXxXkXkXvXVXMX5X4X' ( C.v.x.x.v.v.C.Z.n.v.Z.n.n.n.Z.T.R.R.Y.n.",
"Z.Z.n.n.n.b.n.n.n.Z.C.Z.C.A.T.R.Z.Z.C.C.L S ; $ s c t.1XrXNXBXSXSXAXnXlXcXmXMXNX5Xf.' ^ P m.z.x.b.v.Z.Z.n.n.Y.Y.n.Z.Z.Y.R.T.M.n.",
"Z.Z.Z.n.n.v.v.v.Z.C.v.C.T.T.Y.Y.Z.Z.K.H.^ b = $ l c t.h.7XeXNXBXSXZXNXtXtXtXyX8Xf.Q R V K B m.v.v.n.n.Z.n.Y.Y.Y.Y.T.Y.T.T.T.M.n.",
"Z.Z.Y.M.n.v.Z.v.C.Z.C.Z.T.R.T.Y.n.C.K.H.n > = = l c t.u.a.7XeXyXZXyXyX0X8XeX8X@Xy.W u y v N z.m.v.n.Z.Z.Z.n.n.n.Y.Y.T.R.R.T.M.M.",
"Z.Z.n.n.Z.Z.Z.Z.Y.A.Z.Z.T.T.T.A.C.N.P N > & # r t z c t.t.u.a.7X0X0X9X7X7X1Xa.a.y.Q u 0 w b B m.v.v.Z.M.n.n.n.n.n.Z.T.Q.Q.Q.Y.M.",
"n.n.n.Y.Y.T.n.M.Y.Z.C.Z.A.T.R.T.C.N.N b - # # r 7 l l f k H 0.i.$X;X$X#X@Xa.u.u.0.Q u 8 8 > N z.m.v.Y.Y.n.n.v.v.n.Z.Y.W.Q.Q.T.Z.",
"Z.n.Z.Z.R.T.n.b.Z.Z.Z.Z.A.T.W.W.D.B v & & * 8 e t i t ; t d c 4.u.#Xr.@X@Xa.7.6.6.W p r 8 9 b N z.x.A.R.T.Z.n.n.Z.Y.Y.Y.Q.Q.R.T.",
"C.Z.Z.A.R.Y.b.b.Z.Y.Z.Z.T.W.Q.A.N.m > * @ 8 8 0 e e w r 6 $ s f 6.u.i.u.u.y.H F F z r r q 9 V v M x.A.R.Y.Z.v.n.Z.Y.n.n.R.Q.R.T.",
"R.R.R.T.T.Z.v.n.Y.T.Y.A.W.W.T.D.H.n & O @ 8 8 8 2 8 e e 8 # 6 l x t.y.f.Q A g d u u r 0 9 9 8 b m N.C.Z.n.b.n.n.n.Z.n.v.Z.Y.T.W.",
"Q.Q.T.T.Z.Z.b.v.T.R.T.R.Q.Q.T.B.N b & O 1 8 8 8 e e e e # < 7 { z *.j.f.! l ; r - 9 8 9 q q 8 : N z.C.n.v.b.b.n.v.v.v.n.Z.Z.T.W.",
"Q.T.Y.n.C.C.x.v.Z.T.T.R.Q.W.T.P v % & 1 8 8 8 8 8 8 0 8 @ 3 |  .O.*.3X3X%.a 7 6 8 8 8 8 9 9 8 & v M l.b.n.n.n.b.n.n.v.n.T.W.T.Z.",
"R.T.M.n.v.C.x.v.Y.Y.T.T.Q.W.B.L > @ 1 1 8 1 8 1 8 8 8 8 @ 0 X.o.&.2.cXkX,.{ ] 5 3 1 8 8 8 8 8 & : v z.n.n.n.n.n.n.n.n.Z.T.T.Z.Z.",
"R.Y.b.b.n.n.x.v.Z.Y.Y.T.R.D.M v % . @ 1 1 8 1 8 8 8 8 1 . 3 X.o.>.2.cXxX,. .| 5 1 @ 2 8 8 8 8 @ % % M x.n.n.n.n.n.Z.T.T.n.n.n.n.",
"R.Y.b.b.b.n.b.v.n.Y.Y.Z.R.C.m v % % & @ 1 1 1 3 8 1 1 1   3 X.#.&.2.cXxX,. .| [ 3 . @ 2 1 2 8 & % > M b.n.n.M.M.Z.Z.T.Z.v.v.n.n.",
"Q.R.M.b.n.n.n.x.b.M.Y.Y.Y.v.z.N n : & @ < < , < 1 1 1 + + 5 X.fX>.2.lXxX,. ...| 3 . . . o O & > v m z.C.C.Y.Y.R.T.A.Z.C.Z.Z.Z.n.",
"T.Y.M.M.Z.Z.b.b.b.M.T.R.Z.Z.N.z.z.n b * 3 5 ] ] 3 < < < , ] sXfX&.2.lXxX,. ...| 5 8 @ & % : v n N H.D.C.C.T.T.T.A.C.Z.n.Z.Y.Y.Z.",
"n.n.x.b.Z.Y.n.n.Z.T.Q.Q.W.A.C.m.c.B v : q [ ....] 5 , , 4 { X.#.&.2.lXxX,. ...| i 9 b V n N / H.G.G.E.Z.Z.C.C.C.A.Z.n.v.n.Z.Z.Z.",
"v.v.v.v.Z.Z.C.Z.T.R.Q.Q.W.R.A.Z.c.l.B n } ..sXsX..[ 5 i O.>.>.&.%.2.vXxX<. . . .p Z C B B H.L.L.~.W.T.Z.Z.v.Z.Z.A.Z.C.v.v.n.Z.Y.",
"v.Z.A.T.C.Z.C.Z.T.R.R.R.Q.R.R.T.M.m.K./ +.} fXdXdXo. .%.j.kX3X2.*.:.lXlX3.>. .| p n B H.K.G.F.T.W.T.C.Z.v.v.Z.A.T.T.n.v.C.A.R.R.",
"C.C.T.T.T.C.C.Z.T.R.Y.Y.R.R.W.R.Y.E.K.^.^ +.X.sXdX#.&.2.lXvXlX3X2.2.3XxXj.,. .{ V n M D.A.T.T.T.T.Z.n.v.v.v.Z.A.W.T.Z.Z.T.T.T.R.",
"T.A.T.T.W.W.R.A.C.Z.Y.T.Z.T.R.T.Y.E.M.K.H.Z } [ .. .<.g.vXvXjXjX1.1.3.j.3.<.{ q r v B D.T.W.T.Z.v.v.v.v.v.b.b.n.W.W.A.Z.R.W.T.A.",
"R.R.T.T.Q.Q.T.Z.Z.n.T.T.T.A.T.T.M.M.c.S.z.n 9 5 7 } *.g.6XbXjXhX1.1.<.<.2.,.i 5 0 y B D.G.W.A.Z.n.n.v.v.v.v.b.n.T.W.A.T.T.T.T.A.",
"Q.Q.R.T.R.T.Z.Z.n.Z.T.W.W.T.T.Z.n.n.Z.C.z.n &   , 6 x :.2.jXhXhXhX$.#.>.+.%.{ 5 4 y N G.G.W.T.R.R.T.Z.v.Y.Y.n.n.Z.Z.v.Z.Z.T.T.T.",
"Q.Q.Q.R.T.Z.C.v.n.Z.T.R.W.T.Z.n.v.Z.C.S./ n %   , 6 z T =.$.hXhX@.@.X.X.} p ] ] 5 w K V.G.E.R.R.Q.W.T.C.Y.Y.n.b.v.C.n.n.Z.Z.Z.T.",
"T.T.Q.Q.Y.n.x.x.Z.Y.Y.T.T.A.n.n.Z.Z.A.S.H.n *   4 7 t z T %.@.gX@.| X.| q q ] ] 5 i C P D.A.W.R.T.T.T.A.T.Y.n.b.n.Z.Z.Z.Z.Z.T.T.",
"Y.Y.Q.R.Z.v.x.x.Z.T.Z.Z.Y.Z.n.n.C.F.F.H.P v o   4 7 7 t l } +.+.} p i 5 8 3 5 5 4 0 C P K.G.G.E.A.A.T.T.T.Y.b.b.Z.Z.Z.Z.T.T.Y.T.",
"Y.Y.Y.Y.Y.n.b.b.n.Y.C.Z.Z.Z.n.n.K.~.]._.^ > o   , 5 4 7 7 { } } %.Z e o @ < , 4 , 6 V ^ ^.(.K.K.C.Y.R.T.T.Z.n.n.Y.T.T.Y.T.T.M.M.",
"M.Y.Y.Y.Y.n.b.b.Z.Z.Z.Z.Z.C.n.K.L.'.'.`.C : o   < < 4 5 5 7 a T E E = X . + < 3 < # : R ).'./.H.K.E.T.T.Z.Z.Z.Z.T.R.T.T.T.Y.M.M.",
"n.n.T.R.Y.Z.b.n.n.Z.Z.Z.Z.E.K.(.).`.` E u & @ @ 1 3 3 < < e Z =.-.E - O . o 1 1 < + # > ` }.).).(.K.W.A.Z.v.v.Z.T.W.R.Y.b.M.Y.Y.",
"n.M.R.R.Y.n.n.n.Z.C.Z.Z.Z.E.(./.`.` ) V - * 8 8 # 1 # # w y =.-.;.=.y & o . @ 1 @ + o - E ` ` ` /.L.F.Z.Z.C.v.Z.T.W.T.Y.M.M.Y.T.",
"n.Y.Q.W.Z.Z.n.Z.E.T.Z.C.Z.G.(.).) R u - * @ 1 8 + + # - V E -.;.[._ u w X X + 8 2 @ + & V C C R ( J.C.n.v.Z.Z.R.Q.Q.T.Y.Y.T.T.T.",
"n.Z.R.W.Z.n.Y.Y.R.R.Y.Z.Z.K.^.` R > & O @ * 8 @ + O * u E -.;.[.[.;.E u O . + * 8 1 @ * y u u V R P N.n.v.Z.T.Q.Q.Q.T.Z.R.R.R.Y.",
"Z.Z.Z.Z.v.n.Y.R.Q.Q.T.Y.b.K.^.) > & O @ 8 8 @ @ X o > R ` ;.[.[.[.;.` T - X O * 8 8 2 0 p p w w V n N.Z.v.n.T.Q.W.T.Y.T.T.Y.Y.Y.",
"R.T.Z.Z.v.n.M.R.Q.Q.E.Y.n.H.^.^ : O o o 8 1 8 @ X O u R -.;.[.[.{.{.[._ > O O O @ 8 8 e p r 9 w V S D.E.n.n.R.Q.T.T.T.T.T.Y.Y.M.",
"Q.W.Z.Z.Z.n.b.M.Y.T.R.R.M.S.^.) : O & @ * 8 8 @ @ # y V _ ;.;.{.{.{.;.=.V - o o @ 8 8 8 8 9 8 y R / K.T.n.n.Q.!.Q.W.W.R.A.A.Z.n.",
"Q.W.Y.Z.Z.Y.n.b.M.T.R.R.n.K././ V : * O @ 8 8 1 1 * w u E ` ;.{.{.{.;.-.E u O o @ 8 @ * @ 8 y V / /.F.Y.M.Y.Q.Q.Q.W.W.W.A.Z.n.v.",
"T.Z.n.C.A.A.Z.M.M.T.Q.Q.Y.m.(./.^ V w * * 1 8 8 8 8 r p V E ;.{.|.{.;.;._ V - & @ O @ . & y Z ^ ^.L.E.Y.n.Y.Q.Q.R.T.W.W.R.Y.Z.Z.",
"Y.Z.n.Z.A.T.Z.Z.Y.T.Q.Q.T.C.K.(.^.^ V w 8 * * 8 8 9 p p u E ;.|.|.{.[.;.` _ V > : : 9 : : b ^ ^.(.K.E.Y.n.Y.R.Q.A.Z.T.W.R.T.Z.v.",
"T.Y.Z.Y.T.T.Z.Z.Z.Y.T.T.T.E.A.K.K.^.) E : * * * * 9 w u E _ ;.|.|.[.[.[.{.;._ _ E C Z E E ) ^.L.K.F.T.Z.n.n.T.T.Z.Z.Z.T.W.T.v.x.",
"Y.Y.Y.Y.Y.Y.Z.n.n.Z.C.A.E.Y.Y.C.K.(././ C b > y y y V Z _ ;.{.|.|.|.[.[.{.{.[.;.-.).).` ^.^./.K.S.n.Z.Z.b.b.Z.Z.C.Z.Z.Y.W.W.C.x.",
"b.n.Y.Y.M.n.v.v.n.b.v.v.Z.D.Y.M.n.K.K.L.H.^.^./ / _ _ ` [.|.{.{.|.|.|.}.{.{.{.`. X). X^.H.m.N.m.v.b.x.l.b.b.b.v.n.Z.n.Z.T.R.T.Z.",
"x.n.Y.Y.n.n.v.x.x.x.b.v.v.n.M.Y.n.M.E.E.].(.'.'.`.).}.[.|.|.{.{.{.{.|.|.[.{.}.}.'.'.'.'.K.c.l.c.x.x.l.l.l.x.x.b.n.n.n.n.Y.T.T.T."
};
