/* XPM */
static char *out[] = {
/* columns rows colors chars-per-pixel */
"64 64 247 2 ",
"   c #0A0E0E",
".  c #100F16",
"X  c #0D1213",
"o  c #0E1118",
"O  c #141B15",
"+  c #151718",
"@  c #12161C",
"#  c #151C1C",
"$  c #181E1E",
"%  c #331A17",
"&  c #1A2617",
"*  c #1B231C",
"=  c #1C3211",
"-  c #27231C",
";  c #222B1E",
":  c #34251C",
">  c #26381A",
",  c #180E25",
"<  c #151826",
"1  c #191F21",
"2  c #191A36",
"3  c #241A2A",
"4  c #271C36",
"5  c #1B2224",
"6  c #1E2922",
"7  c #1E2529",
"8  c #1D2137",
"9  c #232D24",
"0  c #292827",
"q  c #21262A",
"w  c #22292B",
"e  c #2C3423",
"r  c #2A3825",
"t  c #35312F",
"y  c #363929",
"u  c #28253A",
"i  c #4C2A11",
"p  c #582B19",
"a  c #593717",
"s  c #663615",
"d  c #723B13",
"f  c #473628",
"g  c #503228",
"h  c #6A3A25",
"j  c #743C27",
"k  c #2C4E13",
"l  c #2B4719",
"z  c #335717",
"x  c #35670E",
"c  c #35720E",
"v  c #3A760C",
"b  c #376316",
"n  c #38482A",
"m  c #3A5533",
"M  c #37642A",
"N  c #534F13",
"B  c #794516",
"V  c #6D5016",
"C  c #476818",
"Z  c #576414",
"A  c #467A12",
"S  c #557518",
"D  c #716E19",
"F  c #574529",
"G  c #45562A",
"H  c #484A34",
"J  c #465633",
"K  c #565130",
"L  c #754625",
"P  c #774939",
"I  c #705631",
"U  c #546C28",
"Y  c #58742A",
"T  c #4D6537",
"R  c #556A39",
"E  c #546B3A",
"W  c #59733D",
"Q  c #6A6A32",
"!  c #1D1B46",
"~  c #211D47",
"^  c #1E2555",
"/  c #262448",
"(  c #31304E",
")  c #3B354A",
"_  c #272758",
"`  c #35355A",
"'  c #272868",
"]  c #2C3266",
"[  c #363769",
"{  c #292B74",
"}  c #282B75",
"|  c #2D3377",
" . c #383B77",
".. c #463C56",
"X. c #463F71",
"o. c #2F6948",
"O. c #37446D",
"+. c #31776E",
"@. c #494855",
"#. c #715449",
"$. c #5B7942",
"%. c #746B4A",
"&. c #627D42",
"*. c #474565",
"=. c #4D4B70",
"-. c #5B5B74",
";. c #536E6A",
":. c #72666B",
">. c #706D71",
",. c #874A15",
"<. c #934E16",
"1. c #89571C",
"2. c #965719",
"3. c #A55B18",
"4. c #8C681A",
"5. c #99621B",
"6. c #A9651B",
"7. c #B46B1B",
"8. c #AD7E1F",
"9. c #B9731D",
"0. c #8E552A",
"q. c #8F6C2B",
"w. c #A66A25",
"e. c #AD7525",
"r. c #B67926",
"t. c #AD7636",
"y. c #C27C1F",
"u. c #C47F22",
"i. c #875943",
"p. c #8E6F51",
"a. c #A46E55",
"s. c #997C64",
"d. c #847676",
"f. c #2B8D00",
"g. c #3B8608",
"h. c #2F9100",
"j. c #359400",
"k. c #3B9600",
"l. c #379A00",
"z. c #3D9A00",
"x. c #3E920B",
"c. c #3FA100",
"v. c #44890A",
"b. c #49880B",
"n. c #54880B",
"m. c #429503",
"M. c #439D00",
"N. c #4A9E02",
"B. c #43940B",
"V. c #48970A",
"C. c #4C9B0B",
"Z. c #539B0A",
"A. c #4A8914",
"S. c #588B16",
"D. c #4A9715",
"F. c #559816",
"G. c #6C8416",
"H. c #669418",
"J. c #45A100",
"K. c #4BA401",
"L. c #4DA801",
"P. c #51A602",
"I. c #53A901",
"U. c #56A608",
"Y. c #5DA418",
"T. c #568B25",
"R. c #599428",
"E. c #5D8936",
"W. c #439530",
"Q. c #5E9035",
"!. c #738F28",
"~. c #618939",
"^. c #628B3C",
"/. c #649538",
"(. c #67A432",
"). c #3A9055",
"_. c #2A9171",
"`. c #4E8745",
"'. c #5F8344",
"]. c #648444",
"[. c #688645",
"{. c #648A42",
"}. c #6A8A45",
"|. c #628348",
" X c #699042",
".X c #7B827A",
"XX c #8F8C34",
"oX c #BA8528",
"OX c #B08E34",
"+X c #A1923B",
"@X c #BAA03B",
"#X c #C88727",
"$X c #CD8E2A",
"%X c #D69427",
"&X c #DC9D2B",
"*X c #C99834",
"=X c #D39935",
"-X c #DBA536",
";X c #D1A438",
":X c #E2A52F",
">X c #E4AA36",
",X c #E9B23C",
"<X c #8B8940",
"1X c #968E4D",
"2X c #A98A49",
"3X c #A59542",
"4X c #998975",
"5X c #AC8970",
"6X c #B89A76",
"7X c #C9954E",
"8X c #D6AA48",
"9X c #D4AE4F",
"0X c #EBB946",
"qX c #EEBB45",
"wX c #E4B34C",
"eX c #CE9572",
"rX c #D6AC70",
"tX c #E4B36C",
"yX c #EEC04C",
"uX c #F4C54E",
"iX c #ECC455",
"pX c #F4C955",
"aX c #F4CA57",
"sX c #2E3485",
"dX c #313889",
"fX c #333B92",
"gX c #325786",
"hX c #516C80",
"jX c #1F959B",
"kX c #559A99",
"lX c #758788",
"zX c #92948C",
"xX c #B09A85",
"cX c #ACAA9B",
"vX c #B4AE9C",
"bX c #B6B29E",
"nX c #B1B0A6",
"mX c #D2B08E",
"MX c #CBB49A",
"NX c #E4AB85",
"BX c #E6B788",
"VX c #E6BA97",
"CX c #E8C394",
"ZX c #D1C8B3",
"AX c #E9C7A7",
"SX c #E4D0B2",
"DX c #DED5C5",
/* pixels */
"I.L.L.K.K.L.I.I.I.J.N.N.N.J.J.K.N.z.z.z.J.K.U.Y.(.!.XX<X<X<X<XXX<X<X<X/.!.Y T.F.C.C.U.I.M.k.k.k.k.k.f.f.z.N.k.z.K.L.J.M.k.l.N.K.",
"L.L.J.J.K.L.I.P.J.J.M.N.M.M.J.N.M.z.z.M.K.Z.F.H.!.XX3X3X3X3X3X3X3X3X3X3X<XXX!.H.H.F.U.P.M.m.z.k.j.j.h.j.z.M.z.M.K.K.J.z.k.k.J.J.",
"J.J.z.M.K.K.J.z.M.M.M.M.M.M.M.z.k.m.M.m.D.S.D q.XX@X9X9X;X;X;X;X@X;X8X@X2X3XOXXX4.G.H.I.Z.N.z.j.j.k.m.N.M.N.M.J.K.K.M.k.k.z.J.J.",
"J.c.z.M.K.K.J.z.z.m.M.M.M.z.z.k.k.z.N.Z.S.G.q.oX*X9XiXiXyXqXqXqXyX,X0X0XwX9X*XOXoXXX!.U.Z.K.k.j.j.z.M.N.N.N.M.c.K.J.z.z.z.z.z.c.",
"M.J.L.L.I.L.N.M.M.M.J.J.m.M.z.M.m.M.Z.H.G.4.oX=X,XyXaXaXpXpXpXpXpXiXaXaXaXaXwX9X;X*X+XXXH.D.k.j.j.z.M.J.N.z.l.l.z.z.z.J.z.z.l.c.",
"J.K.I.I.L.N.N.N.J.N.J.M.z.m.z.M.M.N.n.G.8.oX$X:X0XuXpXpXpXpXpXpXpXaXaXaXaXaXiXiX,X-X*X+X!.S.x.j.j.z.N.N.M.z.c.c.c.c.J.M.J.c.l.z.",
"I.I.I.I.M.M.M.M.J.M.z.j.k.k.M.M.N.n.S D oX#X&X:X0XyXuXuXuXqXuXuXqXqXqXqXqX0X0X,X:X-X:XOXq.S b.k.z.M.L.P.N.z.J.J.J.J.M.z.z.z.z.k.",
"I.I.I.I.M.m.z.M.J.z.z.z.k.k.m.M.N.n.D 4.oX%X%X&X>X,XqX,X,X,XqXqX0X0X,X>X>X-X-X&X&X%X&XoX4.Z b.N.M.N.I.L.J.N.L.I.L.K.z.k.z.z.z.j.",
"K.P.I.U.N.M.m.m.M.J.J.J.M.k.M.m.n.G.4.6.#X%X#X%X&X:X:X:X>X,X>XwX>X>X:X&X$X$X#X$Xu.#X#Xr.1.Z n.P.N.J.L.L.I.I.I.I.I.J.m.m.z.z.j.k.",
"J.N.U.P.N.m.z.z.M.K.I.I.M.M.M.V.m.D 4.6.y.#Xy.y.%X&X&X&X:X:X:X>X-X-X&X%X#Xu.u.u.y.7.7.2.B N n.I.N.J.L.I.I.I.I.I.I.K.M.M.M.z.z.j.",
"M.J.I.I.N.z.k.m.L.I.I.I.K.N.m.m.b.D 2.3.7.y.7.y.%X%X%X&X&X&X=X$X=X*X$X$X$X*X*XoXw.2.2.,.s N n.N.N.J.L.P.I.I.P.P.N.N.L.L.J.J.z.j.",
"M.J.L.P.N.m.z.M.P.I.I.I.P.N.N.m.b.S ,.<.3.7.3.y.y.%X#X%X%X$Xu.u.oX#X#X#X#X*X#XoX6.2.,.B a N n.N.N.J.L.P.P.I.K.N.N.N.P.P.L.M.l.j.",
"m.M.M.N.K.L.K.L.I.I.L.K.N.J.K.N.A Z V ,.3.3.3.y.y.y.y.y.7.7.7.7.r.oXoXoXr.e.e.e.e.6.1.B F Z n.P.N.M.J.J.M.M.M.M.z.M.L.J.M.z.z.m.",
"M.M.N.J.K.I.I.L.K.J.J.N.M.J.L.C.v.Z N d <.3.3.3.y.7.3.3.3.<.3.0.1.5.w.w.5.5.5.5.w.6.2.B Q S Z.K.J.M.J.c.z.z.M.M.k.z.N.N.m.k.z.M.",
"N.J.J.J.J.J.J.J.N.z.m.M.z.M.P.Z.A N s d <.<.3.3.3.3.<.d d d d d B B B B B d d B 1.0.1.D G.H.P.P.L.J.z.l.l.z.J.N.k.k.m.M.M.m.m.m.",
"K.J.L.J.M.N.J.N.z.z.z.z.z.J.P.P.v.Z i s d <.3.3.3.<.d d s s p p p s B s p s s h 0.q.0.D n.I.K.J.K.J.z.z.j.z.K.K.m.k.m.M.M.M.M.M.",
"N.J.K.J.l.z.z.J.J.z.z.k.z.J.L.P.D.S N i d ,.,.<.<.,.d h h h g g h j j j h h j i.a.p.I Q S.M.M.J.L.L.c.l.k.z.J.J.N.N.J.J.J.M.J.J.",
"M.N.J.M.z.j.z.J.J.z.z.z.J.J.L.P.Z.n.N N s d B ,.d j j 0.i.i.P #.i.#.#.j j #.p.s.6X5Xi.Q A.m.z.z.J.J.z.k.z.z.J.J.N.N.L.J.J.J.J.K.",
"N.N.M.z.j.j.J.L.J.M.z.M.z.M.K.L.V.n.S Z a s d s p j i.a.s.eXa.s.zXzX:.:.#.p.6XmXmX6X%.Y n.m.m.M.K.K.M.z.M.J.J.M.M.M.J.M.M.M.N.N.",
"J.N.J.N.z.M.J.L.N.z.M.z.z.z.J.J.M.B.A.S N a s p p h i.eXNXNXNXMXbXcXzXd.:.d.MXAXVX6Xp.Y A.M.z.z.K.K.M.M.N.J.M.N.z.J.J.J.J.N.J.N.",
"L.P.I.P.N.N.L.J.z.j.z.M.k.j.z.z.z.k.x.v.S K a i i p P a.eXNXVXAXZXZXcXlX>..XMXAXVX6X&.S v.m.z.z.J.L.N.M.z.M.J.J.z.c.J.L.K.K.J.J.",
"K.L.P.L.J.J.J.N.z.k.z.z.j.k.z.M.k.l.j.v.S.D i i p p j a.eXBXVXAXDXDXnXcX.XzXMXAXmX6X%.U b.x.j.l.J.J.M.M.k.z.J.J.z.c.J.L.L.L.J.J.",
"N.N.M.M.z.J.c.c.M.M.z.k.z.M.J.J.M.z.z.M.Z.n.k % % p j a.eXBXCXAXDXDXZXnXxXxXBXBXmX5Xp.U S.x.j.j.l.z.M.M.m.z.M.z.z.z.M.J.L.L.J.l.",
"M.z.z.z.l.l.l.z.M.m.z.z.N.J.L.J.M.M.N.N.N.A > - % p j i.7XtXNXVXAXSXZXZXbXrXrXrX6X5X#.F C g.x.j.j.k.M.M.m.M.M.J.M.z.M.J.L.L.J.l.",
"M.M.J.l.j.j.z.m.z.z.k.m.J.L.J.J.z.M.K.C.A z > : : p j 0.t.7X7XtXVXVXBXtXtXtX9X7X2Xq.H t n z g.B.k.z.M.M.z.J.J.J.J.J.N.K.L.L.z.l.",
"M.z.J.M.z.z.z.z.M.m.m.M.L.P.K.N.z.M.n.A.z > 9 - t g h 0.0.w.a.7XtXtXtXwX9X7X8Xa.e.I f 0 > l c x.m.z.M.z.M.z.z.M.J.J.K.L.L.L.J.z.",
"J.M.z.M.N.J.M.M.J.N.M.M.J.K.L.J.m.m.A.C > & * q 3 t g h h ,.0.w.u.=XwX8X7Xu.u.r.e.q.f q q > z v g.z.M.J.z.z.k.z.z.M.J.P.I.I.J.z.",
"J.M.z.M.J.J.M.z.J.N.m.m.N.L.K.K.m.v C > & + 1 5 0 4 4 g g p s ,.2.r.=X=Xu.y.w.w.6.I f w q 9 l z v k.M.J.z.k.k.k.M.M.N.L.I.I.K.J.",
"z.z.M.N.J.J.z.l.z.M.z.m.N.L.I.P.V.v > O O $ 5 5 q 0 0 0 0 : % i B 1.e.e.9.w.5.0.1.V e q 7 6 = k c k.M.K.J.N.k.z.J.J.z.N.I.I.I.L.",
"M.M.N.J.K.K.z.j.M.J.M.M.K.P.I.Z.b.x =   O - 5 5 q q q q q q + % i I q.t.w.0.L h s f 0 q w 7 * = c f.V.K.J.z.z.z.J.J.z.z.L.I.I.P.",
"L.L.K.K.N.N.j.z.K.L.N.N.P.I.P.V.A z & X # 5 5 5 1 q q q q 7 < 4 t @.4Xa.P g g : : 0 9 7 w 7 5 = k c v.M.z.z.k.k.z.M.k.z.c.J.K.L.",
"P.P.L.N.N.M.k.z.L.I.J.J.P.I.N.b.x k & X $ 1 5 1 1 q q q q q 2 ~ / -.zX5X#.g 4 3 1 5 7 7 7 w 5 & l x v z.k.j.j.k.k.z.j.z.J.J.J.L.",
"I.K.J.M.M.m.k.z.K.L.K.J.P.P.D.g.k = # # # 1 1 1 5 5 5 5 6 8 ! ^ ( -.cXxX:.../ ~ < < < 5 7 7 5 5 = k c k.z.z.k.z.j.k.j.M.J.P.J.N.",
"L.K.z.z.z.k.j.z.J.K.N.J.K.P.D.v = O # # 1 # # # 5 5 1 # 5 7 _ ] [ -.nXvX:...' ^ 2 o 5 5 5 5 5 * # = x x.m.z.z.z.z.k.z.N.K.K.N.M.",
"L.J.l.l.z.k.j.k.M.J.M.J.I.U.A.C = O @ < < @ @ @ # 5 1 # O < ^ ] ` -.cXvX:... ._ < o # 5 5 5 # O   = x v x.k.l.c.z.z.J.J.z.j.z.z.",
"L.L.l.j.z.z.j.j.z.z.M.N.K.V.A.m 6 2 2 2 < @ & 1 # # # # X 2 ' | [ -.cXvX:...X.] 5 O 5 5 5 5 & = = k x g.k.z.c.c.M.N.J.J.j.j.z.M.",
"L.K.z.l.z.z.j.j.z.z.J.J.C.g.b m ^ ] | ^ 8 1 > > & @ @ < , ! ] O.[ -.cXvX:.*. .[ t r 5 * * 6 > n x c v.m.M.N.L.J.N.M.M.m.z.M.J.M.",
"K.J.z.z.M.M.z.l.l.J.K.L.M.g.z r ] | gX| ! 6 l l & o < 2 2 _ | dXO.-.nXvX:.*. . .m z 9 6 ; l z v v.M.N.N.N.N.J.J.N.M.z.z.N.J.M.N.",
"z.k.j.k.M.J.M.z.N.L.I.I.L.v.z n ] | dX| 8 r z k & 2 ! ^ _ { dXfX=.>.vXvX:.*. .O.o.m e y G T.A.F.Z.P.P.P.N.M.z.J.z.M.m.z.z.z.M.M.",
"k.k.k.z.M.J.M.N.J.P.I.I.L.x.l u [ =.gXO.( n c b 6 2 ^ ' { | dXfX-.d.bXvX:.@.O.` m G f H R T.F.U.U.I.L.J.M.z.z.z.M.N.m.k.z.z.M.J.",
"j.z.M.N.M.m.m.N.K.I.K.L.K.v.z r @.=.>.>.J J C b 0 / { sX} } } X.:.s.MXnX:.......f H #.Q K R D.J.L.J.N.M.z.z.z.z.J.J.z.k.M.N.J.K.",
"z.M.K.K.N.M.M.M.K.K.J.K.P.v.l n @.>.4X4Xp.R Y M ) ' dXdX} { ' X.d.xXvXzX-...` ( g P p.p.K U b.N.N.N.M.z.z.z.z.N.P.L.M.z.N.J.P.I.",
"N.N.K.P.P.I.K.J.J.J.J.J.K.x.M o..XzXbXMX6X1X%.m ` ' dXdX} ' ' X.d.zXzXlX*.) ( u g q.1X2XQ G A.M.z.k.m.z.j.k.k.M.P.P.N.N.K.P.P.P.",
"L.K.L.L.I.I.L.J.z.x.K.K.C.A.o.+.jXkXMXmXmX4X#.` _ { dXdX| } '  .-.lXlXhX....~ t F I 2Xp.I G A.N.z.z.k.z.m.k.k.z.L.P.N.N.N.K.L.P.",
"I.I.P.K.J.J.N.z.z.z.J.P.x.W._.jXjXkXzX6X6Xs.H u / { dXfXfXsX} ' =.-.=.O. .] 4 3 f I q.q.I G b.K.L.J.M.z.z.z.z.z.M.N.M.z.N.J.J.L.",
"I.I.I.L.N.z.z.k.l.c.K.P.D.W._.jXjXjX.X1Xs.%.y 7 / ' | fXfXfX} ' ) ..` ] [ _ , % e F I D K C n.K.I.P.M.m.J.J.z.z.z.m.z.z.z.N.J.K.",
"L.L.I.P.M.k.j.z.J.J.J.J.M.W.)._.jX+..Xp.#.K y t 4 ~ { sXfXsX' ! 3 3 4 2 u 4 , , : f F K S S.Z.L.P.K.J.J.L.J.l.l.z.M.z.M.z.N.K.K.",
"J.K.I.L.z.k.j.j.J.J.J.c.J.D.W.).+.;.%.%.K H n y u 4 _ ' } ' ! 2 + . @ < 1 1 @ < - y H R H.F.U.L.N.N.N.L.J.J.c.l.z.J.J.M.J.N.J.J.",
"J.J.J.J.M.k.j.l.J.J.J.z.J.M.D.W.`.`.&.W R K H J H t / ~ ! ! , , @ $ 1 5 q q 1 9 y H R W Q.R.F.N.N.N.K.J.J.M.z.M.J.K.J.K.J.J.M.z.",
"J.c.J.J.N.M.j.z.z.N.z.z.M.N.B.D.Q.'.'.$.W W $.$.H t 4 < , < o o < 1 1 7 q q 1 w H T W [././.F.D.C.N.K.J.M.M.M.M.J.K.K.K.K.N.M.c.",
"c.J.J.K.J.M.z.j.z.M.M.N.J.J.B.D.R.Q.{.}.&.&.&.R n e 5 @ o X X + $ 1 5 7 7 5 1 9 H T &.[.}.^.E.Q.R.F.Z.N.m.m.k.z.K.L.J.J.J.z.J.L.",
"z.J.L.L.J.M.k.z.z.z.M.N.K.C.B.D.Q./.}.}.}.[.&.$.n ; O + X X X X $ 5 5 5 5 5 * 9 n R &.[.}.}.}.^.R.F.V.M.z.z.z.M.L.I.L.N.z.J.J.L.",
"z.J.P.I.J.M.l.c.J.J.J.M.N.C.D.R.Q.{.}.}.}.[.W T y & O + + #   X # $ 5 5 5 5 $ ; n T $.&.].[.[.{.Q.S.V.z.k.z.N.K.I.I.J.N.J.J.L.L.",
"l.J.L.L.M.z.c.J.L.L.J.M.M.V.R.Q.{.}.}.}.}.^.W J e O # O # +     o $ 1 5 5 1 # & y G J E &.].[.}.E.T.V.z.j.z.J.P.I.I.K.N.L.L.J.J.",
"N.N.J.M.z.l.J.L.I.I.K.J.z.B.R.Q.|.}.}.}.}.&.T n - $ O # # X     X @ # 1 1 $ @ # 5 e r n E ~.{.{.E.R.U.J.z.z.L.I.L.K.K.K.J.J.J.J.",
"J.K.N.z.z.z.J.J.I.I.L.J.z.x.T.E.|.&.[.}.}.Q J e ; O $ $ # + X     X @ $ 1 1 < 1 5 * - e T '.'.{.^.R.Y.J.z.z.L.I.K.K.L.L.J.M.c.J.",
"I.P.N.M.M.c.c.c.J.L.K.J.z.B.T.E.'.|.|.|. XW y & $ * 1 5 1 # + X X X + 5 5 5 1 5 0 t 5 r T $.'.|./.R.U.L.c.z.L.I.L.L.P.K.N.M.z.k.",
"I.L.J.M.N.z.l.l.c.J.I.P.z.B.T.E.'.'.|.}.}.E > O # $ $ * $ $ O O     O # 1 5 5 7 0 0 5 r T $.'.|.^.R.C.J.c.J.L.I.P.L.P.K.K.N.z.z.",
"K.N.M.z.M.M.z.z.c.J.I.I.M.x.D.R.{.{.|.|.|.W n & O O + # + + # X     X # # 5 1 5 5 5 5 r E $.'.Q.R.R.U.J.z.J.L.I.K.K.P.P.K.N.M.M.",
"N.N.z.z.M.N.J.M.c.K.U.I.J.C.D.R.Q. X X}.|.W m l ; & ; 9 & 9 & - & & & - * # # # $ 5 e m $.'.{.Q.R.Z.U.K.z.c.L.I.N.N.K.P.P.J.M.z.",
"J.J.J.J.J.J.N.M.M.J.K.K.K.K.U.F.R.Q. X X}.].W R G m G G H J J J J n y e * O # O # ; m E '. X/.R.D.K.K.J.z.z.L.L.J.J.N.J.I.L.m.j.",
"J.J.J.J.J.N.z.M.z.M.M.N.K.K.J.D.F.R.(.Q./.{.^.].W W E E R W R W E R T J r r e e > n E E.Q.Q.R.W.C.z.M.M.j.z.J.J.M.z.M.J.P.P.M.z.",
"z.z.J.M.z.z.z.z.k.j.k.z.m.M.J.M.C.D.Y.(./.(.(. X^.^.].&.[.^.].&.&.&.$.W E T T T U Y E.Q.D.x.x.x.x.j.j.f.j.j.l.z.z.z.z.J.K.L.N.N.",
"k.z.z.c.z.j.z.j.j.j.j.k.z.M.z.J.l.J.K.Y.(.(.(.(. X X}.}.}.}.].].[.}.[.].|.].].^./.Q./.R.D.j.g.j.j.j.f.f.h.h.j.l.l.l.l.z.N.J.L.J."
};
