/* XPM */
static char *out[] = {
/* columns rows colors chars-per-pixel */
"64 64 248 2 ",
"   c #0B0D13",
".  c #0F0D14",
"X  c #0C0D1B",
"o  c #0E1214",
"O  c #0E1018",
"+  c #111515",
"@  c #161A16",
"#  c #11141B",
"$  c #151B1B",
"%  c #191D1D",
"&  c #311B17",
"*  c #1B2E10",
"=  c #1A2815",
"-  c #1C231C",
";  c #232C1C",
":  c #342E15",
">  c #26371B",
",  c #130E23",
"<  c #0E1023",
"1  c #191E21",
"2  c #151528",
"3  c #191738",
"4  c #241C38",
"5  c #1C2224",
"6  c #1F2920",
"7  c #1F242A",
"8  c #232C23",
"9  c #292827",
"0  c #21262A",
"q  c #23292B",
"w  c #2A3526",
"e  c #353828",
"r  c #322F35",
"t  c #461C12",
"y  c #472713",
"u  c #542C11",
"i  c #572A18",
"p  c #593516",
"a  c #643014",
"s  c #683615",
"d  c #733B14",
"f  c #773B16",
"g  c #4D3228",
"h  c #683525",
"j  c #6D3829",
"k  c #284315",
"l  c #305612",
"z  c #325617",
"x  c #39750C",
"c  c #396917",
"v  c #397012",
"b  c #37482A",
"n  c #3A5329",
"m  c #384A35",
"M  c #3A6423",
"N  c #504D12",
"B  c #544815",
"V  c #6B491A",
"C  c #7A4315",
"Z  c #695814",
"A  c #4F7213",
"S  c #467A16",
"D  c #776813",
"F  c #484D31",
"G  c #465834",
"H  c #515131",
"J  c #77422B",
"K  c #724E33",
"L  c #517125",
"P  c #4E6636",
"I  c #55693A",
"U  c #5A753C",
"Y  c #7B7B24",
"T  c #716D37",
"R  c #1C1B42",
"E  c #1C1D4A",
"W  c #1D1F52",
"Q  c #231C48",
"!  c #251F51",
"~  c #1F2354",
"^  c #2A274A",
"/  c #272454",
"(  c #22245C",
")  c #353150",
"_  c #262B66",
"`  c #293269",
"'  c #393967",
"]  c #283574",
"[  c #313778",
"{  c #45384E",
"}  c #36454D",
"|  c #3D465F",
" . c #24536B",
".. c #324B73",
"X. c #524B48",
"o. c #5D5357",
"O. c #755347",
"+. c #61545B",
"@. c #5E7B41",
"#. c #637D41",
"$. c #6E7F42",
"%. c #787049",
"&. c #78675B",
"*. c #4F4E68",
"=. c #454C77",
"-. c #556D6E",
";. c #6E6A6E",
":. c #7D6F61",
">. c #7E7B77",
",. c #864916",
"<. c #914C15",
"1. c #8C5419",
"2. c #975719",
"3. c #A65B18",
"4. c #97641D",
"5. c #867C1D",
"6. c #A7651B",
"7. c #B36A1B",
"8. c #BB741D",
"9. c #8E5630",
"0. c #9A6826",
"q. c #907131",
"w. c #A46D23",
"e. c #AC7726",
"r. c #B87C26",
"t. c #B67737",
"y. c #C27B1F",
"u. c #C47E21",
"i. c #885A48",
"p. c #8E6C4E",
"a. c #96755C",
"s. c #AC7648",
"d. c #977A65",
"f. c #A97F65",
"g. c #278B00",
"h. c #398609",
"j. c #2D9400",
"k. c #359500",
"l. c #3B9600",
"z. c #369A00",
"x. c #3C9A00",
"c. c #3E930C",
"v. c #3EA000",
"b. c #458A0B",
"n. c #56890A",
"m. c #429504",
"M. c #439D00",
"N. c #499E02",
"B. c #469708",
"V. c #44950A",
"C. c #4A940B",
"Z. c #4C9C0B",
"A. c #55960B",
"S. c #539B0C",
"D. c #498815",
"F. c #5B8818",
"G. c #4B9714",
"H. c #559918",
"J. c #698C16",
"K. c #699816",
"L. c #45A100",
"P. c #4BA301",
"I. c #4DA901",
"U. c #4CA009",
"Y. c #51A602",
"T. c #53A901",
"R. c #58A806",
"E. c #59A218",
"W. c #568C2A",
"Q. c #589727",
"!. c #5E8C35",
"~. c #5D8838",
"^. c #5E9333",
"/. c #758B23",
"(. c #728B2C",
"). c #619C2A",
"_. c #638939",
"`. c #638C3D",
"'. c #659936",
"]. c #64923B",
"[. c #5DA326",
"{. c #65A431",
"}. c #658444",
"|. c #698646",
" X c #668943",
".X c #6A8A45",
"XX c #738944",
"oX c #699241",
"OX c #868D1B",
"+X c #888A2A",
"@X c #958826",
"#X c #84813B",
"$X c #9B8D3A",
"%X c #BA8728",
"&X c #AE8F37",
"*X c #C88827",
"=X c #D28F25",
"-X c #D4962B",
";X c #DA9A2B",
":X c #CA9834",
">X c #D09631",
",X c #DFA12E",
"<X c #CBA23C",
"1X c #DAA537",
"2X c #E2A32C",
"3X c #E4AA35",
"4X c #EAB33D",
"5X c #888640",
"6X c #958E44",
"7X c #B38B59",
"8X c #8E836E",
"9X c #918870",
"0X c #9C897B",
"qX c #AF8E72",
"wX c #C8944B",
"eX c #CBA644",
"rX c #D7AC51",
"tX c #E3AE48",
"yX c #EAB845",
"uX c #F0BE47",
"iX c #C39477",
"pX c #D4A973",
"aX c #E4B36C",
"sX c #F1C24C",
"dX c #EEC556",
"fX c #F4C955",
"gX c #F4CA56",
"hX c #303887",
"jX c #1D5886",
"kX c #324286",
"lX c #19718F",
"zX c #1E8DA1",
"xX c #5A9092",
"cX c #7DA89A",
"vX c #889083",
"bX c #A0A09D",
"nX c #B6AF90",
"mX c #C79E81",
"MX c #D0AC8E",
"NX c #E7B88A",
"BX c #E1BC97",
"VX c #D1BBA6",
"CX c #E5C391",
"ZX c #D5C7A3",
"AX c #E8C5A8",
"SX c #E8D1BB",
"DX c #BCC6C0",
"FX c #D6D2C7",
/* pixels */
"Y.Y.I.I.P.I.T.T.T.Y.L.N.M.L.L.P.N.l.M.M.Y.R.R.K.@X+X(.XX5X5X5X$X5X#XT /.F.A.H.U.m.x.P.P.M.m.M.x.z.j.j.j.l.M.l.x.I.I.P.M.k.z.N.P.",
"I.I.P.P.P.I.Y.Y.I.P.N.N.M.M.L.N.M.M.l.B.A.K.K./.%X&X6X6X6X$X$X6X6X$X$X(./.K.K.K.G.Z.U.I.M.M.l.x.l.k.k.k.x.x.x.N.I.I.N.M.k.l.L.L.",
"L.L.z.v.P.P.P.x.l.x.M.N.M.M.l.l.l.l.l.b.F.+X@X&XeXeXrXeX<X<X<X<X1XeXeX&X$X+X$X+X(.H.Z.P.N.N.x.l.z.z.m.N.M.N.M.L.P.P.M.l.x.z.M.L.",
"L.L.z.L.P.P.L.x.x.x.M.L.L.M.l.l.l.m.C.F.Y q.%X:XyXdXsXsX4X4X4X4XuXyXrXrX<X<X&X&X@X/.H.S.P.N.x.k.k.x.N.N.N.N.M.v.P.N.M.l.x.x.x.L.",
"M.L.P.Y.Y.Y.L.M.x.x.N.P.M.M.l.M.M.n.F./.@X%X2XuXdXgXgXfXfXsXsXfXgXdXdXdXdXrXtX<X&X@X/.K.Z.N.l.k.k.l.M.N.N.M.z.z.v.x.x.x.x.M.x.M.",
"L.P.T.T.P.P.N.N.L.M.L.M.M.x.M.m.S.J.5.e.*X,X4XsXgXgXgXfXfXfXfXfXgXgXgXgXdXsXsX3X-X&X+XK.S.L.x.z.k.l.N.N.M.M.v.v.x.x.L.L.L.v.l.l.",
"I.Y.T.T.N.M.M.M.L.v.x.z.l.l.M.A.S.J.@X%X;X2X4XuXgXfXsXsXsXsXsXuXdXsXsXsXyX4X3X2X,X:X&XOXS.I.M.l.l.l.P.P.M.M.L.P.P.P.M.M.v.x.x.x.",
"I.I.T.T.M.l.l.M.L.M.x.x.l.l.M.A.D OX%X=X;X,X2X2XdXsX4XsXsXsXuXuX4X4X3X3X1X,X-X-X;X:Xe.5.A.P.N.M.M.N.I.I.N.N.I.T.I.P.L.x.v.z.x.l.",
"N.I.T.T.N.l.l.M.M.L.P.N.l.l.B.n.D 4.*X=X=X=X;X2X3X4X4X3X3XyXyXyX3X2X-X=X*X*Xy.*X%X%X4.D n.P.P.P.L.L.P.P.T.T.R.R.I.P.M.m.l.z.l.x.",
"M.P.R.T.N.l.x.l.N.I.T.T.N.M.B.F.D 2.%X=Xy.8.=X=X2X2X2X2X3X3X3X1X3X;X=X%X*X%X7.7.e.w.1.D n.N.Y.Y.L.N.I.I.T.T.R.T.Y.P.N.M.M.x.l.z.",
"m.N.T.T.N.l.l.l.P.T.T.T.Y.Y.Z.A Z <.7.y.7.7.=X=X;X2X2X2X3X1X:X*X,X;X*X*X>X*X6.2.2.1.C Z n.N.P.Y.P.L.I.Y.I.I.I.Y.P.P.P.P.P.N.x.k.",
"l.N.Y.Y.P.M.M.P.T.T.R.T.Y.S.A.F.Z C 3.7.3.7.8.*X=X=X-X-X;X=Xr.t.>X-X%Xr.>X%X4.1.1.,.d N n.N.Y.P.N.P.I.I.P.P.P.L.N.N.P.Y.P.N.l.z.",
"M.M.L.P.P.I.Y.Y.T.Y.Y.N.M.N.A.A N d <.3.3.7.7.y.7.7.y.*Xu.u.6.w.:X*Xw.6.e.e.4.1.6.2.V N n.R.I.P.N.L.P.P.L.M.L.M.l.N.P.P.l.l.M.M.",
"M.N.M.N.P.I.Y.T.I.N.N.M.m.m.S.A u a ,.3.3.3.7.3.3.3.3.3.7.3.,.1.e.e.1.,.2.2.1.1.7.4.V N A.T.P.P.N.M.L.L.M.M.L.M.l.l.N.N.l.l.m.M.",
"N.P.N.M.N.N.P.N.M.M.M.m.m.B.R.F.N a d <.3.3.3.3.<.,.,.C f f a h ,.,.f s d V f ,.4.4.L A A.T.P.N.P.P.x.x.z.z.P.L.l.l.m.M.M.m.M.m.",
"L.L.P.L.M.M.N.M.l.l.l.m.M.N.R.n.N u a C <.3.3.<.d d s a a a a a f f s a p j J J 0.4.Z S Z.Y.N.N.P.P.x.z.k.x.P.P.l.l.l.M.N.M.M.M.",
"N.L.P.M.x.l.l.N.M.l.x.x.L.P.Y.A.A B s d <.<.,.f j j j j h i h j j j h h J O.i.i.9.T L A b.N.M.v.P.L.v.z.x.l.P.P.L.L.P.L.L.L.L.L.",
"M.L.P.L.z.z.x.N.L.x.x.x.v.P.I.S.D.N B s ,.,.d s j J 9.J J j i.i.O.O.g j O.a.d.a.p.K L S m.l.x.L.L.I.x.z.l.x.L.L.P.P.L.L.L.L.P.P.",
"L.P.N.l.z.l.L.P.L.M.L.M.l.N.P.Y.A.A B p s a a a J i.f.iXf.0X0X0X>.;.j j d.mXmXqXa.%.L A.m.l.l.L.I.P.L.l.N.L.L.L.N.N.l.M.x.L.P.P.",
"I.P.L.M.l.l.P.I.L.x.x.l.l.M.P.P.Z.S N N a u u u J s.iXmXmXmXMXbXbXvXo.O.vXMXMXmXa.T F.B.m.m.M.M.P.P.L.N.M.L.M.M.M.M.M.l.M.L.P.P.",
"Y.Y.Y.Y.P.N.P.L.x.z.l.M.k.z.l.M.m.b.A A B p y i j i.iXiXMXBXAXAXDXbX=.*.vXVXAXMXd.T D.m.M.l.l.M.L.P.P.N.l.l.M.L.x.L.M.L.L.P.P.P.",
"I.Y.Y.I.P.L.L.M.x.x.M.l.k.z.x.M.m.m.l.S N y y u h i.s.NXNXAXSXSXFXDX;.;.nXZXAXMXa.I D.x.l.l.l.l.v.P.P.N.l.l.M.N.x.x.L.P.I.P.P.L.",
"L.L.P.L.L.x.x.L.M.x.M.z.k.m.L.P.N.M.N.b.N k & t i J s.iXNXBXAXSXSXVXbXf.MXCXBXiXa.T L G.c.l.k.z.x.l.L.M.l.l.M.M.x.v.L.L.P.I.L.z.",
"M.M.M.x.z.x.x.z.M.N.x.l.l.N.P.I.N.M.m.l.l : : t i 9.s.wXpXNXAXAXSXBXmXpXCXaXNXqXi.K P v b.m.l.l.z.x.M.M.M.M.M.N.x.L.M.L.I.I.L.z.",
"M.M.M.x.z.k.l.l.m.M.l.M.L.I.P.P.M.V.D.c k ; ; : h J 9.t.wXpXaXNXNXaXaXrXrXrXpXs.K g e z S G.B.l.l.l.M.M.M.M.L.P.P.P.P.P.P.L.v.z.",
"M.M.M.x.z.x.l.M.M.m.m.M.I.Y.P.N.m.h.c n 6 - 8 e g j 9.0.w.&XwXaXaXaXtXtXeXwXwXs.H r 8 w M S V.l.x.x.M.N.M.M.L.P.L.L.P.I.P.P.L.v.",
"L.x.x.v.M.L.M.M.M.M.m.M.P.P.P.N.b.v k ; - 5 7 9 g g j j C 4.t.wXrXwXwX*X%X%Xe.9.H e q 8 > l b.M.l.x.M.M.x.z.x.x.x.M.P.Y.I.I.L.v.",
"M.M.x.v.P.P.x.M.M.N.l.M.N.P.P.C.S l * = $ - 7 q Q t g i i d 1.w.:X:X*Xr.e.w.4.K H e 9 6 ; > x m.k.l.x.L.L.x.l.l.x.x.L.I.Y.Y.P.L.",
"M.x.x.N.P.P.l.x.M.N.l.M.N.I.R.A.c k = @ $ - 7 q 4 9 9 & & t a ,.0.e.e.w.0.4.C B g e q 0 5 > c h.k.k.M.P.L.x.z.x.M.L.M.L.T.R.T.Y.",
"L.L.N.P.P.L.l.z.L.M.M.N.P.Y.S.n.l * = @ $ 5 7 q 9 9 q 5 # @ t s 0.0.q.9.K V p y e 9 q 0 5 6 l x h.k.L.P.L.L.l.x.L.L.l.N.Y.T.T.Y.",
"I.I.I.P.P.N.z.l.P.I.L.N.T.S.Z.x * * + - $ 1 5 0 q q q 1 . . 4 { O.p.i.K g : : ; 8 0 7 7 5 6 > z h.l.M.L.l.l.l.l.M.M.l.x.M.L.P.I.",
"T.Y.I.N.N.M.z.l.P.P.L.P.T.R.C.c * @ @ @ 5 5 5 7 4 q 0 1 . , Q { &.a.O.O.r 2 % - 5 6 7 7 7 6 - k x c.M.x.l.z.x.x.x.x.l.z.x.L.L.P.",
"Y.I.M.M.N.l.l.l.P.P.N.N.T.S.b.c * o # 5 5 5 5 5 5 5 5 $   < W =.:.8X:.o.^ 3 ,   $ 5 5 7 7 7 $ * v g.z.v.x.x.x.z.x.z.z.l.I.I.N.N.",
"Y.P.x.z.l.M.l.l.N.P.N.Y.T.B.S l * o + - $ 1 % 5 $ 1 $ #   < ( =.>.9Xp.+.) W < X $ 1 5 7 7 5 o = l x c.L.L.x.z.x.x.l.x.M.P.P.L.l.",
"I.P.z.z.x.x.k.l.M.L.N.N.Y.C.c * @   + # # $ # $ 1 $ 2 # X 3 _ =.XXd.;.+.' W 2 , $ 1 5 5 5 $ o = k v m.P.L.z.v.z.l.N.P.N.l.z.x.x.",
"I.P.z.z.l.z.k.l.z.L.N.N.N.m.v k $ X < # 2 $ O o $ $ < < , R _ =.vXvXd.*.' ( 3 , $ 1 $ $ 1 = * k l x m.L.v.x.v.v.L.N.P.M.l.z.x.x.",
"I.I.v.v.x.x.x.x.x.v.L.P.N.l.x z 6 2 R E 3 2 X   o + , 2 R W ] =.>.9X:.+.' _ 3 2 2 1 = $ 6 > n c S C.B.N.M.L.L.P.N.M.M.M.M.M.M.M.",
"I.P.z.z.M.M.l.l.x.L.P.P.N.l.h.z 8 E ~ ( _ E < X O < 2 R W _ ] =.>.8X:.+.' _ R 3 q > > k k n v D.S.Y.P.N.M.L.P.P.N.M.l.l.M.M.N.M.",
"l.x.k.z.M.L.M.l.N.P.I.I.P.B.b.c k ^ ] hXhX] 4 , , 3 W W ( _ ] =.>.0X:.+.' _ R 7 m M M M D.W.V.Z.Y.Y.Y.P.M.v.L.L.N.M.M.l.l.M.M.M.",
"x.l.l.l.M.L.N.M.P.P.I.I.P.P.Z.S n ) ] kXhX[ { r r ^ ) _ _ _ ] =.>.9Xp.+.' ! 3 q M D.c.G.H.G.U.P.I.Y.I.N.x.x.M.M.N.M.m.l.l.l.M.N.",
"l.x.N.N.M.m.M.M.P.P.P.L.I.Y.Y.C.M m ) ] jX..;.+.+.X.F } | ..` =.>.9X:.o.) Q 2 ; c x c.V.Z.P.L.P.P.P.N.M.x.x.x.L.P.L.l.l.m.N.P.Y.",
"x.M.P.Y.N.M.M.M.P.I.N.N.I.Y.T.Z.c.M } ` ..-.vXqX9X|.o.} | | _ =.;.8X&.o.) Q 3 9 z v h.M.N.P.P.L.L.M.m.l.l.x.l.N.Y.I.M.m.M.P.P.Y.",
"N.L.P.P.Y.I.N.N.L.L.P.P.L.P.I.S.c.D.} X.o.d.nXMXnXvXxXjX| ` _ ' ;.:.*.{ ^ Q Q ^ m M h.l.P.I.P.N.z.l.l.l.l.l.l.M.T.T.N.N.N.Y.P.Y.",
"I.P.I.I.T.Y.P.N.x.v.P.P.P.L.P.N.c.D.M P T a.pXCXbXcXxXlX..` _ ' *.*.*.' / Q Q ^ r n h.l.P.I.P.P.x.x.M.l.l.x.x.M.Y.T.N.N.P.P.P.P.",
"T.T.Y.Y.Y.P.M.z.z.z.I.Y.I.P.P.B.l.V.F.L T s.pXpXcXxXzXzXjX] _ _ ' *.kX[ / Q ! ^ r n D.P.I.I.Y.P.I.P.M.l.x.L.z.M.L.L.M.v.N.L.P.P.",
"T.T.T.Y.P.M.x.x.z.v.P.I.I.I.L.x.l.m.Z.F.D p.7X9X|.zXzXzXjX] _ ( / ( [ ] ! Q ! ^ ^ n C.I.Y.Y.P.P.I.I.N.N.P.L.v.z.x.L.x.x.M.N.L.P.",
"I.I.T.Y.M.l.z.z.x.L.L.P.P.P.M.x.l.B.B.H.T $.5XXX-. .lXjXjX_ ! R 3 R ( ( Q 3 Q ^ m n D.U.N.P.Y.Y.P.P.P.P.P.L.z.z.x.M.x.M.M.M.P.P.",
"L.P.Y.P.M.z.k.l.L.P.N.N.L.L.l.x.M.Z.G.H.'.|.%.%.} }  . ._ ( Q 3 , , R R 3 3 4 r m P F.H.S.Z.U.P.N.N.Y.P.P.L.v.z.x.L.L.M.L.L.L.L.",
"L.L.P.L.M.x.z.z.P.P.L.N.M.M.l.m.G.E.[.{.oX#.I H 9 9 4 3 Q 3 3 ,   X 2 2 7 7 7 r G U ^.).).H.G.M.M.N.P.P.L.M.x.x.L.L.L.P.P.L.M.x.",
"L.v.v.L.L.M.z.z.L.L.M.M.l.M.x.G.[.[.{.oX.X@.H b & @ % 2 3 2 ,       # $ 7 7 7 w P _._.'.'.^.G.M.M.N.P.N.M.M.M.M.L.P.P.P.L.L.L.x.",
"v.L.P.P.L.l.l.z.x.x.M.M.M.N.G.Q.^.oXoX.X.X#.P e & @ 1 5 1 2     # 1 # 5 7 7 8 e P @. X.XoX^.Q.G.B.N.P.P.M.m.M.M.P.I.P.L.L.v.L.P.",
"x.v.I.I.L.x.x.x.l.M.M.M.M.U.Q.Q.`..X.X.X.X#.F e % @ 1 2 - # o   # 5 5 5 5 6 8 m P #.}. X X X^.Q.Z.B.P.N.M.l.m.N.I.I.P.N.v.v.L.P.",
"v.v.I.I.L.x.x.L.P.N.M.M.M.C.Q.!.`.}. X.X XU w = + % 1 1 # o   o $ 5 5 # # $ 9 g I #.#.$.|. X X^.H.B.m.x.l.M.N.Y.T.T.P.L.P.P.P.P.",
"z.L.P.P.M.M.M.P.I.I.N.M.x.G.W.~.}. X X|.}.P > o % 1 1 1 o o o + $ 5 5 $ o $ e H @.#.#.#.|.|. X!.H.U.M.x.x.l.I.T.R.Y.P.L.P.P.I.P.",
"N.N.L.L.x.x.L.P.Y.T.I.N.x.c.W.!.}.}.}.}.U G 6 # 1 5 1 $     o @ $ 1 5 $ o - G X.#.|.|.|.|..X X!.H.S.P.M.z.x.P.I.Y.P.P.L.P.P.v.L.",
"P.N.M.l.l.M.L.P.Y.T.Y.L.x.k.W.~.}.}.}.@.P n = $ 1 5 5 $ o   o + $ 1 5 5 $ 8 G @.#.|.|.|.|. X X^.H.U.U.P.x.x.P.I.P.P.P.P.L.L.v.v.",
"Y.Y.M.M.M.M.z.v.P.I.I.L.x.c.W.!.}.}.}.@.b 8 = 1 1 5 5 1 % # + + $ 1 5 5 7 r m m @.@.}.|. X|. X!.E.U.I.P.v.v.T.T.I.I.Y.P.N.M.m.l.",
"T.N.M.M.M.L.z.z.v.L.I.I.l.c.W.!.}.}.}.@.b 6 5 $ 1 1 5 5 1 1 @ + $ $ - 5 q w q m P @.#.|.|.|. X^.H.I.I.P.L.L.T.T.Y.Y.Y.Y.P.N.M.l.",
"P.N.M.l.M.N.x.v.v.P.T.T.L.B.G.^.`.}.}.I b 6 = $ % 5 1 5 0 0 5 @ o   # 5 6 8 w m X.`.|.|. X XoXQ.H.P.P.P.M.L.I.Y.P.P.Y.Y.P.P.M.x.",
"P.P.x.l.N.N.M.M.L.P.T.T.P.Z.Z.Q.~. X X@.n w = $ $ % % % 0 5 % @ $ = = 8 w w e b @.}. X X X X^.Q.Z.L.P.L.x.L.P.I.P.N.P.P.I.L.M.M.",
"P.P.M.L.L.P.N.N.M.N.P.P.I.U.U.H.Q.].oX~.I b ; @ $ $ @ @ % @ + = 9 b F F G G G P }. X XoX X].Q.G.c.x.L.L.x.M.P.P.N.L.M.P.I.P.l.l.",
"N.L.L.L.P.L.M.M.l.M.M.N.P.P.U.U.Q.Q.'.'.~.L b > > 8 w > > > ; e F G I I U U U ~.`.oX!.!.^.Q.C.m.z.z.l.x.x.z.x.L.x.x.M.L.P.P.M.l.",
"l.x.v.L.M.x.x.l.l.z.k.l.l.N.L.P.Z.U.E.[.^.^.W.I P P P P I I P I U @.#.|.|..X X].oX{.^.Q.G.V.c.k.l.k.j.g.j.j.z.x.z.M.M.L.P.P.N.N.",
"x.x.v.v.z.l.z.k.k.k.z.z.l.M.L.L.N.P.R.E.[.{.'.]._.U #.#.$._.}.U }.|..X.X.XXXoX].{.{.[.G.c.c.k.k.l.j.g.g.j.j.k.z.z.x.x.L.L.P.P.P."
};
