/* XPM */
static char *out[] = {
/* columns rows colors chars-per-pixel */
"50 50 252 2 ",
"   c #0C161A",
".  c #152B1E",
"X  c #1B3A1D",
"o  c #243D1E",
"O  c #111D22",
"+  c #15252A",
"@  c #1A3424",
"#  c #193827",
"$  c #1B3B2B",
"%  c #082A38",
"&  c #142831",
"*  c #1B3C34",
"=  c #19383A",
"-  c #243C27",
";  c #233B38",
":  c #313F32",
">  c #1F401D",
",  c #27481A",
"<  c #2F501A",
"1  c #38581B",
"2  c #3B6418",
"3  c #1D4429",
"4  c #1A443A",
"5  c #234324",
"6  c #2A4223",
"7  c #2C4A23",
"8  c #2B442C",
"9  c #274829",
"0  c #34452A",
"q  c #354B29",
"w  c #2B5326",
"e  c #385626",
"r  c #23433B",
"t  c #284738",
"y  c #3C4D33",
"u  c #354938",
"i  c #275736",
"p  c #3A5538",
"a  c #3C632A",
"s  c #3C6735",
"d  c #435D1D",
"f  c #47691B",
"g  c #4E751A",
"h  c #53771B",
"j  c #455C2A",
"k  c #40493B",
"l  c #455839",
"z  c #476627",
"x  c #536B22",
"c  c #4A7329",
"v  c #567826",
"b  c #476438",
"n  c #556939",
"m  c #497738",
"M  c #5A7835",
"N  c #63793A",
"B  c #073548",
"V  c #103749",
"C  c #053B52",
"Z  c #293C43",
"A  c #194A43",
"S  c #074159",
"D  c #1B5050",
"F  c #254942",
"G  c #2B4B44",
"H  c #2B4648",
"J  c #334A46",
"K  c #28534A",
"L  c #385645",
"P  c #34534B",
"I  c #3B554C",
"U  c #3B5B4B",
"Y  c #2E4F55",
"T  c #3B5755",
"R  c #3D5B50",
"E  c #3A6B4B",
"W  c #3B6756",
"Q  c #064B66",
"!  c #10576F",
"~  c #035576",
"^  c #2E5566",
"/  c #316577",
"(  c #465744",
")  c #455B44",
"_  c #435B4C",
"`  c #4B5D4C",
"'  c #555B4D",
"]  c #465757",
"[  c #425C51",
"{  c #486546",
"}  c #4D644D",
"|  c #52634C",
" . c #576948",
".. c #477646",
"X. c #5B7848",
"o. c #456254",
"O. c #4B6354",
"+. c #4B6A54",
"@. c #4C6659",
"#. c #4C6A5C",
"$. c #536553",
"%. c #586756",
"&. c #536B54",
"*. c #546B5B",
"=. c #5A6D5C",
"-. c #4B7358",
";. c #597357",
":. c #5C715D",
">. c #646A4B",
",. c #647948",
"<. c #646B57",
"1. c #63735B",
"2. c #697859",
"3. c #757D59",
"4. c #485D62",
"5. c #496864",
"6. c #546D64",
"7. c #5D7463",
"8. c #587A6A",
"9. c #4D6F71",
"0. c #647463",
"q. c #657667",
"w. c #657A64",
"e. c #6B7A64",
"r. c #6B7D6B",
"t. c #737C63",
"y. c #757C68",
"u. c #697B71",
"i. c #837D69",
"p. c #5B851B",
"a. c #628B1C",
"s. c #6D991D",
"d. c #5C8529",
"f. c #5B8634",
"g. c #648825",
"h. c #6A9629",
"j. c #658637",
"k. c #789334",
"l. c #74A627",
"z. c #57874B",
"x. c #588859",
"c. c #67844B",
"v. c #6B8B4D",
"b. c #768659",
"n. c #5A8C6F",
"m. c #6B8366",
"M. c #6C826E",
"N. c #798667",
"B. c #75836B",
"V. c #7A846C",
"C. c #678575",
"Z. c #6C8372",
"A. c #728573",
"S. c #768975",
"D. c #768A77",
"F. c #7B8A74",
"G. c #7C8C7A",
"H. c #6B9771",
"J. c #7C9477",
"K. c #75A474",
"L. c #8AB425",
"P. c #828B56",
"I. c #84866B",
"U. c #93856E",
"Y. c #879469",
"T. c #838B74",
"R. c #888874",
"E. c #8C8B74",
"W. c #828E7A",
"Q. c #968D76",
"!. c #859375",
"~. c #8B9276",
"^. c #84927C",
"/. c #8B947C",
"(. c #94947B",
"). c #98967C",
"_. c #A49279",
"`. c #95A17D",
"'. c #035D84",
"]. c #0E678C",
"[. c #046B97",
"{. c #29718A",
"}. c #027AAC",
"|. c #057EB2",
" X c #227BA1",
".X c #5E7E88",
"XX c #637B81",
"oX c #0284BB",
"OX c #2F91A8",
"+X c #6C9F88",
"@X c #738D90",
"#X c #4C94B3",
"$X c #7499A5",
"%X c #028CC6",
"&X c #0991CB",
"*X c #0398D8",
"=X c #239DD1",
"-X c #29A1D6",
";X c #01A4EA",
":X c #00ABF3",
">X c #00AEF8",
",X c #01B3FE",
"<X c #0EB6FE",
"1X c #17B7FB",
"2X c #24A7E0",
"3X c #26BCFD",
"4X c #56ADD3",
"5X c #6EB7D6",
"6X c #46BBEE",
"7X c #54BBE7",
"8X c #36C2FF",
"9X c #53D3D5",
"0X c #5EC1EC",
"qX c #4CC8FE",
"wX c #58CAFB",
"eX c #73C9EE",
"rX c #64CCF9",
"tX c #68D1FE",
"yX c #78D5FE",
"uX c #859582",
"iX c #8A9682",
"pX c #8C9A84",
"aX c #89998B",
"sX c #939B84",
"dX c #969B86",
"fX c #9A9C84",
"gX c #889E98",
"hX c #A79D85",
"jX c #97A289",
"kX c #9BA38B",
"lX c #9DA892",
"zX c #A7A68A",
"xX c #B5AA8F",
"cX c #A5AC96",
"vX c #ACAD94",
"bX c #A8B197",
"nX c #ABB29B",
"mX c #B2B49C",
"MX c #B9B89C",
"NX c #90ACAE",
"BX c #AAB6A4",
"VX c #B5BAA2",
"CX c #BABCA3",
"ZX c #AABFB6",
"AX c #C1B69C",
"SX c #B5C5B4",
"DX c #C3C1AA",
"FX c #8DB4C1",
"GX c #ABCCCF",
"HX c #A2CFDD",
"JX c #84D9FE",
"KX c #B6E5F3",
/* pixels */
"f q l k 0 q 6 5 5 , 7 q 6 - 0 : o , , 7 e a.p.< h L.a.f , , , 9 0 e 6 - 0 8 8 - a < , , a < > X X 2 ",
"N ).Q.Q.U.I.y.p W a I.I.t.>.<.e.<.o j t.b.d.d.X.f.s.g 2.l 1 b E.I.y.0.l R.N.y.0. .6 7 b b | o.) 9 < ",
"i.zXxXhXzXvXfX` f >.hXhX).Q.E.R.y.0 k fX(.,./.T.N.X.1./.B.y N.(.E.Y.t.2./.V.F.A.r.8 { m.&.m.:.O.U r ",
"y.zXxXmXvXvXfX` n >.hXhXhXQ.E.i.i.k ( ).(.N.T.V.N.0.S.F.M.8 1.T.T.Y.T.F.e.y.y.y.0.8 x.m.pX&.@.[ K $ ",
"<.fXnXVXnXbXkX| x n hXhXE.R.R.>.k y | jXfXI.q ` } ) l 1.I 6 - ` ~.T.F.B.1.r.0.0.@.- m F.m.:.+.J 4 i ",
">.E.mXmXnXbXkX<.h a.0 0 0 0 0 q q e l N.~.F.m.~.~.F.F.S.M.q { uXV.V.V.e.%.| e.N.t 7 c.;.+.[ ` ; * ..",
" .mXbXBXcXcXlX$.n CXMXMXCXMXMXbXb.X.M I.T.N.2.T.F.S.G.A.q.t &.B.r.r.e.1.B.r.0.6.O.7 f.J.O.p i -.z.v.",
"` ^.iXpXG.q.` u n DXCXCXCXMXMXSX%.z n V.N.e.J.F.B.F.D.Z.q.G L r.q.w.0.w.r.1.=.%.@.- x v.b.c.X.f.a.l.",
"d < 0 0 o q d d N AXCXCXCXVXVXnX&.z  .y.r.%.r.r.M.Z.M.C.8.K 3 F O.U u $.( _ I L G $ 2.mXfX(.T.$.,.f.",
"h P.i.i.i.I.i.N N mXMXVXBXVXBXbX$.b ) O._ - 8 : 9 t 4 t K 3 3 $ $ # . - . @ @ * 4 9 3.vXzXdXsXD.G.L ",
"N AX_._._.Q.i.>.n BXbXnXBXnXBXcX) z j.e b M h.p.g.d.z n  .M M X.l z f f z j j j 1 g N.kXjXaXiXD.7.u ",
">.AXxX_._.Q.U.k l cXjXkXdXcXcXuXi z k.k.l.P.k.k.k.a.Y.AXvXvXzXCXxX<.d P.xXhX_._.( f 2.dXdXpXuXD.D.8 ",
"n hX_.Q.fXi.i.y q ( l ` ` ( y u t z MXxXxXzXzXxXSX0 kXvXvXvXmXvXkX;.q >.hXU.i.i.' 1 >.pX/.F.G.A.Z.G ",
"( hXQ.iXiXE.y.k d z l l y k y , 1 n DXMXzXzXzX).).: 2.T.N.bXbXlXdXdX0 <._.U.U.i.' j l _ L } O.I U t ",
"k i.R.R.R.F.' k n MXMXxXfXvXfX1.e M SXmXmXbXnXnXdXu iXbXkXjXlXsX^.D.: >.Q.Q.R.I.2.1 x j k q q q 7 z ",
"< y ' ' ' ' y - n zXzXhXvXcXkXB.&.S.ZXGXHXKXKXGXGX$XZXZXcXpXD.B.q.7.- <.fX(.R.R.<.q b.vXdXE.t.e.e.8 ",
"h x j b l n x h ,.E.(.vXvXmXNXXXJ H H H Y .XFXKXKXKXKXKXGXcX6.aXuXr.8 <.sX/.R.uX=.e 3.E.i.y.%.0.=.t ",
"M _.AXzXzXhXI.j  .( BXnXGXFX; ^ 4XeX7X*X}.C & $X$X$X$XFXKXKXNXu.@.t r y ( %.=.( J l t.y.y.<.k %.O.r ",
"3.DXhX).)./.1.e I.zXW.GXNXV &XrXyXyXrX1X:X*XC O D ^ Y % Z $XNX@X@X0 1 x f d 1 j { ,.<.t.0.%.0.*.L + ",
"<.zXfXsXsX/.e.y pXcXZX$XV &X<XqXtXJX7XOX~ %  X0XyXtXrX1X*XC   C {.: %.f Y.vXfX(.N.z | 2.=.q.@.o.L A ",
">.kXsXpXuXW.6.` *.gX] Y 4X1X,X3XrX5XV   % }.1XrXJXJXrX6X<X%XB 2X0X/ ] : hXdXsX/.F.e 8 L t r ; $ * A ",
" .t.sXuXuXD.=.] 6.Z / eXwX1X,X1X6XD & Z =X:X3XtXJXJXtXqX1X|.C 6XyX4X& ( kXsXiX^.%.z p.< , X X o , < ",
"e ) ;.r.q.q.] H C #XeXyXtXqX3X<X%X  + 4X6X<X3XwXyXJXJXtXwX].% 7XrX7X{.O u.iX^.G.+.e c j.j b ,.,.c.M ",
"x x x ,.k O + '.;X3XrXJXJXyX3X;XC O / JXrX3X<XqXtXyXJXJX7XV C / 4X4X].O u.W.F.r.n v v.3.F.1.W.~.F.m.",
"n zXN.d.b.H.O.= [.*XwXyXJXyX7X[.Z Z $XJXtXwX<X,X3XwXrX5X/ '.&XS % S % u ( ( ) c g.g.!.pX^.1.F.^.T.7.",
"e.pXpX!.n bXcXaX] & ! 4X5X5X{.Y FX= 4XyXyXrX3X:X;XOX^ C ].&X! / V &XoXI N x v g.g.a.m.^.G.iXF.F.A.;.",
"| ^.A.n :.cXjX} q.@X] t J J u.FXHX& =X4X4X#X XQ B C }.*X;X! 9X9X{.oX*XZ jX).(./.E.2.b @.q.uXD.Z.Z.{ ",
"p F.F.B.p L e.~.e.F.1.pXI.dXdXBXFXO % D Q S Q ~ |.:X>X,X*XD OXOX! &X&XH sXjX^.G.A.=.&.+.7.G.Z.Z.Z.U ",
"u ` I i - 2.(./.N.B.bXzXzX~.(.~.XXZ Z [.:X>X>X>X,X,X,X,X>X;XoX! ! ;X}.] aXuXG.S.A.@.a v.z.;.:...R b ",
"a 7 q l x b.T.F.B.bXbXcXlXjX!.I.aXNXXXV ;X,X,X,X,X,X,X,X,X,X>X;X;X:XQ 4.uXD.S.u.$.u f a.k.v.j.c.j.d.",
"n zXQ.~.Y. .N.N. .} jXjXjX^.F.m.e.q.NXZ %X,X,X,X,X,X,X,X*X>X,X,X,X*XV 6.7.:.&.{ p a N cXzXiXW.G.lX_ ",
"| (.E.dXV.l y.2.^.^.;.uXuXJ.S.w.&.@.] 4.Q >X,X,XqX<X,X,X[.[.;X,X;XQ 6.z g l.L.h p.h /.).R.F.F.B.A.P ",
"3.fXy.<.$.q p A.B.t.w.} A.M.M.*.G $ 4 6.F [.>X,X<X,X,X8X6X{.B ~ '.& iXR.N.X.N.m.X.z B.^.W.F.Z.r.Z.I ",
"2.R.R.uX2.7 e 7.M.q.%.{ _ P ; $ X , 2 h c.Z '.:X,X,X,XqXeX6X}.%   u.A.y.e.%.uX:.O.6 e.W.G.S.Z.Z.C.P ",
"<.R.F.F.e.y x L *.@.P r . X o y ,.c.c.,.v M.6.V '.%X*X-X#X].B J q.r.r.q.7._ L &._ $ 7.D.D.Z.Z.C.J.Y ",
"1.F.S.A.;.p f.7 * $ @ X < j ~.cXsXfX(./.l  ./.@X9.9..XT T ] ] [ O.q.=.%.o.0.} W L @ t [ #.@.@.I r K ",
"` q.r.M. .d.a.h 7 7 s g p.b.vX(.^.W.F.M.8 n T.0.0.=.6.O.O.@.J # L @.@.M.*.+.} o.F @ 1 1 p y u 9 3 5 ",
"e u l b M d.Y.`.jXfX~.3.v ,.iX!.G.F.A.q.8  .u.=.=.$.( @.@.] U $ 7 U 7.@.[ W E K F 4 c X.q.*.[ W L 7 ",
"X.lXiXW.J.b zXfXfX(.dXdX0 b ^.G.A.Z.C.m.8 l 7.*.` ` _ ; T I H r m L @.6.R T K A 4 i X.{ &.] [ P K * ",
"y.uXA.r.=.p /.~./.^.W.G.- { S.S.Z.M.C.6.p e [ o.] T P F * F K D H.+X#.W P T D A E f.z.&.R R I G F * ",
"E q.7.6._ y iXW.^.G.D.A.- q #.o.*.*.#.U w b 4 R U K K 4 % w 4 i v.H.K.8.W E ..z.+Xz.-.-.t F K F i w ",
"6 U U U { { ^.G.G.D.C.M.- f 7 6 - - 8 - 2 v # 4 4 D 4 4 i 2 s d.f.H.z.f.f.g.l.m n.z.p 5 < e 3 i a d.",
"f v j.v d.v D.A.Z.C.Z.C.$ ,.kX/.W.S.w.w.} e m 9 3 3 w c p.d./.!.J.X./.^.J.x. .&.E w v j.j.v c c v d.",
"1.iXlX^.b z n.7.@.C.8.Y 4 N.V.e.=.&.O.[ R 3 x.2.m.N.m.{ v 2.^.B.e.{ 0.w.=.O.[ I H $ :.S.S.2.A.A.7.p ",
"1.dXy.q.{ e - r t I W A 3 1.y.=.%.[ [ T J -  .W.!.F.A.O.e l 0.:.;.=.&.+.[ _ I P K $ %.M.r.=.+.[ U ; ",
"} F.0.=.L 2.b c n.E E s c ) q.@.[ [ I P H # } G.D.A.Z.#.9 u =.%.$.O.u _ I P J K A 3  .q.*.O.[ _ I = ",
"( _ =.+.q.:.O.E { x.GXn.m  .*._ U P G H A * ) D.A.u.Z.W q b p O.] J H G P G G A 3 p ) o.[ [ I P K * ",
"` @.u M.6.o.U P U -.+X+XE &.*.R P G H F ; $ +.G.C.C.u.U w L -.U J F r 4 G F K D E x.O._ T T P J K 4 ",
"w p a 5.R P K Y W x.K.n.x.s 4 i 4 A 4 t p w Z.#.5.6.o.K m J t F = r A A = s i E H.x.i i 4 F r F D 4 ",
"p.a.a 9 W 8.-.E z.f.l.z.H.s , > @ # # # w a X.6.W W W { d.a # & . @ # 3 > a.h.p.m z.s 3 3 9 3 , w c "
};
