/* XPM */
static char *out[] = {
/* columns rows colors chars-per-pixel */
"64 64 241 2 ",
"   c #06090A",
".  c #090C0B",
"X  c #0C120E",
"o  c #0B0C15",
"O  c #0E1312",
"+  c #0F131D",
"@  c #111710",
"#  c #111614",
"$  c #12141C",
"%  c #161D19",
"&  c #151A1C",
"*  c #301512",
"=  c #1B2515",
"-  c #1B2E10",
";  c #1B2917",
":  c #1A231C",
">  c #212B1A",
",  c #332717",
"<  c #263A18",
"1  c #0E0E23",
"2  c #110D26",
"3  c #151526",
"4  c #161B22",
"5  c #1A1E22",
"6  c #13142C",
"7  c #191736",
"8  c #2A1A23",
"9  c #241C38",
"0  c #1B2223",
"q  c #1F2922",
"w  c #1F2428",
"e  c #1F2A38",
"r  c #22262B",
"t  c #272A28",
"y  c #352B2A",
"u  c #2A3627",
"i  c #34392A",
"p  c #282636",
"a  c #33323B",
"s  c #451B11",
"d  c #512F12",
"f  c #5C2B14",
"g  c #643015",
"h  c #673518",
"j  c #733C12",
"k  c #4A352C",
"l  c #653725",
"z  c #693B2B",
"x  c #294616",
"c  c #2C4D12",
"v  c #345A14",
"b  c #39780D",
"n  c #396714",
"m  c #366B10",
"M  c #354628",
"N  c #354C29",
"B  c #3B6723",
"V  c #554517",
"C  c #4E5713",
"Z  c #555C17",
"A  c #664616",
"S  c #7B4716",
"D  c #745318",
"F  c #506D15",
"G  c #477618",
"H  c #67751A",
"J  c #77791A",
"K  c #415925",
"L  c #41522E",
"P  c #464837",
"I  c #564B32",
"U  c #485936",
"Y  c #704E2F",
"T  c #7C4A38",
"R  c #4C6F26",
"E  c #4B6334",
"W  c #566639",
"Q  c #566C3A",
"!  c #596E3D",
"~  c #5A723D",
"^  c #5C793C",
"/  c #647A35",
"(  c #1C1C47",
")  c #1D1F51",
"_  c #241D47",
"`  c #1D2154",
"'  c #282649",
"]  c #342E4F",
"[  c #2A265A",
"{  c #272965",
"}  c #373468",
"|  c #2B2F72",
" . c #2C327B",
".. c #34367A",
"X. c #453A4A",
"o. c #36674E",
"O. c #3C447D",
"+. c #256F6C",
"@. c #4E4A52",
"#. c #514A5B",
"$. c #6B534A",
"%. c #4B6F4D",
"&. c #5C7443",
"*. c #627D42",
"=. c #6F6A5A",
"-. c #534D6B",
";. c #545162",
":. c #43447C",
">. c #635B61",
",. c #746B62",
"<. c #736F71",
"1. c #854A16",
"2. c #934E16",
"3. c #8B5618",
"4. c #975819",
"5. c #A55B19",
"6. c #91691B",
"7. c #A7671C",
"8. c #B46A1C",
"9. c #A4761E",
"0. c #BA751E",
"q. c #89532D",
"w. c #99662A",
"e. c #8D7226",
"r. c #A76B26",
"t. c #AA7526",
"y. c #B77925",
"u. c #AB7439",
"i. c #C27B1F",
"p. c #C37C21",
"a. c #89684B",
"s. c #937251",
"d. c #9C725B",
"f. c #B0794C",
"g. c #887A72",
"h. c #2A8D00",
"j. c #3D8808",
"k. c #2F9100",
"l. c #359500",
"z. c #3B9601",
"x. c #379A00",
"c. c #3D9A00",
"v. c #3C950B",
"b. c #3EA000",
"n. c #46890A",
"m. c #588E0D",
"M. c #439405",
"N. c #439D00",
"B. c #499E02",
"V. c #44930A",
"C. c #499609",
"Z. c #4C9B0A",
"A. c #539609",
"S. c #529D0B",
"D. c #488417",
"F. c #598B17",
"G. c #499615",
"H. c #559915",
"J. c #6D8A1B",
"K. c #649619",
"L. c #45A100",
"P. c #4BA301",
"I. c #4EA901",
"U. c #4EA208",
"Y. c #51A602",
"T. c #53A901",
"R. c #57A905",
"E. c #57A217",
"W. c #4F8D2B",
"Q. c #599627",
"!. c #5C8D35",
"~. c #5C9232",
"^. c #718C28",
"/. c #62893A",
"(. c #628C3D",
"). c #66983A",
"_. c #65A431",
"`. c #388852",
"'. c #248176",
"]. c #648444",
"[. c #698746",
"{. c #658A43",
"}. c #6A8A45",
"|. c #6A9241",
" X c #5B8E73",
".X c #948E2C",
"XX c #88863B",
"oX c #9F903C",
"OX c #B58D2F",
"+X c #C78828",
"@X c #CB912E",
"#X c #D59529",
"$X c #DC9C2B",
"%X c #D69D37",
"&X c #DFA12E",
"*X c #C9A33A",
"=X c #DDA738",
"-X c #E2A32D",
";X c #E4AB35",
":X c #E9B33D",
">X c #938C41",
",X c #B6934B",
"<X c #958776",
"1X c #B3836A",
"2X c #B18A73",
"3X c #CA974C",
"4X c #D8AA43",
"5X c #D2AC4F",
"6X c #EEBA43",
"7X c #E8B54A",
"8X c #E9BB48",
"9X c #CC9A71",
"0X c #DCAC6E",
"qX c #E3AE6F",
"wX c #F2C34C",
"eX c #EDC453",
"rX c #F3C853",
"tX c #F4CD5A",
"yX c #2E3988",
"uX c #323788",
"iX c #343C96",
"pX c #3E4786",
"aX c #3641A2",
"sX c #1A8A92",
"dX c #229BA6",
"fX c #709C98",
"gX c #978D87",
"hX c #8A928F",
"jX c #A39885",
"kX c #B29B8D",
"lX c #AFA692",
"zX c #A1B2AC",
"xX c #CF9E80",
"cX c #CFAE8F",
"vX c #D7A685",
"bX c #E6B687",
"nX c #E8BA96",
"mX c #DDBCA5",
"MX c #D4C6B6",
"NX c #EECBAD",
"BX c #DFD7C8",
/* pixels */
"T.I.I.P.P.Y.T.T.I.P.B.B.B.B.P.L.N.z.z.N.B.U.R.K.^.XXXXXXXXXXXXXXXX>X).XX^.F.H.Z.z.l.L.P.b.c.c.N.c.l.h.h.N.N.z.z.P.I.P.N.l.x.N.P.",
"I.I.P.L.P.I.Y.T.P.N.N.N.N.B.P.N.M.z.c.N.A.H.K.J..X.X,X>XoXoXoXoXoXoXoXXX^.J.K.H.A.n.U.P.L.c.c.c.l.l.l.l.N.N.N.N.P.P.P.c.l.c.N.P.",
"L.L.c.c.P.P.L.N.N.N.N.N.N.N.c.z.N.N.N.A.F.J.J .X*X*X5X5X*X*X*X*X*X*X5X*XoX.XoX.Xe.J.K.Y.U.N.c.l.l.c.c.N.N.B.N.L.I.P.L.c.c.c.N.L.",
"L.L.c.c.P.I.L.c.c.c.N.N.N.N.N.z.N.M.C.m.J e.9.OX=XeXrXeX8X:X:X:X8X:X8X8X5X,X*XOXOX9.J.E.U.U.l.l.l.c.L.L.L.N.N.L.P.L.c.c.c.c.c.c.",
"b.L.P.P.T.I.N.N.N.N.L.L.N.N.N.N.M.A.m.J.e.t.@X:XeXtXtXtXrXwXwXrXeXrXtXtXeXeX8X4X*XOX.XK.H.Z.x.l.l.x.N.N.N.N.x.x.c.b.L.b.c.c.c.c.",
"L.P.T.T.I.P.P.B.B.L.N.N.z.z.N.N.C.m.J.J .X+X;X6XwXtXtXtXrXwXwXrXrXeXtXeXtXtXwX:X-X*X.XK.K.Z.v.l.l.x.L.B.N.c.x.b.c.b.b.L.L.b.c.c.",
"T.T.R.T.N.c.N.N.L.N.c.x.z.c.z.M.C.m.J 6.+X#X;X:XwXwXrXwXwXwXwXwXwXwXeXwXeXwX:X;X-X$XOX.XJ.G.V.l.c.N.U.I.B.N.L.L.L.L.L.c.c.c.x.x.",
"T.T.R.T.N.c.c.N.N.L.c.z.z.z.N.C.A.J.6.7.+X$X-X;X6X6XwX6XwX6X6X6X:X;X;X=X=X=X$X$X#X#X+XOX^.F.M.N.c.N.T.T.P.L.I.T.I.P.L.c.c.c.l.c.",
"B.Y.T.T.N.N.c.c.c.L.P.L.c.z.c.C.m.J.9.0.+X+X#X$X;X;X;X;X:X6X7X;X;X-X$X#X@X@X+X+Xp.p.y.9.J ~.S.U.L.L.P.T.T.T.R.R.T.I.N.N.z.z.z.z.",
"B.B.Y.T.B.c.z.z.L.P.T.T.N.c.N.n.F 6.0.i.i.i.i.#X-X-X-X-X;X;X&X%X;X&X@X+X@XOXy.y.8.7.7.3.J F.S.Y.L.L.P.I.T.R.R.R.T.P.B.N.N.c.z.l.",
"N.B.T.T.N.N.z.N.P.T.R.T.Y.P.N.n.H 3.7.0.0.8.i.i.#X$X$X$X-X&X+X@X=X&X+X+X@X@Xt.7.4.3.S S H F.S.I.P.P.I.I.I.I.I.Y.P.B.P.P.I.L.c.l.",
"N.N.Y.Y.B.N.N.B.T.T.R.T.Y.P.B.G Z D 7.8.8.8.8.i.p.#X#X#X#X+Xr.y.*X%Xy.0.@X@X7.4.4.3.j V F F.S.I.P.N.I.I.P.P.P.B.N.B.Y.Y.P.N.l.l.",
"z.M.P.P.P.P.Y.T.T.Y.Y.I.B.P.B.n.C A 3.5.5.5.8.8.i.i.i.i.p.8.5.w.@X@Xr.7.y.y.4.w.8.7.S A F m.S.P.N.N.I.P.N.N.N.N.z.N.P.P.N.z.z.z.",
"M.N.N.N.P.Y.T.T.I.P.P.N.N.L.P.m.C V S 3.5.5.5.5.i.5.5.5.5.2.1.2.8.t.4.2.4.4.2.2.8.9.D A H A.Y.P.P.N.L.N.N.N.N.N.z.N.B.N.z.z.N.N.",
"P.L.P.P.L.P.I.P.N.z.c.c.N.L.Y.A.C V j j 5.5.5.5.4.2.1.j j j g l S 1.S j j j j 1.7.9.D Z A.Y.Y.U.P.L.N.c.z.c.P.L.z.z.N.N.N.M.z.N.",
"P.P.P.L.N.N.N.L.N.z.z.z.N.L.Y.A.F V g j 2.5.4.4.2.1.j g f f f f h h h h h h h S w.9.D C A.Y.Y.P.P.L.c.c.z.c.P.P.z.z.N.P.N.M.N.N.",
"N.N.P.L.c.c.N.L.L.c.c.c.c.L.I.Z.F.Z d g 1.2.1.S 1.l h l g l l l f l f l l z Y T f.d.Z C n.N.N.P.P.I.b.x.z.c.P.P.N.N.N.P.L.L.L.L.",
"L.N.B.N.l.l.b.L.L.N.c.c.c.L.L.U.m.F V d S S S A j j T T T T T T $.$.z z T a.a.s.d.>XY C n.N.N.N.I.P.c.l.c.c.L.L.B.B.P.P.L.L.L.P.",
"P.N.N.z.l.z.L.I.N.N.c.N.N.N.P.U.Z.F.Z V g j j g h T d.1X1X1X1X2XgX<.$.$.s.<XxXxX2X1X/ F n.z.N.N.I.P.c.c.N.L.b.N.N.B.L.N.L.N.N.L.",
"I.P.B.N.z.z.P.P.N.N.N.c.c.c.L.P.C.n.F Z V d f f l T d.xXxXvXvXcXzXhX,.>.g.kXmXmX2Xs./ D.M.z.c.N.P.I.N.c.L.L.c.c.N.N.N.L.L.N.L.N.",
"Y.Y.T.Y.B.N.P.P.N.z.N.N.l.l.c.L.N.M.n.F Z V d d s z d.1XvXbXNXNXBXzX<.<.g.kXmXmX2Xs.F.V.z.z.z.c.L.I.N.M.N.c.L.L.c.N.L.P.I.P.P.P.",
"I.I.Y.I.P.L.L.N.c.z.N.z.l.l.c.c.z.M.V.n.F C d s s l d.1XvXnXNXNXBXMXhX<.gXlXmXnX1X*.^ j.M.z.l.z.N.N.B.N.N.c.N.L.b.c.L.P.Y.Y.P.N.",
"N.N.N.c.c.b.b.L.c.N.N.c.c.c.L.P.N.N.N.M.G m , * s l w.3X0XnXNXNXBXMXlXjXlXcXnXvXf.a.Q G V.N.l.l.l.c.N.N.z.z.N.L.c.c.N.P.I.I.L.c.",
"N.N.c.c.x.x.b.c.z.N.N.c.N.L.P.P.N.N.B.M.b v , * s l 4.f.9XvXnXnXNXmXcXcXcXvXbXvXd.a.W K G n.z.l.l.c.N.N.N.N.L.L.b.L.N.L.I.P.b.c.",
"N.N.N.c.x.l.c.c.N.z.N.N.P.Y.P.N.z.z.C.D.v < > 8 d l q.u.f.3XqXbXnXnXqX9X0X5X0X3Xa.I i M n G j.c.z.z.c.N.N.N.L.L.L.L.P.P.P.L.b.c.",
"N.N.L.b.c.x.z.c.N.M.N.M.Y.Y.P.N.N.n.n.n x > > , k l z q.5.u.9XqXqXqX7X4X%X3X*Xu.q.k y u M n n.z.z.c.N.L.c.N.c.c.L.P.P.I.I.P.b.b.",
"N.c.N.L.L.L.c.L.N.N.N.M.B.P.P.B.N.G v x ; : 0 r y k l z z q.u.@X;X;X%X4X@XOXt.w.Y I i : = x b M.z.N.b.c.c.c.c.c.c.N.I.T.T.T.L.b.",
"N.N.N.L.P.L.L.c.B.N.z.N.N.P.P.B.n.m x = : 0 0 w t y y k k l S 4.p.+X+Xp.u.r.w.q.Y I y r # - m b j.z.L.L.c.c.z.z.c.c.N.Y.T.T.P.L.",
"c.N.N.B.P.P.c.x.N.N.N.N.P.P.Y.S.D.v - @ : : 0 w r r t 8 8 y s g 3.7.7.7.r.w.q.A V L t p 0 u c m j.l.L.I.L.N.c.c.N.L.L.L.T.T.I.P.",
"N.N.B.P.P.P.x.x.N.N.N.N.P.I.Y.A.F x = O & 5 0 w r r r 8 2 8 8 , A q.q.w.w.Y l d d i t r e q x c b l.L.L.L.N.c.c.L.L.c.c.I.T.I.P.",
"P.I.P.P.B.N.l.c.P.I.N.P.Y.T.P.j.v < = % : 0 0 0 r r r r % 8 9 a I T s.a.I k y , t t q e w q ; x m j.z.c.c.z.z.c.N.c.c.c.N.P.P.Y.",
"T.Y.P.N.B.N.l.c.I.Y.P.B.T.T.B.n.c ; = = 0 0 0 0 5 r r w % 5 ) ] @.$.d.g.@.p 8 5 0 0 0 q r w 0 - n j.j.c.l.l.z.c.c.c.z.c.c.N.P.P.",
"T.P.L.c.N.c.l.z.P.P.P.B.Y.R.B.G x ; : : 0 0 0 0 0 0 q 0 & 4 { } @.=.<XgX#.' 7 4 4 0 0 0 e : # - x m h.l.c.c.c.c.c.x.z.c.P.I.B.N.",
"I.P.c.c.c.c.l.x.N.P.N.P.Y.Y.n.G - % $ 5 & 5 5 5 0 0 0 4 O 4 | O.#.,.jXgX-.[ 7 7 4 : 0 0 0 4 + ; < m j.c.L.c.c.c.c.z.N.N.P.P.N.N.",
"I.N.c.l.c.z.l.x.N.L.N.L.U.C.b c - # 4 + $ $ $ 4 4 4 4 & O 6 | O.;.,.jXgX-.[ [ 7 6 # 0 0 w 0 + # - c j.N.c.c.c.N.c.N.P.N.x.l.c.c.",
"I.P.c.z.z.c.l.l.c.L.N.P.P.n.m x q 3 6 6 + + + + & & & + + 7 | pX;.,.jXgX-.{ [ ' 4 & 4 : q : ; - x v n.L.N.N.N.N.N.L.P.N.l.k.c.c.",
"I.P.c.c.c.c.l.l.x.b.L.L.N.j.v M e ) ` ` ( 1 1 o + + + 3 2 ) uXpX;.,.jXgX-.{ [ _ 4 + ; : : > x v b n.C.N.N.B.P.L.B.N.N.N.N.N.N.N.",
"I.L.c.c.N.c.c.c.c.L.P.P.N.n.m x ' ` | { ) 7 1 1 1 1 6 7 ( [ uXuX;.,.jXgX-.} [ ' e q < < x N n G A.C.B.N.N.B.L.L.B.M.z.z.N.L.P.N.",
"c.c.x.c.L.L.N.c.L.P.T.T.Y.M.m M ' [  .| [ ( 6 6 1 7 ` { {  .iXpX;.,.jXgX-.[ [ ] a N B G G D.G.C.S.Y.Y.B.P.N.N.N.N.N.N.z.c.c.N.N.",
"z.l.c.c.L.L.N.N.P.I.T.T.T.A.m N ' } O.O.} ` ( 6 7 ) {  .| uXiXpX;.,.jXgX-.[ ' ] N B W.G.E.E.U.I.I.Y.Y.B.N.c.c.c.N.N.N.z.z.N.N.N.",
"z.N.B.P.N.N.c.N.P.I.P.P.I.Z.m N M #.>.<.-.X.9 7 _ }  .uXuXuXiX:.-.,.jX<X;._ _ p M n j.v.Z.U.P.P.P.B.M.N.c.c.c.N.P.P.N.z.N.B.B.Y.",
"N.N.P.P.P.N.N.N.P.I.L.P.I.C.G B N ;.fXfXg.>.k 9 [ | uXiXuXuXiX..#.>.<Xg.X._ _ a i n j.V.P.P.L.L.L.N.N.N.z.c.c.L.P.I.N.N.N.B.P.Y.",
"N.B.P.Y.I.I.P.P.N.N.N.B.N.n.G E E %.fXzXlX<X$.a } ..iXiXuXuXuX..#.;.>.>.] 9 _ _ e x b V.B.P.P.N.c.c.z.z.z.z.c.c.T.T.P.N.B.Y.B.P.",
"B.P.P.P.I.Y.P.B.c.N.B.P.P.C.G E %. XfXfXlXd.T X.} uXaXaXiXuXuX..X.X.#.#.' 9 _ _ r u n C.Y.Y.I.P.c.c.z.N.c.z.c.N.Y.T.P.B.Y.P.P.B.",
"T.T.I.P.B.B.N.c.x.c.I.T.R.H.D.o.+.sXdXdX X=.I ] } uXaXaXaXiXiXuX[ ] ] ' 8 7 _ _ 7 u b H.U.I.I.P.Y.P.N.N.L.L.c.c.L.N.c.N.N.B.P.P.",
"T.T.T.P.B.N.z.c.x.b.I.T.R.S.D.o.+.sXdXsX XW P ] [  .iXaXaXiXuX| _ 9 9 9 2 2 ( _ 7 u G H.Y.I.Y.Y.T.Y.B.N.L.L.b.x.N.N.c.c.N.N.L.P.",
"I.Y.T.T.N.c.z.z.N.L.P.P.Y.P.G.W.'.'.+.+.@.k y 9 _ } uXiXiXiXyX` 6 2 2 3 3 3 9 9 7 M R m.Z.B.R.T.P.P.B.P.P.L.x.x.c.N.N.c.N.N.P.P.",
"P.I.I.P.b.c.l.x.N.P.B.N.P.B.L.G.`.`.+.o.U k y p _ ] {  . .| { ) 2 o $ $ 4 3 9 9 p N R W.H.S.U.Y.B.N.P.P.P.L.x.x.c.N.L.N.L.N.L.L.",
"N.N.L.b.c.c.x.x.N.P.N.N.N.N.c.G.W.W.o.%.E U P k k X.] ' ) ( ( 6 o o $ 5 5 5 r p i N ^ !.Q.Q.G.U.N.N.P.P.N.N.c.c.N.L.L.P.P.L.N.c.",
"N.N.L.b.L.c.c.l.N.L.N.N.N.N.b.v.Q.W.(.%.&.W W U @.I a p 6 2 1 o o O & % w r r u M U ^ |.|.Q.Q.G.Z.B.P.P.N.N.N.N.L.L.P.P.L.L.b.L.",
"b.L.I.L.L.N.c.x.c.c.N.N.N.L.V.G.Q.!.{.{.*.*.&.*.&.&.U i &   X o O # % r 0 0 0 t M E ].{.{.~.~.Q.H.Z.B.P.N.N.z.N.P.I.P.P.b.b.L.I.",
"c.b.I.I.P.N.c.c.c.N.N.N.N.L.G.Q.~.{.}.}.[.[.*.*.&.W U u #     . # & % 0 5 0 q i P ! ].}.{.|.{.!.H.H.B.N.N.z.N.N.I.Y.P.N.L.b.I.P.",
"c.c.P.I.L.N.c.b.L.P.N.M.N.A.Q.!.(.{.[.}.}.}.[.].&.U M = .     o $ % 5 0 & : u L ! *.[.[.}.].{.!.Q.H.N.c.c.N.P.Y.R.T.P.L.I.I.L.I.",
"c.N.P.I.N.c.c.L.I.T.B.N.N.G.!.!.].].[.}.}.}.}.[.&.P ; @ . .   X & 5 0 5 & : M E / [.[.[.].}.].(.~.H.C.c.c.L.P.Y.T.T.P.N.L.I.L.L.",
"N.N.B.B.N.c.N.I.T.T.P.N.N.V.!.].].].].[.}.}.}.&.U i = X X .   X & 0 0 5 & ; M E &.[.[.[.}.}.{.(.Q.H.U.N.c.c.U.I.I.P.P.P.P.P.L.L.",
"P.P.B.N.c.c.N.P.I.T.I.N.z.G.W.].].].].[.}.}.{.&.M > @ X X X   X & 0 0 0 & 0 M E ^ *.[.[.}.[.{.(._.H.U.P.c.c.P.I.P.P.P.P.N.L.N.c.",
"T.T.B.N.N.c.x.b.L.P.P.L.c.V.!.{.].].].].{.{.{.Q < @ @ X # X   . & 5 0 0 w t M N E ~ / }.}.[.].(.~.E.U.L.c.c.T.T.I.P.Y.P.B.B.N.N.",
"T.Y.N.N.L.L.x.x.b.L.I.I.b.G.~.(.].].].].}.{.{.Q < @ X X # X . . # & % 0 r t i M L W *.}.}.[.{.!.Q.E.Y.L.b.L.T.R.T.Y.Y.P.P.N.M.z.",
"P.B.c.c.N.B.c.c.L.P.T.R.L.V.W.{.].].{.{.{.].].Q M - X X # #     X # & : 0 r t u M U *.[.[.].{.!.Q.R.U.L.c.L.T.T.Y.I.P.P.P.B.N.z.",
"B.N.N.c.B.N.L.L.L.L.T.R.L.Z.Q.~.(.{.{.{.{.].[.&.K < > > > > > % = > : t u u u a N U *.[.[.{.(.~.H.S.I.L.c.b.I.T.I.B.P.P.P.B.N.z.",
"L.L.N.L.P.L.L.L.N.L.I.Y.U.U.E.Q.!.].{.}.[.[.[.].W W P L L L L L L L L L U U U U Q ~ ].[.}.!.~.G.G.N.B.L.c.x.L.P.L.L.L.L.T.I.c.l.",
"N.b.b.L.L.N.N.c.c.N.N.L.P.I.U.H.~.!.).|.|.|.{.}././ ~ Q ! ! &.! ! ! ! ! &.&.&.&.^ /./.!.!.W.Q.G.z.z.c.c.l.l.N.L.L.c.N.L.Y.Y.c.z.",
"l.c.L.L.N.c.c.z.c.l.c.c.N.L.L.U.E.H.Q._._.).).).}.*.*.].*.].*.*.*.*.*.[.].].*.].).).~.Q.G.v.v.v.l.l.l.k.l.l.l.c.N.c.c.L.P.I.P.N.",
"l.x.L.L.c.z.l.l.l.l.z.z.z.c.b.L.U.R.E._._._._.).(./.[.}.}.[.[.].}.}.}.}.}.}.}.(._._._.H.v.v.l.l.l.l.h.h.k.k.l.x.c.N.c.c.L.P.P.P."
};
