/* XPM */
static char *out[] = {
/* columns rows colors chars-per-pixel */
"64 64 243 2 ",
"   c #060909",
".  c #090C0E",
"X  c #0C120D",
"o  c #0B0D13",
"O  c #0D0E1D",
"+  c #0E1314",
"@  c #0F121C",
"#  c #111615",
"$  c #141B16",
"%  c #12161B",
"&  c #151B1C",
"*  c #1A1B19",
"=  c #191D1D",
"-  c #371D18",
";  c #1A2617",
":  c #1B221B",
">  c #1C3210",
",  c #25241B",
"<  c #222B1D",
"1  c #34261B",
"2  c #293A1B",
"3  c #101023",
"4  c #161B21",
"5  c #191E22",
"6  c #161528",
"7  c #181836",
"8  c #261C2A",
"9  c #231A36",
"0  c #1B2224",
"q  c #1F2921",
"w  c #1E2529",
"e  c #1D2437",
"r  c #262627",
"t  c #222B23",
"y  c #23292C",
"u  c #372A26",
"i  c #2A3625",
"p  c #353925",
"a  c #2F2B37",
"s  c #293335",
"d  c #582B16",
"f  c #4B3014",
"g  c #5A3A16",
"h  c #663615",
"j  c #723C14",
"k  c #713A1A",
"l  c #4A2D25",
"z  c #44382A",
"x  c #593323",
"c  c #4B3333",
"v  c #683926",
"b  c #763C28",
"n  c #2C4618",
"m  c #324A19",
"M  c #2B5112",
"N  c #355A18",
"B  c #37750B",
"V  c #386A11",
"C  c #354627",
"Z  c #3C4E2E",
"A  c #356325",
"S  c #535013",
"D  c #6C4F16",
"F  c #794418",
"G  c #586411",
"H  c #4E7114",
"J  c #487718",
"K  c #726F19",
"L  c #444828",
"P  c #504F2F",
"I  c #574534",
"U  c #465733",
"Y  c #774927",
"T  c #735034",
"R  c #576527",
"E  c #536C30",
"W  c #546938",
"Q  c #556E3B",
"!  c #59773A",
"~  c #5B733E",
"^  c #6C7133",
"/  c #1A1C44",
"(  c #231C47",
")  c #1D254A",
"_  c #252749",
"`  c #24255C",
"'  c #272858",
"]  c #353154",
"[  c #282A68",
"{  c #2C3267",
"}  c #343569",
"|  c #2B2E73",
" . c #2A3177",
".. c #2B317B",
"X. c #353777",
"o. c #43384A",
"O. c #453D5B",
"+. c #315E59",
"@. c #30786E",
"#. c #564E54",
"$. c #6B554E",
"%. c #775946",
"&. c #5D7B41",
"*. c #76694F",
"=. c #637E42",
"-. c #667847",
";. c #534F6A",
":. c #5B5875",
">. c #4B766C",
",. c #6E6465",
"<. c #726E70",
"1. c #874915",
"2. c #944F16",
"3. c #89581B",
"4. c #975719",
"5. c #A65B18",
"6. c #8E651B",
"7. c #A8671C",
"8. c #B56B1B",
"9. c #AF701E",
"0. c #BB741C",
"q. c #8E572D",
"w. c #8F6D2B",
"e. c #AC7525",
"r. c #B67924",
"t. c #AC7232",
"y. c #C17B1F",
"u. c #C67E20",
"i. c #865943",
"p. c #8D7352",
"a. c #A47055",
"s. c #90796D",
"d. c #2B8D00",
"f. c #3C8609",
"g. c #359400",
"h. c #3B9600",
"j. c #369A00",
"k. c #3D9A00",
"l. c #36900F",
"z. c #3D910A",
"x. c #3EA000",
"c. c #47880A",
"v. c #548809",
"b. c #429503",
"n. c #439D00",
"m. c #4A9E02",
"M. c #43940B",
"N. c #479909",
"B. c #4B9B0A",
"V. c #529B0A",
"C. c #4B8714",
"Z. c #558C15",
"A. c #4B9815",
"S. c #559617",
"D. c #529C14",
"F. c #6B8517",
"G. c #659719",
"H. c #45A100",
"J. c #4BA401",
"K. c #4EA901",
"L. c #4FA20A",
"P. c #52A602",
"I. c #53AA01",
"U. c #5AAA04",
"Y. c #54A40A",
"T. c #5CA415",
"R. c #558D27",
"E. c #589527",
"W. c #5E8B35",
"Q. c #5B8538",
"!. c #4E9432",
"~. c #6E8E29",
"^. c #628C3C",
"/. c #659638",
"(. c #67A430",
"). c #3A9055",
"_. c #2A9171",
"`. c #5A8345",
"'. c #658545",
"]. c #688646",
"[. c #658A42",
"{. c #6D8E42",
"}. c #698A45",
"|. c #71887C",
" X c #8F8C35",
".X c #B9852A",
"XX c #B58F34",
"oX c #A2923A",
"OX c #C48424",
"+X c #C98927",
"@X c #D18E25",
"#X c #D49428",
"$X c #DC9C2B",
"%X c #CD9330",
"&X c #C99735",
"*X c #DBA537",
"=X c #D1A438",
"-X c #E2A32D",
";X c #E4AA35",
":X c #EAB33C",
">X c #8A8941",
",X c #988755",
"<X c #A49542",
"1X c #B08D51",
"2X c #998B76",
"3X c #AD896B",
"4X c #B79875",
"5X c #C8954F",
"6X c #CFAA4D",
"7X c #D8AB46",
"8X c #EAB946",
"9X c #EEBB45",
"0X c #E6B44F",
"qX c #CC956E",
"wX c #D8A768",
"eX c #D0AF73",
"rX c #E3B273",
"tX c #F3C44D",
"yX c #EBC255",
"uX c #F4C651",
"iX c #F5C955",
"pX c #F5CC58",
"aX c #2F3585",
"sX c #313788",
"dX c #333B94",
"fX c #394583",
"gX c #47538A",
"hX c #6B6D85",
"jX c #1F959B",
"kX c #5E9595",
"lX c #8B918D",
"zX c #AC9C8B",
"xX c #ABA79A",
"cX c #B8A994",
"vX c #B3AE9B",
"bX c #B1B0A5",
"nX c #D2B190",
"mX c #E7B786",
"MX c #E3B999",
"NX c #ECC79D",
"BX c #D2C8B5",
"VX c #E7CBAD",
"CX c #DCD5C6",
/* pixels */
"I.K.K.J.J.K.I.I.P.J.m.m.n.J.J.m.b.h.k.k.J.K.U.T.~.(. X>X X>X>X>X>X>X>X{.~.~.G.T.m.V.I.I.n.k.h.h.h.g.d.d.n.n.h.k.J.J.J.n.j.j.n.K.",
"K.K.H.H.J.K.I.K.J.n.m.n.m.n.H.n.n.h.k.n.B.V.V.G.~. X<X<X<X<X<XoXoX<X<X Xp.~.~.G.G.V.U.P.m.n.b.g.h.g.g.g.n.n.b.n.J.K.H.k.g.h.n.m.",
"H.H.k.k.J.J.H.n.k.k.n.n.n.n.k.k.h.k.n.m.D.F.K w.oX<X6X6X=X=X=X=X=X=X6X=X<X XoX X6.F.G.U.B.n.k.g.h.h.n.n.n.m.n.H.J.J.H.k.h.h.n.J.",
"H.H.k.n.J.J.H.k.h.n.n.n.n.n.k.h.h.b.m.V.S.~.w.e.=X7XyXpXyXtX8X:X8X7XtX7X6X6X&X&X.X X XT.D.L.h.j.j.h.n.m.J.n.n.H.J.H.x.k.h.k.n.n.",
"x.H.H.K.K.K.m.n.n.n.J.H.b.b.k.n.m.V.V.G.F.w..X#X:XtXiXpXiXuXuXpXiXiXpXyXyX0XyX7X=X=XoX~.G.A.g.g.g.j.n.m.n.n.j.j.k.H.x.H.n.k.k.k.",
"H.J.K.I.K.m.J.n.J.n.n.n.h.n.n.n.m.V.Z.K 6..X%X-X:XtXiXiXuXiXpXpXpXpXpXpXpXiXuXtX:X*X&XoX~.Z.z.g.g.h.n.J.n.k.j.x.k.x.k.x.H.x.k.k.",
"I.I.U.I.n.n.n.n.n.n.k.j.h.h.n.n.m.v.H K .X+X$X-X:XtXtXtXtXtXtXtXtX9X9XtXtX9X8X;X;X-X*XXXw.H c.h.g.n.P.P.n.n.H.H.H.H.x.x.k.h.k.j.",
"I.I.U.I.n.h.b.n.n.H.k.h.h.h.b.n.V.v.K 6..X@X#X$X;X:X:XtX:X:X:XtX8X:X:X;X;X*X*X*X#X$X$X.X6.G c.h.b.n.P.P.J.m.K.K.K.H.k.k.k.h.j.h.",
"m.P.I.V.m.n.h.n.n.H.H.H.k.h.n.b.V.K K 5.OX@X@X@X$X-X;X:X:X;X:X:X;X;X-X$X%X@X@X+X+XOXOXe.3.G v.m.n.H.K.K.K.I.U.U.I.J.n.h.h.h.g.g.",
"n.m.P.P.m.n.b.b.H.H.I.P.n.n.n.b.V.H 6.5.OXOXy.OX@X-X-X-X;X;X$X;X*X-X$X#X+XOX+XOXr.9.9.7.D D v.P.H.H.J.K.K.I.U.U.I.J.n.n.n.h.h.h.",
"h.H.I.U.m.h.h.b.K.I.U.I.K.m.n.c.c.K 6.5.8.0.0.0.@X#X$X$X#X#X#X%X%X=X%X@X%X%X%X.X7.4.2.1.h S v.m.J.J.K.P.K.K.K.P.J.J.J.K.J.H.h.j.",
"h.n.I.I.m.n.h.n.P.I.I.I.K.J.m.b.v.G 1.2.5.8.5.0.u.@X@X@X@X+XOXu.+X.X+XOX+X+X&X.X7.4.1.F h S v.L.J.J.K.K.J.H.J.m.n.m.K.P.K.H.h.g.",
"k.n.n.J.K.J.J.K.K.P.P.K.m.H.J.m.c.G D j 5.5.5.8.u.y.y.y.y.8.8.e.e.r.r.r.r.e.e.e.e.7.2.F T R v.P.m.H.H.J.n.n.n.n.b.n.m.m.h.h.h.n.",
"n.n.n.n.K.K.P.K.K.J.m.n.n.n.K.V.H G g h 2.5.5.5.y.8.5.5.2.2.4.4.4.4.7.7.6.4.6.4.7.7.3.F R J v.m.n.n.H.k.h.n.n.n.h.b.m.m.h.h.k.n.",
"n.J.J.J.H.H.J.J.n.h.n.n.k.H.K.V.c.G d j 2.5.5.5.8.5.1.F k k j k F j 1.1.k k j F 3.q.3.K F.S.V.J.J.H.x.k.h.k.J.m.h.h.b.b.n.n.n.n.",
"J.H.J.J.n.n.H.n.n.h.h.h.k.H.P.P.v.G g h 1.2.5.5.5.2.j h h h d d g h k k h d h Y q.w.q.K F.Y.J.m.J.H.k.h.h.k.J.J.n.h.b.n.n.H.n.n.",
"n.H.J.H.h.h.n.n.x.k.k.h.n.H.J.P.V.H S d j 1.2.2.2.1.k b b v x x v b b v h v T i.a.p.q.R Z.m.k.H.H.H.k.h.h.k.J.J.H.n.J.n.H.H.J.J.",
"H.n.J.n.j.j.k.H.H.H.k.k.k.H.J.J.m.v.S g h j 1.1.k b b b i.i.T $.%.i.$.b v $.i.a.4X3X*.R C.b.k.k.J.H.k.h.k.k.n.J.J.J.m.n.H.H.H.H.",
"J.n.n.n.g.h.H.K.H.n.k.n.n.n.K.K.m.v.H G g h j j d b i.a.qXqXa.a.lX2Xs.,.$.i.zXnXnX4X*.^ C.n.n.H.H.K.H.n.H.n.k.n.n.m.n.n.n.n.n.n.",
"K.J.J.n.h.h.J.K.n.k.n.k.h.k.m.J.m.N.C.J S g h d l b i.3XqXrXnXnXbXxXlXhX,.s.nXVXmX4Xp.E Z.n.b.n.K.J.H.n.n.H.H.n.n.n.n.n.H.H.H.n.",
"K.P.I.I.H.m.J.H.k.h.k.n.g.j.k.n.b.h.l.c.H S D d d d i.a.qXmXNXVXCXBXxXlX<.s.bXVXMX4X*.E C.k.h.k.H.H.m.n.b.n.n.H.k.n.H.J.J.J.H.H.",
"J.K.I.K.J.H.H.H.h.h.k.k.g.j.k.k.k.g.j.z.J R f f d d b a.qXmXNXVXCXCXbXlX|.lXnXVXnX4Xp.R C.k.g.j.n.H.m.n.h.h.H.H.k.k.H.J.I.K.H.x.",
"n.n.H.H.H.k.k.n.n.b.k.h.h.k.H.J.n.k.k.k.B.H n - - d b a.qXmXmXNXCXCXCXbXzXzXMXMXnX3X%.R J M.g.g.j.h.m.n.k.h.n.H.x.k.n.H.K.K.H.x.",
"n.n.n.k.k.j.k.k.n.n.h.k.k.H.J.K.H.b.b.M.c.H 2 , - d b q.qXrXrXmXNXVXVXBXnXeXmXnXqXa.T P J f.z.j.g.h.n.n.k.n.J.H.x.H.n.H.J.K.x.j.",
"n.n.n.k.j.j.h.h.b.b.h.n.J.J.K.J.k.M.C.J N n ; , - x b q.t.5X5XwXmXmXmXrXrXwXwX5Xt.w.z p m N c.z.h.h.k.n.k.n.H.H.H.H.n.m.K.J.x.k.",
"n.n.n.k.j.h.h.n.b.n.h.n.J.K.J.n.b.f.J A 2 ; : r u l b b q.t.t.5X7XwX0XwX7X5X5X&XoXT p y t m V z.z.h.n.n.n.n.n.n.n.J.J.J.J.J.x.x.",
"H.k.k.x.H.H.n.n.m.n.b.n.J.J.J.m.M.V Z i : # $ 0 8 u x v b Y q.w.+X*X0X0X5Xr.r.r.e.6.z y y i N B f.h.n.n.n.n.k.k.k.n.J.P.I.I.H.x.",
"n.n.k.H.H.J.n.k.n.n.b.b.m.J.P.N.J N t 4 % % 4 0 y 8 8 l l d x Y t.u.%X&Xr.e.9.9.e.Y z y w t n M f.h.n.H.H.k.h.h.k.n.H.K.I.I.J.H.",
"k.n.n.n.K.J.k.k.n.n.b.n.m.K.Y.S.J C ; o % & 5 0 y y a r r u - f Y 4.e.e.r.e.7.3.F D u y y t ; M B g.n.J.J.n.k.h.n.n.n.H.I.U.K.J.",
"H.H.m.J.K.J.j.j.H.H.n.n.J.P.Y.v.N : # . % 0 0 w y y y y y 5 4 1 x T w.p.w.q.Y Y D f s y y q 0 > V d.N.J.H.n.h.k.H.H.k.k.K.I.I.P.",
"K.J.J.J.m.n.h.h.H.J.H.m.P.P.V.J 2 $ X + $ 5 0 w 5 w y y y 8 6 e c $.,X,XT I l 1 u r y w y w 0 > M B f.n.h.j.h.h.n.n.h.h.n.H.K.P.",
"P.K.J.n.n.n.h.h.J.K.J.J.I.P.M.V > X + # & 0 0 0 w w w y y e 7 e ] #.4X2X$.c a 6 5 0 0 w w w : ; 2 N f.h.h.j.h.h.k.k.h.h.n.n.J.J.",
"I.K.m.k.n.k.h.k.n.K.m.J.P.P.N.H > . + % 5 0 0 8 0 w w 0 q e e _ ] :.xXxX,.o.] / 6 3 4 5 0 5 5 : ; M B j.k.k.k.b.k.h.h.k.J.J.J.n.",
"I.H.k.j.k.k.h.h.n.J.n.H.K.V.v.V ; X # % & 5 5 5 0 0 0 0 0 e ) ' { :.vXvX,.O.{ ` 7 O & 5 0 5 0 : ; > B g.k.k.n.k.k.h.k.k.J.J.n.n.",
"K.H.j.j.h.h.h.h.k.H.n.H.K.N.V m ;   O @ % % 3 4 5 0 0 0 % 6 ' [ ] ;.xXbX<.O.} ` 6 o % 0 0 0 0 : $ > M f.h.k.k.x.k.n.J.m.j.g.h.k.",
"K.K.j.j.h.g.g.g.j.x.n.J.K.c.V n w 6 7 7 % @ O O @ & 5 4 @ 7 [ | { :.xXvX,.O.X.[ 6 o $ 5 0 r q ; > M V f.z.x.x.H.H.n.J.n.j.g.h.x.",
"K.K.x.j.k.h.g.g.j.x.H.H.n.c.M i _ [ { ` 7 O o   + + @ @ 3 / [ ..X.:.xXbX,.O.sX| 7 3 6 & & q i m V J f.M.H.H.K.H.m.m.n.b.k.n.n.n.",
"K.H.x.j.n.n.h.j.k.H.J.J.n.f.n y { ..aX[ 7 3 O o + @ @ 7 / ` ..aXX.:.xXvX,.O.X.| 7 4 r < i m N J C.Z.B.H.H.H.H.H.m.m.h.h.n.H.m.n.",
"k.h.j.g.n.H.n.k.H.J.I.I.K.c.N s { X. .` 9 * & 4 3 7 ) ` [ ..sXsX} :.xXbX,.o.} [ 9 8 p L E R.A.S.D.Y.J.H.H.x.x.H.m.n.h.h.h.k.n.n.",
"h.h.h.k.n.H.n.n.J.I.I.I.I.c.m s O.X.X.] a u 2 i e / [  .sXsXdXsXX.:.xXcX,.o.} ] a l P ! E.T.T.L.K.K.J.H.k.k.k.k.n.n.n.b.h.n.n.H.",
"h.b.m.J.n.b.n.n.P.I.K.J.K.c.M i +.;.<.,.U L V N a ( ..sXdXsXsXaX[ :.cXcX,.] ] ] c I %.^ G.Y.L.K.J.J.n.n.k.h.k.H.J.m.n.h.n.m.J.K.",
"n.n.J.J.m.n.n.n.K.P.H.H.m.c.M C #.<.2X2X-.~ H J ] ' sXdXsXsXsXX.] ;.zXxX$.o.] o.$.i.p.>XG.Y.H.H.n.n.n.h.h.h.k.H.J.P.n.n.n.J.K.P.",
"n.m.J.K.P.P.m.m.n.m.n.n.n.l.A +.|.lXnXnX4X>XW L a ' aXsXaX..aXX.o.#.lXlX#.o.] #.p.3X,X{.G.Y.K.H.k.k.b.h.h.h.h.k.P.P.m.n.J.K.K.K.",
"J.J.J.P.I.P.K.n.h.n.J.K.m.l.+.@.jXkXbXMXcX3XT a ( ` aXdX......} o.#.<.hXO.] c $.p.3X,X>XG.Y.P.n.n.k.h.h.k.h.h.n.K.P.m.H.J.K.J.m.",
"I.I.K.J.K.m.n.n.j.k.K.Y.z.!._.jXjXkXkXzX4X,XI 8 ( ` sXdXdXsX| } ;.;.gXgXfX} a I p.1Xp.~.G.U.J.K.K.J.n.b.H.H.k.k.n.n.n.k.n.m.J.m.",
"I.I.I.K.n.n.h.h.j.x.J.Y.L.!._.jXjXjX|.2X,Xp.z 8 9 ` aXdXdXsX| { ;.;.fXfXsX} a c w.>Xw.~.G.V.P.P.P.P.m.n.H.H.k.j.n.n.h.h.n.n.m.n.",
"J.J.I.K.n.h.g.h.k.H.H.J.L.!.)._.jX@.<.p.%.I u 8 9 ( | aXdXdX[ [ fXgXfX .[ ' y p I %.^ ^ Z.P.I.U.K.J.J.m.J.H.j.j.k.n.k.n.n.n.J.J.",
"H.H.I.K.k.h.g.h.H.J.H.H.H.l.!.).@.>.].*.I c z u 9 7 ` [ | | ` [ fXfX{ ` ) ) r p U &.~ Q.S.V.Y.Y.m.n.J.J.J.H.j.j.k.H.H.n.H.n.H.H.",
"H.H.H.H.k.k.j.h.n.J.n.k.n.N.A.!.`.`.`.-.#.E U p y 6 7 ( ( ( 7 / { ] / 7 e w ; p W &.'.^.E.E.T.D.B.J.J.J.H.n.k.k.H.H.H.J.H.H.k.x.",
"H.x.J.H.H.k.j.j.n.n.n.n.n.n.z.A.E.[.].-.~ W &.U t 4 6 7 6 7 3 3 e _ 5 4 0 q < C Q '.'.[./././.A.V.B.J.H.n.n.n.n.H.H.J.H.J.H.x.H.",
"x.x.J.K.H.H.h.h.h.n.n.n.n.m.n.A.E.^.[.}.`.&.Q U , # @ 6 5 4 . . & 0 5 w y y < p Q ].}.}.[./.[./.E.D.B.J.n.b.b.n.J.J.K.K.H.k.H.J.",
"k.x.K.K.H.x.k.h.k.k.n.n.n.H.N.A.E./.[.}.].=.W C ; # # * 5 %     + & : 0 y y , C Q }.].}.}.}.[.^.E.S.B.n.n.b.b.n.K.I.K.H.x.x.J.K.",
"k.n.P.I.H.n.k.H.H.H.n.b.m.B.S.E.W.[.}.}.}.! L 2 : # & & 0 %     # & : 0 0 0 ; m ~ ].].].].].].`.W.E.M.k.b.n.n.m.I.I.J.H.H.H.K.K.",
"k.n.J.K.n.n.H.H.K.K.m.n.N.N.S.E.[.'.].[.}.! C < * * & 5 & +     # 0 & 4 5 0 ; C Q ].].].}.}.].[.W.R.N.k.h.b.m.K.I.I.J.H.K.K.H.H.",
"n.n.m.n.h.j.H.J.I.I.J.n.k.M.R.W.'.'.'.[.[.Q 2 * & : 0 & $ +     + & 4 & 4 % ; i W =.].].'.].].[.W.E.B.H.h.k.K.I.K.J.J.H.J.J.H.H.",
"J.J.n.n.h.k.x.J.I.I.K.m.k.z.R.W.Q.'.'.[.[.Q 2 * $ & 5 5 $ +     + @ : 4 4 % $ 2 U &.'.].].].}.[.W.E.Y.J.k.k.K.I.J.H.J.J.J.H.n.n.",
"I.I.H.n.n.k.j.x.J.K.K.H.k.M.R.Q.`.[.`.'.}.&.P 2 * # & = & % o . + + & & & & & t Z U &.'.'.].].[.W.E.L.K.k.x.I.I.P.K.P.K.m.n.b.h.",
"I.P.n.n.H.H.j.k.x.J.K.K.k.M.R.W.[.`.].].].=.W L < $ & * = $ X X o + & 5 5 5 0 q i Z W &.'.].[.`.^.E.L.J.x.H.I.U.P.J.P.J.J.n.n.h.",
"J.m.k.h.n.n.n.k.x.J.I.I.n.M.A.E.`.[.'.}.'.'.~ U p , : * $ % o o o @ & 5 & 0 w y s C Z W &.'.[.[./.E.L.H.x.H.I.I.K.J.P.P.J.J.n.k.",
"J.n.k.k.n.n.n.n.H.J.I.I.H.N.A.E./.[.}.}.].'.`.Q U C i < t < : & $ $ $ & : : w t y s C U &.'.[./.E.T.L.J.x.k.K.I.m.m.J.J.J.J.n.k.",
"J.H.n.n.H.m.m.H.n.H.J.J.K.J.B.S.(.[.[.[.}.}.[.`.! Q U U L U U C 2 ; * * & $ : : w i U Q `.[./.E.D.A.J.H.k.x.J.J.n.n.n.J.P.J.h.g.",
"n.H.H.H.J.n.n.n.n.n.n.m.J.L.m.N.D.E.!.(.{.{.[.{.^.}.&.~ ~ ~ Q W L C i i i 2 i i i C W ! W.R.!.R.N.H.n.x.k.j.H.k.b.k.n.J.I.K.b.g.",
"k.k.H.x.n.k.h.k.h.j.j.g.n.n.H.n.z.A.T.(.(.(.(.{.{.[.].'.].].=.&.~ W W W W W W E ! R.W.W.A.M.z.z.g.g.g.g.g.g.j.h.h.k.k.n.J.J.m.n.",
"h.h.H.x.h.h.h.h.g.g.g.g.h.k.x.H.x.x.L.T.(.(.(.(./.{.{.}.{.}.'.=.'.=.=.=.! `.[.`./.(./.E.M.g.g.d.g.g.d.d.d.g.g.j.j.k.n.n.J.J.J.K."
};
