/* XPM */
static char *out[] = {
/* columns rows colors chars-per-pixel */
"50 50 254 2 ",
"   c #090F11",
".  c #152B1E",
"X  c #1B3A1D",
"o  c #243D1E",
"O  c #0B1D25",
"+  c #192326",
"@  c #1A3424",
"#  c #193827",
"$  c #1B3B2A",
"%  c #052736",
"&  c #0B2733",
"*  c #192D35",
"=  c #1B3C34",
"-  c #193739",
";  c #253C27",
":  c #2B3431",
">  c #243B39",
",  c #1F401D",
"<  c #27481A",
"1  c #2F501A",
"2  c #39581C",
"3  c #3B6518",
"4  c #1D4429",
"5  c #1A443A",
"6  c #234324",
"7  c #274626",
"8  c #2C4A23",
"9  c #2B442C",
"0  c #334C24",
"q  c #35482B",
"w  c #2B5326",
"e  c #385626",
"r  c #274639",
"t  c #354A37",
"y  c #3C4D33",
"u  c #275736",
"i  c #3A5539",
"p  c #3C632A",
"a  c #3C6735",
"s  c #435D1D",
"d  c #46681C",
"f  c #4E751A",
"g  c #52771C",
"h  c #455C2B",
"j  c #40483A",
"k  c #455839",
"l  c #476627",
"z  c #536B22",
"x  c #4A7329",
"c  c #567826",
"v  c #476438",
"b  c #556939",
"n  c #497738",
"m  c #597835",
"M  c #63793A",
"N  c #063448",
"B  c #123B4C",
"V  c #273C44",
"C  c #1A4B43",
"Z  c #09455C",
"A  c #1A4D50",
"S  c #254942",
"D  c #2B4B44",
"F  c #2A4946",
"G  c #354B47",
"H  c #28534A",
"J  c #375645",
"K  c #34534B",
"L  c #3B554C",
"P  c #3B5B4B",
"I  c #294956",
"U  c #314C57",
"Y  c #295658",
"T  c #3D5B50",
"R  c #3B5659",
"E  c #3A6B4B",
"W  c #3B6756",
"Q  c #044864",
"!  c #0B5270",
"~  c #225367",
"^  c #1A6371",
"/  c #246179",
"(  c #34687E",
")  c #424D4B",
"_  c #465845",
"`  c #425B4D",
"'  c #4B5D4C",
"]  c #535A4C",
"[  c #465754",
"{  c #425C51",
"}  c #486546",
"|  c #4D644C",
" . c #55674A",
".. c #477646",
"X. c #5B7747",
"o. c #456254",
"O. c #4B6354",
"+. c #4B6857",
"@. c #4C6A5C",
"#. c #546554",
"$. c #526A55",
"%. c #596855",
"&. c #546B5B",
"*. c #5A6C5B",
"=. c #4B7358",
"-. c #597257",
";. c #5C725D",
":. c #64694B",
">. c #637949",
",. c #646B57",
"<. c #63735B",
"1. c #697859",
"2. c #777D59",
"3. c #405E67",
"4. c #4E6C67",
"5. c #566D65",
"6. c #5D7462",
"7. c #587A6A",
"8. c #647463",
"9. c #667767",
"0. c #657A64",
"q. c #6C7B64",
"w. c #6B7D6B",
"e. c #757C67",
"r. c #687C72",
"t. c #737D74",
"y. c #837D69",
"u. c #5B851B",
"i. c #628B1C",
"p. c #6D991D",
"a. c #5C8529",
"s. c #5B8634",
"d. c #648926",
"f. c #6B952B",
"g. c #658538",
"h. c #789334",
"j. c #74A627",
"k. c #57874B",
"l. c #588859",
"z. c #66844B",
"x. c #718F4B",
"c. c #668454",
"v. c #768559",
"b. c #5A8C6F",
"n. c #6B836A",
"m. c #75836C",
"M. c #7A8668",
"N. c #7A846C",
"B. c #6E956F",
"V. c #668375",
"C. c #6C8373",
"Z. c #738573",
"A. c #768975",
"S. c #768977",
"D. c #7C8A74",
"F. c #7C8C7A",
"G. c #7A9577",
"H. c #75A474",
"J. c #8AB425",
"K. c #828B56",
"L. c #84866B",
"P. c #93856E",
"I. c #86946A",
"U. c #838B74",
"Y. c #888874",
"T. c #8C8B74",
"R. c #828E7B",
"E. c #968D76",
"W. c #879375",
"Q. c #84927C",
"!. c #8B947C",
"~. c #94947B",
"^. c #98957C",
"/. c #A49279",
"(. c #95A17D",
"). c #035C82",
"_. c #145F80",
"`. c #146386",
"'. c #026B97",
"]. c #307896",
"[. c #0278AA",
"{. c #007DB3",
"}. c #49778B",
"|. c #0283B9",
" X c #1485B4",
".X c #338CA2",
"XX c #708A8F",
"oX c #5FA19D",
"OX c #5196B4",
"+X c #709AAA",
"@X c #028BC6",
"#X c #1096CF",
"$X c #0097D7",
"%X c #2899CA",
"&X c #30AADD",
"*X c #009FE2",
"=X c #01A5EB",
"-X c #17A9E8",
";X c #01ABF4",
":X c #03AEF7",
">X c #01B3FE",
",X c #0CB6FE",
"<X c #17B7FB",
"1X c #28B8F5",
"2X c #51AFD7",
"3X c #5BB2D7",
"4X c #36C2FD",
"5X c #55D8DA",
"6X c #5FC4EF",
"7X c #48C6FD",
"8X c #5ACBFC",
"9X c #77C9EC",
"0X c #63CDFB",
"qX c #68D1FF",
"wX c #79D4FC",
"eX c #849482",
"rX c #8A9682",
"tX c #8C9984",
"yX c #83938B",
"uX c #869888",
"iX c #949B84",
"pX c #969B86",
"aX c #9B9C84",
"sX c #A79D86",
"dX c #96A289",
"fX c #9BA28B",
"gX c #8CA890",
"hX c #9CA892",
"jX c #A7A68B",
"kX c #B5AA8F",
"lX c #A4AC95",
"zX c #ACAD94",
"xX c #A7B196",
"cX c #ABB29C",
"vX c #B2B49C",
"bX c #B9B89C",
"nX c #839EA6",
"mX c #8CAFB4",
"MX c #A8BAAC",
"NX c #B3B9A3",
"BX c #BABCA3",
"VX c #C1B69C",
"CX c #B3C4B5",
"ZX c #C4C3AD",
"AX c #8EBBC9",
"SX c #96C4D4",
"DX c #B3CECE",
"FX c #9CD5E8",
"GX c #83D7FC",
"HX c #A7DBEB",
"JX c #B2DEEA",
"KX c #B7E1EE",
"LX c #B8EAFA",
"PX c #C1E1E5",
/* pixels */
"d e h j : 0 8 6 4 < 1 0 ; ; ; ; < 1 o 0 e p.u.1 f J.i.d < < , 8 q e ; o 9 q 9 ; p 1 < < 3 w , 4 X 3 ",
"X.E.E.E.E.L.e.y W h U.y.e.:.e.,.,.o h e.v.a.a.X.s.p.g 1.k 2 v T.L.M.1._ Y.e.e.9.%.< 8 v k  .| L 7 1 ",
"y.jXsXjXjXzXaX' d :.sXsX/.E.T.Y.e.t j ^.~.>.!.U.M.X.<.rXn.y M.^.W.L.M.1.rXU.N.e.w.9 v n.-.0.;.O.P > ",
"e.kXkXbXzXzXfX] m :.sXsXaXE.T.T.y.j k aX~.M.U.L.n.1.A.D.n.9 <.U.N.I.Y.N.q.e.m.w.9.9 l.n.tX$.+.` D 4 ",
",.aXvXNXcXxXfX .f b sXsXT.Y.L.,.j : | aXaXU.q _ | _ k <.L 7 ; ' !.U.M.m.,.w.8.<.O.; n A.w.;.+.K 5 u ",
":.T.vXcXcXlXfX*.g i.q : : q q q e h k N.W.D.n.W.!.D.D.A.n.q } rXD.N.N.w.*.#.1.m.r 7 z.;.#.{ ` 5 = ..",
" .vXcXcXlXlXhX#.b bXVXbXVXCXNXxX2.X.m I.L.N.1.U.N.A.F.Z.9.t %.t.9.q.w.<.w.e.8.5.O.8 a.G.O.J J =.k.x.",
"_ eXrXtXF.q.' t m ZXBXbXbXbXBXNX%.l b N.M.q.G.D.m.G.S.C.7.r J w.w.0.8.0.q.8.*.&.@.; z x.x.>.X.a.p.f.",
"s 0 q 0 < q s s b BXbXBXBXBXNXcX*.l  .w.w.%.t.w.w.C.V.r.7.S 4 S o.P t %._ ` L L H $ 1.zXaX~.Y.#.X.s.",
"g K.y.y.y.y.y.M M VXBXBXNXMXNXxX .v _ | ` ; 9 q 9 r r r C u $ $ # # @ @ . @ @ $ 5 7 v.zXlXpXrXF.F.i ",
"M VX/././.P.y.:.b cXxXcXcXcXcXcX_ l z.e l m f.g i.a.x b b m M X.b h d d h l h h 2 d M.fXpXiXrXA.6.t ",
":.VXkX/./.sXy.j k lXfXfXdXxXhXeXu l h.h.j.K.h.h.h.i.I.bXzXvXjXbXzX:.s K.kXsX/./.] d 1.iXdXtXeXS.S.r ",
" ./.^.E.~.T.y.y 0 _ k ] ' _ t t r l BXkXjXjXjXjXCXq jXzXzXzXcXzXfX-.q ,.sXP.y.y.] 2 :.iXrXD.F.A.C.D ",
"_ sXE.~.~.Y.e.j s l k k y j y 0 d b ZXBXkXkXjXjX^.: <.D.M.cXcXhXpXtXq :.E.E.P.y.:.0 v L J | o.L P 9 ",
"j y.T.T.Y.U.%.y b bXbXzXaXvXlXuXG.MXPXDXDXDXDXMXhXJ uXcXdXdXhXiXeXD.t :./.P.Y.y.1.2 z h j q q 0 w p ",
"1 j ] ] #.) y o b zXsXjXMXDXJXJXHXJXLXLXLXLXLXLXKXmXCXMXhXiXA.m.9.*.; ,.sXrXY.Y.,.0 v.zXiXY.e.q.w.9 ",
"f z k b k b z z  .pXD.MXAX+XXXr.R R }.SXHXSXAXmX+X+X+XDXMXgX5.uXeXC.; ,.iX!.!.R.*.e 2.Y.y.e.,.<.*.r ",
"c /.VXsXsXpXeXXX4.G * O % _.OXOXOXOX`.B R + * * & % % * XX+X6.Z.%.r r y ' %.%._ G k e.y.e.,.) #.' D ",
"1.vXe.V + + > U }.].@X=X:X,X7XqXwX0X#XN V 3XwX8X1X>X:X@X* }.* + XX8 2 f s s 2 h } >.>.q.8.%.8.&.` : ",
":     N  X9XGXwX0X7X>X>X>X>X1X6X2X/ & `.6XwXGXqX7X>X>X>X[.O }.3X> w.,.d I.zXaX~.M.l  .8.%.8.&.o.K H ",
"] ] ] ) * OXGXwX8X<X>X>X>X>X#XI   O {.1XqXGXGXqX8X>X>X>X$XN &XwXOX: 8.; aXaXiX!.Z.e q J 9 r - = - C ",
"] 1.rXyX) + +XwX8X1X>X>X;X'.* * N OX<X7XqXqXGXqX8X1X>X>X@XN &XqX6XI R : fXiX!.R.*.h u.1 , X X < < 2 ",
"h _ ,.5.) . R OX6X-X*X@X! I +XG OX8X8X4X7X0XwXGXqX7X,X;X).& ~ 3X2X%X* ] pXeXR.F. .e x g.v v >.>.>.s.",
"d z z l g.m.5.F V B A U XXFXAXF 9X9X0X8X<X7X0XGX0X8X;X[.% {.Q N N * + ) XXeXF.w.m c c.1.N.-.!.T.U.0.",
"b jXG.c x.h.z.B.gXmXDXJXLXLXmXI 9XGX9X3X X]..X.X}.`.Q N {.$X[.'.@X{.* | k L _ x d.d.W.tX!.<.D.Q.F.8.",
"q.iXiXI.b xXxXM.} CXLXLXLXLX+X~ 1X2X}.B Q ! / ^ _.'.[.$X|.^ .XA |.=XB  .c c c d.d.d.v.R.F.tXD.A.Z.-.",
"| Q.m.} ;.lXdX} q.xXlXMXJXLX+XZ ).B }.3X-X:X>X:X;X:X>X=XZ 5X5X2X'.=XZ e.jXaX~.!.U.<.v $.8.eXS.C.n.` ",
"j D.D.M.i J v.W.q.G.1.G.m.CXnXO N #X1X<X>X>X>X>X>X>X>X$XZ .XoXY {.;XB t.pXdXQ.F.Z.*.=.+.6.S.C.C.C.P ",
"t { K i 6 1.~.!.M.M.xXjXlX~.yX+ U ).;X>X>X>X>X>X>X>X>X>X=X|.^ H &X*XN yXtXrXF.A.Z.+.l x.1.-.-...o.v ",
"p 1 q k x v.Y.U.m.xXxXlXfXpXuX5.+XO $X>X>X>X>X>X>X>X>X>X>X>X-X%X<X|.* rXXXF.A.n.#.t d a.f.x.g.z.s.a.",
"b jXE.W.W.b M.e.-.} dXhXdXtXD.A.XX> [.;X>X>X>X>X>X>X>X=X>X>X>X>X;XQ L 6.1.-.| o.i p M jXfX!.U.R.hX| ",
" .~.T.iXL.k q.q.U.W.-.Q.eXF.A.0.<.nX& *X>X>X>X>X>X>X>X! |.:X>X>X@X&  .2 f j.J.g u.g !.tX!.U.A.Z.C.G ",
"1.aXe.,.| e y A.Z.e.0.| A.n.n.&.J D F ! ;X>X>X,X>X>X>X$XB Q @X$XN r.rXY.M.>.v.c.-.l M.!.R.D.C.n.C.K ",
"q.Y.T.R.q.q e 6.w.8.%.` ` J > $ @ 1 X.> ).=X<X1X>X>X>X>X*X'.N % V t.N.e.q.*.eX6.O.; 1.XXF.Z.C.C.C.K ",
"<.U.U.Z.0.e f J &.O.K r . @ o y >.>.v.Z.R Q {.-X:X>X1X8X#X).& G r.q.9.8.6.` J &.` ; 6.S.S.C.C.C.G.Y ",
",.D.D.Z.-.i m 0 = = @ X 1 h W.lXiXiXrXrX[ 7.3.~ _.`.( I V V [ r O.9.6.%.o.6.| W J # t { @.+.@.K r H ",
"' 9.w.C...d.u.g w 8 h f u.v.zX~.Q.Q.D.w.t  .D.9.XXXX5.5.XXO.J @ i @.$.r.&.@.} o.S # 2 1 i t t 9 4 6 ",
"e y k v m c I.(.dXiX~.1.c >.!.W.D.F.Z.0.9 } t.*.6.#.` $.5.[ K $ 8 L 6.@.o.T W H C 4 n X.0.&.o.o.K 8 ",
"-.hXtXQ.U.v sXaX^.iXiXpXq b eXG.m.C.C.n.9 k 6.&.' [ { > T T S r n E +.@.P T H C 5 u X. .$.[ T K D = ",
"q.!.m.w.;.i iX!.!.Q.eXS.; } A.C.V.V.V.&.i e T o.{ L K F - S H A B.XX=.W K Y H C E s.k.$.{ P K F S = ",
"E 0.6.5.` y rXQ.R.F.A.Z.; 0 @.+.&.5.@.P w v 5 T P H F 5 # w 5 u k.B.B.b.W E n l.XXs.=.@.r F F S u w ",
"7 P P P } } G.S.F.F.C.w.; l 1 ; 7 ; ; ; 3 x # 5 C A C 4 u w x n f.B.c.s.s.f.j.x b.k.a 6 1 e 4 u p a.",
"d c g.c a.c S.A.C.C.C.V.$ >.fX!.R.m.w.9.| e n 8 4 , w x u.m (.I.G.X.Q.G.G.1.-.$.W w x g.g.a.x n c a.",
"<.rXhXQ.v l V.5.+.V.7.Y = M.N.q.;.$.o.{ W ; l.1.n.M.n.} c c.R.m.0.} 0.0.&.o.{ L H 4 1.Z.M.0.m.n.6.i ",
"<.pXe.9.} 2 ; r r P W 5 5 <.m.*.%.o.` L K #  .R.U.A.Z.+.w _ <.*.*.*.$.$.{ ` L D H # %.m.9.*.+.o.{ = ",
"' D.8.*.J 0.v x l.E Y s.x k 8.O.[ ` K K F # | F.F.Z.C.@.8 t ;.*.#.o.t L L K K D C 6 $.9.&.O.{ L K r ",
"_ ` *.O.0.&.o.E ..l.CXb.n -.&.o.L K F F S = } S.C.C.n.W 8 v i +.` K F G K D D C 4 i ` o.{ [ L K H 5 ",
"` &.t n.5.o.T T K =.XXoXE | &.T K F F F = $ O.F.C.r.r.T w P +.P F V S 5 D S H A E l.o.T L L K K H 5 ",
"w i a @.T K H Y E l.H.b.l.a 5 5 5 C r r i w V.@.4.@.@.H ..t F S > - C C = p u E b.l.u u u S r S H 5 ",
"u.i.e w W 7.4.....s.j.k.H.a < , @ # X # w p X.4.o.W T ..s.e . # @ # # $ 4 i.p.a.n k.a 4 4 7 # 6 w p "
};
