/* XPM */
static char *out[] = {
/* columns rows colors chars-per-pixel */
"64 64 250 2 ",
"   c #07090A",
".  c #0A0C0C",
"X  c #10180C",
"o  c #0C0D13",
"O  c #0C0D1B",
"+  c #130D1B",
"@  c #0E1214",
"#  c #0E121A",
"$  c #111514",
"%  c #151B14",
"&  c #11161A",
"*  c #151B1C",
"=  c #191D1B",
"-  c #311B18",
";  c #17290D",
":  c #1B2716",
">  c #1B231C",
",  c #25291C",
"<  c #362B13",
"1  c #26371A",
"2  c #101027",
"3  c #171C21",
"4  c #191E22",
"5  c #151528",
"6  c #181636",
"7  c #291B28",
"8  c #231A39",
"9  c #1C2224",
"0  c #1E2526",
"q  c #252827",
"w  c #21262B",
"e  c #362B26",
"r  c #2A3522",
"t  c #282838",
"y  c #313331",
"u  c #5A2A0E",
"i  c #582A16",
"p  c #523311",
"a  c #63300F",
"s  c #622D1A",
"d  c #673617",
"f  c #6C3613",
"g  c #753C13",
"h  c #463327",
"j  c #54352A",
"k  c #4D3032",
"l  c #693626",
"z  c #6F3829",
"x  c #264808",
"c  c #284513",
"v  c #325114",
"b  c #345917",
"n  c #377709",
"m  c #346313",
"M  c #3D7A16",
"N  c #374826",
"B  c #3A5827",
"V  c #344632",
"C  c #3A682C",
"Z  c #524C13",
"A  c #67461B",
"S  c #7B4314",
"D  c #6C5914",
"F  c #4A6917",
"G  c #467A15",
"H  c #577514",
"J  c #776A13",
"K  c #42532E",
"L  c #594530",
"P  c #455A35",
"I  c #7A4428",
"U  c #764936",
"Y  c #715132",
"T  c #4E7024",
"R  c #4D6435",
"E  c #516836",
"W  c #536B39",
"Q  c #5A773B",
"!  c #7C7B24",
"~  c #6D6838",
"^  c #1B1B44",
"/  c #1D1D52",
"(  c #221B45",
")  c #241D4B",
"_  c #1E2255",
"`  c #28264A",
"'  c #363848",
"]  c #252559",
"[  c #373252",
"{  c #272969",
"}  c #393768",
"|  c #2A2C74",
" . c #2A2D77",
".. c #2E3273",
"X. c #353675",
"o. c #433A58",
"O. c #413D66",
"+. c #504A51",
"@. c #6E5146",
"#. c #63555B",
"$. c #5E7A41",
"%. c #4F7055",
"&. c #726D4B",
"*. c #627D43",
"=. c #776857",
"-. c #7E6F5E",
";. c #4F4D69",
":. c #464977",
">. c #736B6B",
",. c #7D7A78",
"<. c #884A15",
"1. c #904B15",
"2. c #8A5619",
"3. c #975618",
"4. c #A75B18",
"5. c #9A641C",
"6. c #867C1D",
"7. c #A9681C",
"8. c #B46A1B",
"9. c #BB761E",
"0. c #8D5731",
"q. c #986926",
"w. c #937128",
"e. c #A97625",
"r. c #B87B25",
"t. c #AA7330",
"y. c #C17C1F",
"u. c #C47E21",
"i. c #8A5A47",
"p. c #916C52",
"a. c #B2774B",
"s. c #9A7B63",
"d. c #A67962",
"f. c #278A00",
"g. c #388608",
"h. c #2D9000",
"j. c #359500",
"k. c #3B9600",
"l. c #369A00",
"z. c #3D9A00",
"x. c #3E940C",
"c. c #3DA000",
"v. c #458909",
"b. c #57890A",
"n. c #429405",
"m. c #439D00",
"M. c #499E02",
"N. c #48960A",
"B. c #4B9C0B",
"V. c #54960B",
"C. c #539C0A",
"Z. c #4A8618",
"A. c #5F8311",
"S. c #479315",
"D. c #4C9A13",
"F. c #529B15",
"G. c #559718",
"H. c #658816",
"J. c #6C9717",
"K. c #46A100",
"L. c #4BA301",
"P. c #4EA901",
"I. c #4CA209",
"U. c #51A601",
"Y. c #53AA01",
"T. c #58A806",
"R. c #52A216",
"E. c #568B26",
"W. c #589627",
"Q. c #5D8937",
"!. c #519333",
"~. c #738D26",
"^. c #628B3B",
"/. c #659639",
"(. c #68A233",
"). c #3B9152",
"_. c #32916D",
"`. c #509147",
"'. c #658544",
"]. c #688746",
"[. c #668A43",
"{. c #698A45",
"}. c #699243",
"|. c #498A70",
" X c #92811D",
".X c #B2831F",
"XX c #878829",
"oX c #95892B",
"OX c #8C8D37",
"+X c #9A8C39",
"@X c #BA8528",
"#X c #B28E35",
"$X c #C68424",
"%X c #CA8B27",
"&X c #CE8F2A",
"*X c #CD932D",
"=X c #D4952A",
"-X c #DB9C2A",
";X c #CB9834",
":X c #D59C32",
">X c #DFA22E",
",X c #CAA23C",
"<X c #DBA437",
"1X c #E2A42D",
"2X c #E5AB35",
"3X c #E5AB37",
"4X c #EBB43D",
"5X c #898640",
"6X c #9F9440",
"7X c #A59045",
"8X c #8E8469",
"9X c #938872",
"0X c #AC8B6F",
"qX c #B7A677",
"wX c #CA964E",
"eX c #D5AB44",
"rX c #D1AA4F",
"tX c #E9B845",
"yX c #F1BD46",
"uX c #E5B151",
"iX c #C39376",
"pX c #D4AB73",
"aX c #E5B56D",
"sX c #F2C34C",
"dX c #ECC557",
"fX c #F2C652",
"gX c #F4CA56",
"hX c #E4CB7E",
"jX c #2F3585",
"kX c #343985",
"lX c #32398D",
"zX c #333C93",
"xX c #3F438A",
"cX c #1A9196",
"vX c #298E8D",
"bX c #508B8F",
"nX c #77928C",
"mX c #8F8881",
"MX c #A8998D",
"NX c #A3AAA2",
"BX c #CDAD8B",
"VX c #D8B796",
"CX c #E3B68F",
"ZX c #D1BBA3",
"AX c #E9C693",
"SX c #D6C4A9",
"DX c #E8C8A8",
"FX c #EDD1B6",
"GX c #BCC6C2",
"HX c #E1D4C4",
/* pixels */
"Y.P.L.L.L.P.Y.Y.U.L.M.M.M.M.L.K.m.k.m.M.B.T.T.J.OXOX5X5X5X5X5X5X5X~.! ! E.E.F.I.m.k.L.L.m.z.m.z.k.j.h.j.z.m.k.z.L.L.K.z.j.j.K.L.",
"P.P.L.K.L.P.Y.U.L.K.M.M.m.m.M.m.n.k.m.M.V.J.J.J.+X+X6X6X6X+X6X+X6X7X+XoX! ~.J.J.V.N.M.L.K.m.m.z.k.k.j.j.z.z.z.m.L.Y.K.z.k.z.m.L.",
"K.K.z.z.L.L.K.m.z.m.m.m.m.m.z.k.k.k.m.V.H.~.w.#X,XrXeXeX,X,X,X,XeXeX7X7X+XOXOXXX~.G.B.L.K.m.z.k.k.k.j.z.m.M.z.M.L.L.K.z.k.z.z.K.",
"K.c.z.m.L.L.m.z.k.z.m.m.m.m.k.k.x.n.V.H.! w.@X;XtXdXfXsXeX4X4X4XtXtXuXrX,X,X#X#XoX~.G.T.L.K.z.j.j.k.z.M.M.K.z.m.L.L.K.m.z.z.m.z.",
"K.K.L.P.Y.L.K.m.m.m.K.K.M.m.k.n.V.V.H.6.e.*X3X4XdXgXgXgXfXsXsXfXgXgXdXdXdXtXeX,X#X+X~.G.I.m.z.j.j.j.m.M.m.z.j.j.z.c.m.m.K.K.z.z.",
"K.K.Y.Y.L.L.M.M.m.m.K.m.z.m.n.M.V.H.6.w.@X-X4XsXgXgXgXgXgXgXgXfXgXgXgXgXdXsX4X2X:X#XoXJ.C.K.k.j.j.z.K.K.m.m.z.z.c.z.m.m.K.m.z.z.",
"Y.Y.Y.Y.M.z.m.m.K.z.z.l.k.m.m.M.V.J. X@X;X<X4X4XgXsXsXsXsXfXsXsXdXsXsXtXtX4X2X2X<X;X.XXXV.L.z.l.z.m.L.L.K.m.K.L.L.K.m.m.z.z.z.j.",
"Y.Y.Y.Y.m.z.z.m.c.K.z.k.k.k.n.V.H. X.X%X*X<X1X1XsXsX4XtXsXyXyX4XtX4X4X3X<X>X-X-X>X;Xe.6.V.L.M.m.m.K.L.P.L.L.Y.Y.L.L.K.z.z.z.l.k.",
"L.M.Y.U.M.m.z.n.m.m.L.M.z.k.B.A.J 5..X=X$X=X-X1X2X2X2X2X4X4X4X3X2X>X=X&X%X$X$X$X$Xr.5.6.b.L.L.L.K.K.L.L.Y.Y.T.T.Y.L.m.z.k.j.k.k.",
"m.M.Y.Y.M.z.k.k.m.L.Y.Y.M.n.B.A.J 3..X$Xy.y.=X-X1X1X1X1X2X3X>X<X>X-X%X$X$X@X8.7.e.7.2.D b.M.U.U.L.K.L.P.Y.Y.T.Y.Y.L.M.M.m.z.k.j.",
"m.M.Y.Y.M.k.k.k.L.Y.Y.Y.U.M.V.H D <.8.y.y.y.y.$X-X1X>X1X1X<X&X&X<X:X$X$X*X%X7.3.3.2.S D b.m.U.U.L.K.P.P.Y.P.L.U.L.M.L.L.L.K.k.l.",
"m.M.U.U.L.m.z.M.Y.Y.Y.Y.U.M.V.H S S 4.4.4.8.y.y.%X=X=X=X-X=Xr.r.*X:Xr.r.*X@Xq.2.2.<.g Z b.L.U.U.L.L.L.P.P.P.L.K.M.M.L.Y.L.m.z.j.",
"n.m.M.L.Y.L.L.L.Y.U.L.M.M.M.V.H Z a 3.4.4.4.8.9.y.9.$X$X%Xu.7.e.;X*X7.q.e.7.3.2.5.2.A Z G.U.Y.L.K.m.L.L.K.m.K.m.n.n.L.L.z.k.z.z.",
"m.m.m.L.L.Y.Y.Y.L.M.M.M.m.M.B.H p a 1.4.4.7.8.8.4.3.4.7.4.4.<.2.@Xe.2.<.2.3.D 2.5.5.A Z V.Y.U.L.K.M.K.K.m.z.m.m.k.k.M.M.z.k.m.m.",
"L.K.L.K.M.M.L.M.m.n.m.z.k.m.T.A.Z u g 1.4.4.4.4.1.S S S g g s s <.2.g f g g S <.5.5.D H V.Y.U.L.L.K.z.z.j.z.K.L.k.j.m.m.M.n.n.z.",
"M.K.L.L.m.m.m.m.z.z.m.k.k.m.T.b.Z u f S 3.4.3.1.S g a a a u u s d g s a i d I 2.q.q.F F V.Y.L.L.L.K.z.z.l.z.L.L.z.k.m.M.M.M.m.m.",
"m.K.L.K.z.z.z.m.z.z.z.k.m.K.U.V.F Z d f 2.3.<.g f z z s s u s z z z s s l z 0.i.0.U T G n.K.z.K.K.K.z.z.k.z.K.L.K.M.L.K.M.K.K.L.",
"M.K.K.m.j.j.m.K.K.z.z.z.z.L.L.C.H F p s S <.g f z U I i.z z i.i.@.@.j l i.p.s.d.p.0.T G n.m.z.z.L.K.z.k.z.z.M.K.K.K.K.K.m.m.M.L.",
"K.L.K.z.j.j.K.L.K.m.m.m.m.M.L.T.G.H Z p f f a d I i.d.a.d.d.MXmXmX>.o.U s.0XBXiXd.&.T v.N.k.m.K.L.L.m.m.m.m.z.K.K.K.m.m.m.m.M.M.",
"L.L.K.M.k.z.L.P.K.m.z.z.k.m.K.I.F.G Z Z a a u s U d.iXBXVXVXBXNXNXnX+.#.0XVXCXBX0X~ E.N.k.n.z.m.L.L.m.m.M.K.c.z.z.m.K.M.K.K.K.m.",
"U.U.Y.P.L.K.L.L.z.l.z.m.j.k.z.m.n.n.G F Z p u i z i.iXBXCXVXDXFXGXNX:.;.MXZXDXVXs.~ S.z.z.z.k.z.L.L.M.m.n.m.m.K.K.z.K.L.L.L.K.K.",
"L.L.Y.P.L.K.K.m.z.k.z.z.j.j.z.m.m.n.v.G Z p < i s i.d.CXCXDXFXFXHXNX>.>.MXZXSXBXs.~ Z.z.x.k.j.j.z.M.m.m.k.z.K.L.z.z.K.L.Y.P.K.K.",
"L.M.K.c.c.c.z.z.m.m.m.n.k.z.L.U.M.M.M.v.F x - - s z a.pXCXCXFXFXHXSXMXMXBXVXCXiXp.~ E.x.n.k.h.j.l.z.M.m.k.k.K.K.c.z.K.K.P.P.c.z.",
"m.z.z.z.z.z.z.z.m.m.n.k.z.M.I.U.M.n.v.G x < - - s z a.wXpXCXAXDXFXDXBXBXBXCXpX0Xi.Y R M v.n.k.j.j.j.m.m.z.m.M.K.K.z.m.K.L.L.c.c.",
"m.z.K.z.l.l.k.m.n.n.m.m.K.L.L.M.N.M b c c 1 , - j I 0.a.wXrXCXCXCXaXaXuXpXwXwXa.Y e N b Z.D.n.z.k.z.z.m.z.K.K.K.K.K.M.M.L.K.c.c.",
"m.K.c.c.z.z.k.k.m.k.k.m.L.L.L.N.M m 1 : : q 4 e j z 0.4.t.t.wXaXaXaXeXeXwX;X#Xw.L e 1 N C Z.N.z.k.z.z.m.z.m.z.m.K.K.L.L.L.L.c.c.",
"K.m.z.z.m.m.m.m.m.m.n.m.M.M.N.v.b 1 X @ = = 3 , k j l z I q.t.;X3X3X;X*X#Xr.t.0.L e y r c b g.k.z.z.m.m.z.z.z.k.z.m.L.Y.Y.Y.K.c.",
"m.m.z.m.L.K.m.z.m.M.m.n.M.M.S.M r , @ @ * 4 4 w e e h h i d 3.8.%X%X@Xe.t.q.q.J j y w w q c n x.k.z.K.K.z.z.k.k.z.m.K.P.Y.Y.L.K.",
"z.m.m.M.L.L.z.l.M.M.m.n.M.M.G.F 1 % * * * 4 w w w q q 7 - - a <.7.e.q.q.q.q.S A h e q w 0 1 m g.g.j.L.L.K.m.z.z.m.K.K.K.Y.Y.Y.L.",
"m.m.M.L.L.M.l.l.m.L.m.m.M.N.G F : + & 4 = 4 w w t w 0 7 + - e l 0.t.0.Y 2.I d h e q q w 0 1 x n h.k.K.L.K.m.z.k.K.K.z.z.Y.Y.Y.U.",
"L.L.U.U.L.m.j.j.K.L.L.M.L.n.b 1 % @ & = 4 4 0 w w w w 9 + + 8 k &.i.0.U j e e q 0 0 w w 0 0 1 m g.k.m.K.z.k.k.k.z.m.z.z.m.L.L.L.",
"Y.Y.L.L.M.m.j.z.L.P.L.M.L.v.x : X @ * 3 4 9 0 w w w w 4 o + ( o.=.p.=.@.y 7 4 = 9 0 0 w 0 0 : c n m.z.z.l.j.k.z.z.z.k.k.M.K.L.L.",
"Y.L.M.m.M.z.j.k.K.L.M.M.M.g.x ; @ @ & 9 4 9 9 9 9 9 0 9 . 2 ^ :.,.8X-.+.[ 6 5 # * 3 0 0 w 0 3 1 n l.l.l.z.z.z.l.z.z.k.z.L.U.L.M.",
"Y.L.z.z.z.k.j.k.m.L.M.M.M.g.x X @ # & * 3 4 3 4 3 3 9 3 O 2 ] :.8X8X-.#.} / 2 @ * 3 9 0 w 9 * ; m f.l.c.m.z.z.z.k.z.z.m.L.L.M.z.",
"P.K.c.l.k.k.j.k.m.m.m.M.U.v.x X @ O # & & * * 3 9 9 3 & O 6 { :.,.9X-.#.} _ 2 # & : 9 9 0 3 # ; c n z.m.c.z.z.z.z.m.L.M.z.k.z.z.",
"P.L.l.l.j.k.k.j.z.m.m.M.M.v.x : 5 2 2 3 5 # O & 3 3 & 2 2 6 | :.,.9X-.#.X.{ 6 2 * : > 9 0 9 ; ; v n n.M.z.c.c.c.m.K.L.m.k.j.z.z.",
"P.P.c.l.z.z.j.j.z.z.K.L.M.n x 0 _ _ _ ^ ^ 2 O o O # 2 5 6 / | :.,.9X-.#.} { 6 5 3 * : * : , N F G v.M.m.m.M.P.K.M.M.m.m.m.m.m.m.",
"P.K.z.z.m.z.z.z.z.z.L.L.K.n x q { ..{ { ] 8 O o O 2 6 ^ / { | X.,.9X-.#.} { 8 6 0 1 1 c c B m Z.V.C.M.m.m.M.K.L.M.M.k.k.z.m.m.M.",
"z.z.l.j.m.K.m.z.K.K.Y.Y.K.g.c t ..lXzXjX| ) 5 + 6 ^ { { { { { :.,.9X-.#.} ] 6 0 N B C M Z.Z.N.B.T.T.L.K.m.m.c.c.M.m.k.k.j.z.m.m.",
"k.k.k.z.M.K.m.m.K.L.Y.P.I.v.m V } X.zXxX:.o.t w ^ ] jXjX .| | :.,.9X-.#.} ] 6 w B T Z.G.G.R.I.L.U.U.L.M.z.m.z.m.m.M.m.k.k.k.m.M.",
"k.m.M.L.M.m.k.m.L.P.L.P.L.B.T C ' ] X.;.,.>.z o.[ ..kXlX .| | :.,.9X>.#.o.( 6 9 b M g.M.L.I.I.L.L.L.m.n.k.z.m.K.L.L.k.k.m.M.L.L.",
"m.m.L.L.M.m.m.m.I.P.K.K.L.V.E.W V ' +.>.mXMXp.@.o.X.lXzX .| { O.,.s.>.+.[ ( 6 w b M g.k.L.L.L.L.L.m.z.k.k.k.m.M.P.L.m.m.M.L.P.P.",
"M.M.L.L.U.U.L.M.K.K.P.c.K.B.G.T C ' &.0XVXVXBX0X#.:.kXlX .{ { } >.>.#.} ` ) ` t V C g.k.L.L.L.L.m.z.k.k.k.k.l.z.L.U.M.M.L.U.L.L.",
"L.U.L.L.Y.U.L.M.c.c.K.I.K.L.B.Z.%.%.].MXVXAXAXMX#.+.X.lXjX| { X.;.#.;.} ) ( ) ` ' B g.m.L.U.L.L.M.z.z.k.k.k.l.z.L.L.M.M.L.P.L.L.",
"Y.Y.Y.P.L.K.K.z.c.c.I.P.P.P.P.).).bX|.NXhXhXAXqX#.o.X.zXzXjX .{ o.O.:...` 6 ) ` ' B S.U.U.U.L.L.L.L.m.k.K.K.z.z.m.M.m.z.K.K.L.M.",
"Y.Y.Y.Y.K.z.z.z.c.c.P.P.P.P.R.(._.cXnXnXqXdXpX8Xz o.X.lXzXlX| ] _ ' ..{ ( 6 ` ` t B v.Y.U.U.L.Y.Y.L.m.M.K.K.z.l.z.m.k.z.m.m.M.M.",
"L.L.Y.L.m.k.j.z.c.c.P.c.c.R.R.).cXcXxXbX8X7X5X~ k t ..zXzXjX] ( ^ ` ^ ^ 6 6 ` ` V T v.L.M.L.L.U.L.L.K.L.K.K.l.l.z.m.z.m.m.M.L.L.",
"m.K.Y.L.m.j.l.l.P.P.c.P.c.c.R.)._.cXvX_.#.@.L j - 8 {  .X.{ ( 8 6 6 5 5 5 5 8 t V Q S.N.m.M.L.L.M.M.L.L.K.K.c.l.z.m.m.K.m.K.L.L.",
"K.K.K.K.m.z.l.l.K.K.m.m.m.M.S.!.)._.|.%.+.y , - = 5 8 ) ] ` t 6 2 O O O 4 4 5 y P Q E.G.D.L.M.m.m.m.L.L.K.z.z.z.K.K.K.L.K.K.K.z.",
"K.K.K.K.K.z.l.l.z.m.m.m.m.m.z.S.!.`.}.$.V > @ o o + + 6 6 6 t 4 @ o o # 3 4 = 1 R ^.W.W.G.F.N.k.m.m.L.K.M.m.m.K.K.K.L.L.L.K.c.z.",
"c.K.P.K.K.c.l.k.z.m.m.m.K.m.m.S.!./.[.Q N : @ . . + + + 4 w t w & o $ % 4 = = r T Q ^././.W.D.m.m.M.L.L.M.z.m.m.L.L.L.L.K.c.K.K.",
"c.c.P.P.K.m.z.z.m.m.m.m.m.K.D.F.W.^.}.Q v : X . . .   + 9 0 q w & o % = = > 1 e E Q {.}.}./.W.D.M.M.M.L.m.m.n.m.L.Y.L.K.c.K.L.L.",
"z.K.Y.Y.K.m.z.K.L.K.m.m.B.B.F.W.Q.[.{.Q N : : # . . o & = 9 0 9 o . $ % = , K R Q '.'.[.{.}.W.W.B.m.m.k.n.m.M.L.Y.Y.L.K.K.L.L.L.",
"k.m.L.L.K.z.K.K.P.P.K.K.m.D.G.!.Q.[.{.Q N 1 > % .   o * 4 9 9 * . . $ : 1 N R Q ^.].'.].{.{.}.W.D.N.n.k.k.z.M.L.Y.Y.L.L.P.L.L.K.",
"m.m.M.m.z.l.m.L.P.Y.P.m.z.S.E.Q.[.'.].Q R N : #     + & 4 3 3 &   . : 1 K W Q '.'.].].].].{.}.W.F.M.L.M.k.z.L.Y.P.L.L.L.K.K.K.K.",
"L.L.M.z.z.z.K.K.P.Y.I.K.z.n.E.Q.'.'.'.$.E B , $     $ = 3 9 * & o X : N W '.].].].[.].].{.{.{.Q.F.I.U.L.z.z.Y.Y.L.L.L.P.K.K.c.c.",
"Y.Y.K.m.c.z.l.c.L.P.L.K.z.x.E.Q.'.'.'.'.$.C r $     # 3 3 4 * = * * : N W *.'.].{.{.{.].{.{.'.Q.F.P.P.L.c.K.Y.Y.P.L.U.L.M.m.z.k.",
"Y.L.K.z.M.K.z.z.c.P.Y.L.z.x.E.Q.'.'.'.'.$.$.V , $ X % * * 4 = = 9 9 q r R $.'.].{.{.{.].{.{.[.Q.F.I.P.L.z.K.Y.Y.U.U.U.U.M.M.m.k.",
"L.M.z.k.M.M.m.z.m.L.Y.Y.M.n.G.!.Q.[.'.'.'.$.$.K 1 % % * * 9 = q q q q r B W *.].{.{.{.{.].].^.W.F.I.L.K.c.K.Y.Y.U.L.L.U.L.L.m.m.",
"M.M.z.z.M.M.m.m.m.L.Y.Y.M.M.D.W.Q.[.[.[.'.'.$.W N 1 > * * = = , q q : r K W *.].{.{.{.{.{.^.W.W.B.K.L.L.z.z.L.Y.L.M.L.U.L.L.m.k.",
"L.K.m.K.L.L.m.m.z.M.L.I.L.L.I.F.!./.}.}.{.].].Q W N r = = = = , , , % , K W *.].}.{.{.].[./.W.D.z.K.K.K.z.z.L.L.K.m.K.L.U.U.k.j.",
"m.K.K.K.K.K.m.z.z.m.z.M.L.I.L.D.R.W./././.}.{.^.$.R N r 1 r , r 1 r 1 e P *.^.{.}.}.^./.!.W.S.x.k.z.z.z.k.j.m.m.m.m.z.K.Y.L.k.k.",
"l.z.K.K.c.z.z.k.l.j.j.z.m.K.L.M.I.D.R.J./.(./.^.'.$.Q W E E R E E E E W *.{.{./.}.(.!.W.S.S.x.j.j.j.h.h.j.l.j.l.z.z.z.c.L.L.M.M.",
"l.l.K.K.z.k.k.j.j.l.j.l.z.m.K.K.L.I.I.R.(.(././.'.'.'.'.].*.*.*.Q *.*.*.].}.}.}.(.(.W.G.x.k.j.j.j.h.f.f.f.j.l.l.l.z.z.z.K.L.L.L."
};
