/* XPM */
static char *out[] = {
/* columns rows colors chars-per-pixel */
"50 50 254 2 ",
"   c #0A1215",
".  c #152B1E",
"X  c #1B3A1D",
"o  c #243D1E",
"O  c #091D26",
"+  c #0C252E",
"@  c #193626",
"#  c #1B3B2A",
"$  c #072A39",
"%  c #112730",
"&  c #172D34",
"*  c #1B3C34",
"=  c #193A39",
"-  c #243C27",
";  c #263737",
":  c #293130",
">  c #1F401D",
",  c #27481A",
"<  c #2E5219",
"1  c #39581C",
"2  c #3C6419",
"3  c #1D4429",
"4  c #1A443A",
"5  c #234324",
"6  c #284626",
"7  c #2C4A23",
"8  c #2B442D",
"9  c #344929",
"0  c #2B5326",
"q  c #385626",
"w  c #274638",
"e  c #394935",
"r  c #324C3C",
"t  c #275736",
"y  c #3A5539",
"u  c #3C632A",
"i  c #3C6735",
"p  c #435D1D",
"a  c #47691B",
"s  c #4E751A",
"d  c #53781C",
"f  c #617E1F",
"g  c #435C2A",
"h  c #414B39",
"j  c #44573A",
"k  c #466627",
"l  c #4A7329",
"z  c #567827",
"x  c #476438",
"c  c #546939",
"v  c #497738",
"b  c #597935",
"n  c #63793B",
"m  c #083344",
"M  c #0A374B",
"N  c #153947",
"B  c #063C53",
"V  c #273C43",
"C  c #343E40",
"Z  c #1A4A43",
"A  c #06445B",
"S  c #1A4C50",
"D  c #254942",
"F  c #2B4B44",
"G  c #294847",
"H  c #344A46",
"J  c #28534A",
"K  c #385646",
"L  c #34534B",
"P  c #3B554B",
"I  c #3B5B4B",
"U  c #274855",
"Y  c #345152",
"T  c #3C5B51",
"R  c #3A5658",
"E  c #3A6B4B",
"W  c #3B6756",
"Q  c #044B69",
"!  c #045779",
"~  c #105471",
"^  c #355A68",
"/  c #186170",
"(  c #2F6773",
")  c #475744",
"_  c #455B45",
"`  c #425B4D",
"'  c #4B5D4C",
"]  c #565A4C",
"[  c #425C51",
"{  c #4A5957",
"}  c #486546",
"|  c #4D634C",
" . c #52644C",
".. c #576848",
"X. c #477646",
"o. c #5B7748",
"O. c #456254",
"+. c #4B6354",
"@. c #4B6857",
"#. c #4C6A5C",
"$. c #566755",
"%. c #536B54",
"&. c #546B5B",
"*. c #5B6C5B",
"=. c #4B7358",
"-. c #5A725A",
";. c #646A4B",
":. c #64794A",
">. c #646B57",
",. c #63735B",
"<. c #69785A",
"1. c #757D5A",
"2. c #495D63",
"3. c #486764",
"4. c #576B63",
"5. c #5D7463",
"6. c #587B69",
"7. c #587373",
"8. c #647563",
"9. c #657A64",
"0. c #6C7B64",
"q. c #697769",
"w. c #6C766E",
"e. c #6B7D6B",
"r. c #757C67",
"t. c #657B74",
"y. c #837D69",
"u. c #5B851B",
"i. c #628B1C",
"p. c #6D991D",
"a. c #5C8529",
"s. c #5B8634",
"d. c #648825",
"f. c #6A9629",
"g. c #658637",
"h. c #789334",
"j. c #74A627",
"k. c #57874B",
"l. c #588859",
"z. c #67844B",
"x. c #6B8B4D",
"c. c #768659",
"v. c #5A8C6F",
"b. c #6B826B",
"n. c #798667",
"m. c #75836B",
"M. c #7A846C",
"N. c #678376",
"B. c #6C8373",
"V. c #728573",
"C. c #768975",
"Z. c #7B8B74",
"A. c #768878",
"S. c #7C8C7A",
"D. c #6B9771",
"F. c #7B9476",
"G. c #75A474",
"H. c #8AB425",
"J. c #828B56",
"K. c #84866B",
"L. c #8D8D6C",
"P. c #838C74",
"I. c #888875",
"U. c #8C8B74",
"Y. c #838F7B",
"T. c #968D76",
"R. c #889375",
"E. c #84927C",
"W. c #8B947C",
"Q. c #94947B",
"!. c #98957B",
"~. c #A49279",
"^. c #95A17D",
"/. c #045F86",
"(. c #05648C",
"). c #0F6A8F",
"_. c #056C97",
"`. c #2E7999",
"'. c #0275A7",
"]. c #027FB4",
"[. c #2C7EA1",
"{. c #677E81",
"}. c #348F93",
"|. c #0183BA",
" X c #2D8CAE",
".X c #748B8D",
"XX c #78A38F",
"oX c #4891B0",
"OX c #6598A2",
"+X c #799DA9",
"@X c #098EC7",
"#X c #0399D9",
"$X c #26A5DB",
"%X c #019EE2",
"&X c #01A5EB",
"*X c #18ACEC",
"=X c #01ACF4",
"-X c #02AEF7",
";X c #01B3FE",
":X c #18B9FD",
">X c #2FB5EE",
",X c #23BDFF",
"<X c #479EC4",
"1X c #55AACE",
"2X c #67B4D6",
"3X c #4FBBE9",
"4X c #2FC0FF",
"5X c #3DC5FF",
"6X c #53D4D6",
"7X c #49C3F8",
"8X c #5ACAFA",
"9X c #76CBEF",
"0X c #65CBF8",
"qX c #65D0FF",
"wX c #6BD2FE",
"eX c #72D4FE",
"rX c #7DD7FE",
"tX c #859482",
"yX c #8A9582",
"uX c #8C9984",
"iX c #8B9B8C",
"pX c #949B84",
"aX c #959B86",
"sX c #9B9C84",
"dX c #859A9B",
"fX c #A79D86",
"gX c #97A28A",
"hX c #9BA38B",
"jX c #8BA49D",
"kX c #9CA893",
"lX c #A7A68A",
"zX c #B5AA8F",
"xX c #A5AC96",
"cX c #ACAD94",
"vX c #A7B198",
"bX c #ABB39B",
"nX c #B2B49C",
"mX c #B9B89C",
"MX c #94AEB0",
"NX c #ABB8A5",
"BX c #B4B9A2",
"VX c #BABCA3",
"CX c #A0BDBE",
"ZX c #C1B69C",
"AX c #B7C3B2",
"SX c #C3C1AA",
"DX c #89BDCE",
"FX c #97C4D4",
"GX c #A9C9C9",
"HX c #81D7FC",
"JX c #AFDDEC",
"KX c #B1E2F2",
"LX c #BAE9F7",
"PX c #C0EBF7",
/* pixels */
"a q j h o 9 - 6 3 , < 9 - o 9 - o , , 9 0 p.u.< d H.i.a , , > 7 9 q 8 o 8 9 8 - u < , , 2 0 > X X 2 ",
"..T.T.!.T.L.M.e W g I.K.1.>.>.w.>.o g 1.c.d.a...s.p.d <.j 1 c U.K.n.<.) I.r.r.q.$., 7 x j %.O._ 8 < ",
"K.fXzXlXlXcXsX) k ;.fXfX!.T.U.U.y.: h sXQ.:.W.P.n.o.,.W.V.9 m.Q.R.K.r.<.W.K.M.r.e.8 x b.o.e.4.+.I 5 ",
"n.lXzXzXcXcXgX] z ;.fXlXfXT.U.y.y.e ) sXQ.n.R.M.n.9.V.Z.b.8 ,.Z.n.L.P.Z.8.M.V.e.q.8 l.b.uX%.@.` J # ",
">.sXcXBXbXcXhX .s c fX~.T.U.K.>.h e  .gX!.P.9 _ | _ j ,.` 5 - ' W.P.M.m.,.e.9.8.+.- v C.b.*.@.L Z t ",
";.U.nXnXvXvXhX,.s i.: h : - 9 q q g j n.R.P.b.W.R.Z.Z.C.b.9 } yXZ.M.r.e.$. .,.m.r 6 z.-.@.O.` w * X.",
"..nXbXNXxXxXkX .b VXZXmXZXAXmXvX1.b o.K.P.n.<.P.M.Z.S.V.8.w $.m.0.e.0.8.m.r.8.4.+.6 a.P.+.K y =.k.x.",
") tXyXuXS.8.' r c SXVXmXmXmXnXAX$.k c m.n.0.F.M.C.S.A.B.q.F K e.0.9.5.9.0.8.*.&.#.- s x.x.:.o.a.p.f.",
"a 7 - 9 o p h p n ZXmXVXVXVXNXbX$.k ..r.r.&.r.m.e.B.N.t.6.J 3 D O.` w $.) ) ) H F 3 <.cXsXQ.P.$.o.n ",
"d J.y.y.y.y.y.z n mXBXVXBXNXBXbX%.x _ +.I - 8 ; 8 t w t J 3 # # # @ X - @ . @ * 4 5 r.cXlXaXyXZ.S.K ",
"n ZX~.~.~.T.y.] c bXcXbXvXbXNXvX_ k g.q x b f.u.i.z k c ..b n b c g a p g k g g 1 a n.gXgXaXyXC.5.r ",
";.ZXzX~.~.fXy.) h xXhXhXaXxXxXtXr k h.h.j.J.h.h.h.i.L.mXcXnXlXVXcX;.p J.zXfX~.~.] a c.aXiXuXtXC.C.8 ",
"c fXfXT.T.I.y.h q ) h ' ' ) h r w k VXzXlXlXlXlXAX9 lXcXcXcXbXcXhX-.9 >.fXy.y.y.] 1 ;.iXyXZ.S.A.N.F ",
"] fXT.sXyXI.r.h p k c j h h 9 7 2 l SXmXlXfXlXfX!.: <.I.n.vXbXhXaXpX9 ;.~.T.U.y.] 1 x ` K | +.P I 8 ",
"h y.I.w.w.w.w.H c mXmXlXsXcXgX,.q n SXNXcXxXxXxXgXr pXvXhXgXhXgXW.A.; ;.~.T.I.I.>.q a g h 9 9 9 0 k ",
"; : V Y C U N C w.cXlXlXcXcXvXjXdXGXPXPXPXLXJXCXMX{.dXdXjXuXC.V.e.,.- ;.sXT.U.I.>.q c.zX!.I.r.q.0.8 ",
"O ~ +X2X8X>X%X).V yXT.zXNXGXPXLXLXJXJXKXJXFX{.H V V V V H .X8.iXiXB.8 >.aXW.I.Y.*.q 1.U.y.r.>.w.] ) ",
"] C & `.3X:X;X=X[.& dXCXLXLXLXJXFXOX3.2.{ & V <X3X8X9X9XoX= 7.2.: { F j ) $.*.' P y 1.y.r.>.) 4..   ",
"1.ZXaXC ~ =X;X,X0X1XV % R 2.R V $ ! ! O   + *X;X;X4XqXHXwX<XO B ].~ : b a p 1 g } :.,.1.8.$.5.$.{ { ",
">.fXaXyX; (.-X,X0XHXHX3X X].].@X#X@XQ m 2X7X;X;X;X>XqXHXeX0X).Q *X3XU $.L.cXaXQ.n.k  .8.*.8.&.O.Y Z ",
">.hXaXuX.X:  X:X8XeXHX0X,X-X=X XV   % 2X9X0X,X;X;X,X8XwXrX0X XB *X8X[.C xXsXpXW.V.q 0 H 8 w ; * = Z ",
"] r.iXiXr.C N *X8XeXHXqX,X=X(.; 2.O oX9XHXwX8X:X;X;X>XwXrX0X~ Q 3X0X*XM $.yXyXY.*.g u.1 , X X o , 1 ",
"g ] w.: . $ '.,X8XeXHXeX7X_.U +X^ ~ 0XeXHXHX2X3X-X;X>XwXeXoX% $ <X$X(.% 4.yXtXA. .q l n g x :.:...y ",
"a a b <.: % /.#X3XwXHX2X`.& +XDXm #X7X3X`.R U B ! '.@X<X`.N '.Q M m m V tXtXS.e.b z x.<.Z.-.W.Y.; `.",
"c lXR.a.c.C.G & S ^ ^ V : +XKX+XM &X$XN $ '.@X|.! Q B B ! @X].A M ].#XQ &._ _ z d.f.R.uXW.,.Z.q.H 1X",
"0.pXW.R.c vXkXtX.X.X.XdXGXKXLX+Xm |.$ A %X=X;X;X=X&X&X&X&X'.}.6X}.! &X(.h z z f d.d.1.Y.S.yXS.Z.t.6.",
" .Y.m.} ,.kXgX| b.NXhXgX.XGXPX+X% $ Q &X;X4X5X5X,X;X;X;X#XS 6X6X}./ &X_.H aXyXY.P.,.x %.8.tXC.N.B.} ",
"y S.Z.m.y K 0.W.0.C.c.F.<.lXNX+X  $ %X;X,XqXeXeXqX:X;X;X#X(./ }.( _.&X/.] aXW.P.V.*.=.@.5.A.b.b.N.I ",
"r [ I r - ,.Q.R.n.m.vXvXlXW.uX{ : % '.-X5XeXeXeXeX7X;X;X;X=X#X(.A #X=XQ t.uXS.C.r.+.k x.z.=.-.%.O.x ",
"k , q j z c.I.P.m.vXvXlXhXaXP.8.dXP B &X5XeXeXeXeX5X;X;X;X;X;X=X%X=X#X& .XS.V.N.#.r k i.h.x.x.g.s.a.",
"c ^.T.R.U...n.n...| gXgXgXuXZ.m.r.{.% @X:XqXeXeXqX:X;X;X#X=X;X;X;X-X! H 8.-.@.} y q n lXhXW.P.Y.kX' ",
"$.!.U.sXM.g 0.9.E.R.-.tXtXS.C.9.&.&.{ ! -X:X5X5X:X;X;X-X! '.=X;X-X#X+ ..s j.H.s u.d ^.Q.W.P.V.V.V.H ",
"1.fXr.>. .q e V.M.0.9.| V.b.b.&.H ; 7.& _.;X;X;X;X;X;X;X%XA m `.1XN 4.yXn.o.n.b.o.k n.E.Y.Z.B.B.B.L ",
"0.I.P.Y.<.9 q 6.m.8.$.' ` L ; # X , 2 o.& '.=X;X;X;X;X;X-X&X'.B + ; t.r.0.&.tX-.| - 9.S.S.V.B.B.N.T ",
",.I.Z.M.0.e l K 3.@.K w . @ - y :.z.x.:.5.G Q ].&X-X;X=X=X#X(.+ H w.e.8.5._ K =.' - 4.C.A.B.B.N.A.J ",
">.Z.A.V.-.g b 0 * # @ X < g R.lXpXaXyXyXy } 8.^ U /.).! A $ V { +.8.,.*.+.5.| O.L @ r O.#.@.@.L w J ",
"' 8.e.b.o.a.d.d 0 7 x s i.x.cXQ.W.Y.Z.e.9 } Y.*.5..Xt.3.4.t.H # ) #.&.9.4.@.I O.G @ < 1 y e e 8 3 5 ",
"q e y x b d.J.^.hX!.R.<.z :.uXY.Z.C.V.9.8 ..w.*.4.+._ #.3.{ T # 6 P 5.&.O.W W J D 3 v o.0.&.[ W L 7 ",
"o.xXyXE.Z.x fXsX!.pXaXaX9 c E.Z.C.B.N.9.8 j 5.&.$.{ ` ; L Y F 4 v E O.3.P T J Z 4 t o.} $.O.I L J * ",
"e.yXV.q.4.y uXW.W.R.tXS.- _ A.V.B.B.N.-.y q T O.[ P H G = D J J D..X=.W L J J J E s.k.%.T I Y H D * ",
"E q.5.&._ y tXE.Y.S.A.B.- 9 @.@.4.4.#.T q i 4 I I J J 4 @ 0 4 t k.D.D.v.W E v l.XXs.=.#.w J F D t 0 ",
"5 I I E } } F.S.S.S.B.B.- k 7 , 5 - 5 - 1 z # 4 Z J 4 4 t u i l f.F.k.s.s.f.j.l v.X.y 5 < q 3 t u d.",
"a z o.z a.b S.C.B.B.N.N.# :.hXW.E.m.0.6.} q v 6 3 3 0 l u.l W.^.F.o.E.E.F.<.%.%.W t z g.g.a.l l z a.",
",.Q.lXP.x k 6.6.#.N.6.J * M.M.0.*.$.+.O.W - l.<.b.n.b.x s b.Y.r.9.} 9.9.&.O.' Y J 3 -.n.m.<.V.B.5.y ",
",.gXr.8._ q - w D E W 4 3 ,.r.*.$.+.` T H - %.P.F.C.m.@.q j 9.,.*.*.%.&.[ ` K H J # $.e.e.*.@.{ I = ",
"' Z.8.*.y b.x l v.J E v l _ 8.@.[ [ L H G # } S.Z.V.B.#.7 r *.$.$.[ r P P L L J Z 5 $.9.&.+.[ I I ; ",
"y ' *.+.9.4.O.E } l.AXv.v ..4.' P L F G Z * _ S.B.B.t.O.7 x y +.[ Y F F L F J Z 3 y _ O.[ [ P L J 4 ",
"' %.r N.&.O.I I K =.XXOXE %.#.T L F F D ; # @.A.B.B.t.I 0 I @.I F D ; w F D J Z W l.+.` T Y L L J 4 ",
"q y i 3.T L J J W l.G.v.l.i 4 t 4 Z 4 w y 0 A.#.3.4.@.J v r G D ; = Z Z = t t E v.l.t t t G D w J 4 ",
"u.u.q 0 W 6.W =.k.g.j.k.D.i , > @ @ X @ 6 u k.3.O.W T E s.u @ . @ @ @ # > i.j.i.v k.i 3 3 5 X 5 0 i "
};
