/* XPM */
static char *out[] = {
/* columns rows colors chars-per-pixel */
"64 64 246 2 ",
"   c #08070B",
".  c #0A0B0D",
"X  c #0C0D13",
"o  c #0E0E1C",
"O  c #0F1213",
"+  c #0F101C",
"@  c #101113",
"#  c #101515",
"$  c #151B15",
"%  c #181B15",
"&  c #12151B",
"*  c #151B1C",
"=  c #181E1C",
"-  c #2C1B18",
";  c #1C300F",
":  c #1A2616",
">  c #1B241C",
",  c #1F3214",
"<  c #25271B",
"1  c #392517",
"2  c #24361A",
"3  c #383111",
"4  c #0E0F25",
"5  c #151427",
"6  c #191E21",
"7  c #191637",
"8  c #231A37",
"9  c #1C2224",
"0  c #1F2528",
"q  c #272726",
"w  c #222922",
"e  c #222629",
"r  c #24292C",
"t  c #293322",
"y  c #2B3922",
"u  c #343529",
"i  c #39302F",
"p  c #262836",
"a  c #362B39",
"s  c #461C12",
"d  c #522E12",
"f  c #572A18",
"g  c #5A3814",
"h  c #63300F",
"j  c #612D17",
"k  c #673617",
"l  c #6C3612",
"z  c #753C13",
"x  c #4E332A",
"c  c #683625",
"v  c #703B29",
"b  c #294517",
"n  c #344D12",
"m  c #325716",
"M  c #366B0D",
"N  c #3A780C",
"B  c #376715",
"V  c #3B7415",
"C  c #374729",
"Z  c #344B2F",
"A  c #3A5624",
"S  c #336B31",
"D  c #4F4F12",
"F  c #554713",
"G  c #7A4415",
"H  c #6C5217",
"J  c #466917",
"K  c #477A14",
"L  c #527315",
"P  c #766A13",
"I  c #43562C",
"U  c #524B32",
"Y  c #465932",
"T  c #784327",
"R  c #6E4B36",
"E  c #506E26",
"W  c #4E6736",
"Q  c #546C39",
"!  c #58773A",
"~  c #5A743D",
"^  c #7A7925",
"/  c #6D6D36",
"(  c #1D1943",
")  c #1F1F54",
"_  c #241B46",
"`  c #241D4A",
"'  c #1F2254",
"]  c #362C49",
"[  c #33324E",
"{  c #272659",
"}  c #282969",
"|  c #39376A",
" . c #2A2C73",
".. c #2F3271",
"X. c #493A46",
"o. c #423B5B",
"O. c #413E65",
"+. c #265763",
"@. c #237F72",
"#. c #544A4D",
"$. c #6C5447",
"%. c #775A44",
"&. c #62555A",
"*. c #537748",
"=. c #726A43",
"-. c #627E43",
";. c #7B6B5C",
":. c #4E4E6B",
">. c #464A77",
",. c #605E68",
"<. c #6E6C6E",
"1. c #7E6F60",
"2. c #7E7B78",
"3. c #874A15",
"4. c #924C15",
"5. c #8B5519",
"6. c #965618",
"7. c #A95C18",
"8. c #9A651C",
"9. c #89721E",
"0. c #A5661C",
"q. c #B3691B",
"w. c #BA751E",
"e. c #8C562D",
"r. c #9A6625",
"t. c #8E6C30",
"y. c #A56D23",
"u. c #A97525",
"i. c #B57B26",
"p. c #B57B33",
"a. c #C17C1F",
"s. c #C47E21",
"d. c #8A5948",
"f. c #896A46",
"g. c #927155",
"h. c #AD7750",
"j. c #977865",
"k. c #A67A63",
"l. c #278B00",
"z. c #3A8509",
"x. c #338B08",
"c. c #359500",
"v. c #3B9601",
"b. c #359A00",
"n. c #3D9A00",
"m. c #3E930B",
"M. c #3EA100",
"N. c #3C8933",
"B. c #478A0D",
"V. c #55870A",
"C. c #429505",
"Z. c #439D00",
"A. c #499E02",
"S. c #43950B",
"D. c #489708",
"F. c #4D940B",
"G. c #4B9B0B",
"H. c #549809",
"J. c #539C0B",
"K. c #488A17",
"L. c #538E14",
"P. c #4A9614",
"I. c #549918",
"U. c #658617",
"Y. c #679816",
"T. c #77921D",
"R. c #45A100",
"E. c #4BA301",
"W. c #4EA901",
"Q. c #4CA108",
"!. c #51A601",
"~. c #53A901",
"^. c #57A905",
"/. c #58A413",
"(. c #62A41D",
"). c #558C27",
"_. c #599728",
"`. c #5D8938",
"'. c #5F9234",
"]. c #728E25",
"[. c #628A3C",
"{. c #659639",
"}. c #66A32D",
"|. c #35824E",
" X c #30817E",
".X c #658344",
"XX c #698646",
"oX c #668A42",
"OX c #698A44",
"+X c #679242",
"@X c #77826D",
"#X c #898826",
"$X c #918933",
"%X c #B98328",
"&X c #AD8F36",
"*X c #C78826",
"=X c #CB932D",
"-X c #D49529",
";X c #D0922E",
":X c #DB9C2B",
">X c #CA9734",
",X c #DFA12E",
"<X c #CDA23B",
"1X c #DAA536",
"2X c #E2A32D",
"3X c #E4AA35",
"4X c #EAB33D",
"5X c #898640",
"6X c #9E8D50",
"7X c #A79043",
"8X c #8C816B",
"9X c #918870",
"0X c #9D8D7A",
"qX c #B29072",
"wX c #CA964B",
"eX c #D2A74B",
"rX c #D8B34C",
"tX c #EBB844",
"yX c #F0BD46",
"uX c #E4B054",
"iX c #C39074",
"pX c #D6A571",
"aX c #E4B46D",
"sX c #F3C44C",
"dX c #ECC557",
"fX c #F5CA55",
"gX c #31388B",
"hX c #394788",
"jX c #1A798D",
"kX c #556286",
"lX c #258D9E",
"zX c #61979C",
"xX c #A69A8A",
"cX c #AAA892",
"vX c #9EABA3",
"bX c #C49E80",
"nX c #D0B08D",
"mX c #E7B889",
"MX c #E1BB9D",
"NX c #D0BCA8",
"BX c #E7C39C",
"VX c #D9C7AA",
"CX c #E7C4A6",
"ZX c #EACEB6",
"AX c #BCC7C2",
"SX c #DED3C5",
/* pixels */
"~.W.W.E.E.W.~.~.!.E.E.Z.A.A.E.E.Z.n.v.n.Q.^./.Y.#X$X5X5X$X$X+X5X5X$X/ ^ ).L.I.J.C.n.E.Q.Z.v.Z.Z.v.c.l.c.v.Z.n.Z.E.!.E.Z.c.c.R.E.",
"W.W.R.R.E.W.!.!.E.Z.A.Z.Z.A.Z.Z.C.n.n.D.F.Y.Y.T.$X7X7X6X7X$X7X&X7X5X$X$X].].Y.Y.F.D.A.E.D.n.n.n.v.c.b.v.Z.Z.Z.Z.E.W.Z.Z.v.v.R.E.",
"R.R.n.n.E.E.R.Z.Z.n.Z.Z.Z.Z.Z.n.C.Z.Z.G.U.].#X&X7XrXrXrX<X<X<X<X<X<X<X&X$X$X$X#X].L.H.E.E.Z.v.b.v.n.n.R.A.A.Z.R.!.E.Z.v.v.n.Z.R.",
"R.R.n.Z.E.W.Z.n.v.n.Z.Z.Z.C.n.n.C.D.F.U.9.t.%X>XdXdXdXdXtX4X4X4XsXrXrXeXeXeX&X&X$XT.I.!.W.E.v.c.c.n.Z.E.A.E.n.R.A.R.Z.v.n.n.n.M.",
"M.R.~.W.W.W.A.Z.Z.Z.R.R.Z.Z.n.C.H.V.U.^ %X*X3X4XdXfXfXfXsXsXsXfXdXfXdXdXdXrX4X<X&X#X#X(.J.R.n.c.c.v.Z.A.Z.Z.b.b.n.M.n.n.M.M.n.M.",
"R.W.~.^.W.Z.Z.Z.Z.Z.R.R.Z.n.C.D.H.U.^ u.%X:X4XyXfXfXfXfXfXfXfXfXfXfXfXdXfXsXtX4X1X&X#X(.J.E.n.b.b.v.Z.E.Z.Z.n.b.M.n.R.R.R.n.n.v.",
"~.~.^.~.Z.Z.Z.Z.R.n.n.b.v.C.Z.D.V.T.#X%X=X2X4X4XsXsXsXsXfXfXsXyXfXsXsXsXtX4X3X2X1X>X&X#XH.E.n.v.c.n.W.!.R.Z.R.R.R.R.n.n.R.n.n.b.",
"~.~.^.~.Z.n.n.Z.R.R.n.v.v.n.Z.H.V.T.%X*X-X:X2X2XyXyX4XyXyXyXyXyXsX4X3X3X3X,X:X-X,X=Xu.9.H.E.Z.Z.n.Z.!.!.E.E.E.W.W.R.R.n.n.n.v.v.",
"A.E.~.!.Z.n.C.Z.Z.R.E.R.n.n.S.V.P 9.*X*X*X*X:X2X3X4X3X3XtXtXtXtX3X2X-X-X-X*X*X*X*X%X8.P V.W.E.E.Z.R.E.W.~.^.^.^.~.W.Z.Z.n.v.v.v.",
"Z.A.!.~.A.Z.n.C.Z.W.~.~.Z.Z.F.V.P 6.*X*Xa.*X-X:X2X2X2X2X2X3X3X3X,X-X*X*X*X*Xq.0.u.8.5.P V.A.!.E.E.R.E.W.W.^.^.^.~.E.A.Z.Z.n.v.c.",
"C.Z.^.^.A.n.v.Z.!.~.^.~.!.A.F.L H 4.q.w.a.a.a.*X:X2X:X2X3X1X;X;X:X:X*X%X>X*X8.3.5.5.G H V.Z.!.!.E.R.W.!.W.W.W.!.A.A.E.E.W.Z.v.b.",
"C.A.!.~.A.Z.Z.Z.!.^.^.^.!.J.H.L F G 7.q.7.7.a.a.*X-X-X-X-X;Xi.i.:X-X%X%X=X%X6.3.5.5.G D V.A.!.E.Z.E.W.W.E.E.E.Z.Z.A.E.!.E.Z.v.c.",
"Z.Z.R.W.W.W.E.!.~.^.!.A.E.D.F.L D h 4.7.7.7.q.q.a.w.a.s.s.s.y.y.>X=Xy.8.u.y.5.6.0.8.H D L.^.!.!.E.E.E.E.R.R.Z.Z.v.n.Z.A.C.n.C.Z.",
"Z.Z.Z.Z.E.W.!.!.!.A.A.A.Z.Z.H.V.d h 4.7.7.7.7.7.7.6.7.0.7.7.4.e.u.%X6.3.6.6.5.6.0.r.H D V.~.!.E.Z.Z.R.Z.Z.n.R.Z.v.v.C.Z.v.v.Z.Z.",
"E.R.A.Z.Z.A.A.A.Z.C.C.Z.Z.A.J.V.F h 3.4.7.7.7.4.3.3.G G 4.z j c G 3.G l l z G 3.8.8.H J H.~.E.E.E.R.Z.n.n.Z.R.E.v.v.Z.Z.Z.Z.Z.Z.",
"R.E.A.E.Z.Z.Z.Z.n.n.n.n.Z.Z./.V.D g z 3.7.7.7.4.z l l h j j j j H l j h f k G e.r.9.E J H.~.E.A.E.R.M.v.v.n.E.A.C.C.Z.Z.Z.A.Z.Z.",
"Z.R.E.Z.v.v.n.Z.Z.n.v.n.Z.R.!.H.J F F z 4.4.3.z l j v v j c c c v v c f v v e.d.e.9.E K D.R.Z.Z.W.E.M.b.v.n.E.E.Z.Z.Z.E.R.R.R.R.",
"R.Z.E.Z.b.v.Z.R.Z.Z.n.n.n.E.~.J.L J g k 3.3.z l z v d.T v v d.d.d.&.c c %.d.k.h.f.T E K C.Z.Z.R.W.R.n.v.n.n.R.R.A.A.E.E.R.R.R.E.",
"E.A.Z.n.c.c.R.E.R.Z.Z.n.R.R.W.Q.L.L F g l l h l d.d.h.iXk.0X0X0X2.<.c R j.bXbXxXg.=.E P.S.C.Z.R.W.W.n.n.Z.R.Z.n.Z.A.R.R.Z.Z.Z.R.",
"W.E.E.Z.n.n.E.W.Z.n.n.Z.n.Z.R.Q.P.K D F h h j j v d.iXbXbXbXNXcXAXkX#.&.0XnXMXnXj.=.).P.C.n.C.Z.E.E.Z.n.Z.R.M.Z.Z.Z.R.Z.E.Z.R.Z.",
"!.!.~.~.A.R.E.E.n.v.n.Z.c.v.Z.Z.D.C.K J F d d d v d.iXbXnXMXCXZXAXvX:.&.xXNXVXnXj.Q K.C.n.v.v.n.R.E.Z.Z.Z.Z.R.R.n.M.R.W.W.E.E.A.",
"E.W.!.~.E.R.R.Z.n.n.n.n.c.c.Z.Z.Z.C.C.K D d d s c d.h.mXmXCXZXZXSXvXkX<.cXNXMXnXj./ K.n.C.v.c.c.Z.R.A.Z.n.v.Z.E.M.M.E.W.W.W.E.E.",
"Z.A.Z.Z.n.M.M.M.R.Z.n.v.v.n.E.E.Z.C.v.K n n s s f T h.pXmXMXZXZXSXVXcXxXNXBXMXiXg./ E P.v.v.x.c.c.v.Z.Z.n.n.Z.Z.n.n.Z.R.W.E.Z.n.",
"Z.Z.n.n.n.n.b.R.Z.Z.n.n.n.Z.E.W.Z.Z.C.N M 3 1 1 f T h.wXpXmXBXCXCXBXnXaXnXmXpXiXd.U W K B.m.v.c.c.v.Z.Z.n.Z.Z.E.Z.n.Z.R.W.W.M.n.",
"Z.Z.n.n.b.b.v.n.Z.Z.n.Z.E.E.W.E.n.m.z.V b < < 1 c T y.p.wXpXaXmXBXaXaXuXpXwXqXh.R x C m K K.C.n.n.n.Z.Z.n.R.R.R.R.R.R.E.E.R.R.b.",
"Z.Z.Z.n.v.v.n.Z.Z.Z.C.Z.E.W.E.Z.C.m.V A 2 < < q x v e.r.u.p.wXpXaXuXuXeXwXwX7Xf.U u 2 C A K.C.C.n.n.Z.n.n.n.M.R.R.E.E.W.W.E.R.M.",
"R.M.M.n.R.Z.R.Z.A.Z.C.Z.A.E.E.E.m.z.b , > 9 e r x x c v T r.p.>X1XeX>X>X%X%Xp.e.U u r w b B z.n.v.n.n.R.n.n.n.v.n.Z.E.~.~.~.R.M.",
"Z.R.n.R.E.R.Z.n.Z.Z.n.Z.Z.A.E.D.B.M ; : > 9 9 0 8 x i f f c 5.y.*X;X*Xp.p.u.r.G x u q w w b N m.v.n.R.R.Z.n.v.v.n.Z.Z.!.~.~.R.R.",
"n.Z.Z.A.E.E.n.v.C.Z.Z.Z.Z.E.~.H.z.m , $ 9 9 0 0 q q q - - s j 3.r.i.u.r.y.r.G F x t r e 0 , B z.z.v.Z.W.R.R.v.n.Z.R.M.R.~.~.W.E.",
"Z.Z.A.A.E.A.v.b.Z.Z.Z.Z.A.!.!.F.B b : : 9 9 0 0 e p q 9 & - 1 c r.r.r.r.5.H g x u t r q 0 , m N x.v.Z.E.R.Z.n.n.Z.R.n.R.W.~.W.E.",
"W.W.E.E.E.Z.v.v.W.!.Z.Z.~.!.G.B.m 2 > 9 9 9 9 0 e e e 9 @ + 8 x %.f.f.R g 1 1 < w e 0 0 0 0 2 m N n.Z.Z.n.v.v.n.Z.Z.n.v.Z.E.E.!.",
"~.W.E.E.Z.n.c.n.W.!.E.E.~.^.F.N b > > 9 9 9 9 0 e e e 6 X o _ o.;.g.%.#.a 9 % % 9 0 0 9 0 0 9 b N m.n.Z.v.c.b.v.n.n.n.v.n.Z.E.E.",
"!.W.R.n.Z.n.v.n.E.E.A.E.~.H.B.M ; $ * 9 9 9 9 9 9 9 9 * . 4 ) >.<.9X1.&.[ ( 4 @ > 9 9 9 0 9 * , B z.m.R.n.n.n.n.v.v.v.Z.E.W.E.Z.",
"~.E.n.v.n.n.v.v.Z.E.Z.E.!.A.K m ; # * 9 6 6 6 9 6 * * & X 4 { >.@X9X1.&.| ) 4 o & 9 9 9 9 5 O : m N m.R.R.n.n.b.n.n.n.Z.E.E.Z.Z.",
"W.R.b.b.v.v.v.v.Z.Z.Z.A.!.F.J n ; # O O O & * * * * * # o 7 { >.@X9X1.&.| ) 7 o 6 9 9 9 9 > O : b M C.R.M.n.n.n.n.n.E.R.n.v.n.Z.",
"W.E.b.b.v.v.c.c.v.Z.A.A.A.C.N m , : > 4 & & # # * * & & 4 ( } hX2.0X1.&.| { 7 4 & * * 9 9 9 > , n N C.R.n.n.M.Z.R.R.E.Z.v.c.Z.Z.",
"W.W.M.b.n.n.c.b.b.n.R.E.A.C.z.V m b p 7 p 5 + X * * + 4 ( ) } >.kX9Xj.&.O.} ( 4 + # # * > 2 C J K D.D.R.Z.Z.R.R.A.Z.Z.Z.Z.Z.Z.Z.",
"W.E.n.b.n.Z.n.b.b.n.E.W.Z.C.C.z.B Z [ ' { p 0 5 * 5 7 ( ` }  .>.9Xj.<.&.| } ( 7 6 * : > b m J K.H.~.A.Z.Z.E.E.R.A.Z.C.C.Z.Z.A.Z.",
"n.n.b.c.Z.R.Z.n.R.E.~.~.E.Z.Z.z.B Z +.} >.| [ p r e ' } } }  .hX9X9X1.&.O.{ _ 7 0 t 2 A K ).P.D.!.!.!.E.A.Z.Z.n.Z.Z.n.v.n.n.Z.Z.",
"v.v.v.n.Z.R.Z.R.R.W.~.~.W.E.E.B.V Z [ | :.,.<.&.#.[ +. . . . .>.kX9Xg.&.o.{ _ _ x U A J P.I.Q.E.W.!.E.E.Z.n.n.Z.Z.Z.n.v.v.Z.Z.Z.",
"n.C.A.A.Z.C.n.Z.W.!.E.E.W.~.W.D.V Z [ +.<.zXxXqXj.&.| .... . .O.9X9X<.&.o.` _ ] $./ E L F.A.Q.R.E.A.Z.n.n.n.Z.Z.E.A.n.n.C.A.E.E.",
"Z.Z.E.E.A.Z.Z.Z.W.W.A.Z.E.W.!.F.M S ' +.zXvXnXnX6X&.o.{ } }  .O.j.9X<.#.] _ 8 x %.f.E K D.E.E.R.Z.Z.n.v.v.v.Z.R.!.W.Z.Z.Z.E.!.!.",
"E.E.E.W.!.!.E.E.R.R.Z.Z.Z.R.W.F.V S @.jXlXzXvXqXf.R X.] } } } O.<.<.&.X.] ` 7 a / t.L K.A.!.W.Z.Z.n.n.n.v.v.b.Z.W.!.A.A.E.!.E.E.",
"E.!.E.W.~.~.!.Z.n.Z.A.W.E.E.E.D.z.S jXjXlXlXvXqXf.R ] {  . . .| :.&.:.:.{ ` ` a U E L L.J.~.E.E.Z.Z.n.n.v.v.b.n.E.!.A.Z.E.!.E.E.",
"~.~.W.E.E.R.Z.Z.n.M.W.~.W.W.E.P.m.N.@.lXlXzXzXeXg.%.X.{ gXgX . .O.>.hXhX| ` ` ] i I L.J.~.~.!.!.!.E.Z.v.R.R.n.n.Z.Z.n.Z.A.A.E.E.",
"~.~.~.E.R.n.n.n.n.R.W.~.W.E.M.n.m.N.S  XlX X@X8Xf.$.| ..gXgX .{ { | hXhX{ ` { ] i D B.!.!.!.!.~.~.!.Z.Z.R.R.n.b.Z.Z.n.n.Z.A.E.E.",
"~.~.~.!.R.v.c.v.R.R.R.R.R.R.n.m.m.m.N.|.*.*.*.W x X.O...gXgX{ _ ` )  ...` _ ` ] Z I F.Q.D.A.!.!.E.E.R.E.E.R.b.b.n.Z.Z.Z.Z.Z.E.E.",
"R.E.W.W.n.v.c.b.R.R.R.R.Z.n.M.m.M.m.K.`.N.*.Y C x a { }  .} ( 8 7 7 ) ) ( 7 7 a Z Q K.Q.D.A.E.A.A.Z.E.E.R.R.n.b.n.Z.R.Z.R.R.Z.R.",
"R.R.M.M.n.n.b.b.Z.R.Z.n.Z.n.n.n.Z.Q./.(.{.! I q - 5 8 ` ` _ 5 o X 4 7 ( 7 4 + < W E ).I.Q.Q.Z.n.Z.Z.E.E.Z.Z.Z.n.R.R.R.R.E.R.Z.n.",
"R.R.n.R.R.M.b.b.n.Z.n.Z.Z.Z.n.n.Q./.(.}.{.[.I < 5 5 5 8 5 5 o .   X 4 4 4 # . : A ! '._._.I.D.C.Z.Z.E.E.Z.Z.Z.Z.R.R.E.E.R.R.R.n.",
"M.R.E.E.R.R.n.v.v.n.Z.Z.A.Z.C.G.I._.{.{.{.~ u < * & 6 6 * + X .   X + 6 6 # . % I ~ `.{.{._.F.G.Z.Z.E.E.Z.C.C.Z.E.W.E.E.R.M.R.R.",
"n.M.W.W.E.R.n.v.n.Z.Z.A.A.Q.G.P.'.{.{.+XOX~ y % % * 6 6 # .     X X O * = & . % Z ~ .XoX{.{._.I.G.Z.E.A.Z.C.Z.A.W.!.E.R.M.R.R.E.",
"n.R.W.W.A.Z.n.R.E.R.M.Z.A.G.I._.[.oXOXOX.XW , # * 6 = * .       X # * * * O . % I Q -.XXOX[.'.I.G.A.Z.n.n.C.A.A.^.~.E.Z.R.E.E.E.",
"n.M.E.W.Z.Z.Z.E.~.W.R.n.Z.G._.'.oXOXOX.X! Y > O * 9 9 * .   . . O # * 6 = # . $ C W ~ .X.XOX{._.I.Z.Z.n.n.C.A.!.^.~.E.E.W.E.E.E.",
"R.Z.E.Z.v.n.R.W.~.~.E.R.n.P.).`.oX.X.X~ W C > & 6 9 9 * O X $ $ # # * = = & X # t I Q ~ .XOXoX'.I.Q.E.Z.n.n.E.W.W.E.E.E.W.R.R.R.",
"E.E.Z.Z.v.v.M.R.W.~.W.R.v.S.).`..X.X.X~ C 2 > * 6 9 9 6 $ # : $ # O * * = * & & < C Y ! .XXXoX'.I.E.W.E.v.n.E.W.E.E.W.W.R.R.R.M.",
"~.!.Z.Z.Z.n.b.M.R.E.E.R.v.m.).`..X-..X*.C , > * 0 0 0 0 r 9 = O X O $ $ $ & & > 9 t C Y ~ OX.X'.I.^.W.R.n.M.~.~.W.W.!.E.A.A.Z.Z.",
"~.!.Z.Z.Z.R.b.n.M.R.W.W.n.m.).`.`..X.XQ C 2 > 9 9 0 r r r r = O O O % > : > > 9 w r C I ~ OXoX'.I.Q.W.W.M.R.~.^.~.E.!.E.E.A.Z.Z.",
"!.A.Z.n.Z.Z.Z.n.R.R.~.~.M.m._.'.oX.X.X*.A b > * > 0 r r r r > = % : < < t t y y u C Z Y -.oX[._./.R.E.R.M.R.~.~.E.A.W.W.E.Z.Z.n.",
"A.Z.n.Z.Z.Q.Z.R.M.W.~.^.R.m.I._.'.+XoX.XW A y 9 > 9 0 0 0 0 e w 2 C C C C I A I A A W Q .X[.{.I.G.Z.R.E.n.M.W.W.A.A.A.E.W.E.C.v.",
"R.R.n.R.R.E.R.Z.Z.Z.E.W.W.Q./.P._.{.+X+X`.~ Z u > > * > % < q u U Q *.-.-.~ ~ ~ `.*.! .XoX{.I.P.S.n.R.E.n.M.E.E.Z.Z.R.W.!.W.n.x.",
"n.R.R.R.R.R.Z.Z.Z.n.Z.Z.E.E.R./.I._.}.'.+XoX! A b t t t 2 u C U *.-.-.XX-.XXOXOX+X+X'.'.{._.P.C.n.v.n.n.v.v.Z.Z.n.n.n.R.!.!.n.v.",
"b.v.R.R.R.n.n.v.v.c.c.v.Z.Z.R.Q.P.P./.(.{.{.'.`.W W W W Q Q Q ~ -.XXXXXXOXOX+X+X{.{.'._.P.S.c.c.b.b.l.c.b.b.b.b.v.n.n.R.E.E.Z.Z.",
"b.b.R.R.n.v.v.c.c.c.c.c.v.Z.R.R.R.n.Q./.}.}.{.'..X-.-.-.-.XX-.-.XXXXOXOXOXOX+X{.}.}._.I.S.b.c.c.v.l.l.l.l.c.c.b.b.n.v.n.E.E.E.E."
};
