/* XPM */
static char *out[] = {
/* columns rows colors chars-per-pixel */
"50 50 256 2 ",
"   c #0F1111",
".  c #0B1418",
"X  c #152B1E",
"o  c #1B3A1D",
"O  c #243D1E",
"+  c #0B1C22",
"@  c #18262A",
"#  c #193423",
"$  c #193827",
"%  c #1B3B2A",
"&  c #0E2934",
"*  c #082B39",
"=  c #1B3C34",
"-  c #193839",
";  c #232D2F",
":  c #253C26",
">  c #263937",
",  c #313C3C",
"<  c #1F401D",
"1  c #27471A",
"2  c #2F501A",
"3  c #39581B",
"4  c #3B6518",
"5  c #1D4429",
"6  c #1A443A",
"7  c #234324",
"8  c #274627",
"9  c #2C4A23",
"0  c #2B442C",
"q  c #354929",
"w  c #2B5326",
"e  c #385527",
"r  c #274639",
"t  c #334A33",
"y  c #3C4D33",
"u  c #364839",
"i  c #275736",
"p  c #3A5539",
"a  c #3C632A",
"s  c #3C6735",
"d  c #435D1D",
"f  c #47691B",
"g  c #4F731B",
"h  c #53781B",
"j  c #617E1F",
"k  c #435B2A",
"l  c #40483A",
"z  c #445739",
"x  c #476627",
"c  c #526E2B",
"v  c #4A7329",
"b  c #567826",
"n  c #486437",
"m  c #556939",
"M  c #497738",
"N  c #597835",
"B  c #63793A",
"V  c #093649",
"C  c #0F394A",
"Z  c #2A3D44",
"A  c #1A4944",
"S  c #134C54",
"D  c #254942",
"F  c #2B4B44",
"G  c #2A4946",
"H  c #344A47",
"J  c #28534A",
"K  c #385645",
"L  c #34534B",
"P  c #3B554C",
"I  c #3B5B4B",
"U  c #345052",
"Y  c #3D5B50",
"T  c #375458",
"R  c #3A6B4B",
"E  c #3B6756",
"W  c #054865",
"Q  c #14576E",
"!  c #055678",
"~  c #2C5A6C",
"^  c #1F6576",
"/  c #2A6676",
"(  c #465744",
")  c #455B45",
"_  c #425B4D",
"`  c #4A5D4C",
"'  c #4D5750",
"]  c #425C51",
"[  c #495B58",
"{  c #486546",
"}  c #4C644D",
"|  c #52634C",
" . c #576848",
".. c #477646",
"X. c #5B7848",
"o. c #456254",
"O. c #4B6354",
"+. c #4B6A54",
"@. c #4C6659",
"#. c #4C6A5C",
"$. c #536553",
"%. c #536A55",
"&. c #596856",
"*. c #546B5B",
"=. c #5B6D5C",
"-. c #4B7358",
";. c #5A725A",
":. c #646A4B",
">. c #637949",
",. c #646B57",
"<. c #63735B",
"1. c #697759",
"2. c #777D59",
"3. c #465C63",
"4. c #4E6D65",
"5. c #576C65",
"6. c #5D7463",
"7. c #59796A",
"8. c #647563",
"9. c #677767",
"0. c #657A64",
"q. c #6C7B64",
"w. c #6B7D6B",
"e. c #737C63",
"r. c #757C68",
"t. c #687C74",
"y. c #757B71",
"u. c #837D69",
"i. c #5B851B",
"p. c #628B1C",
"a. c #6D991D",
"s. c #5C8529",
"d. c #5B8634",
"f. c #648825",
"g. c #6A9629",
"h. c #658637",
"j. c #789334",
"k. c #74A627",
"l. c #57874B",
"z. c #588859",
"x. c #66844B",
"c. c #708E49",
"v. c #668455",
"b. c #768659",
"n. c #5A8C6F",
"m. c #6B8366",
"M. c #6C826D",
"N. c #798567",
"B. c #75836C",
"V. c #7B846C",
"C. c #668375",
"Z. c #6C8373",
"A. c #728573",
"S. c #768975",
"D. c #7B8A74",
"F. c #768878",
"G. c #7C8C7A",
"H. c #6B9771",
"J. c #7C9476",
"K. c #75A474",
"L. c #8AB425",
"P. c #828B56",
"I. c #84866B",
"U. c #93856E",
"Y. c #86946A",
"T. c #838B74",
"R. c #888874",
"E. c #8C8B74",
"W. c #838E7B",
"Q. c #968D76",
"!. c #889375",
"~. c #84927C",
"^. c #8B947C",
"/. c #94947B",
"(. c #97957C",
"). c #A49279",
"_. c #95A17D",
"`. c #005D85",
"'. c #076890",
"]. c #056994",
"[. c #306D88",
"{. c #0274A5",
"}. c #017FB5",
"|. c #647E84",
" X c #1280AF",
".X c #0384BA",
"XX c #3795A2",
"oX c #538996",
"OX c #738A88",
"+X c #4B91AE",
"@X c #6E9BAE",
"#X c #61A8A1",
"$X c #028CC6",
"%X c #0C91CA",
"&X c #029ADB",
"*X c #2CA0D2",
"=X c #009FE3",
"-X c #02A5E9",
";X c #10A7E8",
":X c #02ABF4",
">X c #00AFF9",
",X c #0FB0F4",
"<X c #01B3FE",
"1X c #0BB5FE",
"2X c #17B7FC",
"3X c #32B8F1",
"4X c #48A8D2",
"5X c #56ADD3",
"6X c #6CB5D3",
"7X c #52BAE8",
"8X c #62BEE5",
"9X c #36C3FF",
"0X c #47C8FF",
"qX c #57CBFD",
"wX c #63CAF7",
"eX c #70C9F0",
"rX c #6AD2FF",
"tX c #73D5FF",
"yX c #7DD6FD",
"uX c #5AE4E4",
"iX c #859481",
"pX c #8A9681",
"aX c #8C9A84",
"sX c #87968F",
"dX c #89998B",
"fX c #979984",
"gX c #949B84",
"hX c #9A9C84",
"jX c #939E89",
"kX c #A79D86",
"lX c #96A28A",
"zX c #9CA38B",
"xX c #9BA893",
"cX c #97AA9C",
"vX c #A7A68A",
"bX c #B5AA8F",
"nX c #A4AC96",
"mX c #ACAD94",
"MX c #A7B197",
"NX c #ABB39C",
"BX c #B2B49C",
"VX c #B9B89C",
"CX c #8FAEB3",
"ZX c #AAB6A5",
"AX c #B6BAA2",
"SX c #A7BCB4",
"DX c #C1B69C",
"FX c #B5C5B4",
"GX c #C3C1AA",
"HX c #8EB7C5",
"JX c #9CC9D9",
"KX c #ADCDCC",
"LX c #84D8FD",
"PX c #ABD8E6",
"IX c #B6E2ED",
"UX c #BAE6F4",
/* pixels */
"f e z l q q 8 7 5 1 9 q 8 : q : O 2 O q e p.p.2 h k.p.g 1 1 1 8 q e : : q 0 0 : a 2 1 1 4 w < o o 4 ",
" .Q.Q.(.U.I.r.y E k R.u.e.:.,.9.,.: k 2.b.f.s.X.f.a.g 1.p 3 n E.I.V.q.z R.r.e.8. .8 9 n z %.} I 0 2 ",
"I.kXbXvXvXmXhX` x B kXkX(.Q.E.E.r.y l hX/.>.^.T.N.X.1.pXB.t N.(.Y.I.e.1.^.I.V.A.w.0 n m.%.m.;.O.I 0 ",
"N.vXbXbXmXmXhX` c :.kXkXkXQ.E.u.r.l ) (./.N.T.V.B.0.S.G.M.0 <.T.D.Y.E.D.q.r.A.r.8.: n.m.aX%.@._ J % ",
",.hXmXAXBXmXzX| g m kXkXU.R.I.&.l u | lX(.T.y ( | z ) ;.P 8 : ` ^.T.V.B.<.9.9.,.$.: M S.w.=.@.K A i ",
":.E.BXNXNXMXzX;.h p.q , , q q e q k z N.!.T.m.^.^.D.D.S.M.q { ^.V.V.B.w.&.| q.B.u 8 x.;.@.o.P r = ..",
" .BXNXZXMXnXxX| c DXFXVXVXVXVXMX2.X.N I.Y.V.1.T.D.D.G.A.9.r &.B.r.q.w.<.B.B.8.6.o.8 s.J.} K K -.l.c.",
"( iXpXpXG.9.` u m GXDXAXVXVXVXFX .x m V.B.q.J.V.B.D.S.Z.9.F K w.0.9.6.q.0.6.=.*.@.: b c.c.>.X.s.p.g.",
"f q q : 1 k d d B GXVXAXFXVXBXNX&.x | B.r.=.r.w.m.Z.C.C.7.J 5 D } I t %.( _ _ H F 5 2.mXhX^.T.$.>.d.",
"h P.P.u.u.u.u.m B bXAXAXZXAXBXNX| n ) O._ # 0 0 0 r r r J 5 5 % % $ # # # # # % 6 7 2.mXvXfXaXG.G.p ",
">.DX).).).Q.u.:.m NXmXNXNXNXZXnX) x x.e n d.g.s.p.s.x m  .N N X.m k f f k x k k e f N.zXzXjXpXS.6.u ",
":.DX).bX).).u.z z nXzXzXlXnXxXiXi x j.j.j.j.j.j.j.p.Y.VXbXmXvXAXvX:.d u.bXkX).).( f 1.jXjXpXiXF.F.r ",
" .).(.Q.(.Q.u., q ( z | ` ( y u r x VXbXvXvXbXvXFXq zXmXmXmXBXMXzX&.q :.kXQ.u.u.| q :.gX^.G.G.A.Z.F ",
"( kX/.Q.E.R.e.l d x z z y l y 9 4 m GXAXvXvXkXhX(., 1.T.N.MXMXxXlXjXe ,.Q.U.U.u.:.3 n ( P ` O.P I r ",
"l u.R.U.R.D.&., m mXVXbXhXmXhX,.3 c AXbXzXvXzXzX/.t ^.MXlXlXvXjX~.S.u :.Q.Q.E.u.1.3 x k y q y 9 e a ",
"3 l ' ' $.' ( ( m bXvXvXmXvXxXB.n X.AXZXMXZXnXzXjX> jXMXxXdXS.B.9.*.: ,.kXQ.W.R.,.q b.bXfXE.e.9.0.0 ",
"g k u ' , 3.' H [ sXW.NXnXZXSXKXIXIXUXUXUXUXIXKXOXu y.nXlXsX*.aXpXM.0 ,.gXW.W.W.,.e b.E.u.r.,.8.=.r ",
",., ; T oX+X*X%X[.Z Z sXJXIXUXIXPXJXJXPXPXJXHXCXsX|.|.|.5.U @.t.@.r 8 p ' =.=.( H z e.r.r.<.l $.O.r ",
"    Z @XtXqX2X2XqXwX@X& @ Z U Z . .   ; @ + * W W S ~ C ; , @ ( q O d h d 3 3 x { >.1.e.1.&.8.*.K @ ",
"y.R.y., ~ 3X>X1X0XrXLXwX5X X}.$X{.. @ oX8X7X,X>X>XqXeX8X* [.4X[., V.,.x Y.bXfX(.N.x | ,.&.9.@.[ L A ",
"&.hXfXiX3.C %X1XqXtXLXtXwX1X:X.X* C 5XLXtXqX1X<X<X2XqX8XQ [.8X3XW ' 9.: vXhXgX^.V.e t u r r - = = A ",
"| e.gXiXy.' & Q [.+XeXrXwX,X].* / *XwXLXyXwX0X2X<X1X2XwX[.~ 7X3X4X; [ : jXpX^.W.*.x i.3 1 o o 1 1 2 ",
"k ( 8.&.; V V W ~ 3.6XeX*XW . V ;X2XqXtXLXyXwX0X1X>X-X*XC V  X*X+X& ; : iX^.~.G.$.e v N s n >.>.x.N ",
"f c c >., ! $X&X*X5X6XoXZ T 3.Q :X1XqXrXrXLX8X4X}.`.W W {..XV V V Z H o G.G.G.w.N b v.2.D.;.E.!.D.m.",
"m vXJ.b b.7.G - > > Z [ @XPX3.'.2X,X3X5X+X[.A * V ].%X;X&X].'.$X&XC 7.8 z ( ( b p.j.Y.pX~.<.V.~.T.8.",
"q.gXgXY.N MXnXF.OXSXSXPXUXUX' [.7X%X! V S ].$X=X-X2X2X5X^ 4XXXW -X].5.m N c b s.j f.m.W.G.aXG.S.A.;.",
"| ~.B.{ ;.vXgX| m.mXzXMXHXIX' ~ ~ * ! $X=X>X<X<X<X2XqX/ XXuX#XQ -X{.3.zXvX(./.^.T.<.n *.9.iXS.Z.M.} ",
"p D.D.B.p K q.^.q.J.m.J.N.KX; . * $X:X1X<X<X<X<X<X<X1X].^ XX/ ! -X].5.zXgXlX~.J.A.=.-.+.6.F.Z.M.Z.K ",
"t ` P i : 1.gX!.V.N.MXnXvXcX. H * $X>X1X9XqX0X2X<X<X<X>X-X XS $X-XW t.zXdXiXG.S.B.@.x c.l.;.;.+.I n ",
"e 9 e z c b.T.I.B.MXMXvXxXcXt.sXZ ! :X0XtXtXtXqX<X<X<X<X1X>X&X:X-X* y.dXiXG.A.w.@.u f f.j.c.c.h.h.s.",
"m vX/.!.Y. .V.r. .} jXzXjXpXD.B.t.* ;XqXtXtXtXrX1X<X-X-X<X<X<X<X{., O.=.6.;.+.} p e B vXzX^.T.W.cX{ ",
" ./.E.fXI.z q.q.W.~.;.iXiXG.A.9.9.H '.qXtXtXtXuX1X<X%XW &X<X<X&X& z 3 3 v k.L.h i.i.^.aX^.D.D.Z.A.H ",
"e.hXr.,.O.e y A.A.e.q.} A.M.M.*.K 7.&  XrXtXrX3X<X<X<X{.V W .XW H kX^.T.N.X.N.m.X.x B.~.~.S.A.M.Z.L ",
"1.E.R.W.1.q e 6.w.9.*._ _ K > % o 9 t.C }.2X2X1X<X<X<X:X$X! + ; sXD.V.M.9.=.~.;.O.8 9.G.D.S.Z.Z.C.Y ",
"<.T.T.S.0.y x K #.@.K r X $ O p >.x.b.t.H Q .X=X:X-X-X$X`.* , O.9.q.0.8.=.` K +._ : 5.F.F.Z.Z.Z.F.J ",
",.D.F.A.=.k d.2 = % # o 2 k !.vXgXgXpXpX' ' [ ~ ^ Q V - Z @.H > } 9.8.%.o.8.} E K $ u o.#.@.@.L D J ",
"` 9.w.Z. .s.p.h w 9 n g p.b.mX^.^.W.D.w.t m D.6.|.9.5.9.[ O.F # K @.*.w.*.+.I #.G # 2 3 p y t 0 7 7 ",
"e y p n N f.Y._.lX(.^.1.b >.^.T.G.S.A.0.: { y.8.5.$._ #.@.[ I % 8 K 7.*.[ E R J A 5 M X.0.*.o.E K 9 ",
"X.nX^.~.J.n kXhX(.fXfXfXq m iXJ.S.Z.Z.9.0 z 6.@.$.' ] > I I D r M I #.4.I T J A 6 i l.{ @.O.Y L J = ",
"w.iXy.w.=.p aX^.^.~.iXF.: { F.A.M.C.C.6.p e Y o.] P H G - D J S H.H.#.E L J J J R d.X.%._ P P G D % ",
"R 0.6.*._ p ~.~.~.G.F.A.: q +.@.*.*.#.Y w n 6 Y Y J F 6 $ w 6 i c.H.K.7.E R M z.OXl.*.#.r J F D i w ",
"8 I I I { { J.G.G.G.Z.Z.: x 2 7 : 0 8 : 4 b % 6 A J 6 6 i a a M s.H.z.d.d.g.k.v n.l.s 8 2 w 5 i s s.",
"f c x.b s.b F.S.Z.Z.C.C.% >.zX^.T.A.w.6.} e M 8 5 < w v i.v _.!.J.X.~.J.J.<.%.%.R w b h.h.s.v c b i.",
">.aXvXW.n x C.6.+.C.7.J = B.V.q.;.@.O.o.Y : z.1.m.m.m.{ b v.~.r.9.{ 0.0.;.o.] P J 5 ;.B.B.1.A.Z.7.u ",
"<.jXy.8.{ e : 6 D L E i 6 1.r.=.$.O.Y Y L % | ~.~.S.A.+.e z 8.<.=.=.%.%.o._ K H J % &.w.w.;.@.[ ] > ",
"` G.8.=.p 0.n v n.R I s v ) 8.O.] ] P H G % } G.D.S.Z.#.9 t =.&.%.o.u P P L L J A 7 %.0.*.O.Y I P 6 ",
"K } =.O.m.*.O.I ..z.FXH.M  .*._ P L G G r = ) F.Z.M.Z.Y 9 { p O.Y H F F L F F A 5 p ) O.] P P L J 6 ",
"` %.u M.5.o.I L K -.#XoX..+.*.] L F G G = % +.G.Z.C.t.Y w I +.I G Z r r F D J S R z.o._ ] P U L J 6 ",
"w k n -.Y U J J R z.K.n.n.s 6 6 r 6 6 r p w F.#.4.4.@.J { i G D - r A A - i i s #Xl.i 6 r D r D J 6 ",
"i.f.w 8 E 7.4.R l.d.k.l.K.4 < 5 $ $ o 5 8 a l.4.E Y I ..d.e # # # $ $ % 5 p.a.g.M l.4 5 5 w $ 1 w a "
};
