/* XPM */
static char *out[] = {
/* columns rows colors chars-per-pixel */
"64 64 248 2 ",
"   c #080C0C",
".  c #131A0F",
"X  c #0A0C15",
"o  c #0D1113",
"O  c #0F141B",
"+  c #111614",
"@  c #151B14",
"#  c #1A1D17",
"$  c #11151B",
"%  c #151B1C",
"&  c #1B1D1D",
"*  c #2C1716",
"=  c #192314",
"-  c #1B2D10",
";  c #1C2B17",
":  c #1B231B",
">  c #242818",
",  c #222B1C",
"<  c #38271A",
"1  c #263C17",
"2  c #25331D",
"3  c #0E1220",
"4  c #111423",
"5  c #151B22",
"6  c #191E21",
"7  c #15192B",
"8  c #161A37",
"9  c #241D2D",
"0  c #1C2324",
"q  c #1F2F20",
"w  c #1E2428",
"e  c #172136",
"r  c #252826",
"t  c #22252A",
"y  c #232A2C",
"u  c #372929",
"i  c #283424",
"p  c #2D3B24",
"a  c #333A28",
"s  c #292B37",
"d  c #333538",
"f  c #441A12",
"g  c #542E12",
"h  c #68330F",
"j  c #622F1C",
"k  c #633214",
"l  c #6A3816",
"z  c #743D12",
"x  c #4E3428",
"c  c #663525",
"v  c #663825",
"b  c #2A4616",
"n  c #2F5113",
"m  c #2D5513",
"M  c #365819",
"N  c #33680F",
"B  c #38770D",
"V  c #3B6618",
"C  c #3B7213",
"Z  c #364728",
"A  c #3C542A",
"S  c #384A35",
"D  c #3C6623",
"F  c #584616",
"G  c #4E5513",
"H  c #555D16",
"J  c #6E4D18",
"K  c #7A4415",
"L  c #476615",
"P  c #457716",
"I  c #537215",
"U  c #717718",
"Y  c #42562C",
"T  c #544931",
"R  c #455833",
"E  c #724E2C",
"W  c #7C4B39",
"Q  c #497826",
"!  c #4F7028",
"~  c #4C6537",
"^  c #536D3A",
"/  c #586F3B",
"(  c #59723B",
")  c #587738",
"_  c #66772A",
"`  c #1B1C45",
"'  c #241E4C",
"]  c #231D50",
"[  c #19294A",
"{  c #1D2957",
"}  c #272349",
"|  c #31344B",
" . c #292759",
".. c #353357",
"X. c #282B65",
"o. c #30386D",
"O. c #2A3577",
"+. c #483C4A",
"@. c #403C67",
"#. c #2D5864",
"$. c #324F73",
"%. c #504851",
"&. c #514B59",
"*. c #6C5349",
"=. c #5D7A41",
"-. c #617F42",
";. c #726357",
":. c #534C6B",
">. c #535163",
",. c #444376",
"<. c #565170",
"1. c #6E5F66",
"2. c #576F7C",
"3. c #756A64",
"4. c #737071",
"5. c #854915",
"6. c #934E16",
"7. c #895519",
"8. c #975819",
"9. c #A65B18",
"0. c #916A1B",
"q. c #A8681D",
"w. c #B46A1C",
"e. c #A9751E",
"r. c #BA751E",
"t. c #8B5527",
"y. c #8D5530",
"u. c #9A662A",
"i. c #8D7726",
"p. c #A96E2E",
"a. c #A97626",
"s. c #B77A24",
"d. c #C17B1F",
"f. c #C47C20",
"g. c #916F4F",
"h. c #AC764F",
"j. c #907D6E",
"k. c #887E77",
"l. c #AC7D65",
"z. c #338B07",
"x. c #3A8808",
"c. c #359500",
"v. c #3B9600",
"b. c #369A00",
"n. c #3D9A00",
"m. c #3EA000",
"M. c #448B0B",
"N. c #48890B",
"B. c #5C8D0E",
"V. c #419503",
"C. c #439D00",
"Z. c #499D03",
"A. c #46970A",
"S. c #4C940A",
"D. c #4C9A0A",
"F. c #55930B",
"G. c #529C0B",
"H. c #4B8718",
"J. c #588A18",
"K. c #459413",
"L. c #4C9B11",
"P. c #569716",
"I. c #559A1C",
"U. c #6B851A",
"Y. c #6B941B",
"T. c #45A101",
"R. c #4BA301",
"E. c #4EA801",
"W. c #4DA209",
"Q. c #51A602",
"!. c #53A901",
"~. c #5AAD01",
"^. c #54A40C",
"/. c #55A215",
"(. c #64A61A",
"). c #578A2B",
"_. c #589723",
"`. c #5D942D",
"'. c #788825",
"]. c #6B9129",
"[. c #62893A",
"{. c #628C3C",
"}. c #66953A",
"|. c #5EA723",
" X c #65A331",
".X c #648444",
"XX c #668943",
"oX c #6C8F43",
"OX c #6B8B45",
"+X c #958D2F",
"@X c #88863B",
"#X c #A08F3B",
"$X c #B18D32",
"%X c #C88826",
"&X c #D28E25",
"*X c #D8982A",
"=X c #C68D33",
"-X c #CB9932",
";X c #D69C35",
":X c #CBA23A",
">X c #DDA535",
",X c #E2A32C",
"<X c #E4AB36",
"1X c #E6B03C",
"2X c #E9B23C",
"3X c #8D864C",
"4X c #B2924A",
"5X c #948776",
"6X c #B2826B",
"7X c #A98A73",
"8X c #C9964A",
"9X c #D6A844",
"0X c #D2AA52",
"qX c #EEBB43",
"wX c #E9B947",
"eX c #E3B24E",
"rX c #F0BF48",
"tX c #C99671",
"yX c #DBAC71",
"uX c #E4AC6B",
"iX c #F2C44D",
"pX c #ECC455",
"aX c #F4C852",
"sX c #F4CC5A",
"dX c #2D3B83",
"fX c #343D86",
"gX c #3B4888",
"hX c #324191",
"jX c #1A7388",
"kX c #444E89",
"lX c #2592A3",
"zX c #71A7A4",
"xX c #958C85",
"cX c #8F9389",
"vX c #A59885",
"bX c #B39F8E",
"nX c #8AA39C",
"mX c #B4A694",
"MX c #AAB6B1",
"NX c #D09F80",
"BX c #CEAE8D",
"VX c #D8A684",
"CX c #E5B585",
"ZX c #E8BA95",
"AX c #DDBDA4",
"SX c #D4C6B6",
"DX c #EECBAD",
"FX c #DFD7C8",
/* pixels */
"!.E.E.R.R.Q.~.!.Q.T.Z.Z.Z.R.R.T.C.C.C.C.R.W.^.Y.'.+X'.3X@X@X@X@X@X@X}.@X].J._.I.V.n.R.R.m.n.T.m.b.c.z.c.v.C.V.C.R.Q.R.C.v.v.T.R.",
"E.E.T.T.T.Q.Q.E.E.T.Z.C.C.C.T.Z.C.C.C.C.G.F.B.Y.+X+X#X3X#X#X#X#X#X#X4X@X'.].].Y.F.S.E.R.T.m.n.n.c.c.c.c.C.C.C.C.E.E.T.n.c.v.T.T.",
"T.T.n.n.R.E.T.C.C.v.C.C.C.C.C.v.n.n.C.D.J.U.U +X#X0X0XeX:X:X-X-X:X:X:X:X#X+X#X+Xi.U B.Q.W.T.b.c.b.b.v.C.C.Z.C.T.E.Q.C.v.v.n.T.T.",
"T.T.n.C.T.E.T.n.v.C.C.C.C.C.v.v.v.V.D.F.U i.a.$X9XpXpXpXqX2X2X2XiX2XiXwX0X:X:X$X$Xe.Y.(.W.T.b.c.c.n.n.T.C.C.n.C.T.T.C.v.n.n.n.m.",
"m.T.T.E.Q.E.Z.C.C.C.T.T.C.C.v.V.V.S.B.U.i.$X-X2XpXpXsXsXiXiXiXaXiXaXsXpXpXpXeX:X:X$X+XY.P.Z.b.c.c.b.C.Z.C.C.v.v.n.T.T.n.m.m.n.m.",
"T.R.E.!.E.Z.Z.C.Z.C.T.T.C.n.C.V.Z.F.U.i.e.%X<X2XaXsXsXsXaXaXaXaXaXaXsXsXsXaXiXqX>X-X+XY.P.L.v.c.b.v.C.T.C.n.n.n.m.n.n.C.T.n.n.b.",
"!.!.~.!.C.C.C.C.C.C.v.n.n.n.C.V.F.B.U 0.%X-X<X2XiXiXaXaXiXiXiXiXiXiXiXiXiX2X2X<X>X-X%X+XY.P.A.b.v.C.R.R.C.C.T.T.T.T.C.C.m.n.v.b.",
"!.!.~.!.C.v.n.C.C.C.n.v.v.n.n.D.F.B.0.q.%X*X,X<XqXqXqXqXrXrXrXqXqX2X1X<X>X>X,X*X*X-X%X+X'.J.D.C.m.T.E.E.R.R.Q.~.!.T.C.n.n.v.b.v.",
"Z.Q.~.Q.C.v.n.n.n.T.T.Z.n.v.v.S.B.'.e.r.%X&X&X,X,X<X<X<X2X2X2X1X<X>X*X*X&X&Xf.f.%Xs.s.e.'.U.D.T.T.T.T.R.E.!.~.~.!.R.C.V.v.n.v.b.",
"C.T.!.Q.Z.v.v.n.T.E.E.E.C.C.v.N.I 0.e.r.d.%Xf.&X*X,X,X,X2X<X;X;X>X>X&X%X&X%Xs.r.p.q.8.0.U J.G.E.T.T.E.E.Q.~.~.~.Q.R.C.C.C.n.v.c.",
"C.T.~.~.Z.v.v.n.E.!.~.!.Q.Z.C.N.U 7.q.r.w.w.d.%X*X,X,X,X,X,X%X=X>X,X%X%X*X-Xs.q.8.7.K J _ J.G.Q.R.R.E.Q.E.R.!.Q.R.R.R.E.R.T.v.c.",
"C.Z.Q.Q.Z.C.C.Z.Q.~.~.!.Q.Z.Z.N.H K 8.q.9.w.w.d.&X&X&X&X*X%Xa.s.;X;Xs.e.-X$Xp.0.9.6.K J H J.G.Q.T.Z.E.Q.R.T.T.T.Z.Z.Q.!.R.T.v.b.",
"V.V.C.R.R.Q.Q.!.!.!.Q.E.Z.T.R.N.G F 7.9.9.9.w.w.r.d.r.d.s.w.8.e.&X=Xq.q.s.s.8.8.e.q.K F I B.G.R.Z.C.R.T.T.C.C.C.C.C.R.R.C.v.v.C.",
"C.C.C.T.R.Q.!.Q.Q.T.Z.C.C.C.R.F.G F K 8.9.9.9.9.w.w.q.9.9.6.7.7.a.s.8.6.u.8.5.6.r.q.K F U G.Q.T.T.C.T.T.n.C.C.C.v.n.Z.Z.v.v.V.C.",
"T.T.R.T.Z.T.R.Z.C.C.C.C.C.T.Q.F.L F h 5.9.9.9.9.8.6.5.K z z h l 7.7.K h z h h K q.e.J H F.Q.Q.R.E.T.T.n.v.C.T.Z.v.c.V.C.C.V.C.V.",
"R.Z.R.R.C.C.C.C.v.v.v.V.C.T.E.F.L F h h 6.9.8.8.6.5.h h h j j j J l k k k k k J u.u.J I F.E.T.W.R.T.C.n.v.C.E.T.v.v.V.C.C.Z.C.C.",
"Z.C.T.T.n.v.T.T.C.n.v.n.C.T.E.D.N.H g g 5.6.5.z z z c j c j c c j c j v l v v y.g.h.E H N.C.n.T.R.R.m.v.v.n.R.R.C.C.T.R.T.T.T.T.",
"C.Z.T.C.v.c.n.T.C.n.n.n.C.T.T.W.S.I G g z 5.z z z c W W W W W *.*.*.v v W g.g.g.6Xg.! L N.n.n.C.E.T.n.v.n.n.T.T.T.Z.T.T.T.T.T.R.",
"C.Z.C.C.c.v.T.R.C.C.v.C.C.T.R.E.G.J.H F h h h h j W h.6X6X6X6Xl.xX4.&.*.g.7XbXNX7X3X( I M.v.C.C.E.R.n.n.C.T.C.C.C.Z.T.C.C.T.C.Z.",
"R.Z.T.Z.v.V.T.E.C.C.C.C.n.C.T.R.D.F.I H g k g k j W l.NXVXVXVXVXMXnX1.;.5XbXAXAX7X5X_ N.M.V.n.C.R.E.C.n.C.T.m.n.C.Z.C.T.T.C.C.C.",
"Q.Q.!.!.T.T.E.Z.C.v.C.C.v.v.n.C.C.V.N.I H F g f j c l.tXVXZXAXDXFXMX4.3.5XvXAXAX7Xg.).x.V.v.v.n.T.E.Z.C.n.C.T.T.C.m.T.R.E.R.C.T.",
"R.E.E.E.T.T.T.T.n.n.n.v.c.c.n.C.v.v.V.N.I H g f f c g.6XVXZXDXDXFXMXxX4.cXmXAXAX7Xg.! M.M.v.c.c.C.C.Z.C.n.v.T.R.m.m.R.E.Q.E.T.T.",
"C.Z.T.n.m.m.T.m.n.C.C.n.v.v.T.T.C.v.V.V.N.L 1 * f c y.8XyXZXDXDXFXSXmXvXmXBXZXVX6Xg._ P v.v.v.c.b.n.C.C.v.v.T.T.n.n.C.T.E.E.T.n.",
"C.C.n.v.v.b.n.n.n.C.C.C.n.C.R.Q.C.V.V.V.P G > * f c y.h.tXVXZXDXDXDXBXBXBXCXVXtXl.y.~ M P M.x.z.c.c.C.C.C.n.Z.T.T.m.C.T.E.E.m.b.",
"C.C.n.n.b.c.v.v.V.V.V.C.Z.R.E.T.v.V.S.N.V 1 > * x c y.u.h.8XuXCXZXCXyXuX0XuX0X4Xi.T a Z V P M.v.v.v.C.C.C.n.T.T.T.T.T.R.E.R.T.m.",
"C.C.C.T.v.b.n.C.C.v.V.C.R.Q.R.T.C.V.N.P b , 0 > x c W y.u.p.8XuXuXuX0X9X9X8X8Xp.W F d i Z V x.v.v.v.n.C.C.T.n.T.T.T.T.E.Q.T.m.m.",
"C.C.n.T.T.T.C.C.C.C.V.C.R.R.R.R.C.M.P Z i : % r u x j c v y.p.=X>X9X>X;X$X$Xs.u.E T a r > b B v.v.v.n.C.n.C.n.n.n.C.R.!.!.!.T.n.",
"n.C.C.T.R.T.T.n.Z.C.V.C.T.R.Q.R.D.x.M 1 : : 6 t 9 u u x x c K 9.%X&X%X%Xs.p.u.y.E T u w = - N z.z.v.C.T.T.n.n.v.n.C.T.Q.!.!.R.T.",
"V.C.C.Z.R.R.m.b.C.C.C.Z.T.Q.!.Q.A.B 1 = ; : w t 9 s r u r < f k 7.q.q.q.p.p.t.v x x u w w q m N z.v.C.R.T.C.v.v.C.T.C.T.!.~.Q.E.",
"C.C.Z.R.Q.T.b.b.C.Z.C.C.T.!.!.Z.P N - # : r w w t t w w & & 9 f l t.y.u.u.E j x x a y y y q 1 m B v.T.R.T.n.n.n.T.C.n.n.E.Q.Q.E.",
"R.E.T.R.Z.C.v.v.R.E.Z.Z.Q.E.T.M.B n > # : 0 0 0 t t t w 5 & 9 d T W g.g.T x < < r r w w y y ; b C M.C.C.n.n.v.n.C.C.n.v.C.T.T.Q.",
"!.Q.R.T.Z.C.b.v.R.!.T.R.!.E.Z.M.N 1 > > 0 0 0 0 t w w w $ 7 ] ..T *.l.j.+.9 6 6 0 0 w w w w : ; V x.V.C.n.v.v.v.n.n.v.n.C.C.T.T.",
"!.E.T.m.C.C.v.n.T.E.Z.Q.Q.!.F.C b ; : 0 w w 0 0 0 0 0 : o e o.o.&.3.5XxX>.} 8 6 5 5 0 0 0 0 % ; m N c.n.n.C.n.n.v.v.v.C.T.Q.Z.C.",
"E.R.n.b.n.v.v.v.T.R.Z.R.~.Q.H.P b = + 0 0 0 % 0 0 0 0 $ o 7 o.gX>.3.vXvX<. .' 8 5 5 5 q w 0 O = 1 m x.T.C.C.C.n.n.n.C.C.E.R.C.C.",
"E.C.b.b.v.v.c.v.n.m.C.T.Q.Z.N.V b = . o O O 4 4 5 5 0 +   5 o.$.>.;.vXcX:.X.' 8 4 % 0 e w 0 O + - m x.T.n.v.n.n.n.C.T.T.n.n.n.n.",
"E.T.b.b.v.v.v.c.n.n.C.T.E.D.N.C m - . o O 3 4 7 5 5 % + X 8 O.gX>.3.vXcX:. . .` 5 + 0 q 0 0 ; - 1 m M.T.n.n.m.m.T.C.T.T.v.c.n.n.",
"!.E.n.b.n.n.v.c.b.n.T.T.C.n.x.x.x.m ; O 8 8 [ ` 7 3 O O 3 ] dXgX>.3.vXxX:. . .] e % ; : : ; p n N N.A.C.C.C.T.R.T.C.C.C.C.V.C.C.",
"R.T.n.n.C.C.v.b.n.T.R.R.C.V.v.V.x.C 1 w [ { { { ` 4 3 7 ` X.dXhX>.3.vXxX<.X.X.} y q 1 1 b b V P N.F.Z.Z.C.Z.E.T.Z.C.v.v.C.C.Z.Z.",
"n.n.b.n.C.T.C.C.T.R.!.!.Q.T.C.V.K.x.M d  .X.dXdXX.] 8 8 ] O.fXgX>.3.vXxX:... . .d Z D Q H.H.K.S.Z.Q.Q.R.Z.C.n.T.C.C.v.v.v.v.C.C.",
"v.b.v.n.T.T.C.C.T.E.!.!.Q.E.Z.C.A.x.C S | X.dXfXO...| | @.kXfXkX&.3.vXxX:. .] | S D H.K.I./.W.E.~.!.Q.Z.C.C.n.n.C.C.n.v.v.C.C.C.",
"v.n.Z.T.Z.C.C.C.R.Q.T.E.Q.~.E.Z.A.A.J.Q | [ $.fX<.<.3.1.1.<.kX,.>.3.vXxX@.} } | a L M.A.D.Q.R.R.E.R.C.n.n.n.n.C.T.R.n.v.C.Z.R.R.",
"v.C.T.E.T.T.V.Z.R.R.Z.T.Q.Q.Q.Z.C.A.P.Q Z | o.,.1.kXxXxXj.4.,.@.&.;.xXk.+.' ' s a M B V.Z.E.T.T.C.C.n.v.v.v.n.T.Q.Q.C.C.C.R.Q.Q.",
"C.C.R.Q.!.Q.R.Z.T.T.R.T.T.R.Q.R.D.C.A.M.A S | @.4.xXzXzXcX5X&.| %.1.4.2.+.] ] 9 y b C S.Z.Q.E.T.C.n.n.v.v.v.v.T.!.~.Z.Z.Q.R.R.R.",
"E.R.E.Q.!.!.R.Z.n.T.R.R.T.R.R.R.C.n.n.x.P Y d %.4.nXzXzXnX4.%.r x &.kX<.+.' ] ' 9 i C S.Z.Q.Q.R.C.C.V.n.n.v.v.n.Q.!.T.Z.Z.Q.E.R.",
"!.!.!.E.R.Z.C.C.n.T.R.!.E.E.T.T.V.C.C.A.M.P A R =..XlXlXlX2.| s | @.kXkXX.} ] ' 8 i P S.Q.Q.Q.Q.Q.E.C.V.T.T.n.n.C.C.C.n.C.Z.T.E.",
"~.!.!.E.T.C.v.v.n.T.R.E.E.E.C.n.n.n.C.Z.D.N.L S #.#.lXlXjX#.d r s  .gXgXX.} ] ` 8 i P G.R.Q.Q.Q.!.Q.Z.C.T.T.m.n.C.C.v.n.C.C.T.R.",
"T.E.!.E.C.v.v.v.C.T.T.T.Z.C.n.v.C.v.n.n.Z.M.D Z s { jX#.#.#.x u 9 } O.gXo. .] ` 7 w C M.Z.R.Q.Q.R.R.Z.T.R.T.b.b.n.C.C.C.C.C.R.R.",
"T.T.R.R.n.b.c.v.T.T.C.C.Z.C.v.v.C.C.n.Z.D.M.D Z 5 [ [ #.| d u u * 8 X.O.O.X.] 8 3 : V N.S.Z.T.R.Z.Z.R.R.T.T.n.b.n.C.T.C.T.C.T.Z.",
"T.T.T.T.C.v.c.v.T.T.C.n.C.n.v.v.n.R.^.^./.J.! p : $ 8 e 6 6 & * % 8 [ X.dXO.[ 4   - L H.S.T.n.m.C.C.R.T.C.C.n.v.C.T.E.T.R.T.T.v.",
"m.T.m.T.C.C.b.c.C.T.m.C.C.C.n.n.W.^.(.(._.).Y p # o O O $ $ $ $ : 7 8 [ O.O.` 3   . Y ).P.L.K.b.C.C.R.R.C.C.V.C.T.R.R.E.T.T.m.n.",
"n.T.T.R.T.n.v.v.v.n.T.T.C.C.n.n.D.I. X{.! A Z , # $ % 5 % % % # 0 7 7 ` { { 7 X   . Y ! [.`.I.L.Z.C.T.R.C.V.V.C.T.E.E.R.T.m.T.E.",
"n.T.E.E.T.n.v.n.n.T.T.T.Z.C.A.L.I.`.}.) A p , # % % % % % % % % 0 5 3 3 8 e 5 o   # A ( [.{.`._.L.Z.Z.C.V.V.C.Z.!.!.R.C.m.m.R.E.",
"n.T.Q.!.T.C.n.T.R.R.T.n.C.Z.L._.`.{.oX=.b : : : & & % 5 % @ + + o O X X 3 5 % O   = Z / .XXX{.`.I.L.V.n.C.C.T.Q.~.~.R.T.R.E.E.R.",
"n.T.Q.E.C.n.T.T.E.E.T.m.C.D.I.`.{..XXX^ p = % : & 6 6 : 5 @ + + : @ X X o $ % $   = Z ^ =..XXX{.`.I.A.C.v.V.R.!.~.!.R.Z.R.R.R.T.",
"T.C.T.C.v.v.T.E.!.!.W.m.m.K.).{..X.X.X^ Z ; : 5 0 0 t 0 5 % # > p 2 o   o % % % o # Z R =.=..X{.{._.G.Z.v.n.E.E.R.R.T.R.T.T.m.T.",
"R.T.C.C.v.v.T.T.E.!.E.W.m.x.)..X-..X.X=.A p 0 : 6 t y t 0 0 , i A A .   $ % 6 % + # p Y A ^ =..X{.`.^.T.v.n.E.E.T.Z.R.R.R.T.C.n.",
"!.Q.Z.C.C.n.b.m.T.E.R.T.m.K.{..X.X.X.X=.A S ; $ # t y s y y r p ~ R ; o @ 5 0 0 0 0 i a Z S =.=.[.`.L.T.n.n.!.!.Q.Q.Q.R.R.C.C.V.",
"!.Q.C.C.C.T.n.b.m.T.E.R.n.v._.{..X.X.X.X=.A 2 : # , y y y y : p ^ ^ 2 o @ % % 0 0 w s i q Z A ) [.`.^.T.m.T.!.~.Q.Q.Q.Q.Z.Z.C.V.",
"R.Z.n.n.C.C.C.n.m.R.~.!.T.n.I.).{.XX.X.X.X=.Z 1 : & : 5 : : @ i ~ ~ 2 . + % @ % = : w 0 % , A ) ).I.W.R.n.T.!.!.Q.T.E.R.R.T.C.V.",
"R.C.C.C.C.T.C.C.T.R.~.!.W.T.K._.`.{.oXXXXX=.~ S Z r ; r 2 r > a ^ ^ Z , > : , i 2 i p i , b ! H.I.W.E.T.n.m.E.E.Z.Z.T.R.Q.R.C.v.",
"R.T.T.T.T.T.C.C.C.Z.R.E.W.W.W.K.I.`.oXXXXXXX=.( R Y Y Y R Y R ~ =.=.R R Y Y Y R R R R R D D Q _.A.Z.T.R.v.n.R.R.C.C.T.R.!.R.v.c.",
"C.T.T.T.T.T.C.C.n.v.C.C.R.R.T.T.L._.`. X}.oXXXXX) ) / / *.=./ ( -.-.-.-./ / / / ) ) ) ! ) D K.x.v.b.n.n.b.b.T.T.n.v.m.T.!.E.v.v.",
"v.n.T.T.T.n.n.v.v.c.c.v.C.C.m.T.T.K.L.|. X X XoX[.-.-..X-.OX-.-.-.-..X.X.X.X.X{.{.}.`.).K.x.z.c.c.c.c.c.c.c.b.b.v.n.n.T.E.R.Z.C.",
"b.v.T.T.C.n.v.v.c.c.c.c.v.n.C.m.n.n.W./.|. X X}.{.XXOXOXOXOXOX-.OXOXOXOXOXOXoXoX X X X`.K.z.z.c.c.c.z.z.c.c.c.b.b.n.n.n.Z.T.E.R."
};
