/* XPM */
static char *out[] = {
/* columns rows colors chars-per-pixel */
"50 50 247 2 ",
"   c #071318",
".  c #152B1E",
"X  c #1B3A1D",
"o  c #243D1E",
"O  c #061C26",
"+  c #0D232C",
"@  c #1A272A",
"#  c #1A3423",
"$  c #193827",
"%  c #1B3B2A",
"&  c #072A3A",
"*  c #1B3C34",
"=  c #17373A",
"-  c #253C27",
";  c #243A36",
":  c #323A33",
">  c #1F401D",
",  c #27471A",
"<  c #2E5219",
"1  c #39581C",
"2  c #3B6518",
"3  c #1D4429",
"4  c #1A443A",
"5  c #264525",
"6  c #2C4A23",
"7  c #2B442C",
"8  c #334C24",
"9  c #34452B",
"0  c #364B2C",
"q  c #2B5326",
"w  c #385626",
"e  c #274638",
"r  c #374A36",
"t  c #275736",
"y  c #3A5538",
"u  c #3C632A",
"i  c #3C6735",
"p  c #435D1D",
"a  c #46681B",
"s  c #4E751A",
"d  c #53781B",
"f  c #617E1F",
"g  c #445C2A",
"h  c #40483A",
"j  c #44573A",
"k  c #466627",
"l  c #4A7329",
"z  c #567826",
"x  c #476438",
"c  c #55693A",
"v  c #497738",
"b  c #597836",
"n  c #63793A",
"m  c #012E41",
"M  c #053448",
"N  c #1A3B48",
"B  c #063C53",
"V  c #283C44",
"C  c #194A45",
"Z  c #164D53",
"A  c #254942",
"S  c #2B4B44",
"D  c #2A4847",
"F  c #364C46",
"G  c #28534A",
"H  c #385645",
"J  c #34534B",
"K  c #3B554C",
"L  c #3B5B4B",
"P  c #355352",
"I  c #395557",
"U  c #3D5B50",
"Y  c #3A6B4B",
"T  c #3B6756",
"R  c #054A67",
"E  c #12546A",
"W  c #055475",
"Q  c #3B5A64",
"!  c #276172",
"~  c #465844",
"^  c #435B4D",
"/  c #4B5D4C",
"(  c #52584B",
")  c #465757",
"_  c #425C51",
"`  c #545D58",
"'  c #486446",
"]  c #4D644C",
"[  c #55674A",
"{  c #477646",
"}  c #5C7748",
"|  c #456254",
" . c #4B6354",
".. c #4B6857",
"X. c #4C6A5C",
"o. c #536554",
"O. c #586757",
"+. c #526B54",
"@. c #546B5B",
"#. c #5A6C5B",
"$. c #4B7358",
"%. c #5A725A",
"&. c #646A4B",
"*. c #637949",
"=. c #646C57",
"-. c #63735B",
";. c #697859",
":. c #777D59",
">. c #465E67",
",. c #556C64",
"<. c #516C6D",
"1. c #5C7463",
"2. c #59796A",
"3. c #647463",
"4. c #657A64",
"5. c #6C7B65",
"6. c #69726C",
"7. c #657868",
"8. c #6B7D6A",
"9. c #767B65",
"0. c #727E6A",
"q. c #677A75",
"w. c #837D69",
"e. c #5B851B",
"r. c #628B1C",
"t. c #6D991D",
"y. c #5C8529",
"u. c #5B8634",
"i. c #648825",
"p. c #6A9629",
"a. c #658637",
"s. c #789334",
"d. c #74A627",
"f. c #57874B",
"g. c #588859",
"h. c #66844B",
"j. c #6B8A4E",
"k. c #768559",
"l. c #5A8C6F",
"z. c #6B826B",
"x. c #798567",
"c. c #75836C",
"v. c #7A846C",
"b. c #668375",
"n. c #6C8373",
"m. c #738573",
"M. c #768975",
"N. c #7B8A74",
"B. c #768978",
"V. c #7B8C7A",
"C. c #6B9771",
"Z. c #7C9476",
"A. c #75A474",
"S. c #8AB425",
"D. c #828B56",
"F. c #84866B",
"G. c #8D8C6D",
"H. c #838B74",
"J. c #888874",
"K. c #8C8B74",
"L. c #828E7A",
"P. c #968D76",
"I. c #889376",
"U. c #84927C",
"Y. c #8B947C",
"T. c #94947B",
"R. c #97957C",
"E. c #A49279",
"W. c #95A17D",
"Q. c #035D84",
"!. c #076389",
"~. c #036B97",
"^. c #0B729B",
"/. c #31738B",
"(. c #0276A8",
"). c #017DB1",
"_. c #45768B",
"`. c #358794",
"'. c #0283BA",
"]. c #6A8687",
"[. c #629F94",
"{. c #4D96B6",
"}. c #6C9DB0",
"|. c #7BA9B9",
" X c #0691CB",
".X c #0396D5",
"XX c #019BDC",
"oX c #3BA9D8",
"OX c #019FE2",
"+X c #01A2E6",
"@X c #00A5EC",
"#X c #19AFEF",
"$X c #02ACF4",
"%X c #01AEF8",
"&X c #01B3FE",
"*X c #0BB5FE",
"=X c #17B8FD",
"-X c #2EAFE6",
";X c #26BEFF",
":X c #49A8D1",
">X c #51BCEB",
",X c #60BCE5",
"<X c #3AC3FE",
"1X c #53D1D2",
"2X c #4CC8FE",
"3X c #57CCFE",
"4X c #6DCDF6",
"5X c #63CFFE",
"6X c #76CFF5",
"7X c #65D0FF",
"8X c #6BD2FF",
"9X c #73D5FF",
"0X c #7BD6FE",
"qX c #859482",
"wX c #8A9682",
"eX c #8D9984",
"rX c #8B9B8B",
"tX c #949B84",
"yX c #969B86",
"uX c #9B9C84",
"iX c #889A91",
"pX c #A79D86",
"aX c #96A289",
"sX c #9BA28B",
"dX c #9CA793",
"fX c #95B29A",
"gX c #A6A68B",
"hX c #B5AA8F",
"jX c #A5AC96",
"kX c #ACAD94",
"lX c #A8B298",
"zX c #ABB39B",
"xX c #B2B49C",
"cX c #B9B89C",
"vX c #95B5B2",
"bX c #ABB9AA",
"nX c #B7BBA2",
"mX c #A8BAB5",
"MX c #B5C5B4",
"NX c #C4C4AF",
"BX c #95C8D8",
"VX c #B4CFCE",
"CX c #83D9FD",
"ZX c #ACDBE9",
"AX c #B2E2F2",
"SX c #B7E9F9",
"DX c #C1E5EC",
/* pixels */
"a 0 j h 9 9 , 5 3 , 6 9 5 o 9 6 o , , 8 w r.e.< d S.r.s , , , 6 0 w 7 o - 9 9 - w < < , 2 < > $ X 2 ",
"n R.P.P.G.J.9.r T g F.F.9.=.=.6.=.- j :.k.y.y.} y.t.s ;.j < c J.F.x.;.~ H.v.9.3.O., < ' j +.] L 5 < ",
"F.pXhXpXgXkXuX/ a } pXpXE.P.K.J.w.r h R.T.*.Y.H.x.} -.wXc.r 0.T.I.F.x.;.Y.F.m.m.7.7 ' z.%.z.@...L ; ",
"9.gXhXxXkXkXsX( c &.pXpXR.R.P.w.9.r ~ R.T.x.I.v.c.4.M.N.z.7 -.H.x.G.H.v.5.0.0.0.7.7 2.j.eX+...^ S 3 ",
"=.uXkXnXzXlXsX[ d c pXE.K.J.F.=.h r [ sXR.H.0 ~ ] ~ ~ %.K 5 - / Y.H.v.c.-.8.3.3. .- v M.8.#...J C t ",
"&.J.xXnXzXlXsX#.d f 9 h 9 9 9 0 8 g j v.I.H.z.I.I.H.N.M.z.0 ' Y.N.v.v.8.O.o.;.c.r 7 h.%. .| ^ ; * { ",
"[ xXlXzXlXjXdXo.b cXcXcXnXnXcXlX:.b } x.F.x.z.I.v.N.Z.m.7.e O.c.5.5.8.-.c.0.3.,.| 6 i.Z. .y H $.f.j.",
"/ qXwXwXV.3./ r c NXnXnXcXcXcXnXO.k c x.x.5.N.x.c.Z.M.n.7.S F 8.7.4.3.3.8.-.#.O.X.$ z j.j.h.} y.r.d.",
"p 8 9 9 o 8 p p n nXnXnXnXnXnXzX#.k [ 0.0.#.0.0.8.n.b.z.2.G 4 e  .L r o.~ ^ ^ J S 3 ;.kXuXT.H.o.*.u.",
"d D.D.:.w.w.w.n n hXnXnXnXbXbXlX] x ~ / ^ - - 7 7 e e 4 G 3 $ 3 % $ . - . # # % 4 5 :.xXgXyXeXV.V.y ",
":.cXpXE.E.P.w.&.c zXxXxXzXzXbXlX~ k h.u x b p.y.r.y.l c c b b } x g a a k g g g 1 a x.sXaXrXwXB.1.r ",
"&.hXpXpXE.pXw.j j jXyXsXyXjXdXwXt k s.s.s.s.s.s.s.r.G.cXkXxXgXnXhX=.p D.hXpXE.E.( a ;.tXyXeXU.B.B.e ",
"c pXR.P.R.P.w.r 8 ~ ~ ( / ~ r r e k nXhXhXgXgXgXnX0 sXhXkXkXxXkXsXO.8 &.pXE.w.w.( 8 &.tXwXN.V.B.b.S ",
"j pXP.P.K.J.9.h p k j j h h 0 8 k b NXNXkXkXgXpXyX: ;.H.x.zXzXdXaXeX0 =.P.w.P.w.O.p x L H ]  .K L 7 ",
"h w.G.J.J.N.` 9 c cXcXkXuXzXjXiXfXbXDXDXVXVXVXbXdXF wXzXaXaXsXaXY.M.: &.E.G.J.F.=.w s g h 8 0 9 8 u ",
"h h ( ( ` ~ r : c gXkXdXbXVXZXAXAXSXSXSXSXSXSXZXZXvXvXbXdXrXM.c.5.,.- =.pXP.U.J.=.8 :.hXuXK.5.5.5.7 ",
"[ #.( ) F r ~ ` q.6.>.>.>.>.>.<.].|.BXZXZXBX}.].<.>.>._.dXiX#.qXqXn.- =.tXU.U.L.#.w :.K.w.9.=.#.#.e ",
"@ N B R Q./././._./.~.(.(.(.(.Q.m O + Q D & R /.{./.(.~.N I ) >.1.S e y ( O.#.~ F j 9.9.9.=.~ ` _ e ",
": @ R XX$X;X5X0X0X3X;X%X%X%X%X@XXX'.& & !.@X*X3X8X5X;X&X).O W R ; r 1 s p 1 p k ' *.;.;.3.O.3.+.K @ ",
"=.uX6.@  X2X8XCX6X5X=X%X%X%X).&   + /.-X&X&X*X3X9X8X3X*X$XB ~.OXB ` =.a G.kXR.T.F.k [ 3.#.3.X.| J  .",
"&.gXrX_.& :X8XCX0X8X>X&X%X(.N Q @ {.4X3X=X&X*X3X8X0X5X;X%X~.Q.@X.Xm ` : pXuXtXwXm.w 6 H ; e ; * = _ ",
"( =.) : & :X5XCXCX8X3X%X).N }.I _.CXCX5X<X&X&X;X5X0X4X;X$XW O Q..X~.+ : qXtXY.L.@.k e.1 , X X - , 1 ",
"h O Q..X#X>X5X9XCX8X:X!.N |.|.V 4X9XCX9X3X*X&X*X2X8X4X>X^.m W M M M ; : qXqXL.V.o.w l *.k g *.*.n n ",
"E @ N !.).).{.{.}._.V ) BXAX].W >X3X6X,XoX.X.X.X:X{._.N M (..XXX.X).Q r H.].V.8.z z j.;.N.-.Y.U.H.5.",
"_.hXrXq.^ ) >.) ^ >.vXAXSXSX>.~.-X:X! 4 & & & & & m R ). XW Z R OX+XM o.j H ~ l r.a.I.Y.U.-.M.U.L.7.",
"9.pXaXI.c lXjXM.' zXbXDXSXSXI Q.B = W '. X.X.XOXXX+X$X@XW :X1X`.(.@XR ( n z z i.i.i.k.L.V.qXI.M.m.%.",
"` U.c.' %.dXtX] 5.lXsXlXvXSXP   O  X%X2X8X3X3X3X;X&X&X).E 1X1X`.^.@XR =.gXR.T.Y.H.;.x +.7.qXM.n.n.^ ",
"r V.N.c.y ~ 5.I.;.Z.z.Z.c.mX`   O XX*X3X9X9X9X8X;X&X&X.X'.E `.Z  X$XB q.tXyXU.Z.m.#.$...1.V.z.z.b.L ",
"r _ L r 5 ;.tXK.x.x.lXjXgXY.].q.O ).&X<X8X9X9X7X=X&X&X&X@XXXW E @XOX& qXrXqXZ.M.z. .k j.f.%.%.+.L x ",
"u < 0 j l k.H.H.x.lXlXgXdXuXY.rX; R $X*X<X3X2X=X&X&X&X&X$X&X&X&X%X).V wXU.V.m.z.+.F a r.s.j.a.h.a.i.",
"c uXT.I.G.} x.9.+.] aXsXaXeXN.c.].& OX&X&X*X&X&X&X&X$X'.&X&X<X3X*XB ) #.1.%.+.| y w n gXgXY.L.L.dX' ",
"[ T.K.T.v.j 5.5.U.U.} qXqXM.m.5.8.V ~.%X&X&X&X&X&X&X$XZ '.#X5X4X_.- [ 1 l d.S.d e.d Y.tXU.H.M.0.n.J ",
"9.uXv.=.] w r m.c.5.3.] M.z.z.@.K ,.+ ).&X&X&X&X&X&X&XXXB M /.{.+ _.E.P.x.*.x.z.} k c.U.U.M.n.z.n.J ",
";.K.H.L.4.8 g 1.0.3.+.] ^ J ; % # q 2.N (.$X&X%X&X&X&X%XOX(.M O >.0.F.x.5.@.U.%. .- 7.V.V.M.n.n.b.U ",
"3.J.N.m.5.r l H X...F e . # o y *.*.k.q.V W  X@X%X%X$X@X).R O F q.0.5.3.%./ K +.^ - ,.B.B.n.n.n.B.G ",
"=.N.N.m.%.g b q * * # X < g Y.gXtXtXwXrX2.) Q Z W E R M = ) ~ e  .3.3.o.| 7.^ T H # r | X.....J e G ",
"/ 3.8.n.{ i.r.d q 6 u s e.k.kXT.Y.L.N.z.0 ' B.B.6.].6.,.<.o.S # H o...n.@...Y | S # < 1 y r r 7 3 5 ",
"w r j x b f D.sXsXtXY.:.z *.eXI.N.N.m.7.9 [ q.3.1.O.^ ..X.) U % 6 L 1...| U Y G A 4 l } 4.@.| | L 6 ",
"} dXwXL.V.x pXuXR.tXyXyX7 c U.M.M.n.n.7.- x 1.+.` ) ^ ; U J S e v Y ..,.U P G C C t f.' .. .L J G * ",
"0.wXc.8.,.j Y.Y.Y.U.L.V.- ' B.m.n.b.b.,.y w U | ^ K J D = S G Z C.].$.T J P G G Y u.} +._ L P S A % ",
"' 7.1.@.^ y qXU.L.L.M.n.- 0 ....@.,.X.U q x 4 U L G S 4 & q 4 t j.C.A.2.T Y v g.A.{ $...e G S A t q ",
"5 L L Y ' ' Z.V.V.B.n.b.- a , 5 - 5 - - 2 s $ 4 C Z 4 4 t 2 i l p.C.g.u.u.p.d.l l.f.y 5 < w 3 t u y.",
"a l } z e.b V.m.n.n.b.b.; *.sXY.U.c.7.7...w v 5 3 > q l e.y.Y.W.Z.} U.Z.Z.-.+.+.T q z a.a.y.l l z y.",
"-.tXgXL.x k b.1...b.2.P 4 x.v.5.#.+. ._ U 7 g.;.z.x.z.' s k.U.0.3.' 4.4.%.| ^ K G % -.M.x.4.m.n.2.r ",
"-.aX0.3.' q - e A J T C 3 -.z.#.o./ _ U J - +.L.Z.M.M. .w j 3.-.@.#.+...| ^ J J G $ O.8.8.#. ._ U ; ",
"/ N.3.#.y 4.x l l.Y Y i k ' 3.o._ _ P J D # ' V.N.M.n...6 r #.@.o. .r K K J J S C 5 +.7.@. ._ _ K 4 ",
"~ ^ #.] 4.1.| ' ' g.MXC.v [ #.^ K J S D C * ' B.m.8.n.T 6 x y | _ J S S J S S C 3 y ~  ._ ^ K J G = ",
"^ +.r n.X.| U L H $.[.[.Y +.@.L J S D D ; $  .V.n.b.q.L q L X.L D V e 4 S A G Z Y g. ._ K P J J G 4 ",
"q j i X.U G G P T g.A.l.g.i 4 4 4 4 4 e t q b.X.X.,.X.G { r S A ; = C C = i t Y [.f.t t e A e A G 4 ",
"e.r.u 5 T 2.<.Y u.u.p.f.C.v , > $ 3 # 3 6 k f.<.| U U Y u.u . # # $ $ 3 > r.t.e.v f.u 3 3 5 X 3 q l "
};
